<svg width="710" height="426" viewBox="0 0 710 426" fill="none" xmlns="http://www.w3.org/2000/svg">
<g id="about_hero">
<g id="background">
<path id="Vector" d="M691.83 284.16C682.69 240.9 664.17 198.56 641.89 160.49C605.71 98.6799 551.65 44.3099 479.72 28.1299C316.73 -8.54009 281.69 152 245 173.19C208.31 194.38 117.06 183 67.3497 250.62C17.6397 318.24 23.3497 425.02 23.3497 425.02H699C700.49 377.82 701.58 330.23 691.83 284.16Z" fill="#0987FF"/>
<path id="Vector_2" opacity="0.7" d="M691.83 284.16C682.69 240.9 664.17 198.56 641.89 160.49C605.71 98.6799 551.65 44.3099 479.72 28.1299C316.73 -8.54009 281.69 152 245 173.19C208.31 194.38 117.06 183 67.3497 250.62C17.6397 318.24 23.3497 425.02 23.3497 425.02H699C700.49 377.82 701.58 330.23 691.83 284.16Z" fill="white"/>
</g>
<g id="freepik--Floor--inject-10">
<path id="Vector_3" d="M686.72 424.8H707.67" stroke="#263238" stroke-miterlimit="10"/>
<path id="Vector_4" d="M67.3496 424.8H678.57" stroke="#263238" stroke-miterlimit="10"/>
<path id="Vector_5" d="M0.519531 424.8H58.3795" stroke="#263238" stroke-miterlimit="10"/>
</g>
<g id="freepik--Plants--inject-10">
<g id="Group" opacity="0.15">
<path id="Vector_6" opacity="0.15" d="M307.221 424.39C307.161 424.07 301.171 391.25 298.691 346.03C296.401 304.33 295.971 245.03 310.431 190.86L309.021 188.46C301.021 218.54 292.301 270.32 296.471 346.19C299.001 391.55 305.001 424.47 305.001 424.8L307.221 424.39Z" fill="black"/>
<path id="Vector_7" opacity="0.15" d="M331.89 225.78C315.11 231.95 305.08 237.86 299.74 241.6C300.37 234.99 304.81 219.32 330.46 200.98C371.1 171.92 450 196.71 468.4 203.1C428 204.79 374.28 210.2 331.89 225.78Z" fill="black"/>
<path id="Vector_8" opacity="0.15" d="M332.57 227.11C376.07 211.11 431.57 205.94 472.14 204.44L472.32 204.51C472.32 204.51 427.25 245.58 372.47 254.66C317.69 263.74 299.74 245 299.74 245C299.679 244.526 299.649 244.048 299.65 243.57C304.64 239.91 314.89 233.6 332.57 227.11Z" fill="black"/>
<path id="Vector_9" opacity="0.15" d="M274.521 250.55C286.781 258.73 293.691 265.41 297.241 269.43C298.021 264.01 297.491 250.59 280.461 230.93C253.461 199.78 185.461 204.42 169.461 205.99C201.471 215.14 243.541 229.86 274.521 250.55Z" fill="black"/>
<path id="Vector_10" opacity="0.15" d="M273.71 251.48C241.92 230.29 198.4 215.38 166.18 206.34H166.021C166.021 206.34 194.23 248 236.4 265.87C278.57 283.74 296.601 272.12 296.601 272.12C296.741 271.752 296.855 271.375 296.941 270.99C293.641 267.13 286.64 260.1 273.71 251.48Z" fill="black"/>
<path id="Vector_11" opacity="0.15" d="M322.211 350.36C309.951 358.54 303.051 365.22 299.491 369.25C298.721 363.82 299.251 350.4 316.281 330.74C343.281 299.59 411.281 304.24 427.281 305.8C395.271 315 353.201 329.67 322.211 350.36Z" fill="black"/>
<path id="Vector_12" opacity="0.15" d="M323.001 351.29C354.801 330.1 398.311 315.19 430.541 306.16H430.691C430.691 306.16 402.491 347.8 360.321 365.66C318.151 383.52 300.121 371.92 300.121 371.92C299.974 371.55 299.857 371.169 299.771 370.78C303.101 367 310.091 359.91 323.001 351.29Z" fill="black"/>
<path id="Vector_13" opacity="0.15" d="M266.221 319.93C282.311 327.7 291.721 334.56 296.671 338.79C296.671 332.15 293.801 316.12 270.051 295.38C232.431 262.5 151.491 279.5 132.561 284.07C172.561 289.67 225.541 300.29 266.221 319.93Z" fill="black"/>
<path id="Vector_14" opacity="0.15" d="M265.4 321.18C223.67 301.08 168.921 290.48 128.711 285.04H128.521C128.521 285.04 169.38 330.3 223.01 344.67C276.64 359.04 296.351 342.08 296.351 342.08C296.458 341.613 296.532 341.138 296.571 340.66C292.001 336.63 282.38 329.36 265.4 321.18Z" fill="black"/>
<path id="Vector_15" opacity="0.15" d="M319.85 155.3C312.74 171.69 310.09 183.03 309.11 189.47C304.76 184.47 296.48 170.47 300.92 139.21C307.92 89.7401 380.35 49.7701 397.67 40.8701C371 71.2301 337.84 113.87 319.85 155.3Z" fill="black"/>
<path id="Vector_16" opacity="0.15" d="M321.291 155.72C339.771 113.24 374.291 69.46 401.221 39.09L401.391 39.01C401.391 39.01 400.001 100 368.761 145.87C337.521 191.74 311.531 191.79 311.531 191.79C311.143 191.505 310.776 191.194 310.431 190.86C311.271 184.76 313.771 173 321.291 155.72Z" fill="black"/>
</g>
<g id="Group_2" opacity="0.15">
<path id="Vector_17" opacity="0.15" d="M511.17 424.56C508.595 409.078 506.896 393.463 506.08 377.79C504.72 352.91 504.46 317.54 513.08 285.2L512.24 283.77C507.45 301.71 502.24 332.61 504.75 377.89C505.554 393.611 507.26 409.274 509.86 424.8L511.17 424.56Z" fill="black"/>
<path id="Vector_18" opacity="0.15" d="M525.89 306C515.89 309.68 509.89 313.21 506.71 315.43C507.09 311.49 509.71 302.14 525.04 291.19C549.3 273.85 596.38 288.65 607.36 292.46C583.27 293.51 551.19 296.74 525.89 306Z" fill="black"/>
<path id="Vector_19" opacity="0.15" d="M526.3 306.83C552.3 297.31 585.39 294.2 609.59 293.3H609.7C609.7 293.3 582.8 317.81 550.11 323.23C517.42 328.65 506.71 317.43 506.71 317.43C506.672 317.148 506.655 316.864 506.66 316.58C509.64 314.46 515.75 310.7 526.3 306.83Z" fill="black"/>
<path id="Vector_20" opacity="0.15" d="M491.66 320.81C496.639 323.977 501.195 327.764 505.22 332.08C505.68 328.85 505.37 320.84 495.22 309.08C479.12 290.49 438.51 293.26 428.97 294.2C448.07 299.68 473.17 308.47 491.66 320.81Z" fill="black"/>
<path id="Vector_21" opacity="0.15" d="M491.18 321.37C472.18 308.73 446.24 299.83 427.01 294.44H426.91C426.91 294.44 443.75 319.29 468.91 329.95C494.07 340.61 504.84 333.68 504.84 333.68C504.92 333.457 504.987 333.23 505.04 333C503.07 330.71 498.9 326.51 491.18 321.37Z" fill="black"/>
<path id="Vector_22" opacity="0.15" d="M520.12 380.38C515.143 383.55 510.586 387.337 506.56 391.65C506.1 388.41 506.42 380.4 516.56 368.65C532.66 350.06 573.27 352.83 582.81 353.77C563.72 359.25 538.61 368 520.12 380.38Z" fill="black"/>
<path id="Vector_23" opacity="0.15" d="M520.6 380.93C539.6 368.29 565.55 359.39 584.78 354H584.87C584.87 354 568.04 378.85 542.87 389.51C517.7 400.17 507 393.25 507 393.25C506.914 393.032 506.843 392.808 506.79 392.58C508.71 390.27 512.89 386.08 520.6 380.93Z" fill="black"/>
<path id="Vector_24" opacity="0.15" d="M486.71 362.22C496.31 366.85 501.93 370.95 504.88 373.47C504.88 369.47 503.17 359.95 488.99 347.57C466.54 327.95 418.25 338.09 406.99 340.82C430.82 344.16 462.43 350.5 486.71 362.22Z" fill="black"/>
<path id="Vector_25" opacity="0.15" d="M486.22 363C461.32 351 428.64 344.67 404.65 341.43H404.54C404.54 341.43 428.92 368.43 460.92 377.01C492.92 385.59 504.69 375.47 504.69 375.47C504.749 375.189 504.792 374.905 504.82 374.62C502.07 372.19 496.35 367.85 486.22 363Z" fill="black"/>
<path id="Vector_26" opacity="0.15" d="M518.71 264C514.47 273.78 512.89 280.55 512.3 284.39C509.7 281.39 504.76 273.02 507.41 254.39C511.61 224.88 554.81 201.02 565.15 195.71C549.26 213.81 529.45 239.25 518.71 264Z" fill="black"/>
<path id="Vector_27" opacity="0.15" d="M519.57 264.23C530.57 238.88 551.22 212.75 567.27 194.63H567.37C567.37 194.63 566.54 231.01 547.9 258.4C529.26 285.79 513.75 285.8 513.75 285.8C513.518 285.632 513.297 285.448 513.09 285.25C513.59 281.56 515.08 274.54 519.57 264.23Z" fill="black"/>
</g>
<g id="Group_3" opacity="0.15">
<path id="Vector_28" opacity="0.15" d="M634.931 424.62C632.981 412.909 631.696 401.096 631.081 389.24C630.081 370.41 629.851 343.65 636.381 319.18L635.751 318.1C632.121 331.67 628.201 355.05 630.081 389.31C630.696 401.203 631.984 413.052 633.941 424.8L634.931 424.62Z" fill="black"/>
<path id="Vector_29" opacity="0.15" d="M646.071 335C640.952 336.754 636.077 339.15 631.561 342.13C631.841 339.13 633.841 332.08 645.431 323.8C663.781 310.68 699.431 321.87 707.711 324.75C689.481 325.47 665.211 327.91 646.071 335Z" fill="black"/>
<path id="Vector_30" opacity="0.15" d="M646.38 335.55C666.02 328.34 691.09 325.99 709.38 325.31H709.46C709.46 325.31 689.12 343.88 664.4 348C639.68 352.12 631.56 343.62 631.56 343.62C631.544 343.403 631.544 343.186 631.56 342.97C633.77 341.32 638.4 338.47 646.38 335.55Z" fill="black"/>
<path id="Vector_31" opacity="0.15" d="M620.17 346.13C623.937 348.525 627.384 351.387 630.43 354.65C630.78 352.21 630.54 346.15 622.85 337.27C610.67 323.21 579.95 325.27 572.73 326.01C587.19 330.14 606.18 336.79 620.17 346.13Z" fill="black"/>
<path id="Vector_32" opacity="0.15" d="M619.811 346.55C605.451 336.98 585.811 330.25 571.261 326.17H571.181C571.181 326.17 583.921 345 603.001 353C622.081 361 630.181 355.83 630.181 355.83C630.181 355.83 630.251 355.65 630.341 355.32C627.242 351.936 623.7 348.986 619.811 346.55V346.55Z" fill="black"/>
<path id="Vector_33" opacity="0.15" d="M641.701 391.19C637.936 393.586 634.492 396.453 631.451 399.72C631.101 397.27 631.341 391.21 639.021 382.33C651.211 368.27 681.931 370.33 689.151 371.07C674.691 375.2 655.691 381.85 641.701 391.19Z" fill="black"/>
<path id="Vector_34" opacity="0.15" d="M642.071 391.61C656.421 382.04 676.071 375.31 690.621 371.23H690.691C690.691 371.23 678.001 390 658.921 398.11C639.841 406.22 631.741 400.93 631.741 400.93C631.672 400.765 631.618 400.595 631.581 400.42C634.666 397.025 638.194 394.062 642.071 391.61Z" fill="black"/>
<path id="Vector_35" opacity="0.15" d="M616.421 377.45C621.348 379.705 625.969 382.578 630.171 386C630.171 383 628.881 375.76 618.171 366.4C601.171 351.55 564.651 359.23 556.101 361.29C574.141 363.79 598.061 368.58 616.421 377.45Z" fill="black"/>
<path id="Vector_36" opacity="0.15" d="M616.051 378C597.211 368.92 572.491 364.13 554.341 361.68H554.261C554.261 361.68 572.701 382.12 596.921 388.6C621.141 395.08 630.021 387.43 630.021 387.43C630.072 387.219 630.108 387.005 630.131 386.79C628.001 385 623.721 381.71 616.051 378Z" fill="black"/>
<path id="Vector_37" opacity="0.15" d="M640.641 303.12C638.376 308.037 636.746 313.222 635.791 318.55C633.791 316.29 630.091 309.95 632.091 295.86C635.261 273.53 667.951 255.48 675.771 251.46C663.751 265.17 648.761 284.42 640.641 303.12Z" fill="black"/>
<path id="Vector_38" opacity="0.15" d="M641.291 303.31C649.631 284.13 665.231 264.37 677.381 250.66H677.451C677.451 250.66 676.821 278.18 662.721 298.91C648.621 319.64 637.071 319.38 637.071 319.38C636.952 319.415 636.826 319.419 636.705 319.391C636.584 319.363 636.472 319.304 636.381 319.22C636.761 316.42 637.891 311.11 641.291 303.31Z" fill="black"/>
</g>
<g id="Group_4" opacity="0.15">
<path id="Vector_39" opacity="0.15" d="M80.2608 424.62C82.2045 412.908 83.4899 401.096 84.1108 389.24C85.1108 370.41 85.3408 343.65 78.8008 319.18L79.4408 318.1C83.0708 331.67 86.9908 355.05 85.1108 389.31C84.4959 401.204 83.2038 413.053 81.2408 424.8L80.2608 424.62Z" fill="black"/>
<path id="Vector_40" opacity="0.15" d="M69.1205 335C74.2388 336.754 79.1142 339.15 83.6305 342.13C83.3505 339.13 81.3405 332.08 69.7605 323.8C51.4105 310.68 15.7605 321.87 7.48047 324.75C25.7005 325.47 50.0005 327.91 69.1205 335Z" fill="black"/>
<path id="Vector_41" opacity="0.15" d="M68.8105 335.55C49.1705 328.34 24.1005 325.99 5.81047 325.31H5.73047C5.73047 325.31 26.0605 343.88 50.7905 348C75.5205 352.12 83.6305 343.62 83.6305 343.62C83.6472 343.403 83.6472 343.186 83.6305 342.97C81.4205 341.32 76.7905 338.47 68.8105 335.55Z" fill="black"/>
<path id="Vector_42" opacity="0.15" d="M95.0002 346.13C91.2317 348.522 87.7838 351.385 84.7402 354.65C84.3902 352.21 84.6302 346.15 92.3202 337.27C104.5 323.21 135.22 325.27 142.44 326.01C128 330.14 109 336.79 95.0002 346.13Z" fill="black"/>
<path id="Vector_43" opacity="0.15" d="M95.3806 346.55C109.741 336.98 129.381 330.25 143.931 326.17H144.001C144.001 326.17 131.271 345 112.231 353C93.1906 361 85.0506 355.83 85.0506 355.83C85.0506 355.83 84.9806 355.65 84.8906 355.32C87.9772 351.938 91.5057 348.988 95.3806 346.55V346.55Z" fill="black"/>
<path id="Vector_44" opacity="0.15" d="M73.48 391.19C77.2496 393.584 80.6975 396.451 83.74 399.72C84.09 397.27 83.85 391.21 76.16 382.33C64 368.27 33.26 370.37 26 371.07C40.5 375.2 59.5 381.85 73.48 391.19Z" fill="black"/>
<path id="Vector_45" opacity="0.15" d="M73.12 391.61C58.76 382.04 39.12 375.31 24.57 371.23H24.5C24.5 371.23 37.23 390 56.27 398.11C75.31 406.22 83.45 400.93 83.45 400.93C83.5191 400.765 83.5727 400.595 83.61 400.42C80.5254 397.025 76.997 394.062 73.12 391.61V391.61Z" fill="black"/>
<path id="Vector_46" opacity="0.15" d="M98.77 377.45C93.8354 379.703 89.2081 382.576 85 386C85 383 86.29 375.76 97 366.4C114 351.55 150.52 359.23 159.07 361.29C141.05 363.79 117.13 368.58 98.77 377.45Z" fill="black"/>
<path id="Vector_47" opacity="0.15" d="M99.1305 378C117.981 368.92 142.701 364.13 160.851 361.68H160.931C160.931 361.68 142.491 382.12 118.271 388.6C94.0506 395.08 85.1606 387.43 85.1606 387.43C85.1109 387.219 85.0774 387.006 85.0605 386.79C89.3362 383.244 94.0684 380.287 99.1305 378V378Z" fill="black"/>
<path id="Vector_48" opacity="0.15" d="M74.5509 303.12C76.8159 308.037 78.4457 313.222 79.4009 318.55C81.4009 316.29 85.1009 309.95 83.1009 295.86C79.9209 273.53 47.2409 255.48 39.4209 251.46C51.4409 265.17 66.4309 284.42 74.5509 303.12Z" fill="black"/>
<path id="Vector_49" opacity="0.15" d="M73.9002 303.31C65.5602 284.13 50.0002 264.37 37.8102 250.66H37.7402C37.7402 250.66 38.3602 278.18 52.4702 298.91C66.5802 319.64 78.3102 319.6 78.3102 319.6C78.4839 319.472 78.6477 319.332 78.8002 319.18C78.4302 316.42 77.3002 311.11 73.9002 303.31Z" fill="black"/>
</g>
</g>
<g id="freepik--Bars--inject-10">
<path id="Vector_50" d="M597.8 124.68H527.75V424.8H597.8V124.68Z" fill="#263238" stroke="#263238" stroke-miterlimit="10"/>
<path id="Vector_51" d="M619.18 124.68H549.13V424.8H619.18V124.68Z" fill="white" stroke="#263238" stroke-miterlimit="10"/>
<path id="Vector_52" d="M440 228.65H369.95V424.8H440V228.65Z" fill="#263238" stroke="#263238" stroke-miterlimit="10"/>
<path id="Vector_53" d="M461.38 228.65H391.33V424.8H461.38V228.65Z" fill="white" stroke="#263238" stroke-miterlimit="10"/>
<path id="Vector_54" d="M276.3 287.64H206.25V424.79H276.3V287.64Z" fill="#263238" stroke="#263238" stroke-miterlimit="10"/>
<path id="Vector_55" d="M297.68 287.64H227.63V424.79H297.68V287.64Z" fill="white" stroke="#263238" stroke-miterlimit="10"/>
</g>
<g id="freepik--Spikes--inject-10">
<path id="Vector_56" d="M311.27 424.8V324.3" stroke="#263238" stroke-width="4" stroke-miterlimit="10"/>
<path id="Vector_57" d="M311.27 328.46L302.91 333.54L302.72 333.26L308.13 319.63C309.183 314.883 310.23 310.133 311.27 305.38C312.31 310.133 313.353 314.883 314.4 319.63L319.82 333.26L319.67 333.54L311.27 328.46Z" fill="#263238"/>
<path id="Vector_58" d="M333.87 424.8V324.3" stroke="#263238" stroke-width="4" stroke-miterlimit="10"/>
<path id="Vector_59" d="M333.869 328.46L325.509 333.54L325.319 333.26L330.729 319.63C331.776 314.883 332.823 310.133 333.869 305.38C334.909 310.133 335.953 314.883 336.999 319.63L342.409 333.26L342.269 333.54L333.869 328.46Z" fill="#263238"/>
<path id="Vector_60" d="M356.46 424.8V324.3" stroke="#263238" stroke-width="4" stroke-miterlimit="10"/>
<path id="Vector_61" d="M356.46 328.46L348.11 333.54L347.92 333.26L353.33 319.63C354.37 314.883 355.413 310.133 356.46 305.38C357.507 310.133 358.553 314.883 359.6 319.63L365 333.26L364.86 333.54L356.46 328.46Z" fill="#263238"/>
<path id="Vector_62" d="M379.06 424.8V324.3" stroke="white" stroke-width="4" stroke-miterlimit="10"/>
<path id="Vector_63" d="M379.06 328.46L370.7 333.54L370.51 333.26L375.93 319.63C376.97 314.883 378.013 310.133 379.06 305.38C380.106 310.133 381.153 314.883 382.2 319.63L387.61 333.26L387.47 333.54L379.06 328.46Z" fill="white"/>
<path id="Vector_64" d="M469.83 424.8V273.29" stroke="#263238" stroke-width="4" stroke-miterlimit="10"/>
<path id="Vector_65" d="M469.829 277.45L461.469 282.54L461.279 282.25L466.689 268.62C467.736 263.873 468.783 259.123 469.829 254.37C470.869 259.123 471.913 263.873 472.959 268.62L478.379 282.25L478.229 282.54L469.829 277.45Z" fill="#263238"/>
<path id="Vector_66" d="M492.43 424.8V273.29" stroke="#263238" stroke-width="4" stroke-miterlimit="10"/>
<path id="Vector_67" d="M492.43 277.45L484.07 282.54L483.88 282.25L489.29 268.62C490.337 263.873 491.383 259.123 492.43 254.37C493.47 259.123 494.513 263.873 495.56 268.62L501 282.25L500.85 282.54L492.43 277.45Z" fill="#263238"/>
<path id="Vector_68" d="M515.029 424.8V273.29" stroke="#263238" stroke-width="4" stroke-miterlimit="10"/>
<path id="Vector_69" d="M515 277.45L506.64 282.54L506.45 282.25L511.86 268.62C512.914 263.873 513.96 259.123 515 254.37C516.04 259.123 517.084 263.873 518.13 268.62L523.54 282.25L523.4 282.54L515 277.45Z" fill="#263238"/>
<path id="Vector_70" d="M537.62 424.8V273.29" stroke="white" stroke-width="4" stroke-miterlimit="10"/>
<path id="Vector_71" d="M537.62 277.45L529.26 282.54L529.08 282.25L534.49 268.62C535.53 263.873 536.573 259.123 537.62 254.37C538.667 259.123 539.713 263.873 540.76 268.62L546.17 282.25L546.03 282.54L537.62 277.45Z" fill="white"/>
</g>

</g>
<g id="trofeu">
<path id="Vector_108" d="M576.62 73.8499H568.51V124.01H576.62V73.8499Z" fill="#0987FF" stroke="#263238" stroke-miterlimit="10"/>
<path id="Vector_109" d="M555.81 73.1701C545.97 73.1701 538.24 70.1101 532.81 64.0901C523.03 53.1901 524.7 36.6201 524.81 35.9201C524.892 35.1829 525.243 34.5021 525.797 34.009C526.351 33.5159 527.068 33.2456 527.81 33.2501H554.35V39.2501H533.77C533.359 39.2491 532.951 39.3328 532.574 39.496C532.196 39.6591 531.856 39.8981 531.575 40.1982C531.293 40.4983 531.077 40.8531 530.938 41.2405C530.8 41.6279 530.743 42.0396 530.77 42.4501C531.14 47.5101 532.56 54.8101 537.32 60.1101C541.54 64.7901 547.76 67.1701 555.81 67.1701V73.1701Z" fill="#0987FF" stroke="#263238" stroke-miterlimit="10"/>
<path id="Vector_110" d="M589.33 73.1701C599.17 73.1701 606.9 70.1101 612.33 64.0901C622.11 53.1901 620.44 36.6201 620.33 35.9201C620.249 35.1829 619.897 34.5021 619.343 34.009C618.789 33.5159 618.072 33.2456 617.33 33.2501H590.8V39.2501H611.37C611.781 39.2491 612.189 39.3328 612.566 39.496C612.944 39.6591 613.284 39.8981 613.565 40.1982C613.847 40.4983 614.063 40.8531 614.202 41.2405C614.34 41.6279 614.397 42.0396 614.37 42.4501C614.01 47.5101 612.59 54.8101 607.82 60.1101C603.61 64.7901 597.39 67.1701 589.34 67.1701L589.33 73.1701Z" fill="#0987FF" stroke="#263238" stroke-miterlimit="10"/>
<path id="Vector_111" d="M549.91 27.3999H594.91V61.7899C594.91 67.7281 592.551 73.4231 588.352 77.622C584.153 81.821 578.458 84.1799 572.52 84.1799H572.31C566.372 84.1799 560.677 81.821 556.478 77.622C552.279 73.4231 549.92 67.7281 549.92 61.7899V27.3999H549.91Z" fill="#0987FF" stroke="#263238" stroke-miterlimit="10"/>
<path id="Vector_112" d="M590.539 27.3999V60.6999C590.539 72.2499 581.209 81.6999 569.449 82.3399C569.876 82.3399 570.306 82.3399 570.739 82.3399C583.109 82.3399 593.129 72.6399 593.129 60.6699V27.3999H590.539Z" fill="#263238"/>
<path id="Vector_113" d="M554.39 27.3999V60.5099C554.39 71.9899 562.66 81.3699 573.08 82.0199C572.7 82.0199 572.32 82.0199 571.93 82.0199C560.98 82.0199 552.1 72.3699 552.1 60.4699V27.3999H554.39Z" fill="white"/>
<path id="Vector_114" d="M594.89 27.3999H549.91V37.2499H594.89V27.3999Z" fill="#0987FF" stroke="#263238" stroke-miterlimit="10"/>
<path id="Vector_115" d="M577.06 95.0601H568.39C567.213 95.0601 566.26 96.0137 566.26 97.1901V106.24C566.26 107.416 567.213 108.37 568.39 108.37H577.06C578.236 108.37 579.19 107.416 579.19 106.24V97.1901C579.19 96.0137 578.236 95.0601 577.06 95.0601Z" fill="#0987FF" stroke="#263238" stroke-miterlimit="10"/>
<path id="Vector_116" d="M598.47 124.6C597.911 123.076 596.898 121.76 595.567 120.83C594.237 119.9 592.653 119.401 591.03 119.4H554.41C552.786 119.401 551.203 119.9 549.872 120.83C548.542 121.76 547.529 123.076 546.97 124.6H598.47Z" fill="#0987FF" stroke="#263238" stroke-miterlimit="10"/>
<path id="Vector_117" d="M557.889 32.2999C557.891 31.9213 557.781 31.5506 557.572 31.235C557.362 30.9193 557.064 30.673 556.715 30.5272C556.365 30.3814 555.981 30.3427 555.609 30.4161C555.238 30.4895 554.896 30.6716 554.629 30.9393C554.361 31.207 554.179 31.5483 554.106 31.9197C554.032 32.2911 554.071 32.676 554.217 33.0254C554.362 33.3748 554.609 33.673 554.924 33.8821C555.24 34.0912 555.611 34.2018 555.989 34.1999C556.493 34.1999 556.976 33.9997 557.333 33.6434C557.689 33.287 557.889 32.8038 557.889 32.2999Z" fill="#0987FF" stroke="#263238" stroke-miterlimit="10"/>
<path id="Vector_118" d="M566.259 32.2999C566.261 31.9217 566.151 31.5514 565.942 31.236C565.734 30.9206 565.436 30.6743 565.087 30.5282C564.738 30.3821 564.354 30.3428 563.983 30.4154C563.612 30.4879 563.271 30.6691 563.002 30.9358C562.734 31.2025 562.551 31.5428 562.477 31.9136C562.402 32.2843 562.44 32.6689 562.584 33.0185C562.728 33.3681 562.973 33.667 563.287 33.8773C563.602 34.0876 563.971 34.1999 564.349 34.1999C564.854 34.1999 565.339 34 565.696 33.644C566.054 33.288 566.257 32.8047 566.259 32.2999V32.2999Z" fill="#0987FF" stroke="#263238" stroke-miterlimit="10"/>
<path id="Vector_119" d="M574.619 32.2999C574.619 31.9241 574.508 31.5568 574.299 31.2443C574.09 30.9319 573.794 30.6883 573.446 30.5445C573.099 30.4007 572.717 30.3631 572.349 30.4364C571.98 30.5097 571.642 30.6907 571.376 30.9564C571.11 31.2221 570.929 31.5607 570.856 31.9292C570.783 32.2978 570.82 32.6798 570.964 33.027C571.108 33.3742 571.351 33.6709 571.664 33.8797C571.976 34.0885 572.344 34.1999 572.719 34.1999C573.223 34.1999 573.707 33.9997 574.063 33.6434C574.419 33.2871 574.619 32.8038 574.619 32.2999Z" fill="#0987FF" stroke="#263238" stroke-miterlimit="10"/>
<path id="Vector_120" d="M582.999 32.2999C582.999 31.9241 582.888 31.5568 582.679 31.2443C582.47 30.9319 582.173 30.6883 581.826 30.5445C581.479 30.4007 581.097 30.3631 580.729 30.4364C580.36 30.5097 580.021 30.6907 579.756 30.9564C579.49 31.2221 579.309 31.5607 579.236 31.9292C579.162 32.2978 579.2 32.6798 579.344 33.027C579.488 33.3742 579.731 33.6709 580.044 33.8797C580.356 34.0885 580.723 34.1999 581.099 34.1999C581.603 34.1999 582.086 33.9997 582.443 33.6434C582.799 33.2871 582.999 32.8038 582.999 32.2999Z" fill="#0987FF" stroke="#263238" stroke-miterlimit="10"/>
<path id="Vector_121" d="M591.36 32.2999C591.362 31.9213 591.251 31.5506 591.042 31.235C590.833 30.9193 590.535 30.673 590.186 30.5272C589.836 30.3814 589.451 30.3427 589.08 30.4161C588.708 30.4895 588.367 30.6716 588.099 30.9393C587.832 31.207 587.65 31.5483 587.576 31.9197C587.503 32.2911 587.542 32.676 587.687 33.0254C587.833 33.3748 588.08 33.673 588.395 33.8821C588.711 34.0912 589.081 34.2018 589.46 34.1999C589.964 34.1999 590.447 33.9997 590.804 33.6434C591.16 33.287 591.36 32.8038 591.36 32.2999Z" fill="#0987FF" stroke="#263238" stroke-miterlimit="10"/>
<path id="Vector_122" d="M586.387 60.5273C588.376 52.7758 583.704 44.8797 575.952 42.8909C568.201 40.9021 560.305 45.5737 558.316 53.3252C556.327 61.0767 560.999 68.9728 568.75 70.9617C576.502 72.9505 584.398 68.2789 586.387 60.5273Z" fill="#263238" stroke="#263238" stroke-miterlimit="10"/>
<path id="Vector_123" d="M575.2 64.6299H572.2V53.5199C571.11 54.5351 569.809 55.2966 568.39 55.7499V53.0699C569.337 52.7503 570.22 52.2662 571 51.6399C571.846 51.0186 572.492 50.1636 572.86 49.1799H575.25L575.2 64.6299Z" fill="white"/>
<path class="brilho" id="Vector_124" d="M572.979 0.709961V18.14" stroke="#263238" stroke-miterlimit="10"/>
<path class="brilho" id="Vector_125" d="M498.18 53.72H515.61" stroke="#263238" stroke-miterlimit="10"/>
<path class="brilho" id="Vector_126" d="M536.529 88.73L539.199 86.05" stroke="#263238" stroke-miterlimit="10"/>
<path class="brilho" id="Vector_127" d="M526.87 98.3801L533.93 91.3201" stroke="#263238" stroke-miterlimit="10"/>
<path class="brilho" id="Vector_128" d="M618.98 93.91L611.12 86.05" stroke="#263238" stroke-miterlimit="10"/>
<path class="brilho" id="Vector_129" d="M623.439 98.3799L621.189 96.1299" stroke="#263238" stroke-miterlimit="10"/>
<path class="brilho" id="Vector_130" d="M536.91 22.74L539.2 25.03" stroke="#263238" stroke-miterlimit="10"/>
<path class="brilho" id="Vector_131" d="M526.87 12.7L534.54 20.3699" stroke="#263238" stroke-miterlimit="10"/>
<path class="brilho" id="Vector_132" d="M623.44 12.7L611.12 25.0299" stroke="#263238" stroke-miterlimit="10"/>
<path class="brilho" id="Vector_133" d="M642.21 53.72H645.6" stroke="#263238" stroke-miterlimit="10"/>
<path class="brilho" id="Vector_134" d="M628.17 53.72H638.82" stroke="#263238" stroke-miterlimit="10"/>
</g>
</g>
</svg>

<svg id="clouds" class="animacao" width="710" height="426" viewBox="0 0 710 426" fill="none" xmlns="http://www.w3.org/2000/svg">
<g  id="clouds">
<path id="Vector_72" d="M326.59 72.9999C326.59 72.9999 322.71 54.9999 309.16 50.4299C295.61 45.8599 292.38 55 288.51 60.12C284.64 65.24 278.83 57.53 270.44 60.12C262.05 62.71 265.27 69.7999 260.11 72.3799C254.95 74.9599 245.91 69.1499 240.11 73.6699C234.31 78.1899 233.01 82.0599 233.01 82.0599H355.63C355.63 82.0599 336.27 63.9999 326.59 72.9999Z" fill="white" stroke="#263238" stroke-miterlimit="10"/>
</g>
</svg>

<svg id="clouds" class="animacao" width="710" height="426" viewBox="0 0 710 426" fill="none" xmlns="http://www.w3.org/2000/svg">
<g  id="clouds">
<path id="Vector_74" d="M149.06 145.19C149.06 145.19 146.55 133.46 137.75 130.53C128.95 127.6 126.85 133.46 124.34 136.81C121.83 140.16 118.05 135.14 112.61 136.81C107.17 138.48 109.25 143.1 105.9 144.81C102.55 146.52 96.68 142.71 92.9 145.64C89.12 148.57 88.29 151.09 88.29 151.09H167.91C167.91 151.09 155.35 139.33 149.06 145.19Z" fill="white" stroke="#263238" stroke-miterlimit="10"/>
</g>
</svg>

<svg id="clouds73" class="animacao" width="710" height="426" viewBox="0 0 710 426" fill="none" xmlns="http://www.w3.org/2000/svg">
<g  id="clouds73">
<path id="Vector_73" d="M546.63 166.74C546.63 166.74 542.76 148.67 529.2 144.16C515.64 139.65 512.42 148.67 508.55 153.84C504.68 159.01 498.87 151.26 490.48 153.84C482.09 156.42 485.32 163.52 480.15 166.1C474.98 168.68 465.95 162.87 460.15 167.39C454.35 171.91 453.05 175.78 453.05 175.78H575.67C575.67 175.78 556.31 157.71 546.63 166.74Z" fill="white" stroke="#263238" stroke-miterlimit="10"/>
</g>
</svg>

<svg id="mue" class="animacao" width="710" height="426" viewBox="0 0 710 426" fill="none" xmlns="http://www.w3.org/2000/svg">

<path id="Vector_75" d="M95.47 379.39C95.47 379.39 91.01 380.75 88.1 380.39C85.19 380.03 82.67 380 82.1 382.52C81.53 385.04 82.1 387.52 81.52 389.12C80.94 390.72 79 392.8 79.38 395.71C79.76 398.62 80.74 405.4 82.49 404.43C84.24 403.46 86.56 395.13 87.49 393.43C88.42 391.73 91.07 387.68 93.01 386.83C94.2591 386.386 95.5743 386.156 96.9 386.15L95.47 379.39Z" fill="white" stroke="#263238" stroke-miterlimit="10"/>
<path id="Vector_76" d="M83.6302 394C84.5928 391.416 85.2637 388.733 85.6302 386C85.8881 384.016 86.4763 382.09 87.3702 380.3C84.7602 380.01 82.5802 380.19 82.0502 382.51C81.4702 385.03 82.0502 387.51 81.4702 389.11C80.8902 390.71 78.9502 392.79 79.3302 395.7C79.7102 398.61 80.6902 405.39 82.4402 404.42C83.7502 403.69 85.4402 398.78 86.5402 395.65L83.6302 394Z" fill="#263238" stroke="#263238" stroke-miterlimit="10"/>
<path id="Vector_77" d="M144.72 314.82C144.53 299.31 138.9 295.04 138.9 295.04C111.76 298.53 106.52 290.39 106.52 290.39L103.23 292.91C97.6003 298.91 94.8903 307.45 93.9203 317.15C92.9503 326.85 104.78 359.22 104.78 359.22C104.78 359.22 99.7803 368.92 95.8603 376.48C91.9403 384.04 93.9202 400.91 92.5602 405.37C91.2002 409.83 87.7103 412.55 88.4903 416.43C89.2703 420.31 89.0703 423.8 91.9803 424.18C94.8903 424.56 99.1503 425.35 100.32 424.18C101.49 423.01 99.1502 421.27 98.3802 417.98C97.6102 414.69 97.0202 409.64 97.0202 409.64L112.14 380.55C112.14 380.55 142.01 365.24 142.78 363.68C143.55 362.12 144.92 330.33 144.72 314.82ZM123.2 358.82L120.48 321.2L122.81 321L127.46 356.68L123.2 358.82Z" fill="#263238" stroke="#263238" stroke-miterlimit="10"/>
<path id="Vector_78" d="M93.4803 387.65C92.9603 394.86 93.4102 402.57 92.5602 405.37C91.2002 409.83 87.7103 412.55 88.4903 416.43C89.2703 420.31 89.0703 423.8 91.9803 424.18C94.8903 424.56 99.1503 425.35 100.32 424.18C101.49 423.01 99.1502 421.27 98.3802 417.98C97.6102 414.69 97.0202 409.64 97.0202 409.64L106.37 391.64C99.4003 393.45 95.3603 390 93.4803 387.65Z" fill="white" stroke="#263238" stroke-miterlimit="10"/>
<path id="Vector_79" d="M100.32 424.18C101.48 423.02 99.15 421.27 98.38 417.98L92.17 418.37C92.17 418.37 90.89 414.37 90.02 410.6C88.93 412.51 88.02 414.29 88.49 416.43C89.26 420.31 89.07 423.8 91.98 424.18C94.89 424.56 99.15 425.35 100.32 424.18Z" fill="#263238" stroke="#263238" stroke-miterlimit="10"/>
<path id="Vector_80" d="M122.62 360.78L114.28 377.45" stroke="white" stroke-miterlimit="10"/>
<path id="Vector_81" d="M148.6 273.52C148.6 273.52 148.6 277.59 146.66 280.11C144.72 282.63 140.26 284.76 140.26 284.76L138.9 295C138.9 295 135.8 297.29 128.43 297.71C121.06 298.13 113.89 294.61 113.89 294.61L118.74 253C118.74 253 128.05 249.71 133.86 248.15C139.67 246.59 147.44 248.54 147.44 248.54C147.44 248.54 148.6 264.4 148.6 273.52Z" fill="white" stroke="#263238" stroke-miterlimit="10"/>
<path id="Vector_82" d="M147.44 248.5C147.44 248.5 139.68 246.56 133.86 248.11C128.04 249.66 118.74 253 118.74 253L117.95 259.79C123.522 263.44 130.122 265.193 136.77 264.79C140.828 264.569 144.764 263.324 148.21 261.17C147.87 254.46 147.44 248.5 147.44 248.5Z" stroke="#263238" stroke-miterlimit="10"/>
<path id="Vector_83" d="M145.19 248.24C145.19 248.24 167.73 245.85 172.24 245.24C176.75 244.63 182.67 243.55 182.67 243.55L192.35 248.09C192.757 249.966 192.42 251.927 191.41 253.56C189.72 256 153.08 267 153.08 267C153.08 267 152 307.28 152 310C152 312.72 152.14 313.1 150.45 314.51C148.76 315.92 139.45 320 139.45 320C139.45 320 144.1 302 145.37 293.94C146.64 285.88 147.48 259.27 146.92 254.62C146.36 249.97 145.19 248.24 145.19 248.24Z" fill="#0987FF" stroke="#263238" stroke-miterlimit="10"/>
<path id="Vector_84" d="M154.63 252.61L153.08 266.98L158.57 253.31" stroke="#263238" stroke-miterlimit="10"/>
<path id="Vector_85" d="M146.88 254.58C147.44 259.23 146.6 285.86 145.33 293.9C145.16 294.95 144.94 296.18 144.67 297.52H144.77C148.16 288.88 150.109 279.742 150.54 270.47C150.934 262.879 150.599 255.267 149.54 247.74L145.17 248.2C145.17 248.2 146.32 249.93 146.88 254.58Z" fill="#0987FF" stroke="#263238" stroke-miterlimit="10"/>

<path d="M129.83 254.19L131.92 245.44C131.92 245.44 130.22 244.52 128.13 243.35C126.04 242.18 121.73 237.6 123.82 229.63C125.91 221.66 131.01 220.49 131.01 220.49C131.01 220.49 138.19 216.97 145.01 219.19C151.83 221.41 152.59 225.32 152.85 226.37C153.11 227.42 152.06 229.77 152.59 230.16C153.12 230.55 158.2 232.64 157.81 233.81C157.253 234.983 156.551 236.082 155.72 237.08C155.72 237.08 155.2 244.92 154.15 245.96C153.1 247 147.49 247.27 147.49 247.27L142.79 257.06" fill="white"/>
<path d="M129.83 254.19L131.92 245.44C131.92 245.44 130.22 244.52 128.13 243.35C126.04 242.18 121.73 237.6 123.82 229.63C125.91 221.66 131.01 220.49 131.01 220.49C131.01 220.49 138.19 216.97 145.01 219.19C151.83 221.41 152.59 225.32 152.85 226.37C153.11 227.42 152.06 229.77 152.59 230.16C153.12 230.55 158.2 232.64 157.81 233.81C157.253 234.983 156.551 236.082 155.72 237.08C155.72 237.08 155.2 244.92 154.15 245.96C153.1 247 147.49 247.27 147.49 247.27L142.79 257.06" stroke="#263238" stroke-miterlimit="10"/>

<path id="Vector_87" d="M142.24 220.88C144.059 220.348 145.967 220.185 147.85 220.4C146.933 219.908 145.972 219.503 144.98 219.19C138.19 216.97 130.98 220.49 130.98 220.49C130.98 220.49 125.88 221.67 123.79 229.63C121.7 237.59 126.01 242.17 128.1 243.35C129.34 244.05 130.43 244.65 131.1 245.02C132.04 243.02 133.29 240.19 134.22 237.6C134.91 235.68 137.46 238.13 138.53 236.03C138.77 235.56 138.37 232.82 138.6 232.36C139.84 229.86 140.82 227.61 140.6 226.24C140.28 223.5 137.41 222.32 142.24 220.88Z" fill="#263238" stroke="#263238" stroke-miterlimit="10"/>

<path d="M137 238.25C137 238.25 134.13 234.08 131.78 236.17C129.43 238.26 131.52 242.83 135.96 242.3" fill="white"/>
<path d="M137 238.25C137 238.25 134.13 234.08 131.78 236.17C129.43 238.26 131.52 242.83 135.96 242.3" stroke="#263238" stroke-miterlimit="10"/>

<path id="Vector_89" d="M126.3 223.89C126.3 223.89 122.12 219.58 118.99 218.79C115.86 218 111.94 217.79 109.59 222.84C107.24 227.89 108 232 111 234.08C114 236.16 116.62 236.43 119.1 234.86C121.092 233.552 122.711 231.75 123.8 229.63C124.48 228.33 126.3 223.89 126.3 223.89Z" fill="#263238" stroke="#263238" stroke-miterlimit="10"/>
<path id="Vector_90" d="M150.07 230.22C150.07 231.12 149.69 231.86 149.23 231.86C148.77 231.86 148.38 231.12 148.38 230.22C148.38 229.32 148.76 228.59 149.23 228.59C149.7 228.59 150.07 229.32 150.07 230.22Z" fill="#263238"/>
<path id="Vector_91" d="M147.07 227.15C147.07 227.15 149.68 226.24 150.86 227.15" stroke="#263238" stroke-miterlimit="10"/>
<path id="Vector_92" d="M151.64 239.17C152.444 239.086 153.256 239.221 153.99 239.56" stroke="#263238" stroke-miterlimit="10"/>
<path id="Vector_93" d="M147.46 247.27L142.89 246.35L145.37 251.19L147.46 247.27Z" fill="#263238" stroke="#263238" stroke-miterlimit="10"/>
<path id="Vector_94" d="M131.4 248.12C131.4 248.12 105.66 255.84 105.06 257.23C104.46 258.62 100.06 288.11 99.92 289.9C99.78 291.69 93 301.18 94 304.35C95 307.52 102.31 316.23 106.47 318.8C108.691 320.211 111.006 321.467 113.4 322.56C113.4 322.56 120.13 301.56 124.09 288.31C128.05 275.06 131.4 248.12 131.4 248.12Z" fill="#0987FF" stroke="#263238" stroke-miterlimit="10"/>
<path id="Vector_95" d="M131.4 248.12C131.4 248.12 127.4 249.32 122.52 250.86C122.04 259.2 120.74 282.86 120.9 288.71C120.99 291.71 121.03 295.18 121.06 298.18C122.13 294.72 123.17 291.32 124.06 288.31C128 275.05 131.4 248.12 131.4 248.12Z" fill="#0987FF" stroke="#263238" stroke-miterlimit="10"/>

<path d="M182 252.33C178.61 247.54 177.92 237.51 175.23 233.02C172.54 228.53 169.23 227.62 169.23 227.62L167.81 227.23C166.842 227.448 165.838 227.448 164.87 227.23C163.58 226.85 160.25 225.69 160.25 225.69C160.25 225.69 157.82 226.08 156.92 225.44C156.02 224.8 158.59 224.67 157.3 224.28C156.01 223.89 150.89 223.64 149.87 222.62C148.85 221.6 154.23 221.33 154.23 221.33C156.053 220.758 157.96 220.498 159.87 220.56C162.3 220.82 169.23 221.85 170.51 221.97C171.79 222.09 175.76 225.69 175.76 225.69C175.76 225.69 186.15 236.46 188.71 240.43C191.27 244.4 192.3 247.1 192.43 248.13C192.505 248.68 192.548 249.235 192.56 249.79" fill="white"/>
<path d="M182 252.33C178.61 247.54 177.92 237.51 175.23 233.02C172.54 228.53 169.23 227.62 169.23 227.62L167.81 227.23C166.842 227.448 165.838 227.448 164.87 227.23C163.58 226.85 160.25 225.69 160.25 225.69C160.25 225.69 157.82 226.08 156.92 225.44C156.02 224.8 158.59 224.67 157.3 224.28C156.01 223.89 150.89 223.64 149.87 222.62C148.85 221.6 154.23 221.33 154.23 221.33C156.053 220.758 157.96 220.498 159.87 220.56C162.3 220.82 169.23 221.85 170.51 221.97C171.79 222.09 175.76 225.69 175.76 225.69C175.76 225.69 186.15 236.46 188.71 240.43C191.27 244.4 192.3 247.1 192.43 248.13C192.505 248.68 192.548 249.235 192.56 249.79" stroke="#263238" stroke-miterlimit="10"/>

<path d="M182.9 254.54C180.9 253.8 178.25 247.19 177.02 244.01C175.79 240.83 171.15 232.01 171.15 232.01L177.76 226.62L190.24 242.04C191.738 243.535 192.673 245.501 192.886 247.606C193.099 249.711 192.578 251.825 191.41 253.59" fill="#0987FF"/>
<path d="M182.9 254.54C180.9 253.8 178.25 247.19 177.02 244.01C175.79 240.83 171.15 232.01 171.15 232.01L177.76 226.62L190.24 242.04C191.738 243.535 192.673 245.501 192.886 247.606C193.099 249.711 192.578 251.825 191.41 253.59" stroke="#263238" stroke-miterlimit="10"/>

<path id="Vector_98" d="M156.33 221.21C156.33 221.21 154.92 222.36 158.33 222.74C159.771 222.969 161.232 223.056 162.69 223C164.018 224.528 165.821 225.567 167.81 225.95" stroke="#263238" stroke-miterlimit="10"/>
<path id="Vector_99" d="M79.3813 325.202L77.5732 332.306L79.5987 332.821L81.4067 325.718L79.3813 325.202Z" fill="#263238" stroke="#263238" stroke-miterlimit="10"/>
<path id="Vector_100" d="M68.9891 320.557L66.8779 326.989L68.8637 327.641L70.9748 321.209L68.9891 320.557Z" fill="#263238" stroke="#263238" stroke-miterlimit="10"/>
<path id="Vector_101" d="M80.7501 326.08C80.5508 326.079 80.3536 326.038 80.1701 325.96L69.5701 321.26C69.2253 321.108 68.9553 320.824 68.8193 320.473C68.6833 320.121 68.6926 319.73 68.8451 319.385C68.9976 319.04 69.2808 318.77 69.6325 318.634C69.9841 318.498 70.3753 318.508 70.7201 318.66L81.3201 323.37C81.6224 323.497 81.871 323.725 82.0233 324.015C82.1755 324.306 82.2219 324.64 82.1545 324.96C82.087 325.281 81.9099 325.568 81.6536 325.773C81.3973 325.977 81.0778 326.086 80.7501 326.08V326.08Z" fill="#263238" stroke="#263238" stroke-miterlimit="10"/>
<path id="Vector_102" d="M57.8301 319.62L89.4301 335.49L85.2601 372.81L80.2301 373.68L45.8701 354.94L57.8301 319.62Z" fill="#B2B2B2" stroke="#263238" stroke-miterlimit="10"/>
<path id="Vector_103" d="M89.4305 335.49L80.2305 373.68L85.2605 372.81L89.4305 335.49Z" fill="#B2B2B2" stroke="#263238" stroke-miterlimit="10"/>
<path id="Vector_104" d="M57.8301 319.62C57.8301 319.62 62.7401 346.41 68.9301 346.09C73.7201 345.84 89.4301 335.49 89.4301 335.49" stroke="#263238" stroke-miterlimit="10"/>
<path id="Vector_105" d="M66.1504 342.35L64.4404 348.33L67.0004 349.93L69.0304 343.74L66.1504 342.35Z" fill="white" stroke="#263238" stroke-miterlimit="10"/>
<path id="Vector_106" d="M81.3101 316.81L79.2201 328.24C79.2201 328.24 77.8801 329.29 76.9301 329C75.9801 328.71 75.6001 327.1 75.6001 327.1C75.6001 327.1 70.3601 325.76 69.9801 323.29C69.6001 320.82 74.4801 313.65 74.4801 313.65L81.3101 316.81Z" fill="white" stroke="#263238" stroke-miterlimit="10"/>

<path d="M105.06 257.23L83.06 283.96L74 313.65L81.92 317.15L94.39 291.68L112.61 275.84C113.131 274.804 113.435 273.673 113.502 272.515C113.569 271.358 113.398 270.199 113 269.11" fill="#0987FF"/>
<path d="M105.06 257.23L83.06 283.96L74 313.65L81.92 317.15L94.39 291.68L112.61 275.84C113.131 274.804 113.435 273.673 113.502 272.515C113.569 271.358 113.398 270.199 113 269.11" stroke="#263238" stroke-miterlimit="10"/>
</g>
</svg>