<svg width="470" height="419" viewBox="0 0 470 419" fill="none" xmlns="http://www.w3.org/2000/svg">
<path d="M390.42 365.72C411.36 354.22 429.6 339.05 442.7 316.34C457.7 290.34 466.54 258.61 469.27 228.74C474.82 168.17 448.27 108.47 405.68 66.14C389.134 49.5818 370.051 35.7714 349.15 25.23C307 4.16001 277.07 31.52 240 47.57C193.73 67.57 151.68 25.48 106.74 21.16C47.7802 15.48 2.65021 74.74 8.00021 130.37C12.0002 172.02 51.6402 204.76 53.6202 237.49C55.6002 270.22 15.8802 292 15.8802 339.65C15.8802 364.56 47.2102 382.43 66.3102 391.49C109.31 411.88 158.97 417.05 205.96 414.61C268.11 411.38 335.54 395.86 390.42 365.72Z" fill="#0987FF"/>
<path opacity="0.8" d="M390.42 365.72C411.36 354.22 429.6 339.05 442.7 316.34C457.7 290.34 466.54 258.61 469.27 228.74C474.82 168.17 448.27 108.47 405.68 66.14C389.134 49.5818 370.051 35.7714 349.15 25.23C307 4.16001 277.07 31.52 240 47.57C193.73 67.57 151.68 25.48 106.74 21.16C47.7802 15.48 2.65021 74.74 8.00021 130.37C12.0002 172.02 51.6402 204.76 53.6202 237.49C55.6002 270.22 15.8802 292 15.8802 339.65C15.8802 364.56 47.2102 382.43 66.3102 391.49C109.31 411.88 158.97 417.05 205.96 414.61C268.11 411.38 335.54 395.86 390.42 365.72Z" fill="white"/>
<path d="M165.2 123.74C159.03 120.37 156.2 123.17 153.98 120.37C151.76 117.57 160.15 110.27 143.31 102.97C143.31 102.97 142.19 87.2599 119.18 86.6999C96.1704 86.1399 102.35 102.41 96.1804 106.34C90.0104 110.27 88.3304 104.09 82.1804 108.02C76.0304 111.95 78.8204 119.81 73.7704 120.93C68.7204 122.05 61.9804 115.88 55.7704 119.81C49.5604 123.74 49.5904 127.1 46.7704 127.1C43.9504 127.1 38.3504 124.86 34.9804 127.1C31.6104 129.34 27.6904 132.15 27.6904 132.15H169.69C169.69 132.15 171.37 127.1 165.2 123.74Z" stroke="#92989B" stroke-linecap="round" stroke-linejoin="round"/>
<path d="M81.2102 121.43C80.4026 121.882 79.5638 122.277 78.7002 122.61" stroke="#92989B" stroke-linecap="round" stroke-linejoin="round"/>
<path d="M111.58 95.21C110.188 95.8349 108.966 96.7821 108.013 97.9732C107.06 99.1643 106.404 100.565 106.1 102.06C105.1 107.2 102.68 110.63 99.94 110.97C97.2 111.31 86.94 110.28 85.21 114.05C84.7416 115.153 84.4059 116.308 84.21 117.49" stroke="#92989B" stroke-linecap="round" stroke-linejoin="round"/>
<path d="M308.73 89.42C305.73 87.77 304.33 89.14 303.23 87.77C302.13 86.4 306.23 82.77 298.01 79.25C298.01 79.25 297.46 71.55 286.2 71.25C274.94 70.95 278 79 274.93 80.9C271.86 82.8 271.08 79.8 268.06 81.72C265.04 83.64 266.41 87.49 263.94 88.04C261.47 88.59 258.16 85.57 255.14 87.49C252.12 89.41 252.14 91.07 250.74 91.07C249.34 91.07 246.62 89.97 244.97 91.07C243.32 92.17 241.4 93.54 241.4 93.54H310.93C310.93 93.54 311.75 91.07 308.73 89.42Z" stroke="#92989B" stroke-linecap="round" stroke-linejoin="round"/>
<path d="M267.6 88.2899C267.204 88.5119 266.793 88.7058 266.37 88.8699" stroke="#92989B" stroke-linecap="round" stroke-linejoin="round"/>
<path d="M282.47 75.45C281.789 75.7549 281.191 76.2179 280.725 76.8006C280.259 77.3832 279.938 78.0686 279.79 78.8C279.29 81.32 278.11 83 276.79 83.16C275.47 83.32 270.42 82.83 269.58 84.67C269.361 85.2139 269.203 85.7808 269.11 86.36" stroke="#92989B" stroke-linecap="round" stroke-linejoin="round"/>
<path d="M422.58 56.31C420.25 55.03 419.19 56.09 418.35 55.03C417.51 53.97 420.67 51.22 414.35 48.47C414.35 48.47 413.93 42.55 405.25 42.33C396.57 42.11 398.9 48.26 396.57 49.74C394.24 51.22 393.57 48.9 391.28 50.38C388.99 51.86 390.01 54.82 388.11 55.25C386.21 55.68 383.66 53.34 381.33 54.82C379 56.3 379.01 57.57 377.95 57.57C376.89 57.57 374.77 56.73 373.5 57.57C372.23 58.41 370.75 59.48 370.75 59.48H424.3C424.3 59.48 424.91 57.57 422.58 56.31Z" stroke="#92989B" stroke-linecap="round" stroke-linejoin="round"/>
<path d="M390.9 55.4399C390.597 55.6075 390.283 55.7545 389.96 55.8799" stroke="#92989B" stroke-linecap="round" stroke-linejoin="round"/>
<path d="M402.361 45.5499C401.835 45.7832 401.372 46.1392 401.012 46.5881C400.652 47.037 400.404 47.5657 400.291 48.1299C399.901 50.0699 399.001 51.3599 397.961 51.4899C396.921 51.6199 393.061 51.2299 392.411 52.6499C392.237 53.0664 392.116 53.5032 392.051 53.9499" stroke="#92989B" stroke-linecap="round" stroke-linejoin="round"/>
<path d="M385.54 54.97H389.25" stroke="#92989B" stroke-linecap="round" stroke-linejoin="round"/>
<path d="M418.35 55H443.35C443.35 55 445.35 49 437.98 44.94C430.61 40.88 427.25 44.27 424.57 40.94C421.89 37.61 432 28.81 411.86 20.1C411.86 20.1 410.52 1.31995 383.02 0.649955C355.52 -0.0200454 362.9 19.43 355.52 24.12C348.14 28.81 346.13 21.44 338.76 26.12C331.39 30.8 334.76 40.21 328.7 41.55C322.64 42.89 314.61 35.55 307.24 40.21C299.87 44.87 299.86 48.92 296.51 48.92C293.16 48.92 286.45 46.24 282.42 48.92C278.39 51.6 273.7 54.92 273.7 54.92H381.3" stroke="#92989B" stroke-linecap="round" stroke-linejoin="round"/>
<path d="M337.641 42.1499C336.674 42.6908 335.672 43.1652 334.641 43.5699" stroke="#92989B" stroke-linecap="round" stroke-linejoin="round"/>
<path d="M341.28 37.45C341.493 36.039 341.876 34.6589 342.42 33.34C344.47 28.84 356.75 30.06 360.02 29.65C363.29 29.24 366.16 25.15 367.39 19.01C367.751 17.2233 368.534 15.5487 369.674 14.1259C370.813 12.703 372.276 11.573 373.94 10.83" stroke="#92989B" stroke-linecap="round" stroke-linejoin="round"/>
<path d="M194.67 149.8C194.67 149.8 220.94 136.67 242.27 157.19L243.13 157.98C252.052 151.024 259.272 142.128 264.243 131.966C269.214 121.804 271.805 110.643 271.82 99.33C271.82 57.86 237.65 24.24 195.49 24.24C153.33 24.24 119.17 57.86 119.17 99.33C119.184 110.676 121.788 121.869 126.784 132.056C131.78 142.242 139.037 151.154 148 158.11C152.8 154.59 175 139.61 194.67 149.8Z" fill="#0987FF"/>
<path opacity="0.4" d="M194.67 149.8C194.67 149.8 220.94 136.67 242.27 157.19L243.13 157.98C252.052 151.024 259.272 142.128 264.243 131.966C269.214 121.804 271.805 110.643 271.82 99.33C271.82 57.86 237.65 24.24 195.49 24.24C153.33 24.24 119.17 57.86 119.17 99.33C119.184 110.676 121.788 121.869 126.784 132.056C131.78 142.242 139.037 151.154 148 158.11C152.8 154.59 175 139.61 194.67 149.8Z" fill="white"/>
<path d="M168.31 133.76L193.38 142.17L192.17 391.09H198.4L197.04 130.54L216.44 119.76L244.25 122.9L219.35 118.15L249.92 101.16L231.19 110.32L234 101.43L246.61 91.47L234.8 98.88L238.34 87.69L230.07 107.63L223.13 99.24L227 86.27L221.93 97.79L213.77 87.93L229.06 110.06L228.38 111.69L196.95 127.06L196.19 97.38L205.57 86.55L233.15 79.42L221.95 81.36L227.24 75.41L219.83 81.72L207.98 83.77L221.57 68.08L210.79 78.47L211.64 65.25L209.1 80.1L196.07 92.65L195.49 70.19L195.1 83.67L190.41 75.7L192.19 66.06L202.19 56.5L192.71 63.28L195.58 47.76L188.89 73.12L182.58 62.41L186.89 71.02L175.96 67.61L188.1 73.45L195 87.24L194.35 109.09L179.86 97.92L176.25 88.96L177.85 75.64L175.02 85.8L175.23 86.43L168.88 70.68L177.81 96.33L164.15 85.8L181.37 101.35L155.41 99.74L169.63 101.78L152.1 106.59L173.2 102.28L184.13 103.85L194.24 112.97L193.51 137.88L176.49 134.08L160.37 114.16L168.93 126.22L149.03 121.25L171.22 129.46L174.13 133.56L154.94 129.28L165.02 132.66L145.01 137.31L168.31 133.76Z" fill="#C2C2C2"/>
<path d="M407 298.51C407 298.51 422.37 290.82 434.86 302.84L435.36 303.3C440.583 299.235 444.813 294.034 447.727 288.091C450.642 282.148 452.164 275.619 452.18 269C452.18 244.73 432.18 225 407.5 225C382.82 225 362.81 244.69 362.81 269C362.819 275.645 364.347 282.201 367.276 288.166C370.204 294.131 374.457 299.349 379.71 303.42C382.5 301.31 395.51 292.55 407 298.51Z" fill="#0987FF"/>
<path opacity="0.4" d="M407 298.51C407 298.51 422.37 290.82 434.86 302.84L435.36 303.3C440.583 299.235 444.813 294.034 447.727 288.091C450.642 282.148 452.164 275.619 452.18 269C452.18 244.73 432.18 225 407.5 225C382.82 225 362.81 244.69 362.81 269C362.819 275.645 364.347 282.201 367.276 288.166C370.204 294.131 374.457 299.349 379.71 303.42C382.5 301.31 395.51 292.55 407 298.51Z" fill="white"/>
<path d="M391.579 289.12L406.259 294.05L406.039 390.4H408.679L408.399 287.24L419.759 280.93L436.039 282.76L421.459 279.98L439.359 270.04L428.389 275.4L430.039 270.2L437.419 264.37L430.509 268.7L432.579 262.15L427.739 273.82L423.679 268.92L425.939 261.32L422.979 268.07L418.199 262.29L427.149 275.25L426.749 276.2L408.349 285.2L407.899 267.82L413.399 261.48L429.539 257.31L422.979 258.44L426.079 254.96L421.749 258.66L414.809 259.86L422.759 250.67L416.449 256.75L416.949 249.01L415.459 257.71L407.829 265.06L407.499 251.91L407.259 259.8L404.519 255.13L405.559 249.49L411.419 243.89L405.869 247.86L407.549 238.77L403.629 253.62L399.939 247.35L402.459 252.39L396.059 250.39L403.169 253.82L407.199 261.89L406.829 274.68L398.349 268.14L396.229 262.89L397.169 255.1L395.509 261.05L395.629 261.41L391.909 252.19L397.139 267.21L389.149 261.05L399.229 270.15L384.029 269.21L392.359 270.4L382.089 273.22L394.439 270.69L400.849 271.61L406.759 276.95L406.329 291.53L396.369 289.31L386.929 277.64L391.939 284.71L380.289 281.8L393.289 286.6L394.989 289L383.749 286.5L389.649 288.48L377.939 291.2L391.579 289.12Z" fill="#C2C2C2"/>
<path d="M289.86 229.84C289.86 229.84 307.41 221.06 321.67 234.77C321.86 234.96 322.05 235.12 322.24 235.3C328.202 230.652 333.027 224.708 336.348 217.917C339.67 211.127 341.401 203.669 341.41 196.11C341.41 168.39 318.57 145.92 290.41 145.92C262.25 145.92 239.41 168.39 239.41 196.11C239.422 203.693 241.165 211.173 244.506 217.98C247.847 224.788 252.699 230.742 258.69 235.39C261.87 233 276.72 223 289.86 229.84Z" fill="#0987FF"/>
<path opacity="0.4" d="M289.86 229.84C289.86 229.84 307.41 221.06 321.67 234.77C321.86 234.96 322.05 235.12 322.24 235.3C328.202 230.652 333.027 224.708 336.348 217.917C339.67 211.127 341.401 203.669 341.41 196.11C341.41 168.39 318.57 145.92 290.41 145.92C262.25 145.92 239.41 168.39 239.41 196.11C239.422 203.693 241.165 211.173 244.506 217.98C247.847 224.788 252.699 230.742 258.69 235.39C261.87 233 276.72 223 289.86 229.84Z" fill="white"/>
<path d="M272.24 219.12L289 224.74L288.18 391.09H292.35L291.44 216.96L304.4 209.76L322.99 211.86L306.35 208.68L326.78 197.33L314.26 203.45L316.14 197.51L324.57 190.86L316.68 195.81L319.04 188.33L313.51 201.65L308.88 196.05L311.46 187.38L308.07 195.08L302.62 188.49L312.84 203.28L312.38 204.37L291.38 214.64L290.87 194.8L297.14 187.56L315.57 182.8L308.08 184.09L311.62 180.12L306.67 184.34L298.75 185.71L307.83 175.22L300.63 182.16L301.2 173.33L299.5 183.25L290.79 191.64L290.4 176.63L290.14 185.64L287.01 180.32L288.2 173.87L294.88 167.49L288.54 172.01L290.46 161.64L285.99 178.59L281.77 171.43L284.65 177.19L277.35 174.91L285.46 178.81L290.07 188.03L289.64 202.63L279.96 195.16L277.54 189.17L278.62 180.28L276.72 187.07L276.86 187.48L272.62 176.96L278.58 194.1L269.46 187.07L280.96 197.46L263.61 196.38L273.12 197.74L261.4 200.96L275.5 198.08L282.81 199.13L289.57 205.22L289.08 221.87L277.7 219.33L266.93 206.01L272.65 214.08L259.35 210.75L274.18 216.24L276.13 218.98L263.3 216.12L270.04 218.38L256.67 221.49L272.24 219.12Z" fill="#C2C2C2"/>
<path d="M396.75 390.61C396.698 390.611 396.646 390.602 396.597 390.583C396.549 390.564 396.505 390.536 396.467 390.499C396.43 390.463 396.4 390.419 396.38 390.371C396.36 390.324 396.35 390.272 396.35 390.22V339.05C396.352 338.946 396.396 338.846 396.47 338.773C396.545 338.701 396.645 338.66 396.75 338.66C396.853 338.66 396.952 338.701 397.025 338.774C397.098 338.847 397.14 338.946 397.14 339.05V390.22C397.141 390.271 397.132 390.323 397.113 390.371C397.094 390.419 397.065 390.462 397.028 390.499C396.992 390.535 396.948 390.564 396.9 390.583C396.853 390.602 396.801 390.611 396.75 390.61V390.61Z" fill="#263238"/>
<path d="M396.359 385.6C394.703 383.296 392.614 381.336 390.209 379.83C386.749 377.91 380.979 377.91 380.979 377.91C380.979 377.91 384.049 389.06 396.359 385.6Z" fill="#263238"/>
<path d="M396.75 385.6C398.406 383.296 400.495 381.336 402.9 379.83C406.36 377.91 412.14 377.91 412.14 377.91C412.14 377.91 409.06 389.06 396.75 385.6Z" fill="#263238"/>
<path d="M396.359 371.75C394.701 369.448 392.612 367.489 390.209 365.98C386.749 364.06 380.979 364.06 380.979 364.06C380.979 364.06 384.049 375.21 396.359 371.75Z" fill="#263238"/>
<path d="M396.75 371.75C398.411 369.455 400.499 367.503 402.9 366C406.36 364.08 412.14 364.08 412.14 364.08C412.14 364.08 409.06 375.21 396.75 371.75Z" fill="#263238"/>
<path d="M396.359 357.9C394.701 355.598 392.612 353.639 390.209 352.13C386.749 350.21 380.979 350.21 380.979 350.21C380.979 350.21 384.049 361.37 396.359 357.9Z" fill="#263238"/>
<path d="M396.75 357.9C398.409 355.598 400.497 353.639 402.9 352.13C406.36 350.21 412.14 350.21 412.14 350.21C412.14 350.21 409.06 361.37 396.75 357.9Z" fill="#263238"/>
<path d="M396.359 344.05C394.701 341.748 392.612 339.789 390.209 338.28C386.749 336.36 380.979 336.36 380.979 336.36C380.979 336.36 384.049 347.52 396.359 344.05Z" fill="#263238"/>
<path d="M396.75 344.05C398.409 341.748 400.497 339.789 402.9 338.28C406.36 336.36 412.14 336.36 412.14 336.36C412.14 336.36 409.06 347.52 396.75 344.05Z" fill="#263238"/>
<path d="M396.75 339.05C396.75 339.05 393.67 334.91 393.51 330.95C393.35 326.99 395.96 321.85 395.96 321.85C395.96 321.85 405.39 329.63 396.75 339.05Z" fill="#263238"/>
<path d="M363 390.39V367.11C363 367.007 362.959 366.907 362.885 366.834C362.812 366.761 362.713 366.72 362.61 366.72C362.506 366.72 362.407 366.761 362.334 366.834C362.261 366.907 362.22 367.007 362.22 367.11V390.39H363Z" fill="#263238"/>
<path d="M362.18 386C360.521 383.698 358.433 381.739 356.03 380.23C352.57 378.31 346.8 378.31 346.8 378.31C346.8 378.31 349.87 389.42 362.18 386Z" fill="#263238"/>
<path d="M362.57 386C364.229 383.698 366.317 381.739 368.72 380.23C372.19 378.31 377.96 378.31 377.96 378.31C377.96 378.31 374.88 389.42 362.57 386Z" fill="#263238"/>
<path d="M362.18 372.11C360.521 369.808 358.433 367.849 356.03 366.34C352.57 364.42 346.8 364.42 346.8 364.42C346.8 364.42 349.87 375.58 362.18 372.11Z" fill="#263238"/>
<path d="M362.57 372.11C364.229 369.808 366.317 367.849 368.72 366.34C372.19 364.42 377.96 364.42 377.96 364.42C377.96 364.42 374.88 375.58 362.57 372.11Z" fill="#263238"/>
<path d="M362.569 367.11C362.569 367.11 359.489 362.97 359.329 359.01C359.169 355.05 361.779 349.91 361.779 349.91C361.779 349.91 371.209 357.69 362.569 367.11Z" fill="#263238"/>
<path d="M430 390.39V367.11C429.997 367.006 429.954 366.906 429.879 366.834C429.805 366.761 429.704 366.72 429.6 366.72C429.497 366.72 429.397 366.761 429.324 366.834C429.251 366.907 429.21 367.007 429.21 367.11V390.39H430Z" fill="#263238"/>
<path d="M429.18 386C427.516 383.7 425.424 381.741 423.02 380.23C419.56 378.31 413.79 378.31 413.79 378.31C413.79 378.31 416.87 389.42 429.18 386Z" fill="#263238"/>
<path d="M429.56 386C431.221 383.697 433.313 381.738 435.72 380.23C439.18 378.31 444.95 378.31 444.95 378.31C444.95 378.31 441.87 389.42 429.56 386Z" fill="#263238"/>
<path d="M429.18 372.11C427.516 369.81 425.424 367.851 423.02 366.34C419.56 364.42 413.79 364.42 413.79 364.42C413.79 364.42 416.87 375.58 429.18 372.11Z" fill="#263238"/>
<path d="M429.56 372.11C431.221 369.807 433.313 367.848 435.72 366.34C439.18 364.42 444.95 364.42 444.95 364.42C444.95 364.42 441.87 375.58 429.56 372.11Z" fill="#263238"/>
<path d="M429.56 367.11C429.56 367.11 426.48 362.97 426.33 359.01C426.18 355.05 428.77 349.91 428.77 349.91C428.77 349.91 438.2 357.69 429.56 367.11Z" fill="#263238"/>
<path d="M1.36035 391.09H455.37" stroke="#263238" stroke-miterlimit="10" stroke-linecap="round"/>
<path d="M291.26 334.47C288.558 341.133 287.219 348.271 287.322 355.461C287.425 362.65 288.968 369.747 291.86 376.33L298 390.21C298.125 390.492 298.219 390.787 298.28 391.09H292.57L287.57 379.78C284.219 372.147 282.431 363.921 282.311 355.586C282.191 347.251 283.741 338.976 286.87 331.25L298.07 303.81C298.437 302.907 298.577 301.927 298.476 300.957C298.376 299.988 298.039 299.058 297.495 298.249C296.95 297.44 296.216 296.777 295.355 296.319C294.495 295.86 293.535 295.62 292.56 295.62H267.06C264.7 295.62 262.79 298.07 262.79 295.72C262.79 294.587 263.24 293.501 264.041 292.701C264.841 291.9 265.928 291.45 267.06 291.45H289.06C291.432 291.451 293.767 292.035 295.859 293.151C297.952 294.267 299.738 295.881 301.06 297.85C303.75 301.85 304.27 302.56 302.45 307.03L291.26 334.47Z" fill="#A3A3A3"/>
<path d="M267.051 390.78H270.431V268.54H267.051V390.78Z" fill="#A3A3A3"/>
<path d="M23.4403 390.78H26.8203L26.8203 268.54H23.4403L23.4403 390.78Z" fill="#A3A3A3"/>
<path d="M25.3301 277.84L272.12 277.84V260.09L25.3301 260.09V277.84Z" fill="#BDBDBD"/>
<path d="M25.3301 298.97L272.12 298.97V281.22L25.3301 281.22V298.97Z" fill="#BDBDBD"/>
<path d="M25.3306 328.55L290.391 328.55V322.63L25.3306 322.63V328.55Z" fill="#BDBDBD"/>
<path d="M25.3205 328.55H67.4805V322.63H25.3205V328.55Z" fill="#878787"/>
<path d="M61.7501 303.81C62.1168 302.908 62.2563 301.929 62.1565 300.96C62.0566 299.991 61.7204 299.061 61.1774 298.253C60.6343 297.444 59.901 296.781 59.0419 296.322C58.1828 295.863 57.2241 295.622 56.2501 295.62H25.3301V291.45H52.7501C55.1219 291.45 57.4573 292.034 59.5501 293.15C61.6429 294.266 63.4287 295.88 64.7501 297.85C67.4501 301.85 67.9701 302.56 66.1401 307.03L55.0001 334.47C52.2982 341.133 50.9592 348.271 51.0623 355.461C51.1653 362.65 52.7083 369.747 55.6001 376.33L61.7401 390.21C61.8573 390.494 61.9477 390.789 62.0101 391.09H56.3101L51.3101 379.78C47.955 372.148 46.1643 363.921 46.0441 355.586C45.9239 347.25 47.4765 338.975 50.6101 331.25L61.7501 303.81Z" fill="#A3A3A3"/>
<path d="M222.69 419C306.228 419 373.95 413.892 373.95 407.59C373.95 401.288 306.228 396.18 222.69 396.18C139.151 396.18 71.4297 401.288 71.4297 407.59C71.4297 413.892 139.151 419 222.69 419Z" fill="#0987FF"/>
<path opacity="0.6" d="M222.69 419C306.228 419 373.95 413.892 373.95 407.59C373.95 401.288 306.228 396.18 222.69 396.18C139.151 396.18 71.4297 401.288 71.4297 407.59C71.4297 413.892 139.151 419 222.69 419Z" fill="white"/>
<path d="M233.78 388.56C233.78 388.56 231.09 393.27 231.31 396.4C231.53 399.53 237.81 399.99 238.93 399.54C240.05 399.09 243.64 390.13 243.19 387.89C242.74 385.65 234.45 386.54 233.78 388.56Z" fill="white" stroke="#263238" stroke-miterlimit="10" stroke-linecap="round"/>
<path d="M217.64 313.93C217.64 313.93 218.98 343.74 221.64 348.93C224.3 354.12 234.42 384.34 234.42 384.34L233.75 388.6L236.21 389.5C236.21 389.5 240.21 390.84 243.16 387.93C246.11 385.02 241.37 346.69 241.37 346.69L240.25 317.1L217.64 313.93Z" fill="#263238" stroke="#263238" stroke-miterlimit="10" stroke-linecap="round"/>
<path d="M238.48 389.91C237.878 392.471 236.976 394.952 235.79 397.3C234 400.66 233.1 403.35 237.59 404.25C242.08 405.15 249.69 405.59 252.38 403.8C255.07 402.01 253.72 393.49 253.72 393.49C253.72 393.49 245.43 384.53 238.48 389.91Z" fill="white" stroke="#263238" stroke-miterlimit="10" stroke-linecap="round"/>
<path d="M245.429 402C241.727 401.831 238.035 401.474 234.369 400.93C234.149 402.52 234.899 403.7 237.589 404.24C242.069 405.14 249.689 405.58 252.379 403.79C253.309 403.17 253.759 401.72 253.939 400.11C251.361 401.591 248.392 402.25 245.429 402V402Z" fill="white" stroke="#263238" stroke-miterlimit="10" stroke-linecap="round"/>
<path d="M236.91 317.06C236.91 317.06 235.79 341.49 235.79 347.55C235.79 353.61 239.6 384.08 239.6 384.08L238 388.34L238.45 389.91V391.25C238.45 391.25 239.12 389.68 244.28 390.35C249.44 391.02 254 396 254 396C254 396 255.12 389.5 255.12 387.48C255.12 385.46 254.89 382.32 254.89 380.98C254.89 379.64 256 342.61 256 342.61L260 313.7L236.91 317.06Z" fill="#263238" stroke="#263238" stroke-miterlimit="10" stroke-linecap="round"/>
<path d="M212.93 299.58L211.14 312.13C211.14 312.13 217.19 319.98 234.67 320.87C245.506 321.253 256.208 318.364 265.38 312.58L262 298.91L212.93 299.58Z" fill="white" stroke="#263238" stroke-miterlimit="10" stroke-linecap="round"/>
<path d="M222.35 237.28C222.35 237.28 212.71 240.19 212.04 241.76C211.37 243.33 196.12 269.33 196.12 269.33L182.45 264L180.88 270.27C180.88 270.27 194.55 283.5 197.47 284.17C200.39 284.84 212.47 271.62 212.47 271.62L210 301.15C210 301.15 216.95 307.2 230.39 307.2C243.83 307.2 253.03 306.31 257.06 304.96C259.421 304.183 261.741 303.285 264.01 302.27L259.53 269.1C259.53 269.1 272.53 282.55 274.99 282.77C277.45 282.99 296.68 258.08 296.68 258.08L292.22 252L275.22 263.24C275.22 263.24 262.91 242.43 260 240.19C257.09 237.95 249.46 236.83 248.57 236.38C247.68 235.93 222.35 237.28 222.35 237.28Z" fill="#4F4F4F" stroke="#263238" stroke-miterlimit="10" stroke-linecap="round"/>
<path d="M212.479 271.57L214.149 254.96" stroke="#263238" stroke-miterlimit="10"/>
<path d="M259.55 269.1L257.1 255.21" stroke="#263238" stroke-miterlimit="10"/>
<path d="M227.079 272.49C234.879 273.12 245.419 273.28 255.349 271.19" stroke="#263238" stroke-miterlimit="10"/>
<path d="M215.14 270.94C215.14 270.94 218.88 271.69 224.61 272.26" stroke="#263238" stroke-miterlimit="10"/>
<path d="M254.939 291.6C255.819 291.39 256.699 291.16 257.599 290.92" stroke="#263238" stroke-miterlimit="10"/>
<path d="M215.64 291.17C215.64 291.17 230.43 296.83 252.7 292.1" stroke="#263238" stroke-miterlimit="10"/>
<path d="M236.199 289.65L235.869 300.91" stroke="#263238" stroke-miterlimit="10"/>
<path d="M237.12 257.71L236.29 286.46" stroke="#263238" stroke-miterlimit="10"/>
<path d="M227.05 230.33C227.05 230.33 219.21 233.69 218.54 237.95C217.87 242.21 223.47 245.34 225.48 247.59C227.49 249.84 238.48 257.22 238.48 257.22C238.48 257.22 250.14 243.55 251.93 242.66C253.72 241.77 256.41 236.83 254.62 234.36C252.83 231.89 244.76 229.43 241.62 228.76C238.48 228.09 227.05 230.33 227.05 230.33Z" fill="white" stroke="#263238" stroke-miterlimit="10" stroke-linecap="round"/>
<path d="M228.84 231.22C228.84 231.22 230.19 241.98 231.53 244.22C232.87 246.46 236.47 253.86 237.59 253.86C238.71 253.86 242.52 241.98 243.19 240.19C243.86 238.4 244.31 232.12 244.31 232.12L228.84 231.22Z" fill="#A6A6A6" stroke="#263238" stroke-miterlimit="10" stroke-linecap="round"/>
<path d="M222.569 218C219.004 218.905 215.654 220.506 212.709 222.71C207.999 226.29 207.329 235.93 207.329 235.93C207.329 235.93 209.329 237.28 214.729 234.36C220.129 231.44 223.239 226.74 223.729 223.36C224.028 221.491 223.614 219.578 222.569 218V218Z" fill="#263238" stroke="#263238" stroke-miterlimit="10" stroke-linecap="round"/>
<path d="M249.099 218C252.664 218.907 256.014 220.508 258.959 222.71C263.659 226.29 264.339 235.93 264.339 235.93C264.339 235.93 262.339 237.28 256.939 234.36C251.539 231.44 248.419 226.74 247.939 223.36C247.641 221.491 248.055 219.578 249.099 218Z" fill="#263238" stroke="#263238" stroke-miterlimit="10" stroke-linecap="round"/>
<path d="M222.57 218C222.57 218 218.31 216.66 219.21 221.36C220.11 226.06 225.03 227.41 225.03 226.74C225.03 226.07 222.57 218 222.57 218Z" fill="#A6A6A6" stroke="#263238" stroke-miterlimit="10" stroke-linecap="round"/>
<path d="M249.119 218C249.119 218 253.369 216.66 252.479 221.36C251.589 226.06 246.649 227.41 246.649 226.74C246.649 226.07 249.119 218 249.119 218Z" fill="#A6A6A6" stroke="#263238" stroke-miterlimit="10" stroke-linecap="round"/>
<path d="M222.57 218C222.57 218 223.91 227.86 225.71 230.55C227.51 233.24 234 237.72 236.91 237.95C239.82 238.18 245.43 233.95 247.22 230.78C249.01 227.61 249.69 210.83 249.69 210.16C249.69 209.49 249.02 204.55 242.96 200.52C236.9 196.49 226.38 197.38 223.47 202.98C220.56 208.58 222.57 218 222.57 218Z" fill="#A6A6A6" stroke="#263238" stroke-miterlimit="10" stroke-linecap="round"/>
<path d="M230.479 219.31C231.28 219.31 231.929 218.661 231.929 217.86C231.929 217.059 231.28 216.41 230.479 216.41C229.678 216.41 229.029 217.059 229.029 217.86C229.029 218.661 229.678 219.31 230.479 219.31Z" fill="#263238"/>
<path d="M241.79 219.31C242.591 219.31 243.24 218.661 243.24 217.86C243.24 217.059 242.591 216.41 241.79 216.41C240.989 216.41 240.34 217.059 240.34 217.86C240.34 218.661 240.989 219.31 241.79 219.31Z" fill="#263238"/>
<path d="M239.52 224C239.52 224 237.4 225.46 233.8 224.13" stroke="#263238" stroke-miterlimit="10" stroke-linecap="round"/>
<path d="M230.869 227.43C230.869 227.43 232.469 229.56 236.869 229.16C241.269 228.76 242.999 226.36 242.999 226.36" stroke="#263238" stroke-miterlimit="10" stroke-linecap="round"/>
<path d="M227 213.85C227.522 213.236 228.176 212.749 228.915 212.427C229.653 212.105 230.455 211.955 231.26 211.99" stroke="#263238" stroke-miterlimit="10" stroke-linecap="round"/>
<path d="M239.52 212.12C240.52 212.043 241.525 212.181 242.467 212.526C243.409 212.871 244.266 213.415 244.98 214.12" stroke="#263238" stroke-miterlimit="10" stroke-linecap="round"/>
<path d="M222.57 218C222.57 218 223.69 216.21 225.71 213.07C227.73 209.93 231.31 203.43 231.31 203.43C231.31 203.43 236.47 209.43 240.5 210.83C242.64 211.515 244.735 212.336 246.77 213.29C246.77 213.29 247.12 218 248.12 218C249.12 218 253.27 210.61 253.27 204.11C253.27 197.61 240.27 188.64 231.27 192C222.27 195.36 217.6 201.19 217.6 206.57C217.6 211.95 222.57 218 222.57 218Z" fill="#263238" stroke="#263238" stroke-miterlimit="10" stroke-linecap="round"/>
<path d="M77.7796 251.84V258.84C77.7796 258.84 79.7796 263.77 79.7796 265.34C79.7796 266.91 77.0896 274.53 76.8696 276.1C76.6496 277.67 74.3996 277.22 74.3996 276.32C74.5223 274.082 74.5223 271.838 74.3996 269.6C74.1796 266.46 70.8196 268.26 70.8196 268.26C70.8196 268.26 71.2696 275.2 72.1596 277C72.3558 277.392 72.4971 277.809 72.5796 278.24C72.6293 278.559 72.5826 278.886 72.4453 279.178C72.308 279.47 72.0865 279.715 71.8092 279.881C71.5319 280.046 71.2115 280.125 70.889 280.107C70.5666 280.089 70.2568 279.975 69.9996 279.78C69.8897 279.681 69.81 279.552 69.7696 279.41C69.5396 278.52 63.2696 274.93 63.0396 274.03C62.8149 270.524 62.8149 267.006 63.0396 263.5C63.2696 260.59 66.6296 250.72 66.8496 250.05C67.1786 249.282 67.5526 248.534 67.9696 247.81C67.9696 247.81 77.3396 246.91 77.7796 251.84Z" fill="#A6A6A6" stroke="#263238" stroke-miterlimit="10" stroke-linecap="round"/>
<path d="M64.2197 267.93L64.8297 274.12L69.3697 278.45L66.2797 270.41L66.0697 266.7" fill="#A6A6A6"/>
<path d="M64.2197 267.93L64.8297 274.12L69.3697 278.45L66.2797 270.41L66.0697 266.7" stroke="#263238" stroke-miterlimit="10" stroke-linecap="round"/>
<path d="M85.85 145.16C85.85 145.16 81.85 145.83 80.92 151.21C79.99 156.59 77.78 198.5 77.78 198.5L65 251.17C65 251.17 65.22 249.38 71.72 250.05C78.22 250.72 78.22 253.41 78.22 253.41L89.22 218.23L93.47 205.23L89 144.49L85.85 145.16Z" fill="#0987FF" stroke="#263238" stroke-miterlimit="10" stroke-linecap="round"/>
<path d="M122.609 385.65C121.112 388.626 119.058 391.287 116.559 393.49C112.749 396.63 108.269 399.32 109.559 402.9C110.849 406.48 116.959 405.59 120.559 404.7C124.159 403.81 127.289 401.34 128.859 400.44C130.48 399.256 131.98 397.916 133.339 396.44L134.009 385.69L122.609 385.65Z" fill="#4F4F4F" stroke="#263238" stroke-miterlimit="10" stroke-linecap="round"/>
<path d="M128.44 397.53C124.885 400.345 120.748 402.333 116.33 403.35C115.072 403.623 113.764 403.547 112.546 403.131C111.329 402.715 110.248 401.975 109.42 400.99C109.306 401.632 109.372 402.293 109.61 402.9C110.96 406.49 117.01 405.59 120.61 404.7C124.21 403.81 127.34 401.34 128.91 400.44C130.53 399.256 132.03 397.916 133.39 396.44L133.52 394.27C131.772 395.27 130.077 396.358 128.44 397.53V397.53Z" fill="white" stroke="#263238" stroke-miterlimit="10" stroke-linecap="round"/>
<path d="M130.229 390.13C130.229 390.13 129.559 405.37 130.229 406.27C130.899 407.17 134.229 407.84 135.159 408.51C136.089 409.18 135.609 410.75 140.319 411.65C145.029 412.55 154.209 414.11 154.439 407.65C154.669 401.19 146.139 395.1 146.139 395.1L145.689 390.62L130.229 390.13Z" fill="#4F4F4F" stroke="#263238" stroke-miterlimit="10" stroke-linecap="round"/>
<path d="M154.4 408C153.651 408.841 152.724 409.503 151.685 409.937C150.647 410.372 149.524 410.567 148.4 410.51C142.58 410.29 136.3 406.7 136.3 406.7L129.98 403.7C129.935 404.556 130.026 405.413 130.25 406.24C130.92 407.13 134.25 407.81 135.18 408.48C136.11 409.15 135.63 410.72 140.34 411.62C145.05 412.52 153.82 414 154.4 408Z" fill="white" stroke="#263238" stroke-miterlimit="10" stroke-linecap="round"/>
<path d="M153.76 261C151.3 242 150.4 234.78 150.4 234.78L94.1495 235.68C94.1495 235.68 89.8895 270.19 90.7795 284.76C91.6695 299.33 92.1295 322.64 95.9395 328.47C99.7495 334.3 114.77 368.81 116.78 372.17C118.79 375.53 120.78 379.57 120.37 382.93C120.073 384.845 120.388 386.805 121.27 388.53L130.27 390.1L130.94 391.67C130.94 391.67 135.2 392.12 138.56 392.12C141.92 392.12 146.18 391.89 146.18 391.89C146.515 389.961 146.742 388.015 146.86 386.06C146.86 384.27 146.63 379.57 146.63 379.57C146.63 379.57 152.23 351.77 152.01 338.33C151.79 324.89 152.68 313.22 153.35 304.71C154.02 296.2 156.23 280.08 153.76 261ZM123.28 332.28C122.397 327.892 121.056 323.608 119.28 319.5L123.28 272.88L125.28 273.11C125.28 273.11 126.85 316.11 126.85 323.53C126.85 330.95 129.76 371.72 129.76 371.72C129.76 371.72 124.4 338.58 123.28 332.31V332.28Z" fill="#263238" stroke="#263238" stroke-miterlimit="10" stroke-linecap="round"/>
<path d="M169.68 253.86C169.68 253.86 167.68 261.03 167.68 264.17C167.68 267.31 171.49 272.02 171.49 272.02C171.49 272.02 173.06 273.36 173.06 270.67C173.06 267.98 174.96 271.23 174.96 271.23C174.96 271.23 172.39 273.81 176.2 274.93C180.01 276.05 185.83 271.57 186.73 269.55C187.63 267.53 183.37 254.76 182.92 253.19C182.493 251.987 181.89 250.855 181.13 249.83C181.13 249.83 171.92 247.81 169.68 253.86Z" fill="#A6A6A6" stroke="#263238" stroke-miterlimit="10" stroke-linecap="round"/>
<path d="M181.53 263.4V266.78C181.53 267.662 181.198 268.512 180.6 269.16C179.07 270.82 176.1 273.91 175.35 273.91" stroke="#263238" stroke-miterlimit="10" stroke-linecap="round"/>
<path d="M185.239 264.84C185.239 264.84 185.449 267.93 184.009 269.84C182.569 271.75 179.469 275.2 178.439 275.2" stroke="#263238" stroke-miterlimit="10" stroke-linecap="round"/>
<path d="M174.939 271.23C174.939 271.23 176.619 267.53 178.189 266.64C179.759 265.75 177.069 261.48 175.729 261.26C174.677 261.285 173.674 261.715 172.929 262.46C172.184 263.204 171.755 264.207 171.729 265.26V268.62C171.729 268.62 174.259 270.56 174.939 271.23Z" fill="#A6A6A6" stroke="#263238" stroke-miterlimit="10" stroke-linecap="round"/>
<path d="M158.69 144.94C158.69 144.94 169.23 148.3 169.9 153.01C170.57 157.72 171.9 202.76 171.9 202.76L172.12 209.04L182.21 252.29C179.642 251.66 177.004 251.361 174.36 251.4C171 251.62 169.21 255.4 169.21 255.4C169.21 255.4 152.21 219.09 152.21 214.16C152.21 209.23 158.69 144.94 158.69 144.94Z" fill="#0987FF" stroke="#263238" stroke-miterlimit="10" stroke-linecap="round"/>
<path d="M125.519 131.27C125.519 131.27 95.9392 142.27 94.8192 145.61C93.6992 148.95 93.6992 240 93.6992 240C101.553 241.991 109.601 243.118 117.699 243.36C131.369 243.81 150.649 239.77 150.649 239.77C150.649 239.77 156.019 176.12 157.149 167.6C158.279 159.08 159.829 153.04 158.269 147.88C156.709 142.72 139.639 133.06 134.709 131C133.24 130.417 131.667 130.14 130.086 130.187C128.506 130.233 126.952 130.602 125.519 131.27Z" fill="#4F4F4F" stroke="#263238" stroke-miterlimit="10" stroke-linecap="round"/>
<path d="M160.939 175.19C160.939 175.19 156.679 224.73 156.679 229.19C156.679 233.65 165.679 267.29 165.679 267.29C165.679 267.29 150.679 272.22 149.989 268.63C149.299 265.04 144.609 216.19 143.489 199.83C142.369 183.47 141.699 140.21 141.699 140.21C141.699 140.21 140.579 134.21 141.919 134.38C143.259 134.55 156.719 144.02 160.299 146.04C162.401 147.181 164.06 148.995 165.009 151.19" fill="#0987FF"/>
<path d="M160.939 175.19C160.939 175.19 156.679 224.73 156.679 229.19C156.679 233.65 165.679 267.29 165.679 267.29C165.679 267.29 150.679 272.22 149.989 268.63C149.299 265.04 144.609 216.19 143.489 199.83C142.369 183.47 141.699 140.21 141.699 140.21C141.699 140.21 140.579 134.21 141.919 134.38C143.259 134.55 156.719 144.02 160.299 146.04C162.401 147.181 164.06 148.995 165.009 151.19" stroke="#263238" stroke-miterlimit="10" stroke-linecap="round"/>
<path d="M124.849 119.83C124.849 119.83 123.279 133.28 123.279 136.83C123.279 140.38 127.759 147.83 133.819 148.71C139.879 149.59 145.019 141.31 145.249 139.97C145.479 138.63 126.419 117.11 126.419 117.11L124.849 119.83Z" fill="#A6A6A6" stroke="#263238" stroke-miterlimit="10" stroke-linecap="round"/>
<path d="M161.749 106.75C160.614 114.702 159.021 122.581 156.979 130.35C153.979 141.15 153.209 142.66 147.189 143.91C141.169 145.16 135.379 141.4 131.369 136.38C127.359 131.36 126.599 122.82 126.599 122.82L124.339 119.05L123.079 116.54C123.079 116.54 122.579 101.98 124.339 94.7C126.099 87.42 131.619 82.39 146.679 83.9C161.739 85.41 165.769 95.45 165.519 100.22C165.499 101.539 165.142 102.832 164.482 103.974C163.822 105.117 162.882 106.072 161.749 106.75V106.75Z" fill="#A6A6A6" stroke="#263238" stroke-miterlimit="10" stroke-linecap="round"/>
<path d="M128.1 117.3C128.1 117.3 127.1 112.52 123.83 112.78C120.56 113.04 121.07 119.05 123.33 122.32C125.59 125.59 127.6 121.56 127.6 121.56" fill="#A6A6A6"/>
<path d="M128.1 117.3C128.1 117.3 127.1 112.52 123.83 112.78C120.56 113.04 121.07 119.05 123.33 122.32C125.59 125.59 127.6 121.56 127.6 121.56" stroke="#263238" stroke-miterlimit="10" stroke-linecap="round"/>
<path d="M165.519 100.22C165.769 95.45 161.749 85.41 146.679 83.9C131.609 82.39 126.089 87.41 124.339 94.7C123.119 99.7 122.989 108.23 123.019 113.01C124.579 112.66 126.419 112.56 127.099 113.78C128.099 115.66 127.279 120.85 126.959 125.29C127.479 128.2 128.709 133.06 131.369 136.38C135.369 141.38 141.159 145.17 147.189 143.91C152.769 142.75 153.829 141.36 156.349 132.58C155.533 131.478 154.5 130.554 153.313 129.866C152.126 129.178 150.811 128.741 149.449 128.58C144.169 128.07 136.139 132.09 136.139 132.09C136.139 132.09 132.619 129.58 131.369 126.57C130.119 123.56 130.109 116.52 130.859 114.51C131.609 112.5 132.859 112.76 134.379 109.74C135.899 106.72 134.379 104.47 137.139 101.74C139.899 99.01 145.139 98.98 148.939 101.74C150.178 102.644 151.521 103.396 152.939 103.98C154.736 104.695 156.669 105.006 158.599 104.89L161.209 104.75L161.709 106.75C162.849 106.077 163.798 105.124 164.465 103.981C165.131 102.838 165.495 101.543 165.519 100.22V100.22Z" fill="#263238" stroke="#263238" stroke-miterlimit="10" stroke-linecap="round"/>
<path d="M152.709 117.8C152.709 117.8 153.709 125.58 151.959 128.09C150.209 130.6 148.189 129.85 147.689 128.34L147.189 126.84" stroke="#263238" stroke-miterlimit="10" stroke-linecap="round"/>
<path d="M151.199 132.61C151.199 132.61 147.199 134.37 141.909 130.86" stroke="#A6A6A6" stroke-miterlimit="10" stroke-linecap="round"/>
<path d="M145.66 118.77C145.45 119.71 144.84 120.39 144.3 120.27C143.76 120.15 143.49 119.27 143.69 118.34C143.89 117.41 144.51 116.72 145.05 116.83C145.59 116.94 145.86 117.82 145.66 118.77Z" fill="#263238"/>
<path d="M156.48 120.64C156.31 121.64 155.73 122.29 155.18 122.19C154.63 122.09 154.33 121.24 154.5 120.29C154.67 119.34 155.25 118.64 155.8 118.73C156.35 118.82 156.65 119.68 156.48 120.64Z" fill="#263238"/>
<path d="M141 114.49C142.077 114.003 143.249 113.763 144.431 113.787C145.613 113.811 146.774 114.099 147.83 114.63" stroke="#263238" stroke-width="2" stroke-miterlimit="10" stroke-linecap="round"/>
<path d="M153.21 115.77C153.21 115.77 157.34 115.34 158.9 117.33" stroke="#263238" stroke-width="2" stroke-miterlimit="10" stroke-linecap="round"/>
<path d="M144.529 123.02C147.042 123.02 149.079 120.983 149.079 118.47C149.079 115.957 147.042 113.92 144.529 113.92C142.017 113.92 139.979 115.957 139.979 118.47C139.979 120.983 142.017 123.02 144.529 123.02Z" stroke="#263238" stroke-miterlimit="10" stroke-linecap="round"/>
<path d="M161.75 120.61C161.75 121.512 161.482 122.394 160.981 123.144C160.479 123.894 159.766 124.479 158.933 124.824C158.099 125.169 157.181 125.258 156.297 125.082C155.412 124.905 154.599 124.47 153.962 123.831C153.325 123.192 152.891 122.379 152.716 121.493C152.541 120.608 152.633 119.691 152.98 118.858C153.327 118.025 153.913 117.313 154.664 116.814C155.415 116.314 156.298 116.048 157.2 116.05C157.798 116.05 158.391 116.168 158.943 116.397C159.496 116.627 159.998 116.963 160.421 117.386C160.843 117.81 161.178 118.312 161.406 118.866C161.634 119.419 161.751 120.012 161.75 120.61V120.61Z" stroke="#263238" stroke-miterlimit="10" stroke-linecap="round"/>
<path d="M148.8 117.76C148.8 117.76 151.92 117.51 153.21 118.9" stroke="#263238" stroke-miterlimit="10" stroke-linecap="round"/>
<path d="M139.98 117.19L127.1 113.78" stroke="#263238" stroke-miterlimit="10" stroke-linecap="round"/>
<path d="M87.1996 157.94L91.4596 206.35C91.4596 206.35 91.2296 217.35 90.7796 220.92C90.3296 224.49 84.0596 258.34 84.0596 258.34L98.3996 265.07C98.3996 265.07 112.3 209.26 113.4 198.28C114.5 187.3 118.33 133.28 118.33 133.28C118.33 133.28 86.9996 143.59 85.8496 145.16C84.6996 146.73 85.3996 149.42 85.3996 149.42" fill="#0987FF"/>
<path d="M87.1996 157.94L91.4596 206.35C91.4596 206.35 91.2296 217.35 90.7796 220.92C90.3296 224.49 84.0596 258.34 84.0596 258.34L98.3996 265.07C98.3996 265.07 112.3 209.26 113.4 198.28C114.5 187.3 118.33 133.28 118.33 133.28C118.33 133.28 86.9996 143.59 85.8496 145.16C84.6996 146.73 85.3996 149.42 85.3996 149.42" stroke="#263238" stroke-miterlimit="10" stroke-linecap="round"/>
<path d="M353.08 385.43C353.08 385.43 351.08 395.79 349.81 400.83C348.54 405.87 346.13 409.55 348.99 411.18C351.85 412.81 359.08 413.36 362.21 411.73C365.34 410.1 364.66 404.23 364.66 399.33C364.546 395.408 364.212 391.495 363.66 387.61L353.08 385.43Z" fill="#0987FF" stroke="#263238" stroke-miterlimit="10" stroke-linecap="round"/>
<path d="M364.61 406.78C362.61 408.91 359.44 411.25 355.12 410.5C350.49 409.7 348.78 407.62 348.12 406.27C347.45 408.53 347.28 410.27 348.97 411.18C351.83 412.82 359.06 413.36 362.19 411.73C363.77 410.91 364.38 409.05 364.61 406.78Z" fill="white" stroke="#263238" stroke-miterlimit="10" stroke-linecap="round"/>
<path d="M328.69 379.44C328.69 379.44 326.11 388.7 324.61 391.84C323.11 394.98 320.25 398.1 320.79 399.84C321.33 401.58 325.97 403.52 331.01 402.3C336.05 401.08 338.23 394.67 338.5 392.49C338.77 390.31 340 388.4 341.36 385.13C342.72 381.86 340.55 378.73 338.91 376.41C337.27 374.09 328.69 379.44 328.69 379.44Z" fill="#0987FF" stroke="#263238" stroke-miterlimit="10" stroke-linecap="round"/>
<path d="M337.409 393.06C336.049 396.74 333.599 400.15 329.099 400.83C324.969 401.45 321.529 398.63 320.999 398.17C320.748 398.699 320.674 399.296 320.789 399.87C321.339 401.65 325.969 403.55 331.009 402.33C336.049 401.11 338.229 394.7 338.499 392.52C338.769 390.34 339.999 388.43 341.359 385.16C341.654 384.416 341.799 383.622 341.785 382.822C341.771 382.022 341.599 381.233 341.279 380.5C338.509 383.92 338.759 389.42 337.409 393.06Z" fill="white" stroke="#263238" stroke-miterlimit="10" stroke-linecap="round"/>
<path d="M314.83 244.45C314.83 244.45 310.95 273.73 310.05 290.17C309.15 306.61 311.25 326.03 312.74 329.32C314.23 332.61 326.19 374.44 327.09 375.93C327.99 377.42 327.39 380.72 330.09 381.61C332.79 382.5 338.46 381.01 340.26 376.83L339.96 367.83L338.16 363.04C338.16 363.04 337.57 337.64 334.88 329.87C333.769 326.429 332.474 323.051 331 319.75L341.76 276.75C341.76 276.75 345.05 323.67 347.44 329.35C349.83 335.03 350.72 370.29 351.92 375.96C352.639 379.402 353.037 382.904 353.11 386.42C355.004 387.841 357.323 388.58 359.69 388.52H363.87C363.87 388.52 368.06 358.93 369.55 351.16C371.04 343.39 367.76 323.07 368.36 316.8C368.96 310.53 368.06 303.95 368.65 299.46C369.24 294.97 374.03 263.9 374.33 258.22C374.475 254.034 374.375 249.844 374.03 245.67L314.83 244.45Z" fill="#4F4F4F" stroke="#263238" stroke-miterlimit="10" stroke-linecap="round"/>
<path d="M361.65 155.1C357.35 153.305 352.73 152.4 348.07 152.44C340.07 152.44 326.57 155.12 324.67 156.04C322.77 156.96 318 250.43 318 250.43C318 250.43 332.11 258.43 341.17 257.08C350.23 255.73 362.17 251.23 362.17 251.23L361.64 157.5L361.65 155.1Z" fill="#263238" stroke="#263238" stroke-miterlimit="10" stroke-linecap="round"/>
<path d="M326.15 97.7099C326.15 97.7099 314.75 104.04 313.28 112.48C311.81 120.92 317.28 122.73 317.2 125.77C317.12 128.81 308.14 145.77 309.72 150.84C311.3 155.91 330.57 163.84 346.34 162.26C362.11 160.68 374.03 155.31 374.81 146.13C375.59 136.95 365.95 130.13 365.61 127.18C365.27 124.23 372.53 115.1 367.4 107.18C362.27 99.2599 342.05 91.8599 336.87 92.4399C331.69 93.0199 326.15 97.7099 326.15 97.7099Z" fill="#263238" stroke="#263238" stroke-miterlimit="10" stroke-linecap="round"/>
<path d="M357.659 149.51L377.359 158.56L371.999 202.77L381.059 263.47C381.059 263.47 369.609 268.27 359.759 269.33C359.759 269.33 355.229 235.25 355.229 225.4C355.229 215.55 356.299 154.84 356.299 154.84V149.78L357.659 149.51Z" fill="white" stroke="#263238" stroke-miterlimit="10" stroke-linecap="round"/>
<path d="M327.679 150.76C327.679 150.76 303.029 154.76 302.129 158.38C301.229 162 298.129 208.14 298.129 208.14C295.134 218.383 294.279 229.133 295.619 239.72C295.619 239.72 302.819 235.96 306.889 241.28C306.889 241.28 305.019 262.28 305.959 263.53C306.899 264.78 321.619 270.42 321.619 270.42C321.619 270.42 326.319 197.42 326.319 185.53C326.319 173.64 327.679 150.76 327.679 150.76Z" fill="white" stroke="#263238" stroke-miterlimit="10" stroke-linecap="round"/>
<path d="M307.329 181.46L311.859 206.23L306.869 241.29" fill="white"/>
<path d="M307.329 181.46L311.859 206.23L306.869 241.29" stroke="#263238" stroke-miterlimit="10" stroke-linecap="round"/>
<path d="M374.41 157.49C374.41 157.49 379.85 159.27 382.15 163.62C383.15 165.52 389.61 204.9 390.15 209.42C390.69 213.94 380.83 246.7 380.83 246.7C380.83 246.7 376.57 243.5 374.71 243.24C373.48 243.083 372.24 243.003 371 243C371 243 372.86 211.58 373.13 210.78C373.4 209.98 373.34 181.48 373.34 181.48" fill="white"/>
<path d="M374.41 157.49C374.41 157.49 379.85 159.27 382.15 163.62C383.15 165.52 389.61 204.9 390.15 209.42C390.69 213.94 380.83 246.7 380.83 246.7C380.83 246.7 376.57 243.5 374.71 243.24C373.48 243.083 372.24 243.003 371 243C371 243 372.86 211.58 373.13 210.78C373.4 209.98 373.34 181.48 373.34 181.48" stroke="#263238" stroke-miterlimit="10" stroke-linecap="round"/>
<path d="M374.699 210.22C374.699 210.22 381.089 207.03 384.549 209.42Z" fill="white"/>
<path d="M374.699 210.22C374.699 210.22 381.089 207.03 384.549 209.42" stroke="#263238" stroke-miterlimit="10" stroke-linecap="round"/>
<path d="M370.999 243C370.999 243 366.739 252.06 366.739 254.45C366.739 256.84 367.269 261.11 367.269 262.97C367.269 264.83 369.929 264.3 369.929 264.3C369.929 264.3 369.929 269.1 372.059 268.83C374.189 268.56 375.259 265.37 377.119 263.77C378.979 262.17 381.919 257.65 381.919 254.98C381.743 252.21 381.385 249.454 380.849 246.73C380.849 246.73 377.359 241.11 370.999 243Z" fill="#CFCFCF" stroke="#263238" stroke-miterlimit="10" stroke-linecap="round"/>
<path d="M369.899 264.27V256.29" stroke="#263238" stroke-miterlimit="10" stroke-linecap="round"/>
<path d="M372.63 268.62L373.82 267.13L375.16 258.65" stroke="#263238" stroke-miterlimit="10" stroke-linecap="round"/>
<path d="M376.649 264.31L378.279 258.66" stroke="#263238" stroke-miterlimit="10" stroke-linecap="round"/>
<path d="M334.909 157.04L332.899 205.2L344.539 208.21L343.939 158.05L334.909 157.04Z" fill="#0987FF" stroke="#263238" stroke-miterlimit="10" stroke-linecap="round"/>
<path d="M341.13 161.46V215.63L355.17 214.03L350.96 159.05L341.13 161.46Z" fill="#0987FF" stroke="#263238" stroke-miterlimit="10" stroke-linecap="round"/>
<path d="M331.7 141C331.7 141 325.28 141.41 325.28 143.21C325.28 145.01 323.47 153.04 324.67 156.05C325.87 159.06 332.9 162.05 341.33 162.05C349.76 162.05 357.98 155.63 358.78 155.05C359.58 154.47 359.78 151.05 359.38 150.23C358.98 149.41 357.58 142.01 355.57 141C353.56 139.99 341.13 141.41 338.32 141.61C336.097 141.66 333.876 141.455 331.7 141V141Z" fill="#0987FF" stroke="#263238" stroke-miterlimit="10" stroke-linecap="round"/>
<path d="M331.499 140.19C331.499 140.19 331.089 144.41 333.099 146.41C335.109 148.41 345.939 147.01 348.949 144.21C351.959 141.41 351.159 136.98 351.159 136.98C351.159 136.98 337.719 142 331.499 140.19Z" fill="#CFCFCF" stroke="#263238" stroke-miterlimit="10" stroke-linecap="round"/>
<path d="M332.37 105.48C332.37 105.48 328.28 112.34 325.81 114.92C324.596 116.123 323.494 117.436 322.52 118.84C322.52 118.84 323.43 132.29 325.9 136.84C328.37 141.39 332.99 145.35 339.32 144.25C345.65 143.15 350.75 136.33 350.92 133.25C351.09 130.17 349.87 120.25 349.87 120.25C349.87 120.25 335.06 117.25 332.37 105.48Z" fill="#CFCFCF" stroke="#263238" stroke-miterlimit="10" stroke-linecap="round"/>
<path d="M331.15 119.63C331.181 121.173 331.332 122.711 331.6 124.23C331.91 125 329.22 128.83 331.6 129.91C333.044 130.568 334.612 130.909 336.2 130.91" stroke="#263238" stroke-miterlimit="10" stroke-linecap="round"/>
<path d="M330.409 134.33C330.409 134.33 331.769 135.33 335.769 134.98C339.769 134.63 341.309 132.57 341.309 132.57" stroke="#263238" stroke-miterlimit="10" stroke-linecap="round"/>
<path d="M328.339 122.67C328.449 123.44 328.14 124.12 327.64 124.19C327.14 124.26 326.639 123.69 326.549 122.93C326.459 122.17 326.749 121.48 327.249 121.41C327.749 121.34 328.229 121.9 328.339 122.67Z" fill="#263238"/>
<path d="M338.999 121.15C339.109 121.92 338.799 122.6 338.309 122.67C337.819 122.74 337.309 122.17 337.219 121.41C337.129 120.65 337.419 119.96 337.909 119.89C338.399 119.82 338.849 120.38 338.999 121.15Z" fill="#263238"/>
<path d="M324.079 119.83C324.636 119.083 325.454 118.573 326.37 118.405C327.287 118.236 328.233 118.42 329.019 118.92" stroke="#263238" stroke-miterlimit="10" stroke-linecap="round"/>
<path d="M333.47 118.9C333.47 118.9 336.47 114.61 341.25 117.99" stroke="#263238" stroke-miterlimit="10" stroke-linecap="round"/>
<path d="M295.59 239.72L293.59 246.12C293.59 246.12 292.1 250.69 292.23 252.03C292.36 253.37 296.23 258.83 299.36 260.71C302.49 262.59 307.19 260.71 308.13 259.14C309.07 257.57 307.5 253.5 307.5 253.5C307.5 253.5 309.69 250.37 310.01 248.8C310.33 247.23 306.87 241.28 306.87 241.28C306.87 241.28 303.11 235 295.59 239.72Z" fill="#CFCFCF" stroke="#263238" stroke-miterlimit="10" stroke-linecap="round"/>
<path d="M307.66 259.85L304.24 258.21L300.97 250.18" stroke="#263238" stroke-miterlimit="10" stroke-linecap="round"/>
<path d="M296.81 251.07C296.81 251.07 298.89 257.76 300.37 259.07C301.615 260.021 303.03 260.727 304.54 261.15" stroke="#263238" stroke-miterlimit="10" stroke-linecap="round"/>
<path d="M294.13 251.82C294.697 254.014 295.562 256.12 296.7 258.08" stroke="#263238" stroke-miterlimit="10" stroke-linecap="round"/>
<path d="M306.999 252.55L305.399 247.55C305.399 247.55 307.809 247.15 309.609 250.37C310.133 251.317 310.424 252.375 310.459 253.456C310.494 254.537 310.271 255.612 309.809 256.59L308.609 257.2L306.999 252.55Z" fill="#A6A6A6" stroke="#263238" stroke-miterlimit="10" stroke-linecap="round"/>
</svg>
