<svg width="514" height="490" viewBox="0 0 514 490" fill="none" xmlns="http://www.w3.org/2000/svg">
<path fill-rule="evenodd" clip-rule="evenodd" d="M134.345 0.769549C128.066 2.02955 122.329 6.50955 119.074 12.6966L116.324 17.9226V43.2255V68.5285L99.0735 74.2505C74.5615 82.3805 69.3605 85.7955 64.1215 97.1945L61.8235 102.195L61.5555 236.445L61.2885 370.695H58.3555C44.6745 370.695 25.5575 380.83 15.0345 393.662C-4.55149 417.545 -5.16249 483.028 14.1505 488.445C17.6445 489.425 497.003 489.425 500.497 488.445C511.769 485.284 513.276 480.113 513.302 444.494C513.342 390.864 499.791 370.695 463.719 370.695H455.324L455.28 306.445C455.245 255.391 454.961 241.424 453.897 238.443C451.82 232.622 447.686 227.922 442.012 224.93L436.824 222.195L368.574 221.906L300.324 221.617V128.424V35.2305L310.574 45.2705C316.211 50.7925 329.149 63.3376 339.324 73.1476C349.499 82.9576 358.834 92.6065 360.069 94.5895L362.314 98.1945L362.319 147.49L362.324 196.786L364.779 199.24C367.944 202.406 372.267 202.449 375.184 199.344L377.393 196.993L377.109 145.094L376.824 93.1945L373.91 87.9355C370.675 82.0975 299.209 11.9965 294.7 10.2375C292.677 9.44855 281.146 13.0086 229.035 30.5116C194.269 42.1876 165.486 51.7305 165.074 51.7175C164.662 51.7055 164.321 44.8325 164.318 36.4445C164.308 8.51055 154.42 -3.25845 134.345 0.769549ZM146.4 18.2725C148.756 20.7785 148.833 21.3625 149.135 39.1625L149.445 57.4755L140.385 60.5135L131.324 63.5526V42.2585C131.324 22.2295 131.447 20.8075 133.397 18.3295C136.32 14.6125 142.93 14.5835 146.4 18.2725ZM283.222 68.7576C282.593 69.1466 245.571 81.7015 200.951 96.6585C116.25 125.05 116.324 125.021 116.324 130.806C116.324 138.805 122.159 139.358 140.414 133.091C147.79 130.559 182.399 118.898 217.324 107.178C252.249 95.4576 281.612 85.5556 282.574 85.1746C284.204 84.5286 284.324 85.7876 284.324 103.466V122.452L273.574 126.173C267.661 128.22 230.649 140.679 191.324 153.86C116.596 178.908 116.324 179.02 116.324 184.806C116.324 192.56 122.438 193.364 138.508 187.724C144.732 185.54 179.299 173.884 215.324 161.821C251.349 149.758 281.612 139.572 282.574 139.185C284.204 138.529 284.324 139.785 284.324 157.498V176.514L276.574 179.156C272.312 180.609 235.299 193.045 194.324 206.791C141.573 224.489 119.313 232.388 118.074 233.851C114.158 238.474 117.332 245.695 123.281 245.695C125.412 245.695 269.744 198.076 282.807 193.063C284.13 192.555 284.324 194.912 284.324 211.5V230.52L271.074 234.985C263.786 237.441 226.774 249.877 188.824 262.622C116.633 286.866 116.324 286.995 116.324 292.806C116.324 303.251 129.426 299.701 273.27 250.284C279.016 248.31 283.854 246.695 284.02 246.695C284.187 246.695 284.324 255.193 284.324 265.579V284.463L258.574 293.197C244.412 298.001 221.349 305.746 207.324 310.409C177.556 320.305 175.161 321.854 178.454 329.08C181.316 335.362 181.005 335.426 233.595 317.687C260.121 308.739 282.387 301.207 283.074 300.95C284.068 300.577 284.324 318.219 284.324 387.088V473.695H252.324H220.324V433.663C220.324 372.719 222.19 374.253 166.824 389.682C111.854 405.001 116.324 400.179 116.324 444.163V473.695H96.3235H76.3235L76.3295 291.445C76.3335 162.235 76.6545 108.045 77.4325 105.242C79.8365 96.5815 78.1855 97.2975 155.824 71.2145C194.874 58.0955 239.649 43.0305 255.324 37.7375L283.824 28.1135L284.095 48.0816C284.288 62.2576 284.035 68.2556 283.222 68.7576ZM437.4 240.275L439.824 242.855L440.09 308.525L440.355 374.195L435.258 377.049C420.309 385.417 410.382 403.104 410.339 421.445L410.324 427.695H355.324H300.324V332.695V237.695H367.65H434.975L437.4 240.275ZM326.691 257.613C320.879 261.157 320.324 262.844 320.324 276.967C320.324 299.859 317.653 298.695 370.198 298.695H411.171L414.229 296.121C422.884 288.839 421.046 260.984 411.652 257.059C405.831 254.626 330.786 255.116 326.691 257.613ZM404.324 277.195V283.695H369.824H335.324V277.195V270.695H369.824H404.324V277.195ZM326.691 314.613C320.879 318.157 320.324 319.844 320.324 333.967C320.324 356.859 317.653 355.695 370.198 355.695H411.171L414.229 353.121C422.8 345.909 421.142 318.684 411.864 314.281C406.295 311.638 331.089 311.931 326.691 314.613ZM404.122 334.445L404.419 340.695H369.872H335.324V334.182V327.669L369.574 327.932L403.824 328.195L404.122 334.445ZM134.324 334.788C116.503 340.865 112.123 345.494 118.324 351.695C123.888 357.259 159.324 344.591 159.324 337.039C159.324 328.836 153.354 328.298 134.324 334.788ZM326.087 372.26C321.276 374.871 320.324 378.239 320.324 392.66V405.724L323.745 409.46L327.165 413.195L343.2 413.513C367.731 414 369.324 412.703 369.324 392.241C369.324 371.662 368.191 370.675 344.624 370.735C332.605 370.765 328.169 371.13 326.087 372.26ZM61.3235 406.695V427.695H38.9525H16.5815L17.4645 422.967C20.9925 404.086 40.5795 386.369 58.5735 385.784L61.3235 385.695V406.695ZM354.324 392.195V398.695H344.824H335.324V392.195V385.695H344.824H354.324V392.195ZM478.324 388.831C490.235 394.359 497.193 405.05 498.075 419.179L498.606 427.695H461.817H425.028L425.653 419.585C427.695 393.109 454.196 377.635 478.324 388.831ZM205.324 434.695V473.695H190.324H175.324V438.754C175.324 414.401 175.658 403.607 176.425 403.133C178.171 402.053 200.585 395.866 203.074 395.776L205.324 395.695V434.695ZM160.324 440.695V473.695H145.824H131.324V445.317C131.324 421.766 131.57 416.736 132.772 415.738C134.093 414.642 156.143 407.967 159.074 407.776C160.05 407.713 160.324 414.918 160.324 440.695ZM61.3235 458.195V473.695H39.4305C13.6685 473.695 16.3235 475.657 16.3235 456.613V442.695H38.8235H61.3235V458.195ZM410.324 458.195V473.695H355.324H300.324V458.195V442.695H355.324H410.324V458.195ZM498.324 456.613C498.324 464.268 498.051 471.243 497.717 472.113C497.179 473.515 493.024 473.695 461.217 473.695H425.324V458.195V442.695H461.824H498.324V456.613Z" fill="#0E385F"/>
</svg>
