<svg width="336" height="513" viewBox="0 0 336 513" fill="none" xmlns="http://www.w3.org/2000/svg">
<path fill-rule="evenodd" clip-rule="evenodd" d="M102.56 1.4202C97.6313 5.1632 98.7403 10.7782 105.606 16.8292C110.211 20.8892 110.264 21.0012 107.824 21.5152C51.0503 33.4772 13.7603 69.4382 2.09328 123.478C-0.922718 137.445 -0.581712 265.994 2.48629 271.67C8.31029 282.446 15.4413 286.423 29.9343 286.977L40.5443 287.382L42.7123 292.614C46.3863 301.477 54.7323 314.185 57.5953 315.273C64.5523 317.918 69.7823 310.666 65.8963 303.761C48.5813 272.994 46.0113 262.992 45.1253 222.92L44.5343 196.17H167.679H290.824L290.808 214.42C290.773 254.764 286.646 274.503 273.609 296.67C235.563 361.36 149.134 377.214 90.8243 330.199C82.1273 323.187 79.8053 322.297 76.2633 324.618C67.6133 330.286 75.0053 340.078 98.3043 353.819L107.034 358.967L101.179 360.659C76.4363 367.811 55.9023 388.901 49.0793 414.17C46.1813 424.903 46.4383 500.834 49.3863 504.784C54.9353 512.219 48.3123 511.639 131.062 511.939L205.155 512.208L207.489 510.015C210.588 507.104 210.597 502.245 207.51 499.344L205.195 497.17H133.51H61.8243L61.8413 462.42C61.8743 397.6 78.6503 373.17 123.132 373.17H132.529L133.18 381.642C136.871 429.653 198.513 429.69 202.408 381.684L203.118 372.938L215.221 373.401C237.353 374.246 253.873 383.848 265.106 402.395C272.963 415.367 273.201 416.961 273.599 459.42L273.954 497.17H251.843H229.733L227.279 499.625C224.133 502.77 224.152 506.589 227.328 509.765L229.832 512.269L254.257 511.97C290.922 511.52 288.324 515.418 288.324 460.845C288.324 420.43 288.281 419.532 285.977 412.195C278.277 387.673 260.42 369.154 237.186 361.596L228.816 358.874L237 354.006C260.546 340.002 280.656 318.31 291.592 295.121L295.245 287.377L305.784 286.974C320.266 286.421 327.419 282.45 333.113 271.804L335.324 267.67V199.67C335.324 138.39 335.149 130.86 333.555 123.478C322.414 71.8762 284.81 34.0072 233.324 22.5412C226.624 21.0492 218.542 20.6712 183.583 20.2152L141.842 19.6702L144.829 15.1702C149.8 7.6802 147.796 0.170197 140.827 0.170197C137.362 0.170197 135.881 1.4782 130.918 8.9202C125.826 16.5552 127.006 16.6672 117.761 7.6702C109.735 -0.139803 106.413 -1.5058 102.56 1.4202ZM231.037 37.5032C259.012 44.2582 300.824 72.4232 300.824 84.5122C300.824 84.8742 283.299 85.1702 261.88 85.1702H222.936L220.213 87.5122C218.303 89.1552 217.491 90.8102 217.491 93.0592C217.491 99.1172 218.947 99.6142 238.326 100.17L255.763 100.67L216.599 140.92L177.435 181.17H139.557H101.679L103.501 178.867C104.504 177.601 121.459 159.376 141.18 138.367L177.037 100.17H187.32C201.77 100.17 207.36 94.3292 199.435 87.5122L196.712 85.1702H115.768C71.2493 85.1702 34.8243 84.8742 34.8243 84.5122C34.8243 82.9882 43.5303 72.7542 50.2853 66.3372C67.8053 49.6942 89.1623 39.4562 113.173 36.1902C125.05 34.5752 223.448 35.6702 231.037 37.5032ZM81.4713 118.42C103.112 128.457 120.82 136.992 120.821 137.385C120.826 138.685 91.6293 169.17 90.3793 169.17C88.7813 169.17 16.5383 143.254 15.6323 142.356C13.7023 140.442 18.8653 115.656 23.2683 105.701L25.7143 100.17H33.9193H42.1243L81.4713 118.42ZM151.789 104.92C145.989 111.341 132.675 125.17 132.292 125.17C131.768 125.17 85.5073 103.606 82.3243 101.879C79.5073 100.35 81.6673 100.248 117.701 100.21L156.079 100.17L151.789 104.92ZM312.346 105.624C318.377 119.26 320.824 135.46 320.824 161.742V181.17H259.714H198.605L214.378 164.92C223.053 155.983 240.765 137.768 253.737 124.443L277.324 100.216L293.629 100.193L309.934 100.17L312.346 105.624ZM45.9103 169.735C62.0683 175.546 75.4833 180.496 75.7223 180.735C75.9623 180.974 62.3573 181.17 45.4913 181.17H14.8243V170.17C14.8243 164.12 15.2093 159.17 15.6793 159.17C16.1493 159.17 29.7533 163.924 45.9103 169.735ZM30.1283 223.92C30.6353 249.589 31.4363 258.269 34.3283 269.42C35.8903 275.446 20.7553 272.385 16.7843 265.871C14.9513 262.866 14.8313 260.634 14.8283 229.42L14.8243 196.17H22.2023H29.5803L30.1283 223.92ZM320.82 229.42C320.816 266.353 320.688 267.121 313.918 270.621C311.525 271.859 300.814 272.921 300.827 271.92C300.829 271.783 301.76 267.17 302.896 261.67C304.575 253.542 305.067 246.475 305.522 223.92L306.083 196.17H313.454H320.824L320.82 229.42ZM99.3243 207.061C94.5273 208.31 87.9803 212.011 86.8573 214.108C82.8003 221.688 90.9283 228.184 98.8243 223.67C102.07 221.814 108.793 221.832 111.265 223.702C116.682 227.799 123.824 224.284 123.824 217.52C123.824 210.725 109.211 204.487 99.3243 207.061ZM222.824 207.763C212.801 211.349 209.253 217.054 213.381 222.947C215.235 225.595 221.328 226.013 224.383 223.702C226.855 221.832 233.578 221.814 236.824 223.67C244.723 228.185 252.848 221.688 248.788 214.103C245.805 208.528 230.875 204.882 222.824 207.763ZM98.7813 238.004C92.6963 242.931 96.0603 256.17 103.397 256.17C108.736 256.17 110.824 253.379 110.824 246.243C110.824 237.514 104.624 233.273 98.7813 238.004ZM224.279 238.625C218.705 244.198 222.197 256.17 229.397 256.17C234.736 256.17 236.824 253.379 236.824 246.243C236.824 237.118 229.956 232.947 224.279 238.625ZM155.948 277.748C134.839 283.425 115.939 304.345 126.71 310.109C131.012 312.411 133.534 311.364 140.526 304.373C158.843 286.057 182.273 286.79 200.792 306.258C205.217 310.908 208.734 311.351 212.369 307.715C226.119 293.966 182.259 270.671 155.948 277.748ZM167.824 372.484C175.799 372.484 183.336 372.158 184.574 371.76C187.855 370.703 187.948 385.216 184.703 391.92C178.458 404.821 159.511 405.631 151.711 393.33C147.702 387.01 147.216 370.517 151.074 371.76C152.312 372.158 159.849 372.484 167.824 372.484Z" fill="#808080"/>
</svg>
