<svg width="508" height="513" viewBox="0 0 508 513" fill="none" xmlns="http://www.w3.org/2000/svg">
<path fill-rule="evenodd" clip-rule="evenodd" d="M198.52 1.68177C184.7 7.67777 184.079 9.67377 183.476 50.1048L182.976 83.6048L167.192 117.03C148.774 156.032 149.917 151.357 148.929 191.724C148.214 220.958 148.4 222.365 153.221 224.198C162.005 227.538 163.183 223.615 164.373 187.032L165.367 156.46L180.952 123.123C199.748 82.9188 198.422 88.3908 198.452 50.9438L198.476 20.2828L201.553 17.6938L204.629 15.1048H324.13H443.63L446.553 18.0278L449.476 20.9508L449.482 51.7778C449.488 88.8838 448.026 82.8968 467.028 123.605L482.432 156.605L487.498 317.833C493.062 494.879 493.123 484.458 486.488 491.093C480.335 497.246 482.803 497.093 389.476 497.101L303.976 497.109L304.303 491.344C304.522 487.483 302.623 474.147 298.553 450.961C295.211 431.921 292.476 416.127 292.476 415.863C292.476 415.599 295.063 415.144 298.226 414.852C301.389 414.559 306.676 413.319 309.976 412.096C325.853 406.211 322.197 406.204 337.976 412.151C398.126 434.819 436.702 345.713 379.695 315.786C373.35 312.455 371.902 311.147 368.376 305.563C347.714 272.848 298.962 273.204 278.908 306.216C275.745 311.423 274.393 312.625 268.171 315.759C259.509 320.121 250.128 329.237 245.942 337.361C243.791 341.535 242.564 342.943 241.476 342.485C223.344 334.836 206.95 334.721 192.405 342.141C188.799 343.981 188.734 343.977 182.607 341.502C179.215 340.132 172.597 338.497 167.902 337.868L159.365 336.726L159.943 324.166C161.766 284.511 162.468 247.958 161.443 246.043C159.229 241.907 153.75 241.105 149.962 244.363L147.337 246.621L145.927 289.509C144.355 337.317 144.81 333.846 140.406 331.569C126.673 324.467 104.49 322.091 99.4042 327.177C93.1622 333.419 98.2482 339.332 110.249 339.789C123.158 340.28 132.313 343.332 142.343 350.489C146.702 353.599 146.734 353.605 159.915 353.605H173.12L180.714 357.449C188.954 361.621 190.14 361.63 196.12 357.572C216.36 343.837 247.292 356.218 253.038 380.355L253.693 383.105H155.954H58.2142L58.7762 379.642C59.9252 372.562 65.4612 363.174 73.5542 354.583C81.7362 345.897 82.2402 344.875 80.3662 340.762C74.2092 327.25 50.4042 350.575 43.8922 376.501L42.2332 383.105L36.6042 383.127C18.4192 383.198 17.0592 385.975 6.99323 443.605C-2.37577 497.244 -2.37377 497.612 7.25823 506.296C14.2072 512.562 -0.606766 512.221 250.476 511.9L481.976 511.605L487.632 508.739C499.625 502.661 506.599 491.934 507.223 478.605C507.684 468.765 497.741 156.586 496.856 153.105C496.506 151.73 489.19 135.53 480.598 117.105L464.976 83.6048L464.476 50.1048L463.976 16.6048L461.289 12.0348C458.356 7.04577 452.733 2.61277 447.396 1.08177C441.18 -0.701231 202.687 -0.125232 198.52 1.68177ZM220.549 44.7398C218.178 47.7538 218.024 49.0188 219.606 52.4898C221.713 57.1158 222.487 57.1668 286.328 56.8778L346.653 56.6048L348.565 54.2438C351.153 51.0468 350.986 46.9328 348.162 44.2788L345.847 42.1048H284.234H222.621L220.549 44.7398ZM370.476 44.1048C359.655 54.9258 413.827 65.3088 426.087 54.7628C429.618 51.7258 429.828 46.6178 426.532 43.9488C422.891 41.0008 373.443 41.1378 370.476 44.1048ZM281.47 192.979C257.279 200.916 253.848 251.561 276.711 263.225C301.465 275.853 321.034 249.013 313.508 212.757C310.595 198.726 294.408 188.734 281.47 192.979ZM352.47 193.039C328.296 200.393 324.939 251.472 347.854 263.278C360.148 269.612 374.949 264.708 382.01 251.961L384.976 246.605V229.105C384.976 200.707 372.557 186.929 352.47 193.039ZM293.311 208.52C302.919 213.488 301.508 247.218 291.568 250.196C281.549 253.197 277.476 247.154 277.476 229.286C277.476 210.311 282.934 203.153 293.311 208.52ZM362.815 208.044C374.164 212.359 372.614 248.488 360.985 250.669C351.871 252.379 348.476 246.385 348.476 228.587C348.476 210.59 352.888 204.269 362.815 208.044ZM224.279 239.482C204.087 245.014 201.061 257.054 211.11 291.88C219.797 321.983 263.291 315.378 261.256 284.264C259.224 253.196 243.542 234.205 224.279 239.482ZM412.256 239.037C398.283 241.831 386.038 264.149 386.101 286.709C386.17 311.469 421.445 320.881 433.314 299.307C451.336 266.548 439.799 233.529 412.256 239.037ZM236.246 255.656C239.879 258.201 246.476 278.219 246.476 286.699C246.476 296.96 230.356 299.89 226.627 290.306C216.535 264.371 221.769 245.516 236.246 255.656ZM424.553 257.028C429.445 261.92 425.192 287.049 418.404 293.355C410.892 300.335 400.375 294.288 401.446 283.605C403.725 260.891 415.208 247.683 424.553 257.028ZM339.553 299.774C346.314 302.953 353.57 309.404 356.167 314.545C359.436 321.019 362.693 324.117 370.499 328.178C415.877 351.786 384.971 417.404 338.476 396.167C327.997 391.381 320.072 391.322 309.479 395.95C305.084 397.871 299.495 399.459 295.975 399.787L289.968 400.348L288.247 396.447C285.788 390.873 280.445 386.125 274.293 384.047C270.794 382.866 268.869 381.628 268.662 380.428C267.642 374.498 263.651 365.027 259.805 359.409L255.369 352.93L258.27 346.767C262.164 338.495 267.629 333.167 277.474 328.045C285.248 324.001 285.953 323.348 291.021 315.491C302.629 297.497 321.625 291.346 339.553 299.774ZM272.845 399.96C277.853 405.494 290.599 492.076 286.841 495.032L284.206 497.105H151.796H19.3852L16.9312 494.65C13.7532 491.473 13.3592 495.26 22.0052 445.872C29.4612 403.287 30.2632 399.759 32.7152 398.771C37.0902 397.008 271.223 398.168 272.845 399.96ZM127.339 409.764C99.8342 414.478 100.65 438.912 129.262 467.364L147.102 485.105H151.639C161.967 485.105 194.804 451.203 196.949 438.326C200.603 416.383 172.652 400.597 156.013 415.207L152.54 418.256L149.258 415.798C142.385 410.653 134.623 408.516 127.339 409.764ZM178.84 427.741C185.119 434.02 183.173 438.143 165.801 455.37L151.92 469.135L137.198 454.295C122.871 439.853 122.476 439.341 122.476 435.203C122.476 424.488 132.915 421.657 141.786 429.967C151.109 438.702 152.991 438.799 161.046 430.961C168.35 423.855 173.942 422.843 178.84 427.741ZM390.387 456.976C388.714 458.33 388.076 459.885 388.076 462.605C388.076 471.963 446.121 474.936 449.972 465.776C451.481 462.189 450.282 457.606 447.437 456.084C443.655 454.06 393.01 454.852 390.387 456.976Z" fill="#808080"/>
</svg>
