<svg width="512" height="513" viewBox="0 0 512 513" fill="none" xmlns="http://www.w3.org/2000/svg">
<path fill-rule="evenodd" clip-rule="evenodd" d="M230.401 1.17345C16.3846 23.2635 -77.0494 284.306 74.5386 436.631C235.122 597.994 511.378 483.832 511.378 256.109C511.378 186.454 475.446 96.4555 458.166 122.828C455.353 127.12 456.118 131.003 461.696 140.751C508.834 223.122 499.716 329.922 439.17 404.609C431.241 414.39 413.296 432.945 412.625 432.057C412.439 431.811 411.105 427.334 409.66 422.109C367.002 267.849 140.414 269.87 101.288 424.859C99.0136 433.869 100.258 434.255 86.7806 420.359C-111.249 216.176 164.075 -101.493 394.586 65.2134C411.144 77.1884 427.227 65.5435 411.624 52.8785C365.402 15.3595 293.026 -5.28955 230.401 1.17345ZM435.011 83.5055C426.342 88.3105 429.969 102.109 439.901 102.109C444.968 102.109 449.901 97.2245 449.901 92.2065C449.901 84.6985 441.604 79.8505 435.011 83.5055ZM241.561 107.089C156.391 122.569 138.169 236.128 214.484 275.831C291.771 316.04 375.832 231.979 335.623 154.692C318.053 120.919 277.734 100.515 241.561 107.089ZM269.693 127.669C303.228 134.457 328.016 166.596 325.538 200.075C321.054 260.674 249.497 287.867 206.82 245.19C158.24 196.611 202.41 114.05 269.693 127.669ZM283.616 329.051C339.479 340.435 382.944 384.213 393.237 439.461L394.699 447.314L384.05 454.265C305.668 505.426 198.612 504.063 122.781 450.939L117.161 447.002L118.595 439.305C132.653 363.821 207.815 313.604 283.616 329.051Z" fill="#0E385F"/>
</svg>
