<svg width="513" height="410" viewBox="0 0 513 410" fill="none" xmlns="http://www.w3.org/2000/svg">
<path fill-rule="evenodd" clip-rule="evenodd" d="M73.6036 0.659663C68.4886 2.74366 68.6746 0.390663 68.1386 69.9007L67.6386 134.783L62.9396 131.802C57.0656 128.076 52.5026 120.475 51.5466 112.822C50.7236 106.233 47.7886 102.713 43.1186 102.713C37.1196 102.713 34.9736 105.41 33.6936 114.555C32.0396 126.373 23.2756 134.465 10.2346 136.217C-3.48643 138.06 -3.38143 151.481 10.3706 153.684C24.2756 155.912 32.2536 163.923 34.0976 177.508C35.9816 191.39 49.7496 191.242 51.5966 177.32C52.9206 167.339 61.5196 155.713 67.5776 155.713C67.8736 155.713 68.2336 211.726 68.3766 280.185L68.6386 404.658L70.9166 406.935L73.1946 409.213H256.139H439.083L441.361 406.936L443.639 404.658L443.912 344.186C444.062 310.926 444.422 283.713 444.711 283.713C450.758 283.713 459.359 295.349 460.681 305.32C462.528 319.242 476.296 319.39 478.18 305.508C480.024 291.923 488.002 283.912 501.907 281.684C515.659 279.481 515.764 266.06 502.043 264.217C489.002 262.465 480.238 254.373 478.584 242.555C477.304 233.41 475.158 230.713 469.159 230.713C464.489 230.713 461.554 234.233 460.731 240.822C459.775 248.475 455.212 256.076 449.338 259.802L444.639 262.782L444.139 133.775L443.639 4.76766L441.361 2.49066L439.084 0.212664L257.361 0.0216626C157.414 -0.0833374 74.7226 0.203663 73.6036 0.659663ZM337.139 17.1857C337.139 17.4467 324.024 30.6087 307.994 46.4357C270.781 83.1797 269.564 84.8657 275.775 91.0767C282.073 97.3737 281.248 97.9857 324.113 55.2127L362.696 16.7127H375.418C391.401 16.7127 397.035 9.28867 330.639 75.7217C267.409 138.986 269.633 136.298 275.594 142.258C282.134 148.799 278.45 151.862 349.684 80.6597L413.765 16.6077L420.202 16.9097L426.639 17.2127L426.892 177.889L427.145 338.565L424.219 335.639C422.37 333.79 420.253 332.711 418.466 332.707C405.714 332.682 395.171 323.069 393.073 309.556C390.762 294.662 377.516 294.662 375.205 309.556C373.117 323.006 362.561 332.681 349.945 332.707C337.491 332.733 339.582 348.453 352.263 350.135C365.541 351.896 373.668 360.528 375.615 374.935C377.209 386.731 391.069 386.731 392.663 374.935C394.617 360.476 402.733 351.897 416.141 350.118C420.187 349.582 422.338 348.668 424.394 346.612L427.174 343.832L426.907 368.022L426.639 392.213L339.389 392.468C291.401 392.609 252.139 392.387 252.139 391.974C252.139 391.562 266.404 376.954 283.839 359.513C319.154 324.185 319.425 323.797 312.783 318.083C306.502 312.681 307.467 311.949 265.152 354.213L226.605 392.713H213.872C197.859 392.713 192.468 399.861 257.238 335.21C319.978 272.585 320.319 272.155 311.98 266.314C305.932 262.078 308.708 259.683 239.636 328.723L175.597 392.734L130.618 392.473L85.6386 392.213L85.4086 235.713C85.1906 87.2087 85.2676 79.3247 86.9086 81.4117C88.8816 83.9187 93.0256 85.7027 96.9536 85.7347C106.705 85.8147 119.095 98.2517 119.129 107.995C119.157 115.934 124.747 120.791 131.247 118.526C134.62 117.35 137.132 112.868 137.149 107.995C137.183 98.2967 149.568 85.8167 159.24 85.7347C167.37 85.6657 172.249 80.1957 169.981 73.6907C168.777 70.2347 164.368 67.7297 159.421 67.6907C149.579 67.6127 137.183 55.2247 137.149 45.4307C137.132 40.5577 134.62 36.0757 131.247 34.8997C124.75 32.6357 119.18 37.4707 119.117 45.4307C119.04 55.2227 106.656 67.6677 96.9536 67.7027C93.0396 67.7167 88.8866 69.4997 86.9106 72.0137C85.2626 74.1117 85.1816 72.9217 85.1606 46.1297C85.1486 30.6837 85.4386 17.7457 85.8056 17.3797C86.5506 16.6337 337.139 16.4407 337.139 17.1857ZM132.374 72.7127L136.374 76.7127L132.257 80.8307L128.139 84.9477L124.029 80.8387L119.92 76.7287L123.779 72.7547C128.475 67.9187 127.584 67.9227 132.374 72.7127ZM46.9716 148.991L42.8986 152.944L38.8366 148.882L34.7756 144.82L38.6896 140.787L42.6046 136.754L46.8246 140.896L51.0456 145.038L46.9716 148.991ZM473.463 276.86L469.396 280.927L465.338 277.07L461.28 273.213L465.411 268.97L469.543 264.726L473.536 268.759L477.53 272.793L473.463 276.86ZM388.438 337.508L392.144 341.302L388.141 345.211L384.139 349.119L380.137 345.211L376.134 341.302L379.84 337.508C381.877 335.421 383.812 333.713 384.139 333.713C384.466 333.713 386.401 335.421 388.438 337.508Z" fill="#808080"/>
</svg>
