<svg width="513" height="507" viewBox="0 0 513 507" fill="none" xmlns="http://www.w3.org/2000/svg">
<path fill-rule="evenodd" clip-rule="evenodd" d="M192.639 0.949102C184.187 3.4821 182.996 7.3641 182.996 32.3891C182.996 48.1361 182.705 52.9261 181.746 52.9441C181.059 52.9561 161.213 56.2911 137.644 60.3551C83.09 69.7601 85.331 68.2401 89.531 92.9961C90.784 100.38 91.513 106.702 91.152 107.046C90.791 107.39 84.646 109.593 77.496 111.941C6.933 135.115 0.0110003 138.278 3.41746e-07 147.355C-0.00499966 151.45 54.857 303.907 57.331 306.671C61.386 311.202 69.996 307.93 69.996 301.858C69.996 300.872 57.826 266.228 42.951 224.871C28.077 183.514 16.096 149.488 16.326 149.258C17.658 147.926 93.726 122.302 94.351 122.975C94.579 123.22 107.218 196.089 122.438 284.905C151.615 455.165 150.605 450.074 155.894 453.634C160.413 456.676 154.272 457.447 233.254 443.919C271.794 437.319 303.433 432.031 303.563 432.169C303.782 432.402 140.054 491.421 139.189 491.421C138.975 491.421 129.177 464.646 117.414 431.921C105.652 399.196 92.569 362.804 88.34 351.05C83.984 338.942 79.778 328.864 78.635 327.8C74.849 324.272 68.239 326.428 66.553 331.741C66.046 333.338 120.065 486.327 125.692 499.23C130.786 510.912 130.072 511.051 206.496 483.514C429.442 403.185 402.081 410.921 463.247 410.921C505.109 410.921 506.292 410.764 509.97 404.731C512.321 400.876 513.256 71.7811 510.932 66.6791C509.531 63.6041 445.641 2.7751 442.174 1.2161C438.982 -0.219898 197.403 -0.477898 192.639 0.949102ZM427.012 41.1711C427.038 79.8211 426.044 78.9211 468.708 78.9211H496.996V237.421V395.921H347.496H197.996V320.994V246.066L195.361 243.994C191.312 240.809 186.2 241.983 184.106 246.578C182.133 250.909 182.583 399.248 184.582 403.461C188.071 410.814 183.38 410.364 262.3 410.921L333.104 411.421L249.049 425.836C202.818 433.764 164.829 440.064 164.63 439.836C163.952 439.062 103.095 82.4881 103.561 82.0221C103.88 81.7041 178.382 68.4641 182.746 67.9501C182.883 67.9341 182.996 101.385 182.996 142.286C182.996 226.381 182.572 221.921 190.569 221.921C198.619 221.921 197.996 230.723 197.996 116.921V15.9211H312.496H426.996L427.012 41.1711ZM479.809 56.6381L487.496 63.8541L464.996 63.6381L442.496 63.4211L442.226 42.0371L441.955 20.6521L457.039 35.0371C465.334 42.9481 475.581 52.6681 479.809 56.6381ZM239.461 109.873C234.373 111.935 233.014 118.383 236.857 122.227L239.051 124.421H349.11H459.169L461.583 121.615C465.334 117.254 464.462 112.828 459.312 110.084C456.726 108.707 242.845 108.501 239.461 109.873ZM237.149 164.671C233.487 167.77 233.373 171.451 236.83 174.909L239.868 177.947L350.021 177.684L460.173 177.421L462.084 175.06C464.561 172.002 464.507 168.841 461.923 165.556L459.851 162.921H349.534C245.925 162.921 239.092 163.027 237.149 164.671ZM238.225 216.59C233.663 218.426 233.556 227.545 238.067 229.959C239.187 230.558 281.218 230.921 349.476 230.921H459.087L461.541 228.466C464.67 225.338 464.67 221.504 461.541 218.376L459.087 215.921L349.291 216C288.904 216.043 238.924 216.309 238.225 216.59ZM236.83 271.933C233.535 275.228 233.502 278.591 236.729 282.171C238.213 283.818 244.848 283.921 349.078 283.921H459.851L461.923 281.286C464.507 278.001 464.561 274.84 462.084 271.782L460.173 269.421L350.021 269.158L239.868 268.895L236.83 271.933ZM236.484 324.934C233.73 327.977 234.137 332.786 237.385 335.579L240.108 337.921H348.618C429.196 337.921 457.69 337.622 459.312 336.758C464.293 334.105 465.289 329.834 461.923 325.556L459.851 322.921H349.078C239.339 322.921 238.289 322.94 236.484 324.934Z" fill="#0E385F"/>
</svg>
