<svg width="398" height="400" viewBox="0 0 398 400" fill="none" xmlns="http://www.w3.org/2000/svg">
<path fill-rule="evenodd" clip-rule="evenodd" d="M178.813 1.61129C60.0277 16.2523 -18.6513 123.423 3.83774 239.953C11.7817 281.12 38.9027 330.497 50.8507 325.548C57.9227 322.619 57.4307 318.554 48.3757 305.108C-73.9153 123.508 169.126 -83.5097 326.677 68.0563C488.884 224.101 273.366 482.138 91.6907 349.402C79.5667 340.545 66.4897 347.969 76.5307 358.009C127.74 409.218 241.692 413.574 310.525 366.952C481.464 251.175 382.443 -23.4857 178.813 1.61129ZM229.813 88.4503C217.82 92.3273 217.102 92.9623 159.224 150.909C97.6887 212.517 97.7167 212.484 93.4257 229.107C78.6707 286.26 136.512 333.61 189.313 307.604C199.999 302.341 199.034 303.233 257.23 244.805C313.297 188.514 311.793 190.384 305.424 184.906C299.721 180 301.678 178.38 243.892 235.846C199.518 279.974 189.268 289.675 184.232 292.314C137.636 316.734 90.0817 268.885 113.821 221.467C117.101 214.914 222.556 109.322 229.313 105.825C255.689 92.1723 284.08 119.244 272.563 147.064C270.168 152.85 168.962 255.627 163.198 258.127C155.156 261.615 145.12 252.597 147.269 243.814C147.719 241.973 165.115 223.859 199.877 189.033C254.732 134.077 253.926 135.026 250.212 129.723C247.763 126.227 244.238 125.268 240.445 127.068C235.549 129.392 136.522 229.108 133.693 234.564C122.157 256.809 148.574 283.91 170.813 272.645C176.262 269.885 278.09 168.802 283.216 161.064C308.095 123.512 272.225 74.7383 229.813 88.4503Z" fill="#0E385F"/>
</svg>
