<svg width="512" height="205" viewBox="0 0 512 205" fill="none" xmlns="http://www.w3.org/2000/svg">
<path fill-rule="evenodd" clip-rule="evenodd" d="M252.089 2.05309C211.706 6.69809 179.426 17.4391 136.752 40.4301L116.752 51.2051L106.532 51.8861C58.3365 55.0991 10.2365 75.8331 2.41353 96.7681C-0.00647116 103.244 -0.983471 163.305 1.26353 167.502C2.82453 170.418 8.53853 171.464 23.2515 171.525L36.7515 171.58L39.5745 177.539C57.0665 214.456 118.153 212.486 131.368 174.578L132.448 171.48H246.642H360.835L363.582 177.08C381.512 213.639 434.7 214.013 454.046 177.715C456.906 172.349 457.688 171.608 461.497 170.648C463.837 170.058 471.628 167.173 478.81 164.236C511.006 151.068 511.252 150.55 511.252 95.8801C511.252 47.0621 515.779 53.2241 475.693 47.4791L446.752 43.3311L435.252 36.9351C381.892 7.25709 315.976 -5.29591 252.089 2.05309ZM272.252 34.4801V51.4801L212.502 51.4001L152.752 51.3201L164.752 45.4031C194.718 30.6251 227.3 21.5291 260.983 18.5381C265.806 18.1091 270.315 17.6961 271.002 17.6191C271.958 17.5131 272.252 21.4721 272.252 34.4801ZM318.252 18.5301C342.778 20.7561 370.233 27.0731 391.683 35.4271L394.614 36.5681L387.208 44.0241L379.802 51.4801H334.527H289.252V34.4801V17.4801L298.002 17.4831C302.815 17.4851 311.927 17.9561 318.252 18.5301ZM418.531 47.6091C421.952 49.3301 428.246 52.7481 432.515 55.2051L440.279 59.6701L464.015 63.0511C497.957 67.8851 494.252 66.7891 494.252 71.9951V76.4201L481.502 76.7001L468.752 76.9801V85.4801V93.9801L481.502 94.2601L494.252 94.5401V113.042C494.252 139.053 493.994 139.496 474.258 147.478C459.977 153.253 460.252 153.199 460.252 150.19C460.252 91.2921 363.218 88.2081 358.502 146.956L357.978 153.48H323.615H289.252V110.98V68.4801H337.921H386.59L398.671 56.4911C405.315 49.8971 411.102 44.4971 411.531 44.4911C411.959 44.4851 415.109 45.8881 418.531 47.6091ZM272.252 110.98V153.48H204.313H136.375L135.751 148.73C128.014 89.8191 43.6175 87.5211 34.1895 145.964L32.9775 153.48H24.5225H16.0675L16.4095 129.73L16.7515 105.98L19.5055 101.295C26.9015 88.7131 65.7295 73.4641 100.252 69.5831C104.377 69.1191 144.764 68.6811 190.002 68.6101L272.252 68.4801V110.98ZM212.683 77.7991C212.394 78.5521 212.292 82.5001 212.455 86.5741L212.752 93.9801H229.752H246.752V85.4801V76.9801L229.98 76.7061C216.524 76.4861 213.104 76.7021 212.683 77.7991ZM96.2515 122.064C119.062 129.281 125.797 160.159 108.364 177.592C87.2615 198.694 51.1265 183.984 51.1115 154.285C51.0995 129.94 72.6115 114.584 96.2515 122.064ZM414.798 120.573C454.183 127.854 450.707 185.119 410.752 187.248C368.945 189.475 361.916 127.476 403.184 120.489C405.696 120.063 408.007 119.662 408.318 119.598C408.63 119.533 411.546 119.972 414.798 120.573Z" fill="#808080"/>
</svg>
