<svg width="707" height="367" viewBox="0 0 707 367" fill="none" xmlns="http://www.w3.org/2000/svg">
<path d="M694.91 366C699.53 348.33 713.91 283.93 701.61 206.2C687.16 114.63 594.81 35.9298 507.27 7.8298C419.73 -20.2702 298.48 88.1298 237.45 109C176.42 129.87 44.7198 137.12 18.2198 227.86C-4.41017 305.35 26.2198 353.56 35.6898 365.98L694.91 366Z" fill="#0987FF"/>
<path opacity="0.8" d="M694.91 366C699.53 348.33 713.91 283.93 701.61 206.2C687.16 114.63 594.81 35.9298 507.27 7.8298C419.73 -20.2702 298.48 88.1298 237.45 109C176.42 129.87 44.7198 137.12 18.2198 227.86C-4.41017 305.35 26.2198 353.56 35.6898 365.98L694.91 366Z" fill="white"/>
<path d="M183.67 211.71L199.75 206.28L207.79 214.88L223.03 203.56L229.38 208.09L238.26 198.58L261.11 220.76L264.92 212.16" stroke="#263238" stroke-linecap="round" stroke-linejoin="round"/>
<path d="M398.65 205.82L424.46 201.3L428.27 213.06L441.39 205.37L449.85 215.78L476.94 199.94L490.48 208.09L497.25 201.3" stroke="#263238" stroke-linecap="round" stroke-linejoin="round"/>
<path d="M593.999 366H686.619C684.839 354.67 677.559 356.67 676.619 339.11C676.129 330.27 684.309 319.33 683.619 307.72C683.029 298.15 673.619 288.34 672.869 277.4C672.209 267.52 680.259 256.57 679.479 245.92C678.739 235.86 669.179 226.2 668.329 215.75C667.499 205.54 675.389 194.47 674.459 184.16C673.529 173.85 663.799 164.37 662.769 154.16C661.709 143.7 669.329 132.45 668.169 122.44C666.929 111.82 656.909 102.65 655.549 92.8699C653.999 81.9999 661.119 70.3599 659.459 60.9999C657.459 49.4799 646.699 41.1399 644.459 32.6399C640.249 16.7999 640.779 1.53991 635.809 0.539914C630.509 -0.520086 629.299 14.4499 625.289 31.1799C623.289 39.5799 612.779 48.0899 611.049 59.6199C609.659 68.9599 617.049 80.3099 615.859 91.1599C614.769 100.88 604.999 110.22 604.049 120.78C603.159 130.71 611.049 141.67 610.309 152.05C609.549 162.15 600.069 171.78 599.419 182.05C598.769 192.32 606.939 203.05 606.419 213.17C605.849 223.55 596.539 233.35 596.059 243.33C595.559 253.89 603.889 264.54 603.489 274.33C603.039 285.19 593.859 295.13 593.489 304.62C593.079 316.14 601.489 326.77 601.279 335.54C600.719 354.54 591.999 350.63 591.689 365.95L593.999 366Z" fill="#0987FF"/>
<path opacity="0.3" d="M593.999 366H686.619C684.839 354.67 677.559 356.67 676.619 339.11C676.129 330.27 684.309 319.33 683.619 307.72C683.029 298.15 673.619 288.34 672.869 277.4C672.209 267.52 680.259 256.57 679.479 245.92C678.739 235.86 669.179 226.2 668.329 215.75C667.499 205.54 675.389 194.47 674.459 184.16C673.529 173.85 663.799 164.37 662.769 154.16C661.709 143.7 669.329 132.45 668.169 122.44C666.929 111.82 656.909 102.65 655.549 92.8699C653.999 81.9999 661.119 70.3599 659.459 60.9999C657.459 49.4799 646.699 41.1399 644.459 32.6399C640.249 16.7999 640.779 1.53991 635.809 0.539914C630.509 -0.520086 629.299 14.4499 625.289 31.1799C623.289 39.5799 612.779 48.0899 611.049 59.6199C609.659 68.9599 617.049 80.3099 615.859 91.1599C614.769 100.88 604.999 110.22 604.049 120.78C603.159 130.71 611.049 141.67 610.309 152.05C609.549 162.15 600.069 171.78 599.419 182.05C598.769 192.32 606.939 203.05 606.419 213.17C605.849 223.55 596.539 233.35 596.059 243.33C595.559 253.89 603.889 264.54 603.489 274.33C603.039 285.19 593.859 295.13 593.489 304.62C593.079 316.14 601.489 326.77 601.279 335.54C600.719 354.54 591.999 350.63 591.689 365.95L593.999 366Z" fill="white"/>
<path d="M633.78 30.9297V361.71" stroke="#263238" stroke-linecap="round" stroke-linejoin="round"/>
<path d="M648.24 65.6097L633.16 78.6297L620.82 62.1797" stroke="#263238" stroke-linecap="round" stroke-linejoin="round"/>
<path d="M648.24 123.18L633.16 136.21L620.82 119.76" stroke="#263238" stroke-linecap="round" stroke-linejoin="round"/>
<path d="M648.24 177.33L633.16 190.35L620.82 173.9" stroke="#263238" stroke-linecap="round" stroke-linejoin="round"/>
<path d="M648.24 241.76L633.16 254.78L620.82 238.33" stroke="#263238" stroke-linecap="round" stroke-linejoin="round"/>
<path d="M648.24 306.87L633.16 319.89L620.82 303.44" stroke="#263238" stroke-linecap="round" stroke-linejoin="round"/>
<path d="M506.7 366H575.89C574.56 357.54 569.13 359 568.41 345.91C568.04 339.31 574.15 331.14 573.63 322.46C573.19 315.31 566.14 307.98 565.63 299.81C565.13 292.43 571.15 284.24 570.56 276.29C570.01 268.77 562.87 261.56 562.24 253.75C561.62 246.13 567.51 237.85 566.82 230.15C566.13 222.45 558.82 215.36 558.08 207.77C557.29 199.96 562.99 191.55 562.08 184.07C561.16 176.14 553.67 169.29 552.66 161.98C551.53 153.84 556.83 145.15 555.59 138.12C554.07 129.51 546.06 123.28 544.37 116.93C541.23 105.1 541.62 93.6901 537.91 92.9301C533.91 92.1401 533.05 103.32 530.05 115.82C528.54 122.09 520.7 128.45 519.42 137.07C518.42 144.07 523.91 152.52 523 160.63C522.19 167.89 514.9 174.87 514.19 182.76C513.52 190.18 519.44 198.36 518.86 206.12C518.29 213.66 511.21 220.86 510.72 228.52C510.23 236.18 516.34 244.2 515.92 251.77C515.49 259.52 508.54 266.84 508.19 274.3C507.81 282.19 514.04 290.15 513.73 297.47C513.4 305.58 506.54 313.01 506.29 320.1C505.98 328.7 512.29 336.65 512.11 343.2C511.68 357.42 505.17 354.47 504.94 365.92L506.7 366Z" fill="#0987FF"/>
<path opacity="0.3" d="M506.7 366H575.89C574.56 357.54 569.13 359 568.41 345.91C568.04 339.31 574.15 331.14 573.63 322.46C573.19 315.31 566.14 307.98 565.63 299.81C565.13 292.43 571.15 284.24 570.56 276.29C570.01 268.77 562.87 261.56 562.24 253.75C561.62 246.13 567.51 237.85 566.82 230.15C566.13 222.45 558.82 215.36 558.08 207.77C557.29 199.96 562.99 191.55 562.08 184.07C561.16 176.14 553.67 169.29 552.66 161.98C551.53 153.84 556.83 145.15 555.59 138.12C554.07 129.51 546.06 123.28 544.37 116.93C541.23 105.1 541.62 93.6901 537.91 92.9301C533.91 92.1401 533.05 103.32 530.05 115.82C528.54 122.09 520.7 128.45 519.42 137.07C518.42 144.07 523.91 152.52 523 160.63C522.19 167.89 514.9 174.87 514.19 182.76C513.52 190.18 519.44 198.36 518.86 206.12C518.29 213.66 511.21 220.86 510.72 228.52C510.23 236.18 516.34 244.2 515.92 251.77C515.49 259.52 508.54 266.84 508.19 274.3C507.81 282.19 514.04 290.15 513.73 297.47C513.4 305.58 506.54 313.01 506.29 320.1C505.98 328.7 512.29 336.65 512.11 343.2C511.68 357.42 505.17 354.47 504.94 365.92L506.7 366Z" fill="white"/>
<path d="M536.4 115.67V362.79" stroke="#263238" stroke-linecap="round" stroke-linejoin="round"/>
<path d="M547.21 141.58L535.94 151.31L526.72 139.02" stroke="#263238" stroke-linecap="round" stroke-linejoin="round"/>
<path d="M547.21 184.59L535.94 194.32L526.72 182.03" stroke="#263238" stroke-linecap="round" stroke-linejoin="round"/>
<path d="M547.21 225.04L535.94 234.77L526.72 222.48" stroke="#263238" stroke-linecap="round" stroke-linejoin="round"/>
<path d="M547.21 273.18L535.94 282.91L526.72 270.62" stroke="#263238" stroke-linecap="round" stroke-linejoin="round"/>
<path d="M547.21 321.82L535.94 331.55L526.72 319.26" stroke="#263238" stroke-linecap="round" stroke-linejoin="round"/>
<path d="M49.26 366H99.59C98.59 359.85 94.67 360.93 94.14 351.39C93.88 346.59 98.32 340.65 97.94 334.33C97.62 329.14 92.5 323.81 92.1 317.86C91.74 312.5 96.1 306.54 95.69 300.76C95.29 295.29 90.09 290.05 89.63 284.36C89.19 278.82 93.47 272.8 92.96 267.2C92.45 261.6 87.17 256.45 86.61 250.92C86.05 245.39 90.18 239.13 89.55 233.69C88.87 227.92 83.43 222.94 82.69 217.62C81.87 211.7 85.69 205.38 84.82 200.27C83.72 194.01 77.89 189.48 76.66 184.86C74.38 176.25 74.66 167.96 71.97 167.42C69.09 166.84 68.43 174.97 66.25 184.06C65.15 188.63 59.45 193.25 58.51 199.52C57.76 204.59 61.78 210.76 61.12 216.66C60.53 221.93 55.23 227.01 54.71 232.75C54.22 238.14 58.53 244.1 58.11 249.75C57.7 255.23 52.55 260.47 52.19 266.04C51.83 271.61 56.28 277.45 55.97 282.95C55.66 288.45 50.61 293.95 50.35 299.34C50.07 305.07 54.6 310.86 54.35 316.18C54.11 322.08 49.12 327.49 48.94 332.64C48.71 338.9 53.31 344.64 53.17 349.44C52.86 359.78 48.17 357.64 47.96 365.96L49.26 366Z" fill="#0987FF"/>
<path opacity="0.3" d="M49.26 366H99.59C98.59 359.85 94.67 360.93 94.14 351.39C93.88 346.59 98.32 340.65 97.94 334.33C97.62 329.14 92.5 323.81 92.1 317.86C91.74 312.5 96.1 306.54 95.69 300.76C95.29 295.29 90.09 290.05 89.63 284.36C89.19 278.82 93.47 272.8 92.96 267.2C92.45 261.6 87.17 256.45 86.61 250.92C86.05 245.39 90.18 239.13 89.55 233.69C88.87 227.92 83.43 222.94 82.69 217.62C81.87 211.7 85.69 205.38 84.82 200.27C83.72 194.01 77.89 189.48 76.66 184.86C74.38 176.25 74.66 167.96 71.97 167.42C69.09 166.84 68.43 174.97 66.25 184.06C65.15 188.63 59.45 193.25 58.51 199.52C57.76 204.59 61.78 210.76 61.12 216.66C60.53 221.93 55.23 227.01 54.71 232.75C54.22 238.14 58.53 244.1 58.11 249.75C57.7 255.23 52.55 260.47 52.19 266.04C51.83 271.61 56.28 277.45 55.97 282.95C55.66 288.45 50.61 293.95 50.35 299.34C50.07 305.07 54.6 310.86 54.35 316.18C54.11 322.08 49.12 327.49 48.94 332.64C48.71 338.9 53.31 344.64 53.17 349.44C52.86 359.78 48.17 357.64 47.96 365.96L49.26 366Z" fill="white"/>
<path d="M70.8701 183.94V363.66" stroke="#263238" stroke-linecap="round" stroke-linejoin="round"/>
<path d="M78.7201 202.78L70.5301 209.85L63.8301 200.92" stroke="#263238" stroke-linecap="round" stroke-linejoin="round"/>
<path d="M78.7201 234.06L70.5301 241.14L63.8301 232.2" stroke="#263238" stroke-linecap="round" stroke-linejoin="round"/>
<path d="M78.7201 263.48L70.5301 270.56L63.8301 261.62" stroke="#263238" stroke-linecap="round" stroke-linejoin="round"/>
<path d="M78.7201 298.49L70.5301 305.56L63.8301 296.63" stroke="#263238" stroke-linecap="round" stroke-linejoin="round"/>
<path d="M78.7201 333.87L70.5301 340.94L63.8301 332" stroke="#263238" stroke-linecap="round" stroke-linejoin="round"/>
<path d="M57.9997 73.6502C56.9997 72.6502 55.2897 71.6501 52.3097 71.6001C45.6197 71.4401 47.4097 76.1801 45.6197 77.3201C43.8297 78.4601 43.3297 76.6701 41.5297 77.8101C39.7297 78.9501 40.5297 81.2401 39.0797 81.5701C37.6297 81.9001 35.6497 80.1001 33.8497 81.2401C32.0497 82.3801 32.0597 83.3601 31.2397 83.3601C30.4197 83.3601 28.7897 82.7101 27.8097 83.3601C26.8297 84.0101 25.6797 84.8302 25.6797 84.8302H43.2397" stroke="#263238" stroke-linecap="round" stroke-linejoin="round"/>
<path d="M59.86 76.5701L59.35 76.3401C59.2705 75.7316 59.0662 75.1461 58.75 74.6201" stroke="#263238" stroke-linecap="round" stroke-linejoin="round"/>
<path d="M45.4795 84.8298H66.9995C67.1148 84.332 67.0455 83.8093 66.8046 83.3587C66.5637 82.9082 66.1675 82.5603 65.6895 82.3798C63.8895 81.3798 63.0795 82.2198 62.4195 81.3798C61.7595 80.5398 63.7195 78.8898 60.6795 77.0098" stroke="#263238" stroke-linecap="round" stroke-linejoin="round"/>
<path d="M158.37 84.8299H201.09C201.09 84.8299 202.55 80.4699 197.21 77.5599C191.87 74.6499 189.45 77.0699 187.51 74.6399C185.57 72.2099 192.84 65.9099 178.29 59.6399C178.29 59.6399 177.29 46.0599 157.42 45.5699C148.84 45.3599 144.95 47.8599 142.88 51.0499" stroke="#263238" stroke-linecap="round" stroke-linejoin="round"/>
<path d="M145.33 84.8301H152.45" stroke="#263238" stroke-linecap="round" stroke-linejoin="round"/>
<path d="M132.89 84.8298H78.3301C78.3301 84.8298 81.7301 82.4097 84.6401 80.4697C87.5501 78.5297 92.4001 80.4697 94.8301 80.4697C97.2601 80.4697 97.2501 77.5598 102.59 74.1598C107.93 70.7598 113.75 76.0998 118.12 75.1598C122.49 74.2198 120.06 67.3997 125.4 63.9997C130.74 60.5997 132.19 65.9397 137.53 62.5397C139.02 61.5397 139.68 59.8097 140.29 57.7397" stroke="#263238" stroke-linecap="round" stroke-linejoin="round"/>
<path d="M552.769 84.8298H579.219C579.219 84.8298 580.129 82.1298 576.819 80.3298C573.509 78.5298 572.009 80.0298 570.819 78.5198C569.629 77.0098 574.129 73.1198 565.109 69.2098C565.109 69.2098 564.509 60.7998 552.189 60.4998C546.879 60.3698 544.469 61.9198 543.189 63.8898" stroke="#263238" stroke-linecap="round" stroke-linejoin="round"/>
<path d="M544.699 84.8301H549.099" stroke="#263238" stroke-linecap="round" stroke-linejoin="round"/>
<path d="M541.57 68C541.389 69.1742 540.784 70.2414 539.87 71C536.56 73.11 535.66 69.8 532.35 71.9C529.04 74 530.55 78.21 527.85 78.82C525.15 79.43 521.54 76.11 518.23 78.21C514.92 80.31 514.93 82.12 513.43 82.12C511.93 82.12 508.92 80.92 507.12 82.12C505.32 83.32 503.21 84.82 503.21 84.82H537" stroke="#263238" stroke-linecap="round" stroke-linejoin="round"/>
<path d="M414.439 167.7H440.889C440.889 167.7 441.789 165 438.489 163.2C435.189 161.4 433.679 162.9 432.489 161.39C431.299 159.88 435.789 155.98 426.779 152.08C426.779 152.08 426.179 143.67 413.859 143.37C408.549 143.24 406.139 144.79 404.859 146.76" stroke="#263238" stroke-linecap="round" stroke-linejoin="round"/>
<path d="M406.37 167.7H410.77" stroke="#263238" stroke-linecap="round" stroke-linejoin="round"/>
<path d="M403.24 150.91C403.053 152.085 402.445 153.151 401.53 153.91C398.23 156.01 397.33 152.71 394.02 154.81C390.71 156.91 392.22 161.12 389.51 161.72C386.8 162.32 383.21 159.02 379.9 161.12C376.59 163.22 376.6 165.03 375.09 165.03C373.58 165.03 370.59 163.83 368.78 165.03C366.97 166.23 364.88 167.73 364.88 167.73H398.66" stroke="#263238" stroke-linecap="round" stroke-linejoin="round"/>
<path d="M195.279 366H200.119V346.47C200.217 342.807 201.741 339.327 204.366 336.771C206.991 334.215 210.51 332.785 214.174 332.785C217.838 332.785 221.358 334.215 223.983 336.771C226.608 339.327 228.132 342.807 228.229 346.47V366H233.069V346.47C232.956 341.534 230.915 336.838 227.384 333.387C223.853 329.936 219.112 328.004 214.174 328.004C209.237 328.004 204.496 329.936 200.965 333.387C197.433 336.838 195.393 341.534 195.279 346.47V366Z" fill="#BDBDBD" stroke="#263238" stroke-miterlimit="10"/>
<path d="M154.099 357.4H185.779L185.779 127.09H154.099L154.099 357.4Z" fill="#919191" stroke="#263238" stroke-miterlimit="10"/>
<path d="M154.1 357.4H167.96L167.96 127.09H154.1L154.1 357.4Z" fill="white" stroke="#263238" stroke-miterlimit="10"/>
<path d="M154.099 143.33H185.779V125.1H154.099V143.33Z" fill="#263238" stroke="#263238" stroke-miterlimit="10"/>
<path d="M154.1 143.33H167.96V125.1H154.1V143.33Z" fill="#263238" stroke="#263238" stroke-miterlimit="10"/>
<path d="M89.5498 357.79H158.76V355.69H89.5498V357.79Z" fill="white" stroke="#263238" stroke-miterlimit="10"/>
<path d="M89.5496 357.79H106.6V355.69H89.5496V357.79Z" fill="white" stroke="#263238" stroke-miterlimit="10"/>
<path d="M79.63 365.98H266.29V357.56H79.63V365.98Z" fill="#919191" stroke="#263238" stroke-miterlimit="10"/>
<path d="M79.6199 365.98H102.63V357.56H79.6199V365.98Z" fill="#BDBDBD" stroke="#263238" stroke-miterlimit="10"/>
<path d="M487.08 366H491.92V346.47C491.92 342.743 493.4 339.17 496.035 336.535C498.67 333.9 502.244 332.42 505.97 332.42C509.696 332.42 513.27 333.9 515.905 336.535C518.54 339.17 520.02 342.743 520.02 346.47V366H524.86V346.47C524.86 341.46 522.87 336.655 519.327 333.112C515.785 329.57 510.98 327.58 505.97 327.58C500.96 327.58 496.155 329.57 492.613 333.112C489.07 336.655 487.08 341.46 487.08 346.47V366Z" fill="#BDBDBD" stroke="#263238" stroke-miterlimit="10"/>
<path d="M445.889 357.4H477.569V127.09H445.889V357.4Z" fill="#919191" stroke="#263238" stroke-miterlimit="10"/>
<path d="M445.89 357.4H459.75V127.09H445.89V357.4Z" fill="white" stroke="#263238" stroke-miterlimit="10"/>
<path d="M445.889 145.32H477.569V127.09H445.889V145.32Z" fill="#263238" stroke="#263238" stroke-miterlimit="10"/>
<path d="M445.89 145.32H459.75V127.09H445.89V145.32Z" fill="#263238" stroke="#263238" stroke-miterlimit="10"/>
<path d="M381.34 357.79H450.55V355.69H381.34V357.79Z" fill="white" stroke="#263238" stroke-miterlimit="10"/>
<path d="M381.34 357.79H398.39V355.69H381.34V357.79Z" fill="white" stroke="#263238" stroke-miterlimit="10"/>
<path d="M327.869 365.98H514.529V357.56H327.869V365.98Z" fill="#919191" stroke="#263238" stroke-miterlimit="10"/>
<path d="M327.87 365.98H350.88V357.56H327.87V365.98Z" fill="#BDBDBD" stroke="#263238" stroke-miterlimit="10"/>
<path d="M552.83 96.0698H187.85V134.34H552.83V96.0698Z" fill="#263238" stroke="#263238" stroke-miterlimit="10"/>
<path d="M49.9301 134.34L350.04 134.34V96.0699L49.9301 96.0699V134.34Z" fill="#0987FF" stroke="#263238" stroke-linecap="round" stroke-linejoin="round"/>
<path d="M349.999 134.34V97.73L265.129 119C253.189 121.997 240.613 121.225 229.129 116.79L210.569 109.64C202.019 106.343 192.684 105.647 183.739 107.64L63.7393 134.31L349.999 134.34Z" fill="#919191" stroke="#263238" stroke-miterlimit="10"/>
<path d="M181.22 297.15H180.79C180.355 297.15 179.927 297.046 179.54 296.848C179.153 296.65 178.818 296.363 178.563 296.011C178.309 295.659 178.141 295.251 178.075 294.822C178.008 294.392 178.044 293.953 178.18 293.54C178.73 291.85 179.66 290.14 181.18 289.88C184.42 289.34 193.32 292.03 193.32 293.88C193.32 295.73 193.32 296.57 192.24 296.57H185.5L180.11 302.51L179.99 302.41C179.712 302.176 179.489 301.885 179.336 301.555C179.183 301.226 179.103 300.868 179.103 300.505C179.103 300.142 179.183 299.783 179.336 299.454C179.489 299.125 179.712 298.834 179.99 298.6C180.484 298.194 180.901 297.703 181.22 297.15V297.15Z" fill="#263238" stroke="#263238" stroke-linecap="round" stroke-linejoin="round"/>
<path d="M242.15 347.3H331.65C331.65 347.3 344.59 338.67 341.89 316.02C339.19 293.37 324.64 308.48 319.25 323.57H279.35C279.35 323.57 270.72 306.32 256.71 308.48C242.7 310.64 242.15 347.3 242.15 347.3Z" fill="#263238" stroke="#263238" stroke-linecap="round" stroke-linejoin="round"/>
<path d="M264.14 342.81C264.267 336.811 262.538 330.919 259.19 325.94V319.64H248.4C239.7 319.64 232.65 330.01 232.65 342.81C232.65 355.61 239.7 366 248.4 366H259.19V359.7C262.542 354.715 264.271 348.816 264.14 342.81V342.81Z" fill="#263238" stroke="#263238" stroke-linecap="round" stroke-linejoin="round"/>
<path d="M259.19 365.98C267.883 365.98 274.93 355.607 274.93 342.81C274.93 330.014 267.883 319.64 259.19 319.64C250.497 319.64 243.45 330.014 243.45 342.81C243.45 355.607 250.497 365.98 259.19 365.98Z" fill="#263238"/>
<path opacity="0.2" d="M259.19 365.98C267.883 365.98 274.93 355.607 274.93 342.81C274.93 330.014 267.883 319.64 259.19 319.64C250.497 319.64 243.45 330.014 243.45 342.81C243.45 355.607 250.497 365.98 259.19 365.98Z" fill="white" stroke="#263238" stroke-linecap="round" stroke-linejoin="round"/>
<path d="M259.19 365.98C267.883 365.98 274.93 355.607 274.93 342.81C274.93 330.014 267.883 319.64 259.19 319.64C250.497 319.64 243.45 330.014 243.45 342.81C243.45 355.607 250.497 365.98 259.19 365.98Z" stroke="#263238" stroke-linecap="round" stroke-linejoin="round"/>
<path d="M166.881 319.64H156.691C148.471 319.64 141.811 330.01 141.811 342.81C141.811 355.61 148.471 366 156.691 366H166.881C175.101 366 181.761 355.63 181.761 342.83C181.761 330.03 175.101 319.64 166.881 319.64Z" fill="#263238" stroke="#263238" stroke-linecap="round" stroke-linejoin="round"/>
<path d="M259.19 361.3C266.127 361.3 271.75 353.022 271.75 342.81C271.75 332.598 266.127 324.32 259.19 324.32C252.253 324.32 246.63 332.598 246.63 342.81C246.63 353.022 252.253 361.3 259.19 361.3Z" fill="white" stroke="#263238" stroke-linecap="round" stroke-linejoin="round"/>
<path d="M337.87 342.81C337.993 337.03 336.92 331.287 334.72 325.94V319.64H325.19C319.65 319.64 315.19 330.01 315.19 342.81C315.19 355.61 319.67 365.98 325.19 365.98H334.72V359.68C336.92 354.334 337.993 348.59 337.87 342.81V342.81Z" fill="#263238" stroke="#263238" stroke-linecap="round" stroke-linejoin="round"/>
<path d="M334.72 365.98C340.254 365.98 344.74 355.607 344.74 342.81C344.74 330.014 340.254 319.64 334.72 319.64C329.186 319.64 324.7 330.014 324.7 342.81C324.7 355.607 329.186 365.98 334.72 365.98Z" fill="#263238"/>
<path opacity="0.2" d="M334.72 365.98C340.254 365.98 344.74 355.607 344.74 342.81C344.74 330.014 340.254 319.64 334.72 319.64C329.186 319.64 324.7 330.014 324.7 342.81C324.7 355.607 329.186 365.98 334.72 365.98Z" fill="white" stroke="#263238" stroke-linecap="round" stroke-linejoin="round"/>
<path d="M334.72 365.98C340.254 365.98 344.74 355.607 344.74 342.81C344.74 330.014 340.254 319.64 334.72 319.64C329.186 319.64 324.7 330.014 324.7 342.81C324.7 355.607 329.186 365.98 334.72 365.98Z" stroke="#263238" stroke-linecap="round" stroke-linejoin="round"/>
<path d="M342.71 342.81C342.71 353.02 339.13 361.3 334.71 361.3C330.29 361.3 326.71 353.02 326.71 342.81C326.71 332.6 330.29 324.32 334.71 324.32C339.13 324.32 342.71 332.6 342.71 342.81Z" fill="white" stroke="#263238" stroke-linecap="round" stroke-linejoin="round"/>
<path d="M245.92 348.47C245.92 330.01 252.34 315.04 260.25 315.04C268.16 315.04 274.58 330.04 274.58 348.47C274.58 349.47 274.58 350.47 274.52 351.47H325.57C325.57 350.47 325.52 349.47 325.52 348.47C325.52 330 330.2 315 336 315C339.85 315 343.21 321.69 345 331.63V304.4C345.002 303.157 344.567 301.953 343.773 300.997C342.978 300.041 341.873 299.395 340.65 299.17L340.4 299.12C336.87 298.41 330.5 291.69 320.59 283.2C310.68 274.71 301.84 274 301.84 274H212.44C210.751 274.001 209.109 274.56 207.77 275.59L177.29 299.12C177.29 299.12 150 304.42 144 310.44C138 316.46 138.69 351.44 138.69 351.44H246C245.94 350.49 245.92 349.49 245.92 348.47Z" fill="white" stroke="#263238" stroke-linecap="round" stroke-linejoin="round"/>
<path d="M279.89 274H212.44C210.751 274.001 209.109 274.56 207.77 275.59L177.29 299.12H263.61L279.89 274Z" fill="white" stroke="#263238" stroke-linecap="round" stroke-linejoin="round"/>
<path d="M244.56 308.58C239.7 308.64 231.21 308.96 227.56 310.44C224.515 311.64 221.561 313.057 218.72 314.68H236L244.56 308.58Z" fill="#263238" stroke="#263238" stroke-linecap="round" stroke-linejoin="round"/>
<path d="M237.08 320V316.82H218.68L222.01 319.89C221.956 319.922 221.906 319.959 221.86 320H237.08Z" fill="#263238" stroke="#263238" stroke-linecap="round" stroke-linejoin="round"/>
<path d="M238.851 315.39V320C239.565 319.937 240.254 319.71 240.866 319.337C241.479 318.964 241.997 318.455 242.381 317.85C244.151 315.02 248.131 308.56 248.131 308.56L238.851 315.39Z" fill="#263238" stroke="#263238" stroke-linecap="round" stroke-linejoin="round"/>
<path d="M145.74 319.88L149.07 316.81H141.22C140.98 317.81 140.75 318.87 140.55 319.99H145.89C145.843 319.949 145.793 319.912 145.74 319.88Z" fill="#263238" stroke="#263238" stroke-linecap="round" stroke-linejoin="round"/>
<path d="M143.11 311.66C142.575 312.612 142.143 313.617 141.82 314.66H149.07C147.138 313.556 145.148 312.555 143.11 311.66V311.66Z" fill="#263238" stroke="#263238" stroke-linecap="round" stroke-linejoin="round"/>
<path d="M263.61 299.12H316C316 299.12 323.43 296.64 321.31 287.44C320.59 284.32 305.74 277.18 303.62 277.18H278.12L263.61 299.12Z" fill="#263238"/>
<path opacity="0.2" d="M263.61 299.12H316C316 299.12 323.43 296.64 321.31 287.44C320.59 284.32 305.74 277.18 303.62 277.18H278.12L263.61 299.12Z" fill="white" stroke="#263238" stroke-linecap="round" stroke-linejoin="round"/>
<path d="M263.61 299.12H316C316 299.12 323.43 296.64 321.31 287.44C320.59 284.32 305.74 277.18 303.62 277.18H278.12L263.61 299.12Z" stroke="#263238" stroke-linecap="round" stroke-linejoin="round"/>
<path d="M205.71 277.18L177.28 299.12H263.61L277.82 277.18H205.71Z" fill="#263238" stroke="#263238" stroke-linecap="round" stroke-linejoin="round"/>
<path d="M150.4 315.39V322.82L155.7 326.71H198.51L208.42 322.47V315.39H150.4Z" fill="#263238" stroke="#263238" stroke-linecap="round" stroke-linejoin="round"/>
<path opacity="0.3" d="M152.38 315.39H150.4V317.37H152.38V315.39Z" fill="white" stroke="#263238" stroke-linecap="round" stroke-linejoin="round"/>
<path opacity="0.3" d="M154.56 317.58H152.58V319.56H154.56V317.58Z" fill="white" stroke="#263238" stroke-linecap="round" stroke-linejoin="round"/>
<path opacity="0.3" d="M156.751 319.77H154.771V321.75H156.751V319.77Z" fill="white" stroke="#263238" stroke-linecap="round" stroke-linejoin="round"/>
<path opacity="0.3" d="M158.94 321.95H156.96V323.93H158.94V321.95Z" fill="white" stroke="#263238" stroke-linecap="round" stroke-linejoin="round"/>
<path opacity="0.3" d="M208.03 315.39H206.05V317.37H208.03V315.39Z" fill="white" stroke="#263238" stroke-linecap="round" stroke-linejoin="round"/>
<path opacity="0.3" d="M205.84 317.58H203.86V319.56H205.84V317.58Z" fill="white" stroke="#263238" stroke-linecap="round" stroke-linejoin="round"/>
<path opacity="0.3" d="M203.65 319.77H201.67V321.75H203.65V319.77Z" fill="white" stroke="#263238" stroke-linecap="round" stroke-linejoin="round"/>
<path opacity="0.3" d="M201.47 321.95H199.49V323.93H201.47V321.95Z" fill="white" stroke="#263238" stroke-linecap="round" stroke-linejoin="round"/>
<path opacity="0.3" d="M161.98 321.95H160V323.93H161.98V321.95Z" fill="white" stroke="#263238" stroke-linecap="round" stroke-linejoin="round"/>
<path opacity="0.3" d="M165.01 321.95H163.03V323.93H165.01V321.95Z" fill="white" stroke="#263238" stroke-linecap="round" stroke-linejoin="round"/>
<path opacity="0.3" d="M168.05 321.95H166.07V323.93H168.05V321.95Z" fill="white" stroke="#263238" stroke-linecap="round" stroke-linejoin="round"/>
<path opacity="0.3" d="M171.09 321.95H169.11V323.93H171.09V321.95Z" fill="white" stroke="#263238" stroke-linecap="round" stroke-linejoin="round"/>
<path opacity="0.3" d="M174.13 321.95H172.15V323.93H174.13V321.95Z" fill="white" stroke="#263238" stroke-linecap="round" stroke-linejoin="round"/>
<path opacity="0.3" d="M177.16 321.95H175.18V323.93H177.16V321.95Z" fill="white" stroke="#263238" stroke-linecap="round" stroke-linejoin="round"/>
<path opacity="0.3" d="M180.2 321.95H178.22V323.93H180.2V321.95Z" fill="white" stroke="#263238" stroke-linecap="round" stroke-linejoin="round"/>
<path opacity="0.3" d="M183.24 321.95H181.26V323.93H183.24V321.95Z" fill="white" stroke="#263238" stroke-linecap="round" stroke-linejoin="round"/>
<path opacity="0.3" d="M186.28 321.95H184.3V323.93H186.28V321.95Z" fill="white" stroke="#263238" stroke-linecap="round" stroke-linejoin="round"/>
<path opacity="0.3" d="M189.32 321.95H187.34V323.93H189.32V321.95Z" fill="white" stroke="#263238" stroke-linecap="round" stroke-linejoin="round"/>
<path opacity="0.3" d="M192.35 321.95H190.37V323.93H192.35V321.95Z" fill="white" stroke="#263238" stroke-linecap="round" stroke-linejoin="round"/>
<path opacity="0.3" d="M195.39 321.95H193.41V323.93H195.39V321.95Z" fill="white" stroke="#263238" stroke-linecap="round" stroke-linejoin="round"/>
<path opacity="0.3" d="M198.43 321.95H196.45V323.93H198.43V321.95Z" fill="white" stroke="#263238" stroke-linecap="round" stroke-linejoin="round"/>
<path d="M228.941 335.91H140.84L139.661 326.47C139.121 331.66 138.881 337.19 138.771 341.73L139.081 342.99L140.84 339.45H148.4L143.68 343.34H213.68L211.171 339.45H228.891L233.84 342.28H237.381V324.28L228.941 335.91Z" fill="#263238" stroke="#263238" stroke-linecap="round" stroke-linejoin="round"/>
<path d="M298.13 299.12H301.08C300.77 294.78 299.53 285.22 294.67 277.18H291.67C293.42 280.88 297.46 290.41 298.13 299.12Z" fill="#263238" stroke="#263238" stroke-linecap="round" stroke-linejoin="round"/>
<path d="M234.33 283.14L235.41 286.14C234.081 287.41 233.305 289.152 233.25 290.99V299.16H226.62L232.17 283.16L234.33 283.14ZM203.33 287.14C198.78 289.91 191.9 296.02 188.57 299.08H210.73L222.2 281.48L214.65 282.02C210.668 283.238 206.862 284.973 203.33 287.18V287.14ZM249.16 285L246.46 284.46H242.69L241.61 285.54C241.61 285.54 244.31 285.81 244.61 287.43C244.796 289.04 244.886 290.659 244.88 292.28H246.77C246.77 292.28 246.77 289.28 248.12 287.97C248.883 287.199 249.695 286.477 250.55 285.81L249.16 285Z" fill="#525252" stroke="#263238" stroke-linecap="round" stroke-linejoin="round"/>
<path d="M282.05 297.15H281.61C281.176 297.15 280.747 297.046 280.36 296.848C279.973 296.65 279.638 296.363 279.384 296.011C279.129 295.659 278.961 295.251 278.895 294.822C278.828 294.392 278.864 293.953 279 293.54C279.55 291.85 280.48 290.14 282.05 289.88C285.28 289.34 294.18 292.03 294.18 293.88C294.18 295.73 294.18 296.57 293.1 296.57H286.36L281 302.55L280.88 302.45C280.603 302.216 280.379 301.925 280.226 301.595C280.073 301.266 279.994 300.908 279.994 300.545C279.994 300.182 280.073 299.823 280.226 299.494C280.379 299.165 280.603 298.874 280.88 298.64C281.351 298.212 281.746 297.709 282.05 297.15V297.15Z" fill="white" stroke="#263238" stroke-linecap="round" stroke-linejoin="round"/>
<path d="M280.85 302.45L280.97 302.55L286.36 296.61H293.1C293.99 296.61 294.1 296.05 294.17 294.79H278.9C278.99 295.445 279.314 296.045 279.812 296.479C280.311 296.913 280.95 297.151 281.61 297.15H282.05C281.738 297.711 281.332 298.215 280.85 298.64C280.573 298.874 280.349 299.165 280.196 299.494C280.043 299.824 279.964 300.182 279.964 300.545C279.964 300.908 280.043 301.267 280.196 301.596C280.349 301.925 280.573 302.216 280.85 302.45V302.45Z" fill="#263238" stroke="#263238" stroke-linecap="round" stroke-linejoin="round"/>
<path d="M297.5 305.63H291.43V306.93H297.5V305.63Z" fill="#263238" stroke="#263238" stroke-linecap="round" stroke-linejoin="round"/>
<path d="M324.8 305.63H318.73V306.93H324.8V305.63Z" fill="#263238" stroke="#263238" stroke-linecap="round" stroke-linejoin="round"/>
<path d="M325.23 300.43C325.23 300.43 329.62 303.43 332.17 313.87C332.17 313.87 321.33 315.17 321.33 345.07" stroke="#263238" stroke-linecap="round" stroke-linejoin="round"/>
<path d="M320 346.37H274.55C274.55 347.037 274.55 347.737 274.55 348.47C274.55 349.47 274.55 350.47 274.49 351.47H325.54C325.54 350.47 325.49 349.47 325.49 348.47C325.49 348.4 325.49 348.33 325.49 348.26L320 346.37Z" fill="#263238" stroke="#263238" stroke-linecap="round" stroke-linejoin="round"/>
<path d="M245.92 348.47C245.92 347.77 245.92 347.07 245.92 346.37H138.7C138.7 349.49 138.7 351.48 138.7 351.48H246C245.94 350.49 245.92 349.49 245.92 348.47Z" fill="#263238" stroke="#263238" stroke-linecap="round" stroke-linejoin="round"/>
<path d="M343.08 303C342.54 303 342.01 303.14 341.541 303.407C341.072 303.674 340.681 304.059 340.405 304.523C340.13 304.987 339.98 305.515 339.97 306.054C339.961 306.594 340.091 307.126 340.35 307.6L344.98 316.09V304.4C344.974 303.936 344.907 303.476 344.78 303.03H343.08V303Z" fill="#263238" stroke="#263238" stroke-linecap="round" stroke-linejoin="round"/>
<path d="M301.46 303.62C301.46 303.62 311.16 317.62 301.46 341.36" stroke="#263238" stroke-linecap="round" stroke-linejoin="round"/>
<path d="M645.609 320.8C647.159 321.48 650.969 321.39 650.979 321.39C650.989 321.39 650.159 318.9 650.089 318.75C649.249 317 646.609 314.11 644.459 314.41C644.104 314.467 643.765 314.599 643.464 314.796C643.163 314.993 642.907 315.252 642.712 315.555C642.518 315.857 642.389 316.198 642.336 316.554C642.282 316.91 642.303 317.273 642.399 317.62C642.749 319.11 644.279 320.22 645.609 320.8Z" fill="#263238"/>
<path d="M646.92 331.83C648.54 332.07 651.92 331.08 652.21 331C652.764 332.948 653.452 334.856 654.27 336.71C654.74 337.79 655.27 338.87 655.76 339.94L655.13 339.03C653.86 337.56 650.55 335.48 648.55 336.33C648.222 336.48 647.929 336.697 647.691 336.968C647.452 337.239 647.273 337.557 647.166 337.901C647.058 338.245 647.024 338.608 647.067 338.966C647.109 339.325 647.225 339.67 647.41 339.98C648.15 341.32 649.91 341.98 651.35 342.19C653.09 342.192 654.821 341.926 656.48 341.4C656.69 341.81 656.89 342.22 657.09 342.63C658.09 344.63 659.09 346.54 659.98 348.49C660.3 349.17 660.59 349.86 660.89 350.54C660.61 350.14 660.38 349.8 660.34 349.76C659.07 348.29 655.76 346.2 653.76 347.05C653.432 347.2 653.139 347.417 652.901 347.688C652.662 347.959 652.483 348.277 652.376 348.621C652.268 348.965 652.235 349.328 652.277 349.686C652.319 350.045 652.435 350.39 652.62 350.7C653.36 352.04 655.13 352.7 656.56 352.92C658.255 352.927 659.941 352.674 661.56 352.17C661.84 352.88 662.12 353.59 662.36 354.29C662.51 354.78 662.69 355.23 662.82 355.72C662.95 356.21 663.09 356.72 663.22 357.17C663.45 358.09 663.68 359.05 663.88 359.96C664.02 360.59 664.14 361.2 664.26 361.81C663.95 361.12 663.26 359.81 663.26 359.69C662.26 358.05 659.26 355.48 657.17 356.02C656.823 356.119 656.502 356.289 656.226 356.52C655.949 356.751 655.725 357.038 655.566 357.361C655.408 357.684 655.319 358.038 655.306 358.397C655.293 358.757 655.355 359.116 655.49 359.45C656.02 360.89 657.66 361.81 659.05 362.24C660.44 362.67 663.95 362.24 664.37 362.24C664.57 363.24 664.76 364.24 664.92 365.16C664.97 365.45 665.02 365.72 665.06 366H666.39C666.32 365.65 666.26 365.3 666.18 364.93C665.98 363.93 665.75 362.81 665.49 361.69C666.517 361.289 667.519 360.825 668.49 360.3C669.799 361.423 671.256 362.362 672.82 363.09C672.43 364.04 672.04 364.96 671.67 365.83C671.639 365.885 671.612 365.941 671.59 366H672.98C673.34 365.13 673.7 364.21 674.06 363.25C674.47 363.34 677.81 364.01 679.37 363.66C680.78 363.34 682.49 362.55 683.12 361.15C683.279 360.827 683.369 360.473 683.383 360.113C683.397 359.753 683.335 359.393 683.201 359.058C683.067 358.724 682.864 358.421 682.606 358.169C682.347 357.918 682.038 357.724 681.7 357.6C679.64 356.91 676.5 359.25 675.35 360.8C675.29 360.9 674.66 361.98 674.28 362.67C674.44 362.23 674.61 361.8 674.77 361.35C675.1 360.45 675.4 359.55 675.77 358.58C675.91 358.11 676.05 357.63 676.2 357.14C676.35 356.65 676.45 356.14 676.58 355.64C676.86 354.47 677.09 353.26 677.29 352.04C678.887 352.682 680.573 353.073 682.29 353.2C683.74 353.1 685.55 352.57 686.38 351.29C686.588 350.995 686.731 350.659 686.8 350.304C686.87 349.95 686.864 349.585 686.783 349.233C686.702 348.881 686.547 348.55 686.33 348.262C686.112 347.974 685.836 347.734 685.52 347.56C683.59 346.56 680.14 348.4 678.76 349.77C678.68 349.85 677.76 350.95 677.33 351.55C677.45 350.82 677.56 350.09 677.66 349.35C677.92 347.19 678.13 345.01 678.34 342.83L678.55 340.83C678.83 340.93 682.13 342.16 683.75 342.05C685.2 341.95 687.01 341.42 687.84 340.13C688.048 339.835 688.191 339.5 688.26 339.147C688.329 338.793 688.323 338.429 688.242 338.078C688.161 337.726 688.007 337.396 687.789 337.109C687.571 336.822 687.296 336.583 686.98 336.41C685.05 335.41 681.6 337.25 680.22 338.62C680.12 338.72 678.86 340.29 678.56 340.71C678.72 339.24 678.88 337.78 679.11 336.35C679.396 334.414 679.813 332.499 680.36 330.62C680.49 330.62 683.93 331.97 685.59 331.85C687.04 331.75 688.85 331.22 689.68 329.93C689.888 329.635 690.031 329.3 690.1 328.947C690.169 328.593 690.163 328.229 690.082 327.878C690.001 327.526 689.847 327.196 689.629 326.909C689.411 326.622 689.136 326.383 688.82 326.21C686.89 325.21 683.43 327.05 682.06 328.42C681.95 328.52 680.6 330.22 680.38 330.54C680.38 330.43 680.38 330.32 680.46 330.21C681.056 328.335 681.819 326.518 682.74 324.78C683.23 323.78 683.74 322.92 684.29 322.06C684.9 322.37 687.73 323.75 689.24 323.81C690.75 323.87 692.55 323.53 693.52 322.35C693.757 322.078 693.934 321.76 694.041 321.416C694.147 321.071 694.18 320.708 694.138 320.35C694.096 319.992 693.979 319.647 693.795 319.337C693.611 319.027 693.364 318.759 693.07 318.55C691.26 317.35 687.62 318.8 686.07 320.01C685.99 320.07 685.22 320.83 684.67 321.39L685.41 320.24C686.32 318.88 687.23 317.68 688.05 316.63C688.52 316.03 688.96 315.5 689.37 315.01C690.14 315.01 693.21 314.91 694.55 314.28C695.89 313.65 697.36 312.51 697.68 311.02C697.766 310.669 697.777 310.305 697.713 309.949C697.65 309.594 697.512 309.256 697.309 308.957C697.107 308.658 696.844 308.405 696.537 308.215C696.23 308.024 695.887 307.9 695.53 307.85C693.37 307.62 690.81 310.58 690.02 312.35C689.95 312.5 689.16 315.02 689.2 315.02H689.25C688.84 315.48 688.4 316.02 687.94 316.54C687.1 317.54 686.15 318.76 685.21 320.11C684.181 321.558 683.236 323.064 682.38 324.62C681.431 326.341 680.635 328.141 680 330C679.995 330.023 679.995 330.047 680 330.07C680 329.43 680 327.65 680 327.52C679.75 325.6 678.14 322.03 676 321.63C675.64 321.569 675.272 321.584 674.919 321.676C674.567 321.768 674.237 321.934 673.954 322.163C673.67 322.392 673.438 322.679 673.274 323.004C673.109 323.329 673.016 323.686 673 324.05C672.87 325.58 674 327.1 675.06 328.05C676.12 329 679.65 330.19 679.92 330.27C679.318 332.203 678.843 334.174 678.5 336.17C678.29 337.33 678.12 338.5 677.96 339.69C677.96 339.14 677.96 338.64 677.96 338.58C677.71 336.65 676.1 333.09 673.96 332.69C673.601 332.63 673.233 332.647 672.881 332.74C672.529 332.832 672.2 332.998 671.917 333.227C671.633 333.456 671.402 333.742 671.237 334.066C671.072 334.391 670.977 334.746 670.96 335.11C670.84 336.63 671.96 338.16 673.02 339.11C674.472 340.072 676.064 340.804 677.74 341.28C677.69 341.74 677.63 342.19 677.57 342.64C677.31 344.82 677.06 347 676.75 349.12C676.64 349.87 676.51 350.61 676.37 351.34C676.37 350.85 676.37 350.44 676.37 350.34C676.12 348.42 674.51 344.85 672.37 344.45C672.01 344.389 671.642 344.404 671.289 344.496C670.937 344.588 670.607 344.754 670.324 344.983C670.04 345.212 669.808 345.499 669.644 345.824C669.479 346.149 669.386 346.506 669.37 346.87C669.25 348.4 670.37 349.92 671.43 350.87C672.84 351.813 674.389 352.532 676.02 353C675.86 353.75 675.7 354.5 675.51 355.22C675.38 355.7 675.28 356.22 675.11 356.66C674.94 357.1 674.8 357.66 674.65 358.09C674.32 358.99 673.99 359.91 673.65 360.78C673.42 361.38 673.19 361.96 672.96 362.53C673.07 361.79 673.27 360.33 673.27 360.2C673.249 358.496 672.791 356.826 671.94 355.35C671.955 355.16 671.955 354.97 671.94 354.78C671.895 354.422 671.775 354.078 671.588 353.77C671.401 353.461 671.152 353.196 670.856 352.99C670.559 352.785 670.223 352.644 669.869 352.576C669.515 352.509 669.151 352.517 668.8 352.6C666.7 353.16 665.37 356.84 665.27 358.78C665.27 358.89 665.34 360.14 665.4 360.92C665.3 360.47 665.2 360.02 665.09 359.56C664.87 358.63 664.62 357.71 664.36 356.72C664.21 356.25 664.07 355.77 663.92 355.28C663.77 354.79 663.59 354.28 663.42 353.82C663 352.68 662.53 351.55 662.02 350.43C662.83 350.23 665.71 349.5 666.86 348.61C668.01 347.72 669.23 346.29 669.22 344.76C669.229 344.399 669.163 344.04 669.025 343.707C668.886 343.373 668.679 343.073 668.417 342.824C668.155 342.576 667.843 342.386 667.502 342.267C667.162 342.147 666.8 342.1 666.44 342.13C664.28 342.36 662.44 345.8 662.02 347.7C662.02 347.82 661.87 349.21 661.81 349.98C661.5 349.3 661.2 348.63 660.87 347.98C659.87 345.98 658.87 344.1 657.87 342.16C657.55 341.57 657.25 340.97 656.94 340.38C657.23 340.31 660.66 339.52 661.94 338.53C663.08 337.65 664.3 336.2 664.29 334.67C664.299 334.31 664.233 333.952 664.095 333.619C663.958 333.286 663.751 332.986 663.49 332.738C663.229 332.49 662.919 332.3 662.579 332.18C662.24 332.059 661.879 332.012 661.52 332.04C659.36 332.28 657.52 335.71 657.09 337.61C657.09 337.76 656.88 339.76 656.86 340.27C656.18 338.96 655.52 337.65 654.92 336.34C654.092 334.566 653.384 332.738 652.8 330.87C652.93 330.87 656.52 330.02 657.8 329C658.95 328.12 660.17 326.68 660.16 325.15C660.169 324.789 660.103 324.43 659.965 324.097C659.826 323.763 659.619 323.463 659.357 323.214C659.095 322.966 658.783 322.776 658.442 322.657C658.102 322.537 657.74 322.49 657.38 322.52C655.23 322.76 653.38 326.19 652.96 328.09C652.96 328.24 652.74 330.4 652.73 330.79C652.73 330.68 652.65 330.57 652.62 330.46C652.084 328.573 651.716 326.642 651.52 324.69C651.4 323.61 651.34 322.57 651.31 321.56C652 321.48 655.12 321.06 656.41 320.28C657.7 319.5 659.02 318.28 659.17 316.71C659.221 316.353 659.195 315.99 659.096 315.643C658.997 315.297 658.825 314.975 658.593 314.7C658.361 314.424 658.073 314.2 657.749 314.044C657.424 313.887 657.07 313.8 656.71 313.79C654.54 313.79 652.3 317 651.71 318.79C651.71 318.89 651.46 319.95 651.31 320.72C651.31 320.26 651.31 319.79 651.31 319.36C651.31 317.71 651.42 316.21 651.52 314.88C651.58 314.13 651.66 313.44 651.73 312.81C652.36 312.37 654.87 310.6 655.64 309.34C656.09 308.702 656.396 307.973 656.536 307.204C656.676 306.436 656.647 305.646 656.45 304.89C656.328 304.551 656.137 304.242 655.889 303.982C655.64 303.722 655.34 303.517 655.007 303.38C654.674 303.244 654.317 303.178 653.957 303.189C653.598 303.199 653.244 303.285 652.92 303.44C650.99 304.44 650.48 308.32 650.8 310.23C650.8 310.39 651.55 312.93 651.59 312.9C651.5 313.51 651.42 314.17 651.34 314.9C651.21 316.23 651.07 317.73 651.03 319.38C650.971 321.154 651.014 322.931 651.16 324.7C651.316 326.683 651.651 328.647 652.16 330.57C652.154 330.593 652.154 330.617 652.16 330.64C651.82 330.11 650.81 328.64 650.72 328.53C649.45 327.07 646.14 324.98 644.14 325.83C643.812 325.98 643.519 326.197 643.28 326.468C643.042 326.739 642.864 327.057 642.757 327.402C642.65 327.746 642.618 328.11 642.661 328.468C642.705 328.826 642.824 329.171 643.01 329.48C643.72 331 645.49 331.63 646.92 331.83Z" fill="#263238"/>
<path d="M684.14 321.64C684.14 321.64 684.83 319.11 684.85 318.94C685.12 317.02 684.51 313.16 682.56 312.21C682.231 312.062 681.874 311.985 681.513 311.983C681.151 311.982 680.794 312.057 680.464 312.204C680.134 312.35 679.838 312.564 679.596 312.832C679.354 313.1 679.172 313.417 679.06 313.76C678.884 314.52 678.876 315.309 679.037 316.073C679.197 316.836 679.523 317.555 679.99 318.18C680.91 319.61 684.14 321.64 684.14 321.64Z" fill="#263238"/>
<path d="M598.73 337.15C599.848 337.447 601.004 337.575 602.16 337.53C602.16 337.53 601.64 335.94 601.59 335.84C601.06 334.73 599.37 332.89 598 333.07C597.772 333.108 597.556 333.193 597.363 333.32C597.171 333.447 597.007 333.613 596.883 333.807C596.758 334.001 596.676 334.219 596.641 334.447C596.606 334.675 596.619 334.907 596.68 335.13C596.855 335.595 597.13 336.016 597.483 336.365C597.837 336.713 598.262 336.981 598.73 337.15V337.15Z" fill="#263238"/>
<path d="M599.57 344.19C600.713 344.183 601.849 344.005 602.94 343.66C603.301 344.9 603.742 346.116 604.26 347.3C604.56 347.99 604.88 348.68 605.26 349.37C605.06 349.08 604.88 348.82 604.86 348.78C604.05 347.85 601.93 346.52 600.66 347.06C600.45 347.155 600.263 347.294 600.111 347.467C599.958 347.639 599.844 347.842 599.775 348.062C599.706 348.282 599.684 348.514 599.711 348.742C599.738 348.971 599.812 349.192 599.93 349.39C600.221 349.793 600.596 350.127 601.03 350.371C601.463 350.614 601.944 350.761 602.44 350.8C603.553 350.805 604.659 350.636 605.72 350.3L606.11 351.08C606.74 352.33 607.37 353.58 607.95 354.82C608.16 355.26 608.35 355.69 608.53 356.13C608.36 355.87 608.21 355.66 608.18 355.63C607.37 354.69 605.26 353.36 603.98 353.9C603.772 353.997 603.587 354.137 603.437 354.311C603.286 354.484 603.173 354.687 603.105 354.906C603.038 355.125 603.016 355.356 603.043 355.584C603.07 355.812 603.143 356.032 603.26 356.23C603.551 356.634 603.926 356.97 604.359 357.215C604.793 357.46 605.274 357.608 605.77 357.65C606.851 357.651 607.927 357.489 608.96 357.17C609.14 357.62 609.32 358.08 609.47 358.52C609.62 358.96 609.69 359.12 609.77 359.44C609.85 359.76 609.94 360.05 610.02 360.36C610.17 360.95 610.32 361.56 610.44 362.14C610.53 362.54 610.61 362.93 610.69 363.32C610.49 362.88 610.08 362.03 610.04 361.97C609.38 360.92 607.49 359.28 606.15 359.62C605.929 359.684 605.723 359.794 605.547 359.943C605.371 360.091 605.228 360.275 605.127 360.482C605.026 360.69 604.97 360.916 604.962 361.146C604.954 361.377 604.994 361.606 605.08 361.82C605.306 362.263 605.627 362.65 606.019 362.956C606.411 363.262 606.865 363.478 607.35 363.59C608.473 363.765 609.617 363.765 610.74 363.59C610.87 364.24 610.99 364.86 611.09 365.46C611.09 365.64 611.15 365.82 611.18 365.99H612C612 365.77 611.92 365.54 611.87 365.31C611.74 364.65 611.59 363.96 611.43 363.24C612.079 362.985 612.71 362.688 613.32 362.35C614.153 363.068 615.082 363.667 616.08 364.13C615.84 364.74 615.59 365.33 615.35 365.88C615.335 365.917 615.318 365.954 615.3 365.99H616.19L616.88 364.24C617.988 364.492 619.127 364.58 620.26 364.5C620.752 364.423 621.221 364.24 621.636 363.964C622.05 363.687 622.399 363.324 622.66 362.9C622.761 362.693 622.817 362.467 622.826 362.237C622.834 362.006 622.794 361.777 622.708 361.563C622.622 361.349 622.493 361.156 622.328 360.995C622.163 360.834 621.966 360.71 621.75 360.63C620.44 360.19 618.44 361.68 617.7 362.68C617.7 362.73 617.26 363.42 617.01 363.86L617.33 363.02C617.54 362.45 617.73 361.88 617.94 361.26L618.21 360.34C618.31 360.04 618.38 359.7 618.46 359.34C618.64 358.59 618.78 357.82 618.91 357.05C619.936 357.457 621.019 357.703 622.12 357.78C622.618 357.78 623.109 357.671 623.56 357.46C624.011 357.249 624.411 356.942 624.73 356.56C624.864 356.373 624.956 356.159 625.001 355.933C625.046 355.707 625.043 355.475 624.991 355.25C624.939 355.026 624.839 354.816 624.7 354.633C624.56 354.45 624.383 354.299 624.18 354.19C622.95 353.55 620.75 354.72 619.87 355.59C619.81 355.65 619.26 356.35 618.96 356.73C619.03 356.27 619.11 355.8 619.16 355.32C619.34 353.95 619.46 352.56 619.6 351.16C619.6 350.74 619.69 350.31 619.73 349.89C620.791 350.314 621.91 350.577 623.05 350.67C623.548 350.665 624.04 350.554 624.492 350.344C624.944 350.133 625.346 349.829 625.67 349.45C625.802 349.261 625.893 349.046 625.936 348.819C625.98 348.592 625.975 348.359 625.922 348.135C625.869 347.91 625.77 347.699 625.63 347.516C625.49 347.332 625.312 347.18 625.11 347.07C623.88 346.44 621.68 347.61 620.8 348.48C620.74 348.54 619.93 349.55 619.74 349.81C619.84 348.88 619.95 347.95 620.09 347.03C620.28 345.794 620.547 344.572 620.89 343.37C621.957 343.8 623.083 344.067 624.23 344.16C624.728 344.16 625.219 344.051 625.67 343.84C626.121 343.629 626.521 343.322 626.84 342.94C626.972 342.751 627.064 342.537 627.108 342.311C627.152 342.085 627.148 341.852 627.096 341.627C627.044 341.402 626.946 341.191 626.807 341.007C626.668 340.824 626.492 340.671 626.29 340.56C625.06 339.93 622.85 341.1 621.97 341.97C621.91 342.04 621.04 343.12 620.9 343.32L620.96 343.11C621.338 341.915 621.823 340.757 622.41 339.65C622.72 339.04 623.06 338.46 623.41 337.91C624.403 338.443 625.472 338.821 626.58 339.03C627.075 339.079 627.575 339.021 628.046 338.861C628.517 338.701 628.948 338.441 629.31 338.1C629.461 337.927 629.574 337.724 629.642 337.504C629.71 337.285 629.731 337.053 629.704 336.825C629.676 336.597 629.601 336.377 629.483 336.18C629.366 335.983 629.208 335.812 629.02 335.68C627.87 334.91 625.54 335.83 624.58 336.6L623.69 337.49C623.84 337.24 624 336.99 624.16 336.75C624.74 335.88 625.32 335.12 625.84 334.45C626.14 334.07 626.42 333.73 626.69 333.45C627.81 333.468 628.926 333.316 630 333C630.464 332.819 630.883 332.539 631.228 332.18C631.574 331.821 631.837 331.391 632 330.92C632.054 330.698 632.06 330.467 632.019 330.242C631.978 330.017 631.89 329.803 631.761 329.615C631.631 329.426 631.464 329.267 631.269 329.147C631.074 329.027 630.856 328.95 630.63 328.92C629.26 328.77 627.63 330.66 627.12 331.79C627.12 331.88 626.57 333.49 626.59 333.49C626.33 333.78 626.06 334.1 625.76 334.49C625.22 335.15 624.62 335.9 624.02 336.77C623.364 337.691 622.763 338.649 622.22 339.64C621.602 340.752 621.083 341.917 620.67 343.12C620.67 342.72 620.67 341.58 620.67 341.49C620.51 340.27 619.48 337.99 618.12 337.74C617.893 337.704 617.661 337.717 617.439 337.777C617.217 337.838 617.01 337.944 616.832 338.089C616.654 338.234 616.508 338.415 616.404 338.62C616.301 338.826 616.241 339.05 616.23 339.28C616.25 339.778 616.378 340.267 616.606 340.711C616.834 341.154 617.156 341.543 617.55 341.85C618.506 342.474 619.551 342.95 620.65 343.26C620.266 344.496 619.962 345.755 619.74 347.03C619.61 347.77 619.5 348.52 619.4 349.27C619.4 348.92 619.4 348.61 619.4 348.56C619.24 347.34 618.21 345.06 616.85 344.81C616.623 344.774 616.391 344.787 616.169 344.847C615.947 344.908 615.74 345.014 615.562 345.159C615.384 345.304 615.238 345.485 615.134 345.69C615.031 345.896 614.971 346.12 614.96 346.35C614.981 346.847 615.109 347.334 615.335 347.777C615.561 348.221 615.88 348.61 616.27 348.92C617.193 349.531 618.205 349.997 619.27 350.3C619.27 350.59 619.19 350.88 619.16 351.17C618.99 352.56 618.83 353.95 618.63 355.31C618.556 355.783 618.477 356.253 618.39 356.72C618.39 356.41 618.39 356.15 618.39 356.11C618.23 354.88 617.2 352.6 615.84 352.35C615.613 352.315 615.381 352.327 615.159 352.387C614.937 352.448 614.73 352.554 614.552 352.699C614.374 352.844 614.228 353.025 614.124 353.23C614.021 353.436 613.961 353.66 613.95 353.89C613.968 354.388 614.094 354.876 614.321 355.32C614.547 355.764 614.867 356.153 615.26 356.46C616.162 357.058 617.15 357.517 618.19 357.82C618.09 358.3 617.99 358.77 617.87 359.23C617.75 359.69 617.71 359.85 617.61 360.16L617.31 361.07C617.11 361.64 616.89 362.23 616.68 362.78C616.53 363.17 616.38 363.53 616.23 363.9C616.31 363.43 616.44 362.49 616.44 362.41C616.422 361.323 616.126 360.259 615.58 359.32C615.595 359.2 615.595 359.079 615.58 358.96C615.552 358.731 615.477 358.511 615.358 358.314C615.24 358.117 615.081 357.947 614.892 357.816C614.703 357.685 614.488 357.595 614.262 357.552C614.036 357.51 613.804 357.516 613.58 357.57C612.24 357.92 611.39 360.27 611.33 361.51C611.33 361.58 611.33 362.37 611.41 362.87C611.34 362.58 611.28 362.3 611.21 362C611.07 361.41 610.91 360.82 610.74 360.19L610.47 359.28C610.38 358.97 610.25 358.65 610.14 358.34C609.88 357.62 609.57 356.9 609.25 356.18C610.332 355.949 611.373 355.558 612.34 355.02C612.754 354.744 613.103 354.381 613.362 353.956C613.622 353.531 613.785 353.054 613.84 352.56C613.846 352.33 613.804 352.101 613.716 351.888C613.628 351.675 613.496 351.484 613.329 351.325C613.163 351.167 612.964 351.045 612.747 350.968C612.53 350.892 612.299 350.861 612.07 350.88C610.7 351.03 609.5 353.23 609.25 354.44C609.25 354.51 609.15 355.44 609.12 355.89C608.92 355.46 608.73 355.03 608.51 354.6C607.9 353.36 607.24 352.12 606.58 350.89L605.99 349.75C607.11 349.519 608.188 349.122 609.19 348.57C609.604 348.294 609.953 347.931 610.212 347.506C610.472 347.081 610.634 346.604 610.69 346.11C610.696 345.88 610.654 345.651 610.566 345.438C610.478 345.225 610.346 345.034 610.179 344.875C610.013 344.717 609.814 344.595 609.597 344.518C609.38 344.442 609.149 344.411 608.92 344.43C607.55 344.58 606.35 346.78 606.1 347.99C606.1 348.08 605.97 349.36 605.95 349.68C605.52 348.85 605.1 348.01 604.71 347.17C604.185 346.037 603.734 344.871 603.36 343.68C604.486 343.445 605.572 343.044 606.58 342.49C606.983 342.203 607.319 341.831 607.564 341.401C607.809 340.971 607.958 340.493 608 340C608.005 339.771 607.962 339.543 607.873 339.331C607.784 339.12 607.652 338.929 607.486 338.772C607.319 338.614 607.121 338.494 606.905 338.418C606.688 338.342 606.458 338.312 606.23 338.33C604.85 338.48 603.66 340.67 603.41 341.88C603.41 341.98 603.27 343.35 603.26 343.6C603.26 343.53 603.26 343.47 603.19 343.4C602.847 342.193 602.613 340.958 602.49 339.71C602.41 339.02 602.38 338.36 602.36 337.71C603.478 337.6 604.574 337.324 605.61 336.89C606.051 336.66 606.437 336.337 606.741 335.944C607.045 335.55 607.259 335.095 607.37 334.61C607.402 334.382 607.386 334.15 607.323 333.929C607.26 333.709 607.15 333.504 607.002 333.328C606.854 333.152 606.67 333.01 606.463 332.91C606.256 332.811 606.03 332.756 605.8 332.75C604.41 332.75 602.99 334.75 602.6 335.97C602.6 336.03 602.44 336.71 602.35 337.2C602.35 336.91 602.35 336.61 602.35 336.33C602.35 335.33 602.41 334.33 602.48 333.47C602.48 332.99 602.57 332.56 602.62 332.15C603.555 331.541 604.395 330.797 605.11 329.94C605.397 329.532 605.592 329.067 605.682 328.577C605.772 328.087 605.754 327.583 605.63 327.1C605.553 326.882 605.431 326.684 605.272 326.516C605.113 326.349 604.921 326.217 604.708 326.13C604.494 326.042 604.265 326 604.034 326.007C603.804 326.014 603.577 326.069 603.37 326.17C602.14 326.81 601.82 329.28 602.02 330.5C602.02 330.61 602.5 332.23 602.52 332.21C602.46 332.6 602.41 333.02 602.36 333.48C602.28 334.32 602.19 335.28 602.16 336.34C602.127 337.471 602.157 338.602 602.25 339.73C602.345 340.996 602.552 342.251 602.87 343.48V343.48C602.65 343.14 602.01 342.2 601.95 342.14C601.14 341.2 599.03 339.87 597.76 340.41C597.55 340.505 597.363 340.644 597.211 340.817C597.058 340.989 596.944 341.192 596.875 341.412C596.806 341.632 596.784 341.864 596.811 342.092C596.838 342.321 596.912 342.542 597.03 342.74C597.319 343.155 597.697 343.501 598.136 343.752C598.575 344.003 599.065 344.152 599.57 344.19Z" fill="#263238"/>
<path d="M623.32 337.69C623.32 337.69 623.76 336.07 623.78 335.97C623.95 334.74 623.56 332.27 622.31 331.67C622.099 331.576 621.871 331.528 621.64 331.528C621.41 331.528 621.182 331.577 620.971 331.671C620.761 331.766 620.573 331.903 620.419 332.076C620.265 332.248 620.15 332.45 620.08 332.67C619.966 333.154 619.959 333.658 620.061 334.145C620.163 334.633 620.371 335.092 620.67 335.49C621.441 336.349 622.334 337.09 623.32 337.69Z" fill="#263238"/>
<path d="M0.650391 365.98H701.32" stroke="#263238" stroke-miterlimit="10"/>
</svg>
