<svg width="383" height="512" viewBox="0 0 383 512" fill="none" xmlns="http://www.w3.org/2000/svg">
<path fill-rule="evenodd" clip-rule="evenodd" d="M147.973 1.23117C138.477 4.75617 128.885 17.5312 126.596 29.7002C126.031 32.7072 125.705 32.9782 123.346 32.4082C80.0795 21.9492 80.1115 72.3402 123.408 130.5C128.226 136.972 134.267 147.147 140.1 158.612C148.473 175.071 155.862 186.6 160.938 191.125C166.041 195.674 153.918 230.869 138.879 255.163C121.168 283.772 112.307 310.095 110.462 339.578L109.725 351.358L97.4175 293.781C87.0675 245.362 85.2165 235.402 85.7785 231.164C86.6475 224.608 84.9845 217.085 80.7365 208.358C74.9045 196.377 74.9915 194.783 81.7165 190.319C101.569 177.142 106.479 144.145 90.9745 128.108C86.0925 123.059 77.4125 124.789 67.2515 132.837L63.5095 135.8L60.4265 121.579L57.3425 107.358L60.3495 103.584C83.1525 74.9692 55.2505 10.7452 30.7945 35.5522C11.7475 54.8722 16.1275 92.7112 39.0475 106.858C42.5185 109 45.2085 113.207 43.9275 114.488C43.7105 114.705 41.3815 113.93 38.7505 112.766C25.5565 106.93 2.64651 110.344 0.612512 118.45C-4.37249 138.311 22.0055 163.514 45.7795 161.606L52.2245 161.088L52.2575 167.723C52.2855 173.511 53.6255 179.09 56.6615 186.064C57.3195 187.575 57.0245 187.661 54.0715 186.814C44.7035 184.128 32.5165 186.067 30.0845 190.631C20.2125 209.155 40.8275 240.841 64.6145 243.705C68.2345 244.141 71.4885 244.789 71.8445 245.145C72.2005 245.501 80.9705 285.295 91.3325 333.575L110.173 421.358L110.199 464.434L110.225 507.509L112.539 509.684C115.524 512.487 119.318 512.453 122 509.598L124.123 507.337L124.509 419.348C125.033 299.708 124.145 303.788 154.091 283.438C176.474 268.227 187.007 265.151 189.51 273.094C200.101 306.69 247.216 326.016 279.187 309.877C289.591 304.625 290.596 302.298 287.723 290.113C278.854 252.496 232.39 230.1 197.268 246.514C193.119 248.453 185.868 251.528 181.153 253.348C170.829 257.333 157.318 264.027 151.405 268.085C145.395 272.21 145.448 271.385 151.783 262.124C177.531 224.489 218.662 199.718 263.866 194.621L274.008 193.477L279.366 198.321C286.13 204.433 293.384 207.794 302.544 209.059C306.493 209.604 314 211.377 319.225 212.999C347.029 221.627 372.551 217.34 371.028 204.297C370.639 200.961 370.935 200.435 374.45 198.216C384.734 191.724 384.477 180.006 373.927 174.358C370.681 172.62 370.268 172.004 370.777 169.655C373.783 155.797 347.498 150.499 320.339 159.489C316.151 160.875 308.787 162.637 303.974 163.405C293.106 165.138 285.18 168.808 279.036 174.951C274.511 179.477 259.639 183.325 262.006 179.358C262.334 178.808 264.268 175.883 266.303 172.858C268.338 169.833 272.276 162.809 275.053 157.249C277.83 151.688 281.367 146.055 282.914 144.73C288.692 139.779 295.302 131.463 299.367 124.03C304.877 113.954 308.368 108.834 315.508 100.358C345.878 64.3062 348.695 28.0122 321.133 27.8802C316.599 27.8582 316.526 27.8052 315.294 23.6082C308.31 -0.180834 282.808 -2.66283 270.543 19.2532C269.53 21.0652 269.342 21.0682 264.868 19.3602C238.636 9.34117 230.174 45.1122 248.13 90.1192C250.905 97.0752 254.2 107.771 255.624 114.446C258.757 129.126 259.356 131.172 262.726 138.681L265.415 144.673L260.634 153.93C249.714 175.073 241.534 183.401 226.925 188.251C209.572 194.011 190.244 204.307 177.42 214.62C172.103 218.896 171.734 218.567 173.605 211.219C174.426 207.995 175.609 202.476 176.233 198.954C177.063 194.274 178.317 191.312 180.888 187.954C186.201 181.017 192.783 166.557 195.726 155.358C200.125 138.619 202.175 132.947 209.287 117.847C237.087 58.8172 228.171 10.0922 192.204 24.4832C189.97 25.3772 188.032 25.9402 187.897 25.7332C187.763 25.5272 186.051 22.8832 184.093 19.8582C174.008 4.27217 159.681 -3.11583 147.973 1.23117ZM158.91 14.9192C162.844 16.4032 167.816 21.3332 172.339 28.2372L176.191 34.1152L171.368 39.3922C168.715 42.2952 164.825 47.2992 162.722 50.5142C160.62 53.7282 158.752 56.5422 158.57 56.7672C158.388 56.9922 155.649 54.7372 152.482 51.7552C149.316 48.7732 144.951 44.9372 142.783 43.2312L138.841 40.1282L140.188 34.5132C143.596 20.3052 151.435 12.1012 158.91 14.9192ZM297.683 20.5972C299.928 23.0182 304 32.5672 303.077 33.2472C302.883 33.3892 301.15 34.5562 299.225 35.8412C297.3 37.1252 294.321 39.4862 292.605 41.0872L289.485 43.9992L285.297 37.7282C280.317 30.2702 280.443 28.7532 286.573 22.3552C291.57 17.1402 294.106 16.7392 297.683 20.5972ZM261.741 33.7052C266.62 36.6802 270.949 41.5432 275.423 49.0752L279.617 56.1342L276.812 58.3702C273.378 61.1082 267.567 62.9232 260.045 63.6072L254.365 64.1232L253.545 60.2412C251.551 50.8012 252.755 36.4712 255.798 33.4282C257.774 31.4522 258.07 31.4662 261.741 33.7052ZM206.984 39.1082C216.797 49.5842 212.608 77.1852 195.791 112.858C187.982 129.425 186.842 132.542 182.629 148.858C181.138 154.633 179.144 161.158 178.198 163.358L176.478 167.358L175.829 161.358C173.129 136.417 172.971 135.858 168.638 135.858C165.126 135.858 164.064 138.747 165.268 145.024C165.831 147.958 166.546 156.208 166.856 163.358L167.421 176.358L164.828 173.358C163.401 171.708 158.57 163.158 154.093 154.358C145.183 136.848 140.972 129.94 130.952 116.395L124.322 107.433L133.023 104.321C151.634 97.6672 159.327 90.3322 168.121 70.8582C179.088 46.5712 198.851 30.4262 206.984 39.1082ZM324.225 42.8402C331.272 47.3092 321.567 70.0922 302.67 93.4412C298.182 98.9872 292.792 106.637 290.692 110.441C285.033 120.694 283.915 122.14 284.574 118.358C286.272 108.605 286.295 106.071 284.698 104.473C281.034 100.809 277.698 103.586 276.758 111.082C275.803 118.698 274.014 127.98 273.584 127.55C273.381 127.347 271.682 120.451 269.809 112.225C267.935 104 264.788 93.2652 262.814 88.3702C260.84 83.4742 259.225 79.2082 259.225 78.8892C259.225 78.5702 262.632 77.7672 266.796 77.1042C276.93 75.4922 285.104 71.0632 291.089 63.9412C305.048 47.3322 318.151 38.9872 324.225 42.8402ZM124.725 48.6002C137.698 55.0872 152.201 70.0882 150.19 74.9412C147.457 81.5402 136.66 88.5812 123.073 92.6252L116.421 94.6052L112.917 86.9812C98.9215 56.5372 104.478 38.4762 124.725 48.6002ZM45.2995 49.5452C57.0575 60.1672 59.1945 82.9902 49.4695 94.0852C42.6015 101.922 29.8335 71.0962 34.2085 57.2392C37.5645 46.6072 40.1005 44.8482 45.2995 49.5452ZM32.6655 125.603C39.4985 128.03 46.8025 135.048 49.2145 141.505L51.1375 146.652L47.5615 147.323C36.3795 149.42 20.6325 140.73 16.6315 130.253C14.0635 123.53 21.0915 121.492 32.6655 125.603ZM85.2285 146.812C88.2665 157.749 83.1375 172.341 74.1695 178.276L70.2735 180.854L68.5185 177.606C63.5905 168.483 67.4615 152.427 76.5625 144.244C82.2365 139.143 83.1745 139.421 85.2285 146.812ZM351.954 169.483C354.006 170.033 354.066 170.247 352.704 172.192C349.041 177.421 351.918 181.755 360.758 184.325C366.942 186.122 366.936 186.929 360.725 188.86C353.541 191.095 349.833 197.066 353.408 200.641C357.507 204.74 336.941 203.797 322.975 199.245L318.225 197.697V186.306V174.916L325.29 172.77C335.854 169.561 347.082 168.177 351.954 169.483ZM303.741 186.437L303.756 195.014L300.809 194.425C287.208 191.705 285.598 183.9 297.725 179.475C303.812 177.254 303.724 177.152 303.741 186.437ZM54.5645 202.349C62.9815 206.343 70.3445 216.326 71.8345 225.764L72.5295 230.169L66.9895 229.598C54.5495 228.314 44.3705 217.975 42.6295 204.856L41.9275 199.564L46.3665 200.065C48.8075 200.34 52.4965 201.368 54.5645 202.349ZM238.561 257.792C244.911 259.987 253.001 264.392 257.705 268.215L260.685 270.637L256.705 271.841C241.565 276.424 219.982 271.876 206.774 261.32L203.822 258.962L206.774 257.827C215.64 254.417 228.756 254.402 238.561 257.792ZM214.225 275.651C229.558 283.251 245.787 284.722 260.317 279.827L266.694 277.679L268.21 279.942C275.51 290.844 275.604 296.198 268.541 298.841C247.799 306.601 220.208 296.788 207.573 277.156C204.239 271.977 203.548 270.354 204.975 271.064C205.388 271.27 209.55 273.334 214.225 275.651Z" fill="#808080"/>
</svg>
