<svg width="452" height="341" viewBox="0 0 452 341" fill="none" xmlns="http://www.w3.org/2000/svg">
<path d="M399.6 246.52C401.191 233.768 401.439 220.884 400.34 208.08C391.34 96.08 302.17 -22.4699 201.73 5.01005C167 14.5001 141.31 40.43 126 77.68C114.76 105 106.79 137 88.5098 158.85C58.5098 194.75 22.3498 250.91 67.8398 299.95C113.33 348.99 169.15 317.15 216.7 314.62C256.7 312.49 297.07 328.14 336.92 322.51C374.77 317.16 394.45 286 399.6 246.52Z" fill="#0987FF"/>
<path opacity="0.8" d="M399.6 246.52C401.191 233.768 401.439 220.884 400.34 208.08C391.34 96.08 302.17 -22.4699 201.73 5.01005C167 14.5001 141.31 40.43 126 77.68C114.76 105 106.79 137 88.5098 158.85C58.5098 194.75 22.3498 250.91 67.8398 299.95C113.33 348.99 169.15 317.15 216.7 314.62C256.7 312.49 297.07 328.14 336.92 322.51C374.77 317.16 394.45 286 399.6 246.52Z" fill="white"/>
<path d="M388.441 86.51C383.981 84.08 381.951 86.1 380.331 84.08C378.711 82.06 384.791 76.78 372.631 71.51C372.631 71.51 371.821 60.16 355.201 59.75C338.581 59.34 343.001 71.1 338.571 73.94C334.141 76.78 332.901 72.32 328.441 75.16C323.981 78 326.011 83.67 322.361 84.48C318.711 85.29 313.841 80.83 309.361 83.67C304.881 86.51 304.911 88.94 302.881 88.94C300.851 88.94 296.801 87.32 294.361 88.94C291.921 90.56 289.091 92.59 289.091 92.59H391.681C391.681 92.59 392.901 88.94 388.441 86.51Z" fill="white" stroke="#263238" stroke-linecap="round" stroke-linejoin="round"/>
<path d="M131.28 146.52C129.03 145.29 128 146.31 127.18 145.29C126.36 144.27 129.44 141.6 123.29 138.94C123.29 138.94 122.88 133.21 114.49 133.01C106.1 132.81 108.35 138.74 106.09 140.17C103.83 141.6 103.23 139.35 100.98 140.79C98.7304 142.23 99.7504 145.09 97.9004 145.5C96.0504 145.91 93.6003 143.65 91.3503 145.09C89.1003 146.53 89.1004 147.75 88.0804 147.75C87.0604 147.75 85.0003 146.93 83.7803 147.75C82.5603 148.57 81.1104 149.59 81.1104 149.59H132.92C132.92 149.59 133.53 147.75 131.28 146.52Z" fill="white" stroke="#263238" stroke-linecap="round" stroke-linejoin="round"/>
<path d="M225.28 57.5201C223.03 56.2901 222 57.3101 221.18 56.2901C220.36 55.2701 223.44 52.6001 217.29 49.9401C217.29 49.9401 216.88 44.2101 208.49 44.0101C200.1 43.8101 202.35 49.7401 200.09 51.1701C197.83 52.6001 197.23 50.3501 194.98 51.7901C192.73 53.2301 193.75 56.0901 191.9 56.5001C190.05 56.9101 187.6 54.6501 185.35 56.0901C183.1 57.5301 183.1 58.7501 182.08 58.7501C181.06 58.7501 179 57.9301 177.78 58.7501C176.56 59.5701 175.11 60.5901 175.11 60.5901H226.92C226.92 60.5901 227.53 58.7501 225.28 57.5201Z" fill="white" stroke="#263238" stroke-linecap="round" stroke-linejoin="round"/>
<path d="M359.77 328.67H408C407.08 322.78 403.29 323.82 402.79 314.67C402.54 310.07 406.79 304.38 406.43 298.34C406.12 293.34 401.21 288.26 400.83 282.56C400.49 277.42 404.68 271.72 404.27 266.18C403.89 260.95 398.91 255.92 398.47 250.48C398.03 245.04 402.14 239.41 401.66 234.05C401.18 228.69 396.11 223.74 395.58 218.45C395.05 213.16 398.99 207.16 398.39 201.95C397.74 196.43 392.53 191.65 391.82 186.56C391.03 180.89 394.73 174.84 393.82 169.95C392.76 163.95 387.18 159.61 386.01 155.19C383.82 146.95 384.09 139 381.51 138.49C378.75 137.93 378.12 145.72 376.03 154.42C375.03 158.8 369.52 163.23 368.63 169.23C367.9 174.09 371.76 179.99 371.13 185.64C370.56 190.69 365.48 195.55 364.99 201.05C364.52 206.22 368.65 211.92 368.24 217.32C367.83 222.72 362.91 227.59 362.57 232.92C362.23 238.25 366.48 243.85 366.19 249.11C365.9 254.37 361.06 259.61 360.81 264.81C360.55 270.3 364.88 275.81 364.67 280.94C364.44 286.59 359.67 291.77 359.49 296.71C359.27 302.71 363.67 308.23 363.54 312.79C363.24 322.7 358.71 320.65 358.54 328.62L359.77 328.67Z" fill="#0987FF"/>
<path opacity="0.5" d="M359.77 328.67H408C407.08 322.78 403.29 323.82 402.79 314.67C402.54 310.07 406.79 304.38 406.43 298.34C406.12 293.34 401.21 288.26 400.83 282.56C400.49 277.42 404.68 271.72 404.27 266.18C403.89 260.95 398.91 255.92 398.47 250.48C398.03 245.04 402.14 239.41 401.66 234.05C401.18 228.69 396.11 223.74 395.58 218.45C395.05 213.16 398.99 207.16 398.39 201.95C397.74 196.43 392.53 191.65 391.82 186.56C391.03 180.89 394.73 174.84 393.82 169.95C392.76 163.95 387.18 159.61 386.01 155.19C383.82 146.95 384.09 139 381.51 138.49C378.75 137.93 378.12 145.72 376.03 154.42C375.03 158.8 369.52 163.23 368.63 169.23C367.9 174.09 371.76 179.99 371.13 185.64C370.56 190.69 365.48 195.55 364.99 201.05C364.52 206.22 368.65 211.92 368.24 217.32C367.83 222.72 362.91 227.59 362.57 232.92C362.23 238.25 366.48 243.85 366.19 249.11C365.9 254.37 361.06 259.61 360.81 264.81C360.55 270.3 364.88 275.81 364.67 280.94C364.44 286.59 359.67 291.77 359.49 296.71C359.27 302.71 363.67 308.23 363.54 312.79C363.24 322.7 358.71 320.65 358.54 328.62L359.77 328.67Z" fill="white"/>
<path d="M380.46 154.34V326.45" stroke="#263238" stroke-miterlimit="10"/>
<path d="M387.98 172.38L380.14 179.15L373.72 170.59" stroke="#263238" stroke-miterlimit="10"/>
<path d="M387.98 202.34L380.14 209.11L373.72 200.55" stroke="#263238" stroke-miterlimit="10"/>
<path d="M387.98 230.51L380.14 237.29L373.72 228.73" stroke="#263238" stroke-miterlimit="10"/>
<path d="M387.98 264.04L380.14 270.81L373.72 262.25" stroke="#263238" stroke-miterlimit="10"/>
<path d="M387.98 297.92L380.14 304.69L373.72 296.13" stroke="#263238" stroke-miterlimit="10"/>
<path d="M35 328.67H83.2C82.27 322.78 78.49 323.82 77.98 314.67C77.73 310.07 81.98 304.38 81.62 298.34C81.32 293.34 76.41 288.26 76.03 282.56C75.68 277.42 79.87 271.72 79.47 266.18C79.08 260.95 74.11 255.92 73.67 250.48C73.23 245.04 77.34 239.41 76.86 234.05C76.38 228.69 71.31 223.74 70.77 218.45C70.23 213.16 74.19 207.16 73.58 201.95C72.94 196.43 67.72 191.65 67.02 186.56C66.23 180.89 69.92 174.84 69.02 169.95C67.96 163.95 62.38 159.61 61.2 155.19C59.09 147 59.36 139 56.78 138.5C54.02 137.94 53.39 145.73 51.3 154.43C50.3 158.81 44.79 163.24 43.89 169.24C43.17 174.1 47.03 180 46.39 185.65C45.83 190.7 40.75 195.56 40.25 201.06C39.79 206.23 43.91 211.93 43.51 217.33C43.11 222.73 38.18 227.6 37.84 232.93C37.5 238.26 41.75 243.86 41.46 249.12C41.17 254.38 36.32 259.62 36.07 264.82C35.81 270.31 40.15 275.82 39.94 280.95C39.7 286.6 34.94 291.78 34.75 296.72C34.54 302.72 38.94 308.24 38.75 312.8C38.46 322.71 33.92 320.66 33.75 328.63L35 328.67Z" fill="#0987FF"/>
<path opacity="0.5" d="M35 328.67H83.2C82.27 322.78 78.49 323.82 77.98 314.67C77.73 310.07 81.98 304.38 81.62 298.34C81.32 293.34 76.41 288.26 76.03 282.56C75.68 277.42 79.87 271.72 79.47 266.18C79.08 260.95 74.11 255.92 73.67 250.48C73.23 245.04 77.34 239.41 76.86 234.05C76.38 228.69 71.31 223.74 70.77 218.45C70.23 213.16 74.19 207.16 73.58 201.95C72.94 196.43 67.72 191.65 67.02 186.56C66.23 180.89 69.92 174.84 69.02 169.95C67.96 163.95 62.38 159.61 61.2 155.19C59.09 147 59.36 139 56.78 138.5C54.02 137.94 53.39 145.73 51.3 154.43C50.3 158.81 44.79 163.24 43.89 169.24C43.17 174.1 47.03 180 46.39 185.65C45.83 190.7 40.75 195.56 40.25 201.06C39.79 206.23 43.91 211.93 43.51 217.33C43.11 222.73 38.18 227.6 37.84 232.93C37.5 238.26 41.75 243.86 41.46 249.12C41.17 254.38 36.32 259.62 36.07 264.82C35.81 270.31 40.15 275.82 39.94 280.95C39.7 286.6 34.94 291.78 34.75 296.72C34.54 302.72 38.94 308.24 38.75 312.8C38.46 322.71 33.92 320.66 33.75 328.63L35 328.67Z" fill="white"/>
<path d="M55.7197 154.34V326.45" stroke="#263238" stroke-miterlimit="10"/>
<path d="M63.2505 172.38L55.4005 179.15L48.9805 170.59" stroke="#263238" stroke-miterlimit="10"/>
<path d="M63.2505 202.34L55.4005 209.11L48.9805 200.55" stroke="#263238" stroke-miterlimit="10"/>
<path d="M63.2505 230.51L55.4005 237.29L48.9805 228.73" stroke="#263238" stroke-miterlimit="10"/>
<path d="M63.2505 264.04L55.4005 270.81L48.9805 262.25" stroke="#263238" stroke-miterlimit="10"/>
<path d="M63.2505 297.92L55.4005 304.69L48.9805 296.13" stroke="#263238" stroke-miterlimit="10"/>
<path d="M288.71 328.67H324.71C324.02 324.27 321.19 325.05 320.82 318.22C320.63 314.79 323.82 310.54 323.53 306.02C323.31 302.3 319.64 298.49 319.36 294.24C319.1 290.4 322.23 286.14 321.92 282.01C321.64 278.09 317.92 274.34 317.59 270.28C317.26 266.22 320.33 262 320 258C319.67 254 315.85 250.31 315.45 246.36C315.05 242.41 318 237.92 317.55 234.03C317.07 229.9 313.17 226.34 312.65 222.54C312.06 218.3 314.82 213.78 314.17 210.13C313.38 205.65 309.17 202.41 308.33 199.13C306.67 193 306.87 187 305 186.63C303.13 186.26 302.47 192.03 300.9 198.53C300.12 201.8 296.04 205.11 295.37 209.59C294.83 213.22 297.71 217.59 297.24 221.85C296.82 225.62 293.02 229.25 292.65 233.36C292.3 237.22 295.39 241.48 295.08 245.51C294.77 249.54 291.08 253.18 290.85 257.16C290.62 261.14 293.77 265.32 293.56 269.26C293.35 273.2 289.72 277.1 289.56 280.98C289.37 285.08 292.56 289.22 292.45 292.98C292.27 297.2 288.71 301.07 288.57 304.75C288.42 309.23 291.7 313.36 291.57 316.75C291.35 324.15 287.96 322.62 287.84 328.57L288.71 328.67Z" fill="#0987FF"/>
<path opacity="0.5" d="M288.71 328.67H324.71C324.02 324.27 321.19 325.05 320.82 318.22C320.63 314.79 323.82 310.54 323.53 306.02C323.31 302.3 319.64 298.49 319.36 294.24C319.1 290.4 322.23 286.14 321.92 282.01C321.64 278.09 317.92 274.34 317.59 270.28C317.26 266.22 320.33 262 320 258C319.67 254 315.85 250.31 315.45 246.36C315.05 242.41 318 237.92 317.55 234.03C317.07 229.9 313.17 226.34 312.65 222.54C312.06 218.3 314.82 213.78 314.17 210.13C313.38 205.65 309.17 202.41 308.33 199.13C306.67 193 306.87 187 305 186.63C303.13 186.26 302.47 192.03 300.9 198.53C300.12 201.8 296.04 205.11 295.37 209.59C294.83 213.22 297.71 217.59 297.24 221.85C296.82 225.62 293.02 229.25 292.65 233.36C292.3 237.22 295.39 241.48 295.08 245.51C294.77 249.54 291.08 253.18 290.85 257.16C290.62 261.14 293.77 265.32 293.56 269.26C293.35 273.2 289.72 277.1 289.56 280.98C289.37 285.08 292.56 289.22 292.45 292.98C292.27 297.2 288.71 301.07 288.57 304.75C288.42 309.23 291.7 313.36 291.57 316.75C291.35 324.15 287.96 322.62 287.84 328.57L288.71 328.67Z" fill="white"/>
<path d="M304.16 198.46V327.01" stroke="#263238" stroke-miterlimit="10"/>
<path d="M309.78 211.94L303.92 217L299.12 210.6" stroke="#263238" stroke-miterlimit="10"/>
<path d="M309.78 234.31L303.92 239.37L299.12 232.98" stroke="#263238" stroke-miterlimit="10"/>
<path d="M309.78 255.36L303.92 260.42L299.12 254.02" stroke="#263238" stroke-miterlimit="10"/>
<path d="M309.78 280.39L303.92 285.46L299.12 279.06" stroke="#263238" stroke-miterlimit="10"/>
<path d="M309.78 305.7L303.92 310.76L299.12 304.37" stroke="#263238" stroke-miterlimit="10"/>
<path d="M403.71 328.67H439.71C439.02 324.27 436.19 325.05 435.82 318.22C435.63 314.79 438.82 310.54 438.53 306.02C438.31 302.3 434.64 298.49 434.36 294.24C434.1 290.4 437.23 286.14 436.92 282.01C436.64 278.09 432.92 274.34 432.59 270.28C432.26 266.22 435.33 262 435 258C434.67 254 430.85 250.31 430.45 246.36C430.05 242.41 433 237.92 432.55 234.03C432.07 229.9 428.17 226.34 427.65 222.54C427.06 218.3 429.82 213.78 429.17 210.13C428.38 205.65 424.17 202.41 423.33 199.13C421.67 193 421.87 187 420 186.63C418.13 186.26 417.47 192.03 415.9 198.53C415.12 201.8 411.04 205.11 410.37 209.59C409.83 213.22 412.71 217.59 412.24 221.85C411.82 225.62 408.02 229.25 407.65 233.36C407.3 237.22 410.39 241.48 410.08 245.51C409.77 249.54 406.08 253.18 405.85 257.16C405.62 261.14 408.77 265.32 408.56 269.26C408.35 273.2 404.72 277.1 404.56 280.98C404.37 285.08 407.56 289.22 407.45 292.98C407.27 297.2 403.71 301.07 403.57 304.75C403.42 309.23 406.7 313.36 406.57 316.75C406.35 324.15 402.96 322.62 402.84 328.57L403.71 328.67Z" fill="#0987FF"/>
<path opacity="0.5" d="M403.71 328.67H439.71C439.02 324.27 436.19 325.05 435.82 318.22C435.63 314.79 438.82 310.54 438.53 306.02C438.31 302.3 434.64 298.49 434.36 294.24C434.1 290.4 437.23 286.14 436.92 282.01C436.64 278.09 432.92 274.34 432.59 270.28C432.26 266.22 435.33 262 435 258C434.67 254 430.85 250.31 430.45 246.36C430.05 242.41 433 237.92 432.55 234.03C432.07 229.9 428.17 226.34 427.65 222.54C427.06 218.3 429.82 213.78 429.17 210.13C428.38 205.65 424.17 202.41 423.33 199.13C421.67 193 421.87 187 420 186.63C418.13 186.26 417.47 192.03 415.9 198.53C415.12 201.8 411.04 205.11 410.37 209.59C409.83 213.22 412.71 217.59 412.24 221.85C411.82 225.62 408.02 229.25 407.65 233.36C407.3 237.22 410.39 241.48 410.08 245.51C409.77 249.54 406.08 253.18 405.85 257.16C405.62 261.14 408.77 265.32 408.56 269.26C408.35 273.2 404.72 277.1 404.56 280.98C404.37 285.08 407.56 289.22 407.45 292.98C407.27 297.2 403.71 301.07 403.57 304.75C403.42 309.23 406.7 313.36 406.57 316.75C406.35 324.15 402.96 322.62 402.84 328.57L403.71 328.67Z" fill="white"/>
<path d="M419.16 198.46V327.01" stroke="#263238" stroke-miterlimit="10"/>
<path d="M424.78 211.94L418.92 217L414.12 210.6" stroke="#263238" stroke-miterlimit="10"/>
<path d="M424.78 234.31L418.92 239.37L414.12 232.98" stroke="#263238" stroke-miterlimit="10"/>
<path d="M424.78 255.36L418.92 260.42L414.12 254.02" stroke="#263238" stroke-miterlimit="10"/>
<path d="M424.78 280.39L418.92 285.46L414.12 279.06" stroke="#263238" stroke-miterlimit="10"/>
<path d="M424.78 305.7L418.92 310.76L414.12 304.37" stroke="#263238" stroke-miterlimit="10"/>
<path d="M249 328.67H285C284.3 324.27 281.48 325.05 281.1 318.22C280.91 314.79 284.1 310.54 283.82 306.02C283.59 302.3 279.93 298.49 279.64 294.24C279.38 290.4 282.51 286.14 282.21 282.01C281.92 278.09 278.21 274.34 277.88 270.28C277.55 266.22 280.62 262.01 280.26 258C279.9 253.99 276.12 250.31 275.71 246.36C275.3 242.41 278.27 237.92 277.81 234.03C277.33 229.9 273.44 226.34 272.91 222.54C272.32 218.3 275.08 213.78 274.43 210.13C273.64 205.65 269.48 202.41 268.6 199.13C267 193 267.19 187 265.26 186.63C263.33 186.26 262.73 192.03 261.17 198.53C260.38 201.8 256.31 205.11 255.64 209.59C255.09 213.22 257.98 217.59 257.5 221.85C257.08 225.62 253.29 229.25 252.92 233.36C252.57 237.22 255.65 241.48 255.35 245.51C255.05 249.54 251.35 253.18 251.11 257.16C250.87 261.14 254.04 265.32 253.82 269.26C253.6 273.2 249.98 277.1 249.82 280.98C249.62 285.08 252.82 289.22 252.7 292.98C252.53 297.2 248.96 301.07 248.83 304.75C248.67 309.23 251.96 313.36 251.83 316.75C251.61 324.15 248.23 322.62 248.11 328.57L249 328.67Z" fill="#0987FF"/>
<path opacity="0.5" d="M249 328.67H285C284.3 324.27 281.48 325.05 281.1 318.22C280.91 314.79 284.1 310.54 283.82 306.02C283.59 302.3 279.93 298.49 279.64 294.24C279.38 290.4 282.51 286.14 282.21 282.01C281.92 278.09 278.21 274.34 277.88 270.28C277.55 266.22 280.62 262.01 280.26 258C279.9 253.99 276.12 250.31 275.71 246.36C275.3 242.41 278.27 237.92 277.81 234.03C277.33 229.9 273.44 226.34 272.91 222.54C272.32 218.3 275.08 213.78 274.43 210.13C273.64 205.65 269.48 202.41 268.6 199.13C267 193 267.19 187 265.26 186.63C263.33 186.26 262.73 192.03 261.17 198.53C260.38 201.8 256.31 205.11 255.64 209.59C255.09 213.22 257.98 217.59 257.5 221.85C257.08 225.62 253.29 229.25 252.92 233.36C252.57 237.22 255.65 241.48 255.35 245.51C255.05 249.54 251.35 253.18 251.11 257.16C250.87 261.14 254.04 265.32 253.82 269.26C253.6 273.2 249.98 277.1 249.82 280.98C249.62 285.08 252.82 289.22 252.7 292.98C252.53 297.2 248.96 301.07 248.83 304.75C248.67 309.23 251.96 313.36 251.83 316.75C251.61 324.15 248.23 322.62 248.11 328.57L249 328.67Z" fill="white"/>
<path d="M264.47 198.46V327.01" stroke="#263238" stroke-miterlimit="10"/>
<path d="M270.09 211.94L264.23 217L259.44 210.6" stroke="#263238" stroke-miterlimit="10"/>
<path d="M270.09 234.31L264.23 239.37L259.44 232.98" stroke="#263238" stroke-miterlimit="10"/>
<path d="M270.09 255.36L264.23 260.42L259.44 254.02" stroke="#263238" stroke-miterlimit="10"/>
<path d="M270.09 280.39L264.23 285.46L259.44 279.06" stroke="#263238" stroke-miterlimit="10"/>
<path d="M270.09 305.7L264.23 310.76L259.44 304.37" stroke="#263238" stroke-miterlimit="10"/>
<path d="M179.1 328.67H215.1C214.41 324.27 211.58 325.05 211.21 318.22C211.02 314.79 214.21 310.54 213.92 306.02C213.7 302.3 210.03 298.49 209.75 294.24C209.49 290.4 212.62 286.14 212.32 282.01C212.03 278.09 208.32 274.34 207.98 270.28C207.64 266.22 210.73 262.01 210.37 258C210.01 253.99 206.22 250.31 205.82 246.36C205.42 242.41 208.37 237.92 207.92 234.03C207.44 229.9 203.54 226.34 203.02 222.54C202.43 218.3 205.19 213.78 204.54 210.13C203.75 205.65 199.54 202.41 198.7 199.13C197.07 192.98 197.27 187.04 195.35 186.66C193.28 186.25 192.82 192.06 191.25 198.56C190.47 201.83 186.39 205.14 185.72 209.62C185.18 213.25 188.06 217.62 187.59 221.88C187.17 225.65 183.37 229.28 183 233.39C182.65 237.25 185.74 241.51 185.43 245.54C185.12 249.57 181.43 253.21 181.2 257.19C180.97 261.17 184.12 265.35 183.91 269.29C183.7 273.23 180.07 277.13 179.91 281.01C179.72 285.11 182.91 289.25 182.8 293.01C182.62 297.23 179.06 301.1 178.92 304.78C178.77 309.26 182.05 313.39 181.92 316.78C181.7 324.18 178.31 322.65 178.19 328.6L179.1 328.67Z" fill="#0987FF"/>
<path opacity="0.5" d="M179.1 328.67H215.1C214.41 324.27 211.58 325.05 211.21 318.22C211.02 314.79 214.21 310.54 213.92 306.02C213.7 302.3 210.03 298.49 209.75 294.24C209.49 290.4 212.62 286.14 212.32 282.01C212.03 278.09 208.32 274.34 207.98 270.28C207.64 266.22 210.73 262.01 210.37 258C210.01 253.99 206.22 250.31 205.82 246.36C205.42 242.41 208.37 237.92 207.92 234.03C207.44 229.9 203.54 226.34 203.02 222.54C202.43 218.3 205.19 213.78 204.54 210.13C203.75 205.65 199.54 202.41 198.7 199.13C197.07 192.98 197.27 187.04 195.35 186.66C193.28 186.25 192.82 192.06 191.25 198.56C190.47 201.83 186.39 205.14 185.72 209.62C185.18 213.25 188.06 217.62 187.59 221.88C187.17 225.65 183.37 229.28 183 233.39C182.65 237.25 185.74 241.51 185.43 245.54C185.12 249.57 181.43 253.21 181.2 257.19C180.97 261.17 184.12 265.35 183.91 269.29C183.7 273.23 180.07 277.13 179.91 281.01C179.72 285.11 182.91 289.25 182.8 293.01C182.62 297.23 179.06 301.1 178.92 304.78C178.77 309.26 182.05 313.39 181.92 316.78C181.7 324.18 178.31 322.65 178.19 328.6L179.1 328.67Z" fill="white"/>
<path d="M194.55 198.46V327.01" stroke="#263238" stroke-miterlimit="10"/>
<path d="M200.17 211.94L194.31 217L189.51 210.6" stroke="#263238" stroke-miterlimit="10"/>
<path d="M200.17 234.31L194.31 239.37L189.51 232.98" stroke="#263238" stroke-miterlimit="10"/>
<path d="M200.17 255.36L194.31 260.42L189.51 254.02" stroke="#263238" stroke-miterlimit="10"/>
<path d="M200.17 280.39L194.31 285.46L189.51 279.06" stroke="#263238" stroke-miterlimit="10"/>
<path d="M200.17 305.7L194.31 310.76L189.51 304.37" stroke="#263238" stroke-miterlimit="10"/>
<path d="M91.1303 317.34H121.35C120.77 313.64 118.4 314.34 118.08 308.56C117.92 305.68 120.59 302.11 120.36 298.32C120.17 295.2 117.09 292 116.85 288.43C116.64 285.2 119.27 281.63 119.01 278.16C118.77 274.87 115.65 271.72 115.37 268.31C115.09 264.9 117.68 261.37 117.37 258.01C117.06 254.65 113.9 251.55 113.56 248.23C113.22 244.91 115.7 241.15 115.32 237.88C114.92 234.42 111.65 231.42 111.2 228.23C110.71 224.68 113.03 220.88 112.48 217.81C111.82 214.05 108.32 211.33 107.58 208.56C106.21 203.39 106.38 198.41 104.76 198.09C103.14 197.77 102.64 202.62 101.33 208.09C100.67 210.83 97.2503 213.61 96.6903 217.37C96.2303 220.42 98.6903 224.12 98.2503 227.66C97.9003 230.83 94.7103 233.88 94.4003 237.33C94.1103 240.57 96.7003 244.14 96.4003 247.53C96.1003 250.92 93.0603 253.96 92.8503 257.31C92.6403 260.66 95.3003 264.16 95.1203 267.46C94.9403 270.76 91.9003 274.05 91.7403 277.31C91.5803 280.75 94.3003 284.23 94.1603 287.42C94.0203 290.96 91.0203 294.21 90.9103 297.31C90.7803 301.06 93.5403 304.53 93.4503 307.39C93.2703 313.61 90.4503 312.32 90.3203 317.32L91.1303 317.34Z" fill="#0987FF"/>
<path opacity="0.5" d="M91.1303 317.34H121.35C120.77 313.64 118.4 314.34 118.08 308.56C117.92 305.68 120.59 302.11 120.36 298.32C120.17 295.2 117.09 292 116.85 288.43C116.64 285.2 119.27 281.63 119.01 278.16C118.77 274.87 115.65 271.72 115.37 268.31C115.09 264.9 117.68 261.37 117.37 258.01C117.06 254.65 113.9 251.55 113.56 248.23C113.22 244.91 115.7 241.15 115.32 237.88C114.92 234.42 111.65 231.42 111.2 228.23C110.71 224.68 113.03 220.88 112.48 217.81C111.82 214.05 108.32 211.33 107.58 208.56C106.21 203.39 106.38 198.41 104.76 198.09C103.14 197.77 102.64 202.62 101.33 208.09C100.67 210.83 97.2503 213.61 96.6903 217.37C96.2303 220.42 98.6903 224.12 98.2503 227.66C97.9003 230.83 94.7103 233.88 94.4003 237.33C94.1103 240.57 96.7003 244.14 96.4003 247.53C96.1003 250.92 93.0603 253.96 92.8503 257.31C92.6403 260.66 95.3003 264.16 95.1203 267.46C94.9403 270.76 91.9003 274.05 91.7403 277.31C91.5803 280.75 94.3003 284.23 94.1603 287.42C94.0203 290.96 91.0203 294.21 90.9103 297.31C90.7803 301.06 93.5403 304.53 93.4503 307.39C93.2703 313.61 90.4503 312.32 90.3203 317.32L91.1303 317.34Z" fill="white"/>
<path d="M104.1 208.02V315.94" stroke="#263238" stroke-miterlimit="10"/>
<path d="M108.82 219.33L103.9 223.58L99.8799 218.21" stroke="#263238" stroke-miterlimit="10"/>
<path d="M108.82 238.12L103.9 242.37L99.8799 237" stroke="#263238" stroke-miterlimit="10"/>
<path d="M108.82 255.78L103.9 260.03L99.8799 254.67" stroke="#263238" stroke-miterlimit="10"/>
<path d="M108.82 276.81L103.9 281.05L99.8799 275.69" stroke="#263238" stroke-miterlimit="10"/>
<path d="M108.82 298.05L103.9 302.3L99.8799 296.93" stroke="#263238" stroke-miterlimit="10"/>
<path d="M136.91 328.67H181.07C180.22 323.27 176.75 324.22 176.29 315.85C176.06 311.64 179.96 306.42 179.63 300.85C179.35 296.28 174.85 291.61 174.5 286.39C174.19 281.68 178.02 276.46 177.65 271.39C177.3 266.59 172.74 261.99 172.34 257C171.94 252.01 175.7 246.86 175.26 241.94C174.82 237.02 170.18 232.51 169.68 227.66C169.18 222.81 172.82 217.31 172.26 212.54C171.67 207.47 166.89 203.1 166.26 198.44C165.54 193.24 168.93 187.69 168.13 183.21C167.13 177.72 162.05 173.74 160.97 169.69C158.97 162.14 159.22 154.86 156.85 154.38C154.33 153.88 153.75 161.01 151.85 168.99C150.85 172.99 145.85 177.05 145.07 182.55C144.4 187 147.94 192.42 147.36 197.55C146.84 202.18 142.18 206.63 141.73 211.67C141.3 216.41 145.08 221.67 144.73 226.58C144.38 231.49 139.85 235.99 139.54 240.87C139.23 245.75 143.13 250.87 142.86 255.71C142.59 260.55 138.15 265.33 137.92 270.09C137.68 275.09 141.66 280.21 141.46 284.88C141.25 290.05 136.87 294.8 136.71 299.32C136.52 304.81 140.55 309.88 140.42 314.06C140.15 323.14 136 321.26 135.85 328.56L136.91 328.67Z" fill="#0987FF"/>
<path opacity="0.5" d="M136.91 328.67H181.07C180.22 323.27 176.75 324.22 176.29 315.85C176.06 311.64 179.96 306.42 179.63 300.85C179.35 296.28 174.85 291.61 174.5 286.39C174.19 281.68 178.02 276.46 177.65 271.39C177.3 266.59 172.74 261.99 172.34 257C171.94 252.01 175.7 246.86 175.26 241.94C174.82 237.02 170.18 232.51 169.68 227.66C169.18 222.81 172.82 217.31 172.26 212.54C171.67 207.47 166.89 203.1 166.26 198.44C165.54 193.24 168.93 187.69 168.13 183.21C167.13 177.72 162.05 173.74 160.97 169.69C158.97 162.14 159.22 154.86 156.85 154.38C154.33 153.88 153.75 161.01 151.85 168.99C150.85 172.99 145.85 177.05 145.07 182.55C144.4 187 147.94 192.42 147.36 197.55C146.84 202.18 142.18 206.63 141.73 211.67C141.3 216.41 145.08 221.67 144.73 226.58C144.38 231.49 139.85 235.99 139.54 240.87C139.23 245.75 143.13 250.87 142.86 255.71C142.59 260.55 138.15 265.33 137.92 270.09C137.68 275.09 141.66 280.21 141.46 284.88C141.25 290.05 136.87 294.8 136.71 299.32C136.52 304.81 140.55 309.88 140.42 314.06C140.15 323.14 136 321.26 135.85 328.56L136.91 328.67Z" fill="white"/>
<path d="M155.87 168.93V326.64" stroke="#263238" stroke-miterlimit="10"/>
<path d="M162.76 185.46L155.57 191.67L149.69 183.83" stroke="#263238" stroke-miterlimit="10"/>
<path d="M162.76 212.91L155.57 219.12L149.69 211.28" stroke="#263238" stroke-miterlimit="10"/>
<path d="M162.76 238.73L155.57 244.94L149.69 237.09" stroke="#263238" stroke-miterlimit="10"/>
<path d="M162.76 269.45L155.57 275.65L149.69 267.81" stroke="#263238" stroke-miterlimit="10"/>
<path d="M162.76 300.49L155.57 306.7L149.69 298.86" stroke="#263238" stroke-miterlimit="10"/>
<path d="M443.94 316.05L436.44 313L428.93 316.05L421.43 313L413.92 316.05L406.42 313L398.92 316.05L391.41 313L383.91 316.05L376.4 313L368.9 316.05L361.4 313L353.89 316.05L346.39 313L338.89 316.05L331.38 313L323.88 316.05L316.37 313L308.87 316.05L301.37 313L293.86 316.05L286.36 313L278.85 316.05L271.35 313L263.85 316.05L256.34 313L248.84 316.05L241.34 313L233.83 316.05L226.33 313L218.83 316.05L211.32 313L203.82 316.05L196.32 313L188.82 316.05L181.31 313L173.81 316.05L166.31 313L158.81 316.05L151.31 313L143.8 316.05L136.3 313L128.8 316.05L121.3 313L113.8 316.05L106.3 313L98.8 316.05L91.29 313L83.79 316.05L76.29 313L68.79 316.05L61.29 313L53.79 316.05L46.29 313L38.79 316.05L31.29 313L23.79 316.05L16.29 313L10 315.56V328.68H445V315.62L443.94 316.05Z" fill="#0987FF"/>
<path d="M301 116.06C296.4 116.06 291.936 117.622 288.34 120.49C287.446 114.981 284.964 109.853 281.198 105.735C277.432 101.617 272.546 98.6882 267.139 97.3077C261.732 95.9273 256.039 96.1554 250.76 97.9642C245.48 99.773 240.844 103.084 237.42 107.49C233.949 102.888 229.206 99.4041 223.777 97.4679C218.348 95.5317 212.471 95.2283 206.872 96.5952C201.272 97.9621 196.196 100.939 192.27 105.159C188.344 109.379 185.74 114.657 184.78 120.34C181.169 119.453 177.383 119.59 173.846 120.736C170.309 121.881 167.162 123.99 164.757 126.825C162.352 129.66 160.785 133.109 160.232 136.786C159.678 140.462 160.16 144.22 161.624 147.637C163.088 151.055 165.475 153.996 168.518 156.132C171.561 158.268 175.139 159.514 178.851 159.729C182.562 159.944 186.26 159.121 189.53 157.351C192.799 155.581 195.511 152.935 197.36 149.71C203.654 153.952 211.341 155.605 218.824 154.328C226.306 153.051 233.009 148.94 237.54 142.85C240.102 146.096 243.338 148.75 247.023 150.628C250.708 152.505 254.756 153.563 258.889 153.729C263.022 153.894 267.142 153.163 270.965 151.585C274.789 150.008 278.226 147.621 281.04 144.59C282.305 148.928 284.933 152.744 288.535 155.474C292.136 158.204 296.521 159.703 301.04 159.75C312.62 159.75 322.04 149.98 322.04 137.92C322.04 125.86 312.58 116.06 301 116.06Z" fill="#263238" stroke="#263238" stroke-linecap="round" stroke-linejoin="round"/>
<path d="M197.36 151.18C197.067 151.181 196.781 151.095 196.537 150.933C196.293 150.771 196.103 150.54 195.99 150.27L183.4 120.91C183.242 120.544 183.236 120.13 183.384 119.76C183.531 119.39 183.819 119.093 184.185 118.935C184.551 118.777 184.965 118.771 185.335 118.919C185.706 119.066 186.002 119.354 186.16 119.72L198.74 149.09C198.823 149.272 198.868 149.469 198.873 149.669C198.879 149.869 198.844 150.068 198.771 150.254C198.699 150.441 198.59 150.611 198.45 150.754C198.311 150.898 198.144 151.012 197.96 151.09C197.768 151.158 197.564 151.188 197.36 151.18V151.18Z" fill="white" stroke="#263238" stroke-miterlimit="10"/>
<path d="M237.54 144.82C237.009 144.82 236.501 144.609 236.126 144.234C235.751 143.859 235.54 143.35 235.54 142.82L235.42 107.45C235.42 106.92 235.631 106.411 236.006 106.036C236.381 105.661 236.889 105.45 237.42 105.45C237.95 105.45 238.459 105.661 238.834 106.036C239.209 106.411 239.42 106.92 239.42 107.45L239.54 142.81C239.54 143.34 239.329 143.849 238.954 144.224C238.579 144.599 238.07 144.81 237.54 144.81V144.82Z" fill="white" stroke="#263238" stroke-miterlimit="10"/>
<path d="M281 146.56C280.801 146.558 280.603 146.531 280.41 146.48C280.158 146.403 279.924 146.278 279.721 146.111C279.518 145.944 279.35 145.738 279.227 145.506C279.103 145.274 279.026 145.019 279.001 144.757C278.976 144.496 279.003 144.231 279.08 143.98L286.38 119.91C286.534 119.402 286.883 118.976 287.351 118.726C287.819 118.475 288.367 118.421 288.875 118.575C289.383 118.729 289.809 119.078 290.059 119.546C290.31 120.014 290.364 120.562 290.21 121.07L283 145.14C282.872 145.565 282.605 145.935 282.243 146.193C281.881 146.45 281.444 146.579 281 146.56Z" fill="white" stroke="#263238" stroke-miterlimit="10"/>
<path d="M290.24 128.26C290.24 128.26 313.81 118.53 319.96 118.53C326.11 118.53 322.53 120.58 319.96 123.14C317.39 125.7 316.12 128.52 317.4 131.34L290.24 128.26Z" fill="#0987FF" stroke="#263238" stroke-linecap="round" stroke-linejoin="round"/>
<path d="M150.08 135.7C150.08 135.7 210.29 122.37 328.93 135.7C328.93 135.7 330.98 134.93 329.7 133.9C328.42 132.87 277.94 123.9 230.54 124.42C183.14 124.94 151.36 129 150.08 135.7Z" fill="#0987FF" stroke="#263238" stroke-linecap="round" stroke-linejoin="round"/>
<path d="M275.63 105.97H209.02C206.612 105.97 204.66 107.922 204.66 110.33V127.23C204.66 129.638 206.612 131.59 209.02 131.59H275.63C278.038 131.59 279.99 129.638 279.99 127.23V110.33C279.99 107.922 278.038 105.97 275.63 105.97Z" fill="#0987FF" stroke="#263238" stroke-linecap="round" stroke-linejoin="round"/>
<path d="M276.47 106H208.18C207.197 106.049 206.274 106.487 205.614 107.216C204.954 107.946 204.611 108.907 204.66 109.89V113.55H280V109.89C280.024 109.403 279.952 108.915 279.788 108.456C279.623 107.997 279.37 107.574 279.042 107.213C278.714 106.851 278.318 106.558 277.877 106.35C277.435 106.142 276.957 106.023 276.47 106Z" fill="white" stroke="#263238" stroke-linecap="round" stroke-linejoin="round"/>
<path d="M284.599 130.57H200.049C197.641 130.57 195.689 132.522 195.689 134.93V154.91C195.689 157.318 197.641 159.27 200.049 159.27H284.599C287.007 159.27 288.959 157.318 288.959 154.91V134.93C288.959 132.522 287.007 130.57 284.599 130.57Z" fill="#B2B2B2" stroke="#263238" stroke-linecap="round" stroke-linejoin="round"/>
<path d="M284.6 130.57H200C198.846 130.573 197.739 131.033 196.924 131.851C196.108 132.668 195.65 133.775 195.65 134.93V139H289V134.9C288.996 134.327 288.879 133.76 288.656 133.231C288.433 132.703 288.107 132.224 287.699 131.822C287.29 131.42 286.806 131.102 286.274 130.887C285.743 130.673 285.174 130.565 284.6 130.57V130.57Z" fill="white" stroke="#263238" stroke-linecap="round" stroke-linejoin="round"/>
<path d="M229.26 141.84H233.1V143.38C233.1 145.146 233.801 146.84 235.05 148.089C236.299 149.338 237.993 150.04 239.76 150.04H245.66C247.426 150.04 249.12 149.338 250.369 148.089C251.618 146.84 252.32 145.146 252.32 143.38V141.59H255.9" stroke="#263238" stroke-width="3" stroke-linecap="round" stroke-linejoin="round"/>
<path d="M290 158H193.51C189.312 157.997 185.257 159.522 182.1 162.29V162.29C180.061 164.073 178.468 166.309 177.45 168.82L155.69 222.51C154.966 224.301 153.81 225.886 152.325 227.123C150.84 228.36 149.073 229.211 147.18 229.6L121.7 234.82C116.862 235.807 112.325 237.925 108.46 241C102.575 245.71 98.5879 252.386 97.2304 259.8L94.1204 276.8C93.7717 278.722 93.8556 280.697 94.3658 282.583C94.8761 284.468 95.8 286.216 97.0704 287.7V287.7C98.3069 289.141 99.8413 290.297 101.568 291.088C103.294 291.878 105.172 292.285 107.07 292.28H136.36L159.36 306.28H272.36L334.7 297.28L348.34 296.28C349.938 296.174 351.483 295.667 352.834 294.808C354.185 293.948 355.298 292.762 356.07 291.36C357.997 287.962 359.122 284.169 359.36 280.27C359.7 271.61 357.36 262.94 353.03 254.61C348.7 246.28 342.36 245.27 334.03 217.61C325.7 189.95 322 177.33 313.67 168C305.34 158.67 290 158 290 158Z" fill="#0987FF" stroke="#263238" stroke-linecap="round" stroke-linejoin="round"/>
<path d="M160.67 238.67V294.67C160.67 296.614 161.442 298.478 162.817 299.853C164.191 301.228 166.056 302 168 302H256C257.366 302 258.717 301.71 259.963 301.15C261.209 300.59 262.323 299.772 263.23 298.75C264.808 296.98 265.68 294.691 265.68 292.32V241.32" stroke="#263238" stroke-linecap="round" stroke-linejoin="round"/>
<path d="M123.5 246.5H334.5" stroke="#263238" stroke-linecap="round" stroke-linejoin="round"/>
<path d="M261.33 250.67H250.67C250.139 250.67 249.631 250.459 249.256 250.084C248.881 249.709 248.67 249.2 248.67 248.67C248.67 248.139 248.881 247.631 249.256 247.256C249.631 246.881 250.139 246.67 250.67 246.67H261.33C261.86 246.67 262.369 246.881 262.744 247.256C263.119 247.631 263.33 248.139 263.33 248.67C263.33 248.933 263.278 249.193 263.178 249.435C263.077 249.678 262.93 249.898 262.744 250.084C262.558 250.27 262.338 250.417 262.095 250.518C261.853 250.618 261.593 250.67 261.33 250.67V250.67Z" fill="#263238" stroke="#263238" stroke-linecap="round" stroke-linejoin="round"/>
<path d="M206 163H202.8C197.488 163.002 192.305 164.64 187.955 167.69C183.606 170.74 180.301 175.056 178.49 180.05L159.77 231.77C159.571 232.322 159.508 232.914 159.586 233.496C159.664 234.078 159.881 234.633 160.218 235.113C160.555 235.593 161.003 235.986 161.524 236.257C162.045 236.528 162.623 236.669 163.21 236.67H258C258.832 236.67 259.656 236.506 260.425 236.187C261.194 235.868 261.892 235.401 262.48 234.812C263.068 234.224 263.534 233.525 263.851 232.755C264.169 231.986 264.331 231.162 264.33 230.33V171.17C264.331 170.098 264.121 169.035 263.712 168.044C263.302 167.053 262.702 166.152 261.944 165.394C261.186 164.635 260.286 164.033 259.295 163.622C258.305 163.211 257.243 163 256.17 163H206Z" fill="#757575"/>
<path d="M255 201.8C255 201.8 264.68 209.63 267.21 215.39C269.74 221.15 273.21 237.5 273.21 237.5H214.49C214.49 237.5 230.15 219.5 236.6 213.78C243.05 208.06 255 201.8 255 201.8Z" fill="white"/>
<path d="M250.78 217.52C252.03 216.27 254.52 216.77 254.52 220.76C254.594 221.808 254.279 222.846 253.635 223.677C252.991 224.507 252.064 225.071 251.03 225.26C252.474 225.286 253.905 225.539 255.27 226.01C257.27 226.76 256.52 231.01 252.27 232.01C248.02 233.01 247.52 226.76 247.52 226.76C246.922 227.62 246.419 228.542 246.02 229.51C245.27 231.26 238.27 232.51 238.77 228.26C239.27 224.01 245.27 224.51 244.27 224.01C243.27 223.51 237.02 217.77 242.27 216.01C247.52 214.25 247.77 223.01 247.77 223.01C247.77 223.01 249.53 218.77 250.78 217.52ZM265.52 212.52C265.52 212.52 265.27 203.77 260.02 205.52C254.77 207.27 261.02 213.02 262.02 213.52C263.02 214.02 257.02 213.52 256.52 217.77C256.02 222.02 263.02 220.77 263.77 219.02C264.169 218.052 264.672 217.13 265.27 216.27C265.27 216.27 265.77 222.51 270.02 221.51C274.27 220.51 275.02 216.27 273.02 215.51C271.655 215.04 270.224 214.787 268.78 214.76C269.814 214.571 270.741 214.007 271.385 213.177C272.029 212.346 272.344 211.308 272.27 210.26C272.27 206.26 269.78 205.76 268.53 207.01C267.28 208.26 265.52 212.52 265.52 212.52ZM266.02 233.52C266.02 233.52 265.77 224.77 260.52 226.52C255.27 228.27 261.52 234.02 262.52 234.52C263.52 235.02 257.52 234.52 257.02 238.76C256.52 243 263.52 241.76 264.27 240.01C264.668 239.044 265.171 238.125 265.77 237.27C265.77 237.27 266.27 243.51 270.52 242.51C274.77 241.51 275.52 237.27 273.52 236.51C272.155 236.04 270.724 235.787 269.28 235.76C270.314 235.571 271.241 235.007 271.885 234.177C272.529 233.346 272.844 232.308 272.77 231.26C272.77 227.26 270.28 226.76 269.03 228.01C267.78 229.26 266 233.51 266 233.51L266.02 233.52ZM229.79 234.02C229.79 234.02 229.54 225.27 224.29 227.02C219.04 228.77 225.29 234.52 226.29 235.02C227.29 235.52 221.29 235.02 220.79 239.26C220.29 243.5 227.29 242.26 228.04 240.51C228.438 239.544 228.941 238.625 229.54 237.77C229.54 237.77 230.04 244.01 234.29 243.01C238.54 242.01 239.29 237.77 237.29 237.01C235.925 236.539 234.494 236.286 233.05 236.26C234.084 236.071 235.011 235.507 235.655 234.677C236.299 233.846 236.614 232.808 236.54 231.76C236.54 227.76 234.05 227.26 232.8 228.51C231.55 229.76 229.79 234 229.79 234V234.02ZM247.79 204.78C247.79 204.78 247.54 196.04 242.29 197.78C237.04 199.52 243.29 205.27 244.29 205.78C245.29 206.29 239.29 205.78 238.79 210.03C238.29 214.28 245.29 213.03 246.04 211.28C246.439 210.312 246.942 209.39 247.54 208.53C247.54 208.53 248.04 214.78 252.29 213.78C256.54 212.78 257.29 208.53 255.29 207.78C253.911 207.294 252.463 207.03 251 207C252.032 206.811 252.958 206.249 253.601 205.42C254.245 204.592 254.561 203.556 254.49 202.51C254.49 198.51 252 198.01 250.75 199.26C249.5 200.51 247.78 204.77 247.78 204.77L247.79 204.78Z" fill="#0987FF"/>
<path d="M255 201.8C255 201.8 264.68 209.63 267.21 215.39C269.74 221.15 273.21 237.5 273.21 237.5H214.49C214.49 237.5 230.15 219.5 236.6 213.78C243.05 208.06 255 201.8 255 201.8Z" stroke="#263238" stroke-linecap="round" stroke-linejoin="round"/>
<path d="M214.49 237.5H243.18C242.94 231.72 242.12 219.92 239.36 217C237.78 215.31 235.08 216.19 232.52 217.74C225.17 225.25 214.49 237.5 214.49 237.5Z" stroke="#263238" stroke-linecap="round" stroke-linejoin="round"/>
<path d="M225.311 172.09C225.311 172.09 220.711 177.62 220.711 178.77C220.783 180.204 220.287 181.609 219.331 182.68C218.171 183.84 214.721 187.29 214.721 189.13C214.721 190.97 218.401 190.51 218.401 190.51C218.401 190.51 213.801 196.51 215.181 198.57C216.561 200.63 233.841 215.62 233.841 215.62L253.841 199.73L252.461 196.73C253.479 195.197 254.183 193.477 254.531 191.67C254.761 189.36 256.381 180.84 248.531 175.31C240.681 169.78 228.771 169.1 225.311 172.09Z" fill="white" stroke="#263238" stroke-linecap="round" stroke-linejoin="round"/>
<path d="M252.49 196.73C253.509 195.197 254.212 193.477 254.56 191.67C254.79 189.36 256.41 180.84 248.56 175.31C244.729 172.74 240.342 171.115 235.76 170.57C237.48 171.57 240.76 173.73 240.96 175.77C241.19 178.54 238.2 178.77 238.2 178.77C238.2 178.77 232.67 181.07 233.36 182.22C234.05 183.37 237.05 185.45 237.05 186.14C237.05 186.83 235.21 189.59 236.82 190.05C238.43 190.51 239.35 186.6 241.66 187.05C243.97 187.5 244.88 187.28 244.19 190.96C243.5 194.64 241.43 195.57 241.43 196.26C241.43 196.95 248.43 198.2 252.79 197.38L252.49 196.73Z" fill="#263238" stroke="#263238" stroke-linecap="round" stroke-linejoin="round"/>
<path d="M226.7 170.94C226.7 170.94 242.82 156.2 244.89 156.2C246.96 156.2 260.09 163.8 260.55 166.79C261.01 169.78 257.33 190.05 257.33 190.05L226.7 170.94Z" fill="white" stroke="#263238" stroke-linecap="round" stroke-linejoin="round"/>
<path d="M226.7 170.94L257.33 190.05C257.33 190.05 258.04 186.15 258.79 181.52L231.85 166.32C228.94 168.89 226.7 170.94 226.7 170.94Z" fill="#263238" stroke="#263238" stroke-linecap="round" stroke-linejoin="round"/>
<path d="M215.641 167.48C215.641 167.48 262.161 202.48 262.851 199.73C263.541 196.98 262.391 192.82 259.171 188.9C255.951 184.98 238.171 173.7 229.921 170.02C221.671 166.34 216.101 164.72 215.641 167.48Z" fill="white" stroke="#263238" stroke-linecap="round" stroke-linejoin="round"/>
<path d="M225.001 182.09C224.431 184.24 223.211 185.79 222.291 185.54C221.371 185.29 221.091 183.35 221.671 181.2C222.251 179.05 223.461 177.51 224.381 177.75C225.301 177.99 225.601 180 225.001 182.09Z" stroke="#263238" stroke-linecap="round" stroke-linejoin="round"/>
<path d="M225.021 182.09L239.36 187.75" stroke="#263238" stroke-linecap="round" stroke-linejoin="round"/>
<path d="M217.94 191.9C219.241 192.266 220.618 192.266 221.919 191.899C223.219 191.532 224.393 190.812 225.31 189.82" stroke="#263238" stroke-linecap="round" stroke-linejoin="round"/>
<path d="M224.62 188.44L226.7 191.2" stroke="#263238" stroke-linecap="round" stroke-linejoin="round"/>
<path d="M228.5 212L229.14 221.67L255.86 201.87L253.64 197.42L228.5 212Z" fill="white" stroke="#263238" stroke-linecap="round" stroke-linejoin="round"/>
<path d="M192.341 238.17L187.691 239.48L180.861 215.2C180.772 214.893 180.746 214.571 180.783 214.253C180.82 213.936 180.919 213.629 181.075 213.35C181.231 213.071 181.441 212.826 181.693 212.628C181.944 212.431 182.232 212.285 182.541 212.2V212.2C182.847 212.112 183.168 212.085 183.485 212.121C183.802 212.157 184.109 212.256 184.388 212.411C184.667 212.566 184.912 212.775 185.11 213.025C185.308 213.276 185.454 213.563 185.541 213.87L192.341 238.17Z" fill="#263238" stroke="#263238" stroke-linecap="round" stroke-linejoin="round"/>
<path d="M198.17 225.56C198.17 225.56 191.6 216.71 189.7 214.06C187.8 211.41 185.9 211.53 184.64 212.29C183.38 213.05 177.43 217.72 177.81 219.24C178.19 220.76 181.48 228.24 181.98 229.24C182.226 229.783 182.616 230.247 183.108 230.582C183.601 230.917 184.176 231.11 184.77 231.14C186.03 231.14 187.17 228.48 187.17 228.48H189.17C189.17 228.48 191.58 233.67 194.23 234.81C196.043 235.497 197.991 235.754 199.92 235.56L202.32 238.85H212.82L198.17 225.56Z" fill="white" stroke="#263238" stroke-linecap="round" stroke-linejoin="round"/>
<path d="M182.741 230.12C182.469 229.786 182.3 229.38 182.256 228.952C182.212 228.524 182.293 228.092 182.491 227.71C183.121 226.2 185.151 223.16 185.651 223.16C186.151 223.16 190.581 222.91 190.581 222.91" stroke="#263238" stroke-linecap="round" stroke-linejoin="round"/>
<path d="M180.851 225.56C180.851 225.56 183.121 220.63 184.261 220.13C185.401 219.63 190.081 219.62 190.081 219.62" stroke="#263238" stroke-linecap="round" stroke-linejoin="round"/>
<path d="M179.2 222.15C179.2 222.15 181.98 216.84 183.63 216.59C185.184 216.413 186.746 216.326 188.31 216.33" stroke="#263238" stroke-linecap="round" stroke-linejoin="round"/>
<path d="M206 163H202.8C197.488 163.002 192.305 164.64 187.955 167.69C183.606 170.74 180.301 175.056 178.49 180.05L159.77 231.77C159.571 232.322 159.508 232.914 159.586 233.496C159.664 234.078 159.881 234.633 160.218 235.113C160.555 235.593 161.003 235.986 161.524 236.257C162.045 236.528 162.623 236.669 163.21 236.67H258C258.832 236.67 259.656 236.506 260.425 236.187C261.194 235.868 261.892 235.401 262.48 234.812C263.068 234.224 263.534 233.525 263.851 232.755C264.169 231.986 264.331 231.162 264.33 230.33V171.17C264.331 170.098 264.121 169.035 263.712 168.044C263.302 167.053 262.702 166.152 261.944 165.394C261.186 164.635 260.286 164.033 259.295 163.622C258.305 163.211 257.243 163 256.17 163H206Z" stroke="#263238" stroke-linecap="round" stroke-linejoin="round"/>
<path d="M273.67 169.4V231.67C273.67 233.084 274.231 234.439 275.231 235.439C276.231 236.438 277.586 237 279 237H330L315 186C313.462 180.76 310.507 176.047 306.46 172.38V172.38C301.204 167.611 294.414 164.883 287.32 164.69L278.72 164.46C278.062 164.445 277.408 164.562 276.796 164.804C276.184 165.046 275.626 165.407 275.155 165.867C274.685 166.328 274.311 166.877 274.056 167.484C273.801 168.09 273.67 168.742 273.67 169.4V169.4Z" fill="#757575"/>
<path d="M315.49 187.62L275.71 235.84C276.645 236.585 277.804 236.993 279 237H297.6L321.73 208.85L315.49 187.62Z" fill="white"/>
<path d="M327.63 228.93L324.46 218.14L309.33 237H320.5L327.63 228.93Z" fill="white"/>
<path d="M273.67 169.4V231.67C273.67 233.084 274.231 234.439 275.231 235.439C276.231 236.438 277.586 237 279 237H330L315 186C313.462 180.76 310.507 176.047 306.46 172.38V172.38C301.204 167.611 294.414 164.883 287.32 164.69L278.72 164.46C278.062 164.445 277.408 164.562 276.796 164.804C276.184 165.046 275.626 165.407 275.155 165.867C274.685 166.328 274.311 166.877 274.056 167.484C273.801 168.09 273.67 168.742 273.67 169.4V169.4Z" stroke="#263238" stroke-linecap="round" stroke-linejoin="round"/>
<path d="M195 164.21C191.217 165.405 187.76 167.456 184.896 170.203C182.033 172.95 179.841 176.319 178.49 180.05L159.77 231.77C159.571 232.322 159.508 232.914 159.586 233.496C159.664 234.078 159.881 234.632 160.218 235.113C160.555 235.593 161.003 235.986 161.524 236.257C162.045 236.528 162.623 236.669 163.21 236.67H195V164.21Z" stroke="#263238" stroke-linecap="round" stroke-linejoin="round"/>
<path d="M94.1199 276.85C94.1199 276.85 90.6699 279.33 90.6699 282.33C90.6699 285.33 92.6699 289.33 94.6699 290C96.6699 290.67 97.0699 287.75 97.0699 287.75C97.0699 287.75 94.2499 280.69 94.1199 276.85Z" fill="#263238" stroke="#263238" stroke-linecap="round" stroke-linejoin="round"/>
<path d="M101.278 247.226L98.3207 246.667C96.785 246.377 95.3046 247.386 95.0141 248.922L91.4813 267.601C91.1909 269.136 92.2004 270.617 93.7361 270.907L96.6937 271.467C98.2294 271.757 99.7098 270.748 100 269.212L103.533 250.533C103.824 248.997 102.814 247.517 101.278 247.226Z" fill="white" stroke="#263238" stroke-linecap="round" stroke-linejoin="round"/>
<path d="M359.33 261H357C354.421 261 352.33 263.091 352.33 265.67V279C352.33 281.579 354.421 283.67 357 283.67H359.33C361.909 283.67 364 281.579 364 279V265.67C364 263.091 361.909 261 359.33 261Z" fill="white" stroke="#263238" stroke-linecap="round" stroke-linejoin="round"/>
<path d="M128.83 328.67C146.045 328.67 160 314.715 160 297.5C160 280.285 146.045 266.33 128.83 266.33C111.615 266.33 97.6602 280.285 97.6602 297.5C97.6602 314.715 111.615 328.67 128.83 328.67Z" fill="#263238"/>
<path d="M127.5 258L128.83 297.5L109 265L127.5 258ZM151 328.46L128.84 297.46L133.07 336.76L151 328.46Z" fill="white"/>
<path d="M128.83 328.67C146.045 328.67 160 314.715 160 297.5C160 280.285 146.045 266.33 128.83 266.33C111.615 266.33 97.6602 280.285 97.6602 297.5C97.6602 314.715 111.615 328.67 128.83 328.67Z" stroke="#263238" stroke-linecap="round" stroke-linejoin="round"/>
<path d="M128.83 318C140.152 318 149.33 308.822 149.33 297.5C149.33 286.178 140.152 277 128.83 277C117.508 277 108.33 286.178 108.33 297.5C108.33 308.822 117.508 318 128.83 318Z" fill="white" stroke="#263238" stroke-linecap="round" stroke-linejoin="round"/>
<path d="M128.83 312.33C137.02 312.33 143.66 305.69 143.66 297.5C143.66 289.31 137.02 282.67 128.83 282.67C120.64 282.67 114 289.31 114 297.5C114 305.69 120.64 312.33 128.83 312.33Z" fill="white" stroke="#263238" stroke-linecap="round" stroke-linejoin="round"/>
<path d="M332.24 312.401C340.446 297.268 334.831 278.348 319.698 270.141C304.565 261.935 285.645 267.55 277.439 282.683C269.233 297.816 274.848 316.736 289.981 324.942C305.113 333.149 324.034 327.534 332.24 312.401Z" fill="#263238"/>
<path d="M342.069 284.25L304.829 297.5L329.829 268.74L342.069 284.25ZM282.069 328.01L304.849 297.5L268.689 313.44L282.069 328.01Z" fill="white"/>
<path d="M332.24 312.401C340.446 297.268 334.831 278.348 319.698 270.141C304.565 261.935 285.645 267.55 277.439 282.683C269.233 297.816 274.848 316.736 289.981 324.942C305.113 333.149 324.034 327.534 332.24 312.401Z" stroke="#263238" stroke-linecap="round" stroke-linejoin="round"/>
<path d="M323.419 306.131C328.19 295.864 323.733 283.673 313.465 278.902C303.198 274.132 291.007 278.588 286.236 288.856C281.466 299.124 285.922 311.315 296.19 316.085C306.458 320.855 318.649 316.399 323.419 306.131Z" fill="white" stroke="#263238" stroke-linecap="round" stroke-linejoin="round"/>
<path d="M308.945 311.725C316.816 309.46 321.362 301.244 319.097 293.372C316.833 285.501 308.616 280.956 300.745 283.221C292.874 285.485 288.329 293.702 290.593 301.573C292.858 309.444 301.074 313.989 308.945 311.725Z" fill="white" stroke="#263238" stroke-linecap="round" stroke-linejoin="round"/>
<path d="M164.47 230.42C166.88 235.75 167.47 240.71 165.69 241.5C163.91 242.29 160.58 238.6 158.17 233.27C155.76 227.94 155.17 222.97 156.95 222.18C158.73 221.39 162.05 225.08 164.47 230.42Z" fill="#263238" stroke="#263238" stroke-linecap="round" stroke-linejoin="round"/>
<path d="M1.34961 328.67H451.09" stroke="#263238" stroke-linecap="round" stroke-linejoin="round"/>
</svg>
