<svg width="431" height="290" viewBox="0 0 431 290" fill="none" xmlns="http://www.w3.org/2000/svg">
<path d="M370.91 97.78C370.91 97.78 339.26 37.88 273.17 14.66C207.08 -8.56 176.54 11.72 142.68 33.66C116 50.93 95.1598 76 73.3298 98.09C53.3298 118.37 24.0298 134.09 14.7798 162.16C3.08977 197.66 29.5898 236 60.9998 256.65C104.88 285.43 147.42 267.82 193.24 261.06H193.5C200.152 260.04 206.87 259.505 213.6 259.46C266.82 259.57 305.01 297.15 343.78 258.46C382.55 219.77 388.74 144.4 370.91 97.78Z" fill="#0987FF"/>
<path opacity="0.75" d="M370.91 97.78C370.91 97.78 339.26 37.88 273.17 14.66C207.08 -8.56 176.54 11.72 142.68 33.66C116 50.93 95.1598 76 73.3298 98.09C53.3298 118.37 24.0298 134.09 14.7798 162.16C3.08977 197.66 29.5898 236 60.9998 256.65C104.88 285.43 147.42 267.82 193.24 261.06H193.5C200.152 260.04 206.87 259.505 213.6 259.46C266.82 259.57 305.01 297.15 343.78 258.46C382.55 219.77 388.74 144.4 370.91 97.78Z" fill="white"/>
<path d="M349.48 87C346.29 85.26 344.84 86.71 343.67 85.26C342.5 83.81 346.87 80.03 338.16 76.26C338.16 76.26 337.58 68.13 325.67 67.84C313.76 67.55 317 75.93 313.77 78C310.54 80.07 309.7 76.84 306.51 78.87C303.32 80.9 304.76 84.97 302.15 85.55C299.54 86.13 296.05 82.94 292.86 84.97C289.67 87 289.66 88.74 288.21 88.74C286.76 88.74 283.86 87.58 282.11 88.74C280.36 89.9 278.34 91.36 278.34 91.36H351.8C351.8 91.36 352.68 88.7 349.48 87Z" fill="white" stroke="#263238" stroke-miterlimit="10"/>
<path d="M168.6 112C167.15 111.21 166.49 111.87 165.97 111.21C165.45 110.55 167.42 108.84 163.46 107.13C163.46 107.13 163.2 103.43 157.79 103.3C152.38 103.17 153.84 106.99 152.39 107.92C150.94 108.85 150.55 107.39 149.1 108.31C147.65 109.23 148.3 111.08 147.1 111.31C145.9 111.54 144.33 110.13 142.88 111.05C141.43 111.97 141.43 112.76 140.77 112.76C140.11 112.76 138.77 112.24 138 112.76C137.23 113.28 136.29 113.95 136.29 113.95H169.64C169.725 113.554 169.668 113.141 169.477 112.784C169.287 112.427 168.976 112.149 168.6 112V112Z" fill="white" stroke="#263238" stroke-miterlimit="10"/>
<path d="M195.62 28C193.62 26.92 192.72 27.82 191.99 26.92C191.26 26.02 193.99 23.65 188.55 21.3C188.55 21.3 188.19 16.22 180.76 16.04C173.33 15.86 175.32 21.12 173.32 22.38C171.32 23.64 170.79 21.66 168.79 22.93C166.79 24.2 167.71 26.73 166.07 27.1C164.43 27.47 162.27 25.47 160.28 26.73C158.29 27.99 158.28 29.09 157.38 29.09C156.48 29.09 154.66 28.36 153.57 29.09C152.48 29.82 151.21 30.72 151.21 30.72H197.07C197.197 30.168 197.12 29.5888 196.853 29.0891C196.587 28.5893 196.149 28.2026 195.62 28Z" fill="white" stroke="#263238" stroke-miterlimit="10"/>
<path d="M66.7596 127.7H58.5996V135.92H66.7596V127.7Z" stroke="#263238" stroke-miterlimit="10"/>
<path d="M53.1 132.67H49.79V135.91H53.1V132.67Z" stroke="#263238" stroke-miterlimit="10"/>
<path d="M384.86 179.6H353.94V114.38H356.01V107.62H283.58V114.38H286.09V211.37H267.09V3.28H201.94V160.65H178.13V143.23H184.36V135.86H132.28V30.28H135.65V24.76H72.42V30.28H76.96V136.04H26.99V211.67H0.75" stroke="#263238" stroke-miterlimit="10"/>
<path d="M269.68 1H199.04V3.26H269.68V1Z" stroke="#263238" stroke-miterlimit="10"/>
<path d="M90.5704 36.42H82.6104V44.94H90.5704V36.42Z" stroke="#263238" stroke-miterlimit="10"/>
<path d="M102.24 36.42H94.2803V44.94H102.24V36.42Z" stroke="#263238" stroke-miterlimit="10"/>
<path d="M113.91 36.42H105.95V44.94H113.91V36.42Z" stroke="#263238" stroke-miterlimit="10"/>
<path d="M125.59 36.42H117.63V44.94H125.59V36.42Z" stroke="#263238" stroke-miterlimit="10"/>
<path d="M90.5704 49.93H82.6104V58.45H90.5704V49.93Z" stroke="#263238" stroke-miterlimit="10"/>
<path d="M102.24 49.93H94.2803V58.45H102.24V49.93Z" stroke="#263238" stroke-miterlimit="10"/>
<path d="M113.91 49.93H105.95V58.45H113.91V49.93Z" stroke="#263238" stroke-miterlimit="10"/>
<path d="M125.59 49.93H117.63V58.45H125.59V49.93Z" stroke="#263238" stroke-miterlimit="10"/>
<path d="M90.5704 63.43H82.6104V71.95H90.5704V63.43Z" stroke="#263238" stroke-miterlimit="10"/>
<path d="M102.24 63.43H94.2803V71.95H102.24V63.43Z" stroke="#263238" stroke-miterlimit="10"/>
<path d="M113.91 63.43H105.95V71.95H113.91V63.43Z" stroke="#263238" stroke-miterlimit="10"/>
<path d="M125.59 63.43H117.63V71.95H125.59V63.43Z" stroke="#263238" stroke-miterlimit="10"/>
<path d="M90.5704 76.93H82.6104V85.45H90.5704V76.93Z" stroke="#263238" stroke-miterlimit="10"/>
<path d="M102.24 76.93H94.2803V85.45H102.24V76.93Z" stroke="#263238" stroke-miterlimit="10"/>
<path d="M113.91 76.93H105.95V85.45H113.91V76.93Z" stroke="#263238" stroke-miterlimit="10"/>
<path d="M125.59 76.93H117.63V85.45H125.59V76.93Z" stroke="#263238" stroke-miterlimit="10"/>
<path d="M90.5704 90.44H82.6104V98.96H90.5704V90.44Z" stroke="#263238" stroke-miterlimit="10"/>
<path d="M102.24 90.44H94.2803V98.96H102.24V90.44Z" stroke="#263238" stroke-miterlimit="10"/>
<path d="M113.91 90.44H105.95V98.96H113.91V90.44Z" stroke="#263238" stroke-miterlimit="10"/>
<path d="M125.59 90.44H117.63V98.96H125.59V90.44Z" stroke="#263238" stroke-miterlimit="10"/>
<path d="M90.5704 103.94H82.6104V112.46H90.5704V103.94Z" stroke="#263238" stroke-miterlimit="10"/>
<path d="M102.24 103.94H94.2803V112.46H102.24V103.94Z" stroke="#263238" stroke-miterlimit="10"/>
<path d="M113.91 103.94H105.95V112.46H113.91V103.94Z" stroke="#263238" stroke-miterlimit="10"/>
<path d="M125.59 103.94H117.63V112.46H125.59V103.94Z" stroke="#263238" stroke-miterlimit="10"/>
<path d="M90.5704 117.45H82.6104V125.97H90.5704V117.45Z" stroke="#263238" stroke-miterlimit="10"/>
<path d="M102.24 117.45H94.2803V125.97H102.24V117.45Z" stroke="#263238" stroke-miterlimit="10"/>
<path d="M113.91 117.45H105.95V125.97H113.91V117.45Z" stroke="#263238" stroke-miterlimit="10"/>
<path d="M125.59 117.45H117.63V125.97H125.59V117.45Z" stroke="#263238" stroke-miterlimit="10"/>
<path d="M90.5704 130.95H82.6104V139.47H90.5704V130.95Z" stroke="#263238" stroke-miterlimit="10"/>
<path d="M102.24 130.95H94.2803V139.47H102.24V130.95Z" stroke="#263238" stroke-miterlimit="10"/>
<path d="M113.91 130.95H105.95V139.47H113.91V130.95Z" stroke="#263238" stroke-miterlimit="10"/>
<path d="M125.59 130.95H117.63V139.47H125.59V130.95Z" stroke="#263238" stroke-miterlimit="10"/>
<path d="M90.5704 143.3H82.6104V151.82H90.5704V143.3Z" stroke="#263238" stroke-miterlimit="10"/>
<path d="M102.24 143.3H94.2803V151.82H102.24V143.3Z" stroke="#263238" stroke-miterlimit="10"/>
<path d="M113.91 143.3H105.95V151.82H113.91V143.3Z" stroke="#263238" stroke-miterlimit="10"/>
<path d="M125.59 143.3H117.63V151.82H125.59V143.3Z" stroke="#263238" stroke-miterlimit="10"/>
<path d="M90.5704 156.81H82.6104V165.33H90.5704V156.81Z" stroke="#263238" stroke-miterlimit="10"/>
<path d="M102.24 156.81H94.2803V165.33H102.24V156.81Z" stroke="#263238" stroke-miterlimit="10"/>
<path d="M113.91 156.81H105.95V165.33H113.91V156.81Z" stroke="#263238" stroke-miterlimit="10"/>
<path d="M125.59 156.81H117.63V165.33H125.59V156.81Z" stroke="#263238" stroke-miterlimit="10"/>
<path d="M90.5704 170.31H82.6104V178.83H90.5704V170.31Z" stroke="#263238" stroke-miterlimit="10"/>
<path d="M102.24 170.31H94.2803V178.83H102.24V170.31Z" stroke="#263238" stroke-miterlimit="10"/>
<path d="M113.91 170.31H105.95V178.83H113.91V170.31Z" stroke="#263238" stroke-miterlimit="10"/>
<path d="M125.59 170.31H117.63V178.83H125.59V170.31Z" stroke="#263238" stroke-miterlimit="10"/>
<path d="M90.5704 183.81H82.6104V192.33H90.5704V183.81Z" stroke="#263238" stroke-miterlimit="10"/>
<path d="M102.24 183.81H94.2803V192.33H102.24V183.81Z" stroke="#263238" stroke-miterlimit="10"/>
<path d="M113.91 183.81H105.95V192.33H113.91V183.81Z" stroke="#263238" stroke-miterlimit="10"/>
<path d="M125.59 183.81H117.63V192.33H125.59V183.81Z" stroke="#263238" stroke-miterlimit="10"/>
<path d="M90.5704 197.32H82.6104V205.84H90.5704V197.32Z" stroke="#263238" stroke-miterlimit="10"/>
<path d="M102.24 197.32H94.2803V205.84H102.24V197.32Z" stroke="#263238" stroke-miterlimit="10"/>
<path d="M113.91 197.32H105.95V205.84H113.91V197.32Z" stroke="#263238" stroke-miterlimit="10"/>
<path d="M125.59 197.32H117.63V205.84H125.59V197.32Z" stroke="#263238" stroke-miterlimit="10"/>
<path d="M90.5704 210.82H82.6104V219.34H90.5704V210.82Z" stroke="#263238" stroke-miterlimit="10"/>
<path d="M102.24 210.82H94.2803V219.34H102.24V210.82Z" stroke="#263238" stroke-miterlimit="10"/>
<path d="M113.91 210.82H105.95V219.34H113.91V210.82Z" stroke="#263238" stroke-miterlimit="10"/>
<path d="M125.59 210.82H117.63V219.34H125.59V210.82Z" stroke="#263238" stroke-miterlimit="10"/>
<path d="M90.5704 224.33H82.6104V232.85H90.5704V224.33Z" stroke="#263238" stroke-miterlimit="10"/>
<path d="M102.24 224.33H94.2803V232.85H102.24V224.33Z" stroke="#263238" stroke-miterlimit="10"/>
<path d="M113.91 224.33H105.95V232.85H113.91V224.33Z" stroke="#263238" stroke-miterlimit="10"/>
<path d="M125.59 224.33H117.63V232.85H125.59V224.33Z" stroke="#263238" stroke-miterlimit="10"/>
<path d="M90.5704 237.83H82.6104V246.35H90.5704V237.83Z" stroke="#263238" stroke-miterlimit="10"/>
<path d="M102.24 237.83H94.2803V246.35H102.24V237.83Z" stroke="#263238" stroke-miterlimit="10"/>
<path d="M113.91 237.83H105.95V246.35H113.91V237.83Z" stroke="#263238" stroke-miterlimit="10"/>
<path d="M125.59 237.83H117.63V246.35H125.59V237.83Z" stroke="#263238" stroke-miterlimit="10"/>
<path d="M136.16 143.3H128.2V151.82H136.16V143.3Z" stroke="#263238" stroke-miterlimit="10"/>
<path d="M147.83 143.3H139.87V151.82H147.83V143.3Z" stroke="#263238" stroke-miterlimit="10"/>
<path d="M159.5 143.3H151.54V151.82H159.5V143.3Z" stroke="#263238" stroke-miterlimit="10"/>
<path d="M171.17 143.3H163.21V151.82H171.17V143.3Z" stroke="#263238" stroke-miterlimit="10"/>
<path d="M136.16 156.81H128.2V165.33H136.16V156.81Z" stroke="#263238" stroke-miterlimit="10"/>
<path d="M147.83 156.81H139.87V165.33H147.83V156.81Z" stroke="#263238" stroke-miterlimit="10"/>
<path d="M159.5 156.81H151.54V165.33H159.5V156.81Z" stroke="#263238" stroke-miterlimit="10"/>
<path d="M171.17 156.81H163.21V165.33H171.17V156.81Z" stroke="#263238" stroke-miterlimit="10"/>
<path d="M136.16 170.31H128.2V178.83H136.16V170.31Z" stroke="#263238" stroke-miterlimit="10"/>
<path d="M147.83 170.31H139.87V178.83H147.83V170.31Z" stroke="#263238" stroke-miterlimit="10"/>
<path d="M159.5 170.31H151.54V178.83H159.5V170.31Z" stroke="#263238" stroke-miterlimit="10"/>
<path d="M171.17 170.31H163.21V178.83H171.17V170.31Z" stroke="#263238" stroke-miterlimit="10"/>
<path d="M136.16 183.81H128.2V192.33H136.16V183.81Z" stroke="#263238" stroke-miterlimit="10"/>
<path d="M147.83 183.81H139.87V192.33H147.83V183.81Z" stroke="#263238" stroke-miterlimit="10"/>
<path d="M159.5 183.81H151.54V192.33H159.5V183.81Z" stroke="#263238" stroke-miterlimit="10"/>
<path d="M171.17 183.81H163.21V192.33H171.17V183.81Z" stroke="#263238" stroke-miterlimit="10"/>
<path d="M136.16 197.32H128.2V205.84H136.16V197.32Z" stroke="#263238" stroke-miterlimit="10"/>
<path d="M147.83 197.32H139.87V205.84H147.83V197.32Z" stroke="#263238" stroke-miterlimit="10"/>
<path d="M159.5 197.32H151.54V205.84H159.5V197.32Z" stroke="#263238" stroke-miterlimit="10"/>
<path d="M171.17 197.32H163.21V205.84H171.17V197.32Z" stroke="#263238" stroke-miterlimit="10"/>
<path d="M136.16 210.82H128.2V219.34H136.16V210.82Z" stroke="#263238" stroke-miterlimit="10"/>
<path d="M147.83 210.82H139.87V219.34H147.83V210.82Z" stroke="#263238" stroke-miterlimit="10"/>
<path d="M159.5 210.82H151.54V219.34H159.5V210.82Z" stroke="#263238" stroke-miterlimit="10"/>
<path d="M171.17 210.82H163.21V219.34H171.17V210.82Z" stroke="#263238" stroke-miterlimit="10"/>
<path d="M136.16 224.33H128.2V232.85H136.16V224.33Z" stroke="#263238" stroke-miterlimit="10"/>
<path d="M147.83 224.33H139.87V232.85H147.83V224.33Z" stroke="#263238" stroke-miterlimit="10"/>
<path d="M159.5 224.33H151.54V232.85H159.5V224.33Z" stroke="#263238" stroke-miterlimit="10"/>
<path d="M171.17 224.33H163.21V232.85H171.17V224.33Z" stroke="#263238" stroke-miterlimit="10"/>
<path d="M136.16 237.83H128.2V246.35H136.16V237.83Z" stroke="#263238" stroke-miterlimit="10"/>
<path d="M147.83 237.83H139.87V246.35H147.83V237.83Z" stroke="#263238" stroke-miterlimit="10"/>
<path d="M159.5 237.83H151.54V246.35H159.5V237.83Z" stroke="#263238" stroke-miterlimit="10"/>
<path d="M171.17 237.83H163.21V246.35H171.17V237.83Z" stroke="#263238" stroke-miterlimit="10"/>
<path d="M44.3496 143.3H36.3896V151.82H44.3496V143.3Z" stroke="#263238" stroke-miterlimit="10"/>
<path d="M56.0196 143.3H48.0596V151.82H56.0196V143.3Z" stroke="#263238" stroke-miterlimit="10"/>
<path d="M67.6905 143.3H59.7305V151.82H67.6905V143.3Z" stroke="#263238" stroke-miterlimit="10"/>
<path d="M79.3604 143.3H71.4004V151.82H79.3604V143.3Z" stroke="#263238" stroke-miterlimit="10"/>
<path d="M44.3496 156.81H36.3896V165.33H44.3496V156.81Z" stroke="#263238" stroke-miterlimit="10"/>
<path d="M56.0196 156.81H48.0596V165.33H56.0196V156.81Z" stroke="#263238" stroke-miterlimit="10"/>
<path d="M67.6905 156.81H59.7305V165.33H67.6905V156.81Z" stroke="#263238" stroke-miterlimit="10"/>
<path d="M79.3604 156.81H71.4004V165.33H79.3604V156.81Z" stroke="#263238" stroke-miterlimit="10"/>
<path d="M44.3496 170.31H36.3896V178.83H44.3496V170.31Z" stroke="#263238" stroke-miterlimit="10"/>
<path d="M56.0196 170.31H48.0596V178.83H56.0196V170.31Z" stroke="#263238" stroke-miterlimit="10"/>
<path d="M67.6905 170.31H59.7305V178.83H67.6905V170.31Z" stroke="#263238" stroke-miterlimit="10"/>
<path d="M79.3604 170.31H71.4004V178.83H79.3604V170.31Z" stroke="#263238" stroke-miterlimit="10"/>
<path d="M44.3496 183.81H36.3896V192.33H44.3496V183.81Z" stroke="#263238" stroke-miterlimit="10"/>
<path d="M56.0196 183.81H48.0596V192.33H56.0196V183.81Z" stroke="#263238" stroke-miterlimit="10"/>
<path d="M67.6905 183.81H59.7305V192.33H67.6905V183.81Z" stroke="#263238" stroke-miterlimit="10"/>
<path d="M79.3604 183.81H71.4004V192.33H79.3604V183.81Z" stroke="#263238" stroke-miterlimit="10"/>
<path d="M44.3496 197.32H36.3896V205.84H44.3496V197.32Z" stroke="#263238" stroke-miterlimit="10"/>
<path d="M56.0196 197.32H48.0596V205.84H56.0196V197.32Z" stroke="#263238" stroke-miterlimit="10"/>
<path d="M67.6905 197.32H59.7305V205.84H67.6905V197.32Z" stroke="#263238" stroke-miterlimit="10"/>
<path d="M79.3604 197.32H71.4004V205.84H79.3604V197.32Z" stroke="#263238" stroke-miterlimit="10"/>
<path d="M44.3496 210.82H36.3896V219.34H44.3496V210.82Z" stroke="#263238" stroke-miterlimit="10"/>
<path d="M56.0196 210.82H48.0596V219.34H56.0196V210.82Z" stroke="#263238" stroke-miterlimit="10"/>
<path d="M67.6905 210.82H59.7305V219.34H67.6905V210.82Z" stroke="#263238" stroke-miterlimit="10"/>
<path d="M79.3604 210.82H71.4004V219.34H79.3604V210.82Z" stroke="#263238" stroke-miterlimit="10"/>
<path d="M44.3496 224.33H36.3896V232.85H44.3496V224.33Z" stroke="#263238" stroke-miterlimit="10"/>
<path d="M56.0196 224.33H48.0596V232.85H56.0196V224.33Z" stroke="#263238" stroke-miterlimit="10"/>
<path d="M67.6905 224.33H59.7305V232.85H67.6905V224.33Z" stroke="#263238" stroke-miterlimit="10"/>
<path d="M79.3604 224.33H71.4004V232.85H79.3604V224.33Z" stroke="#263238" stroke-miterlimit="10"/>
<path d="M44.3496 237.83H36.3896V246.35H44.3496V237.83Z" stroke="#263238" stroke-miterlimit="10"/>
<path d="M56.0196 237.83H48.0596V246.35H56.0196V237.83Z" stroke="#263238" stroke-miterlimit="10"/>
<path d="M67.6905 237.83H59.7305V246.35H67.6905V237.83Z" stroke="#263238" stroke-miterlimit="10"/>
<path d="M79.3604 237.83H71.4004V246.35H79.3604V237.83Z" stroke="#263238" stroke-miterlimit="10"/>
<path d="M305.04 116.83H297.08V125.35H305.04V116.83Z" stroke="#263238" stroke-miterlimit="10"/>
<path d="M316.71 116.83H308.75V125.35H316.71V116.83Z" stroke="#263238" stroke-miterlimit="10"/>
<path d="M328.38 116.83H320.42V125.35H328.38V116.83Z" stroke="#263238" stroke-miterlimit="10"/>
<path d="M340.05 116.83H332.09V125.35H340.05V116.83Z" stroke="#263238" stroke-miterlimit="10"/>
<path d="M305.04 130.34H297.08V138.86H305.04V130.34Z" stroke="#263238" stroke-miterlimit="10"/>
<path d="M316.71 130.34H308.75V138.86H316.71V130.34Z" stroke="#263238" stroke-miterlimit="10"/>
<path d="M328.38 130.34H320.42V138.86H328.38V130.34Z" stroke="#263238" stroke-miterlimit="10"/>
<path d="M340.05 130.34H332.09V138.86H340.05V130.34Z" stroke="#263238" stroke-miterlimit="10"/>
<path d="M305.04 143.84H297.08V152.36H305.04V143.84Z" stroke="#263238" stroke-miterlimit="10"/>
<path d="M316.71 143.84H308.75V152.36H316.71V143.84Z" stroke="#263238" stroke-miterlimit="10"/>
<path d="M328.38 143.84H320.42V152.36H328.38V143.84Z" stroke="#263238" stroke-miterlimit="10"/>
<path d="M340.05 143.84H332.09V152.36H340.05V143.84Z" stroke="#263238" stroke-miterlimit="10"/>
<path d="M305.04 157.34H297.08V165.86H305.04V157.34Z" stroke="#263238" stroke-miterlimit="10"/>
<path d="M316.71 157.34H308.75V165.86H316.71V157.34Z" stroke="#263238" stroke-miterlimit="10"/>
<path d="M328.38 157.34H320.42V165.86H328.38V157.34Z" stroke="#263238" stroke-miterlimit="10"/>
<path d="M340.05 157.34H332.09V165.86H340.05V157.34Z" stroke="#263238" stroke-miterlimit="10"/>
<path d="M305.04 170.85H297.08V179.37H305.04V170.85Z" stroke="#263238" stroke-miterlimit="10"/>
<path d="M316.71 170.85H308.75V179.37H316.71V170.85Z" stroke="#263238" stroke-miterlimit="10"/>
<path d="M328.38 170.85H320.42V179.37H328.38V170.85Z" stroke="#263238" stroke-miterlimit="10"/>
<path d="M340.05 170.85H332.09V179.37H340.05V170.85Z" stroke="#263238" stroke-miterlimit="10"/>
<path d="M305.04 184.35H297.08V192.87H305.04V184.35Z" stroke="#263238" stroke-miterlimit="10"/>
<path d="M316.71 184.35H308.75V192.87H316.71V184.35Z" stroke="#263238" stroke-miterlimit="10"/>
<path d="M328.38 184.35H320.42V192.87H328.38V184.35Z" stroke="#263238" stroke-miterlimit="10"/>
<path d="M340.05 184.35H332.09V192.87H340.05V184.35Z" stroke="#263238" stroke-miterlimit="10"/>
<path d="M305.04 197.86H297.08V206.38H305.04V197.86Z" stroke="#263238" stroke-miterlimit="10"/>
<path d="M316.71 197.86H308.75V206.38H316.71V197.86Z" stroke="#263238" stroke-miterlimit="10"/>
<path d="M328.38 197.86H320.42V206.38H328.38V197.86Z" stroke="#263238" stroke-miterlimit="10"/>
<path d="M340.05 197.86H332.09V206.38H340.05V197.86Z" stroke="#263238" stroke-miterlimit="10"/>
<path d="M305.04 211.36H297.08V219.88H305.04V211.36Z" stroke="#263238" stroke-miterlimit="10"/>
<path d="M316.71 211.36H308.75V219.88H316.71V211.36Z" stroke="#263238" stroke-miterlimit="10"/>
<path d="M328.38 211.36H320.42V219.88H328.38V211.36Z" stroke="#263238" stroke-miterlimit="10"/>
<path d="M340.05 211.36H332.09V219.88H340.05V211.36Z" stroke="#263238" stroke-miterlimit="10"/>
<path d="M208.08 8.19V254.94" stroke="#263238" stroke-miterlimit="10"/>
<path d="M215.97 8.19V254.94" stroke="#263238" stroke-miterlimit="10"/>
<path d="M223.86 8.19V254.94" stroke="#263238" stroke-miterlimit="10"/>
<path d="M231.75 8.19V254.94" stroke="#263238" stroke-miterlimit="10"/>
<path d="M239.65 8.19V254.94" stroke="#263238" stroke-miterlimit="10"/>
<path d="M247.54 8.19V254.94" stroke="#263238" stroke-miterlimit="10"/>
<path d="M255.43 8.19V254.94" stroke="#263238" stroke-miterlimit="10"/>
<path d="M263.32 8.19V254.94" stroke="#263238" stroke-miterlimit="10"/>
<path d="M183.23 250.64H41.7305V258.62H183.23V250.64Z" stroke="#263238" stroke-miterlimit="10"/>
<path d="M397.13 250.64H270.07V258.62H397.13V250.64Z" stroke="#263238" stroke-miterlimit="10"/>
<path d="M258.2 250.33C258.2 250.33 272.07 251.7 279.1 260.33C279.1 260.33 286.53 250.33 299.87 250.57C303.144 246.634 305.232 241.849 305.889 236.772C306.547 231.695 305.748 226.536 303.585 221.896C301.423 217.256 297.985 213.326 293.674 210.565C289.363 207.805 284.356 206.326 279.236 206.303C274.117 206.28 269.097 207.712 264.76 210.434C260.424 213.155 256.951 217.053 254.746 221.673C252.541 226.293 251.695 231.445 252.307 236.528C252.918 241.611 254.962 246.415 258.2 250.38V250.33Z" fill="#0987FF"/>
<path opacity="0.5" d="M258.2 250.33C258.2 250.33 272.07 251.7 279.1 260.33C279.1 260.33 286.53 250.33 299.87 250.57C303.144 246.634 305.232 241.849 305.889 236.772C306.547 231.695 305.748 226.536 303.585 221.896C301.423 217.256 297.985 213.326 293.674 210.565C289.363 207.805 284.356 206.326 279.236 206.303C274.117 206.28 269.097 207.712 264.76 210.434C260.424 213.155 256.951 217.053 254.746 221.673C252.541 226.293 251.695 231.445 252.307 236.528C252.918 241.611 254.962 246.415 258.2 250.38V250.33Z" fill="white"/>
<path d="M278.64 208.28L278.18 277.81H280.52L278.64 208.28Z" fill="#263238"/>
<path d="M279.349 257.68C279.349 257.68 284.029 249.25 292.459 246.68C292.459 246.68 283.559 248.78 279.109 256.04L279.349 257.68Z" fill="#263238"/>
<path d="M279.349 233.8C279.349 233.8 284.029 225.37 292.459 222.8C292.459 222.8 283.559 224.9 279.109 232.16L279.349 233.8Z" fill="#263238"/>
<path d="M279.349 245.74C279.349 245.74 284.029 237.31 292.459 234.74C292.459 234.74 283.559 236.84 279.109 244.1L279.349 245.74Z" fill="#263238"/>
<path d="M278.65 239.89C278.65 239.89 274.13 231.46 266 228.89C266 228.89 274.59 231 278.88 238.26L278.65 239.89Z" fill="#263238"/>
<path d="M278.65 251.59C278.65 251.59 274.13 243.16 266 240.59C266 240.59 274.59 242.7 278.88 249.95L278.65 251.59Z" fill="#263238"/>
<path d="M323.53 245.06C323.53 245.06 340.06 246.69 348.44 256.94C348.44 256.94 357.29 245.07 373.19 245.31C377.074 240.623 379.547 234.929 380.32 228.891C381.093 222.853 380.136 216.72 377.558 211.205C374.981 205.691 370.89 201.022 365.762 197.742C360.634 194.462 354.68 192.706 348.593 192.679C342.506 192.652 336.536 194.355 331.379 197.589C326.222 200.824 322.09 205.456 319.464 210.948C316.838 216.44 315.826 222.564 316.546 228.609C317.266 234.653 319.688 240.369 323.53 245.09V245.06Z" fill="#0987FF"/>
<path opacity="0.5" d="M323.53 245.06C323.53 245.06 340.06 246.69 348.44 256.94C348.44 256.94 357.29 245.07 373.19 245.31C377.074 240.623 379.547 234.929 380.32 228.891C381.093 222.853 380.136 216.72 377.558 211.205C374.981 205.691 370.89 201.022 365.762 197.742C360.634 194.462 354.68 192.706 348.593 192.679C342.506 192.652 336.536 194.355 331.379 197.589C326.222 200.824 322.09 205.456 319.464 210.948C316.838 216.44 315.826 222.564 316.546 228.609C317.266 234.653 319.688 240.369 323.53 245.09V245.06Z" fill="white"/>
<path d="M347.89 194.95L347.33 277.81H350.13L347.89 194.95Z" fill="#263238"/>
<path d="M348.73 253.82C348.73 253.82 354.31 243.77 364.35 240.7C364.35 240.7 353.75 243.22 348.45 251.86L348.73 253.82Z" fill="#263238"/>
<path d="M348.73 225.36C348.73 225.36 354.31 215.31 364.35 212.25C364.35 212.25 353.75 214.76 348.45 223.41L348.73 225.36Z" fill="#263238"/>
<path d="M348.73 239.59C348.73 239.59 354.31 229.59 364.35 226.47C364.35 226.47 353.75 228.99 348.45 237.64L348.73 239.59Z" fill="#263238"/>
<path d="M347.9 232.61C347.9 232.61 342.52 222.61 332.83 219.5C332.83 219.5 343.06 222.01 348.17 230.66L347.9 232.61Z" fill="#263238"/>
<path d="M347.9 246.56C347.9 246.56 342.52 236.56 332.83 233.45C332.83 233.45 343.06 235.96 348.17 244.61L347.9 246.56Z" fill="#263238"/>
<path d="M390.069 254.63C390.069 254.63 401.769 255.79 407.699 263.04C409.831 260.459 412.507 258.383 415.536 256.96C418.566 255.537 421.873 254.803 425.219 254.81C427.97 251.492 429.722 247.46 430.27 243.185C430.819 238.91 430.141 234.567 428.317 230.662C426.492 226.756 423.596 223.45 419.966 221.127C416.335 218.804 412.119 217.56 407.809 217.541C403.498 217.521 399.271 218.726 395.62 221.016C391.968 223.306 389.042 226.586 387.182 230.474C385.322 234.363 384.605 238.699 385.115 242.98C385.624 247.26 387.339 251.307 390.059 254.65L390.069 254.63Z" fill="#0987FF"/>
<path opacity="0.5" d="M390.069 254.63C390.069 254.63 401.769 255.79 407.699 263.04C409.831 260.459 412.507 258.383 415.536 256.96C418.566 255.537 421.873 254.803 425.219 254.81C427.97 251.492 429.722 247.46 430.27 243.185C430.819 238.91 430.141 234.567 428.317 230.662C426.492 226.756 423.596 223.45 419.966 221.127C416.335 218.804 412.119 217.56 407.809 217.541C403.498 217.521 399.271 218.726 395.62 221.016C391.968 223.306 389.042 226.586 387.182 230.474C385.322 234.363 384.605 238.699 385.115 242.98C385.624 247.26 387.339 251.307 390.059 254.65L390.069 254.63Z" fill="white"/>
<path d="M407.31 219.16L406.92 277.81H408.89L407.31 219.16Z" fill="#263238"/>
<path d="M407.91 260.83C407.91 260.83 411.85 253.72 418.91 251.55C418.91 251.55 411.41 253.32 407.66 259.45L407.91 260.83Z" fill="#263238"/>
<path d="M407.91 240.68C407.91 240.68 411.85 233.57 418.91 231.4C418.91 231.4 411.41 233.18 407.66 239.3L407.91 240.68Z" fill="#263238"/>
<path d="M407.91 250.76C407.91 250.76 411.85 243.65 418.91 241.47C418.91 241.47 411.41 243.25 407.66 249.37L407.91 250.76Z" fill="#263238"/>
<path d="M407.319 245.82C407.319 245.82 403.509 238.71 396.649 236.54C396.649 236.54 403.889 238.31 407.509 244.44L407.319 245.82Z" fill="#263238"/>
<path d="M407.319 255.69C407.319 255.69 403.509 248.58 396.649 246.41C396.649 246.41 403.889 248.19 407.509 254.31L407.319 255.69Z" fill="#263238"/>
<path d="M16.6697 250.33C16.6697 250.33 30.5397 251.7 37.5697 260.33C37.5697 260.33 44.9997 250.33 58.3397 250.57C61.6137 246.634 63.7013 241.849 64.3592 236.772C65.017 231.695 64.2179 226.536 62.0551 221.896C59.8923 217.256 56.4549 213.326 52.1438 210.565C47.8326 207.805 42.8254 206.326 37.7061 206.303C32.5868 206.28 27.5664 207.712 23.2302 210.434C18.8941 213.155 15.421 217.053 13.216 221.673C11.0109 226.293 10.1648 231.445 10.7763 236.528C11.3878 241.611 13.4318 246.415 16.6697 250.38V250.33Z" fill="#0987FF"/>
<path opacity="0.5" d="M16.6697 250.33C16.6697 250.33 30.5397 251.7 37.5697 260.33C37.5697 260.33 44.9997 250.33 58.3397 250.57C61.6137 246.634 63.7013 241.849 64.3592 236.772C65.017 231.695 64.2179 226.536 62.0551 221.896C59.8923 217.256 56.4549 213.326 52.1438 210.565C47.8326 207.805 42.8254 206.326 37.7061 206.303C32.5868 206.28 27.5664 207.712 23.2302 210.434C18.8941 213.155 15.421 217.053 13.216 221.673C11.0109 226.293 10.1648 231.445 10.7763 236.528C11.3878 241.611 13.4318 246.415 16.6697 250.38V250.33Z" fill="white"/>
<path d="M37.1096 208.28L36.6396 277.81H38.9797L37.1096 208.28Z" fill="#263238"/>
<path d="M37.8101 257.68C37.8101 257.68 42.5001 249.25 50.9201 246.68C50.9201 246.68 42.0301 248.78 37.5801 256.04L37.8101 257.68Z" fill="#263238"/>
<path d="M37.8101 233.8C37.8101 233.8 42.5001 225.37 50.9201 222.8C50.9201 222.8 42.0301 224.9 37.5801 232.16L37.8101 233.8Z" fill="#263238"/>
<path d="M37.8101 245.74C37.8101 245.74 42.5001 237.31 50.9201 234.74C50.9201 234.74 42.0301 236.84 37.5801 244.1L37.8101 245.74Z" fill="#263238"/>
<path d="M37.1197 239.89C37.1197 239.89 32.5997 231.46 24.4697 228.89C24.4697 228.89 33.0497 231 37.3497 238.26L37.1197 239.89Z" fill="#263238"/>
<path d="M37.1197 251.59C37.1197 251.59 32.5997 243.16 24.4697 240.59C24.4697 240.59 33.0497 242.7 37.3497 249.95L37.1197 251.59Z" fill="#263238"/>
<path d="M81.9999 245.06C81.9999 245.06 98.5299 246.69 106.91 256.94C106.91 256.94 115.76 245.07 131.66 245.31C135.542 240.623 138.013 234.929 138.786 228.891C139.558 222.854 138.599 216.722 136.021 211.208C133.444 205.694 129.353 201.026 124.225 197.747C119.098 194.468 113.144 192.712 107.057 192.686C100.971 192.659 95.0021 194.361 89.8456 197.595C84.689 200.828 80.557 205.46 77.9306 210.95C75.3041 216.441 74.2913 222.565 75.0099 228.609C75.7286 234.653 78.1491 240.368 81.9899 245.09L81.9999 245.06Z" fill="#0987FF"/>
<path opacity="0.5" d="M81.9999 245.06C81.9999 245.06 98.5299 246.69 106.91 256.94C106.91 256.94 115.76 245.07 131.66 245.31C135.542 240.623 138.013 234.929 138.786 228.891C139.558 222.854 138.599 216.722 136.021 211.208C133.444 205.694 129.353 201.026 124.225 197.747C119.098 194.468 113.144 192.712 107.057 192.686C100.971 192.659 95.0021 194.361 89.8456 197.595C84.689 200.828 80.557 205.46 77.9306 210.95C75.3041 216.441 74.2913 222.565 75.0099 228.609C75.7286 234.653 78.1491 240.368 81.9899 245.09L81.9999 245.06Z" fill="white"/>
<path d="M106.36 194.95L105.8 277.81H108.59L106.36 194.95Z" fill="#263238"/>
<path d="M107.2 253.82C107.2 253.82 112.78 243.77 122.82 240.7C122.82 240.7 112.22 243.22 106.92 251.86L107.2 253.82Z" fill="#263238"/>
<path d="M107.2 225.36C107.2 225.36 112.78 215.31 122.82 212.25C122.82 212.25 112.22 214.76 106.92 223.41L107.2 225.36Z" fill="#263238"/>
<path d="M107.2 239.59C107.2 239.59 112.78 229.59 122.82 226.47C122.82 226.47 112.22 228.99 106.92 237.64L107.2 239.59Z" fill="#263238"/>
<path d="M106.37 232.61C106.37 232.61 100.99 222.61 91.29 219.5C91.29 219.5 101.52 222.01 106.64 230.66L106.37 232.61Z" fill="#263238"/>
<path d="M106.37 246.56C106.37 246.56 100.99 236.56 91.29 233.45C91.29 233.45 101.52 235.96 106.64 244.61L106.37 246.56Z" fill="#263238"/>
<path d="M148.54 254.63C148.54 254.63 160.24 255.79 166.17 263.04C168.3 260.458 170.977 258.381 174.006 256.958C177.036 255.535 180.343 254.801 183.69 254.81C186.441 251.492 188.193 247.46 188.741 243.185C189.289 238.91 188.612 234.567 186.788 230.662C184.963 226.756 182.067 223.45 178.436 221.127C174.805 218.804 170.59 217.56 166.279 217.541C161.969 217.521 157.742 218.726 154.09 221.016C150.438 223.306 147.512 226.586 145.653 230.474C143.793 234.363 143.076 238.699 143.585 242.98C144.095 247.26 145.81 251.307 148.53 254.65L148.54 254.63Z" fill="#0987FF"/>
<path opacity="0.5" d="M148.54 254.63C148.54 254.63 160.24 255.79 166.17 263.04C168.3 260.458 170.977 258.381 174.006 256.958C177.036 255.535 180.343 254.801 183.69 254.81C186.441 251.492 188.193 247.46 188.741 243.185C189.289 238.91 188.612 234.567 186.788 230.662C184.963 226.756 182.067 223.45 178.436 221.127C174.805 218.804 170.59 217.56 166.279 217.541C161.969 217.521 157.742 218.726 154.09 221.016C150.438 223.306 147.512 226.586 145.653 230.474C143.793 234.363 143.076 238.699 143.585 242.98C144.095 247.26 145.81 251.307 148.53 254.65L148.54 254.63Z" fill="white"/>
<path d="M165.78 219.16L165.38 277.81H167.36L165.78 219.16Z" fill="#263238"/>
<path d="M166.37 260.83C166.37 260.83 170.32 253.72 177.43 251.55C177.43 251.55 169.93 253.32 166.18 259.45L166.37 260.83Z" fill="#263238"/>
<path d="M166.37 240.68C166.37 240.68 170.32 233.57 177.43 231.4C177.43 231.4 169.93 233.18 166.18 239.3L166.37 240.68Z" fill="#263238"/>
<path d="M166.37 250.76C166.37 250.76 170.32 243.65 177.43 241.47C177.43 241.47 169.93 243.25 166.18 249.37L166.37 250.76Z" fill="#263238"/>
<path d="M165.79 245.82C165.79 245.82 161.98 238.71 155.12 236.54C155.12 236.54 162.36 238.31 165.98 244.44L165.79 245.82Z" fill="#263238"/>
<path d="M165.79 255.69C165.79 255.69 161.98 248.58 155.12 246.41C155.12 246.41 162.36 248.19 165.98 254.31L165.79 255.69Z" fill="#263238"/>
<path d="M304.599 277.09C318.992 273.733 327.938 259.344 324.581 244.951C321.223 230.558 306.834 221.612 292.441 224.969C278.048 228.326 269.102 242.716 272.46 257.108C275.817 271.501 290.206 280.447 304.599 277.09Z" fill="#263238" stroke="#263238" stroke-miterlimit="10"/>
<path d="M130.024 269.955C140.475 259.505 140.475 242.561 130.024 232.111C119.574 221.66 102.63 221.66 92.18 232.111C81.7296 242.561 81.7296 259.505 92.18 269.955C102.63 280.406 119.574 280.406 130.024 269.955Z" fill="#263238" stroke="#263238" stroke-miterlimit="10"/>
<path d="M280.47 200.32C280.47 200.32 273.37 195.88 240.95 185.22C208.53 174.56 187.65 171 155.68 171.9C123.71 172.8 80.6198 184.78 72.6298 187.9C64.6398 191.02 61.0798 191.9 62.8598 194.11C64.6398 196.32 74.3998 204.33 73.0698 207.88C71.7398 211.43 49.9998 231 48.6398 234.07C47.2798 237.14 53.0899 247.84 53.9699 250.51C54.8499 253.18 59.7498 254.06 63.7398 254.51C67.7298 254.96 351.98 254.51 351.98 254.51C351.98 254.51 355.98 249.63 355.09 243.41C354.2 237.19 353.25 228.99 349.24 223.74C346 219.48 342.65 214.99 334.24 214.1C328.91 213.53 281.81 200.77 280.47 200.32Z" fill="#0987FF"/>
<path d="M280.47 200.32C280.47 200.32 273.37 195.88 240.95 185.22C208.53 174.56 187.65 171 155.68 171.9C123.71 172.8 80.6198 184.78 72.6298 187.9C64.6398 191.02 61.0798 191.9 62.8598 194.11C64.6398 196.32 74.3998 204.33 73.0698 207.88C71.7398 211.43 49.9998 231 48.6398 234.07C47.2798 237.14 53.0899 247.84 53.9699 250.51C54.8499 253.18 59.7498 254.06 63.7398 254.51C67.7298 254.96 351.98 254.51 351.98 254.51C351.98 254.51 355.98 249.63 355.09 243.41C354.2 237.19 353.25 228.99 349.24 223.74C346 219.48 342.65 214.99 334.24 214.1C328.91 213.53 281.81 200.77 280.47 200.32Z" fill="#0987FF"/>
<path opacity="0.15" d="M280.47 200.32C280.47 200.32 273.37 195.88 240.95 185.22C208.53 174.56 187.65 171 155.68 171.9C123.71 172.8 80.6198 184.78 72.6298 187.9C64.6398 191.02 61.0798 191.9 62.8598 194.11C64.6398 196.32 74.3998 204.33 73.0698 207.88C71.7398 211.43 49.9998 231 48.6398 234.07C47.2798 237.14 53.0899 247.84 53.9699 250.51C54.8499 253.18 59.7498 254.06 63.7398 254.51C67.7298 254.96 351.98 254.51 351.98 254.51C351.98 254.51 355.98 249.63 355.09 243.41C354.2 237.19 353.25 228.99 349.24 223.74C346 219.48 342.65 214.99 334.24 214.1C328.91 213.53 281.81 200.77 280.47 200.32Z" fill="black"/>
<path d="M280.47 200.32C280.47 200.32 273.37 195.88 240.95 185.22C208.53 174.56 187.65 171 155.68 171.9C123.71 172.8 80.6198 184.78 72.6298 187.9C64.6398 191.02 61.0798 191.9 62.8598 194.11C64.6398 196.32 74.3998 204.33 73.0698 207.88C71.7398 211.43 49.9998 231 48.6398 234.07C47.2798 237.14 53.0899 247.84 53.9699 250.51C54.8499 253.18 59.7498 254.06 63.7398 254.51C67.7298 254.96 351.98 254.51 351.98 254.51C351.98 254.51 355.98 249.63 355.09 243.41C354.2 237.19 353.25 228.99 349.24 223.74C346 219.48 342.65 214.99 334.24 214.1C328.91 213.53 281.81 200.77 280.47 200.32Z" stroke="#263238" stroke-miterlimit="10"/>
<path d="M351.98 231.41H335.1V235.85H351.98V231.41Z" fill="#263238" stroke="#263238" stroke-miterlimit="10"/>
<path d="M327 223.73H329.69C331.411 223.726 333.093 224.239 334.519 225.202C335.945 226.165 337.05 227.533 337.69 229.13L340.4 235.85H331.6L327 223.73Z" fill="white" stroke="#263238" stroke-miterlimit="10"/>
<path d="M351.769 228.27C351.669 228.55 351.579 228.83 351.499 229.13L349.689 235.85H353.909C353.443 233.26 352.726 230.722 351.769 228.27V228.27Z" fill="white" stroke="#263238" stroke-miterlimit="10"/>
<path d="M280.469 200.32C280.469 200.32 273.369 195.88 240.949 185.22C233.539 182.79 226.749 180.73 220.279 179H197.419L192.539 180.34L258.269 200.34L280.469 200.32Z" fill="#263238" stroke="#263238" stroke-miterlimit="10"/>
<path d="M41.0996 193.2V223.2C41.0996 223.2 59.3596 208.2 57.0996 203.93C54.8396 199.66 41.0996 193.2 41.0996 193.2Z" fill="#8F8F8F" stroke="#263238" stroke-miterlimit="10"/>
<path d="M258.269 200.32C258.269 200.32 251.159 195.88 218.739 185.22C186.319 174.56 165.449 171 133.469 171.9C101.489 172.8 58.4093 184.78 50.4693 187.9C42.5293 191.02 38.9193 191.9 40.6993 194.11C42.4793 196.32 52.2493 204.33 50.9093 207.88C49.5693 211.43 27.7693 231 26.4393 234.07C25.1093 237.14 30.8793 247.84 31.7693 250.51C32.6593 253.18 37.5393 254.06 41.5393 254.51C45.5393 254.96 329.769 254.51 329.769 254.51C329.769 254.51 333.769 249.63 332.879 243.41C331.989 237.19 330.999 229 326.999 223.73C323.759 219.47 320.399 214.98 311.999 214.09C306.709 213.53 259.599 200.77 258.269 200.32Z" fill="#0987FF"/>
<path opacity="0.15" d="M327 223.73C323.76 219.47 320.4 214.98 312 214.09C310.6 213.94 306.27 212.94 300.64 211.54C273.8 211.27 258.85 222.12 218.75 225.8C166.53 230.58 130.4 217.53 86.8795 212.3C68.7295 210.13 54.0795 212.8 43.1495 216.64C36.2995 223.56 27.2695 232.11 26.4295 234.07C25.0995 237.18 30.8695 247.84 31.7595 250.51C32.6495 253.18 37.5295 254.06 41.5295 254.51C45.5295 254.96 329.76 254.51 329.76 254.51C329.76 254.51 333.76 249.63 332.87 243.41C331.98 237.19 331 229 327 223.73Z" fill="black"/>
<path d="M258.269 200.32C258.269 200.32 251.159 195.88 218.739 185.22C186.319 174.56 165.449 171 133.469 171.9C101.489 172.8 58.4093 184.78 50.4693 187.9C42.5293 191.02 38.9193 191.9 40.6993 194.11C42.4793 196.32 52.2493 204.33 50.9093 207.88C49.5693 211.43 27.7693 231 26.4393 234.07C25.1093 237.14 30.8793 247.84 31.7693 250.51C32.6593 253.18 37.5393 254.06 41.5393 254.51C45.5393 254.96 329.769 254.51 329.769 254.51C329.769 254.51 333.769 249.63 332.879 243.41C331.989 237.19 330.999 229 326.999 223.73C323.759 219.47 320.399 214.98 311.999 214.09C306.709 213.53 259.599 200.77 258.269 200.32Z" stroke="#263238" stroke-miterlimit="10"/>
<path d="M90.3096 183.94L108.08 202.71H238.7V198.45C238.7 198.45 211.93 187.94 183.7 182.45C155.47 176.96 148.42 177.45 135.7 177.69C122.98 177.93 90.3096 183.94 90.3096 183.94Z" fill="#8F8F8F"/>
<path d="M153.999 194.5C137.372 190.704 119.979 192.139 104.199 198.61L108.079 202.71H238.699V198.45C238.699 198.45 234.369 196.75 227.349 194.36C212.659 200 183.519 201 153.999 194.5Z" fill="#263238" stroke="#263238" stroke-miterlimit="10"/>
<path d="M90.3096 183.94L108.08 202.71H238.7V198.45C238.7 198.45 211.93 187.94 183.7 182.45C155.47 176.96 148.42 177.45 135.7 177.69C122.98 177.93 90.3096 183.94 90.3096 183.94Z" stroke="#263238" stroke-width="4" stroke-miterlimit="10"/>
<path d="M149.369 205.21V246" stroke="#263238" stroke-miterlimit="10"/>
<path d="M86.9228 277.118C101.319 273.776 110.28 259.396 106.938 244.999C103.596 230.603 89.216 221.642 74.8197 224.984C60.4234 228.326 51.4623 242.706 54.8045 257.102C58.1466 271.499 72.5265 280.46 86.9228 277.118Z" fill="#263238" stroke="#263238" stroke-miterlimit="10"/>
<path d="M80.8998 231.72C77.0794 231.72 73.3448 232.853 70.1687 234.976C66.9925 237.1 64.5175 240.117 63.0569 243.647C61.5962 247.178 61.2156 251.062 61.9631 254.808C62.7106 258.555 64.5527 261.996 67.2562 264.695C69.9598 267.394 73.4033 269.231 77.1511 269.973C80.8988 270.714 84.7823 270.328 88.3103 268.861C91.8382 267.395 94.8519 264.916 96.9701 261.736C99.0883 258.557 100.216 254.82 100.21 251C100.199 245.885 98.1605 240.982 94.5406 237.368C90.9207 233.754 86.0152 231.723 80.8998 231.72V231.72ZM93.8998 247.16L82.6498 249.27L85.8398 238.42C87.7533 239.175 89.4708 240.353 90.8634 241.867C92.2559 243.381 93.2872 245.19 93.8798 247.16H93.8998ZM81.8998 250.06V252H79.9698V250.06H81.8998ZM77.0698 238.06L79.1798 249.31L68.3198 246.11C69.0645 244.2 70.2323 242.483 71.7357 241.089C73.2391 239.694 75.0389 238.659 76.9998 238.06H77.0698ZM67.9598 254.9L79.2098 252.79L75.9998 263.64C74.0773 262.895 72.3506 261.72 70.9519 260.205C69.5532 258.69 68.5195 256.876 67.9298 254.9H67.9598ZM84.7998 264L82.6898 252.76L93.5198 256C92.7618 257.909 91.5804 259.62 90.0647 261.006C88.549 262.392 86.7386 263.416 84.7698 264H84.7998Z" fill="white" stroke="#263238" stroke-miterlimit="10"/>
<path d="M86.8897 251C86.8897 249.813 86.5378 248.653 85.8785 247.667C85.2192 246.68 84.2821 245.911 83.1858 245.457C82.0894 245.003 80.883 244.884 79.7191 245.115C78.5552 245.347 77.4861 245.918 76.647 246.757C75.8079 247.596 75.2364 248.666 75.0049 249.829C74.7734 250.993 74.8923 252.2 75.3464 253.296C75.8005 254.392 76.5695 255.33 77.5562 255.989C78.5429 256.648 79.703 257 80.8897 257C82.4809 257 84.0071 256.368 85.1323 255.243C86.2575 254.117 86.8897 252.591 86.8897 251V251Z" fill="white" stroke="#263238" stroke-miterlimit="10"/>
<path d="M288.135 269.954C298.585 259.504 298.585 242.561 288.135 232.11C277.684 221.66 260.741 221.66 250.29 232.11C239.84 242.561 239.84 259.504 250.29 269.954C260.741 280.405 277.684 280.405 288.135 269.954Z" fill="#263238" stroke="#263238" stroke-miterlimit="10"/>
<path d="M269.209 231.72C265.389 231.72 261.654 232.853 258.478 234.976C255.302 237.1 252.827 240.117 251.366 243.647C249.906 247.178 249.525 251.062 250.273 254.808C251.02 258.555 252.862 261.996 255.566 264.695C258.269 267.394 261.713 269.231 265.461 269.973C269.208 270.714 273.092 270.328 276.62 268.861C280.148 267.395 283.161 264.916 285.28 261.736C287.398 258.557 288.525 254.82 288.519 251C288.509 245.885 286.47 240.982 282.85 237.368C279.23 233.754 274.325 231.723 269.209 231.72V231.72ZM282.209 247.16L270.969 249.27L274.159 238.42C276.07 239.175 277.785 240.354 279.174 241.868C280.563 243.382 281.591 245.191 282.179 247.16H282.209ZM270.209 250.06V252H268.269V250.06H270.209ZM265.369 238.06L267.479 249.31L256.629 246.11C257.376 244.196 258.548 242.476 260.057 241.081C261.566 239.687 263.372 238.654 265.339 238.06H265.369ZM256.269 254.9L267.519 252.79L264.319 263.64C262.395 262.896 260.667 261.721 259.267 260.206C257.866 258.691 256.831 256.876 256.239 254.9H256.269ZM273.109 264L270.999 252.76L281.819 256C281.064 257.908 279.884 259.62 278.37 261.006C276.856 262.392 275.047 263.416 273.079 264H273.109Z" fill="white" stroke="#263238" stroke-miterlimit="10"/>
<path d="M275.199 251C275.199 249.813 274.847 248.653 274.188 247.667C273.529 246.68 272.592 245.911 271.495 245.457C270.399 245.003 269.193 244.884 268.029 245.115C266.865 245.347 265.796 245.918 264.957 246.757C264.117 247.596 263.546 248.666 263.315 249.829C263.083 250.993 263.202 252.2 263.656 253.296C264.11 254.392 264.879 255.33 265.866 255.989C266.853 256.648 268.013 257 269.199 257C270.791 257 272.317 256.368 273.442 255.243C274.567 254.117 275.199 252.591 275.199 251Z" fill="white" stroke="#263238" stroke-miterlimit="10"/>
<path d="M327 223.73C327 223.73 307.08 222.73 306.19 223.73C305.3 224.73 312.85 232.73 315.52 234.52C317.63 235.93 327.57 235.66 331.59 235.52C330.78 231.22 329.47 226.93 327 223.73Z" fill="white" stroke="#263238" stroke-miterlimit="10"/>
<path d="M152.64 177.82C151.33 177.73 150.1 177.67 148.9 177.63L145.55 202.63H154.43L152.64 177.82Z" fill="#263238" stroke="#263238" stroke-miterlimit="10"/>
<path d="M185.7 269.9C184.111 270.922 182.438 271.809 180.7 272.55C178.56 273.37 177.14 273.87 177.55 275.2C177.96 276.53 180.29 277.64 183.25 278.25C186.21 278.86 191.49 277.54 192.92 277.13C194.35 276.72 194.55 274.38 193.53 273.06C192.51 271.74 187.43 269.19 185.7 269.9Z" fill="#263238" stroke="#263238" stroke-linecap="round" stroke-linejoin="round"/>
<path d="M186.62 277.54C184.17 277.54 180.1 276.62 180.1 275.71C180.1 274.8 181.1 274.08 179.9 273.77C178.7 273.46 177.9 275.13 177.7 275.52C178.36 276.7 180.55 277.69 183.26 278.25C186.26 278.86 191.5 277.54 192.93 277.13C193.187 277.043 193.418 276.894 193.605 276.697C193.791 276.5 193.927 276.261 194 276C191.633 276.888 189.144 277.407 186.62 277.54V277.54Z" fill="white" stroke="#263238" stroke-linecap="round" stroke-linejoin="round"/>
<path d="M198.22 204.54L198.83 206.54C198.451 206.846 198.144 207.232 197.933 207.672C197.722 208.111 197.611 208.592 197.61 209.08C197.836 210.203 198.448 211.211 199.34 211.93" stroke="#263238" stroke-linecap="round" stroke-linejoin="round"/>
<path d="M192 200.57C191.382 202.231 190.874 203.932 190.48 205.66V208.41C190.48 208.92 188.48 219.71 188.03 226.33C187.58 232.95 187.32 240.68 186.81 242.42C186.3 244.16 186.91 245.06 187.01 247.51C187.11 249.96 187.22 262.27 187.22 262.27C187.22 262.27 186.71 265.53 186.61 266.34C186.51 267.15 185.49 267.46 185.18 267.97C184.846 268.795 184.576 269.644 184.37 270.51C185.954 270.94 187.393 271.786 188.54 272.96C189.97 274.69 193.83 276.83 194.34 276.72C194.85 276.61 195.16 275.2 195.97 273.26C196.78 271.32 196.69 270.31 197.09 269.5C197.49 268.69 198.09 267.36 199.03 261.25C199.97 255.14 200.76 246.08 201.27 244.86C201.78 243.64 204.42 239.06 204.42 239.06C206.721 234.626 208.696 230.03 210.33 225.31C211.823 220.931 212.947 216.436 213.69 211.87C214.165 208.732 214.469 205.571 214.6 202.4V201.4C214.6 201.4 210.84 202.82 204.12 202.11C197.4 201.4 192 200.57 192 200.57Z" fill="white" stroke="#263238" stroke-linecap="round" stroke-linejoin="round"/>
<path d="M206.06 206.48C206.06 206.48 201.48 208.92 200.77 210.14C200.06 211.36 199.14 216.56 197.1 222.97C195.06 229.38 193.23 234.27 191.5 239.67C190.404 242.762 189.688 245.975 189.37 249.24C188.75 253.24 187.37 263.8 187.37 263.8" stroke="#263238" stroke-linecap="round" stroke-linejoin="round"/>
<path d="M194 274.89C194 274.89 196.24 274.08 196.24 269.5C196.24 264.92 195.42 261.66 196.24 257.28C197.06 252.9 199.09 245.77 200.31 243.64C201.53 241.51 202.96 238.75 202.96 238.75" stroke="#263238" stroke-linecap="round" stroke-linejoin="round"/>
<path d="M201.79 237.22C201.79 237.22 205.35 239.67 206.06 238.75C207.158 236.8 208.078 234.755 208.81 232.64C209.73 230.3 210.13 229.18 210.13 229.18C210.13 229.18 211.13 229.08 211.25 228.18C211.37 227.28 211.56 225.53 211.56 225.53C210.464 225.497 209.372 225.363 208.3 225.13C206.37 224.72 205.65 224.82 205.25 225.74C204.929 226.362 204.655 227.007 204.43 227.67C203.82 229.3 201.43 234.8 201.38 235.61C201.33 236.42 201.18 236.61 201.79 237.22Z" fill="white" stroke="#263238" stroke-linecap="round" stroke-linejoin="round"/>
<path d="M210.13 229.18C208.731 229.099 207.338 228.929 205.96 228.67C204.84 228.37 205.45 226.94 205.45 226.94" fill="#0987FF"/>
<path d="M210.13 229.18C208.731 229.099 207.338 228.929 205.96 228.67C204.84 228.37 205.45 226.94 205.45 226.94" stroke="#263238" stroke-linecap="round" stroke-linejoin="round"/>
<path d="M208.71 225.11C208.71 225.11 211.36 216.56 211.71 214.82L212.12 213.09" stroke="#263238" stroke-linecap="round" stroke-linejoin="round"/>
<path d="M209.52 204.13C209.52 204.13 208.81 207.7 209.52 209.63C210.337 211.303 211.565 212.741 213.09 213.81" stroke="#263238" stroke-linecap="round" stroke-linejoin="round"/>
<path d="M194.76 205.66C194.76 205.66 200.06 207.19 203.21 206.07" stroke="#263238" stroke-linecap="round" stroke-linejoin="round"/>
<path d="M204.43 165.65C204.43 165.65 197.51 167.38 195.43 167.79C193.35 168.2 192.28 168.2 191.97 169.11C189.747 173.269 187.156 177.222 184.23 180.92C181.89 183.47 181.69 185.92 182.4 187.23C183.11 188.54 183.93 189.17 186.98 188.35C188.945 187.755 190.687 186.585 191.98 184.99C191.98 184.99 192.7 192.63 191.68 195.68C190.66 198.73 190.25 201.18 190.96 201.68C194.05 203.382 197.513 204.292 201.04 204.33C206.64 204.53 213.04 204.02 214.04 203C214.385 202.722 214.657 202.363 214.832 201.955C215.006 201.547 215.077 201.102 215.04 200.66C215.04 199.95 214.64 195.17 215.86 191.4C217.08 187.63 220.54 177.96 220.64 174.29C220.74 170.62 219.32 170.12 216.57 169C213.82 167.88 209.44 165.95 208.43 165.74C207.1 165.623 205.764 165.593 204.43 165.65V165.65Z" fill="#263238" stroke="#263238" stroke-linecap="round" stroke-linejoin="round"/>
<path d="M203 163.82C202.165 164.356 201.382 164.969 200.66 165.65C200.55 165.96 196.99 171.65 197.4 171.65C197.81 171.65 202.29 169.41 202.29 169.41C202.29 169.41 204.52 166.05 204.29 164.72C204.281 164.569 204.239 164.421 204.165 164.289C204.091 164.157 203.988 164.043 203.864 163.956C203.74 163.87 203.597 163.812 203.448 163.789C203.298 163.765 203.145 163.776 203 163.82V163.82Z" fill="white" stroke="#263238" stroke-linecap="round" stroke-linejoin="round"/>
<path d="M202.14 162.69C202.247 164.942 202.075 167.199 201.63 169.41C200.92 172.16 200.41 173.99 201.43 174.3C202.45 174.61 205.81 169.61 206.72 168.19C207.257 167.373 207.669 166.48 207.94 165.54L208.66 157.6C208.66 157.6 204.58 162 202.14 162.69Z" fill="white" stroke="#263238" stroke-linecap="round" stroke-linejoin="round"/>
<path d="M198.48 143.75C198.48 143.75 197.48 152.41 197.48 155.67C197.48 158.93 199.62 163.1 200.63 163.5C201.64 163.9 204.2 164.32 205.22 163.61C206.24 162.9 209.08 158.52 209.08 158.52C210.044 155.459 210.759 152.326 211.22 149.15C211.53 145.69 210.61 144.06 207.45 143.04C204.29 142.02 200.1 142 198.48 143.75Z" fill="white" stroke="#263238" stroke-linecap="round" stroke-linejoin="round"/>
<path d="M200.92 151.19C200.92 151.19 200 156.19 200.41 156.28C201.017 156.353 201.628 156.387 202.24 156.38" stroke="#263238" stroke-linecap="round" stroke-linejoin="round"/>
<path d="M200.82 158.11C200.82 158.11 203.57 158.72 204.99 157.4" stroke="#263238" stroke-linecap="round" stroke-linejoin="round"/>
<path d="M204.68 151.28C204.68 151.7 204.43 152.02 204.2 152C203.97 151.98 203.83 151.61 203.87 151.2C203.91 150.79 204.13 150.45 204.36 150.48C204.59 150.51 204.73 150.86 204.68 151.28Z" fill="#263238"/>
<path d="M200.41 150.87C200.41 151.29 200.15 151.61 199.93 151.59C199.71 151.57 199.56 151.21 199.6 150.79C199.64 150.37 199.86 150.05 200.08 150.07C200.3 150.09 200.45 150.45 200.41 150.87Z" fill="#263238"/>
<path d="M198.48 149.35C198.621 149.164 198.801 149.011 199.008 148.902C199.215 148.794 199.443 148.733 199.677 148.723C199.91 148.714 200.143 148.756 200.358 148.847C200.573 148.938 200.765 149.076 200.92 149.25" stroke="#263238" stroke-linecap="round" stroke-linejoin="round"/>
<path d="M202.85 149.15C202.85 149.15 204.79 147.62 205.85 149.25" stroke="#263238" stroke-linecap="round" stroke-linejoin="round"/>
<path d="M196.85 142.33C196.843 142.413 196.843 142.497 196.85 142.58C197.009 143.099 197.294 143.571 197.68 143.953C198.065 144.335 198.539 144.616 199.06 144.77C201.3 145.69 206.59 144.57 208.42 145.18C210.25 145.79 209.42 147.52 208.32 148.13C207.22 148.74 207 149.05 207.51 149.76C208.02 150.47 209.24 151.19 208.83 152C208.42 152.81 208.22 153.63 208.93 153.73C209.64 153.83 210.15 153.83 210.46 153.43C210.77 153.03 212.8 148.64 212.8 146.1C212.8 143.56 211.58 142.43 208.73 141.31C205.88 140.19 199.97 139.48 198.24 140.5C197.877 140.669 197.56 140.924 197.318 141.243C197.076 141.562 196.915 141.935 196.85 142.33V142.33Z" fill="#263238" stroke="#263238" stroke-linecap="round" stroke-linejoin="round"/>
<path d="M208.66 157.37C208.92 157.627 209.258 157.789 209.62 157.831C209.983 157.872 210.349 157.791 210.66 157.6C211.78 156.89 212.29 154.34 211.58 153.02C210.87 151.7 209.44 154.24 209.44 154.24" fill="white"/>
<path d="M208.66 157.37C208.92 157.627 209.258 157.789 209.62 157.831C209.983 157.872 210.349 157.791 210.66 157.6C211.78 156.89 212.29 154.34 211.58 153.02C210.87 151.7 209.44 154.24 209.44 154.24" stroke="#263238" stroke-linecap="round" stroke-linejoin="round"/>
<path d="M204.43 165.65C204.43 165.65 204.23 174.71 204.84 173.65C205.45 172.59 210.54 165.92 210.54 165.92L209.32 162.35L204.43 165.65Z" fill="white" stroke="#263238" stroke-linecap="round" stroke-linejoin="round"/>
<path d="M213.39 175.63L209.93 186.42L216.24 194.42C216.24 194.42 216.55 195.03 217.06 194.32C217.57 193.61 217.97 193.61 218.79 189.74C219.61 185.87 220.79 176.5 220.72 174.26C220.65 172.02 220.21 170.9 218.48 170.6" fill="#263238"/>
<path d="M213.39 175.63L209.93 186.42L216.24 194.42C216.24 194.42 216.55 195.03 217.06 194.32C217.57 193.61 217.97 193.61 218.79 189.74C219.61 185.87 220.79 176.5 220.72 174.26C220.65 172.02 220.21 170.9 218.48 170.6" stroke="#263238" stroke-linecap="round" stroke-linejoin="round"/>
<path d="M194.05 188.15C194.05 188.15 209.83 194.15 211.97 194.26C214.11 194.37 214.61 192.94 213.7 190.26C212.79 187.58 210.03 186.08 207.7 185.37C205.018 184.744 202.225 184.778 199.56 185.47C197.2 186.11 194.05 187.34 194.05 188.15Z" fill="white" stroke="#263238" stroke-linecap="round" stroke-linejoin="round"/>
<path d="M207.18 185.3C207.18 185.3 210.95 193.44 211.18 194.16C211.41 194.88 215.26 195.38 216.48 195.28C217.7 195.18 217.19 193.34 215.97 190.7C214.75 188.06 212.81 185.7 211.39 185.3C209.995 185.077 208.574 185.077 207.18 185.3Z" fill="white" stroke="#263238" stroke-linecap="round" stroke-linejoin="round"/>
<path d="M186.11 182.45C184.791 182.556 183.491 182.828 182.24 183.26C180.81 183.87 180.51 188.15 181.24 189.68C181.97 191.21 184.19 191.2 185.72 191.1C186.152 191.086 186.576 190.978 186.963 190.785C187.349 190.592 187.689 190.317 187.96 189.98L189.08 182.45H186.11Z" fill="#263238" stroke="#263238" stroke-linecap="round" stroke-linejoin="round"/>
<path d="M189.06 182.45C189.06 182.45 200.56 182.45 203.41 182.35C206.26 182.25 206.98 182.96 207.59 183.98C208.2 185 208.4 185.4 208.4 185.4C204.791 185.748 201.238 186.533 197.82 187.74C193.13 189.58 189.06 191.2 187.63 191.2C186.2 191.2 185.63 187.54 186.21 184.99C186.328 184.307 186.674 183.684 187.192 183.223C187.709 182.762 188.368 182.489 189.06 182.45V182.45Z" fill="white" stroke="#263238" stroke-linecap="round" stroke-linejoin="round"/>
<path d="M185.8 181.74C185.8 181.74 190.69 181.63 190.59 182.55C190.49 183.47 189.59 190.39 189.26 191C188.93 191.61 186.01 191.92 184.58 191.82C183.15 191.72 183.66 187.13 184.58 184.99C185.057 183.934 185.464 182.849 185.8 181.74V181.74Z" fill="white" stroke="#263238" stroke-linecap="round" stroke-linejoin="round"/>
<path d="M200.36 205C200.36 205 201.18 206.22 200.87 206.53C200.56 206.84 199.04 208.26 199.14 209.17C199.188 209.699 199.401 210.2 199.75 210.6" stroke="#263238" stroke-linecap="round" stroke-linejoin="round"/>
<path d="M14.8604 277.81H423.74" stroke="#263238" stroke-linecap="round" stroke-linejoin="round"/>
</svg>
