<svg width="706" height="486" viewBox="0 0 706 486" fill="none" xmlns="http://www.w3.org/2000/svg">
<path d="M669.521 420.805C669.521 420.805 697.25 368.349 696.223 282.706C695.196 197.063 645.9 116.773 585.308 94.2923C524.716 71.8111 471.312 100.715 399.423 103.927C327.534 107.139 285.427 12.9317 182.729 57.8941C80.0298 102.857 80.0298 193.852 97.4886 237.744C114.947 281.636 147.811 303.046 111.866 334.092C75.9219 365.137 41.0043 384.407 30.7344 396.183C24.6632 403.008 20.7237 411.594 19.4375 420.805H669.521Z" fill="#0987FF"/>
<path opacity="0.7" d="M669.521 420.805C669.521 420.805 697.25 368.349 696.223 282.706C695.196 197.063 645.9 116.773 585.308 94.2923C524.716 71.8111 471.312 100.715 399.423 103.927C327.534 107.139 285.427 12.9317 182.729 57.8941C80.0298 102.857 80.0298 193.852 97.4886 237.744C114.947 281.636 147.811 303.046 111.866 334.092C75.9219 365.137 41.0043 384.407 30.7344 396.183C24.6632 403.008 20.7237 411.594 19.4375 420.805H669.521Z" fill="white"/>
<g opacity="0.2">
<path opacity="0.2" d="M217.646 43.0137C212.676 43.0179 207.818 44.558 203.687 47.4392C199.556 50.3205 196.336 54.4136 194.436 59.2014C192.536 63.9891 192.04 69.2566 193.01 74.3382C193.981 79.4198 196.375 84.0874 199.89 87.7512C203.405 91.415 207.882 93.9105 212.757 94.9224C217.632 95.9343 222.685 95.4171 227.278 93.4362C231.871 91.4553 235.798 88.0997 238.562 83.7933C241.326 79.4869 242.804 74.4231 242.808 69.2417C242.808 62.2856 240.157 55.6144 235.438 50.6957C230.72 45.777 224.32 43.0137 217.646 43.0137ZM220.204 85.2248V87.7513H215.942V85.2248C212.193 84.4433 210.304 81.4244 210.304 76.7355V74.3696H215.233V77.078C215.233 79.551 216.26 80.4395 217.934 80.4395C219.608 80.4395 220.635 79.551 220.635 77.078C220.635 69.9697 210.447 69.5843 210.447 59.7461C210.447 55.1 212.296 52.1453 215.942 51.2996V48.7303H220.204V51.2996C223.901 52.0918 225.791 55.0572 225.791 59.7461V60.8166H220.871V59.4035C220.871 56.9306 219.916 55.9885 218.263 55.9885C216.609 55.9885 215.654 56.9306 215.654 59.4035C215.654 66.5119 225.842 66.8973 225.842 76.7355C225.862 81.4244 223.921 84.4433 220.224 85.2248H220.204Z" stroke="black" stroke-linecap="round" stroke-linejoin="round"/>
<path opacity="0.2" d="M217.647 32.4904C210.677 32.4882 203.863 34.6409 198.067 38.676C192.271 42.7112 187.753 48.4475 185.085 55.1595C182.416 61.8714 181.718 69.2575 183.077 76.3834C184.436 83.5093 187.792 90.055 192.721 95.1924C197.649 100.33 203.929 103.828 210.765 105.245C217.601 106.662 224.686 105.934 231.125 103.152C237.564 100.371 243.067 95.6616 246.938 89.6198C250.809 83.5779 252.874 76.4751 252.872 69.2097C252.872 59.4711 249.161 50.1314 242.555 43.2452C235.949 36.359 226.989 32.4904 217.647 32.4904V32.4904ZM217.647 99.3773C211.922 99.373 206.328 97.5993 201.571 94.2805C196.813 90.9616 193.107 86.2467 190.921 80.732C188.734 75.2174 188.166 69.1507 189.288 63.2993C190.409 57.4479 193.17 52.0746 197.221 47.859C201.273 43.6434 206.432 40.7749 212.048 39.6162C217.663 38.4576 223.482 39.0608 228.768 41.3497C234.055 43.6386 238.571 47.5102 241.747 52.475C244.922 57.4398 246.614 63.2747 246.608 69.2418C246.591 77.2383 243.533 84.9016 238.104 90.5509C232.675 96.2003 225.318 99.3745 217.647 99.3773Z" stroke="black" stroke-linecap="round" stroke-linejoin="round"/>
</g>
<g opacity="0.2">
<path opacity="0.2" d="M427.051 47.7668C423.413 47.7668 419.857 48.8913 416.832 50.9981C413.807 53.1049 411.45 56.0994 410.057 59.6028C408.665 63.1063 408.301 66.9614 409.011 70.6806C409.72 74.3999 411.472 77.8162 414.045 80.4976C416.617 83.1791 419.894 85.0052 423.462 85.745C427.03 86.4848 430.728 86.1051 434.089 84.6539C437.45 83.2027 440.323 80.7452 442.344 77.5922C444.365 74.4392 445.444 70.7322 445.444 66.9401C445.439 61.8568 443.499 56.9833 440.051 53.3888C436.602 49.7944 431.927 47.7725 427.051 47.7668V47.7668ZM428.92 78.6625V80.5038H425.839V78.6625C423.097 78.0844 421.731 75.8791 421.731 72.4426V70.7084H425.336V72.6996C425.336 74.5088 426.106 75.1511 427.318 75.1511C428.529 75.1511 429.289 74.5088 429.289 72.6996C429.289 67.4968 421.834 67.2399 421.834 60.0137C421.834 56.6202 423.189 54.447 425.859 53.8368V51.9526H428.94V53.8368C431.641 54.4149 433.048 56.5773 433.048 60.0137V60.8059H429.443V59.7354C429.443 57.9369 428.755 57.2411 427.533 57.2411C426.311 57.2411 425.633 57.9369 425.633 59.7354C425.633 64.9382 433.089 65.1951 433.089 72.4212C433.048 75.8791 431.621 78.0844 428.92 78.6625V78.6625Z" stroke="black" stroke-linecap="round" stroke-linejoin="round"/>
<path opacity="0.2" d="M427.05 40.0697C421.952 40.0697 416.968 41.6456 412.729 44.5982C408.49 47.5507 405.186 51.7473 403.235 56.6572C401.284 61.5672 400.773 66.9699 401.768 72.1823C402.762 77.3946 405.217 82.1824 408.822 85.9403C412.428 89.6982 417.021 92.2574 422.021 93.2942C427.021 94.331 432.204 93.7989 436.914 91.7651C441.625 89.7314 445.651 86.2873 448.483 81.8685C451.316 77.4497 452.827 72.2546 452.827 66.9401C452.827 59.8136 450.111 52.979 445.277 47.9399C440.443 42.9007 433.886 40.0697 427.05 40.0697V40.0697ZM427.05 89.0145C422.862 89.0145 418.767 87.7199 415.285 85.2943C411.802 82.8687 409.088 79.4212 407.485 75.3876C405.883 71.354 405.463 66.9156 406.28 62.6336C407.097 58.3516 409.114 54.4183 412.076 51.3311C415.037 48.244 418.811 46.1416 422.919 45.2898C427.026 44.4381 431.284 44.8753 435.154 46.546C439.023 48.2168 442.331 51.0461 444.658 54.6762C446.984 58.3063 448.226 62.5742 448.226 66.9401C448.221 72.7929 445.988 78.4043 442.018 82.5428C438.048 86.6813 432.665 89.0088 427.05 89.0145V89.0145Z" stroke="black" stroke-linecap="round" stroke-linejoin="round"/>
</g>
<g opacity="0.2">
<path opacity="0.2" d="M42.9363 217.735C39.2985 217.735 35.7423 218.86 32.7175 220.967C29.6928 223.073 27.3352 226.068 25.9431 229.571C24.5509 233.075 24.1867 236.93 24.8964 240.649C25.6061 244.368 27.3579 247.785 29.9303 250.466C32.5026 253.148 35.78 254.974 39.348 255.713C42.9159 256.453 46.6142 256.074 49.9752 254.622C53.3361 253.171 56.2088 250.714 58.2298 247.561C60.2509 244.408 61.3297 240.701 61.3297 236.909C61.3243 231.825 59.3846 226.952 55.9364 223.357C52.4882 219.763 47.8129 217.741 42.9363 217.735V217.735ZM44.8054 248.631V250.472H41.7245V248.631C38.9824 248.053 37.6165 245.848 37.6165 242.411V240.677H41.2213V242.668C41.2213 244.477 41.9812 245.13 43.2033 245.13C44.4255 245.13 45.1135 244.477 45.1135 242.668C45.1135 237.465 37.6576 237.208 37.6576 229.982C37.6576 226.589 39.0132 224.415 41.6834 223.805V221.921H44.7644V223.805C47.4654 224.383 48.8723 226.546 48.8723 229.982V230.774H45.2881V229.704C45.2881 227.905 44.5898 227.22 43.3779 227.22C42.1661 227.22 41.478 227.905 41.478 229.704C41.478 234.917 48.9237 235.164 48.9237 242.39C48.9237 245.88 47.5064 248.021 44.8054 248.631V248.631Z" stroke="black" stroke-linecap="round" stroke-linejoin="round"/>
<path opacity="0.2" d="M42.9356 210.038C37.8382 210.043 32.8564 211.622 28.62 214.577C24.3837 217.532 21.0829 221.73 19.135 226.641C17.1871 231.551 16.6796 236.953 17.6765 242.164C18.6735 247.375 21.1302 252.161 24.736 255.916C28.3419 259.672 32.935 262.229 37.9348 263.264C42.9345 264.299 48.1165 263.766 52.8255 261.732C57.5345 259.697 61.5591 256.253 64.3907 251.835C67.2222 247.417 68.7336 242.222 68.7336 236.909C68.7322 233.379 68.0638 229.883 66.7666 226.623C65.4695 223.362 63.5688 220.399 61.1733 217.904C58.7777 215.409 55.9341 213.43 52.8049 212.08C49.6757 210.731 46.3221 210.037 42.9356 210.038V210.038ZM42.9356 258.983C38.7473 258.983 34.653 257.688 31.1706 255.263C27.6881 252.837 24.9739 249.39 23.3711 245.356C21.7683 241.323 21.3489 236.884 22.166 232.602C22.9831 228.32 25 224.387 27.9615 221.3C30.9231 218.213 34.6964 216.11 38.8043 215.258C42.9121 214.407 47.17 214.844 51.0395 216.515C54.909 218.185 58.2163 221.015 60.5432 224.645C62.8701 228.275 64.1121 232.543 64.1121 236.909C64.1067 242.761 61.8738 248.373 57.9036 252.511C53.9335 256.65 48.5503 258.977 42.9356 258.983V258.983Z" stroke="black" stroke-linecap="round" stroke-linejoin="round"/>
</g>
<g opacity="0.2">
<path opacity="0.2" d="M668.926 196.421C665.288 196.421 661.732 197.546 658.707 199.652C655.682 201.759 653.324 204.754 651.932 208.257C650.54 211.761 650.176 215.616 650.886 219.335C651.595 223.054 653.347 226.471 655.92 229.152C658.492 231.833 661.769 233.659 665.337 234.399C668.905 235.139 672.604 234.759 675.964 233.308C679.325 231.857 682.198 229.4 684.219 226.247C686.24 223.093 687.319 219.387 687.319 215.594C687.314 210.511 685.374 205.638 681.926 202.043C678.477 198.449 673.802 196.427 668.926 196.421ZM670.795 227.317V229.158H667.714V227.317C664.982 226.739 663.606 224.533 663.606 221.097V219.363H667.211V221.354C667.211 223.152 667.971 223.805 669.182 223.805C670.394 223.805 671.154 223.152 671.154 221.354C671.154 216.14 663.709 215.894 663.709 208.668C663.709 205.264 665.054 203.101 667.724 202.48V200.607H670.805V202.48C673.506 203.058 674.913 205.232 674.913 208.668V209.482H671.308V208.411C671.308 206.602 670.62 205.917 669.408 205.917C668.196 205.917 667.467 206.602 667.467 208.411C667.467 213.614 674.923 213.871 674.923 221.097C674.923 224.533 673.496 226.739 670.795 227.317V227.317Z" stroke="black" stroke-linecap="round" stroke-linejoin="round"/>
<path opacity="0.2" d="M668.926 188.724C663.828 188.724 658.844 190.3 654.605 193.252C650.366 196.205 647.062 200.402 645.111 205.312C643.16 210.221 642.649 215.624 643.644 220.837C644.638 226.049 647.093 230.837 650.698 234.595C654.304 238.352 658.897 240.912 663.897 241.948C668.897 242.985 674.08 242.453 678.79 240.419C683.501 238.386 687.527 234.942 690.359 230.523C693.191 226.104 694.703 220.909 694.703 215.594C694.703 212.066 694.037 208.572 692.741 205.312C691.446 202.051 689.547 199.089 687.153 196.594C684.76 194.099 681.918 192.12 678.79 190.769C675.663 189.419 672.311 188.724 668.926 188.724V188.724ZM668.926 237.669C664.736 237.677 660.637 236.39 657.15 233.969C653.662 231.549 650.941 228.104 649.332 224.072C647.723 220.039 647.298 215.599 648.11 211.314C648.923 207.029 650.936 203.092 653.896 200.001C656.856 196.909 660.629 194.803 664.738 193.947C668.847 193.092 673.107 193.527 676.979 195.196C680.851 196.866 684.161 199.695 686.49 203.326C688.818 206.957 690.061 211.227 690.061 215.594C690.056 221.44 687.829 227.045 683.867 231.182C679.906 235.319 674.533 237.652 668.926 237.669V237.669Z" stroke="black" stroke-linecap="round" stroke-linejoin="round"/>
</g>
<path d="M0.952148 421.351H684.926" stroke="#263238" stroke-linecap="round" stroke-linejoin="round"/>
<path d="M41.7129 327.24C44.7939 328.621 52.1779 328.439 52.1882 328.439C52.1985 328.439 50.5861 323.376 50.4423 323.087C48.8197 319.532 43.6642 313.666 39.4638 314.255C38.7708 314.374 38.1095 314.644 37.5229 315.047C36.9363 315.45 36.4375 315.976 36.0589 316.593C35.6803 317.21 35.4303 317.903 35.3251 318.627C35.2199 319.351 35.2619 320.09 35.4483 320.796C36.1466 323.75 39.1249 325.998 41.7129 327.24Z" fill="#0987FF"/>
<path d="M44.2804 349.614C47.423 350.085 54.0574 348.084 54.5503 347.923C55.6422 351.877 56.9872 355.75 58.5761 359.517C59.4799 361.722 60.4658 363.906 61.4825 366.09C60.8766 365.169 60.3323 364.345 60.2398 364.238C57.7648 361.262 51.3153 357.012 47.4128 358.746C46.774 359.05 46.2039 359.492 45.7396 360.041C45.2753 360.59 44.9272 361.235 44.7179 361.934C44.5087 362.633 44.4429 363.37 44.525 364.097C44.6072 364.824 44.8352 365.525 45.1945 366.154C46.6322 368.884 50.0829 370.233 52.8763 370.661C55.6697 371.089 61.3901 369.505 62.8895 369.055L64.0808 371.56C66.0012 375.543 67.932 379.504 69.7087 383.465C70.3351 384.856 70.9103 386.248 71.4854 387.64C70.9411 386.826 70.4584 386.141 70.4584 386.045C67.9833 383.058 61.5236 378.819 57.6313 380.542C56.9896 380.845 56.4163 381.285 55.9487 381.834C55.4811 382.383 55.1298 383.028 54.9176 383.728C54.7054 384.428 54.6371 385.167 54.7171 385.896C54.7972 386.625 55.0238 387.329 55.3822 387.961C56.82 390.691 60.2604 392.04 63.0538 392.468C65.8472 392.896 71.0232 391.451 72.8102 390.937C73.3545 392.382 73.8988 393.838 74.3712 395.219C74.669 396.204 75.0182 397.125 75.2647 398.131C75.5112 399.137 75.7987 400.09 76.0555 401.064C76.4868 402.948 76.9489 404.886 77.3289 406.738C77.596 408.023 77.8322 409.254 78.0786 410.485C77.4727 409.093 76.2198 406.396 76.0863 406.203C74.0323 402.863 68.312 397.639 64.2143 398.709C63.5381 398.91 62.9099 399.256 62.3706 399.726C61.8313 400.197 61.3929 400.78 61.084 401.438C60.775 402.096 60.6023 402.815 60.5772 403.547C60.5521 404.28 60.6751 405.009 60.9382 405.689C61.9652 408.612 65.1797 410.496 67.8704 411.352C70.8486 412.305 77.4214 411.438 78.243 411.352C78.6435 413.408 79.0029 415.399 79.2699 417.294C79.5061 418.696 79.7218 420.034 79.9169 421.33H82.5563C82.3098 419.884 82.0325 418.386 81.7347 416.812C81.3445 414.724 80.8823 412.53 80.3894 410.239C82.3714 409.412 84.3055 408.464 86.1816 407.402C88.3485 409.853 93.8942 412.755 94.6131 413.076C93.8634 415.013 93.1035 416.887 92.364 418.643C91.9841 419.574 91.6041 420.452 91.2241 421.33H94.0175L94.6748 419.659C95.4553 417.7 96.2461 415.581 97.0368 413.408C97.8276 413.579 104.349 414.96 107.379 414.243C110.131 413.6 113.469 411.973 114.701 409.136C115.011 408.479 115.184 407.761 115.211 407.03C115.238 406.298 115.118 405.569 114.857 404.889C114.597 404.209 114.203 403.593 113.7 403.082C113.197 402.571 112.597 402.175 111.938 401.921C107.923 400.518 101.802 405.261 99.6146 408.43C99.4811 408.622 98.259 410.817 97.5092 412.219C97.8276 411.32 98.146 410.464 98.4643 409.543C99.1114 407.723 99.6967 405.882 100.333 403.912C100.611 402.948 100.888 401.974 101.176 401C101.463 400.026 101.669 398.966 101.925 397.938C102.47 395.551 102.952 393.1 103.301 390.627C104.832 391.205 110.295 393.185 113.119 392.982C115.944 392.778 119.466 391.697 121.099 389.085C121.504 388.485 121.782 387.803 121.917 387.083C122.052 386.364 122.039 385.623 121.88 384.908C121.721 384.194 121.419 383.523 120.995 382.938C120.57 382.354 120.032 381.869 119.415 381.516C115.656 379.493 108.909 383.229 106.239 386.002C106.064 386.173 104.359 388.4 103.445 389.631C103.671 388.143 103.897 386.655 104.082 385.145C104.606 380.767 104.996 376.324 105.417 371.892C105.54 370.533 105.684 369.184 105.818 367.835C106.362 368.038 112.801 370.543 115.975 370.308C118.788 370.105 122.321 369.023 123.944 366.411C124.348 365.812 124.627 365.131 124.761 364.412C124.896 363.693 124.883 362.953 124.724 362.239C124.565 361.526 124.263 360.855 123.839 360.272C123.414 359.688 122.876 359.205 122.26 358.853C118.501 356.83 111.764 360.555 109.083 363.328C108.878 363.542 106.424 366.743 105.838 367.61C106.146 364.634 106.475 361.669 106.865 358.757C107.434 354.823 108.251 350.932 109.309 347.109C109.556 347.206 116.272 349.85 119.518 349.614C122.332 349.4 125.864 348.33 127.497 345.718C127.9 345.117 128.178 344.435 128.311 343.716C128.445 342.997 128.432 342.256 128.273 341.542C128.114 340.828 127.813 340.157 127.389 339.573C126.965 338.988 126.428 338.503 125.813 338.149C122.044 336.126 115.307 339.851 112.627 342.635C112.421 342.849 109.782 346.296 109.35 346.917C109.412 346.692 109.453 346.456 109.515 346.242C110.672 342.437 112.154 338.747 113.941 335.216C114.906 333.257 115.933 331.437 117.022 329.681C118.224 330.313 123.739 333.107 126.686 333.225C129.633 333.342 133.125 332.679 135.025 330.27C135.49 329.72 135.838 329.073 136.047 328.374C136.256 327.674 136.322 326.936 136.239 326.208C136.157 325.48 135.929 324.778 135.569 324.148C135.209 323.518 134.727 322.974 134.152 322.551C130.619 320.111 123.533 323.044 120.575 325.506C120.411 325.635 118.922 327.187 117.854 328.322C118.337 327.54 118.809 326.726 119.281 325.988C121.058 323.215 122.845 320.774 124.416 318.644C125.341 317.434 126.193 316.353 126.994 315.357C128.483 315.357 134.471 315.143 137.089 313.859C139.708 312.574 142.563 310.283 143.19 307.232C143.357 306.521 143.38 305.781 143.255 305.06C143.131 304.339 142.862 303.653 142.467 303.048C142.072 302.442 141.559 301.93 140.962 301.544C140.364 301.158 139.696 300.908 139 300.809C134.789 300.327 129.757 306.343 128.257 309.94C128.124 310.251 126.573 315.368 126.655 315.368H126.748C125.947 316.321 125.104 317.338 124.201 318.473C122.557 320.614 120.719 322.98 118.881 325.72C116.878 328.664 115.037 331.723 113.366 334.884C111.481 338.42 109.904 342.124 108.652 345.953C108.657 346 108.657 346.046 108.652 346.092C108.652 344.797 108.652 341.179 108.59 340.9C108.097 337.004 104.965 329.745 100.796 328.942C100.101 328.829 99.391 328.869 98.7122 329.061C98.0335 329.253 97.4012 329.591 96.8565 330.055C96.3118 330.519 95.8671 331.097 95.5513 331.752C95.2356 332.407 95.0559 333.124 95.0239 333.856C94.7775 336.961 96.9341 340.065 99.0395 342.024C101.412 344.24 108.005 346.381 108.529 346.542C107.351 350.471 106.421 354.476 105.746 358.532C105.345 360.887 105.006 363.285 104.719 365.683C104.719 364.559 104.719 363.542 104.667 363.424C104.174 359.517 101.032 352.269 96.8725 351.466C96.1778 351.353 95.4679 351.393 94.7891 351.585C94.1104 351.777 93.4781 352.115 92.9334 352.579C92.3887 353.043 91.944 353.621 91.6283 354.276C91.3125 354.931 91.1328 355.648 91.1008 356.38C90.8544 359.474 93.011 362.589 95.1164 364.548C97.2217 366.508 102.839 368.477 104.359 368.97C104.257 369.89 104.133 370.811 104.031 371.732C103.517 376.164 103.004 380.585 102.429 384.899C102.213 386.43 101.956 387.918 101.689 389.406C101.689 388.421 101.689 387.576 101.689 387.458C101.206 383.55 98.0638 376.292 93.9045 375.489C93.21 375.377 92.5007 375.419 91.8227 375.611C91.1446 375.804 90.5129 376.143 89.9686 376.606C89.4244 377.069 88.9797 377.647 88.6634 378.301C88.3471 378.955 88.1664 379.671 88.1328 380.403C87.8864 383.508 90.043 386.612 92.1484 388.571C94.2537 390.53 99.3373 392.318 101.083 392.907C100.775 394.427 100.467 395.958 100.056 397.414C99.7789 398.399 99.5838 399.373 99.2654 400.358C98.947 401.343 98.6595 402.295 98.3617 403.259C97.7249 405.079 97.0882 406.963 96.4206 408.719C95.9688 409.95 95.5169 411.117 95.065 412.284C95.291 410.774 95.6812 407.798 95.6915 407.541C95.6364 404.077 94.7388 400.685 93.0829 397.681C93.0948 397.295 93.0708 396.907 93.011 396.525C92.9242 395.794 92.6897 395.09 92.3229 394.46C91.9562 393.831 91.4655 393.289 90.8833 392.871C90.301 392.453 89.6404 392.169 88.9451 392.037C88.2497 391.905 87.5354 391.927 86.8491 392.104C82.7412 393.239 80.1634 400.668 79.9683 404.651C79.9683 404.886 80.1018 407.413 80.2148 409.018C80.0094 408.087 79.8245 407.188 79.5986 406.235C79.1672 404.351 78.6948 402.477 78.1813 400.465C77.904 399.501 77.6165 398.527 77.3289 397.553C77.0414 396.579 76.6717 395.573 76.3019 394.566C75.4906 392.265 74.5663 389.963 73.5804 387.672C75.1723 387.276 80.7693 385.788 83.0184 383.989C85.2676 382.191 87.6296 379.268 87.6091 376.153C87.6301 375.42 87.5027 374.691 87.235 374.013C86.9674 373.335 86.5655 372.723 86.0557 372.218C85.5459 371.713 84.9397 371.326 84.2765 371.081C83.6133 370.837 82.9082 370.741 82.2071 370.8C77.9965 371.282 74.3404 378.294 73.5804 382.127C73.5804 382.362 73.2826 385.199 73.1799 386.751C72.574 385.381 71.9783 384.011 71.3313 382.64C69.4519 378.69 67.4288 374.761 65.4261 370.865C64.8202 369.666 64.2143 368.456 63.6186 367.246C64.1835 367.118 70.8794 365.49 73.3956 363.478C75.6344 361.69 78.0067 358.757 77.9862 355.642C78.0073 354.909 77.8798 354.179 77.6121 353.501C77.3445 352.823 76.9426 352.212 76.4328 351.707C75.923 351.202 75.3168 350.814 74.6536 350.57C73.9905 350.326 73.2853 350.23 72.5842 350.289C68.3736 350.76 64.7175 357.783 63.9575 361.604C63.8959 361.904 63.5467 365.972 63.5057 367.021C62.1809 364.356 60.8868 361.669 59.7058 359.014C58.1086 355.406 56.7364 351.694 55.5979 347.902C55.8649 347.837 62.8587 346.178 65.4364 344.112C67.6752 342.324 70.0476 339.391 70.027 336.276C70.0483 335.542 69.9205 334.812 69.6523 334.133C69.384 333.454 68.9812 332.842 68.4703 332.337C67.9593 331.831 67.3518 331.444 66.6874 331.2C66.023 330.957 65.3167 330.862 64.6148 330.923C60.4144 331.394 56.7584 338.417 55.9984 342.238C55.9368 342.549 55.5568 346.927 55.5465 347.73C55.4849 347.516 55.3925 347.291 55.3308 347.067C54.2804 343.216 53.5621 339.275 53.1844 335.291C52.9482 333.096 52.8455 331.009 52.7839 328.932C54.119 328.76 60.1988 327.925 62.7149 326.33C65.231 324.735 67.7985 322.166 68.1066 319.072C68.2052 318.346 68.1556 317.607 67.9611 316.903C67.7665 316.198 67.4313 315.545 66.9776 314.985C66.5238 314.425 65.9616 313.971 65.3279 313.653C64.6942 313.336 64.0032 313.161 63.3003 313.141C59.0691 313.141 54.7044 319.65 53.5336 323.397C53.472 323.611 53.0509 325.752 52.7634 327.315C52.7634 326.395 52.712 325.431 52.7634 324.543C52.7634 321.213 52.9688 318.119 53.1639 315.454C53.2974 313.912 53.4309 312.531 53.585 311.236C54.8071 310.358 59.7469 306.75 61.2052 304.181C62.6635 301.612 63.8754 298.047 62.7765 295.146C62.5419 294.455 62.1702 293.823 61.6856 293.292C61.201 292.761 60.6145 292.342 59.9642 292.064C59.3139 291.785 58.6146 291.652 57.9118 291.674C57.209 291.696 56.5185 291.872 55.8854 292.191C52.1266 294.214 51.1407 302.104 51.7775 305.99C51.8391 306.333 53.2563 311.482 53.3179 311.439H53.3898C53.2255 312.681 53.0612 314.019 52.9174 315.475C52.6607 318.184 52.3937 321.245 52.3115 324.585C52.1936 328.195 52.2758 331.809 52.558 335.408C52.8583 339.439 53.5044 343.434 54.4887 347.345V347.484C53.8212 346.414 51.8596 343.405 51.685 343.202C49.21 340.215 42.7605 335.976 38.8579 337.699C38.2189 338.005 37.6486 338.447 37.1843 338.998C36.7199 339.548 36.3718 340.194 36.1626 340.893C35.9534 341.593 35.8877 342.331 35.9699 343.059C36.0521 343.787 36.2803 344.488 36.6397 345.118C38.0364 347.837 41.487 349.186 44.2804 349.614Z" fill="#0987FF"/>
<path d="M116.848 328.889C116.909 328.889 118.193 323.74 118.244 323.397C118.768 319.5 117.567 311.621 113.756 309.726C113.116 309.426 112.421 309.27 111.718 309.268C111.016 309.266 110.32 309.418 109.678 309.715C109.035 310.012 108.46 310.447 107.99 310.991C107.519 311.536 107.164 312.177 106.948 312.874C105.921 315.796 107.215 319.383 108.755 321.856C110.552 324.757 116.837 328.878 116.848 328.889Z" fill="#0987FF"/>
<path d="M555.526 295.007C559.634 296.859 569.565 296.623 569.575 296.623C569.585 296.623 567.429 289.825 567.244 289.418C565.056 284.644 558.145 276.775 552.517 277.567C551.585 277.724 550.696 278.084 549.906 278.624C549.117 279.164 548.446 279.871 547.937 280.699C547.428 281.528 547.093 282.459 546.953 283.432C546.813 284.405 546.872 285.398 547.125 286.346C548.06 290.403 552.055 293.422 555.526 295.007Z" fill="#0987FF"/>
<path d="M558.966 325.099C563.187 325.742 572.081 323.054 572.79 322.83C574.256 328.138 576.061 333.338 578.192 338.395C579.414 341.35 580.728 344.283 582.094 347.206C581.283 345.964 580.543 344.861 580.43 344.722C577.103 340.729 568.445 335.034 563.218 337.346C562.36 337.756 561.595 338.35 560.972 339.088C560.349 339.827 559.882 340.693 559.601 341.632C559.32 342.571 559.232 343.561 559.342 344.538C559.452 345.515 559.758 346.457 560.24 347.302C562.171 350.963 566.792 352.772 570.51 353.34C574.227 353.907 581.94 351.788 583.953 351.199C584.487 352.323 584.98 353.436 585.545 354.55C588.112 359.902 590.68 365.255 593.093 370.522C593.946 372.395 594.706 374.269 595.476 376.132C594.757 375.061 594.141 374.119 594.028 373.99C590.711 369.987 582.053 364.302 576.826 366.614C575.967 367.022 575.201 367.614 574.577 368.351C573.953 369.088 573.485 369.955 573.204 370.893C572.923 371.832 572.835 372.822 572.946 373.798C573.057 374.774 573.364 375.716 573.847 376.56C575.778 380.221 580.4 382.03 584.117 382.608C587.835 383.186 594.798 381.249 597.191 380.564C597.93 382.501 598.67 384.439 599.245 386.355C599.645 387.672 600.118 388.914 600.446 390.263C600.775 391.611 601.155 392.896 601.473 394.202C602.049 396.729 602.665 399.33 603.178 401.814C603.538 403.537 603.856 405.186 604.205 406.845C603.384 404.972 601.71 401.353 601.535 401.064C598.844 396.589 591.101 389.599 585.606 391.055C584.699 391.324 583.856 391.789 583.133 392.421C582.409 393.052 581.821 393.834 581.407 394.718C580.992 395.601 580.76 396.565 580.727 397.548C580.693 398.531 580.858 399.51 581.211 400.422C582.587 404.351 586.89 406.845 590.515 408.023C594.5 409.297 603.332 408.13 604.431 408.023C604.965 410.774 605.458 413.45 605.879 415.988C606.187 417.861 606.485 419.67 606.752 421.404H610.285C609.946 419.477 609.587 417.454 609.186 415.345C608.652 412.551 608.036 409.575 607.379 406.524C610.037 405.419 612.629 404.15 615.143 402.724C618.049 405.999 625.495 409.843 626.44 410.324C625.413 412.926 624.386 415.442 623.43 417.818C622.907 419.071 622.403 420.248 621.89 421.426H625.639C625.926 420.687 626.224 419.959 626.522 419.188C627.549 416.555 628.627 413.718 629.685 410.795C630.712 411.031 639.493 412.883 643.57 411.866C647.267 410.999 651.786 408.815 653.388 405.015C653.801 404.136 654.032 403.176 654.066 402.199C654.101 401.221 653.938 400.246 653.589 399.338C653.239 398.43 652.711 397.608 652.038 396.926C651.364 396.244 650.561 395.718 649.68 395.38C644.299 393.485 636.083 399.865 633.074 404.115C632.899 404.362 631.266 407.327 630.26 409.19C630.691 407.991 631.112 406.834 631.544 405.603C632.406 403.163 633.187 400.7 634.05 398.045L635.169 394.138C635.569 392.832 635.836 391.408 636.196 390.038C636.925 386.826 637.521 383.55 638.045 380.221C640.098 381.002 647.421 383.657 651.211 383.379C655 383.101 659.735 381.655 661.922 378.155C662.463 377.35 662.835 376.435 663.015 375.471C663.194 374.506 663.177 373.513 662.964 372.555C662.75 371.598 662.346 370.698 661.778 369.914C661.209 369.131 660.488 368.48 659.663 368.006C654.61 365.287 645.572 370.286 641.978 374.023C641.752 374.247 639.462 377.234 638.229 378.894C638.538 376.892 638.846 374.9 639.082 372.866C639.78 366.989 640.314 361.037 640.869 355.085C641.043 353.265 641.228 351.456 641.413 349.636C642.142 349.925 650.779 353.276 655.031 352.965C658.81 352.687 663.555 351.242 665.742 347.741C666.283 346.935 666.656 346.02 666.835 345.054C667.015 344.089 666.998 343.095 666.785 342.136C666.571 341.178 666.167 340.278 665.599 339.493C665.03 338.708 664.309 338.057 663.483 337.582C658.43 334.873 649.383 339.873 645.798 343.598C645.521 343.887 642.235 348.169 641.444 349.304C641.855 345.311 642.296 341.328 642.882 337.421C643.646 332.143 644.737 326.922 646.147 321.791C646.486 321.92 655.493 325.463 659.848 325.153C663.627 324.874 668.361 323.429 670.549 319.918C671.09 319.113 671.462 318.198 671.641 317.234C671.821 316.269 671.803 315.276 671.59 314.318C671.377 313.361 670.973 312.461 670.404 311.677C669.836 310.894 669.115 310.243 668.289 309.769C663.247 307.05 654.199 312.06 650.605 315.786C650.327 316.075 646.784 320.689 646.199 321.577C646.291 321.277 646.343 320.967 646.435 320.667C648.028 315.542 650.059 310.576 652.505 305.83C653.799 303.196 655.175 300.745 656.612 298.4C658.225 299.246 665.629 302.993 669.583 303.153C673.363 303.314 678.231 302.415 680.767 299.192C681.391 298.454 681.859 297.588 682.14 296.649C682.421 295.71 682.509 294.721 682.398 293.744C682.288 292.767 681.981 291.826 681.499 290.981C681.016 290.136 680.368 289.407 679.597 288.84C674.862 285.564 665.342 289.504 661.378 292.791C661.162 292.972 659.17 295.049 657.732 296.58C658.379 295.51 659.016 294.439 659.652 293.444C662.035 289.718 664.428 286.453 666.574 283.584C667.796 281.957 668.947 280.522 670.035 279.184C672.028 279.184 680.059 278.895 683.571 277.171C687.083 275.448 690.914 272.365 691.787 268.275C692.013 267.321 692.044 266.328 691.878 265.361C691.712 264.393 691.352 263.473 690.822 262.66C690.292 261.847 689.604 261.16 688.802 260.643C688.001 260.125 687.104 259.79 686.169 259.657C680.521 259.015 673.845 267.087 671.791 271.915C671.617 272.333 669.553 279.195 669.655 279.184H669.768C668.741 280.447 667.57 281.818 666.369 283.338C664.161 286.175 661.686 289.386 659.18 293.08C656.486 297.023 654.013 301.127 651.775 305.369C649.249 310.108 647.135 315.074 645.459 320.207C645.438 320.27 645.42 320.334 645.408 320.4C645.408 318.665 645.408 313.816 645.316 313.441C644.658 308.206 640.448 298.454 634.861 297.383C633.929 297.233 632.977 297.29 632.068 297.548C631.158 297.806 630.311 298.261 629.581 298.883C628.85 299.505 628.254 300.28 627.829 301.157C627.405 302.035 627.163 302.996 627.117 303.978C626.789 308.142 629.685 312.306 632.509 314.94C635.693 317.905 644.535 320.774 645.233 320.999C643.654 326.261 642.408 331.625 641.505 337.057C640.961 340.269 640.478 343.427 640.098 346.692C640.098 345.193 640.099 343.855 640.027 343.673C639.369 338.427 635.159 328.685 629.572 327.615C628.64 327.462 627.687 327.515 626.776 327.772C625.866 328.028 625.017 328.482 624.285 329.103C623.554 329.724 622.956 330.499 622.531 331.377C622.106 332.255 621.863 333.216 621.818 334.199C621.5 338.363 624.396 342.527 627.22 345.161C630.044 347.795 637.572 350.439 639.544 351.102C639.4 352.334 639.236 353.575 639.092 354.807C638.414 360.748 637.757 366.679 636.946 372.47C636.658 374.515 636.309 376.517 635.919 378.519C635.919 377.191 635.919 376.067 635.847 375.896C635.2 370.65 630.989 360.909 625.402 359.838C624.47 359.687 623.517 359.742 622.606 359.999C621.695 360.257 620.846 360.712 620.115 361.334C619.384 361.955 618.786 362.731 618.361 363.609C617.936 364.488 617.693 365.45 617.649 366.432C617.32 370.597 620.226 374.761 623.05 377.395C625.875 380.028 632.673 382.405 635.035 383.208C634.625 385.242 634.214 387.287 633.721 389.246C633.361 390.573 633.094 391.879 632.694 393.196C632.293 394.513 631.883 395.808 631.482 397.093C630.63 399.533 629.767 402.06 628.874 404.426C628.268 406.064 627.662 407.637 627.056 409.2C627.364 407.166 627.888 403.184 627.888 402.841C627.831 398.192 626.629 393.635 624.396 389.61C624.406 389.094 624.375 388.578 624.303 388.068C624.186 387.092 623.873 386.153 623.384 385.312C622.896 384.471 622.243 383.746 621.468 383.186C620.692 382.625 619.813 382.241 618.886 382.059C617.959 381.876 617.005 381.899 616.087 382.127C610.593 383.647 607.122 393.688 606.845 398.966C606.845 399.276 607.029 402.67 607.184 404.811C606.906 403.569 606.649 402.36 606.352 401.086C605.777 398.549 605.13 396.043 604.452 393.346C604.075 392.054 603.695 390.748 603.312 389.428C602.963 388.122 602.429 386.773 601.987 385.434C600.898 382.341 599.656 379.257 598.341 376.185C600.467 375.65 607.974 373.659 610.994 371.239C614.013 368.82 617.156 364.912 617.156 360.727C617.182 359.744 617.009 358.767 616.649 357.858C616.289 356.95 615.749 356.131 615.065 355.454C614.381 354.778 613.568 354.259 612.679 353.932C611.79 353.604 610.845 353.475 609.905 353.554C604.257 354.196 599.358 363.574 598.331 368.745C598.269 369.066 597.93 372.866 597.787 374.965C596.986 373.123 596.184 371.282 595.312 369.441C592.785 364.152 590.074 358.875 587.393 353.586C586.572 351.97 585.771 350.374 584.959 348.737C585.719 348.555 594.706 346.381 598.084 343.673C601.083 341.275 604.246 337.346 604.246 333.16C604.271 332.178 604.097 331.201 603.736 330.293C603.374 329.385 602.833 328.567 602.148 327.891C601.464 327.216 600.65 326.698 599.76 326.372C598.871 326.046 597.925 325.918 596.986 325.998C591.347 326.63 586.449 336.008 585.422 341.179C585.339 341.575 584.867 347.045 584.816 348.437C583.039 344.872 581.293 341.296 579.681 337.731C577.524 332.891 575.672 327.91 574.135 322.819C574.494 322.733 583.871 320.507 587.332 317.745C590.341 315.336 593.494 311.407 593.494 307.232C593.521 306.249 593.35 305.271 592.99 304.362C592.631 303.453 592.091 302.633 591.407 301.956C590.722 301.279 589.909 300.76 589.019 300.433C588.129 300.107 587.183 299.979 586.243 300.059C580.595 300.691 575.696 310.069 574.669 315.25C574.597 315.657 574.084 321.534 574.063 322.605C573.981 322.316 573.858 322.016 573.776 321.727C572.381 316.562 571.429 311.277 570.931 305.937C570.612 302.993 570.469 300.166 570.386 297.372C572.173 297.148 580.338 296.013 583.737 293.882C587.137 291.752 590.567 288.294 590.978 284.13C591.105 283.156 591.034 282.166 590.77 281.222C590.506 280.279 590.055 279.404 589.446 278.654C588.837 277.904 588.084 277.296 587.235 276.869C586.386 276.442 585.46 276.206 584.518 276.176C578.839 276.176 572.985 284.922 571.424 289.954C571.331 290.221 570.766 293.101 570.397 295.199C570.397 293.957 570.335 292.673 570.397 291.484C570.397 287.01 570.674 282.92 570.941 279.28C571.116 277.225 571.301 275.362 571.506 273.628C573.149 272.45 579.722 267.612 581.776 264.164C583.83 260.717 585.36 255.921 583.881 252.035C583.565 251.11 583.066 250.263 582.416 249.552C581.765 248.841 580.979 248.28 580.107 247.906C579.235 247.533 578.298 247.355 577.355 247.384C576.413 247.413 575.487 247.648 574.638 248.074C569.585 250.793 568.261 261.381 569.093 266.595C569.175 267.044 571.075 273.949 571.146 273.896L571.239 273.821C571.013 275.491 570.797 277.289 570.602 279.248C570.253 282.877 569.894 286.977 569.791 291.474C569.629 296.312 569.742 301.155 570.13 305.979C570.525 311.402 571.388 316.776 572.707 322.037C572.707 322.091 572.707 322.155 572.707 322.219C571.814 320.753 569.185 316.749 568.949 316.471C565.632 312.467 556.974 306.782 551.747 309.095C550.889 309.505 550.124 310.098 549.501 310.837C548.877 311.575 548.41 312.442 548.129 313.381C547.848 314.32 547.76 315.31 547.87 316.287C547.98 317.263 548.286 318.205 548.768 319.051C550.596 322.723 555.218 324.532 558.966 325.099Z" fill="#0987FF"/>
<path d="M656.335 297.265C656.417 297.33 658.143 290.36 658.204 289.911C658.903 284.676 657.301 274.131 652.186 271.562C651.326 271.159 650.394 270.949 649.452 270.946C648.509 270.944 647.576 271.148 646.714 271.546C645.851 271.943 645.079 272.526 644.447 273.256C643.815 273.985 643.338 274.845 643.046 275.78C641.68 279.709 643.416 284.526 645.47 287.834C647.883 291.752 656.325 297.265 656.335 297.265Z" fill="#0987FF"/>
<g opacity="0.3">
<path opacity="0.3" d="M101.371 218.699C108.047 220.926 123.647 218.86 123.657 218.86C123.821 218.86 119.231 208.561 118.871 207.94C114.702 200.832 102.624 189.655 93.9258 191.882C87.6509 193.456 84.7753 200.446 86.8293 206.559C88.8833 212.672 95.6819 216.815 101.371 218.699Z" stroke="black" stroke-linecap="round" stroke-linejoin="round"/>
<path opacity="0.3" d="M201.667 327.337C205.467 323.055 208.856 317.156 208.219 311.354C207.531 304.93 202.057 299.92 195.721 301.333C186.961 303.292 180.737 318.826 179.936 327.123C179.936 327.636 179.936 333.653 180.059 336.961C178.508 334.21 176.978 331.458 175.314 328.728C170.529 320.839 165.455 313.024 160.423 305.177C158.872 302.779 157.342 300.37 155.843 297.972C156.541 297.726 161.697 295.831 166.79 293.401" stroke="black" stroke-linecap="round" stroke-linejoin="round"/>
<path opacity="0.3" d="M190.75 358.115C190.01 356.316 189.086 354.496 188.275 352.666C186.087 347.998 183.664 343.373 181.086 338.749C186.105 336.944 190.982 334.732 195.669 332.133" stroke="black" stroke-linecap="round" stroke-linejoin="round"/>
<path opacity="0.3" d="M256.673 273.714C254.492 275.394 252.504 277.33 250.747 279.484C250.367 279.966 245.879 287.256 244.822 289.119C244.822 282.781 244.904 276.465 245.212 270.245C245.593 261.836 246.492 253.462 247.903 245.173C248.457 245.323 263.133 249.348 269.911 248.117C275.796 247.047 283.005 243.964 285.891 238.097C288.777 232.23 286.774 225.004 280.756 222.553C272.417 219.159 259.015 228.537 253.962 234.992C253.561 235.496 248.734 243.343 247.954 244.831C248.046 244.349 248.077 243.846 248.17 243.364C249.814 235.096 252.158 226.996 255.174 219.159C256.796 214.802 258.573 210.745 260.38 206.827C263.04 207.897 275.251 212.501 281.465 212.083C287.431 211.687 294.918 209.46 298.4 203.968C301.881 198.477 300.649 191.047 294.939 187.91C287.01 183.628 272.694 191.358 266.994 197.203C266.676 197.513 263.913 201.11 261.859 203.754C262.701 201.999 263.544 200.179 264.386 198.509C267.528 192.257 270.774 186.733 273.69 181.873C275.364 179.121 276.936 176.659 278.435 174.379C281.516 173.983 294.117 172.238 299.355 168.93C304.592 165.622 310.076 160.237 310.785 153.664C311.494 147.091 307.078 141.117 300.628 141.096C291.673 141.096 282.409 154.842 279.924 162.774C279.708 163.459 277.541 174.55 277.695 174.55H277.891C276.412 176.691 274.81 179.057 273.197 181.648C270.168 186.465 266.799 191.925 263.513 198.123C259.903 204.77 256.666 211.629 253.818 218.667C250.594 226.534 248.047 234.684 246.208 243.021C246.208 243.118 246.208 243.225 246.208 243.321C245.982 240.602 245.109 233.001 244.976 232.423C243.137 224.319 235.004 209.771 226.079 209.032C219.65 208.497 214.782 214.224 214.957 220.679C215.131 227.135 220.287 233.312 225.124 236.962C230.588 241.073 244.904 244.071 246.044 244.317C244.373 252.843 243.251 261.477 242.685 270.159C242.336 275.223 242.131 280.33 241.977 285.457C241.71 283.102 241.453 281.004 241.391 280.715C239.553 272.6 231.419 258.062 222.495 257.324C216.066 256.789 211.198 262.516 211.373 268.971C211.547 275.427 216.703 281.603 221.54 285.243C226.377 288.883 238.608 291.763 241.833 292.469C241.833 294.428 241.741 296.398 241.71 298.357C241.566 307.789 241.463 317.209 241.094 326.437C240.97 329.649 240.724 332.861 240.498 336.072C240.251 333.931 240.036 332.229 239.974 331.972C238.136 323.857 230.012 309.32 221.088 308.57C214.649 308.046 209.791 313.773 209.955 320.218C210.12 326.662 215.285 332.861 220.123 336.5C224.96 340.14 236.01 342.742 239.841 343.587C239.512 346.863 239.183 350.139 238.721 353.286C238.362 355.427 238.156 357.569 237.694 359.71C237.232 361.851 236.832 363.928 236.411 366.015C235.455 369.987 234.49 374.098 233.463 377.962C232.775 380.649 232.056 383.197 231.409 385.756C231.573 382.544 231.769 376.185 231.727 375.65C230.901 368.368 228.299 361.428 224.169 355.492C224.111 354.678 223.98 353.872 223.779 353.083C222.176 346.853 215.994 342.763 209.966 345.15C201.596 348.469 197.703 364.805 198.124 373.134C198.124 373.616 198.987 378.915 199.562 382.244C198.936 380.35 198.35 378.487 197.683 376.538C196.389 372.663 194.982 368.841 193.482 364.763" stroke="black" stroke-linecap="round" stroke-linejoin="round"/>
<path opacity="0.3" d="M150.544 349.293C153.571 350.458 156.757 351.112 159.982 351.231C165.754 351.477 176.527 347.291 180.173 345.803C181.631 348.726 183.089 351.638 184.373 354.539C185.205 356.541 186.139 358.404 186.869 360.459C187.598 362.514 188.388 364.474 189.138 366.454C190.442 370.319 191.819 374.301 193 378.112C193.842 380.756 194.602 383.283 195.372 385.831C193.801 383.037 190.607 377.641 190.288 377.213C185.359 370.661 172.131 361.005 163.73 364.227C157.671 366.55 155.586 373.862 158.308 379.664C161.029 385.467 168.218 388.807 174.083 390.006C180.532 391.312 194.201 388.004 195.906 387.576C197.159 391.794 198.35 395.915 199.408 399.823C200.195 402.713 200.935 405.496 201.626 408.173L207.172 407.573C206.34 404.597 205.457 401.493 204.492 398.249C203.228 393.967 201.801 389.396 200.291 384.728C204.286 382.536 208.154 380.102 211.876 377.438C216.949 382.095 229.222 386.848 230.813 387.458C229.632 391.74 228.441 395.819 227.25 399.683C226.634 401.739 226.017 403.676 225.411 405.593L231.275 404.961C231.625 403.751 231.974 402.563 232.302 401.3C233.514 397.018 234.736 392.372 235.948 387.608C237.663 387.79 251.661 389.203 257.895 387.019C263.554 385.028 270.219 380.842 272.273 374.601C274.327 368.36 271.246 361.508 264.94 360.042C256.211 357.997 244.318 369.387 240.292 376.571C240.046 376.988 237.951 381.923 236.667 385.006C237.15 383.058 237.643 381.163 238.115 379.151C239.091 375.179 239.933 371.186 240.868 366.893C241.248 364.752 241.638 362.686 242.018 360.555C242.398 358.425 242.644 356.166 242.973 353.95C243.62 348.801 244 343.555 244.339 338.256C247.677 339.123 259.579 342.046 265.495 340.975C271.41 339.905 278.579 336.822 281.464 330.966C284.35 325.11 282.348 317.862 276.33 315.411C267.99 312.017 254.578 321.395 249.525 327.851C249.207 328.257 246.085 333.31 244.39 336.126C244.544 332.914 244.719 329.756 244.78 326.491C244.965 317.167 244.863 307.725 244.78 298.304C244.78 295.413 244.78 292.534 244.78 289.654C245.972 289.986 260.041 293.775 266.666 292.566C272.55 291.495 279.749 288.423 282.635 282.556C285.521 276.69 283.518 269.464 277.5 267.012C273.577 265.417 268.535 266.648 263.769 269.068" stroke="black" stroke-linecap="round" stroke-linejoin="round"/>
<path opacity="0.3" d="M141.085 339.198C141.407 340.735 142.018 342.191 142.882 343.48C143.678 344.676 144.648 345.735 145.758 346.617" stroke="black" stroke-linecap="round" stroke-linejoin="round"/>
<path opacity="0.3" d="M113.922 265.214C121.039 264.421 131.874 259.861 132.839 259.422C135.954 267.495 139.584 275.342 143.705 282.91C146.087 287.342 148.614 291.72 151.202 296.077C149.733 294.268 148.418 292.662 148.203 292.459C142.38 286.753 127.899 279.302 120.063 283.809C114.415 287.02 113.419 294.621 116.982 299.931C120.546 305.241 128.115 307.425 134.071 307.66C140.028 307.896 151.756 303.282 154.827 302.008C155.854 303.667 156.819 305.337 157.836 306.997C162.714 314.94 167.613 322.851 172.214 330.762C173.826 333.546 175.295 336.351 176.825 339.155C175.521 337.56 174.411 336.222 174.216 336.029C168.393 330.323 153.913 322.873 146.077 327.38C144.298 328.399 142.864 329.965 141.969 331.865" stroke="black" stroke-linecap="round" stroke-linejoin="round"/>
<path opacity="0.3" d="M154.847 198.776C155.067 197.786 155.181 196.774 155.186 195.757C155.186 189.334 150.236 183.692 143.817 184.367C134.903 185.32 127.087 200.05 125.424 208.197C125.331 208.636 124.879 213.25 124.612 216.611C124.386 214.663 124.119 212.661 123.945 210.788C123.257 203.765 123.041 197.299 122.918 191.518C122.856 188.253 122.866 185.309 122.918 182.547C125.311 180.406 134.862 171.724 137.491 165.964C140.12 160.205 141.825 152.444 138.908 146.599C135.991 140.753 129.172 138.259 123.78 141.952C116.294 147.07 115.862 163.898 117.988 171.927C118.173 172.623 122.24 183.136 122.363 183.029L122.507 182.9C122.414 185.555 122.353 188.414 122.343 191.518C122.343 197.267 122.445 203.765 122.99 210.788C123.492 218.407 124.421 225.988 125.773 233.494C127.252 241.908 129.445 250.169 132.325 258.18C132.325 258.277 132.407 258.373 132.438 258.459C130.815 256.318 126.06 250.483 125.65 250.076C119.826 244.37 105.346 236.919 97.51 241.437C91.8616 244.649 90.8654 252.239 94.429 257.549C97.13 261.606 102.049 263.779 106.845 264.721" stroke="black" stroke-linecap="round" stroke-linejoin="round"/>
<path opacity="0.3" d="M170.652 291.399C172.446 290.428 174.119 289.231 175.633 287.834C179.977 283.552 184.362 276.85 183.664 270.299C182.966 263.747 177.502 258.876 171.166 260.289C162.405 262.248 156.182 277.782 155.391 286.068C155.329 286.699 155.442 295.349 155.566 297.554C152.228 292.255 148.942 286.945 145.902 281.582C141.765 274.345 138.084 266.836 134.882 259.101C135.416 258.908 149.794 253.823 154.795 248.899C159.129 244.617 163.515 237.915 162.816 231.363C162.118 224.812 156.654 219.93 150.318 221.343C141.558 223.302 135.344 238.836 134.543 247.132C134.482 247.785 134.605 257.099 134.738 258.78C134.553 258.341 134.317 257.891 134.143 257.442C131.134 249.598 128.804 241.491 127.18 233.215C126.225 228.666 125.557 224.255 124.992 219.941C127.765 219.288 140.397 216.119 145.357 212.201C147.766 210.327 149.898 208.094 151.684 205.574" stroke="black" stroke-linecap="round" stroke-linejoin="round"/>
<path opacity="0.3" d="M259.835 205.2C259.989 205.274 261.601 194.066 261.632 193.349C261.909 185.02 257.75 168.726 249.308 165.579C243.249 163.299 237.138 167.495 235.629 173.747C234.119 179.999 237.57 187.407 241.318 192.246C245.734 197.931 259.825 205.2 259.835 205.2Z" stroke="black" stroke-linecap="round" stroke-linejoin="round"/>
</g>
<g opacity="0.3">
<path opacity="0.3" d="M495.345 67.9571C500.921 70.3016 506.508 71.9288 506.518 71.9288C506.528 71.9288 506.282 60.6775 506.231 59.9281C505.029 51.6957 498.015 36.5048 489.234 35.0061C482.867 33.9356 477.598 39.224 477.229 45.7114C476.859 52.1989 481.552 58.7505 486.091 62.84" stroke="black" stroke-linecap="round" stroke-linejoin="round"/>
<path opacity="0.3" d="M627.045 156.94C628.114 157.446 629.224 157.851 630.363 158.15C636.186 159.531 643.97 159.627 648.848 155.388C653.727 151.148 654.538 143.676 649.875 138.987C643.457 132.478 627.6 135.69 620.534 139.597C619.98 139.897 612.616 145.175 611.343 146.224C611.6 145.817 611.825 145.367 612.082 144.961C616.684 138.01 621.866 131.497 627.569 125.498C630.65 122.137 633.824 119.075 636.956 116.238C639.01 118.283 648.54 127.479 654.415 129.62C660.053 131.675 667.766 132.649 673.044 128.999C674.978 127.7 676.472 125.8 677.314 123.568C678.157 121.336 678.305 118.884 677.738 116.559" stroke="black" stroke-linecap="round" stroke-linejoin="round"/>
<path opacity="0.3" d="M543.438 23.6584C545.975 20.0507 547.803 15.7793 547.474 11.4972C546.971 5.07399 541.61 -0.118102 535.263 1.0916C526.452 2.78304 519.786 18.1131 518.749 26.3776C518.667 27.0842 518.492 38.4211 518.646 38.3783L518.831 38.3141C517.804 40.7335 516.633 43.3242 515.473 46.1932C513.347 51.5459 511.006 57.5194 508.869 64.2531C506.492 71.4773 504.523 78.841 502.975 86.3061C501.198 94.6555 500.139 103.154 499.811 111.699C499.806 111.803 499.806 111.906 499.811 112.01C499.113 109.365 496.905 102.075 496.73 101.529C493.485 93.9176 482.928 81.1889 474.024 82.1738C467.605 82.8804 463.867 89.4427 465.14 95.7589C466.414 102.075 472.617 107.149 478.019 109.804C484.109 112.791 498.713 113.016 499.873 113.016C499.73 121.716 500.138 130.417 501.095 139.062C501.639 144.104 502.338 149.157 503.149 154.221C502.471 151.962 501.845 149.939 501.732 149.682C498.487 142.059 487.919 129.342 479.015 130.316C472.606 131.033 468.868 137.595 470.142 143.901C471.415 150.206 477.618 155.302 483.02 157.946C488.422 160.59 500.941 161.072 504.238 161.158C504.556 163.095 504.844 165.033 505.162 166.971C506.692 176.274 508.243 185.545 509.527 194.687C509.979 197.899 510.307 201.11 510.646 204.322C510.04 202.309 509.516 200.628 509.404 200.382C506.169 192.76 495.601 180.042 486.697 181.016C480.288 181.733 476.55 188.296 477.824 194.601C479.097 200.907 485.3 206.002 490.702 208.647C495.929 211.216 507.411 211.73 511.324 211.858C511.581 215.145 511.837 218.421 511.94 221.611C511.94 223.752 512.135 225.893 512.043 228.034C511.95 230.175 511.94 232.316 511.899 234.457C511.663 238.547 511.437 242.775 511.119 246.758C510.903 249.541 510.656 252.175 510.42 254.84C510.009 251.629 509.075 245.355 508.941 244.841C506.887 236.802 498.25 222.542 489.305 222.114C482.835 221.793 478.193 227.681 478.501 234.104C478.81 240.527 484.232 246.544 489.182 250.012C494.646 253.845 508.469 256.318 510.205 256.617C509.783 261.017 509.342 265.289 508.869 269.325C508.52 272.301 508.161 275.17 507.791 277.889L513.131 279.58C513.481 276.511 513.823 273.3 514.158 269.945C514.6 265.481 514.98 260.696 515.329 255.782C519.813 255.377 524.271 254.701 528.68 253.759C531.628 260.096 541.168 269.453 542.401 270.652C539.73 274.088 537.101 277.396 534.565 280.479C533.23 282.117 531.946 283.691 530.672 285.179L536.311 286.967L538.642 284.023C541.374 280.554 544.218 276.775 547.115 272.879C548.614 273.746 560.989 280.715 567.552 281.218C573.508 281.678 581.221 280.533 585.39 275.587C589.56 270.641 589.314 263.105 584.055 259.208C576.774 253.78 561.575 259.465 555.156 264.432C554.776 264.732 551.048 268.393 548.676 270.748C549.846 269.143 551.007 267.601 552.188 265.942C554.56 262.676 556.84 259.336 559.295 255.75L562.714 250.397C563.896 248.62 564.923 246.597 566.052 244.692C568.568 240.206 570.9 235.538 573.159 230.775C575.911 232.916 585.791 240.409 591.645 241.844C597.499 243.278 605.252 243.321 610.131 239.082C615.009 234.843 615.82 227.37 611.158 222.681C604.739 216.173 588.892 219.384 581.827 223.292C581.385 223.538 576.62 226.931 574.032 228.848C575.367 225.979 576.712 223.12 577.976 220.166C581.621 211.601 585.051 202.909 588.502 194.205C589.529 191.54 590.649 188.852 591.727 186.24C592.754 187.022 604.256 196.218 610.808 197.781C616.621 199.172 624.416 199.258 629.294 195.019C634.172 190.779 634.984 183.318 630.321 178.629C623.902 172.12 608.056 175.332 600.99 179.228C600.456 179.528 593.606 184.42 591.922 185.759C594.294 179.914 596.708 174.122 599.316 168.512C602.795 160.917 606.744 153.564 611.137 146.502C614.734 149.361 618.485 152.002 622.372 154.413" stroke="black" stroke-linecap="round" stroke-linejoin="round"/>
<path opacity="0.3" d="M534.709 72.4534C538.765 70.4729 542.524 67.4754 544.198 63.3325C546.601 57.391 544.126 50.2077 537.964 48.2379C529.399 45.4974 516.706 55.903 512.135 62.7437C511.879 63.1183 509.753 67.1864 508.243 70.1732C508.767 68.289 509.27 66.3299 509.804 64.5314C511.786 57.7871 514.005 51.7386 515.966 46.3966C517.127 43.367 518.236 40.6478 519.304 38.1214C522.303 37.1258 534.329 32.9828 538.899 28.7435C539.351 28.326 539.792 27.8871 540.234 27.4268" stroke="black" stroke-linecap="round" stroke-linejoin="round"/>
<path opacity="0.3" d="M674.954 111.828C668.618 105.747 653.706 107.139 646.63 110.061C646.23 110.233 642.296 112.406 639.441 114.022C640.869 112.748 642.327 111.41 643.724 110.222C648.951 105.736 653.994 101.957 658.492 98.6494C661.07 96.7973 663.432 95.1701 665.681 93.6714C668.7 94.5706 680.932 98.0284 686.991 97.1185C693.05 96.2085 700.188 93.3823 703.248 87.6122C706.308 81.842 704.501 74.5516 698.565 71.9181C690.349 68.2569 676.659 77.2708 671.422 83.512C670.97 84.058 664.818 93.4145 664.982 93.4573H665.167C662.99 94.8597 660.679 96.3798 658.194 98.1034C653.614 101.315 648.468 104.976 643.128 109.365C637.325 114.022 631.787 119.026 626.542 124.353C620.642 130.299 615.26 136.78 610.46 143.719L610.306 143.976C611.117 141.374 613.14 134.02 613.232 133.442C614.557 125.22 612.483 108.53 604.534 104.227C598.813 101.133 592.21 104.462 589.94 110.457C587.671 116.452 590.146 124.257 593.247 129.577C596.749 135.572 608.827 144.136 609.782 144.821C605.067 152.011 600.82 159.522 597.068 167.303C594.849 171.831 592.754 176.445 590.711 181.113C591.347 178.832 591.892 176.83 591.933 176.509C593.258 168.288 591.193 151.598 583.244 147.294C577.514 144.201 570.921 147.53 568.651 153.525C566.381 159.52 568.856 167.324 571.958 172.645C575.059 177.965 585.309 185.555 587.969 187.514C587.198 189.313 586.418 191.09 585.658 192.867C582.012 201.506 578.407 210.135 574.628 218.496C573.303 221.44 571.886 224.287 570.52 227.145C571.075 225.122 571.547 223.42 571.547 223.152C572.872 214.931 570.797 198.241 562.848 193.948C557.118 190.854 550.524 194.173 548.255 200.168C545.985 206.163 548.46 213.967 551.562 219.288C554.561 224.437 563.886 231.47 567.09 233.804C565.56 236.684 564.009 239.574 562.438 242.294C561.308 244.124 560.332 245.965 559.1 247.743L555.526 253.095C553.164 256.371 550.75 259.775 548.337 262.912C546.694 265.053 545.081 267.194 543.479 269.25C544.835 266.327 547.382 260.568 547.536 260.054C549.495 253.01 549.686 245.561 548.091 238.418C548.339 237.644 548.522 236.849 548.635 236.042C549.477 229.618 545.307 223.377 538.858 223.142C529.913 222.81 520.239 236.299 517.517 244.135C517.353 244.595 516.151 249.809 515.463 253.117C515.586 251.115 515.74 249.166 515.853 247.09C516.1 243 516.223 238.911 516.387 234.511C516.387 232.37 516.387 230.229 516.387 228.088C516.387 225.947 516.223 223.656 516.151 221.418C515.874 216.237 515.35 210.991 514.713 205.724C518.154 205.949 530.375 206.527 535.993 204.332C541.61 202.138 548.183 197.706 549.98 191.39C551.777 185.074 548.532 178.351 542.196 177.098C533.394 175.364 521.872 187.161 518.051 194.473C517.805 194.933 515.627 200.5 514.487 203.594C514.087 200.382 513.697 197.267 513.183 194.077C511.715 184.881 509.948 175.621 508.223 166.371C507.699 163.534 507.196 160.708 506.693 157.882C507.925 157.968 522.426 158.952 528.722 156.533C534.308 154.392 540.85 149.939 542.647 143.622C544.445 137.306 541.199 130.583 534.863 129.331C526.062 127.597 514.539 139.394 510.718 146.706C510.431 147.262 507.299 155.27 506.61 157.411C505.501 151.17 504.454 144.95 503.653 138.773C502.537 130.436 501.941 122.033 501.866 113.615C502.441 113.615 517.579 114.793 524.018 112.277C529.615 110.136 536.147 105.683 537.944 99.3666C539.741 93.0505 536.496 86.3275 530.159 85.075C521.358 83.3407 509.845 95.1273 506.015 102.45C505.717 103.028 502.359 111.656 501.907 113.273C501.907 112.78 501.855 112.277 501.855 111.785C502.013 103.342 502.886 94.9309 504.464 86.6487C505.286 82.0668 506.313 77.7311 507.401 73.5346C510.195 74.0485 523.011 76.2431 529.05 74.6052C529.8 74.4018 530.57 74.177 531.34 73.8986" stroke="black" stroke-linecap="round" stroke-linejoin="round"/>
<path opacity="0.3" d="M637.099 114.472C637.212 114.6 642.881 104.923 643.168 104.27C646.527 96.7116 648.766 80.0327 642.141 73.7058C637.407 69.1454 630.208 70.4942 626.49 75.697C622.772 80.8998 623.194 89.0573 624.837 95.0416C626.809 102.075 637.099 114.461 637.099 114.472Z" stroke="black" stroke-linecap="round" stroke-linejoin="round"/>
</g>
<path d="M319.154 176.83H646.085L603.773 421.34H276.842L319.154 176.83Z" fill="white" stroke="#263238" stroke-linecap="round" stroke-linejoin="round"/>
<path d="M639.543 176.83L619.198 294.418L600.414 402.981L597.231 421.351H270.31L301.9 238.793L312.622 176.83H639.543Z" fill="#263238" stroke="#263238" stroke-linecap="round" stroke-linejoin="round"/>
<path d="M321.546 184.495H627.969L588.306 413.675H281.884L321.546 184.495Z" fill="#0987FF" stroke="#263238" stroke-linecap="round" stroke-linejoin="round"/>
<path d="M284.985 395.755L281.884 413.675H588.306L591.408 395.755H284.985Z" fill="#BFBFBF" stroke="#263238" stroke-linecap="round" stroke-linejoin="round"/>
<path d="M618.89 184.495L579.228 413.675H588.306L627.968 184.495H618.89Z" fill="#BFBFBF" stroke="#263238" stroke-linecap="round" stroke-linejoin="round"/>
<path d="M613.55 267.783L621.263 223.195H612.195L604.472 267.783H613.55Z" fill="#A1A1A1" stroke="#263238" stroke-linecap="round" stroke-linejoin="round"/>
<path d="M598.772 405.154H197.466V421.34H598.772V405.154Z" fill="white" stroke="#263238" stroke-linecap="round" stroke-linejoin="round"/>
<path d="M254.689 405.154H57.7129V421.34H254.689V405.154Z" fill="#263238" stroke="#263238" stroke-linecap="round" stroke-linejoin="round"/>
<path d="M318.742 200.682H625.165L627.968 184.495H321.546L318.742 200.682Z" fill="#BFBFBF" stroke="#263238" stroke-linecap="round" stroke-linejoin="round"/>
<path d="M338.029 195.64H483.985L485.32 187.921H339.364L338.029 195.64Z" fill="white" stroke="#263238" stroke-linecap="round" stroke-linejoin="round"/>
<path opacity="0.2" d="M330.882 273.864H444.067L429.422 358.521H316.237L330.882 273.864Z" fill="black"/>
<path d="M323.899 266.038H437.093L422.449 350.685H309.254L323.899 266.038Z" fill="white" stroke="#263238" stroke-linecap="round" stroke-linejoin="round"/>
<path d="M435.379 275.897L437.094 266.038H323.899L322.194 275.897H435.379Z" fill="#263238" stroke="#263238" stroke-linecap="round" stroke-linejoin="round"/>
<path d="M430.819 271.187C430.821 271.766 430.658 272.333 430.351 272.815C430.044 273.297 429.606 273.673 429.093 273.896C428.581 274.118 428.016 274.177 427.471 274.065C426.926 273.952 426.426 273.674 426.033 273.264C425.64 272.855 425.373 272.333 425.265 271.765C425.157 271.197 425.214 270.609 425.427 270.074C425.641 269.54 426.002 269.084 426.464 268.763C426.927 268.443 427.47 268.273 428.026 268.275C428.767 268.275 429.477 268.582 430.001 269.128C430.525 269.674 430.819 270.415 430.819 271.187V271.187Z" fill="white" stroke="#263238" stroke-linecap="round" stroke-linejoin="round"/>
<path d="M367.792 285.297C373.297 286.132 375.033 290.724 373.79 297.255L373.543 298.571H368.675L368.994 296.901C369.805 292.619 368.645 289.954 364.886 289.954C361.127 289.954 359.053 292.598 358.241 296.901C356.187 307.81 371.828 307.885 369.24 321.524C368.008 328.054 364.455 332.711 358.631 333.546L357.933 337.228H353.671L354.37 333.546C348.731 332.711 346.996 328.118 348.208 321.524L348.772 318.537H353.64L353.014 321.866C352.182 326.245 353.445 328.75 357.183 328.75C360.922 328.75 363.119 326.245 363.941 321.866C365.995 311.032 350.426 310.893 353.014 297.244C354.267 290.575 357.697 286.196 363.469 285.286L364.208 281.4H368.47L367.792 285.297Z" fill="#263238"/>
<path d="M378.371 326.994L377.097 333.738H372.096L373.369 326.994H378.371ZM376.902 307.971L381.226 285.115H386.422L382.099 307.971L378.597 322.958H374.776L376.902 307.971Z" fill="#263238"/>
<path d="M388.897 326.994L387.623 333.738H382.622L383.896 326.994H388.897ZM387.439 307.971L391.752 285.115H396.959L392.635 307.971L389.154 322.958H385.282L387.439 307.971Z" fill="#263238"/>
<path opacity="0.2" d="M619.2 294.418L600.416 402.981H483.186L501.979 294.418H619.2Z" fill="black"/>
<path d="M493.383 287.138H638.538L619.754 395.701H474.6L493.383 287.138Z" fill="white" stroke="#263238" stroke-linecap="round" stroke-linejoin="round"/>
<path d="M636.35 299.792L638.537 287.138H493.383L491.195 299.792H636.35Z" fill="#263238" stroke="#263238" stroke-linecap="round" stroke-linejoin="round"/>
<path d="M630.496 293.754C630.496 294.495 630.285 295.22 629.89 295.837C629.495 296.453 628.933 296.933 628.275 297.217C627.618 297.5 626.895 297.574 626.197 297.428C625.499 297.283 624.859 296.925 624.357 296.4C623.855 295.875 623.513 295.206 623.375 294.478C623.238 293.751 623.311 292.997 623.584 292.313C623.858 291.628 624.32 291.044 624.913 290.633C625.505 290.223 626.201 290.005 626.912 290.007C627.384 290.007 627.851 290.104 628.286 290.293C628.722 290.481 629.117 290.757 629.45 291.105C629.783 291.453 630.047 291.866 630.227 292.321C630.406 292.775 630.498 293.262 630.496 293.754Z" fill="white" stroke="#263238" stroke-linecap="round" stroke-linejoin="round"/>
<path d="M508.335 340.569C509.477 338.931 510.978 337.602 512.713 336.693C514.447 335.784 516.366 335.322 518.307 335.344C526.082 335.344 528.413 341.286 526.708 350.332L524.377 362.675C522.559 372.31 516.962 378.605 507.719 378.605C498.476 378.605 495.395 372.31 497.172 362.675L497.973 358.393H504.279L503.396 363.082C502.369 368.756 503.919 372.171 508.757 372.171C513.594 372.171 516.49 368.756 517.558 363.082L519.869 350.792C520.947 345.118 519.345 341.693 514.508 341.693C510.8 341.693 507.884 343.834 506.405 348.448L506.138 349.893H499.832L508.099 314.865H531.905L530.714 321.17H512.947L508.335 340.569Z" fill="#263238"/>
<path d="M536.486 330.12C538.303 320.485 544.065 314.276 553.297 314.276C562.53 314.276 566.032 320.496 564.214 330.12L558.052 362.632C556.235 372.267 550.463 378.562 541.138 378.562C531.813 378.562 528.506 372.267 530.334 362.632L536.486 330.12ZM536.907 363.082C535.88 368.756 537.523 372.171 542.36 372.171C547.197 372.171 550.175 368.756 551.243 363.082L557.58 329.767C558.669 323.997 557.066 320.582 552.137 320.582C547.207 320.582 544.321 323.997 543.233 329.767L536.907 363.082Z" fill="#263238"/>
<path d="M577.606 320.357L576.065 328.761C575.582 331.351 574.083 333.043 571.608 333.043C569.133 333.043 568.281 331.33 568.773 328.761L570.365 320.357C570.848 317.809 572.337 316.075 574.822 316.075C577.308 316.075 578.119 317.809 577.606 320.357ZM586.848 316.214L571.741 342.838H570.026L585.103 316.214H586.848ZM572.183 320.239L570.55 328.91C570.273 330.356 570.55 331.308 571.916 331.308C573.282 331.308 573.97 330.356 574.196 328.91L575.839 320.239C576.106 318.794 575.747 317.809 574.473 317.809C573.2 317.809 572.43 318.794 572.152 320.239H572.183ZM588.307 330.281L586.725 338.652C586.243 341.232 584.784 342.934 582.268 342.934C579.752 342.934 578.941 341.222 579.434 338.652L581.015 330.281C581.498 327.733 582.987 325.999 585.462 325.999C587.937 325.999 588.759 327.733 588.276 330.281H588.307ZM582.853 330.174L581.2 338.802C580.923 340.247 581.282 341.232 582.556 341.232C583.829 341.232 584.61 340.247 584.846 338.802L586.479 330.174C586.746 328.728 586.386 327.776 585.103 327.776C583.819 327.776 583.1 328.728 582.823 330.174H582.853Z" fill="#263238"/>
<path d="M562.458 352.73C563.485 347.538 566.566 344.165 571.527 344.165C576.487 344.165 578.387 347.505 577.401 352.73L574.084 370.297C573.057 375.446 569.976 378.861 564.974 378.861C559.973 378.861 558.165 375.468 559.141 370.297L562.458 352.73ZM562.684 370.501C562.099 373.605 563.013 375.393 565.621 375.393C568.23 375.393 569.822 373.605 570.417 370.501L573.806 352.537C574.392 349.486 573.529 347.634 570.869 347.634C568.209 347.634 566.659 349.486 566.084 352.537L562.684 370.501Z" fill="#263238"/>
<path d="M590.535 360.352L589.888 363.799H582.391L579.608 378.508H575.973L582.402 344.53H595.342L594.695 347.977H585.38L583.038 360.352H590.535Z" fill="#263238"/>
<path d="M606.362 360.352L605.715 363.799H598.218L595.435 378.508H591.81L598.228 344.53H611.168L610.521 347.977H601.206L598.875 360.352H606.362Z" fill="#263238"/>
<path opacity="0.2" d="M393.005 176.83L382.283 238.793H301.9L312.622 176.83H393.005Z" fill="black"/>
<path d="M241.278 113.669H395.84L375.844 229.276H221.272L241.278 113.669Z" fill="white" stroke="#263238" stroke-linecap="round" stroke-linejoin="round"/>
<path d="M329.866 113.669L320.921 124.974L320.284 113.669H317.09L311.832 123.518L309.306 113.669H305.793L302.487 123.967L297.475 113.669H294.877L293.264 126.312L283.467 113.744L284.494 130.433L272.365 120.306L276.535 136.193L262.526 128.903L269.685 143.376L254.341 139.19L264.211 151.694L248.118 150.774L260.308 160.826L244.092 163.213L258.141 170.429L242.418 176.027L257.802 180.128L243.168 188.724L259.281 189.548L246.31 200.81L262.526 198.337L251.722 211.837L267.425 206.152L259.199 221.365L273.792 212.693L268.452 229.04L281.361 217.703L279.821 229.276H283.302L289.855 221.001L290.327 229.276H295.298L298.954 222.446L300.7 229.276H305.958L308.289 221.996L311.842 229.276H316.289L317.522 219.662L325.019 229.276H327.134L326.282 215.53L338.421 225.657L334.241 209.771L348.259 217.072L341.091 202.587L356.444 206.784L346.575 194.28L362.668 195.201L350.467 185.138L366.694 182.761L352.634 175.546L368.358 169.947L352.984 165.847L367.608 157.25L351.505 156.415L364.465 145.153L348.249 147.626L359.053 134.127L343.35 139.822L351.577 124.599L336.993 133.281L342.334 116.923L329.424 128.26L331.365 113.669H329.866Z" fill="white" stroke="#263238" stroke-linecap="round" stroke-linejoin="round"/>
<path d="M393.509 127.147L395.84 113.669H241.279L238.947 127.147H393.509Z" fill="#263238" stroke="#263238" stroke-linecap="round" stroke-linejoin="round"/>
<path d="M387.285 120.713C387.287 121.504 387.064 122.277 386.644 122.935C386.224 123.594 385.626 124.107 384.925 124.411C384.225 124.714 383.454 124.794 382.71 124.641C381.966 124.487 381.282 124.106 380.746 123.547C380.21 122.988 379.845 122.276 379.697 121.5C379.55 120.725 379.626 119.921 379.918 119.191C380.209 118.461 380.701 117.837 381.333 117.399C381.964 116.961 382.706 116.728 383.465 116.731C384.478 116.731 385.45 117.15 386.166 117.897C386.883 118.644 387.285 119.657 387.285 120.713V120.713Z" fill="white" stroke="#263238" stroke-linecap="round" stroke-linejoin="round"/>
<path d="M283.796 155.377C289.198 155.377 290.82 158.064 289.814 163.384L289.495 165.087C288.766 168.908 287.277 171.285 284.073 172.27C287.257 173.255 288.017 176.038 287.267 180.021L286.682 183.061C285.655 188.488 282.574 191.539 277.161 191.539H269.182L276.011 155.377H283.796ZM277.849 187.868C280.674 187.868 282.255 186.315 282.892 182.964L283.498 179.753C284.258 175.728 282.974 174.4 279.657 174.4H276.288L273.741 187.878L277.849 187.868ZM279.955 170.739C283.036 170.739 284.802 169.668 285.521 165.932L285.922 163.791C286.528 160.58 285.778 159.038 283.005 159.038H279.185L276.976 170.707L279.955 170.739Z" fill="#263238"/>
<path d="M293.88 183.007C293.264 186.219 294.137 188.232 296.961 188.232C299.785 188.232 301.346 186.262 301.962 183.007L307.179 155.377H310.805L305.608 182.804C304.581 188.285 301.5 191.946 296.108 191.946C290.717 191.946 289.074 188.285 290.101 182.804L295.287 155.377H299.107L293.88 183.007Z" fill="#263238"/>
<path d="M316.372 178.575L313.425 155.377H317.44L319.494 173.148L328.306 155.377H331.972L320.203 178.575L317.748 191.539H313.938L316.372 178.575Z" fill="#263238"/>
<path d="M332.608 186.529L331.663 191.539H327.945L328.89 186.529H332.608ZM331.519 172.377L334.723 155.377H338.585L335.37 172.377L332.772 183.532H329.897L331.519 172.377Z" fill="#263238"/>
<path opacity="0.2" d="M586.809 176.83L576.005 239.253H462.811L473.614 176.83H586.809Z" fill="black"/>
<path d="M471.015 146.77H584.21L569.554 231.417H456.37L471.015 146.77Z" fill="white" stroke="#263238" stroke-linecap="round" stroke-linejoin="round"/>
<path d="M582.495 156.629L584.21 146.77H471.015L469.311 156.629H582.495Z" fill="#263238" stroke="#263238" stroke-linecap="round" stroke-linejoin="round"/>
<path d="M575.142 154.842C576.69 154.842 577.945 153.533 577.945 151.919C577.945 150.305 576.69 148.996 575.142 148.996C573.593 148.996 572.338 150.305 572.338 151.919C572.338 153.533 573.593 154.842 575.142 154.842Z" fill="white" stroke="#263238" stroke-linecap="round" stroke-linejoin="round"/>
<path d="M503.582 178.233L501.405 189.719H498.673L503.5 164.187H506.231L504.065 175.674H510.083L512.25 164.187H514.981L510.155 189.719H507.423L509.6 178.233H503.582Z" fill="#263238"/>
<path d="M516.408 170.354C517.137 166.446 519.489 163.93 523.217 163.93C526.945 163.93 528.352 166.446 527.633 170.354L525.138 183.553C524.408 187.418 522.057 189.977 518.298 189.977C514.539 189.977 513.163 187.418 513.902 183.553L516.408 170.354ZM516.573 183.703C516.131 186.037 516.819 187.386 518.781 187.386C520.742 187.386 521.944 186.037 522.385 183.703L524.932 170.204C525.374 167.902 524.727 166.521 522.724 166.521C520.722 166.521 519.561 167.902 519.13 170.204L516.573 183.703Z" fill="#263238"/>
<path d="M530.097 189.719L534.431 166.778H529.923L530.416 164.187H542.175L541.682 166.778H537.173L532.829 189.719H530.097Z" fill="#263238"/>
<path d="M496.207 198.68L496.084 199.376H493.496L493.65 198.53C494.081 196.239 493.496 194.89 491.544 194.89C489.593 194.89 488.463 196.239 488.052 198.498C486.974 204.225 495.098 204.771 493.732 211.955C493.003 215.819 490.743 218.378 487.005 218.378C483.267 218.378 481.983 215.851 482.712 211.955L482.989 210.499H485.547L485.239 212.104C484.807 214.406 485.464 215.755 487.416 215.755C489.367 215.755 490.548 214.406 490.979 212.104C492.058 206.409 483.965 205.863 485.331 198.68C486.07 194.74 488.289 192.257 491.955 192.257C495.621 192.257 496.987 194.815 496.207 198.68Z" fill="#263238"/>
<path d="M498.692 212.939L496.772 218.046H494.256L503.776 192.514H507.73L507.586 218.046H504.865V212.897L498.692 212.939ZM499.504 210.499H504.967V195.757L499.504 210.499Z" fill="#263238"/>
<path d="M509.723 218.046L514.549 192.514H517.281L512.947 215.455H519.941L519.448 218.046H509.723Z" fill="#263238"/>
<path d="M532.933 203.861L532.45 206.409H526.463L524.717 215.498H532.06L531.598 218.046H521.513L526.34 192.514H536.425L535.932 195.094H528.589L526.935 203.819L532.933 203.861Z" fill="#263238"/>
<path d="M537.441 214.545L536.774 218.089H534.145L534.812 214.545H537.441ZM536.671 204.557L538.941 192.557H541.672L539.403 204.557L537.564 212.436H535.51L536.671 204.557Z" fill="#263238"/>
<path d="M542.966 214.545L542.298 218.089H539.68L540.347 214.545H542.966ZM542.175 204.557L544.445 192.557H547.177L544.907 204.557L543.069 212.436H541.015L542.175 204.557Z" fill="#263238"/>
<path d="M303.164 462.684C303.164 462.684 304.684 472.191 306.368 475.895C308.053 479.599 311.103 484.159 309.069 484.694C307.036 485.23 304.181 484.159 302.148 481.879C299.835 479.017 297.293 476.367 294.548 473.957C290.84 470.745 290.327 469.9 291.344 467.619C292.641 465.219 294.107 462.922 295.729 460.747L303.164 462.684Z" fill="white" stroke="#263238" stroke-linecap="round" stroke-linejoin="round"/>
<path d="M308.967 484.705C304.181 482.618 300.751 477.361 297.762 474.128C295.735 471.953 293.486 470.015 291.056 468.347C290.491 470.135 291.261 471.141 294.548 473.957C297.293 476.367 299.835 479.017 302.148 481.879C304.14 484.127 306.995 485.176 308.967 484.705Z" fill="white" stroke="#263238" stroke-linecap="round" stroke-linejoin="round"/>
<path d="M262.834 380.307C262.834 380.307 257.093 388.047 255.234 393.506C253.375 398.966 254.207 404.768 257.596 406.535C260.985 408.301 307.077 406.535 307.077 406.535L295.78 460.747L303.215 462.684C303.215 462.684 325.675 409.35 327.195 405.475C328.715 401.6 331.077 393.506 329.896 391.397C328.715 389.289 309.295 386.998 309.295 386.998L309.377 381.431L264.375 381.538L262.834 380.307Z" fill="#263238" stroke="#263238" stroke-linecap="round" stroke-linejoin="round"/>
<path d="M307.601 404.436L310.23 391.804" stroke="#7A7A7A" stroke-linecap="round" stroke-linejoin="round"/>
<path d="M295.102 279.516C295.102 279.516 293.48 273.585 289.618 272.954C285.757 272.322 282.111 272.954 282.522 274.645C282.933 276.337 283.128 276.968 283.128 276.968C283.128 276.968 274.604 277.396 270.136 281.839C265.669 286.282 270.342 295.756 272.776 299.396C275.21 303.036 278.054 306.386 278.26 307.436C278.465 308.485 279.677 312.092 277.233 313.998C274.789 315.903 253.684 326.266 254.095 328.6C254.506 330.934 261.849 381.431 261.849 381.431H309.316C309.316 381.431 317.265 326.063 316.238 325.003C315.211 323.943 294.527 313.998 294.527 313.998L295.554 308.078C295.554 308.078 302.261 307.232 302.055 305.541C301.85 303.849 300.227 296.013 300.227 296.013L301.85 293.69L297.752 288.401V285.008L295.102 279.516Z" fill="#0987FF" stroke="#263238" stroke-linecap="round" stroke-linejoin="round"/>
<path d="M294.496 313.998L295.523 308.078C295.523 308.078 302.229 307.232 302.024 305.541C301.818 303.849 300.196 296.013 300.196 296.013L301.818 293.69L297.752 288.401V285.008L295.112 279.516C295.112 279.516 293.49 273.585 289.628 272.954C285.767 272.322 282.121 272.954 282.532 274.645C282.942 276.337 283.138 276.968 283.138 276.968C283.138 276.968 274.614 277.396 270.146 281.839C265.679 286.282 270.352 295.756 272.786 299.396C275.22 303.036 278.064 306.386 278.27 307.436C278.475 308.485 279.687 312.092 277.243 313.998C276.415 314.571 275.558 315.096 274.675 315.572C276.986 318.077 281.597 322.38 286.619 323.13C291.179 323.815 295.574 319.201 298.173 315.775L294.496 313.998Z" fill="white" stroke="#263238" stroke-linecap="round" stroke-linejoin="round"/>
<path d="M277.038 305.337C277.198 305.336 277.353 305.271 277.469 305.155C279.184 303.368 281.474 302.297 280.211 301.216C278.948 300.135 280.211 296.934 280.786 296.934C281.361 296.934 283.189 296.452 283.189 295.981C282.57 294.557 281.761 293.23 280.786 292.041C279.872 290.842 285.028 285.95 286.394 285.115C287.76 284.28 282.851 285.243 282.614 283.209C282.378 281.175 293.809 279.366 294.99 279.173C294.579 277.9 292.936 273.51 289.618 272.964C285.767 272.333 282.111 272.964 282.522 274.656C282.933 276.347 283.128 276.979 283.128 276.979C283.128 276.979 274.604 277.407 270.136 281.85C265.669 286.293 270.342 295.767 272.776 299.407C274.285 301.623 275.949 303.774 277.038 305.337Z" fill="#263238" stroke="#263238" stroke-linecap="round" stroke-linejoin="round"/>
<path d="M282.716 298.55C282.716 298.55 279.266 292.63 277.243 295.338C275.219 298.047 277.849 302.95 280.324 303.378C280.988 303.521 281.674 303.519 282.339 303.374C283.003 303.228 283.631 302.942 284.185 302.532L286.619 304.438" fill="white"/>
<path d="M282.716 298.55C282.716 298.55 279.266 292.63 277.243 295.338C275.219 298.047 277.849 302.95 280.324 303.378C280.988 303.521 281.674 303.519 282.339 303.374C283.003 303.228 283.631 302.942 284.185 302.532L286.619 304.438" stroke="#263238" stroke-linecap="round" stroke-linejoin="round"/>
<path d="M295.441 289.258C295.513 290.018 295.256 290.66 294.845 290.714C294.435 290.767 294.034 290.189 293.962 289.429C293.89 288.669 294.147 288.027 294.548 287.984C294.948 287.941 295.359 288.509 295.441 289.258Z" fill="#263238"/>
<path d="M294.753 298.336C296.196 298.814 297.725 298.935 299.22 298.689" stroke="#263238" stroke-linecap="round" stroke-linejoin="round"/>
<path d="M292.123 286.421C292.644 285.821 293.326 285.398 294.081 285.207C294.835 285.016 295.627 285.066 296.354 285.35" stroke="#263238" stroke-linecap="round" stroke-linejoin="round"/>
<path d="M311.78 351.713L314.738 360.277L308.442 371.999L312.9 376.335L329.588 365.887C329.997 365.623 330.304 365.218 330.456 364.743C330.608 364.268 330.595 363.752 330.42 363.285L316.104 324.553L314.502 324.061" fill="#0987FF"/>
<path d="M311.78 351.713L314.738 360.277L308.442 371.999L312.9 376.335L329.588 365.887C329.997 365.623 330.304 365.218 330.456 364.743C330.608 364.268 330.595 363.752 330.42 363.285L316.104 324.553L314.502 324.061" stroke="#263238" stroke-linecap="round" stroke-linejoin="round"/>
<path d="M314.737 360.266C316.196 359.656 317.778 359.434 319.34 359.621C320.902 359.808 322.394 360.398 323.682 361.337" stroke="#263238" stroke-linecap="round" stroke-linejoin="round"/>
<path d="M306.563 366.358C306.563 366.358 302.989 367.321 302.455 367.428C301.921 367.535 300.72 369.666 300.104 370.64C299.487 371.614 296.519 371.914 297.957 373.412C299.395 374.911 301.12 373.198 301.942 372.449C302.763 371.7 303.78 370.747 303.78 370.747L305.629 371.068C306.173 372.376 306.896 373.594 307.775 374.686C308.997 376.078 309.757 377.138 312.417 376.827C315.077 376.517 316.063 373.53 314.122 370.65C312.181 367.771 306.563 366.358 306.563 366.358Z" fill="white" stroke="#263238" stroke-linecap="round" stroke-linejoin="round"/>
<path d="M309.531 365.78C309.531 365.78 308.412 363.639 307.18 364.185C305.947 364.731 304.212 372.074 305.033 373.038C305.855 374.001 306.563 370.693 307.899 368.756C308.581 367.853 309.131 366.85 309.531 365.78V365.78Z" fill="white" stroke="#263238" stroke-linecap="round" stroke-linejoin="round"/>
<path d="M309.532 365.78C309.532 365.78 306.061 371.86 306.872 373.573C307.683 375.286 308.618 373.68 309.737 371.753C310.857 369.826 311.986 368.135 311.791 366.85C311.596 365.565 310.559 365.405 309.532 365.78Z" fill="white" stroke="#263238" stroke-linecap="round" stroke-linejoin="round"/>
<path d="M311.883 368.178C311.883 368.178 313.835 368.381 313.835 370.094C313.835 371.807 310.456 374.783 309.326 374.783C308.196 374.783 309.018 373.509 309.018 373.509L311.883 368.178Z" fill="white" stroke="#263238" stroke-linecap="round" stroke-linejoin="round"/>
<path d="M313.732 371.368C313.732 371.368 314.646 371.057 314.759 372.224C314.872 373.391 312.304 375.436 310.979 375.746C309.655 376.057 310.979 373.937 310.979 373.937L313.732 371.368Z" fill="white" stroke="#263238" stroke-linecap="round" stroke-linejoin="round"/>
<path d="M261.53 346.317L256.21 360.234L262.485 370.479L259.814 375.65L241.329 365.855C240.92 365.591 240.613 365.186 240.461 364.711C240.309 364.236 240.322 363.72 240.497 363.253L253.909 328.075L255.162 327.166" fill="#0987FF"/>
<path d="M261.53 346.317L256.21 360.234L262.485 370.479L259.814 375.65L241.329 365.855C240.92 365.591 240.613 365.186 240.461 364.711C240.309 364.236 240.322 363.72 240.497 363.253L253.909 328.075L255.162 327.166" stroke="#263238" stroke-linecap="round" stroke-linejoin="round"/>
<path d="M249.586 360.127C248.761 360.433 247.98 360.854 247.265 361.38" stroke="#263238" stroke-linecap="round" stroke-linejoin="round"/>
<path d="M256.21 360.266C254.907 359.719 253.502 359.489 252.102 359.592" stroke="#263238" stroke-linecap="round" stroke-linejoin="round"/>
<path d="M260.626 368.777C260.626 368.777 257.761 373.68 259.199 375.714C260.636 377.748 265.36 375.072 265.36 375.072C265.36 375.072 265.864 375.286 267.61 374.429C269.355 373.573 270.691 370.907 269.961 369.077C269.232 367.246 260.626 368.777 260.626 368.777Z" fill="white" stroke="#263238" stroke-linecap="round" stroke-linejoin="round"/>
<path d="M270.311 365.78C270.948 366.406 271.742 366.833 272.601 367.011C273.772 367.128 276.904 366.422 277.52 367.011C278.136 367.599 277.684 369.398 276.401 369.805C275.117 370.212 274.162 369.741 272.714 369.633C271.266 369.526 270.814 369.516 270.814 369.516L270.311 365.78Z" fill="white" stroke="#263238" stroke-linecap="round" stroke-linejoin="round"/>
<path d="M267.538 366.101C267.538 366.101 269.037 365.105 270.136 365.673C271.235 366.24 271.913 369.955 271.913 371.368C271.913 372.781 271.358 374.066 270.958 374.066C270.654 374.019 270.368 373.89 270.128 373.69C269.888 373.491 269.703 373.229 269.592 372.931C269.315 372.224 268.082 368.231 267.949 367.525C267.851 367.039 267.714 366.562 267.538 366.101V366.101Z" fill="white" stroke="#263238" stroke-linecap="round" stroke-linejoin="round"/>
<path d="M265.216 366.85C266.142 366.342 267.18 366.098 268.225 366.144C269.314 366.422 269.858 372.406 269.991 373.541C270.125 374.676 269.724 375.393 268.636 374.686C267.547 373.98 266.859 370.693 266.315 369.848C265.771 369.002 264.538 367.803 265.216 366.85Z" fill="white" stroke="#263238" stroke-linecap="round" stroke-linejoin="round"/>
<path d="M262.762 368.092C263.02 367.665 263.385 367.32 263.818 367.094C264.25 366.868 264.734 366.768 265.216 366.807C266.716 367.096 268.082 372.931 268.359 373.787C268.636 374.644 267.27 375.35 266.716 374.922C265.396 373.223 264.211 371.415 263.173 369.516C263.029 369.088 262.762 368.092 262.762 368.092Z" fill="white" stroke="#263238" stroke-linecap="round" stroke-linejoin="round"/>
<path d="M263.419 368.36C263.292 368.149 263.098 367.991 262.871 367.912C262.644 367.834 262.399 367.841 262.176 367.931C261.88 368.02 261.606 368.172 261.37 368.379C261.135 368.586 260.944 368.842 260.81 369.13C260.358 370.287 261.837 372.342 262.864 373.669C263.891 374.997 265.206 374.89 265.319 374.076C265.074 372.054 264.427 370.107 263.419 368.36V368.36Z" fill="white" stroke="#263238" stroke-linecap="round" stroke-linejoin="round"/>
<path d="M313.003 356.851H265.217V388.357H313.003V356.851Z" fill="white" stroke="#263238" stroke-linecap="round" stroke-linejoin="round"/>
<path d="M288.806 371.518C290.717 371.518 292.267 369.902 292.267 367.91C292.267 365.917 290.717 364.302 288.806 364.302C286.894 364.302 285.345 365.917 285.345 367.91C285.345 369.902 286.894 371.518 288.806 371.518Z" fill="white" stroke="#263238" stroke-linecap="round" stroke-linejoin="round"/>
<path d="M267.363 462.128C267.363 462.128 266.86 475.156 269.048 479.727C271.235 484.298 274.624 487.296 276.822 482.725C279.02 478.154 275.641 466.356 275.641 464.419C275.62 463.063 275.507 461.711 275.302 460.372L267.363 461.25V462.128Z" fill="white" stroke="#263238" stroke-linecap="round" stroke-linejoin="round"/>
<path d="M259.26 394.384C259.26 394.384 259.927 422.55 262.464 438.576C265.001 454.602 267.363 462.128 267.363 462.128C269.153 462.409 270.974 462.409 272.765 462.128C273.94 461.783 275.005 461.113 275.846 460.19C275.846 460.19 278.927 405.09 279.05 400.336C279.173 395.583 278.886 391.012 277.705 389.631C276.523 388.25 266.408 387.351 262.844 389.46" fill="#263238"/>
<path d="M259.26 394.384C259.26 394.384 259.927 422.55 262.464 438.576C265.001 454.602 267.363 462.128 267.363 462.128C269.153 462.409 270.974 462.409 272.765 462.128C273.94 461.783 275.005 461.113 275.846 460.19C275.846 460.19 278.927 405.09 279.05 400.336C279.173 395.583 278.886 391.012 277.705 389.631C276.523 388.25 266.408 387.351 262.844 389.46" stroke="#263238" stroke-linecap="round" stroke-linejoin="round"/>
</svg>
