<svg width="681" height="430" viewBox="0 0 681 430" fill="none" xmlns="http://www.w3.org/2000/svg">
<path d="M662.76 315.24C680.03 283.24 682.58 246.77 678.53 211.52C674.94 180.26 669.53 144.41 654.36 116.19C616 44.7099 518.89 11.1699 440.07 32.6599C407.19 41.6599 384.13 62.4099 357.74 82.1799C338.22 96.7999 316.81 111.08 291.59 114C231.2 121 162.47 63.9999 105.2 68.9999C47.9304 73.9999 3.20045 125 1.07045 169C-1.05955 213 42.7204 258 38.5604 288C34.4004 318 7.32045 398 114.56 401C221.8 404 278.04 344 319.7 357C361.36 370 453 408 530 398C580.27 391.48 629.42 366.79 657 324.86C659.087 321.7 661.007 318.493 662.76 315.24Z" fill="#0987FF"/>
<path opacity="0.8" d="M662.76 315.24C680.03 283.24 682.58 246.77 678.53 211.52C674.94 180.26 669.53 144.41 654.36 116.19C616 44.7099 518.89 11.1699 440.07 32.6599C407.19 41.6599 384.13 62.4099 357.74 82.1799C338.22 96.7999 316.81 111.08 291.59 114C231.2 121 162.47 63.9999 105.2 68.9999C47.9304 73.9999 3.20045 125 1.07045 169C-1.05955 213 42.7204 258 38.5604 288C34.4004 318 7.32045 398 114.56 401C221.8 404 278.04 344 319.7 357C361.36 370 453 408 530 398C580.27 391.48 629.42 366.79 657 324.86C659.087 321.7 661.007 318.493 662.76 315.24Z" fill="white"/>
<path d="M576.36 73.54C576.316 73.175 576.292 72.8077 576.29 72.44C576.19 64.08 573.09 58.3 565.52 53.91C551.34 45.67 543.1 53.91 538.98 61.23C534.86 68.55 528.46 56.65 518.4 58C508.34 59.35 508.79 70.36 506.05 76.3C503.31 82.24 497.35 74.47 489.58 75.85C481.81 77.23 481.34 81.79 479.97 83.62C478.6 85.45 466.24 80.88 459.38 84.54C455.006 87.0565 451.377 90.6861 448.86 95.06H598.86C598.86 95.06 600.69 84.06 594.75 79.96C589.47 76.29 577.38 82.2 576.36 73.54Z" stroke="#263238" stroke-linecap="round" stroke-linejoin="round"/>
<path d="M506.71 87.23C506.198 87.352 505.722 87.5917 505.32 87.93C503.38 89.62 503.38 90.83 503.38 90.83" stroke="#263238" stroke-linecap="round" stroke-linejoin="round"/>
<path d="M539.85 73C538.52 75.92 537.34 79.12 534.58 80.41C530.65 82.25 526.97 78.1 523.35 77.16C522.326 76.8268 521.223 76.817 520.193 77.1319C519.162 77.4467 518.254 78.071 517.59 78.92C515.96 80.79 515.93 85.02 513.78 86.22C512.467 86.7328 511.058 86.9545 509.65 86.87" stroke="#263238" stroke-linecap="round" stroke-linejoin="round"/>
<path d="M584.51 86.53C584.41 86.26 584.29 86 584.17 85.75C581.28 79.99 574.46 84.62 570.27 83.01C566.54 81.57 567.76 75.68 567.27 72.6C566.27 66.65 558.82 62.1 552.97 63.02C548.631 63.753 544.706 66.0339 541.92 69.44" stroke="#263238" stroke-linecap="round" stroke-linejoin="round"/>
<path d="M585.7 91.8201C585.588 90.8117 585.421 89.8102 585.2 88.8201" stroke="#263238" stroke-linecap="round" stroke-linejoin="round"/>
<path d="M243.831 17.3701C243.831 17.1301 243.831 16.8801 243.781 16.6001C243.711 10.7701 241.551 6.74007 236.271 3.67007C226.371 -2.07993 220.621 3.67007 217.751 8.78007C214.881 13.8901 210.411 5.59007 203.381 6.54007C196.351 7.49007 196.681 15.1601 194.761 19.3101C192.841 23.4601 188.701 18.0001 183.271 19.0001C177.841 20.0001 177.521 23.1601 176.561 24.4301C175.601 25.7001 166.991 22.5201 162.201 25.0701C159.147 26.8267 156.611 29.3588 154.851 32.4101H259.571C259.571 32.4101 260.851 24.7501 256.701 21.8801C253.001 19.2901 244.551 23.4101 243.831 17.3701Z" stroke="#263238" stroke-linecap="round" stroke-linejoin="round"/>
<path d="M195.23 26.9202C194.864 27.0052 194.522 27.1728 194.23 27.4102C192.87 28.6002 192.87 29.4102 192.87 29.4102" stroke="#263238" stroke-linecap="round" stroke-linejoin="round"/>
<path d="M218.35 17C217.42 19 216.6 21.27 214.68 22.17C211.93 23.45 209.37 20.56 206.84 19.9C206.127 19.6701 205.362 19.6648 204.646 19.8848C203.931 20.1048 203.3 20.5395 202.84 21.13C201.7 22.43 201.68 25.39 200.18 26.22C199.264 26.5795 198.282 26.7364 197.3 26.68" stroke="#263238" stroke-linecap="round" stroke-linejoin="round"/>
<path d="M249.52 26.4401C249.452 26.255 249.372 26.0746 249.28 25.9001C247.28 21.9001 242.51 25.1001 239.58 23.9801C236.98 22.9801 237.83 18.8701 237.48 16.7201C236.81 12.5601 231.59 9.39014 227.48 10.0301C224.45 10.5419 221.707 12.1333 219.76 14.5101" stroke="#263238" stroke-linecap="round" stroke-linejoin="round"/>
<path d="M250.35 30.13C250.274 29.4139 250.157 28.7027 250 28" stroke="#263238" stroke-linecap="round" stroke-linejoin="round"/>
<path d="M198.47 99.0701C198.47 98.6901 198.4 98.2801 198.39 97.8501C198.28 88.5001 194.81 82.0301 186.39 77.1201C170.52 67.9001 161.31 77.1201 156.71 85.3001C152.11 93.4801 144.94 80.1901 133.71 81.7201C122.48 83.2501 122.96 95.5401 119.89 102.19C116.82 108.84 110.17 100.14 101.47 101.68C92.7702 103.22 92.2602 108.33 90.7202 110.38C89.1802 112.43 75.3702 107.31 67.7202 111.38C60.0702 115.45 55.9502 123.15 55.9502 123.15H223.7C223.7 123.15 225.75 110.87 219.1 106.27C213.14 102.15 199.62 108.76 198.47 99.0701Z" stroke="#263238" stroke-linecap="round" stroke-linejoin="round"/>
<path d="M120.56 114.39C119.991 114.529 119.46 114.796 119.01 115.17C116.84 117.07 116.84 118.42 116.84 118.42" stroke="#263238" stroke-linecap="round" stroke-linejoin="round"/>
<path d="M157.63 98.49C156.14 101.76 154.83 105.35 151.74 106.79C147.35 108.84 143.23 104.2 139.18 103.15C138.032 102.78 136.797 102.773 135.644 103.131C134.491 103.489 133.477 104.194 132.74 105.15C130.91 107.24 130.88 111.97 128.48 113.31C127.31 113.96 125.58 113.98 123.86 114.04" stroke="#263238" stroke-linecap="round" stroke-linejoin="round"/>
<path d="M207.59 113.61C207.47 113.31 207.34 113.02 207.2 112.74C203.98 106.29 196.35 111.47 191.66 109.66C187.49 108.06 188.86 101.47 188.3 98.0301C187.21 91.3701 178.85 86.2801 172.3 87.3101C167.447 88.1336 163.056 90.6879 159.94 94.5001" stroke="#263238" stroke-linecap="round" stroke-linejoin="round"/>
<path d="M208.92 119.52C208.802 118.373 208.615 117.234 208.36 116.11" stroke="#263238" stroke-linecap="round" stroke-linejoin="round"/>
<path d="M264.47 141.92C264.47 141.92 304.77 145.92 325.2 170.92C325.2 170.92 346.79 141.97 385.56 142.57C395.032 131.143 401.064 117.259 402.952 102.537C404.84 87.8148 402.508 72.8589 396.226 59.4107C389.945 45.9625 379.972 34.5753 367.47 26.5748C354.968 18.5743 340.45 14.2897 325.607 14.2199C310.765 14.15 296.207 18.2978 283.63 26.1802C271.053 34.0626 260.974 45.3555 254.566 58.744C248.158 72.1325 245.685 87.0657 247.435 101.805C249.185 116.545 255.085 130.484 264.45 142L264.47 141.92Z" fill="#0987FF"/>
<path opacity="0.5" d="M264.47 141.92C264.47 141.92 304.77 145.92 325.2 170.92C325.2 170.92 346.79 141.97 385.56 142.57C395.032 131.143 401.064 117.259 402.952 102.537C404.84 87.8148 402.508 72.8589 396.226 59.4107C389.945 45.9625 379.972 34.5753 367.47 26.5748C354.968 18.5743 340.45 14.2897 325.607 14.2199C310.765 14.15 296.207 18.2978 283.63 26.1802C271.053 34.0626 260.974 45.3555 254.566 58.744C248.158 72.1325 245.685 87.0657 247.435 101.805C249.185 116.545 255.085 130.484 264.45 142L264.47 141.92Z" fill="#0987FF"/>
<path d="M323.87 19.72L322.51 428.67H329.31L323.87 19.72Z" fill="#828282"/>
<path d="M325.909 163.28C325.909 163.28 339.519 138.78 364.009 131.28C364.009 131.28 338.159 137.4 325.229 158.49L325.909 163.28Z" fill="#828282"/>
<path d="M324.43 94.5399C324.43 94.5399 339.52 69.3799 364 61.8999C364 61.8999 337.35 69.5699 324.42 90.6599L324.43 94.5399Z" fill="#828282"/>
<path d="M325 130.32C325 130.32 339.52 104.08 364 96.6001C364 96.6001 337.52 103.94 324.59 125.03L325 130.32Z" fill="#828282"/>
<path d="M323.89 111.57C323.89 111.57 310.76 87.0701 287.13 79.5701C287.13 79.5701 312.08 85.6901 324.55 106.79L323.89 111.57Z" fill="#828282"/>
<path d="M323.89 145.59C323.89 145.59 310.76 121.09 287.13 113.59C287.13 113.59 312.08 119.71 324.55 140.8L323.89 145.59Z" fill="#828282"/>
<path d="M64.9399 238.18C64.9399 238.18 91.7199 240.82 105.29 257.42C105.29 257.42 119.63 238.19 145.39 238.59C151.687 230.997 155.697 221.772 156.953 211.988C158.209 202.205 156.66 192.266 152.486 183.328C148.312 174.391 141.685 166.823 133.377 161.507C125.068 156.19 115.42 153.344 105.556 153.298C95.6924 153.253 86.0187 156.011 77.6616 161.251C69.3046 166.49 62.6081 173.997 58.3521 182.895C54.0961 191.794 52.4558 201.718 53.6221 211.513C54.7884 221.308 58.7133 230.57 64.9399 238.22V238.18Z" fill="#0987FF"/>
<path d="M64.9399 238.18C64.9399 238.18 91.7199 240.82 105.29 257.42C105.29 257.42 119.63 238.19 145.39 238.59C151.687 230.997 155.697 221.772 156.953 211.988C158.209 202.205 156.66 192.266 152.486 183.328C148.312 174.391 141.685 166.823 133.377 161.507C125.068 156.19 115.42 153.344 105.556 153.298C95.6924 153.253 86.0187 156.011 77.6616 161.251C69.3046 166.49 62.6081 173.997 58.3521 182.895C54.0961 191.794 52.4558 201.718 53.6221 211.513C54.7884 221.308 58.7133 230.57 64.9399 238.22V238.18Z" fill="#0987FF"/>
<path opacity="0.5" d="M64.9399 238.18C64.9399 238.18 91.7199 240.82 105.29 257.42C105.29 257.42 119.63 238.19 145.39 238.59C151.687 230.997 155.697 221.772 156.953 211.988C158.209 202.205 156.66 192.266 152.486 183.328C148.312 174.391 141.685 166.823 133.377 161.507C125.068 156.19 115.42 153.344 105.556 153.298C95.6924 153.253 86.0187 156.011 77.6616 161.251C69.3046 166.49 62.6081 173.997 58.3521 182.895C54.0961 191.794 52.4558 201.718 53.6221 211.513C54.7884 221.308 58.7133 230.57 64.9399 238.22V238.18Z" fill="white"/>
<path d="M104.41 157L103.5 428.67H108.02L104.41 157Z" fill="#828282"/>
<path d="M105.76 252.36C105.76 252.36 114.76 236.09 131.07 231.12C131.07 231.12 113.9 235.19 105.31 249.2L105.76 252.36Z" fill="#828282"/>
<path d="M104.78 206.7C104.78 206.7 114.8 190 131.07 185C131.07 185 113.37 190.1 104.78 204.11V206.7Z" fill="#828282"/>
<path d="M105.13 230.47C105.13 230.47 114.8 213.04 131.07 208.07C131.07 208.07 113.48 212.95 104.89 226.96L105.13 230.47Z" fill="#828282"/>
<path d="M104.42 218C104.42 218 95.7 201.74 80 196.77C80 196.77 96.57 200.84 104.86 214.85L104.42 218Z" fill="#828282"/>
<path d="M104.42 240.61C104.42 240.61 95.7 224.34 80 219.37C80 219.37 96.57 223.44 104.86 237.45L104.42 240.61Z" fill="#828282"/>
<path d="M357.87 238.18C357.87 238.18 384.65 240.82 398.22 257.42C398.22 257.42 412.56 238.19 438.31 238.59C444.585 231.002 448.576 221.788 449.82 212.021C451.064 202.253 449.509 192.334 445.336 183.415C441.163 174.497 434.544 166.946 426.248 161.642C417.953 156.338 408.322 153.498 398.476 153.453C388.629 153.407 378.972 156.159 370.628 161.386C362.284 166.614 355.596 174.103 351.342 182.983C347.087 191.862 345.441 201.768 346.595 211.546C347.749 221.325 351.655 230.575 357.86 238.22L357.87 238.18Z" fill="#0987FF"/>
<path opacity="0.3" d="M357.87 238.18C357.87 238.18 384.65 240.82 398.22 257.42C398.22 257.42 412.56 238.19 438.31 238.59C444.585 231.002 448.576 221.788 449.82 212.021C451.064 202.253 449.509 192.334 445.336 183.415C441.163 174.497 434.544 166.946 426.248 161.642C417.953 156.338 408.322 153.498 398.476 153.453C388.629 153.407 378.972 156.159 370.628 161.386C362.284 166.614 355.596 174.103 351.342 182.983C347.087 191.862 345.441 201.768 346.595 211.546C347.749 221.325 351.655 230.575 357.86 238.22L357.87 238.18Z" fill="white"/>
<path d="M397.33 157L396.43 428.67H400.95L397.33 157Z" fill="#828282"/>
<path d="M398.69 252.36C398.69 252.36 407.69 236.09 424 231.12C424 231.12 406.83 235.19 398.24 249.2L398.69 252.36Z" fill="#828282"/>
<path d="M397.7 206.7C397.7 206.7 407.73 190 424 185C424 185 406.29 190.1 397.7 204.11V206.7Z" fill="#828282"/>
<path d="M398.06 230.47C398.06 230.47 407.73 213 424 208.07C424 208.07 406.41 212.95 397.82 226.96L398.06 230.47Z" fill="#828282"/>
<path d="M397.35 218C397.35 218 388.63 201.73 372.93 196.76C372.93 196.76 389.5 200.83 397.79 214.84L397.35 218Z" fill="#828282"/>
<path d="M397.35 240.61C397.35 240.61 388.63 224.34 372.93 219.37C372.93 219.37 389.5 223.44 397.79 237.45L397.35 240.61Z" fill="#828282"/>
<path d="M519.92 209.58C519.92 209.58 550.72 212.58 566.33 231.72C566.33 231.72 582.82 209.6 612.44 210.06C619.676 201.329 624.283 190.722 625.725 179.474C627.167 168.226 625.385 156.8 620.585 146.525C615.785 136.251 608.165 127.552 598.613 121.44C589.061 115.328 577.969 112.056 566.629 112.003C555.289 111.95 544.168 115.12 534.559 121.142C524.951 127.165 517.251 135.793 512.356 146.022C507.46 156.252 505.572 167.661 506.909 178.922C508.246 190.183 512.755 200.832 519.91 209.63L519.92 209.58Z" fill="#0987FF"/>
<path opacity="0.3" d="M519.92 209.58C519.92 209.58 550.72 212.58 566.33 231.72C566.33 231.72 582.82 209.6 612.44 210.06C619.676 201.329 624.283 190.722 625.725 179.474C627.167 168.226 625.385 156.8 620.585 146.525C615.785 136.251 608.165 127.552 598.613 121.44C589.061 115.328 577.969 112.056 566.629 112.003C555.289 111.95 544.168 115.12 534.559 121.142C524.951 127.165 517.251 135.793 512.356 146.022C507.46 156.252 505.572 167.661 506.909 178.922C508.246 190.183 512.755 200.832 519.91 209.63L519.92 209.58Z" fill="white"/>
<path d="M565.31 116.22L564.27 428.67H569.469L565.31 116.22Z" fill="#828282"/>
<path d="M566.87 225.9C566.87 225.9 577.26 207.19 595.98 201.47C595.98 201.47 576.22 206.15 566.35 222.26L566.87 225.9Z" fill="#828282"/>
<path d="M565.729 173.39C565.729 173.39 577.259 154.17 595.979 148.45C595.979 148.45 575.609 154.31 565.729 170.45V173.39Z" fill="#828282"/>
<path d="M566.14 200.72C566.14 200.72 577.26 180.72 595.98 174.96C595.98 174.96 575.74 180.57 565.87 196.68L566.14 200.72Z" fill="#828282"/>
<path d="M565.32 186.4C565.32 186.4 555.32 167.68 537.24 161.96C537.24 161.96 556.3 166.64 565.83 182.76L565.32 186.4Z" fill="#828282"/>
<path d="M565.32 212.39C565.32 212.39 555.32 193.67 537.24 187.96C537.24 187.96 556.3 192.63 565.83 208.75L565.32 212.39Z" fill="#828282"/>
<path d="M42.7097 392.17C44.8097 391.87 48.7997 389.27 48.7997 389.27C48.7997 389.27 46.2897 387.16 46.1197 387.05C44.1197 385.74 39.3697 384.42 37.2797 386.14C36.9411 386.436 36.6685 386.8 36.4795 387.208C36.2906 387.616 36.1896 388.06 36.183 388.509C36.1764 388.959 36.2644 389.405 36.4412 389.819C36.6181 390.232 36.8799 390.604 37.2097 390.91C38.5697 392.26 40.9197 392.43 42.7097 392.17Z" fill="#263238"/>
<path d="M81.5797 372.39C81.5797 372.39 80.6497 369.24 80.5797 369.05C79.5797 366.84 76.3997 363.14 73.7097 363.42C73.2639 363.48 72.8357 363.633 72.453 363.87C72.0702 364.106 71.7413 364.42 71.4877 364.791C71.234 365.163 71.0613 365.583 70.9807 366.026C70.9001 366.468 70.9134 366.923 71.0197 367.36C71.4097 369.24 73.2797 370.67 74.9097 371.45C76.8197 372.35 81.5797 372.39 81.5797 372.39Z" fill="#263238"/>
<path d="M86.6601 425.43C87.5901 426.58 88.4301 427.67 89.1901 428.67H91.1001C90.1001 427.43 89.0201 426.04 87.7501 424.53C87.0201 423.66 86.2101 422.73 85.3801 421.79C86.1426 420.864 86.8473 419.892 87.4901 418.88C89.3427 419.272 91.2411 419.403 93.1301 419.27C93.2601 420.39 93.3801 421.49 93.4701 422.52C93.6901 424.85 93.8201 426.92 93.9101 428.67H95.4601C95.3301 426.89 95.1501 424.76 94.8701 422.37C94.7501 421.23 94.5901 420.02 94.4101 418.77C94.8501 418.64 98.4101 417.53 99.7301 416.37C101.05 415.21 102.14 413.64 102.01 411.96C101.992 411.565 101.891 411.178 101.714 410.825C101.537 410.471 101.288 410.159 100.982 409.908C100.677 409.658 100.322 409.474 99.9409 409.369C99.5598 409.264 99.1609 409.241 98.7701 409.3C96.4301 409.72 94.6401 413.63 94.3601 415.74C94.3601 415.86 94.3601 417.23 94.3601 418.1C94.2901 417.59 94.2201 417.1 94.1401 416.57C93.9801 415.57 93.7901 414.51 93.5901 413.4C93.4801 412.87 93.3601 412.34 93.2501 411.79C93.1401 411.24 92.9601 410.7 92.8201 410.14C92.4701 408.87 92.0501 407.59 91.6001 406.31C92.5101 406.17 95.7201 405.63 97.0601 404.76C98.4001 403.89 99.8501 402.43 99.9801 400.76C100.022 400.366 99.981 399.968 99.8596 399.592C99.7382 399.215 99.5391 398.868 99.2752 398.573C99.0114 398.278 98.6886 398.042 98.3277 397.879C97.9668 397.717 97.5758 397.632 97.1801 397.63C94.8001 397.7 92.4401 401.29 91.8401 403.33C91.8401 403.46 91.5401 404.97 91.4101 405.8C91.1401 405.04 90.8601 404.27 90.5601 403.51C89.6801 401.29 88.7201 399.08 87.7701 396.88L86.9101 394.88C87.2301 394.88 91.0601 394.27 92.5601 393.3C93.9001 392.44 95.3601 390.98 95.4901 389.3C95.532 388.906 95.491 388.508 95.3696 388.132C95.2482 387.755 95.0491 387.408 94.7852 387.113C94.5214 386.818 94.1986 386.582 93.8377 386.419C93.4768 386.257 93.0858 386.172 92.6901 386.17C90.3101 386.24 87.9501 389.83 87.3501 391.87C87.3501 392.02 86.9301 394.2 86.8601 394.76C86.2301 393.27 85.6201 391.76 85.0801 390.28C84.3401 388.264 83.7289 386.203 83.2501 384.11C83.4001 384.11 87.4001 383.52 88.9401 382.52C90.2801 381.66 91.7401 380.19 91.8601 378.52C91.902 378.126 91.861 377.728 91.7396 377.352C91.6182 376.975 91.4191 376.628 91.1552 376.333C90.8914 376.038 90.5686 375.802 90.2077 375.639C89.8468 375.477 89.4558 375.392 89.0601 375.39C86.6801 375.46 84.3301 379.05 83.7301 381.09C83.7301 381.22 83.4001 382.88 83.2801 383.67H83.1401C82.7189 381.548 82.4913 379.393 82.4601 377.23C82.4601 376.04 82.4601 374.9 82.4601 373.79C83.2101 373.79 86.6601 373.59 88.1501 372.85C89.6401 372.11 91.1501 370.85 91.4901 369.19C91.5752 368.803 91.5783 368.403 91.499 368.015C91.4198 367.627 91.26 367.26 91.0301 366.938C90.8001 366.615 90.505 366.345 90.164 366.144C89.8229 365.942 89.4434 365.815 89.0501 365.77C86.6801 365.58 83.9401 368.89 83.1201 370.85C83.1201 370.96 82.7501 372.09 82.5201 372.92C82.5201 372.42 82.5201 371.92 82.6201 371.43C82.7701 369.63 83.0101 368 83.2501 366.55C83.3801 365.73 83.5201 364.99 83.6601 364.3C84.3901 363.89 87.2901 362.17 88.2501 360.86C89.2101 359.55 90.0201 357.68 89.5301 356.07C89.4299 355.687 89.2501 355.33 89.0023 355.022C88.7546 354.713 88.4445 354.461 88.0924 354.28C87.7403 354.1 87.3541 353.996 86.9591 353.975C86.5641 353.955 86.1691 354.017 85.8001 354.16C83.6001 355.08 82.7001 359.28 82.8701 361.4C82.8701 361.58 83.4601 364.4 83.5001 364.4C83.3467 365.067 83.1967 365.787 83.0501 366.56C82.7901 368 82.5101 369.63 82.3201 371.43C82.0893 373.365 81.9757 375.311 81.9801 377.26C81.9657 379.445 82.1498 381.628 82.5301 383.78C82.5257 383.803 82.5257 383.827 82.5301 383.85C82.2001 383.23 81.2401 381.54 81.1501 381.42C79.8901 379.7 76.4601 377.12 74.1501 377.87C73.7792 378.006 73.441 378.219 73.1572 378.494C72.8735 378.769 72.6505 379.1 72.5026 379.467C72.3547 379.833 72.2852 380.227 72.2985 380.621C72.3119 381.016 72.4078 381.404 72.5801 381.76C73.2701 383.29 75.1401 384.18 76.6901 384.54C78.4401 384.94 82.2401 384.16 82.5501 384.1C82.9828 386.28 83.5642 388.429 84.2901 390.53C84.7001 391.75 85.1601 392.97 85.6301 394.19L85.0201 393.14C83.7601 391.42 80.3301 388.85 78.0201 389.59C77.6483 389.725 77.3091 389.937 77.0242 390.212C76.7394 390.486 76.5153 390.817 76.3664 391.184C76.2175 391.551 76.1472 391.944 76.1599 392.34C76.1725 392.735 76.268 393.124 76.4401 393.48C77.1301 395.02 79.0001 395.9 80.5501 396.26C82.1001 396.62 85.3801 396.03 86.2401 395.86C86.4301 396.32 86.6101 396.79 86.8001 397.26C87.7001 399.49 88.6101 401.71 89.4301 403.92C89.7201 404.7 89.9801 405.48 90.2401 406.25C89.9801 405.79 89.7501 405.4 89.7101 405.34C88.4501 403.62 85.0201 401.05 82.7101 401.79C82.3383 401.925 81.9991 402.137 81.7142 402.412C81.4294 402.686 81.2053 403.018 81.0564 403.384C80.9075 403.751 80.8372 404.144 80.8499 404.54C80.8625 404.935 80.958 405.324 81.1301 405.68C81.8201 407.22 83.6901 408.1 85.2401 408.46C86.7901 408.82 89.7501 408.28 90.7801 408.09C91.0201 408.89 91.2701 409.69 91.4701 410.48C91.5901 411.03 91.7501 411.54 91.8401 412.09C91.9301 412.64 92.0501 413.17 92.1501 413.71C92.3101 414.71 92.4801 415.81 92.6201 416.82C92.7101 417.52 92.7901 418.19 92.8701 418.87C92.5901 418.09 92.0101 416.58 91.9501 416.46C91.0299 414.819 89.7043 413.442 88.1001 412.46C88.002 412.277 87.8883 412.103 87.7601 411.94C87.5289 411.618 87.2325 411.349 86.8901 411.151C86.5478 410.952 86.1673 410.828 85.7736 410.786C85.3799 410.744 84.9819 410.787 84.6056 410.91C84.2293 411.033 83.8832 411.234 83.5901 411.5C81.8701 413.15 82.5301 417.39 83.4601 419.3C83.5201 419.42 84.2501 420.58 84.7201 421.3C84.3801 420.92 84.0501 420.54 83.7201 420.15C83.0201 419.37 82.3001 418.62 81.5201 417.81L80.3501 416.66C79.9601 416.26 79.5101 415.9 79.0801 415.51C78.0801 414.64 77.0801 413.81 75.9501 412.99C76.6301 412.37 78.9501 410.15 79.6401 408.69C80.3301 407.23 80.6401 405.21 79.8701 403.74C79.6898 403.387 79.4368 403.076 79.1279 402.828C78.819 402.58 78.4611 402.4 78.0777 402.3C77.6943 402.2 77.294 402.182 76.9032 402.247C76.5124 402.313 76.1399 402.46 75.8101 402.68C73.8101 404.04 73.8801 408.34 74.5101 410.37C74.5101 410.5 75.1601 411.9 75.5101 412.67C74.8601 412.18 74.2101 411.67 73.5101 411.23C71.5101 409.87 69.5101 408.55 67.5101 407.23C66.8901 406.83 66.2801 406.42 65.6701 406.01C65.9101 405.8 68.8001 403.22 69.5101 401.58C70.1501 400.12 70.5101 398.09 69.7401 396.63C69.5595 396.277 69.3066 395.967 68.998 395.718C68.6894 395.47 68.3319 395.29 67.9489 395.189C67.5659 395.088 67.1659 395.069 66.7749 395.133C66.384 395.197 66.011 395.342 65.6801 395.56C63.6801 396.93 63.7501 401.23 64.3701 403.26C64.3701 403.41 65.3101 405.44 65.5601 405.94C64.2101 405.04 62.8801 404.13 61.5601 403.18C59.9133 401.891 58.3532 400.494 56.8901 399C57.0001 398.9 60.0201 396.22 60.7501 394.55C61.3901 393.09 61.7501 391.06 60.9801 389.55C60.7974 389.199 60.5433 388.891 60.2342 388.644C59.925 388.398 59.5677 388.219 59.1852 388.119C58.8027 388.019 58.4035 388.001 58.0134 388.065C57.6232 388.128 57.2508 388.273 56.9201 388.49C54.9201 389.86 54.9901 394.15 55.6101 396.18C55.6101 396.32 56.3301 397.86 56.6701 398.59L56.5601 398.67C55.0364 397.13 53.6542 395.457 52.4301 393.67C51.7401 392.67 51.1401 391.72 50.5801 390.77C51.1901 390.33 53.9701 388.28 54.8001 386.84C55.6301 385.4 56.2301 383.49 55.5701 381.95C55.4294 381.579 55.2122 381.243 54.9325 380.962C54.6529 380.681 54.3172 380.462 53.9474 380.319C53.5775 380.177 53.1817 380.114 52.7859 380.135C52.39 380.155 52.003 380.259 51.6501 380.44C49.5701 381.59 49.1101 385.86 49.5101 387.95C49.5101 388.06 49.8801 389.19 50.1501 390.01C49.9001 389.58 49.6301 389.13 49.4101 388.71C48.5401 387.13 47.8501 385.63 47.2401 384.3C46.9001 383.54 46.6101 382.84 46.3501 382.19C46.7201 381.44 48.2001 378.41 48.2701 376.78C48.3401 375.15 48.0001 373.16 46.7001 372.08C46.4036 371.817 46.0552 371.62 45.6776 371.501C45.2999 371.382 44.9014 371.344 44.508 371.389C44.1146 371.435 43.7352 371.562 43.3944 371.764C43.0536 371.966 42.7591 372.237 42.5301 372.56C41.2101 374.56 42.7701 378.56 44.0901 380.2C44.2001 380.35 46.2401 382.4 46.2601 382.36C46.5101 382.99 46.7701 383.67 47.0801 384.36C47.6601 385.71 48.3201 387.23 49.1501 388.83C50.0321 390.611 51.0205 392.337 52.1101 394C53.2902 395.824 54.6287 397.541 56.1101 399.13L56.1701 399.18C55.5601 398.85 53.8101 397.97 53.6701 397.92C51.6701 397.18 47.3901 396.92 45.9201 398.79C45.6843 399.107 45.5179 399.471 45.4317 399.857C45.3454 400.242 45.3413 400.642 45.4196 401.03C45.4979 401.417 45.6568 401.784 45.886 402.106C46.1152 402.428 46.4096 402.699 46.7501 402.9C48.1701 403.8 50.2201 403.51 51.7501 402.9C53.4301 402.27 56.1801 399.53 56.3901 399.31C57.9585 400.884 59.6288 402.354 61.3901 403.71C62.4234 404.503 63.4734 405.273 64.5401 406.02C64.0001 405.75 63.5401 405.51 63.4401 405.49C61.4401 404.75 57.1601 404.49 55.6901 406.36C55.4543 406.677 55.2879 407.041 55.2017 407.427C55.1154 407.812 55.1113 408.212 55.1896 408.6C55.2679 408.987 55.4268 409.354 55.656 409.676C55.8852 409.998 56.1796 410.269 56.5201 410.47C57.9401 411.37 59.9901 411.08 61.5201 410.47C63.0501 409.86 65.4201 407.61 66.0501 407L67.2801 407.86C69.2801 409.22 71.2801 410.58 73.1501 411.96C73.8301 412.45 74.4701 412.96 75.1501 413.46L74.1501 413C72.1501 412.26 67.8701 412 66.3901 413.87C66.1547 414.188 65.9889 414.552 65.9034 414.938C65.818 415.324 65.8147 415.724 65.894 416.112C65.9732 416.5 66.1331 416.866 66.3633 417.188C66.5935 417.51 66.8888 417.78 67.2301 417.98C68.6501 418.88 70.7001 418.59 72.2301 418.03C73.7601 417.47 75.9001 415.4 76.6501 414.67C77.2901 415.2 77.9401 415.74 78.5401 416.29C78.9401 416.67 79.3601 417.01 79.7401 417.42L80.8901 418.6C81.6001 419.37 82.3301 420.17 83.0001 420.94L84.3401 422.51C83.6801 422.01 82.3401 421.07 82.2401 421.01C80.3801 420.01 76.1801 419.07 74.4401 420.7C74.1594 420.979 73.9405 421.314 73.7976 421.683C73.6548 422.052 73.5912 422.446 73.611 422.842C73.6308 423.237 73.7336 423.623 73.9126 423.976C74.0916 424.329 74.3429 424.64 74.6501 424.89C75.9101 426 77.9801 426.01 79.5401 425.69C81.1001 425.37 84.2701 423.14 84.6501 422.86C85.3101 423.77 86.0001 424.62 86.6601 425.43Z" fill="#263238"/>
<path d="M655.13 393.5C653.03 393.2 649.05 390.6 649.04 390.6C649.03 390.6 651.55 388.49 651.73 388.38C653.73 387.07 658.47 385.75 660.56 387.47C660.9 387.765 661.174 388.129 661.364 388.537C661.554 388.945 661.655 389.389 661.662 389.839C661.668 390.289 661.58 390.736 661.402 391.15C661.224 391.563 660.961 391.935 660.63 392.24C659.27 393.59 656.92 393.76 655.13 393.5Z" fill="#263238"/>
<path d="M617.2 373.72C617.15 373.72 618.13 370.57 618.2 370.38C619.2 368.17 622.38 364.47 625.07 364.75C625.516 364.81 625.944 364.963 626.327 365.199C626.71 365.436 627.039 365.75 627.292 366.121C627.546 366.493 627.718 366.913 627.799 367.356C627.88 367.798 627.866 368.253 627.76 368.69C627.37 370.57 625.5 372.01 623.87 372.78C622 373.68 617.2 373.72 617.2 373.72Z" fill="#263238"/>
<path d="M612.82 425.36C611.89 426.51 611.05 427.6 610.3 428.59H608.39C609.39 427.36 610.47 425.97 611.73 424.46C612.47 423.58 613.27 422.66 614.1 421.72C613.343 420.79 612.639 419.818 611.99 418.81C610.136 419.192 608.239 419.323 606.35 419.2C606.22 420.32 606.1 421.41 606.01 422.45C605.79 424.78 605.66 426.85 605.57 428.59H604C604.13 426.81 604.31 424.69 604.59 422.3C604.72 421.16 604.87 419.95 605.05 418.7C604.61 418.57 601.05 417.45 599.73 416.29C598.41 415.13 597.32 413.57 597.45 411.89C597.466 411.495 597.566 411.107 597.743 410.753C597.919 410.399 598.169 410.086 598.475 409.835C598.78 409.584 599.136 409.4 599.518 409.296C599.899 409.191 600.299 409.169 600.69 409.23C603.03 409.65 604.82 413.56 605.1 415.67C605.1 415.79 605.1 417.16 605.1 418.02C605.18 417.52 605.24 417.02 605.33 416.5C605.48 415.5 605.67 414.44 605.87 413.33C605.98 412.8 606.1 412.26 606.21 411.72C606.32 411.18 606.5 410.63 606.64 410.07C606.99 408.79 607.41 407.52 607.86 406.24C606.95 406.1 603.75 405.56 602.4 404.69C601.05 403.82 599.61 402.36 599.48 400.69C599.438 400.297 599.479 399.899 599.6 399.523C599.722 399.147 599.921 398.801 600.185 398.506C600.449 398.212 600.772 397.977 601.133 397.815C601.494 397.654 601.885 397.571 602.28 397.57C604.66 397.63 607.02 401.23 607.62 403.27C607.62 403.39 607.92 404.91 608.05 405.74C608.33 404.97 608.6 404.21 608.9 403.44C609.78 401.23 610.74 399.02 611.69 396.81C611.98 396.14 612.26 395.46 612.55 394.81C612.23 394.81 608.4 394.2 606.9 393.23C605.56 392.37 604.1 390.9 603.98 389.23C603.936 388.837 603.976 388.439 604.096 388.062C604.217 387.686 604.415 387.339 604.678 387.043C604.941 386.748 605.263 386.512 605.624 386.349C605.984 386.187 606.375 386.102 606.77 386.1C609.16 386.17 611.51 389.76 612.11 391.8C612.16 391.95 612.53 394.13 612.6 394.69C613.23 393.2 613.84 391.69 614.38 390.21C615.12 388.191 615.731 386.127 616.21 384.03C616.06 384.03 612.06 383.44 610.52 382.45C609.19 381.59 607.73 380.12 607.6 378.45C607.556 378.056 607.596 377.658 607.717 377.28C607.838 376.903 608.037 376.555 608.301 376.26C608.565 375.964 608.889 375.728 609.25 375.566C609.612 375.404 610.004 375.32 610.4 375.32C612.78 375.38 615.14 378.98 615.73 381.02C615.73 381.15 616.06 382.81 616.18 383.6H616.32C616.74 381.481 616.971 379.329 617.01 377.17C617.01 375.98 617.01 374.84 616.95 373.73C616.2 373.73 612.75 373.53 611.26 372.79C609.77 372.05 608.26 370.79 607.92 369.13C607.835 368.743 607.832 368.343 607.911 367.955C607.99 367.567 608.15 367.2 608.38 366.878C608.61 366.555 608.905 366.285 609.246 366.084C609.587 365.883 609.967 365.755 610.36 365.71C612.73 365.51 615.47 368.82 616.29 370.79C616.29 370.89 616.66 372.03 616.9 372.86C616.9 372.36 616.84 371.86 616.8 371.37C616.65 369.57 616.4 367.94 616.17 366.49C616.03 365.67 615.89 364.93 615.75 364.24C615.02 363.82 612.12 362.11 611.16 360.79C610.2 359.47 609.39 357.61 609.88 356.01C609.981 355.627 610.162 355.27 610.411 354.961C610.66 354.653 610.971 354.4 611.324 354.22C611.676 354.04 612.063 353.936 612.459 353.915C612.855 353.895 613.25 353.957 613.62 354.1C615.81 355.02 616.72 359.22 616.54 361.34C616.54 361.52 615.95 364.34 615.92 364.34C616.07 365 616.22 365.71 616.37 366.49C616.63 367.94 616.92 369.57 617.11 371.37C617.333 373.305 617.443 375.252 617.44 377.2C617.454 379.382 617.27 381.561 616.89 383.71C616.894 383.736 616.894 383.763 616.89 383.79C617.22 383.17 618.19 381.48 618.28 381.36C619.53 379.64 622.97 377.06 625.28 377.81C625.652 377.945 625.991 378.157 626.276 378.432C626.56 378.706 626.784 379.038 626.932 379.405C627.08 379.772 627.149 380.166 627.135 380.561C627.121 380.957 627.024 381.345 626.85 381.7C626.16 383.23 624.29 384.12 622.74 384.47C621 384.88 617.19 384.1 616.89 384.04C616.45 386.217 615.866 388.361 615.14 390.46C614.73 391.69 614.27 392.91 613.8 394.13L614.41 393.08C615.67 391.36 619.1 388.78 621.41 389.53C621.781 389.666 622.119 389.879 622.403 390.154C622.687 390.429 622.91 390.76 623.057 391.127C623.205 391.493 623.275 391.887 623.262 392.282C623.248 392.677 623.152 393.064 622.98 393.42C622.29 394.96 620.42 395.84 618.87 396.2C617.32 396.56 614.04 395.96 613.18 395.8C612.99 396.26 612.81 396.73 612.62 397.19C611.72 399.43 610.81 401.65 609.99 403.86C609.7 404.64 609.44 405.41 609.18 406.19C609.44 405.72 609.67 405.33 609.71 405.28C610.97 403.56 614.4 400.98 616.71 401.73C617.081 401.866 617.419 402.079 617.703 402.354C617.987 402.629 618.21 402.96 618.357 403.327C618.505 403.693 618.575 404.087 618.562 404.482C618.548 404.877 618.452 405.264 618.28 405.62C617.59 407.16 615.72 408.04 614.17 408.4C612.62 408.76 609.66 408.22 608.63 408.02C608.39 408.83 608.15 409.63 607.95 410.42C607.82 410.96 607.67 411.48 607.57 412.03C607.47 412.58 607.36 413.11 607.26 413.64C607.1 414.64 606.93 415.74 606.8 416.76C606.7 417.46 606.62 418.13 606.54 418.81C606.82 418.03 607.4 416.52 607.46 416.4C608.383 414.758 609.712 413.381 611.32 412.4C611.411 412.212 611.521 412.034 611.65 411.87C611.882 411.549 612.179 411.281 612.522 411.083C612.864 410.885 613.245 410.762 613.639 410.721C614.032 410.681 614.43 410.724 614.806 410.848C615.182 410.972 615.528 411.173 615.82 411.44C617.54 413.08 616.88 417.33 615.95 419.24C615.89 419.35 615.16 420.51 614.69 421.24C615.03 420.85 615.36 420.48 615.69 420.09C616.39 419.31 617.11 418.56 617.89 417.74L619.07 416.59C619.45 416.2 619.91 415.84 620.33 415.45C621.33 414.58 622.33 413.75 623.46 412.93C622.78 412.31 620.41 410.09 619.77 408.63C619.13 407.17 618.77 405.14 619.54 403.63C619.721 403.277 619.973 402.967 620.282 402.719C620.591 402.47 620.948 402.29 621.331 402.189C621.714 402.088 622.114 402.069 622.505 402.133C622.896 402.197 623.269 402.342 623.6 402.56C625.6 403.93 625.53 408.22 624.91 410.26C624.91 410.38 624.25 411.79 623.91 412.56C624.56 412.07 625.21 411.56 625.91 411.11C627.91 409.76 629.91 408.44 631.91 407.11L633.74 405.89C633.5 405.67 630.62 403.09 629.9 401.46C629.26 400 628.9 397.97 629.67 396.46C629.853 396.109 630.107 395.801 630.416 395.555C630.725 395.308 631.082 395.129 631.465 395.029C631.847 394.929 632.247 394.911 632.637 394.975C633.027 395.039 633.399 395.183 633.73 395.4C635.68 396.77 635.66 401.06 635.04 403.1C635.04 403.25 634.1 405.27 633.85 405.78C635.2 404.88 636.53 403.97 637.85 403.02C639.515 401.78 641.101 400.437 642.6 399C642.48 398.9 639.46 396.22 638.73 394.54C638.09 393.09 637.68 391.06 638.5 389.59C638.68 389.237 638.933 388.926 639.242 388.678C639.551 388.43 639.909 388.25 640.292 388.15C640.676 388.05 641.076 388.032 641.467 388.097C641.858 388.163 642.23 388.31 642.56 388.53C644.56 389.89 644.49 394.19 643.87 396.22C643.87 396.36 643.15 397.9 642.81 398.63L642.93 398.7C644.448 397.158 645.826 395.484 647.05 393.7C647.74 392.7 648.34 391.76 648.9 390.81C648.29 390.37 645.51 388.32 644.68 386.88C643.85 385.44 643.26 383.53 643.91 381.98C644.053 381.611 644.272 381.277 644.552 380.998C644.832 380.719 645.168 380.501 645.537 380.36C645.906 380.219 646.301 380.156 646.696 380.177C647.091 380.198 647.477 380.301 647.83 380.48C649.92 381.63 650.37 385.9 649.97 387.99C649.97 388.1 649.6 389.23 649.34 390.05C649.58 389.61 649.85 389.17 650.08 388.75C650.94 387.17 651.64 385.67 652.24 384.34C652.58 383.57 652.87 382.88 653.13 382.23C652.76 381.48 651.28 378.45 651.21 376.82C651.14 375.19 651.49 373.19 652.78 372.12C653.076 371.857 653.424 371.659 653.801 371.539C654.178 371.42 654.576 371.381 654.97 371.425C655.363 371.469 655.743 371.596 656.084 371.797C656.425 371.997 656.72 372.268 656.95 372.59C658.28 374.59 656.71 378.59 655.39 380.24C655.28 380.39 653.24 382.44 653.22 382.4V382.35C652.98 382.99 652.71 383.66 652.4 384.4C651.83 385.75 651.16 387.27 650.33 388.87C649.45 390.61 648.469 392.296 647.39 393.92C646.21 395.744 644.871 397.461 643.39 399.05L643.33 399.1C643.94 398.77 645.69 397.89 645.83 397.83C647.83 397.09 652.11 396.83 653.58 398.71C653.816 399.027 653.982 399.391 654.068 399.777C654.155 400.163 654.159 400.562 654.08 400.95C654.002 401.337 653.843 401.704 653.614 402.026C653.385 402.349 653.09 402.619 652.75 402.82C651.33 403.72 649.28 403.43 647.75 402.87C646.07 402.24 643.32 399.5 643.11 399.28C641.541 400.851 639.871 402.318 638.11 403.67C637.11 404.47 636.03 405.24 634.96 405.99L636.06 405.45C638.06 404.71 642.34 404.45 643.81 406.33C644.046 406.647 644.212 407.011 644.298 407.397C644.385 407.783 644.389 408.182 644.31 408.57C644.232 408.957 644.073 409.324 643.844 409.646C643.615 409.969 643.32 410.239 642.98 410.44C641.56 411.34 639.51 411.05 637.98 410.49C636.45 409.93 634.08 407.63 633.46 407.02C633.04 407.3 632.64 407.59 632.22 407.88C630.22 409.24 628.22 410.59 626.35 411.98C625.68 412.47 625.03 412.98 624.35 413.48L625.29 413.01C627.29 412.27 631.58 412.01 633.05 413.89C633.285 414.208 633.451 414.572 633.537 414.958C633.622 415.345 633.625 415.745 633.546 416.132C633.467 416.52 633.307 416.886 633.077 417.208C632.847 417.53 632.551 417.8 632.21 418C630.79 418.9 628.74 418.61 627.21 418.05C625.68 417.49 623.54 415.41 622.8 414.69C622.15 415.22 621.5 415.76 620.9 416.31C620.5 416.69 620.08 417.03 619.7 417.44L618.55 418.61C617.85 419.39 617.11 420.18 616.45 420.96C615.98 421.49 615.54 422.01 615.1 422.53C615.76 422.03 617.1 421.09 617.2 421.03C619.06 420.03 623.26 419.09 625 420.72C625.281 420.998 625.501 421.332 625.645 421.701C625.788 422.07 625.853 422.464 625.834 422.86C625.815 423.255 625.713 423.641 625.535 423.995C625.357 424.348 625.106 424.66 624.8 424.91C623.53 426.01 621.46 426.03 619.9 425.71C618.19 425.35 615.17 423.16 614.8 422.88C614.17 423.7 613.47 424.55 612.82 425.36Z" fill="#263238"/>
<path d="M449 309.74L458 318.4C454.216 322.491 450.865 326.961 448 331.74C444 338.74 426.33 366.74 425 370.4C423.67 374.06 427 374.74 429.67 375.74C432.34 376.74 444.67 382.4 449.33 382.4C453.99 382.4 455.67 383.07 455.67 380.4C455.67 377.73 446.33 372.74 445.33 371.07C444.33 369.4 440.33 361.74 440.33 361.74C440.33 361.74 472.67 328.74 475 325.07C477.33 321.4 481 311.4 480 309.07C479 306.74 461 296.74 461 296.74L449 309.74Z" fill="#D4D4D4" stroke="#263238" stroke-linecap="round" stroke-linejoin="round"/>
<path d="M437.67 366.74L428.88 363.31C427.456 365.599 426.16 367.966 425 370.4C423.67 374.07 427 374.74 429.67 375.74C432.34 376.74 444.67 382.4 449.33 382.4C453.99 382.4 455.67 383.07 455.67 380.4C455.67 377.73 446.33 372.74 445.33 371.07C444.33 369.4 440.33 361.74 440.33 361.74L438.33 364.4L437.67 366.74Z" fill="#0987FF" stroke="#263238" stroke-linecap="round" stroke-linejoin="round"/>
<path d="M455.29 381.89C450.88 381.15 444.29 378.5 438.67 376.07C434.23 374.17 428.73 371.47 425.29 369.74C425.17 370 425.06 370.24 425 370.4C423.67 374.07 427 374.74 429.67 375.74C432.34 376.74 444.67 382.4 449.33 382.4C452.77 382.4 454.57 382.76 455.29 381.89Z" fill="white" stroke="#263238" stroke-linecap="round" stroke-linejoin="round"/>
<path d="M406 283.4C406 283.4 420.33 294.4 430.33 302.4C440.33 310.4 448.33 316.74 448.33 316.74C448.33 316.74 460.33 307.74 462.33 304.74C464.33 301.74 470 298.07 470 298.07L419 275.74C419 275.74 407.67 273.4 406 283.4Z" fill="#D4D4D4" stroke="#263238" stroke-linecap="round" stroke-linejoin="round"/>
<path d="M377 428.67C403.88 428.67 425.67 406.88 425.67 380C425.67 353.12 403.88 331.33 377 331.33C350.12 331.33 328.33 353.12 328.33 380C328.33 406.88 350.12 428.67 377 428.67Z" fill="#263238" stroke="#263238" stroke-linecap="round" stroke-linejoin="round"/>
<path d="M377 423.33C400.93 423.33 420.33 403.93 420.33 380C420.33 356.069 400.93 336.67 377 336.67C353.069 336.67 333.67 356.069 333.67 380C333.67 403.93 353.069 423.33 377 423.33Z" fill="white" stroke="#263238" stroke-linecap="round" stroke-linejoin="round"/>
<path d="M377 421.33C399.826 421.33 418.33 402.826 418.33 380C418.33 357.174 399.826 338.67 377 338.67C354.174 338.67 335.67 357.174 335.67 380C335.67 402.826 354.174 421.33 377 421.33Z" fill="white" stroke="#263238" stroke-linecap="round" stroke-linejoin="round"/>
<path d="M553.67 428.67C580.55 428.67 602.34 406.88 602.34 380C602.34 353.12 580.55 331.33 553.67 331.33C526.79 331.33 505 353.12 505 380C505 406.88 526.79 428.67 553.67 428.67Z" fill="#263238" stroke="#263238" stroke-linecap="round" stroke-linejoin="round"/>
<path d="M553.67 423.33C577.6 423.33 597 403.93 597 380C597 356.069 577.6 336.67 553.67 336.67C529.739 336.67 510.34 356.069 510.34 380C510.34 403.93 529.739 423.33 553.67 423.33Z" fill="white" stroke="#263238" stroke-linecap="round" stroke-linejoin="round"/>
<path d="M553.67 421.33C576.496 421.33 595 402.826 595 380C595 357.174 576.496 338.67 553.67 338.67C530.844 338.67 512.34 357.174 512.34 380C512.34 402.826 530.844 421.33 553.67 421.33Z" fill="white" stroke="#263238" stroke-linecap="round" stroke-linejoin="round"/>
<path d="M554.22 386C557.533 386 560.22 383.314 560.22 380C560.22 376.686 557.533 374 554.22 374C550.906 374 548.22 376.686 548.22 380C548.22 383.314 550.906 386 554.22 386Z" stroke="#263238" stroke-linecap="round" stroke-linejoin="round"/>
<path d="M411.9 291.11L445.33 384.67" stroke="#263238" stroke-width="4" stroke-miterlimit="10" stroke-linecap="round"/>
<path d="M555.26 382.15C543.59 369.84 513.87 288.83 508.82 274.93C508.605 274.346 508.586 273.708 508.766 273.112C508.947 272.517 509.317 271.996 509.82 271.63L521.2 263.32" stroke="#263238" stroke-width="4" stroke-miterlimit="10" stroke-linecap="round"/>
<path d="M378.26 377.89C378.26 377.89 400.96 307.31 515.18 295.25" stroke="#263238" stroke-width="4" stroke-miterlimit="10" stroke-linecap="round"/>
<path d="M462 382.86C462 382.86 480.45 378.6 492.86 358.39C505.27 338.18 515.21 319.72 523.72 315.11" stroke="#263238" stroke-width="4" stroke-miterlimit="10" stroke-linecap="round"/>
<path d="M395.14 279.82C395.14 279.82 394.8 288.71 397.19 291.45C399.58 294.19 414.97 294.53 422.19 293.5C429.41 292.47 432.45 289.74 431.76 287.69C431.07 285.64 419.76 278.45 411.93 277.77C404.1 277.09 395.48 276.74 395.14 279.82Z" fill="white" stroke="#263238" stroke-linecap="round" stroke-linejoin="round"/>
<path d="M510.57 249.84C510.57 249.84 537.17 253.39 542.49 272.9C547.81 292.41 530.07 301.63 519.08 301.63" stroke="#263238" stroke-linecap="round" stroke-linejoin="round"/>
<path d="M529.37 243.46C529.37 243.46 553.13 264.74 548.17 279.99C543.21 295.24 514.11 291.7 513.4 290.64" stroke="#263238" stroke-linecap="round" stroke-linejoin="round"/>
<path d="M458.31 270.77C461.77 269.1 470.5 273.18 473.95 274.27C480.023 276.157 485.947 278.497 491.67 281.27C493.76 282.27 501.33 284.45 501.33 287.45C501.33 290.12 481.33 358.79 481.33 358.79C485.239 360.667 489.244 362.336 493.33 363.79C497.67 365.12 504.67 365.79 505.33 366.79C505.99 367.79 503.67 371.12 500.33 372.45C496.99 373.78 472.67 375.79 470 375.79C467.33 375.79 466.33 376.79 467.33 372.45C468.33 368.11 469.33 351.79 469.33 351.79C469.33 351.79 471 329.07 471 323.4C471 317.73 475 298.74 475 298.74L452.67 298.07C453.375 290.928 454.453 283.829 455.9 276.8C456.2 275.42 456.37 272.75 457.28 271.61C457.556 271.256 457.908 270.969 458.31 270.77Z" fill="white" stroke="#263238" stroke-linecap="round" stroke-linejoin="round"/>
<path d="M394.33 258.07C394.33 258.07 391.33 270.4 393.33 277.4C395.33 284.4 409.33 285.74 409.33 285.74L456.67 305.4L464 269.74L438.75 261.49C438.75 261.49 394.67 256.4 394.33 258.07Z" fill="white" stroke="#263238" stroke-linecap="round" stroke-linejoin="round"/>
<path d="M450.65 286.37L454.63 288.05" stroke="#263238" stroke-linecap="round" stroke-linejoin="round"/>
<path d="M422.44 274.41L446.39 284.56" stroke="#263238" stroke-linecap="round" stroke-linejoin="round"/>
<path d="M410 260.1C410 260.1 402 266.76 404.35 267.42C406.7 268.08 411.67 260.77 411.67 264.42C411.67 268.07 409.67 272.07 411 272.42C412.33 272.77 415.33 271.42 415.33 271.42L419.71 273.27" stroke="#263238" stroke-linecap="round" stroke-linejoin="round"/>
<path d="M481.33 358.74C481.33 358.74 481.54 358.04 481.89 356.81C481.535 357.392 481.342 358.058 481.33 358.74V358.74Z" stroke="#263238" stroke-linecap="round" stroke-linejoin="round"/>
<path d="M493.33 363.74C489.245 362.287 485.239 360.618 481.33 358.74C481 362.4 481 364.4 481 364.4L468.29 365.14C468.09 367.576 467.756 370 467.29 372.4C466.29 376.74 467.29 375.74 469.96 375.74C472.63 375.74 496.96 373.74 500.29 372.4C503.62 371.06 505.96 367.74 505.29 366.74C504.62 365.74 497.67 365.07 493.33 363.74Z" fill="#0987FF" stroke="#263238" stroke-linecap="round" stroke-linejoin="round"/>
<path d="M470.001 375.74C472.671 375.74 497.001 373.74 500.331 372.4C503.191 371.26 505.331 368.65 505.431 367.3C494.651 372.4 467.331 372.4 467.331 372.4C466.331 376.74 467.331 375.74 470.001 375.74Z" fill="white" stroke="#263238" stroke-linecap="round" stroke-linejoin="round"/>
<path d="M456.33 371.33L373.33 374L372.33 383L454.33 398.67L456.33 371.33Z" fill="white" stroke="#263238" stroke-linecap="round" stroke-linejoin="round"/>
<path d="M454.33 398.67C461.88 398.67 468 392.55 468 385C468 377.45 461.88 371.33 454.33 371.33C446.78 371.33 440.66 377.45 440.66 385C440.66 392.55 446.78 398.67 454.33 398.67Z" fill="white" stroke="#263238" stroke-linecap="round" stroke-linejoin="round"/>
<path d="M479.35 378.25L455.9 383.56C455.51 383.654 455.143 383.829 454.826 384.075C454.508 384.32 454.246 384.631 454.057 384.985C453.868 385.34 453.756 385.73 453.729 386.131C453.702 386.532 453.76 386.933 453.9 387.31V387.31C454.165 388.011 454.697 388.578 455.379 388.887C456.061 389.197 456.839 389.223 457.54 388.96L483.27 379.31L479.35 378.25Z" fill="white" stroke="#263238" stroke-miterlimit="10" stroke-linecap="round"/>
<path d="M491.92 375.24H476.19V380.71H491.92V375.24Z" fill="white" stroke="#263238" stroke-miterlimit="10" stroke-linecap="round"/>
<path d="M377 388.67C381.788 388.67 385.67 384.788 385.67 380C385.67 375.212 381.788 371.33 377 371.33C372.212 371.33 368.33 375.212 368.33 380C368.33 384.788 372.212 388.67 377 388.67Z" fill="white" stroke="#263238" stroke-linecap="round" stroke-linejoin="round"/>
<path d="M468.36 228.56L491.36 238.49C491.36 238.49 502 240.62 503.07 242.04C504.095 243.461 504.928 245.011 505.55 246.65C505.9 247.72 503.42 247.72 503.42 247.72C503.42 247.72 506.26 251.62 505.2 252.72C504.14 253.82 503.07 254.14 502.36 252.72C501.871 251.819 501.131 251.079 500.23 250.59L493.49 248.47L489.59 243.47C489.59 243.47 456.95 240.28 454.12 239.21C451.29 238.14 440.64 222.9 440.64 222.9L446 216.5L468.36 228.56Z" fill="#D4D4D4" stroke="#263238" stroke-linecap="round" stroke-linejoin="round"/>
<path d="M428.25 171.49C428.25 171.49 423.25 170.49 417 174.49C410.75 178.49 403.25 187.74 400.75 196.74C398.25 205.74 397.25 224.74 397.25 231.99C397.25 239.24 393 249.49 393 253.74C393 257.99 393.75 259.99 396 259.99C398.25 259.99 412 259.74 420.5 261.49C429 263.24 436 263.74 438.75 261.49C441.5 259.24 440.75 245.74 440.75 243.99C440.75 242.24 449 220.74 451 211C453 201.26 448.75 183.5 446.75 179.5C444.75 175.5 434 171.24 433 171.24C432 171.24 428.25 171.49 428.25 171.49Z" fill="#0987FF" stroke="#263238" stroke-linecap="round" stroke-linejoin="round"/>
<path d="M406.05 215.62L402.73 217.57" stroke="#263238" stroke-linecap="round" stroke-linejoin="round"/>
<path d="M403.44 209.41L423.31 205.5L410.04 213.28" stroke="#263238" stroke-linecap="round" stroke-linejoin="round"/>
<path d="M427.25 160.24L425.75 172.49C425.75 172.49 434 181.49 436.5 183.74C439 185.99 444.5 187.49 444.5 187.49V178.74L448.25 161C448.25 161 432.75 165 427.25 160.24Z" fill="white" stroke="#263238" stroke-linecap="round" stroke-linejoin="round"/>
<path d="M421.51 140.62C421.51 140.62 417.2 139.68 417.2 144.92C417.162 146.397 417.443 147.865 418.025 149.223C418.606 150.581 419.474 151.798 420.57 152.79C420.57 152.79 423.2 154.1 424.32 151.67C424.32 151.67 424.88 159.72 425.82 161.59C426.76 163.46 432.75 168.9 439.87 169.27C446.99 169.64 450.17 161.78 450.92 158.97C451.67 156.16 452.79 152.23 452.79 152.23C452.79 152.23 453.91 153.91 456.35 151.48C458.79 149.05 460.66 145.86 459.16 142.3C458.817 141.337 458.13 140.536 457.23 140.051C456.33 139.567 455.282 139.435 454.29 139.68V130.88C454.449 129.095 453.999 127.309 453.013 125.812C452.027 124.316 450.563 123.198 448.86 122.64C442.68 120.39 431.06 121.89 425.63 128.07C420.2 134.25 420.76 136.87 420.76 136.87L421.51 140.62Z" fill="white" stroke="#263238" stroke-linecap="round" stroke-linejoin="round"/>
<path d="M438.18 151.1C438.18 151.1 430.88 150.54 429 151.67C427.12 152.8 427.5 162.34 429 165.53C430.5 168.72 437.24 171.33 440.8 171.15C444.36 170.97 447.17 166.46 447.73 163.65C448.29 160.84 448.67 152.23 447.73 151.65C446.79 151.07 438.18 151.1 438.18 151.1Z" fill="#263238" stroke="#263238" stroke-linecap="round" stroke-linejoin="round"/>
<path d="M440.62 138.18L440.43 150.92L435.93 149.04" stroke="#263238" stroke-linecap="round" stroke-linejoin="round"/>
<path d="M431.811 153.73C431.811 153.73 435.181 155.97 440.811 155.04C440.811 155.04 437.251 158.41 435.571 158.6C433.891 158.79 431.811 153.73 431.811 153.73Z" fill="white"/>
<path d="M432 140.8C432 141.8 431.58 142.68 431.06 142.68C430.54 142.68 430.13 141.84 430.13 140.8C430.13 139.76 430.55 138.93 431.06 138.93C431.57 138.93 432 139.77 432 140.8Z" fill="#263238"/>
<path d="M444.55 140.8C444.55 141.8 444.13 142.68 443.61 142.68C443.09 142.68 442.68 141.84 442.68 140.8C442.68 139.76 443.1 138.93 443.61 138.93C444.12 138.93 444.55 139.77 444.55 140.8Z" fill="#263238"/>
<path d="M427.13 137.24C427.13 137.24 431.44 133.69 435.37 136.87" stroke="#263238" stroke-linecap="round" stroke-linejoin="round"/>
<path d="M441.74 135.56C441.74 135.56 446.23 133.87 448.67 137.43" stroke="#263238" stroke-linecap="round" stroke-linejoin="round"/>
<path d="M433.1 127.63C433.1 127.63 429.68 133.45 434.1 133.11C438.52 132.77 448.1 126.27 448.1 126.27C448.1 126.27 449.47 132.76 450.83 133.79C452.19 134.82 453.23 135.5 453.23 135.5L452.89 146.79C452.89 146.79 454.6 147.79 454.6 142.68C454.6 137.57 456.31 129.34 455.6 121.82C454.89 114.3 442.6 106.43 437.48 105.4C432.36 104.37 431.66 109.85 431.66 109.85C431.66 109.85 420.72 111.9 422.77 115.32C424.82 118.74 423.77 118.4 423.77 118.4C423.77 118.4 416.24 117.72 416.93 124.9C417.596 130.155 418.81 135.327 420.55 140.33C420.55 140.33 421.55 147.17 423.28 147.17C425.01 147.17 423.49 143.17 423.49 142.17C423.139 140.26 422.661 138.376 422.06 136.53L433.1 127.63Z" fill="#263238" stroke="#263238" stroke-linecap="round" stroke-linejoin="round"/>
<path d="M501.34 247C501.34 247 505.95 246.64 508.44 249.12C510.93 251.6 512.34 259.06 516.24 262.25C520.14 265.44 524.4 262.96 527.59 258.7C530.78 254.44 529 243.1 528 241C527 238.9 508.84 242.42 508.84 242.42" stroke="#263238" stroke-width="4" stroke-miterlimit="10" stroke-linecap="round"/>
<path d="M411.67 201.4C411.67 201.4 444 226.74 447.67 227.74C451.34 228.74 506.67 237.07 506.67 237.07C506.67 237.07 507.33 240.07 510 240.74C511.748 241.149 513.535 241.37 515.33 241.4C515.33 241.4 515 244.74 516.67 244.74C518.34 244.74 524.33 245.74 525.33 244.74C526.33 243.74 527 238.07 526.33 236.4C525.66 234.73 507 230.74 507 230.74L458.67 212.4C458.67 212.4 435.33 183.4 429.67 179.4C424.01 175.4 415.33 181.74 415.33 181.74" fill="white"/>
<path d="M411.67 201.4C411.67 201.4 444 226.74 447.67 227.74C451.34 228.74 506.67 237.07 506.67 237.07C506.67 237.07 507.33 240.07 510 240.74C511.748 241.149 513.535 241.37 515.33 241.4C515.33 241.4 515 244.74 516.67 244.74C518.34 244.74 524.33 245.74 525.33 244.74C526.33 243.74 527 238.07 526.33 236.4C525.66 234.73 507 230.74 507 230.74L458.67 212.4C458.67 212.4 435.33 183.4 429.67 179.4C424.01 175.4 415.33 181.74 415.33 181.74" stroke="#263238" stroke-linecap="round" stroke-linejoin="round"/>
<path d="M411.67 201.4C411.67 201.4 421.49 209.1 430.92 216.17L450.27 202.17C442.99 193.41 433.1 181.84 429.67 179.42C424 175.42 415.33 181.76 415.33 181.76" fill="#0987FF"/>
<path d="M411.67 201.4C411.67 201.4 421.49 209.1 430.92 216.17L450.27 202.17C442.99 193.41 433.1 181.84 429.67 179.42C424 175.42 415.33 181.76 415.33 181.76" stroke="#263238" stroke-linecap="round" stroke-linejoin="round"/>
<path d="M519.33 239.4V245.4" stroke="#263238" stroke-linecap="round" stroke-linejoin="round"/>
<path d="M522.33 238.07L522 245.07" stroke="#263238" stroke-linecap="round" stroke-linejoin="round"/>
<path d="M525 238.07L525.33 244.74" stroke="#263238" stroke-linecap="round" stroke-linejoin="round"/>
<path d="M221.57 133.72C222.982 137.03 223.99 140.499 224.57 144.05C225.57 150.05 227.2 152.25 228.42 152.79C229.64 153.33 229.99 155.52 229.32 157.18C228.65 158.84 225.69 159 225.69 159C225.69 159 224.24 167.38 223.9 168.72C223.56 170.06 222.24 172.38 217.57 171.38C215.51 170.94 207.9 168.05 207.9 168.05C207.9 168.05 206.9 183.38 206.9 187.38V192.72L190.24 189.72C190.24 189.72 191.57 180.72 191.9 175.72C192.23 170.72 190.57 163.05 187.57 156.72C184.57 150.39 178.9 148.38 182.57 141.72C186.24 135.06 202.9 129.38 208.9 129.05C214.9 128.72 221.57 133.72 221.57 133.72Z" fill="white" stroke="#263238" stroke-linecap="round" stroke-linejoin="round"/>
<path d="M222.511 147.95L222.661 150.22" stroke="#263238" stroke-linecap="round" stroke-linejoin="round"/>
<path d="M219.49 146.29C219.49 146.29 219.79 142.65 222.82 143.71" stroke="#263238" stroke-linecap="round" stroke-linejoin="round"/>
<path d="M223.721 161.27C223.721 161.27 219.791 161.57 218.881 157.94" stroke="#263238" stroke-linecap="round" stroke-linejoin="round"/>
<path d="M217.18 204.44L229.6 221.82C229.6 221.82 264.36 238.82 268.6 240.27C272.84 241.72 285.6 246.65 289.88 247.01C294.16 247.37 298.04 252.01 298.04 252.01C298.04 252.01 297.68 255.2 296.26 256.27C294.84 257.34 290.94 255.91 288.46 255.91C286.401 255.74 284.379 255.265 282.46 254.5C282.46 254.5 277.46 247.4 276.46 247.05C275.46 246.7 245.95 238.53 237.46 235.34C228.97 232.15 217.95 228.25 215.11 223.28C212.27 218.31 216.53 205.9 216.53 205.9L217.18 204.44Z" fill="#D4D4D4" stroke="#263238" stroke-linecap="round" stroke-linejoin="round"/>
<path d="M203.57 297.67C203.57 297.67 214.9 307 220.57 312C223.715 314.84 227.182 317.3 230.9 319.33C230.9 319.33 221.57 330.33 219.9 340.67C218.23 351.01 204.24 379.67 204.57 382C204.9 384.33 217.24 384.67 221.57 384.67C225.9 384.67 231.9 386.33 233.9 384.67C235.9 383.01 226.9 378.33 224.57 377C222.24 375.67 218.24 370.67 218.24 370.67C218.24 370.67 237.9 339 242.9 330C247.9 321 253.9 316.67 250.9 308.67C247.9 300.67 212.57 292.33 210.24 291.67C207.91 291.01 203.57 292 203.57 297.67Z" fill="#D4D4D4" stroke="#263238" stroke-linecap="round" stroke-linejoin="round"/>
<path d="M208.341 371.8C206.091 377.15 204.451 381.18 204.571 382C204.901 384.33 217.241 384.67 221.571 384.67C225.901 384.67 231.901 386.33 233.901 384.67C235.901 383.01 226.901 378.33 224.571 377C222.241 375.67 218.241 370.67 218.241 370.67L216.571 373.33L208.341 371.8Z" fill="white" stroke="#263238" stroke-linecap="round" stroke-linejoin="round"/>
<path d="M233.9 384.67C234.41 384.25 234.21 383.67 233.6 382.93C228.35 382.42 219.17 381.56 213.9 381.33C210.912 381.321 207.951 380.769 205.16 379.7C204.842 380.43 204.642 381.207 204.57 382C204.9 384.33 217.24 384.67 221.57 384.67C225.9 384.67 231.9 386.33 233.9 384.67Z" fill="white" stroke="#263238" stroke-linecap="round" stroke-linejoin="round"/>
<path d="M293.24 294.67C293.24 294.67 268.24 299 255.57 317.67C245.95 331.84 222.9 357.67 213.57 360.33" stroke="#263238" stroke-width="4" stroke-linecap="round" stroke-linejoin="bevel"/>
<path d="M296.24 306.67C296.24 306.67 279.9 315.67 271.24 327C262.58 338.33 253.9 375 236.57 385.33" stroke="#263238" stroke-width="4" stroke-linecap="round" stroke-linejoin="bevel"/>
<path d="M194.9 301.33L219.9 384.67" stroke="#263238" stroke-width="4" stroke-miterlimit="10" stroke-linecap="round"/>
<path d="M151.57 428.67C178.45 428.67 200.24 406.88 200.24 380C200.24 353.12 178.45 331.33 151.57 331.33C124.691 331.33 102.9 353.12 102.9 380C102.9 406.88 124.691 428.67 151.57 428.67Z" fill="#263238" stroke="#263238" stroke-linecap="round" stroke-linejoin="round"/>
<path d="M151.57 423.33C175.501 423.33 194.9 403.931 194.9 380C194.9 356.07 175.501 336.67 151.57 336.67C127.64 336.67 108.24 356.07 108.24 380C108.24 403.931 127.64 423.33 151.57 423.33Z" fill="white" stroke="#263238" stroke-linecap="round" stroke-linejoin="round"/>
<path d="M151.57 421.33C174.396 421.33 192.9 402.826 192.9 380C192.9 357.174 174.396 338.67 151.57 338.67C128.744 338.67 110.24 357.174 110.24 380C110.24 402.826 128.744 421.33 151.57 421.33Z" fill="white" stroke="#263238" stroke-linecap="round" stroke-linejoin="round"/>
<path d="M328.24 428.67C355.12 428.67 376.91 406.88 376.91 380C376.91 353.12 355.12 331.33 328.24 331.33C301.361 331.33 279.57 353.12 279.57 380C279.57 406.88 301.361 428.67 328.24 428.67Z" fill="#263238" stroke="#263238" stroke-linecap="round" stroke-linejoin="round"/>
<path d="M328.24 423.33C352.171 423.33 371.57 403.931 371.57 380C371.57 356.07 352.171 336.67 328.24 336.67C304.31 336.67 284.91 356.07 284.91 380C284.91 403.931 304.31 423.33 328.24 423.33Z" fill="white" stroke="#263238" stroke-linecap="round" stroke-linejoin="round"/>
<path d="M328.24 421.33C351.066 421.33 369.57 402.826 369.57 380C369.57 357.174 351.066 338.67 328.24 338.67C305.414 338.67 286.91 357.174 286.91 380C286.91 402.826 305.414 421.33 328.24 421.33Z" fill="white" stroke="#263238" stroke-linecap="round" stroke-linejoin="round"/>
<path d="M328.24 386C331.554 386 334.24 383.314 334.24 380C334.24 376.686 331.554 374 328.24 374C324.927 374 322.24 376.686 322.24 380C322.24 383.314 324.927 386 328.24 386Z" stroke="#263238" stroke-linecap="round" stroke-linejoin="round"/>
<path d="M328.24 380C328.24 380 305.57 342 304.57 337C303.57 332 288.9 278.33 288.9 278.33L298.9 255.33C298.963 255.206 298.999 255.071 299.007 254.932C299.014 254.794 298.993 254.655 298.944 254.526C298.895 254.396 298.82 254.278 298.723 254.179C298.626 254.08 298.509 254.002 298.38 253.95L285.24 252.33" stroke="#263238" stroke-width="4" stroke-linecap="round" stroke-linejoin="bevel"/>
<path d="M151.24 376.67L202.24 328.67" stroke="#263238" stroke-width="4" stroke-miterlimit="10" stroke-linecap="round"/>
<path d="M183.33 289.68C183.33 289.68 177.23 288.62 175.91 290.74C174.59 292.86 174.32 299.74 177.23 301.34C180.14 302.94 198.97 303.72 203.48 303.19C207.99 302.66 209.31 297.1 206.66 294.98C204.01 292.86 183.33 289.68 183.33 289.68Z" fill="white" stroke="#263238" stroke-linecap="round" stroke-linejoin="round"/>
<path d="M230.9 371.33L147.9 374L146.9 383L228.9 398.67L230.9 371.33Z" fill="white" stroke="#263238" stroke-linecap="round" stroke-linejoin="round"/>
<path d="M228.9 398.67C236.45 398.67 242.57 392.55 242.57 385C242.57 377.45 236.45 371.33 228.9 371.33C221.351 371.33 215.23 377.45 215.23 385C215.23 392.55 221.351 398.67 228.9 398.67Z" fill="white" stroke="#263238" stroke-linecap="round" stroke-linejoin="round"/>
<path d="M228.9 389.67C231.48 389.67 233.57 387.579 233.57 385C233.57 382.421 231.48 380.33 228.9 380.33C226.321 380.33 224.23 382.421 224.23 385C224.23 387.579 226.321 389.67 228.9 389.67Z" fill="white" stroke="#263238" stroke-linecap="round" stroke-linejoin="round"/>
<path d="M255.24 392C255.114 392.014 254.987 392.014 254.86 392L228.53 387C228.259 386.967 227.996 386.878 227.76 386.739C227.524 386.6 227.319 386.414 227.158 386.193C226.997 385.972 226.883 385.719 226.823 385.452C226.763 385.185 226.759 384.908 226.81 384.639C226.862 384.37 226.968 384.115 227.122 383.888C227.276 383.662 227.475 383.47 227.707 383.324C227.939 383.178 228.198 383.081 228.468 383.039C228.739 382.997 229.015 383.011 229.28 383.08L255.61 388.08C255.873 388.104 256.128 388.18 256.362 388.303C256.595 388.426 256.802 388.594 256.97 388.797C257.139 389 257.266 389.234 257.344 389.486C257.422 389.738 257.45 390.003 257.425 390.265C257.401 390.528 257.325 390.783 257.202 391.016C257.079 391.25 256.912 391.457 256.709 391.625C256.506 391.794 256.272 391.921 256.02 391.999C255.768 392.077 255.503 392.104 255.24 392.08V392Z" fill="white" stroke="#263238" stroke-linecap="round" stroke-linejoin="round"/>
<path d="M151.57 388.67C156.359 388.67 160.24 384.788 160.24 380C160.24 375.212 156.359 371.33 151.57 371.33C146.782 371.33 142.9 375.212 142.9 380C142.9 384.788 146.782 388.67 151.57 388.67Z" fill="white" stroke="#263238" stroke-linecap="round" stroke-linejoin="round"/>
<path d="M212.681 191.19C209.916 187.518 206.007 184.872 201.571 183.67C192.571 181.33 186.901 183.33 182.571 194C178.241 204.67 185.901 222.33 187.241 226.67C188.581 231.01 185.571 239.33 182.241 246.67C178.911 254.01 172.241 261.67 173.241 275C174.241 288.33 188.571 295.33 191.901 295.67L195.241 296C195.241 296 218.241 307.33 228.241 310C234.015 311.577 239.93 312.582 245.901 313C245.901 313 239.241 318 239.241 330.33C239.241 342.66 238.571 390.67 238.571 390.67C238.571 390.67 240.571 393.67 241.571 393.67C242.571 393.67 274.241 385.33 274.241 385.33C274.241 385.33 275.241 381 273.571 381C271.901 381 247.901 375.33 247.901 375.33C247.901 375.33 259.571 326 262.241 320.33C264.911 314.66 263.571 308 260.571 303.67C257.571 299.34 238.571 279 222.901 272L219.571 266C218.711 252.48 218.921 252.47 217.901 241.33C217.571 237.67 221.571 212.33 218.901 203.67C217.611 199.163 215.503 194.933 212.681 191.19V191.19Z" fill="white" stroke="#263238" stroke-linecap="round" stroke-linejoin="round"/>
<path d="M180.311 250.44C187.581 251.81 204.611 261.85 219.111 259.77C218.791 254.96 218.041 242.87 217.901 241.33C217.571 237.67 221.571 212.33 218.901 203.67C217.611 199.163 215.503 194.933 212.681 191.19C209.916 187.518 206.007 184.872 201.571 183.67C192.571 181.33 186.901 183.33 182.571 194C178.241 204.67 185.901 222.33 187.241 226.67C188.581 231.01 185.571 239.33 182.241 246.67C181.671 247.9 181.001 249.15 180.311 250.44Z" fill="white" stroke="#263238" stroke-linecap="round" stroke-linejoin="round"/>
<path d="M187.17 232.7C186.853 234.263 186.442 235.806 185.94 237.32H218.09C218.21 235.99 218.36 234.43 218.53 232.7H187.17Z" fill="#263238"/>
<path d="M218.86 255.83C218.76 254.38 218.66 252.83 218.56 251.2H183.12C186.36 252.27 190.63 254.1 195.39 255.83H218.86Z" fill="#263238"/>
<path d="M184.261 242C183.631 243.55 182.961 245.11 182.261 246.63H218.261C218.131 244.63 218.021 242.93 217.951 242H184.261Z" fill="#263238"/>
<path d="M183.931 191.06H212.581C211.172 189.285 209.511 187.725 207.651 186.43H187.061C185.807 187.82 184.753 189.378 183.931 191.06Z" fill="#263238"/>
<path d="M181.42 204.94C181.56 206.48 181.8 208.03 182.09 209.57H219.75C219.687 208.016 219.51 206.468 219.22 204.94H181.42Z" fill="#263238"/>
<path d="M182 195.69C181.587 197.198 181.349 198.748 181.29 200.31H217.73C217.123 198.726 216.415 197.183 215.61 195.69H182Z" fill="#263238"/>
<path d="M186.11 223.44C186.61 224.83 187.01 225.94 187.24 226.67C187.373 227.127 187.46 227.596 187.5 228.07H219C219.14 226.57 219.27 225.02 219.39 223.44H186.11Z" fill="#263238"/>
<path d="M183.16 214.19C183.59 215.82 184.06 217.38 184.53 218.82H219.65C219.73 217.24 219.79 215.69 219.81 214.19H183.16Z" fill="#263238"/>
<path d="M222.9 272L219.57 266C219.57 266 219.4 264 218.9 256.67C207.58 258.57 190.98 248.67 182.07 247.01C178.69 254.24 172.25 261.87 173.24 275.01C174.24 288.34 188.57 295.34 191.9 295.68L195.24 296.01L195.53 296.16C201.44 281.09 222.53 273.68 222.53 273.68H226.21C225.12 273.05 224 272.49 222.9 272Z" fill="#0987FF" stroke="#263238" stroke-linecap="round" stroke-linejoin="round"/>
<path d="M197.641 275.89C198.441 276.39 199.301 276.9 200.221 277.42" stroke="#263238" stroke-linecap="round" stroke-linejoin="round"/>
<path d="M190.8 252.07C190.8 252.07 192.25 254.24 190.08 254.96C187.91 255.68 185.73 258.96 185.73 258.96C185.73 258.96 189.35 259.32 189.73 260.41C190.11 261.5 186.47 263.3 186.84 264.41C187.13 265.28 188.12 268.96 194.5 273.75" stroke="#263238" stroke-linecap="round" stroke-linejoin="round"/>
<path d="M193.24 295.67L198.24 298.67C200.963 292.445 204.678 286.704 209.24 281.67C216.24 274.33 228.9 275.33 228.9 275.33C228.9 275.33 225.9 272 222.9 272C219.9 272 209.24 274.33 203.24 279.33C197.24 284.33 193.24 295.67 193.24 295.67Z" fill="white" stroke="#263238" stroke-linecap="round" stroke-linejoin="round"/>
<path d="M215.08 267.11L222.9 272" stroke="#263238" stroke-linecap="round" stroke-linejoin="round"/>
<path d="M209.57 263.67L211.57 264.91" stroke="#263238" stroke-linecap="round" stroke-linejoin="round"/>
<path d="M272.24 251.67H268.24" stroke="#263238" stroke-width="4" stroke-linecap="round" stroke-linejoin="round"/>
<path d="M273.57 381C271.9 381 247.9 375.33 247.9 375.33V382.33L238.66 383.77C238.61 388 238.57 390.67 238.57 390.67C238.57 390.67 240.57 393.67 241.57 393.67C242.57 393.67 274.24 385.33 274.24 385.33C274.24 385.33 275.24 381 273.57 381Z" fill="white" stroke="#263238" stroke-linecap="round" stroke-linejoin="round"/>
<path d="M274.51 383.42L239.62 392.08C240.26 392.85 241.05 393.67 241.57 393.67C242.57 393.67 274.24 385.33 274.24 385.33C274.376 384.701 274.466 384.062 274.51 383.42V383.42Z" fill="white" stroke="#263238" stroke-linecap="round" stroke-linejoin="round"/>
<path d="M263.811 388.748L248.66 392.904C248.415 392.971 248.271 393.225 248.338 393.47L249.394 397.317C249.461 397.562 249.714 397.706 249.959 397.639L265.11 393.483C265.355 393.416 265.499 393.163 265.432 392.918L264.376 389.07C264.309 388.825 264.056 388.681 263.811 388.748Z" fill="white" stroke="#263238" stroke-linecap="round" stroke-linejoin="round"/>
<path d="M293.61 296.61L324.44 299.91" stroke="#263238" stroke-width="2" stroke-linecap="round" stroke-linejoin="round"/>
<path d="M343.38 262.06C342.775 262.053 342.183 262.238 341.69 262.59C341.862 262.036 341.953 261.46 341.96 260.88C342.025 259.36 341.487 257.876 340.462 256.752C339.437 255.628 338.009 254.955 336.49 254.88C335.313 254.877 334.169 255.268 333.24 255.99C333.007 255.481 332.636 255.047 332.17 254.738C331.703 254.429 331.16 254.256 330.6 254.24C329.769 254.264 328.981 254.614 328.406 255.215C327.831 255.816 327.517 256.619 327.53 257.45C327.245 257.343 326.944 257.285 326.64 257.28C326.52 257.28 326.41 257.28 326.3 257.28C326.409 256.958 326.467 256.62 326.47 256.28C326.474 255.881 326.399 255.486 326.251 255.116C326.102 254.747 325.881 254.41 325.602 254.125C325.323 253.841 324.991 253.614 324.624 253.458C324.258 253.301 323.864 253.219 323.465 253.215C323.067 253.211 322.671 253.286 322.301 253.435C321.932 253.583 321.595 253.804 321.31 254.083C321.026 254.362 320.799 254.694 320.643 255.061C320.486 255.428 320.404 255.821 320.4 256.22C320.394 256.559 320.441 256.896 320.54 257.22H319.79C319.829 257.015 319.852 256.808 319.86 256.6C319.898 255.764 319.604 254.947 319.042 254.327C318.48 253.707 317.696 253.334 316.86 253.29C316.373 253.295 315.894 253.419 315.466 253.651C315.037 253.883 314.671 254.215 314.4 254.62C314.156 254.209 313.811 253.866 313.398 253.625C312.986 253.383 312.518 253.251 312.04 253.24C311.255 253.269 310.512 253.604 309.972 254.175C309.432 254.745 309.136 255.504 309.15 256.29C309.146 256.845 309.283 257.393 309.55 257.88C308.921 257.596 308.24 257.443 307.55 257.43C306.058 257.549 304.664 258.222 303.642 259.317C302.62 260.412 302.045 261.848 302.029 263.346C302.012 264.843 302.556 266.292 303.554 267.408C304.552 268.525 305.931 269.228 307.42 269.38L329.18 272.15C328.949 272.617 328.822 273.129 328.81 273.65C328.775 274.485 329.07 275.301 329.631 275.92C330.192 276.54 330.975 276.913 331.81 276.96C332.472 276.951 333.113 276.726 333.636 276.32C334.16 275.914 334.536 275.349 334.71 274.71C335.111 274.821 335.524 274.881 335.94 274.89C337.466 274.843 338.912 274.194 339.961 273.085C341.01 271.976 341.578 270.496 341.54 268.97C341.541 268.598 341.511 268.227 341.45 267.86C341.966 268.328 342.634 268.594 343.33 268.61C344.168 268.573 344.961 268.217 345.545 267.614C346.128 267.011 346.458 266.207 346.467 265.368C346.476 264.529 346.163 263.718 345.593 263.103C345.022 262.488 344.237 262.114 343.4 262.06H343.38Z" fill="#0987FF" stroke="#263238" stroke-linecap="round" stroke-linejoin="round"/>
<path d="M322.001 298.7L299.151 296.75L299.021 264.62L327.581 267.06L322.001 298.7Z" fill="white" stroke="#263238" stroke-linecap="round" stroke-linejoin="round"/>
<path d="M312.301 267C314.946 267 317.091 264.856 317.091 262.21C317.091 259.565 314.946 257.42 312.301 257.42C309.655 257.42 307.511 259.565 307.511 262.21C307.511 264.856 309.655 267 312.301 267Z" fill="white" stroke="#263238" stroke-linecap="round" stroke-linejoin="round"/>
<path d="M313.85 262.21C313.852 262.517 313.763 262.818 313.594 263.074C313.425 263.33 313.183 263.53 312.9 263.649C312.617 263.768 312.305 263.8 312.004 263.741C311.702 263.683 311.425 263.536 311.208 263.319C310.99 263.103 310.841 262.827 310.781 262.526C310.72 262.225 310.75 261.913 310.867 261.629C310.984 261.345 311.183 261.103 311.438 260.932C311.693 260.761 311.993 260.67 312.3 260.67C312.503 260.669 312.704 260.707 312.892 260.784C313.08 260.861 313.251 260.974 313.395 261.117C313.539 261.261 313.654 261.431 313.732 261.618C313.81 261.806 313.85 262.007 313.85 262.21Z" fill="white" stroke="#263238" stroke-linecap="round" stroke-linejoin="round"/>
<path d="M328.24 255.67C328.24 256.618 327.959 257.544 327.433 258.331C326.907 259.119 326.158 259.733 325.283 260.096C324.408 260.458 323.445 260.553 322.516 260.368C321.586 260.183 320.733 259.727 320.063 259.057C319.393 258.387 318.937 257.534 318.752 256.605C318.567 255.675 318.662 254.712 319.025 253.837C319.387 252.962 320.001 252.214 320.789 251.687C321.577 251.161 322.503 250.88 323.45 250.88C324.721 250.88 325.939 251.385 326.837 252.283C327.735 253.181 328.24 254.4 328.24 255.67V255.67Z" fill="white" stroke="#263238" stroke-linecap="round" stroke-linejoin="round"/>
<path d="M325 255.67C325 255.977 324.909 256.276 324.739 256.531C324.569 256.786 324.327 256.985 324.044 257.102C323.76 257.219 323.449 257.25 323.148 257.19C322.847 257.131 322.571 256.983 322.354 256.766C322.138 256.549 321.99 256.273 321.93 255.973C321.87 255.672 321.901 255.36 322.018 255.077C322.136 254.794 322.334 254.552 322.589 254.381C322.844 254.211 323.144 254.12 323.45 254.12C323.654 254.119 323.856 254.158 324.045 254.235C324.234 254.313 324.405 254.427 324.549 254.571C324.694 254.715 324.808 254.887 324.885 255.075C324.963 255.264 325.002 255.466 325 255.67V255.67Z" fill="white" stroke="#263238" stroke-linecap="round" stroke-linejoin="round"/>
<path d="M334.57 263.33C334.572 264.278 334.293 265.206 333.767 265.995C333.242 266.784 332.494 267.4 331.618 267.764C330.742 268.127 329.778 268.223 328.848 268.039C327.918 267.854 327.064 267.398 326.393 266.727C325.723 266.057 325.266 265.202 325.082 264.272C324.897 263.342 324.993 262.378 325.357 261.502C325.721 260.627 326.336 259.879 327.125 259.353C327.915 258.828 328.842 258.548 329.79 258.55C331.058 258.55 332.274 259.054 333.17 259.95C334.067 260.847 334.57 262.062 334.57 263.33V263.33Z" fill="white" stroke="#263238" stroke-linecap="round" stroke-linejoin="round"/>
<path d="M331.33 263.33C331.332 263.637 331.243 263.939 331.073 264.195C330.904 264.451 330.662 264.652 330.378 264.77C330.095 264.889 329.782 264.92 329.481 264.861C329.179 264.801 328.902 264.653 328.684 264.436C328.467 264.219 328.319 263.942 328.26 263.64C328.2 263.338 328.232 263.026 328.35 262.742C328.469 262.459 328.669 262.217 328.926 262.047C329.182 261.878 329.483 261.788 329.79 261.79C330.199 261.79 330.591 261.952 330.879 262.241C331.168 262.53 331.33 262.922 331.33 263.33Z" fill="white" stroke="#263238" stroke-linecap="round" stroke-linejoin="round"/>
<path d="M338.24 256.67C338.24 257.618 337.959 258.544 337.433 259.331C336.907 260.119 336.158 260.733 335.283 261.096C334.408 261.458 333.445 261.553 332.516 261.368C331.586 261.183 330.733 260.727 330.063 260.057C329.393 259.387 328.937 258.534 328.752 257.605C328.567 256.675 328.662 255.712 329.025 254.837C329.387 253.962 330.001 253.214 330.789 252.687C331.577 252.161 332.503 251.88 333.45 251.88C334.079 251.88 334.702 252.004 335.283 252.245C335.864 252.485 336.392 252.838 336.837 253.283C337.282 253.728 337.635 254.256 337.876 254.837C338.116 255.418 338.24 256.041 338.24 256.67V256.67Z" fill="white" stroke="#263238" stroke-linecap="round" stroke-linejoin="round"/>
<path d="M335 256.67C335 256.977 334.909 257.276 334.739 257.531C334.569 257.786 334.327 257.985 334.044 258.102C333.76 258.219 333.449 258.25 333.148 258.19C332.847 258.131 332.571 257.983 332.354 257.766C332.138 257.549 331.99 257.273 331.93 256.973C331.87 256.672 331.901 256.36 332.018 256.077C332.136 255.794 332.334 255.552 332.589 255.381C332.844 255.211 333.144 255.12 333.45 255.12C333.654 255.119 333.856 255.158 334.045 255.235C334.234 255.313 334.405 255.427 334.549 255.571C334.694 255.715 334.808 255.887 334.885 256.075C334.963 256.264 335.002 256.466 335 256.67Z" fill="white" stroke="#263238" stroke-linecap="round" stroke-linejoin="round"/>
<path d="M319 252.67C319 253.618 318.719 254.544 318.193 255.331C317.666 256.119 316.918 256.733 316.043 257.096C315.168 257.458 314.205 257.553 313.275 257.368C312.346 257.183 311.493 256.727 310.823 256.057C310.153 255.387 309.697 254.534 309.512 253.605C309.327 252.675 309.422 251.712 309.785 250.837C310.147 249.962 310.761 249.214 311.549 248.687C312.336 248.161 313.263 247.88 314.21 247.88C314.839 247.879 315.463 248.002 316.045 248.242C316.626 248.482 317.155 248.835 317.6 249.28C318.045 249.725 318.398 250.254 318.638 250.836C318.878 251.417 319.001 252.041 319 252.67V252.67Z" fill="white" stroke="#263238" stroke-linecap="round" stroke-linejoin="round"/>
<path d="M315.76 252.67C315.76 252.977 315.669 253.276 315.499 253.531C315.329 253.786 315.087 253.985 314.803 254.102C314.52 254.219 314.208 254.25 313.908 254.19C313.607 254.131 313.331 253.983 313.114 253.766C312.897 253.549 312.75 253.273 312.69 252.973C312.63 252.672 312.661 252.36 312.778 252.077C312.895 251.794 313.094 251.552 313.349 251.381C313.604 251.211 313.904 251.12 314.21 251.12C314.414 251.119 314.616 251.158 314.805 251.235C314.994 251.313 315.165 251.427 315.309 251.571C315.453 251.715 315.567 251.887 315.645 252.075C315.722 252.264 315.761 252.466 315.76 252.67V252.67Z" fill="white" stroke="#263238" stroke-linecap="round" stroke-linejoin="round"/>
<path d="M218.901 135.38C215.614 137.474 212.872 140.32 210.902 143.683C208.932 147.046 207.79 150.829 207.571 154.72C206.571 168.38 204.651 180.72 196.901 184.05C177.571 192.38 162.901 185.4 159.901 188.38C156.901 191.36 158.571 196.72 158.571 196.72C158.571 196.72 149.241 195.38 146.241 191.05C141.481 184.18 141.241 174.05 152.571 165.72C163.901 157.39 174.901 158.05 174.901 158.05C174.901 158.05 175.571 159.05 181.901 151.72C188.231 144.39 205.901 138.05 209.241 137.05C212.419 136.273 215.646 135.715 218.901 135.38V135.38Z" fill="#263238" stroke="#263238" stroke-linecap="round" stroke-linejoin="round"/>
<path d="M174.9 158.05L233.57 130.05C233.57 130.05 219.9 125.38 217.9 123.38C215.9 121.38 212.57 115.05 211.24 114.72C209.91 114.39 177.24 127.38 175.57 129.38C173.9 131.38 175.9 146.38 176.24 149.72C176.58 153.06 174.9 158.05 174.9 158.05Z" fill="white" stroke="#263238" stroke-linecap="round" stroke-linejoin="round"/>
<path d="M201.87 130.78C203.251 130.181 204.663 129.656 206.1 129.21" stroke="#263238" stroke-linecap="round" stroke-linejoin="round"/>
<path d="M176.521 144.59C176.521 144.59 187.251 137.86 196.821 133.13" stroke="#263238" stroke-linecap="round" stroke-linejoin="round"/>
<path d="M174.9 158.05C174.9 158.05 173.57 152.05 173.57 151.05C173.57 150.05 188.24 144.72 193.57 143.72C198.9 142.72 210.9 140.72 210.9 140.72L174.9 158.05Z" fill="white" stroke="#263238" stroke-linecap="round" stroke-linejoin="round"/>
<path d="M207.9 199.33C207.9 199.33 205.3 193.4 200.57 192.33C190.24 190 186.24 196.67 187.57 206C188.9 215.33 214.24 237 219.57 239C224.9 241 267.57 248.33 267.57 248.33L269.24 250L273.24 252C273.24 252 272.57 256.33 275.24 256C277.91 255.67 285.9 258.33 286.9 255.67C287.9 253.01 287.24 248 284.9 247C282.56 246 265.24 242.33 258.9 239.33C252.56 236.33 224.9 224.33 224.9 224.33L207.9 199.33Z" fill="white" stroke="#263238" stroke-linecap="round" stroke-linejoin="round"/>
<path d="M277.06 250.15L276.86 255.81" stroke="#263238" stroke-linecap="round" stroke-linejoin="round"/>
<path d="M279.49 256.02L280.3 249.34" stroke="#263238" stroke-linecap="round" stroke-linejoin="round"/>
<path d="M283.131 256.42L283.741 249.74" stroke="#263238" stroke-linecap="round" stroke-linejoin="round"/>
<path d="M652 428.67H665" stroke="#263238" stroke-linecap="round" stroke-linejoin="round"/>
<path d="M111 428.67H641" stroke="#263238" stroke-linecap="round" stroke-linejoin="round"/>
<path d="M26 428.67H94" stroke="#263238" stroke-linecap="round" stroke-linejoin="round"/>
</svg>
