<svg width="709" height="446" viewBox="0 0 709 446" fill="none" xmlns="http://www.w3.org/2000/svg">
<path d="M680.75 243C680.75 243 622.31 80.36 476.94 31.27C331.57 -17.82 250.65 -6.32001 185.46 56.58C120.27 119.48 96.9997 217.68 48.3397 269.84C-0.320335 322 -28.0903 394.84 156.24 433.23C340.57 471.62 379.53 405.62 506.91 419.43C634.29 433.24 718.22 384.14 680.75 243Z" fill="#0987FF"/>
<path opacity="0.7" d="M680.75 243C680.75 243 622.31 80.36 476.94 31.27C331.57 -17.82 250.65 -6.32001 185.46 56.58C120.27 119.48 96.9997 217.68 48.3397 269.84C-0.320335 322 -28.0903 394.84 156.24 433.23C340.57 471.62 379.53 405.62 506.91 419.43C634.29 433.24 718.22 384.14 680.75 243Z" fill="white"/>
<path d="M627.1 358.06C628.3 359.06 631.68 359.98 631.69 359.98C631.7 359.98 631.61 357.57 631.59 357.42C631.31 355.65 629.73 352.42 627.75 352.11C627.42 352.069 627.086 352.098 626.768 352.195C626.45 352.292 626.156 352.455 625.905 352.673C625.655 352.89 625.452 353.159 625.312 353.46C625.171 353.761 625.096 354.088 625.09 354.42C625.144 355.135 625.352 355.831 625.698 356.459C626.045 357.087 626.523 357.633 627.1 358.06V358.06Z" fill="#0987FF"/>
<path d="M625.38 368.14C626.968 368.6 628.616 368.819 630.27 368.79C630.252 370.655 630.362 372.52 630.6 374.37C630.73 375.44 630.9 376.53 631.07 377.61C630.92 377.13 630.78 376.7 630.75 376.61C630.01 374.98 627.63 372.28 625.65 372.51C625.317 372.551 624.998 372.662 624.712 372.836C624.426 373.01 624.18 373.243 623.991 373.519C623.802 373.795 623.673 374.108 623.615 374.438C623.556 374.767 623.568 375.105 623.65 375.43C623.883 376.112 624.264 376.735 624.765 377.253C625.266 377.772 625.876 378.174 626.55 378.43C628.087 378.888 629.686 379.108 631.29 379.08C631.37 379.49 631.43 379.91 631.51 380.32C631.87 382.32 632.23 384.32 632.51 386.25C632.62 386.93 632.7 387.62 632.78 388.3C632.64 387.87 632.52 387.51 632.49 387.46C631.76 385.83 629.38 383.13 627.39 383.36C627.057 383.399 626.736 383.509 626.449 383.683C626.162 383.856 625.916 384.089 625.726 384.366C625.537 384.642 625.409 384.956 625.351 385.286C625.293 385.617 625.306 385.955 625.39 386.28C625.621 386.962 626 387.584 626.5 388.102C626.999 388.621 627.607 389.023 628.28 389.28C629.774 389.73 631.329 389.949 632.89 389.93C632.96 390.63 633.02 391.33 633.05 392.01C633.05 392.48 633.1 392.93 633.05 393.4C633 393.87 633.05 394.32 633.05 394.78C633.05 395.65 632.96 396.56 632.9 397.41C632.9 398.01 632.81 398.57 632.76 399.14C632.66 398.45 632.44 397.14 632.41 397C631.93 395.29 629.99 392.25 627.99 392.18C627.658 392.176 627.329 392.241 627.024 392.373C626.719 392.504 626.445 392.698 626.221 392.943C625.996 393.187 625.825 393.476 625.72 393.791C625.615 394.106 625.577 394.44 625.61 394.77C625.742 395.477 626.027 396.147 626.445 396.732C626.863 397.318 627.404 397.805 628.03 398.16C629.517 398.854 631.102 399.316 632.73 399.53C632.64 400.47 632.55 401.39 632.45 402.25C632.39 402.77 632.33 403.27 632.27 403.75H633.49C633.49 403.3 633.59 402.85 633.63 402.38C633.72 401.38 633.8 400.38 633.86 399.38C634.868 399.289 635.87 399.135 636.86 398.92C637.72 400.253 638.76 401.461 639.95 402.51L638.95 403.79H640.41C640.62 403.52 640.83 403.26 641.03 402.98C641.19 403.07 641.86 403.42 642.68 403.79H649.27C649.383 403.7 649.486 403.6 649.58 403.49C649.804 403.246 649.975 402.958 650.081 402.645C650.187 402.331 650.226 401.999 650.196 401.669C650.166 401.339 650.067 401.019 649.906 400.73C649.745 400.441 649.524 400.189 649.26 399.99C647.62 398.84 644.26 400.08 642.81 401.16C642.73 401.22 641.9 402.01 641.38 402.52L642.16 401.52C642.68 400.81 643.16 400.09 643.72 399.32L644.48 398.17C644.74 397.79 644.96 397.35 645.21 396.94C645.76 395.94 646.28 394.94 646.77 393.94C648.052 394.912 649.479 395.674 651 396.2C651.688 396.403 652.413 396.453 653.123 396.346C653.834 396.239 654.512 395.978 655.11 395.58C655.37 395.374 655.583 395.115 655.736 394.821C655.89 394.526 655.979 394.203 655.999 393.872C656.019 393.541 655.968 393.209 655.851 392.898C655.734 392.588 655.553 392.306 655.32 392.07C653.87 390.69 650.32 391.4 648.77 392.25C648.67 392.3 647.62 393.04 647.04 393.46C647.34 392.84 647.63 392.22 647.91 391.59C648.71 389.76 649.45 387.88 650.21 386.01C650.44 385.44 650.68 384.87 650.92 384.3C652.212 385.324 653.651 386.147 655.19 386.74C655.881 386.937 656.607 386.983 657.318 386.875C658.029 386.766 658.709 386.505 659.31 386.11C659.57 385.904 659.783 385.645 659.936 385.351C660.09 385.056 660.179 384.733 660.199 384.402C660.219 384.071 660.168 383.739 660.051 383.428C659.934 383.118 659.753 382.836 659.52 382.6C658.07 381.22 654.52 381.93 652.97 382.78C652.85 382.85 651.33 383.91 650.97 384.2C651.49 382.94 651.97 381.7 652.59 380.49C653.352 378.858 654.221 377.278 655.19 375.76C655.29 375.83 657.99 377.88 659.49 378.21C660.179 378.407 660.903 378.454 661.612 378.347C662.321 378.24 662.999 377.982 663.6 377.59C663.86 377.383 664.074 377.123 664.227 376.828C664.38 376.533 664.47 376.209 664.489 375.877C664.509 375.545 664.459 375.212 664.342 374.901C664.225 374.59 664.043 374.307 663.81 374.07C662.37 372.69 658.81 373.41 657.26 374.26C657.14 374.32 655.51 375.47 655.26 375.69C655.26 375.61 655.36 375.51 655.42 375.42C656.431 373.923 657.576 372.521 658.84 371.23C659.53 370.5 660.22 369.85 660.92 369.23C662.074 370.368 663.396 371.322 664.84 372.06C665.502 372.335 666.217 372.463 666.933 372.433C667.65 372.404 668.352 372.219 668.99 371.89C669.271 371.713 669.511 371.479 669.696 371.203C669.881 370.927 670.005 370.616 670.062 370.288C670.118 369.961 670.106 369.626 670.024 369.304C669.943 368.982 669.795 368.681 669.59 368.42C668.3 366.89 664.72 367.21 663.06 367.89C662.97 367.89 662.06 368.4 661.47 368.75C661.79 368.47 662.11 368.18 662.47 367.92C663.63 366.92 664.75 366.14 665.74 365.42L667.33 364.34C668.874 364.818 670.483 365.054 672.1 365.04C672.814 364.976 673.506 364.758 674.129 364.403C674.752 364.047 675.291 363.562 675.71 362.98C675.876 362.692 675.98 362.373 676.016 362.042C676.051 361.711 676.017 361.377 675.915 361.06C675.813 360.744 675.646 360.452 675.425 360.204C675.204 359.956 674.933 359.757 674.63 359.62C672.79 358.86 669.75 360.8 668.63 362.16C668.53 362.27 667.17 364.29 667.21 364.3C666.73 364.6 666.21 364.93 665.66 365.3C664.66 366 663.5 366.8 662.32 367.74C661.032 368.748 659.806 369.834 658.65 370.99C657.34 372.27 656.149 373.666 655.09 375.16V375.22C655.26 374.66 655.7 373.08 655.72 372.96C656 371.19 655.51 367.62 653.72 366.72C653.419 366.578 653.092 366.501 652.76 366.493C652.428 366.486 652.098 366.548 651.792 366.676C651.485 366.805 651.209 366.996 650.982 367.238C650.754 367.479 650.579 367.766 650.47 368.08C650.293 368.777 650.271 369.505 650.406 370.212C650.54 370.918 650.829 371.587 651.25 372.17C652.32 373.424 653.57 374.513 654.96 375.4C653.922 376.947 652.987 378.561 652.16 380.23C651.68 381.23 651.22 382.23 650.77 383.23C650.91 382.74 651.03 382.3 651.04 382.23C651.32 380.47 650.83 376.9 649.04 375.99C648.74 375.85 648.414 375.774 648.083 375.767C647.752 375.76 647.423 375.823 647.118 375.951C646.813 376.079 646.538 376.27 646.311 376.511C646.084 376.752 645.909 377.038 645.8 377.35C645.627 378.047 645.606 378.773 645.739 379.479C645.872 380.185 646.155 380.853 646.57 381.44C647.6 382.67 648.814 383.732 650.17 384.59L649.66 385.75C648.87 387.61 648.08 389.46 647.25 391.26C646.96 391.89 646.65 392.5 646.34 393.12C646.46 392.68 646.56 392.32 646.57 392.26C646.85 390.5 646.36 386.93 644.57 386.02C644.27 385.88 643.944 385.804 643.613 385.797C643.282 385.79 642.953 385.853 642.648 385.981C642.343 386.109 642.068 386.3 641.841 386.541C641.614 386.782 641.44 387.068 641.33 387.38C641.157 388.077 641.136 388.803 641.269 389.509C641.402 390.215 641.685 390.883 642.1 391.47C643.096 392.672 644.273 393.711 645.59 394.55C645.26 395.17 644.92 395.79 644.59 396.37C644.34 396.77 644.13 397.16 643.85 397.55L643.08 398.69C642.55 399.39 642.02 400.12 641.49 400.8C641.13 401.27 640.78 401.72 640.42 402.17C640.72 401.54 641.28 400.3 641.31 400.17C641.734 398.66 641.765 397.066 641.4 395.54C641.451 395.373 641.487 395.203 641.51 395.03C641.565 394.703 641.551 394.367 641.467 394.046C641.384 393.725 641.233 393.425 641.025 393.166C640.817 392.907 640.557 392.695 640.261 392.544C639.966 392.393 639.641 392.306 639.31 392.29C637.31 392.23 635.18 395.14 634.58 396.82C634.58 396.92 634.29 398.04 634.14 398.75C634.14 398.32 634.19 397.9 634.21 397.46C634.21 396.58 634.28 395.7 634.31 394.76C634.31 394.3 634.31 393.84 634.31 393.38C634.31 392.92 634.31 392.43 634.25 391.95C634.18 390.84 634.05 389.72 633.9 388.6C635.488 388.731 637.086 388.616 638.64 388.26C639.325 388.044 639.956 387.683 640.489 387.202C641.022 386.72 641.445 386.13 641.73 385.47C641.832 385.154 641.867 384.82 641.833 384.49C641.798 384.16 641.694 383.841 641.528 383.553C641.362 383.266 641.138 383.016 640.869 382.821C640.601 382.626 640.294 382.489 639.97 382.42C637.97 382.07 635.45 384.61 634.61 386.19C634.56 386.29 634.08 387.48 633.83 388.14C633.74 387.47 633.64 386.79 633.52 386.14C633.18 384.14 632.77 382.2 632.37 380.22C632.24 379.61 632.13 379.01 632.01 378.4C633.654 378.539 635.309 378.428 636.92 378.07C637.607 377.861 638.239 377.503 638.773 377.023C639.307 376.543 639.729 375.951 640.01 375.29C640.104 374.977 640.132 374.647 640.093 374.322C640.054 373.997 639.948 373.684 639.781 373.402C639.615 373.121 639.392 372.876 639.127 372.685C638.862 372.493 638.559 372.359 638.24 372.29C636.24 371.93 633.73 374.48 632.89 376.05C632.82 376.17 632.14 377.9 631.99 378.34C631.73 377.01 631.48 375.68 631.3 374.34C631.034 372.558 630.883 370.761 630.85 368.96C630.98 368.96 634.36 369.18 635.79 368.63C636.477 368.418 637.11 368.059 637.644 367.577C638.177 367.095 638.599 366.502 638.88 365.84C638.982 365.523 639.017 365.189 638.982 364.858C638.946 364.528 638.842 364.208 638.675 363.92C638.508 363.633 638.282 363.383 638.013 363.189C637.743 362.994 637.435 362.858 637.11 362.79C635.11 362.44 632.6 364.99 631.76 366.56C631.69 366.68 630.96 368.56 630.85 368.88C630.85 368.78 630.85 368.67 630.85 368.57C630.871 366.761 631.052 364.957 631.39 363.18C631.57 362.18 631.79 361.27 632.02 360.37C633.614 360.68 635.246 360.744 636.86 360.56C637.565 360.427 638.233 360.14 638.815 359.72C639.397 359.3 639.88 358.757 640.23 358.13C640.365 357.827 640.436 357.499 640.437 357.168C640.438 356.836 640.369 356.508 640.235 356.204C640.102 355.901 639.906 355.629 639.66 355.406C639.414 355.183 639.125 355.014 638.81 354.91C636.9 354.34 634.08 356.59 633.07 358.06C633.07 358.14 632.55 359.06 632.22 359.66C632.33 359.26 632.44 358.84 632.56 358.45C632.99 357 633.47 355.7 633.91 354.56C634.16 353.91 634.41 353.32 634.64 352.78C636.189 352.322 637.659 351.631 639 350.73C639.559 350.282 640.016 349.718 640.338 349.078C640.661 348.438 640.842 347.736 640.87 347.02C640.853 346.688 640.766 346.364 640.616 346.068C640.465 345.773 640.253 345.512 639.994 345.304C639.735 345.097 639.435 344.946 639.114 344.862C638.792 344.779 638.457 344.764 638.13 344.82C636.13 345.19 634.7 348.49 634.49 350.26C634.49 350.41 634.49 352.84 634.49 352.83C634.26 353.34 634.01 353.9 633.76 354.52C633.29 355.66 632.76 356.95 632.32 358.4C631.799 359.95 631.371 361.529 631.04 363.13C630.66 364.92 630.439 366.741 630.38 368.57V368.64C630.22 368.07 629.72 366.51 629.66 366.4C628.93 364.77 626.55 362.07 624.56 362.3C624.227 362.339 623.906 362.449 623.619 362.623C623.332 362.796 623.086 363.029 622.897 363.306C622.707 363.582 622.579 363.896 622.521 364.226C622.463 364.557 622.476 364.895 622.56 365.22C622.794 365.88 623.167 366.482 623.653 366.986C624.139 367.489 624.728 367.883 625.38 368.14V368.14Z" fill="#0987FF"/>
<path d="M660.9 368.85C660.9 368.85 662.18 366.79 662.24 366.65C662.98 365.03 663.44 361.45 661.97 360.11C661.718 359.893 661.423 359.732 661.105 359.637C660.786 359.542 660.451 359.515 660.122 359.559C659.792 359.602 659.476 359.715 659.193 359.889C658.91 360.063 658.667 360.295 658.48 360.57C658.124 361.193 657.909 361.887 657.85 362.602C657.792 363.317 657.89 364.037 658.14 364.71C658.58 366.21 660.9 368.85 660.9 368.85Z" fill="#0987FF"/>
<path d="M673.4 395C673.4 395 668.4 394.38 660.51 402.18C660.51 402.17 668.34 403.61 673.4 395Z" fill="#0987FF"/>
<path d="M676 389.17C676 389.17 671 388.55 663.1 396.36C663.14 396.36 671 397.79 676 389.17Z" fill="#0987FF"/>
<path d="M675.409 380.5C675.409 380.5 670.409 381.24 664.909 390.87C664.909 390.87 672.839 390.16 675.409 380.5Z" fill="#0987FF"/>
<path d="M656.64 379.49C656.64 379.49 656.18 384.49 664.25 392.14C664.25 392.14 665.43 384.26 656.64 379.49Z" fill="#0987FF"/>
<path d="M660.94 403.74C661.02 403.13 661.75 395.74 653.33 391.13C653.38 391.13 652.93 396.16 660.94 403.74Z" fill="#0987FF"/>
<path d="M655.409 386.32C655.409 386.32 654.949 391.32 663.009 398.97C662.999 399 664.189 391.09 655.409 386.32Z" fill="#0987FF"/>
<path d="M32.5192 373.77C33.4514 374.338 34.4623 374.766 35.5192 375.04C35.5192 375.04 35.5192 373.45 35.4592 373.35C35.2792 372.2 34.2392 370.07 32.9392 369.87C32.7236 369.843 32.5049 369.862 32.2971 369.926C32.0893 369.989 31.8971 370.095 31.7331 370.238C31.569 370.38 31.4367 370.555 31.3447 370.752C31.2528 370.949 31.2032 371.163 31.1992 371.38C31.2307 371.851 31.3653 372.309 31.5934 372.722C31.8215 373.135 32.1375 373.493 32.5192 373.77V373.77Z" fill="#0987FF"/>
<path d="M31.3897 380.39C32.4294 380.689 33.508 380.83 34.5897 380.81C34.5844 382.033 34.6579 383.256 34.8097 384.47C34.8997 385.18 35.0097 385.89 35.1197 386.6C35.0197 386.28 34.9297 386 34.9097 385.96C34.4297 384.9 32.9097 383.12 31.5597 383.27C31.3442 383.301 31.1377 383.377 30.9536 383.493C30.7695 383.61 30.6119 383.763 30.4912 383.944C30.3704 384.125 30.2892 384.33 30.2527 384.545C30.2163 384.759 30.2255 384.979 30.2797 385.19C30.4321 385.641 30.6811 386.054 31.0092 386.399C31.3373 386.745 31.7367 387.015 32.1797 387.19C33.1894 387.485 34.2378 387.627 35.2897 387.61C35.3397 387.88 35.3797 388.15 35.4297 388.42C35.6697 389.73 35.9097 391.03 36.0997 392.31C36.1663 392.763 36.2263 393.213 36.2797 393.66C36.1897 393.38 36.1097 393.14 36.0897 393.11C35.6097 392.04 34.0897 390.26 32.7497 390.41C32.534 390.441 32.3273 390.517 32.1428 390.633C31.9584 390.75 31.8003 390.903 31.6788 391.084C31.5572 391.265 31.4749 391.469 31.4372 391.684C31.3995 391.898 31.4071 392.118 31.4597 392.33C31.6109 392.782 31.8594 393.195 32.1877 393.541C32.516 393.886 32.916 394.156 33.3597 394.33C34.3329 394.62 35.3442 394.761 36.3597 394.75C36.3597 395.21 36.4397 395.67 36.4597 396.12C36.4797 396.57 36.4597 396.72 36.4597 397.03C36.4597 397.34 36.4597 397.63 36.4597 397.93C36.4597 398.51 36.3997 399.1 36.3597 399.66L36.2697 400.8C36.1997 400.35 36.0597 399.47 36.0397 399.39C35.7197 398.27 34.4497 396.28 33.1397 396.23C32.9216 396.226 32.7051 396.268 32.5046 396.354C32.3041 396.44 32.1241 396.568 31.9766 396.729C31.8291 396.889 31.7175 397.079 31.649 397.287C31.5806 397.494 31.557 397.713 31.5797 397.93C31.666 398.393 31.8521 398.831 32.1249 399.214C32.3978 399.598 32.7509 399.917 33.1597 400.15C34.135 400.604 35.1735 400.907 36.2397 401.05C36.1897 401.67 36.1297 402.27 36.0597 402.84C36.0597 403.18 35.9897 403.5 35.9497 403.84H36.7497L36.8397 402.94C36.8997 402.31 36.9497 401.64 36.9897 400.94C37.6611 400.875 38.3287 400.775 38.9897 400.64C39.5441 401.512 40.2172 402.303 40.9897 402.99L40.3097 403.83H41.3097L41.7197 403.3C41.8197 403.35 42.2597 403.59 42.7997 403.83H47.1197L47.3297 403.63C47.4776 403.47 47.5901 403.28 47.6597 403.074C47.7294 402.867 47.7547 402.648 47.7339 402.431C47.7132 402.214 47.6468 402.003 47.5392 401.814C47.4317 401.624 47.2853 401.459 47.1097 401.33C46.0397 400.58 43.8197 401.4 42.8897 402.1C42.8297 402.15 42.2797 402.66 41.9497 403C42.1097 402.77 42.2797 402.55 42.4497 402.32C42.7997 401.86 43.1297 401.39 43.4497 400.88L43.9997 400C44.1697 399.75 44.3197 399.47 44.4797 399.2C44.8397 398.56 45.1797 397.91 45.4797 397.2C46.3023 397.849 47.2196 398.369 48.1997 398.74C48.6527 398.87 49.1284 398.9 49.5944 398.829C50.0603 398.759 50.5055 398.588 50.8997 398.33C51.07 398.194 51.2098 398.023 51.3102 397.83C51.4106 397.636 51.4693 397.424 51.4825 397.206C51.4956 396.988 51.463 396.77 51.3868 396.566C51.3105 396.362 51.1923 396.176 51.0397 396.02C50.0397 395.12 47.7697 395.59 46.7397 396.14C46.6797 396.14 45.9797 396.66 45.6097 396.93L46.1797 395.71C46.6997 394.51 47.1797 393.28 47.6897 392.05C47.8397 391.67 47.9897 391.3 48.1497 390.93C48.998 391.6 49.9418 392.139 50.9497 392.53C51.4027 392.66 51.8784 392.69 52.3444 392.619C52.8103 392.549 53.2555 392.378 53.6497 392.12C53.82 391.984 53.9598 391.813 54.0602 391.62C54.1606 391.426 54.2193 391.214 54.2325 390.996C54.2456 390.778 54.213 390.56 54.1368 390.356C54.0605 390.152 53.9423 389.966 53.7897 389.81C52.7897 388.91 50.5297 389.38 49.4997 389.93C49.4197 389.93 48.4197 390.67 48.1797 390.86C48.5197 390.04 48.8597 389.22 49.2397 388.43C49.7381 387.357 50.306 386.319 50.9397 385.32C51.7885 386.021 52.7395 386.587 53.7597 387C54.2108 387.132 54.6854 387.164 55.1501 387.093C55.6148 387.022 56.0584 386.851 56.4497 386.59C56.6197 386.455 56.7594 386.285 56.8597 386.092C56.96 385.9 57.0186 385.688 57.0318 385.471C57.045 385.254 57.0125 385.037 56.9363 384.834C56.8601 384.63 56.742 384.445 56.5897 384.29C55.5897 383.38 53.3297 383.85 52.2997 384.41C52.2197 384.41 51.1397 385.2 50.9597 385.35L51.0697 385.17C51.7328 384.188 52.4824 383.268 53.3097 382.42C53.7597 381.95 54.2197 381.52 54.6697 381.11C55.4307 381.865 56.3003 382.502 57.2497 383C57.6837 383.181 58.152 383.265 58.6218 383.246C59.0916 383.227 59.5516 383.105 59.9697 382.89C60.1548 382.774 60.3134 382.62 60.435 382.439C60.5566 382.258 60.6385 382.053 60.6753 381.837C60.7121 381.622 60.7031 381.401 60.6487 381.19C60.5943 380.978 60.4958 380.781 60.3597 380.61C59.5197 379.61 57.1597 379.82 56.0797 380.26C56.0197 380.26 55.4497 380.59 55.0797 380.83C55.2766 380.639 55.4835 380.459 55.6997 380.29C56.4597 379.65 57.1897 379.11 57.8497 378.64L58.8497 377.93C59.8588 378.247 60.9119 378.403 61.9697 378.39C62.4424 378.346 62.8997 378.199 63.3093 377.959C63.7188 377.718 64.0706 377.391 64.3397 377C64.4502 376.812 64.5199 376.603 64.5442 376.387C64.5686 376.17 64.547 375.951 64.481 375.744C64.4149 375.536 64.3059 375.345 64.1609 375.182C64.0159 375.02 63.8383 374.889 63.6397 374.8C62.4297 374.3 60.4397 375.57 59.6397 376.46C59.5697 376.54 58.6397 377.86 58.7097 377.87L57.7097 378.53C57.0397 378.99 56.2897 379.53 55.5197 380.13C54.6742 380.791 53.8695 381.502 53.1097 382.26C52.2686 383.103 51.5055 384.02 50.8297 385V385C50.9497 384.63 51.2397 383.59 51.2497 383.51C51.4297 382.36 51.1097 380.01 49.9397 379.42C49.743 379.326 49.5288 379.275 49.3111 379.27C49.0933 379.265 48.8769 379.305 48.6759 379.389C48.475 379.473 48.2939 379.599 48.1447 379.757C47.9954 379.916 47.8813 380.104 47.8097 380.31C47.6954 380.767 47.6818 381.243 47.7698 381.706C47.8579 382.169 48.0455 382.607 48.3197 382.99C49.0242 383.816 49.8463 384.533 50.7597 385.12C50.0755 386.134 49.4607 387.193 48.9197 388.29C48.5997 388.92 48.2997 389.57 48.0097 390.23C48.0997 389.91 48.1797 389.62 48.1797 389.58C48.3697 388.43 48.0397 386.09 46.8697 385.49C46.6737 385.396 46.4602 385.345 46.2431 385.34C46.0261 385.335 45.8104 385.376 45.6102 385.46C45.41 385.544 45.2298 385.669 45.0815 385.828C44.9332 385.986 44.8201 386.175 44.7497 386.38C44.6317 386.838 44.6154 387.316 44.7018 387.78C44.7882 388.245 44.9752 388.685 45.2497 389.07C45.9271 389.873 46.7229 390.567 47.6097 391.13L47.2797 391.89C46.7597 393.11 46.2797 394.33 45.6997 395.5C45.5097 395.92 45.2997 396.32 45.0997 396.72C45.1797 396.44 45.2397 396.2 45.2497 396.16C45.4297 395.01 45.1097 392.66 43.9397 392.07C43.743 391.976 43.5288 391.925 43.3111 391.92C43.0933 391.915 42.8769 391.955 42.6759 392.039C42.475 392.123 42.2939 392.249 42.1447 392.407C41.9954 392.566 41.8813 392.754 41.8097 392.96C41.6954 393.417 41.6818 393.893 41.7698 394.356C41.8579 394.819 42.0455 395.257 42.3197 395.64C42.9766 396.42 43.7488 397.094 44.6097 397.64C44.3897 398.05 44.1697 398.46 43.9397 398.84C43.7097 399.22 43.6397 399.36 43.4597 399.61C43.2797 399.86 43.1097 400.11 42.9497 400.36C42.5997 400.82 42.2497 401.3 41.9497 401.74C41.6497 402.18 41.4797 402.35 41.2497 402.64C41.4397 402.23 41.8097 401.42 41.8297 401.35C42.0837 400.366 42.0837 399.334 41.8297 398.35C41.8715 398.241 41.8984 398.126 41.9097 398.01C41.9451 397.795 41.9348 397.574 41.8792 397.363C41.8237 397.152 41.7242 396.956 41.5874 396.786C41.4505 396.616 41.2793 396.477 41.085 396.377C40.8906 396.278 40.6776 396.221 40.4597 396.21C39.1497 396.21 37.7497 398.08 37.3697 399.21C37.3697 399.27 37.1697 400.01 37.0697 400.47C37.0697 400.19 37.0697 399.91 37.1197 399.62C37.1197 399.05 37.1197 398.47 37.1897 397.86C37.1897 397.56 37.1897 397.25 37.1897 396.95C37.1897 396.65 37.1897 396.33 37.1897 396.01C37.1897 395.29 37.0597 394.55 36.9597 393.81C38.0014 393.901 39.0511 393.827 40.0697 393.59C40.5154 393.447 40.925 393.21 41.2703 392.894C41.6155 392.578 41.8882 392.191 42.0697 391.76C42.1359 391.553 42.158 391.333 42.1344 391.117C42.1109 390.9 42.0423 390.691 41.933 390.503C41.8237 390.314 41.6762 390.151 41.5 390.023C41.3237 389.895 41.1226 389.806 40.9097 389.76C39.6197 389.53 37.9097 391.2 37.3997 392.23C37.3997 392.3 37.0497 393.08 36.8897 393.52C36.8197 393.07 36.7597 392.63 36.6797 392.18C36.4597 390.89 36.1897 389.59 35.9297 388.3C35.8397 387.9 35.7697 387.5 35.6897 387.11C36.768 387.196 37.8531 387.122 38.9097 386.89C39.3554 386.748 39.765 386.51 40.1103 386.194C40.4555 385.878 40.7282 385.491 40.9097 385.06C40.9759 384.853 40.998 384.633 40.9744 384.417C40.9509 384.2 40.8823 383.991 40.773 383.803C40.6637 383.614 40.5162 383.451 40.34 383.323C40.1637 383.195 39.9626 383.106 39.7497 383.06C38.4597 382.83 36.7497 384.5 36.2397 385.53C36.2397 385.61 35.7497 386.74 35.6497 387.03C35.4797 386.16 35.3197 385.29 35.1897 384.42C35.0202 383.25 34.9234 382.072 34.8997 380.89C35.9845 380.984 37.0775 380.91 38.1397 380.67C38.5854 380.528 38.995 380.29 39.3403 379.974C39.6855 379.658 39.9582 379.271 40.1397 378.84C40.2075 378.633 40.2308 378.413 40.208 378.196C40.1852 377.979 40.1168 377.769 40.0073 377.58C39.8978 377.392 39.7496 377.228 39.5725 377.1C39.3955 376.973 39.1934 376.884 38.9797 376.84C37.6897 376.6 35.9797 378.27 35.4697 379.31C35.4197 379.39 34.9397 380.6 34.8697 380.83C34.8697 380.76 34.8697 380.69 34.8697 380.62C34.8811 379.435 34.9982 378.254 35.2197 377.09C35.3397 376.44 35.4797 375.83 35.6397 375.24C36.683 375.449 37.7527 375.493 38.8097 375.37C39.2666 375.279 39.6987 375.091 40.0765 374.818C40.4544 374.546 40.7692 374.195 40.9997 373.79C41.0891 373.592 41.1357 373.377 41.1367 373.159C41.1376 372.942 41.0927 372.727 41.005 372.528C40.9173 372.329 40.7887 372.15 40.6275 372.004C40.4664 371.858 40.2763 371.748 40.0697 371.68C38.8097 371.3 36.9697 372.78 36.3097 373.74C36.3097 373.8 35.9597 374.37 35.7497 374.79C35.8197 374.53 35.8897 374.25 35.9697 374C36.2497 373.05 36.5697 372.2 36.8497 371.44C37.0197 371.02 37.1797 370.63 37.3297 370.28C38.3448 369.979 39.309 369.528 40.1897 368.94C40.559 368.647 40.8603 368.276 41.0726 367.855C41.285 367.434 41.4034 366.971 41.4197 366.5C41.407 366.283 41.3489 366.07 41.2492 365.877C41.1496 365.683 41.0105 365.513 40.8409 365.376C40.6714 365.24 40.4752 365.14 40.2648 365.084C40.0545 365.028 39.8347 365.016 39.6197 365.05C38.3297 365.3 37.3697 367.46 37.2297 368.62C37.2297 368.72 37.2297 370.32 37.2297 370.31C37.0697 370.65 36.9097 371.02 36.7397 371.42C36.4397 372.17 36.0997 373.02 35.7997 373.96C35.4611 374.98 35.1807 376.018 34.9597 377.07C34.7152 378.246 34.5713 379.44 34.5297 380.64V380.64C34.4197 380.27 34.0897 379.25 34.0597 379.18C33.5797 378.11 32.0597 376.33 30.7097 376.48C30.4942 376.511 30.2877 376.587 30.1036 376.703C29.9195 376.82 29.7619 376.973 29.6412 377.154C29.5204 377.335 29.4392 377.54 29.4027 377.755C29.3663 377.969 29.3755 378.189 29.4297 378.4C29.5885 378.856 29.8468 379.271 30.1857 379.616C30.5247 379.96 30.9359 380.224 31.3897 380.39V380.39Z" fill="#0987FF"/>
<path d="M54.6896 380.85C54.6896 380.85 55.5296 379.5 55.5696 379.41C56.0496 378.34 56.3596 376 55.3896 375.12C55.2244 374.978 55.031 374.872 54.8222 374.81C54.6133 374.748 54.3937 374.73 54.1776 374.758C53.9615 374.787 53.7538 374.86 53.568 374.974C53.3823 375.088 53.2227 375.24 53.0996 375.42C52.8667 375.83 52.7263 376.286 52.6882 376.756C52.6502 377.225 52.7156 377.698 52.8796 378.14C53.347 379.127 53.9568 380.04 54.6896 380.85V380.85Z" fill="#0987FF"/>
<path d="M62.8897 398C62.8897 398 59.5897 397.59 54.4297 402.71C54.4297 402.71 59.5697 403.66 62.8897 398Z" fill="#0987FF"/>
<path d="M64.6192 394.18C64.6192 394.18 61.3192 393.77 56.1592 398.9C56.1592 398.9 61.2992 399.84 64.6192 394.18Z" fill="#0987FF"/>
<path d="M64.2093 388.5C64.2093 388.5 60.9193 388.98 57.3193 395.3C57.3193 395.3 62.5193 394.83 64.2093 388.5Z" fill="#0987FF"/>
<path d="M51.8898 387.83C51.8898 387.83 51.5898 391.14 56.8898 396.13C56.8798 396.13 57.6598 391 51.8898 387.83Z" fill="#0987FF"/>
<path d="M54.71 403.74C54.71 403.34 55.24 398.47 49.71 395.47C49.75 395.47 49.46 398.76 54.71 403.74Z" fill="#0987FF"/>
<path d="M51.09 392.31C51.09 392.31 50.79 395.62 56.09 400.61C56.07 400.61 56.85 395.44 51.09 392.31Z" fill="#0987FF"/>
<path d="M353.17 42.7C352.43 40.87 352.17 38.57 351.54 36.91C350.362 33.743 348.924 30.6792 347.24 27.75C340.76 16.47 330 6.12998 316.47 4.99998C289.84 2.63998 285.21 22.32 282.89 31C280.57 39.68 274.79 26.37 264.94 28.68C255.09 30.99 256.84 45.47 251.05 49.52C245.26 53.57 234.84 42.58 229.05 46.63C223.26 50.68 224.99 57.63 222.05 58.79C219.11 59.95 216.84 51.26 211.05 55.89C209.331 57.3102 207.928 59.074 206.931 61.0682C205.934 63.0624 205.365 65.2429 205.26 67.47H393.39C393.39 67.47 402.74 47.79 385.39 43.16C379.39 41.55 373.17 42.16 367.19 43.61C363.52 44.51 357.61 47.97 354.35 44.61C353.838 44.0547 353.437 43.4063 353.17 42.7V42.7Z" stroke="#263238" stroke-miterlimit="10"/>
<path d="M546.52 100C546.08 98.91 545.92 97.55 545.52 96.57C544.817 94.6944 543.965 92.8786 542.97 91.14C539.13 84.46 532.77 78.34 524.75 77.65C509 76.24 506.28 87.9 504.91 93C503.54 98.1 500.11 90.26 494.28 91.63C488.45 93 489.48 101.57 486.05 103.97C482.62 106.37 476.45 99.86 473.05 102.26C469.65 104.66 470.65 108.77 468.93 109.46C467.21 110.15 465.85 105 462.42 107.74C461.403 108.582 460.572 109.627 459.981 110.808C459.391 111.989 459.053 113.281 458.99 114.6H570.33C570.33 114.6 575.87 102.94 565.58 100.2C562.025 99.3841 558.321 99.4769 554.81 100.47C552.63 101 549.13 103.05 547.2 101.04C546.913 100.737 546.682 100.385 546.52 100V100Z" stroke="#263238" stroke-miterlimit="10"/>
<path d="M130.54 120.46C130.18 119.57 130.05 118.46 129.75 117.67C129.183 116.137 128.487 114.655 127.67 113.24C124.55 107.79 119.35 102.8 112.81 102.24C99.9499 101.12 97.7099 110.63 96.5899 114.82C95.4699 119.01 92.6799 112.59 87.9299 113.7C83.1799 114.81 84.0099 121.81 81.2199 123.77C78.4299 125.73 73.3899 120.41 70.5899 122.37C67.7899 124.33 68.5899 127.69 67.2299 128.24C65.8699 128.79 64.7199 124.61 61.9199 126.85C61.0919 127.537 60.4162 128.388 59.9358 129.351C59.4554 130.313 59.181 131.365 59.1299 132.44H150C150 132.44 154.52 122.93 146.13 120.69C143.227 120.026 140.204 120.105 137.34 120.92C135.56 121.35 132.71 123.02 131.13 121.38C130.879 121.112 130.679 120.8 130.54 120.46V120.46Z" stroke="#263238" stroke-miterlimit="10"/>
<path d="M618.78 198.65C618.78 198.65 649.28 183.4 674.06 207.23C674.39 207.55 674.72 207.84 675.06 208.15C685.425 200.067 693.811 189.729 699.583 177.921C705.355 166.112 708.36 153.144 708.37 140C708.37 91.84 668.69 52.8 619.74 52.8C570.79 52.8 531.11 91.8 531.11 140C531.127 153.178 534.154 166.177 539.96 178.007C545.766 189.837 554.197 200.185 564.61 208.26C570.16 204.21 596 186.82 618.78 198.65Z" fill="#0987FF"/>
<path opacity="0.4" d="M618.78 198.65C618.78 198.65 649.28 183.4 674.06 207.23C674.39 207.55 674.72 207.84 675.06 208.15C685.425 200.067 693.811 189.729 699.583 177.921C705.355 166.112 708.36 153.144 708.37 140C708.37 91.84 668.69 52.8 619.74 52.8C570.79 52.8 531.11 91.8 531.11 140C531.127 153.178 534.154 166.177 539.96 178.007C545.766 189.837 554.197 200.185 564.61 208.26C570.16 204.21 596 186.82 618.78 198.65Z" fill="white"/>
<path d="M588.17 180.03L617.29 189.79L615.88 403.64H623.12L621.53 176.29L644.07 163.77L676.36 167.41L647.44 161.89L682.94 142.17L661.18 152.81L664.45 142.49L679.1 130.92L665.39 139.53L669.5 126.53L659.89 149.68L651.83 139.94L656.33 124.88L650.44 138.26L640.96 126.81L658.71 152.51L657.93 154.4L621.43 172.25L620.55 137.78L631.44 125.2L663.46 116.93L650.46 119.17L656.6 112.26L648 119.6L634.24 121.97L650.01 103.76L637.5 115.82L638.49 100.46L635.53 117.71L620.4 132.29L619.74 106.21L619.28 121.86L613.83 112.61L615.9 101.41L627.51 90.31L616.5 98.18L619.83 80.16L612.07 109.61L604.74 97.17L609.74 107.17L597.06 103.21L611.15 109.99L619.16 126L618.41 151.38L601.58 138.4L597.39 128L599.25 112.54L595.96 124.34L596.2 125.06L588.83 106.77L599.2 136.56L583.34 124.34L603.34 142.39L573.19 140.52L589.7 142.88L569.35 148.48L593.85 143.48L606.54 145.29L618.28 155.89L617.43 184.81L597.67 180.4L578.95 157.26L588.88 171.27L565.78 165.49L591.55 175.03L594.93 179.79L572.64 174.82L584.35 178.75L561.11 184.15L588.17 180.03Z" fill="#919191"/>
<path d="M61.7504 260.1C61.7504 260.1 83.1103 249.42 100.46 266.1L101.16 266.75C108.413 261.093 114.282 253.858 118.322 245.595C122.363 237.332 124.469 228.258 124.48 219.06C124.48 185.33 96.7003 158 62.4203 158C28.1404 158 0.360352 185.33 0.360352 219.06C0.371856 228.287 2.49145 237.389 6.55731 245.671C10.6232 253.954 16.5278 261.198 23.8204 266.85C27.7004 264 45.7704 251.81 61.7504 260.1Z" fill="#0987FF"/>
<path opacity="0.2" d="M61.7504 260.1C61.7504 260.1 83.1103 249.42 100.46 266.1L101.16 266.75C108.413 261.093 114.282 253.858 118.322 245.595C122.363 237.332 124.469 228.258 124.48 219.06C124.48 185.33 96.7003 158 62.4203 158C28.1404 158 0.360352 185.33 0.360352 219.06C0.371856 228.287 2.49145 237.389 6.55731 245.671C10.6232 253.954 16.5278 261.198 23.8204 266.85C27.7004 264 45.7704 251.81 61.7504 260.1Z" fill="white"/>
<path d="M40.3101 247.06L60.7101 253.89L59.7201 403.64H64.7901L63.6801 244.44L79.4601 235.67L102.07 238.22L81.8201 234.36L106.68 220.55L91.4401 228L93.7301 220.77L103.99 212.67L94.3901 218.69L97.2701 209.59L90.5401 225.8L84.9001 218.99L88.0401 208.44L83.9201 217.81L77.2801 209.79L89.7201 227.79L89.1601 229.11L63.6101 241.61L62.9901 217.47L70.6201 208.66L93.0401 202.87L83.9301 204.44L88.2301 199.6L82.2101 204.74L72.5701 206.41L83.6201 193.65L74.8601 202.09L75.5501 191.34L73.4801 203.42L62.8901 213.63L62.4201 195.37L62.1001 206.32L58.2901 199.85L59.7401 192L67.8701 184.23L60.1601 189.74L62.4901 177.12L57.0501 197.75L51.9201 189.04L55.4201 196.04L46.5401 193.26L56.4101 198.02L62.0201 209.23L61.5001 226.99L49.7101 217.91L46.7701 210.62L48.0801 199.8L45.7701 208.06L45.9401 208.57L40.7801 195.76L48.0401 216.62L36.9301 208.06L50.9401 220.7L29.8301 219.4L41.3901 221.05L27.1301 224.97L44.2901 221.46L53.1801 222.73L61.4001 230.15L60.8101 250.4L46.9701 247.32L33.8601 231.12L40.8201 240.92L24.6401 236.88L42.6901 243.56L45.0501 246.89L29.4401 243.41L37.6401 246.16L21.3701 249.94L40.3101 247.06Z" fill="#919191"/>
<path d="M503.999 403.63H604.439V200.71H503.999V403.63Z" fill="white" stroke="#263238" stroke-linecap="round" stroke-linejoin="round"/>
<path d="M503.999 236.09H604.439V200.71H503.999V236.09Z" fill="#263238" stroke="#263238" stroke-linecap="round" stroke-linejoin="round"/>
<path d="M503.999 403.64H604.439V320.86H503.999V403.64Z" fill="#9C9C9C" stroke="#263238" stroke-linecap="round" stroke-linejoin="round"/>
<path d="M504 200.96H147.6V403.88H504V200.96Z" fill="white" stroke="#263238" stroke-linecap="round" stroke-linejoin="round"/>
<path d="M504 200.96H147.6V235.9H504V200.96Z" fill="#263238" stroke="#263238" stroke-linecap="round" stroke-linejoin="round"/>
<path d="M504 321.09H147.6V403.88H504V321.09Z" fill="#D1D1D1" stroke="#263238" stroke-linecap="round" stroke-linejoin="round"/>
<path d="M459.23 331.12H445.35V335.32H459.23V331.12Z" fill="#9C9C9C"/>
<path d="M475.63 331.12H461.75V335.32H475.63V331.12Z" fill="#9C9C9C"/>
<path d="M498.34 331.12H484.46V335.32H498.34V331.12Z" fill="#9C9C9C"/>
<path d="M467.43 337.01H453.55V341.21H467.43V337.01Z" fill="#9C9C9C"/>
<path d="M481.1 348.78H467.22V352.98H481.1V348.78Z" fill="#9C9C9C"/>
<path d="M464.489 390.83H450.609V395.03H464.489V390.83Z" fill="#9C9C9C"/>
<path d="M406.249 391.25H392.369V395.45H406.249V391.25Z" fill="#9C9C9C"/>
<path d="M474.159 369.81H460.279V374.01H474.159V369.81Z" fill="#9C9C9C"/>
<path d="M490.56 369.81H476.68V374.01H490.56V369.81Z" fill="#9C9C9C"/>
<path d="M482.359 375.7H468.479V379.9H482.359V375.7Z" fill="#9C9C9C"/>
<path d="M439.26 369.81H425.38V374.01H439.26V369.81Z" fill="#9C9C9C"/>
<path d="M455.659 369.81H441.779V374.01H455.659V369.81Z" fill="#9C9C9C"/>
<path d="M447.459 375.7H433.579V379.9H447.459V375.7Z" fill="#9C9C9C"/>
<path d="M474.159 357.19H460.279V361.39H474.159V357.19Z" fill="#9C9C9C"/>
<path d="M490.56 357.19H476.68V361.39H490.56V357.19Z" fill="#9C9C9C"/>
<path d="M482.359 363.08H468.479V367.28H482.359V363.08Z" fill="#9C9C9C"/>
<path d="M549.19 331.12H535.31V335.32H549.19V331.12Z" fill="#7A7A7A"/>
<path d="M565.59 331.12H551.71V335.32H565.59V331.12Z" fill="#7A7A7A"/>
<path d="M588.3 331.12H574.42V335.32H588.3V331.12Z" fill="#7A7A7A"/>
<path d="M557.39 337.01H543.51V341.21H557.39V337.01Z" fill="#7A7A7A"/>
<path d="M571.06 348.78H557.18V352.98H571.06V348.78Z" fill="#7A7A7A"/>
<path d="M554.449 390.83H540.569V395.03H554.449V390.83Z" fill="#7A7A7A"/>
<path d="M589.14 391.25H575.26V395.45H589.14V391.25Z" fill="#7A7A7A"/>
<path d="M564.119 369.81H550.239V374.01H564.119V369.81Z" fill="#7A7A7A"/>
<path d="M580.52 369.81H566.64V374.01H580.52V369.81Z" fill="#7A7A7A"/>
<path d="M572.319 375.7H558.439V379.9H572.319V375.7Z" fill="#7A7A7A"/>
<path d="M529.22 369.81H515.34V374.01H529.22V369.81Z" fill="#7A7A7A"/>
<path d="M545.619 369.81H531.739V374.01H545.619V369.81Z" fill="#7A7A7A"/>
<path d="M537.419 375.7H523.539V379.9H537.419V375.7Z" fill="#7A7A7A"/>
<path d="M564.119 357.19H550.239V361.39H564.119V357.19Z" fill="#7A7A7A"/>
<path d="M580.52 357.19H566.64V361.39H580.52V357.19Z" fill="#7A7A7A"/>
<path d="M572.319 363.08H558.439V367.28H572.319V363.08Z" fill="#7A7A7A"/>
<path d="M201.89 331.12H188.01V335.32H201.89V331.12Z" fill="#9C9C9C"/>
<path d="M218.289 331.12H204.409V335.32H218.289V331.12Z" fill="#9C9C9C"/>
<path d="M240.989 331.12H227.109V335.32H240.989V331.12Z" fill="#9C9C9C"/>
<path d="M210.09 337.01H196.21V341.21H210.09V337.01Z" fill="#9C9C9C"/>
<path d="M223.749 348.78H209.869V352.98H223.749V348.78Z" fill="#9C9C9C"/>
<path d="M170.56 348.78H156.68V352.98H170.56V348.78Z" fill="#9C9C9C"/>
<path d="M207.14 390.83H193.26V395.03H207.14V390.83Z" fill="#9C9C9C"/>
<path d="M241.829 391.25H227.949V395.45H241.829V391.25Z" fill="#9C9C9C"/>
<path d="M334.97 391.25H321.09V395.45H334.97V391.25Z" fill="#9C9C9C"/>
<path d="M284.93 348.78H271.05V352.98H284.93V348.78Z" fill="#9C9C9C"/>
<path d="M352.63 348.78H338.75V352.98H352.63V348.78Z" fill="#9C9C9C"/>
<path d="M369.449 348.78H355.569V352.98H369.449V348.78Z" fill="#9C9C9C"/>
<path d="M361.039 342.48H347.159V346.68H361.039V342.48Z" fill="#9C9C9C"/>
<path d="M216.81 369.81H202.93V374.01H216.81V369.81Z" fill="#9C9C9C"/>
<path d="M233.209 369.81H219.329V374.01H233.209V369.81Z" fill="#9C9C9C"/>
<path d="M225.01 375.7H211.13V379.9H225.01V375.7Z" fill="#9C9C9C"/>
<path d="M301.329 369.81H287.449V374.01H301.329V369.81Z" fill="#9C9C9C"/>
<path d="M317.73 369.81H303.85V374.01H317.73V369.81Z" fill="#9C9C9C"/>
<path d="M309.529 375.7H295.649V379.9H309.529V375.7Z" fill="#9C9C9C"/>
<path d="M181.909 369.81H168.029V374.01H181.909V369.81Z" fill="#9C9C9C"/>
<path d="M198.31 369.81H184.43V374.01H198.31V369.81Z" fill="#9C9C9C"/>
<path d="M190.109 375.7H176.229V379.9H190.109V375.7Z" fill="#9C9C9C"/>
<path d="M216.81 357.19H202.93V361.39H216.81V357.19Z" fill="#9C9C9C"/>
<path d="M233.209 357.19H219.329V361.39H233.209V357.19Z" fill="#9C9C9C"/>
<path d="M225.01 363.08H211.13V367.28H225.01V363.08Z" fill="#9C9C9C"/>
<path d="M629.81 227.82H205.54L226.81 204.52H608.53L629.81 227.82Z" fill="#9C9C9C" stroke="#263238" stroke-linecap="round" stroke-linejoin="round"/>
<path d="M634.94 223.19H208.52V227.82H634.94V223.19Z" fill="#0987FF" stroke="#263238" stroke-linecap="round" stroke-linejoin="round"/>
<path d="M608.71 204.52H228.22L256.76 144.53H580.17L608.71 204.52Z" fill="#9C9C9C" stroke="#263238" stroke-linecap="round" stroke-linejoin="round"/>
<path d="M491.209 204.52H134.279L161.049 144.53H464.439L491.209 204.52Z" fill="#D1D1D1" stroke="#263238" stroke-linecap="round" stroke-linejoin="round"/>
<path d="M512.319 227.82H114.329L134.279 204.52H492.369L512.319 227.82Z" fill="#D1D1D1" stroke="#263238" stroke-linecap="round" stroke-linejoin="round"/>
<path d="M512.33 223.19H112.31V227.82H512.33V223.19Z" fill="#0987FF" stroke="#263238" stroke-linecap="round" stroke-linejoin="round"/>
<path d="M369.9 241.94H254.5V339.41H369.9V241.94Z" fill="white" stroke="#263238" stroke-linecap="round" stroke-linejoin="round"/>
<path d="M365.46 245.68H258.93V335.66H365.46V245.68Z" fill="#263238" stroke="#263238" stroke-linecap="round" stroke-linejoin="round"/>
<path d="M310.11 245.68H258.93V335.66H310.11V245.68Z" fill="white" stroke="#263238" stroke-linecap="round" stroke-linejoin="round"/>
<path d="M270.239 321.17L267.489 323.92" stroke="#263238" stroke-linecap="round" stroke-linejoin="round"/>
<path d="M290.94 300.47L273.25 318.15" stroke="#263238" stroke-linecap="round" stroke-linejoin="round"/>
<path d="M300.409 297.32L284.619 313.1" stroke="#263238" stroke-linecap="round" stroke-linejoin="round"/>
<path d="M335.989 291.71H229.449L258.929 245.68H365.459L335.989 291.71Z" fill="#0987FF" stroke="#263238" stroke-linecap="round" stroke-linejoin="round"/>
<path d="M365.379 291.8V245.81L335.989 291.71L336.609 291.8H365.379Z" fill="#0987FF" stroke="#263238" stroke-linecap="round" stroke-linejoin="round"/>
<path d="M507.52 365.06H500.69L500.59 365.21C500.005 365.115 499.413 365.064 498.82 365.06C490.49 365.06 483.74 373.75 483.74 384.47C483.74 395.19 490.49 403.88 498.82 403.88C499.413 403.874 500.004 403.827 500.59 403.74L500.69 403.88H507.52C515.85 403.88 522.6 395.19 522.6 384.47C522.6 373.75 515.85 365.06 507.52 365.06Z" fill="#263238" stroke="#263238" stroke-linecap="round" stroke-linejoin="round"/>
<path d="M367.561 365.06H360.721L360.621 365.21C360.039 365.115 359.45 365.064 358.861 365.06C350.531 365.06 343.771 373.75 343.771 384.47C343.771 395.19 350.531 403.88 358.861 403.88C359.45 403.874 360.038 403.827 360.621 403.74L360.721 403.88H367.561C375.891 403.88 382.641 395.19 382.641 384.47C382.641 373.75 375.891 365.06 367.561 365.06Z" fill="#263238" stroke="#263238" stroke-linecap="round" stroke-linejoin="round"/>
<path d="M572.54 365.63H569.261L566.331 345C566.158 343.794 565.559 342.689 564.641 341.887C563.724 341.085 562.549 340.639 561.331 340.63H542.91L513.071 309C511.473 307.304 509.545 305.952 507.406 305.029C505.266 304.105 502.961 303.629 500.631 303.63H421.521C419.815 303.628 418.126 303.971 416.557 304.64C414.988 305.309 413.57 306.288 412.391 307.52L276.521 364.88V389.1H480.231L531.35 388.74L569.261 386.25V386.08H572.381C572.712 386.08 573.03 385.948 573.264 385.714C573.499 385.479 573.631 385.162 573.631 384.83V366.72C573.631 366.577 573.602 366.435 573.548 366.303C573.493 366.171 573.412 366.05 573.311 365.949C573.21 365.848 573.09 365.768 572.958 365.713C572.825 365.658 572.684 365.63 572.54 365.63Z" fill="#0987FF" stroke="#263238" stroke-linecap="round" stroke-linejoin="round"/>
<path d="M514.67 385.38V388.86L531.35 388.74L569.26 386.25V386.08H572.38C572.612 386.078 572.838 386.011 573.034 385.887C573.23 385.764 573.388 385.588 573.49 385.38H514.67Z" fill="#263238" stroke="#263238" stroke-linecap="round" stroke-linejoin="round"/>
<path d="M531.35 388.74C531.662 388.704 531.948 388.552 532.153 388.315C532.358 388.077 532.466 387.772 532.456 387.458C532.446 387.145 532.318 386.847 532.099 386.623C531.879 386.399 531.584 386.266 531.271 386.25H512.1L441.211 303.63H421.521C419.815 303.628 418.126 303.971 416.557 304.64C414.988 305.309 413.57 306.288 412.391 307.52L276.521 364.88V389.1H480.231L531.35 388.74Z" fill="#263238" stroke="#263238" stroke-linecap="round" stroke-linejoin="round"/>
<path d="M308.26 365.06H301.42L296.94 371.64C294.479 375.467 293.171 379.92 293.171 384.47C293.171 389.02 294.479 393.473 296.94 397.3L301.42 403.88H308.26C316.59 403.88 323.34 395.19 323.34 384.47C323.34 373.75 316.59 365.06 308.26 365.06Z" fill="#263238" stroke="#263238" stroke-linecap="round" stroke-linejoin="round"/>
<path d="M299.561 403.88C307.895 403.88 314.651 395.19 314.651 384.47C314.651 373.75 307.895 365.06 299.561 365.06C291.227 365.06 284.471 373.75 284.471 384.47C284.471 395.19 291.227 403.88 299.561 403.88Z" fill="#636363" stroke="#263238" stroke-linecap="round" stroke-linejoin="round"/>
<path d="M299.56 399.95C306.204 399.95 311.59 393.019 311.59 384.47C311.59 375.921 306.204 368.99 299.56 368.99C292.916 368.99 287.53 375.921 287.53 384.47C287.53 393.019 292.916 399.95 299.56 399.95Z" fill="white" stroke="#263238" stroke-linecap="round" stroke-linejoin="round"/>
<path d="M299.561 387.74C300.963 387.74 302.101 386.276 302.101 384.47C302.101 382.664 300.963 381.2 299.561 381.2C298.158 381.2 297.021 382.664 297.021 384.47C297.021 386.276 298.158 387.74 299.561 387.74Z" fill="white" stroke="#263238" stroke-linecap="round" stroke-linejoin="round"/>
<path d="M460.51 365.06H453.67L449.19 371.64C446.729 375.467 445.421 379.92 445.421 384.47C445.421 389.02 446.729 393.473 449.19 397.3L453.67 403.88H460.51C468.84 403.88 475.59 395.19 475.59 384.47C475.59 373.75 468.84 365.06 460.51 365.06Z" fill="#263238" stroke="#263238" stroke-linecap="round" stroke-linejoin="round"/>
<path d="M451.811 403.88C460.145 403.88 466.901 395.19 466.901 384.47C466.901 373.75 460.145 365.06 451.811 365.06C443.477 365.06 436.721 373.75 436.721 384.47C436.721 395.19 443.477 403.88 451.811 403.88Z" fill="#636363" stroke="#263238" stroke-linecap="round" stroke-linejoin="round"/>
<path d="M451.81 399.95C458.454 399.95 463.84 393.019 463.84 384.47C463.84 375.921 458.454 368.99 451.81 368.99C445.166 368.99 439.78 375.921 439.78 384.47C439.78 393.019 445.166 399.95 451.81 399.95Z" fill="white" stroke="#263238" stroke-linecap="round" stroke-linejoin="round"/>
<path d="M451.811 387.74C453.213 387.74 454.351 386.276 454.351 384.47C454.351 382.664 453.213 381.2 451.811 381.2C450.408 381.2 449.271 382.664 449.271 384.47C449.271 386.276 450.408 387.74 451.811 387.74Z" fill="white" stroke="#263238" stroke-linecap="round" stroke-linejoin="round"/>
<path d="M513.07 309C512.82 308.74 512.56 308.5 512.3 308.26H450.67V338.71H541.06L513.07 309Z" fill="#263238" stroke="#263238" stroke-linecap="round" stroke-linejoin="round"/>
<path d="M520.15 365.63H516.56L512.99 340.63H490.2L460.36 309C458.763 307.304 456.835 305.952 454.696 305.029C452.556 304.105 450.251 303.629 447.92 303.63H375.3C373.595 303.63 371.907 303.975 370.338 304.643C368.769 305.312 367.352 306.29 366.17 307.52L319.79 338.52L276.87 357.04L270.16 366.04C268.507 368.256 267.613 370.946 267.61 373.71V389.1H281.15V384C281.15 371.49 290.25 361.34 301.47 361.34C311.47 361.34 317.69 369.45 319.25 380.47L320.48 389.12H433.57V384C433.57 371.49 438.71 361.34 452.51 361.34C464.81 361.34 469.21 369.45 471.13 380.47L472.57 388.76L516.57 386.27V386.1H520.16L520.15 365.63Z" fill="#0987FF" stroke="#263238" stroke-linecap="round" stroke-linejoin="round"/>
<path d="M366.56 312.09L326.73 338.53H401.17V308.61H374.81C373.273 308.611 371.751 308.92 370.334 309.517C368.917 310.115 367.634 310.99 366.56 312.09V312.09Z" fill="#263238" stroke="#263238" stroke-linecap="round" stroke-linejoin="round"/>
<path d="M357.911 338.53L381.521 308.61H374.811C373.273 308.611 371.751 308.92 370.334 309.517C368.918 310.115 367.634 310.99 366.561 312.09L352.621 321.34L339.061 338.53H357.911Z" fill="white" stroke="#263238" stroke-linecap="round" stroke-linejoin="round"/>
<path d="M401.17 338.53V317.05L384.21 338.53H401.17Z" fill="white" stroke="#263238" stroke-linecap="round" stroke-linejoin="round"/>
<path d="M457.88 313.49L474.81 330.8C475.374 331.379 475.774 332.096 475.97 332.88C476.139 333.55 476.153 334.251 476.01 334.927C475.868 335.603 475.572 336.238 475.147 336.783C474.722 337.328 474.177 337.769 473.556 338.072C472.934 338.374 472.252 338.531 471.56 338.53H406.15V308.61H446.3C448.458 308.611 450.595 309.043 452.583 309.881C454.572 310.719 456.373 311.946 457.88 313.49Z" fill="#263238" stroke="#263238" stroke-linecap="round" stroke-linejoin="round"/>
<path d="M442.02 308.61H435.44L411.83 338.53H418.41L442.02 308.61Z" fill="white" stroke="#263238" stroke-linecap="round" stroke-linejoin="round"/>
<path d="M406.15 310.73V334.62L426.67 308.61H407.82L406.15 310.73Z" fill="white" stroke="#263238" stroke-linecap="round" stroke-linejoin="round"/>
<path d="M513 340.67H561.3C562.519 340.679 563.693 341.125 564.611 341.927C565.528 342.729 566.128 343.834 566.3 345.04L569.23 365.63H516.53L513 340.67Z" fill="#0987FF" stroke="#263238" stroke-linecap="round" stroke-linejoin="round"/>
<path d="M558.831 351.92H535.931V361.33H558.831V351.92Z" fill="white" stroke="#263238" stroke-linecap="round" stroke-linejoin="round"/>
<path d="M571.781 369.48H473.641" stroke="#263238" stroke-width="2" stroke-linecap="round" stroke-linejoin="round"/>
<path d="M429.79 369.48H321.03" stroke="#263238" stroke-width="2" stroke-linecap="round" stroke-linejoin="round"/>
<path d="M284.921 369.48H272.471" stroke="#263238" stroke-width="2" stroke-linecap="round" stroke-linejoin="round"/>
<path d="M532 352.08H510.34C509.337 352.081 508.354 352.362 507.502 352.892C506.65 353.423 505.964 354.18 505.52 355.08L501.9 362.31C501.731 362.646 501.651 363.021 501.67 363.397C501.688 363.773 501.804 364.138 502.005 364.456C502.206 364.775 502.487 365.035 502.819 365.213C503.151 365.391 503.524 365.479 503.9 365.47H532V352.08Z" fill="#0987FF" stroke="#263238" stroke-linecap="round" stroke-linejoin="round"/>
<path d="M531.98 352.08H514.54L516.45 365.44H531.98V352.08Z" fill="#263238" stroke="#263238" stroke-linecap="round" stroke-linejoin="round"/>
<path d="M567.25 352.08H561.97L561.9 365.44H569.16L567.25 352.08Z" fill="#263238" stroke="#263238" stroke-linecap="round" stroke-linejoin="round"/>
<path d="M331.14 332.3H321.25C320.145 332.3 319.25 333.195 319.25 334.3V342.05C319.25 343.155 320.145 344.05 321.25 344.05H331.14C332.245 344.05 333.14 343.155 333.14 342.05V334.3C333.14 333.195 332.245 332.3 331.14 332.3Z" fill="#263238" stroke="#263238" stroke-linecap="round" stroke-linejoin="round"/>
<path d="M399.39 344.05H386.03V349.39H399.39V344.05Z" fill="#263238" stroke="#263238" stroke-linecap="round" stroke-linejoin="round"/>
<path d="M402.591 341.91V382.51" stroke="#263238" stroke-linecap="round" stroke-linejoin="round"/>
<path d="M312.311 360.08C312.311 360.08 322.091 365.6 323.311 384.47H427.161" stroke="#263238" stroke-linecap="round" stroke-linejoin="round"/>
<path d="M476.31 368.09C476.31 368.09 471.2 354.73 454.07 354.73C442.14 354.73 436.43 361 433.57 365.95" stroke="#263238" stroke-linecap="round" stroke-linejoin="round"/>
<path d="M13.1396 403.64H682.71" stroke="#263238" stroke-linecap="round" stroke-linejoin="round"/>
</svg>
