<svg width="449" height="386" viewBox="0 0 449 386" fill="none" xmlns="http://www.w3.org/2000/svg">
<path d="M448.89 157.45C448.89 244.15 348.49 372.45 224.64 372.45C100.79 372.45 0.400391 244.15 0.400391 157.45C0.400391 70.75 100.79 0.449951 224.64 0.449951C348.49 0.449951 448.89 70.7599 448.89 157.45Z" fill="#0987FF"/>
<path opacity="0.7" d="M448.89 157.45C448.89 244.15 348.49 372.45 224.64 372.45C100.79 372.45 0.400391 244.15 0.400391 157.45C0.400391 70.75 100.79 0.449951 224.64 0.449951C348.49 0.449951 448.89 70.7599 448.89 157.45Z" fill="white"/>
<path d="M402.22 228C402.22 228 412.6 228 424.1 211.91C434.1 197.91 415.1 154.5 404.37 144.52C393.64 134.54 372.85 189.06 375.27 202.87C378.72 222.56 393.54 227.52 402.22 228Z" fill="#0987FF"/>
<path d="M413.131 167.85L401.841 176L401.171 154.28L399.981 155.78C399.981 155.78 399.881 172.13 399.771 192.45L386.601 183.28C386.761 183.44 388.431 185.03 387.501 185.03L399.741 196.77C399.681 207.97 399.621 218.61 399.561 227.77C399.561 235.99 399.481 243.02 399.451 248.16L404.361 249.16L403.511 227.94L403.081 217.01L419.081 201.13C417.741 201.13 420.131 198.86 420.361 198.63L402.931 211.18L401.931 179.88L412.211 169.66C411.331 169.66 412.791 168.22 413.081 167.95" fill="white"/>
<path d="M410.7 264.05C382.32 305.29 340.18 342.24 290.78 360.51C194.5 319.05 118.12 301.51 63.66 294.59C52.1295 282.062 41.7821 268.494 32.75 254.06C79.39 240.33 203 216.69 410.7 264.05Z" fill="#BFBFBF"/>
<path d="M32.75 254.06L33 254L34.93 253.44L35.36 253.32L37.87 252.62H37.98L40.12 252.04C41.57 251.64 43.12 251.25 44.65 250.86L45.84 250.56C47.33 250.18 48.84 249.81 50.47 249.44L52.08 249.06L53.39 248.76L54.83 248.44L56.08 248.17C56.95 247.97 57.84 247.78 58.75 247.59L59.02 247.53L59.49 247.43L60.26 247.27L61.59 246.99L63.59 246.59L64.65 246.37L65.65 246.17L67.65 245.78L70.76 245.2L73.96 244.62L74.62 244.5L75.85 244.29L81.2 243.39L83.54 243.02H83.69L84.04 242.97L84.57 242.89L89.15 242.2H89.38L90.04 242.1L90.74 242L91.48 241.9L92.93 241.69H93.03C95.68 241.33 98.4 240.97 101.19 240.63L103.7 240.33L108.84 239.75H108.94L111.46 239.49L114.32 239.2L117.46 238.9L120.39 238.63L123.48 238.36L126.34 238.12C130.647 237.78 135.08 237.477 139.64 237.21L142.41 237.05L146.04 236.86L151.04 236.64H151.7L153.28 236.58C154.1 236.54 154.92 236.51 155.74 236.49C157.64 236.42 159.55 236.36 161.48 236.31L164.73 236.23L168.03 236.16H168.4H171.4C176.36 236.093 181.447 236.077 186.66 236.11H190.16H191.9L195.38 236.16L197.81 236.21H197.88L201.88 236.3L204.01 236.36L206.19 236.42L208.74 236.5H208.79L210.91 236.58H212.09L213.35 236.63L217.04 236.78L218.83 236.86L220.2 236.92L225.13 237.17L228.33 237.35L232.83 237.61H233.31L237.84 237.91L238.94 237.98L240.48 238.09L243.86 238.33C246.527 238.53 249.253 238.743 252.04 238.97H252.58L254.96 239.17C257.52 239.39 260.1 239.623 262.7 239.87L264.64 240.05L266.15 240.2L272.72 240.86L276.62 241.27L280.82 241.74C286.56 242.407 292.397 243.11 298.33 243.85L302.73 244.43L307.04 245.02L311.53 245.65L316.06 246.3C318.42 246.65 320.8 247 323.2 247.37L325.2 247.68L329.83 248.41L334.5 249.16L342.19 250.45L344.7 250.88L348.14 251.47L354.21 252.56L358.04 253.26L361.44 253.88L365.77 254.71L369.66 255.46C374.087 256.32 378.563 257.213 383.09 258.14L387.03 258.96L388.67 259.3L389.12 259.4C393.787 260.373 398.473 261.373 403.18 262.4L406.26 263.09L410.61 264.09" stroke="#263238" stroke-linecap="round" stroke-linejoin="round"/>
<path d="M63.6596 294.59C46.3055 292.348 28.8439 291.036 11.3496 290.66" stroke="#263238" stroke-linecap="round" stroke-linejoin="round"/>
<path d="M290.779 360.51C194.499 319.05 118.119 301.51 63.6592 294.59" stroke="#263238" stroke-linecap="round" stroke-linejoin="round"/>
<path d="M344.089 385C325.689 376.02 307.919 367.853 290.779 360.5" stroke="#263238" stroke-linecap="round" stroke-linejoin="round"/>
<path d="M240.68 321.58C252.226 325.86 263.52 330.447 274.56 335.34" stroke="#263238" stroke-miterlimit="10"/>
<path d="M168.18 298.84C191.03 304.78 213.29 311.62 234.79 319.41" stroke="#263238" stroke-miterlimit="10"/>
<path d="M120.83 287.91C134.11 290.61 147.233 293.573 160.2 296.8" stroke="#263238" stroke-miterlimit="10"/>
<path d="M109.68 285.72L115.63 286.87" stroke="#263238" stroke-miterlimit="10"/>
<path d="M267.05 307C298.021 316.316 328.181 328.141 357.23 342.36" stroke="#263238" stroke-miterlimit="10"/>
<path d="M257.43 304.23C259.43 304.78 261.36 305.35 263.32 305.93" stroke="#263238" stroke-miterlimit="10"/>
<path d="M228.58 296.86C235.36 298.413 242.113 300.08 248.84 301.86" stroke="#263238" stroke-miterlimit="10"/>
<path d="M138.26 285.36C145.37 286.79 155.04 288.72 162.18 290.09" stroke="#263238" stroke-miterlimit="10"/>
<path d="M109.68 279.66C117.68 281.2 126.68 283.01 135.93 284.88" stroke="#263238" stroke-miterlimit="10"/>
<path d="M99.4092 277.81C101.809 278.23 104.226 278.667 106.659 279.12" stroke="#263238" stroke-miterlimit="10"/>
<path d="M34.9092 271.5C53.4468 271.613 71.9458 273.208 90.2292 276.27" stroke="#263238" stroke-miterlimit="10"/>
<path d="M385.929 276.13C383.929 275.72 381.929 275.31 379.879 274.92L378.879 274.72L378.259 274.6C365.593 272.147 352.883 270.113 340.129 268.5C334.569 267.793 329.003 267.17 323.429 266.63C315.229 265.81 307.016 265.173 298.789 264.72H298.739L293.989 264.47" stroke="#263238" stroke-miterlimit="10"/>
<path d="M399.56 279.12C396.566 278.453 393.566 277.787 390.56 277.12" stroke="#263238" stroke-miterlimit="10"/>
<path d="M418.56 252L412.82 250.82L408.26 249.9L404.36 249.13L399.45 248.13L398.56 247.96L394.2 247.13C391.233 246.57 388.283 246.023 385.35 245.49L384.72 245.38L380.04 244.54L378.53 244.26H378.44L376.29 243.88L372.8 243.28C369.99 242.8 367.19 242.33 364.42 241.88L360.42 241.23L360.03 241.17L356.12 240.55C353.38 240.117 350.653 239.7 347.94 239.3L345.94 239L343.94 238.7L341.45 238.34L339.92 238.12L335.92 237.56L331.92 237.01L327.33 236.4C324.51 236.02 321.72 235.67 318.95 235.33C313.87 234.703 308.87 234.12 303.95 233.58L302.57 233.43H302.31L300.55 233.24C296.69 232.833 292.877 232.45 289.11 232.09L287.62 231.95L283.37 231.56L279.17 231.19C276.59 230.97 274.04 230.76 271.5 230.57L266.75 230.21L262.68 229.93C259.92 229.74 257.18 229.57 254.46 229.4L248.46 229.06L245.46 228.91L240.46 228.67L236.6 228.51L233.69 228.4L230.8 228.3L225.48 228.13L222.25 228.05L219.44 227.99L214.64 227.9H211.11H205.76H205.68C180.92 227.79 158.68 228.82 138.81 230.54C135.48 230.82 132.21 231.13 129.02 231.46C127.95 231.56 126.9 231.67 125.85 231.79C122.7 232.12 119.62 232.48 116.61 232.85C115.61 232.96 114.67 233.09 113.72 233.21H113.62L113 233.29L111.07 233.55L109.35 233.78L105.18 234.36L102.91 234.69L98.37 235.38L93.96 236.09C92.7 236.3 91.46 236.5 90.24 236.72L88.24 237.06L87.82 237.14C85.9 237.48 84.02 237.813 82.18 238.14H82.05C76.3234 239.233 70.9634 240.35 65.97 241.49C65.37 241.61 64.78 241.75 64.19 241.89L62.45 242.3L61.9 242.43L59.96 242.89L59.38 243.03H59.2L57.41 243.47L55.27 244.01L54.01 244.33C51.32 245.03 48.76 245.72 46.35 246.4L44.4 246.96L42.51 247.51L41.06 247.94C40.06 248.25 39.06 248.55 38.06 248.86C36.88 249.22 35.75 249.58 34.66 249.94C33.39 250.35 32.18 250.74 31.04 251.13" stroke="#263238" stroke-miterlimit="10"/>
<path d="M105.09 234.25C85.2283 236.996 65.569 241.049 46.2401 246.38L44.4301 246.57L31.3301 151.5C32.3301 150.44 55.6501 118.86 88.4801 119.3L105.09 234.25Z" stroke="#263238" stroke-miterlimit="10"/>
<path d="M331.87 237C252.01 226.18 187.87 226.15 138.72 230.42L134.12 163.19C134.12 163.19 215.12 107.37 327.12 127.96L331.87 237Z" stroke="#263238" stroke-miterlimit="10"/>
<path d="M34.4902 166.74C36.4902 162.47 65.4902 138.74 84.1302 139.04" stroke="#263238" stroke-miterlimit="10"/>
<path d="M36.4805 182.7C39.8205 178.7 69.4805 157.7 87.1905 158.33" stroke="#263238" stroke-miterlimit="10"/>
<path d="M38.46 198.67C43.12 194.9 73.46 176.75 90.25 177.67" stroke="#263238" stroke-miterlimit="10"/>
<path d="M40.4502 214.64C46.4502 211.12 77.3702 195.75 93.3102 196.93" stroke="#263238" stroke-miterlimit="10"/>
<path d="M42.4404 230.6C49.7204 227.33 81.3204 214.75 96.3804 216.22" stroke="#263238" stroke-miterlimit="10"/>
<path d="M139.74 168L141.6 196.66" stroke="#263238" stroke-miterlimit="10"/>
<path d="M160.18 158.78L162.11 182.33" stroke="#263238" stroke-miterlimit="10"/>
<path d="M183.38 149.44L185.45 174.3" stroke="#263238" stroke-miterlimit="10"/>
<path d="M211.95 141.92L214.66 171.59" stroke="#263238" stroke-miterlimit="10"/>
<path d="M245.5 137.02L247.99 172.06" stroke="#263238" stroke-miterlimit="10"/>
<path d="M280.24 135.89L282.34 178.37" stroke="#263238" stroke-miterlimit="10"/>
<path d="M314.19 139.32L315.29 161.87" stroke="#263238" stroke-miterlimit="10"/>
<path d="M64.8401 272.2L76.3401 272.46C76.3401 272.46 58.0901 243.11 62.3401 234C66.5301 225.05 53.7301 241 62.6701 270.55C62.8193 271.014 63.1074 271.421 63.4955 271.716C63.8836 272.011 64.353 272.18 64.8401 272.2Z" fill="#263238" stroke="#263238" stroke-miterlimit="10"/>
<path d="M273.9 294C273.9 294 272 287.71 267.9 287.21C263.8 286.71 270.33 274.55 269.14 260.89C269.15 260.85 272.63 271 273.9 294Z" fill="#263238" stroke="#263238" stroke-linecap="round" stroke-linejoin="round"/>
<path d="M207.81 291.67H226.93C226.93 291.67 217.73 235.8 218.57 231.17C220.56 220.19 186 237.56 207.81 291.67Z" fill="#263238" stroke="#263238" stroke-miterlimit="10"/>
<path d="M99.61 273.15C95.04 275.04 77.48 274.29 77.48 274.29C86.61 274.29 93.1 263.7 91.96 250.66C90.96 239.35 84.58 229.9 76.96 227.58C93.23 225.7 104.18 271.24 99.61 273.15Z" fill="#263238" stroke="#263238" stroke-miterlimit="10"/>
<path d="M236.39 300.15C236.39 300.15 243.27 302.28 266.39 294.45C270.89 292.93 275.03 285.54 273.28 276.86C271.53 268.18 268.92 244.41 248 235C227.08 225.59 236.39 300.15 236.39 300.15Z" fill="#263238" stroke="#263238" stroke-miterlimit="10"/>
<path d="M243.347 299.196C259.174 294.583 267.478 275.314 261.894 256.157C256.31 237 238.953 225.21 223.126 229.823C207.299 234.436 198.995 253.706 204.579 272.863C210.163 292.019 227.52 303.809 243.347 299.196Z" fill="#5C5C5C" stroke="#263238" stroke-linecap="round" stroke-linejoin="round"/>
<path d="M255.67 263.24C256.55 273.24 252.95 282.01 246.82 287.08C243.234 290.103 238.689 291.751 234 291.73C220.66 291.73 208.73 278.97 207.35 263.24C205.97 247.51 215.67 234.74 229.01 234.74C235.325 234.887 241.334 237.491 245.76 242C251.488 247.673 255.002 255.206 255.67 263.24V263.24Z" fill="#263238" stroke="#263238" stroke-miterlimit="10"/>
<path d="M254.67 263.24C255.55 273.24 251.95 282.01 245.82 287.08C244.636 287.351 243.425 287.485 242.21 287.48C231.26 287.48 221.47 277 220.34 264.08C219.21 251.16 227.16 240.69 238.11 240.69C240.39 240.693 242.648 241.134 244.76 241.99C250.491 247.666 254.005 255.202 254.67 263.24V263.24Z" fill="#BFBFBF"/>
<path d="M384.59 247.48C384.46 247.77 384.35 248.04 384.23 248.28C373.23 249.58 345.51 253.28 337.48 256.11C375.94 238.21 383.54 244.86 384.42 247.66L384.48 247.33L384.59 247.48Z" fill="#263238" stroke="#263238" stroke-miterlimit="10"/>
<path d="M388.08 250.73C385.74 251.51 382.9 252.36 379.5 253.23C366.89 256.45 345.7 259.49 345.7 259.49C341.6 261.77 338.45 273.98 335.31 281.54C334.89 282.54 334.46 283.54 334.03 284.34C333.476 285.347 332.733 286.237 331.84 286.96C331.333 287.409 330.791 287.817 330.22 288.18V288.18C312.22 288.35 310.76 284.9 310.76 284.9C305.11 275.9 301.41 269.46 299.01 265.01L299.19 265.28C299.4 265.58 299.61 265.88 299.83 266.15C300.05 266.42 300.26 266.71 300.49 266.96C300.72 267.21 300.86 267.39 301.05 267.59C301.23 267.78 301.41 267.97 301.6 268.15C308.89 275.15 317.83 270.79 324.85 265.58C329.8 261.91 333.8 257.81 335.6 256.95L337.48 256.07C345.48 253.25 373.22 249.54 384.23 248.24H384.7C384.6 248.84 386.92 250.13 388.08 250.73Z" fill="#5C5C5C" stroke="#263238" stroke-linecap="round" stroke-linejoin="round"/>
<path d="M337.48 256.11L335.6 256.99C336.18 256.606 336.813 256.309 337.48 256.11Z" fill="white" stroke="#263238" stroke-miterlimit="10"/>
<path d="M388.71 251.05C388.927 255.758 388.824 260.476 388.4 265.17C381.59 264.99 377.95 275.09 377.13 277.67C367.61 280.45 355.19 283.3 346.03 285.27H346C343.45 285.82 341.16 286.27 339.26 286.69H339.19C336.19 287.33 334.13 287.69 333.63 287.82L331.82 288.15L329.64 288.55C311.403 291.685 292.96 293.48 274.46 293.92C274.145 288.78 273.541 283.662 272.65 278.59C271.467 271.602 269.452 264.78 266.65 258.27L293.65 256.55H293.84L294.84 256.48C294.84 256.48 294.84 256.55 294.91 256.68C294.934 256.729 294.954 256.779 294.97 256.83C295.32 257.83 295.69 258.71 296.06 259.57L296.48 260.51L296.91 261.4L297.24 262.04C297.35 262.26 297.46 262.47 297.58 262.67C297.7 262.87 297.92 263.28 298.09 263.57C298.26 263.86 298.51 264.26 298.71 264.57C298.81 264.717 298.91 264.857 299.01 264.99C301.41 269.44 305.11 275.9 310.76 284.88C310.76 284.88 312.26 288.33 330.22 288.16C330.792 287.797 331.334 287.389 331.84 286.94C332.733 286.217 333.477 285.327 334.03 284.32C334.46 283.5 334.89 282.56 335.31 281.52C338.45 273.96 341.6 261.75 345.7 259.47C345.7 259.47 366.89 256.47 379.5 253.21C382.9 252.34 385.74 251.49 388.08 250.71C388.46 250.94 388.71 251.05 388.71 251.05Z" fill="#263238" stroke="#263238" stroke-miterlimit="10"/>
<path d="M97.9999 273.07C97.9422 270.054 97.6648 267.046 97.1699 264.07C101.97 266.07 104.67 266.21 108.48 267.02C110.35 267.42 113.94 268.02 118.58 268.61C135.89 270.87 167.98 273.21 182.01 265.88C182.247 265.824 182.488 265.784 182.73 265.76V265.76C185 265.5 192.33 264.82 201.73 263.97C202.602 273.428 204.651 282.74 207.83 291.69L97.9999 273.07Z" fill="#263238" stroke="#263238" stroke-miterlimit="10"/>
<path d="M384.15 234.09C384.531 235.14 384.77 236.237 384.86 237.35V237.35C384.982 238.442 385.032 239.541 385.01 240.64C384.967 242.875 384.79 245.106 384.48 247.32L384.59 247.47L385.07 248.22C385.241 247.104 385.348 245.978 385.39 244.85C385.39 243.85 385.45 242.74 385.39 241.62C385.423 239.057 385.003 236.507 384.15 234.09V234.09Z" stroke="#263238" stroke-linecap="round" stroke-linejoin="round"/>
<path d="M400.21 187.29C392.99 200.2 382.63 203.23 382.63 203.23C380.707 202.086 378.619 201.242 376.44 200.73C370.138 199.252 363.702 198.418 357.23 198.24C357.62 198.24 358 198.18 358.39 198.17L362.21 198.29C362.21 198.29 364.29 197.54 366.72 193.49C367.112 192.854 367.447 192.185 367.72 191.49C368.216 190.286 368.216 188.934 367.72 187.73C372.72 188.22 387 188.85 395.63 181.4C397.31 179.95 396.68 177.49 394.76 176C394.543 175.834 394.316 175.68 394.08 175.54C395.68 175.43 406.92 175.3 400.21 187.29Z" fill="#0987FF" stroke="#263238" stroke-miterlimit="10"/>
<path d="M276.11 183.12L305.24 191.45C302.04 200.5 297.66 204.76 294.62 206.73L272.76 207.66C263.16 208.3 253.3 209.09 243.93 210.06C213.48 213.2 202.93 231.31 202.93 231.31C182.01 256.75 113.5 241.57 113.5 241.57C105.64 238.57 105.5 237.39 100.36 231.88C97.72 229.07 95.76 225.66 93.02 222.93C90.9 220.84 84.73 216.79 79.02 215.93L77 216C77.09 215.89 77.11 215.8 77.06 215.76C75.89 215.37 121.57 212.21 124.6 211.07L126.95 206.02C127.764 204.296 129.088 202.862 130.741 201.913C132.395 200.964 134.3 200.544 136.2 200.71C137.89 200.82 139.3 200.91 139.54 200.95C140.15 200.5 159.84 186.05 182.04 179.32C204.6 172.49 221.41 178.18 232.67 176.67C243.93 175.16 267.28 176.03 267.28 176.03L264.09 180.09L276.11 183.12Z" fill="#0987FF" stroke="#263238" stroke-miterlimit="10"/>
<path d="M304.84 192.55V192.61C304.331 193.974 303.746 195.31 303.09 196.61V196.61L303.04 196.71C302.69 197.38 302.34 198.02 301.99 198.62C301.83 198.893 301.67 199.153 301.51 199.4C301.04 200.17 300.51 200.87 300.07 201.51C299.78 201.89 299.5 202.26 299.21 202.6L299.11 202.71C298.95 202.9 298.79 203.09 298.63 203.26L298.51 203.4C298.23 203.71 297.96 203.99 297.69 204.25L297.15 204.77C296.87 205.02 296.6 205.26 296.33 205.48L295.86 205.86L295.47 206.15C295.19 206.36 294.92 206.54 294.66 206.71L322.6 205.51C323.35 204.96 324.12 204.51 324.91 204C322.27 205.37 320.54 206.4 321.38 204.36C321.415 204.273 321.459 204.189 321.51 204.11C322.93 201.37 329.51 197.11 329.51 197.11H329.64C331.06 196.57 337.82 193.11 341.93 181.34H342.06C343.72 175.622 344.082 169.606 343.12 163.73C342.43 162.73 341.02 161.86 338.12 162.22C332.66 162.91 314.01 166.67 309.74 167.53H309.64C308.593 167.737 307.599 168.158 306.723 168.768C305.847 169.378 305.107 170.164 304.55 171.074C303.992 171.985 303.63 173.001 303.486 174.059C303.341 175.117 303.418 176.193 303.71 177.22C304.1 178.57 304.49 179.86 304.85 181.05C304.85 181.05 305.02 181.6 305.27 182.36C306.197 185.305 306.197 188.464 305.27 191.41" fill="#0987FF"/>
<path d="M304.84 192.55V192.61C304.331 193.974 303.746 195.31 303.09 196.61V196.61L303.04 196.71C302.69 197.38 302.34 198.02 301.99 198.62C301.83 198.893 301.67 199.153 301.51 199.4C301.04 200.17 300.51 200.87 300.07 201.51C299.78 201.89 299.5 202.26 299.21 202.6L299.11 202.71C298.95 202.9 298.79 203.09 298.63 203.26L298.51 203.4C298.23 203.71 297.96 203.99 297.69 204.25L297.15 204.77C296.87 205.02 296.6 205.26 296.33 205.48L295.86 205.86L295.47 206.15C295.19 206.36 294.92 206.54 294.66 206.71L322.6 205.51C323.35 204.96 324.12 204.51 324.91 204C322.27 205.37 320.54 206.4 321.38 204.36C321.415 204.273 321.459 204.189 321.51 204.11C322.93 201.37 329.51 197.11 329.51 197.11H329.64C331.06 196.57 337.82 193.11 341.93 181.34H342.06C343.72 175.622 344.082 169.606 343.12 163.73C342.43 162.73 341.02 161.86 338.12 162.22C332.66 162.91 314.01 166.67 309.74 167.53H309.64C308.593 167.737 307.599 168.158 306.723 168.768C305.847 169.378 305.107 170.164 304.55 171.074C303.992 171.985 303.63 173.001 303.486 174.059C303.341 175.117 303.418 176.193 303.71 177.22C304.1 178.57 304.49 179.86 304.85 181.05C304.85 181.05 305.02 181.6 305.27 182.36C306.197 185.305 306.197 188.464 305.27 191.41" stroke="#263238" stroke-miterlimit="10"/>
<path d="M304.84 192.55C304.97 192.19 305.11 191.82 305.24 191.45" stroke="#263238" stroke-miterlimit="10"/>
<path d="M395.61 181.38C386.98 188.83 372.73 188.2 367.7 187.71C367.321 186.727 366.684 185.865 365.858 185.212C365.031 184.559 364.044 184.141 363 184L342 181.36C343.658 175.642 344.017 169.625 343.05 163.75C343.497 164.428 343.721 165.229 343.69 166.04L393.85 175.53H394.05C394.285 175.67 394.512 175.824 394.73 175.99C396.66 177.47 397.29 179.93 395.61 181.38Z" fill="#263238" stroke="#263238" stroke-linecap="round" stroke-linejoin="round"/>
<path d="M168.45 188.59L143.79 202.09L144.79 213.86L212.37 209.68L247.37 196.42L184.18 185.55C178.749 184.936 173.261 185.996 168.45 188.59V188.59Z" fill="#263238" stroke="#263238" stroke-miterlimit="10"/>
<path d="M305.24 191.45L304.76 191.31C299.98 189.89 265.46 179.73 264.09 180.08C262.72 180.43 227.44 181.98 227.44 181.98L302 198.64C302.35 198.04 302.7 197.4 303.05 196.73L303.1 196.63L304.85 192.63V192.57" fill="#263238"/>
<path d="M305.24 191.45L304.76 191.31C299.98 189.89 265.46 179.73 264.09 180.08C262.72 180.43 227.44 181.98 227.44 181.98L302 198.64C302.35 198.04 302.7 197.4 303.05 196.73L303.1 196.63L304.85 192.63V192.57" stroke="#263238" stroke-miterlimit="10"/>
<path d="M322.56 205.53C301.87 220.1 295.21 255.6 295.06 256.53H294.81L293.62 256.6L266.62 258.33L266.48 258.03C253.97 230.03 231.64 230.2 231.64 230.2C210.45 228.2 203.21 239.65 201.77 253.2C201.432 256.794 201.408 260.411 201.7 264.01C192.34 264.86 185.01 265.54 182.7 265.8C182.968 265.534 183.199 265.235 183.39 264.91C189.27 254.41 191 245.59 195 238C196.212 237.284 197.378 236.493 198.49 235.63L198.6 235.55C199.548 234.838 200.431 234.045 201.24 233.18C201.828 232.595 202.385 231.981 202.91 231.34C202.91 231.34 206.72 224.83 216.33 218.94C222.74 215.01 231.75 211.36 243.95 210.09C253.31 209.09 263.17 208.33 272.77 207.69L322.56 205.53Z" fill="#0987FF" stroke="#263238" stroke-miterlimit="10"/>
<path d="M195 238C191 245.62 189.28 254.44 183.45 264.88C183.259 265.205 183.027 265.504 182.76 265.77V265.77C182.518 265.794 182.277 265.834 182.04 265.89C174.54 269.81 161.89 270.97 149.1 270.89H147.72H146.41C145.86 270.89 145.3 270.89 144.74 270.89C143.09 270.84 141.47 270.78 139.87 270.69C139.15 270.69 138.43 270.62 137.72 270.57H137.31L134.04 270.35L132.45 270.22L130.86 270.09C127.62 269.82 124.53 269.5 121.74 269.17L119.45 268.88L118.61 268.77C113.97 268.18 110.38 267.58 108.51 267.18C104.7 266.37 102.01 266.18 97.2 264.23C96.115 257.052 94.1468 250.035 91.34 243.34C86.78 232.81 79.79 224.65 70.1 227.34C63.88 229.05 60.89 234.24 59.7 240.49C59.6671 240.598 59.6437 240.708 59.63 240.82C57.27 253.9 62.56 271.37 62.56 271.37L54.56 266.44L58.64 265.3L53 240.43L57.22 236.63L60.6 227.52C60.6 227.52 75.75 217.75 77 216L78.92 215.92C84.69 216.78 90.85 220.83 92.92 222.92C95.66 225.65 97.62 229.06 100.27 231.87C105.44 237.38 105.54 238.52 113.4 241.56C113.4 241.56 113.87 241.67 114.77 241.85C123.48 243.6 171 252.29 195 238Z" fill="#0987FF" stroke="#263238" stroke-miterlimit="10"/>
<path d="M201.23 233.15C200.421 234.015 199.537 234.808 198.59 235.52C199.516 234.783 200.398 233.992 201.23 233.15V233.15Z" fill="#0987FF" stroke="#263238" stroke-miterlimit="10"/>
<path d="M216.32 218.91C206.71 224.8 202.9 231.31 202.9 231.31C202.376 231.951 201.818 232.566 201.23 233.15C200.421 234.015 199.538 234.808 198.59 235.52L198.48 235.6C196.57 236.97 195.39 237.19 194.99 237.97C190.99 245.59 189.27 254.41 183.44 264.85C183.25 265.175 183.018 265.474 182.75 265.74V265.74C182.508 265.764 182.268 265.804 182.03 265.86C174.53 269.78 161.88 270.94 149.09 270.86H147.71H146.4C145.85 270.86 145.29 270.86 144.73 270.86C143.08 270.81 141.46 270.75 139.86 270.66C139.14 270.66 138.42 270.59 137.71 270.54H137.3L134.03 270.32L132.44 270.19L130.85 270.06C127.61 269.79 124.52 269.47 121.73 269.14L119.44 268.85L118.6 268.74C117.83 267.54 118.6 258.42 118.6 258.42C118.6 258.42 116.39 250.36 114.83 242.01C113.83 236.63 113.08 231.11 113.35 227.55C114.08 218.44 122.94 212.62 122.94 212.62C132.65 208.06 143.78 202.25 143.78 202.25L144.78 214.01L212.36 209.84L216.32 218.91Z" fill="#0987FF" stroke="#263238" stroke-miterlimit="10"/>
<path d="M138.91 201.21C138.91 201.21 133.42 199.21 129.05 202.73L124.59 211.08C129.54 213.032 134.918 213.643 140.18 212.85C140.18 212.85 139.71 210.32 138.91 201.21Z" fill="#0987FF" stroke="#263238" stroke-miterlimit="10"/>
<path d="M131.11 203.7C130.659 204.041 130.287 204.475 130.019 204.973C129.751 205.471 129.594 206.021 129.559 206.585C129.524 207.149 129.612 207.714 129.815 208.242C130.019 208.769 130.335 209.246 130.74 209.64C133.38 212.3 138.94 210.64 139.35 210.64L138.51 203.04C138.51 203.04 136.05 200.91 131.11 203.7Z" fill="white"/>
<path d="M134.2 259C147.94 258.54 175.28 257.46 181.2 256" stroke="#263238" stroke-miterlimit="10"/>
<path d="M126.28 259.28L131.08 259.13" stroke="#263238" stroke-miterlimit="10"/>
<path d="M57.46 236.5C57.5163 237.18 57.7113 237.842 58.0329 238.443C58.3545 239.045 58.7959 239.575 59.33 240" fill="white"/>
<path d="M57.46 236.5C57.5163 237.18 57.7113 237.842 58.0329 238.443C58.3545 239.045 58.7959 239.575 59.33 240" stroke="#263238" stroke-miterlimit="10"/>
<path d="M294.81 256.5V256.51L293.62 256.57L294.81 256.5Z" fill="white" stroke="#263238" stroke-miterlimit="10"/>
<path d="M384.86 237.35C384.982 238.442 385.032 239.541 385.01 240.64C384.966 242.875 384.789 245.106 384.48 247.32C384.48 247.43 384.48 247.54 384.42 247.65C383.54 244.85 375.94 238.2 337.48 256.1L335.59 256.99C333.8 257.84 329.8 261.94 324.85 265.61C317.85 270.82 308.85 275.16 301.59 268.18C301.41 268 301.23 267.82 301.05 267.62C300.86 267.42 300.68 267.22 300.49 266.99C300.3 266.76 300.05 266.47 299.83 266.18C299.61 265.89 299.39 265.61 299.19 265.31L299 265C297.531 262.345 296.196 259.619 295 256.83C294.984 256.779 294.964 256.728 294.94 256.68C294.921 256.615 294.898 256.551 294.87 256.49H295.13H295.31C304.881 255.358 314.143 252.391 322.59 247.75C339.14 238.56 378.57 219.15 384.86 237.35Z" fill="#0987FF"/>
<path opacity="0.3" d="M384.86 237.35C384.982 238.442 385.032 239.541 385.01 240.64C384.966 242.875 384.789 245.106 384.48 247.32C384.48 247.43 384.48 247.54 384.42 247.65C383.54 244.85 375.94 238.2 337.48 256.1L335.59 256.99C333.8 257.84 329.8 261.94 324.85 265.61C317.85 270.82 308.85 275.16 301.59 268.18C301.41 268 301.23 267.82 301.05 267.62C300.86 267.42 300.68 267.22 300.49 266.99C300.3 266.76 300.05 266.47 299.83 266.18C299.61 265.89 299.39 265.61 299.19 265.31L299 265C297.531 262.345 296.196 259.619 295 256.83C294.984 256.779 294.964 256.728 294.94 256.68C294.921 256.615 294.898 256.551 294.87 256.49H295.13H295.31C304.881 255.358 314.143 252.391 322.59 247.75C339.14 238.56 378.57 219.15 384.86 237.35Z" fill="black"/>
<path d="M384.86 237.35C384.982 238.442 385.032 239.541 385.01 240.64C384.966 242.875 384.789 245.106 384.48 247.32C384.48 247.43 384.48 247.54 384.42 247.65C383.54 244.85 375.94 238.2 337.48 256.1L335.59 256.99C333.8 257.84 329.8 261.94 324.85 265.61C317.85 270.82 308.85 275.16 301.59 268.18C301.41 268 301.23 267.82 301.05 267.62C300.86 267.42 300.68 267.22 300.49 266.99C300.3 266.76 300.05 266.47 299.83 266.18C299.61 265.89 299.39 265.61 299.19 265.31L299 265C297.531 262.345 296.196 259.619 295 256.83C294.984 256.779 294.964 256.728 294.94 256.68C294.921 256.615 294.898 256.551 294.87 256.49H295.13H295.31C304.881 255.358 314.143 252.391 322.59 247.75C339.14 238.56 378.57 219.15 384.86 237.35Z" stroke="#263238" stroke-miterlimit="10"/>
<path d="M294.94 256.85C296.136 259.639 297.471 262.365 298.94 265.02L298.65 264.6C298.44 264.28 298.23 263.94 298.03 263.6C297.83 263.26 297.68 263.01 297.52 262.7C297.36 262.39 297.29 262.29 297.17 262.07C297.05 261.85 296.96 261.65 296.85 261.44L296.42 260.54C296.28 260.23 296.13 259.92 296 259.6C295.66 258.73 295.29 257.82 294.94 256.85Z" fill="#0987FF" stroke="#263238" stroke-miterlimit="10"/>
<path d="M384.15 234.09C384.53 235.14 384.769 236.237 384.86 237.35C378.57 219.15 339.14 238.56 322.53 247.71C314.084 252.351 304.821 255.318 295.25 256.45H295.07C295.12 256.2 295.44 254.45 296.07 251.81C296.45 250.31 296.92 248.49 297.52 246.46C297.85 245.34 298.23 244.15 298.63 242.9C299.45 240.4 300.43 237.68 301.58 234.9C302.73 232.12 304.05 229.18 305.58 226.3L306.51 224.57C306.82 224 307.15 223.42 307.51 222.86C307.87 222.3 308 222 308.26 221.59C308.427 221.303 308.607 221.013 308.8 220.72C309.05 220.32 309.31 219.91 309.58 219.51C309.85 219.11 310.3 218.42 310.67 217.88C311.05 217.35 311.43 216.81 311.82 216.29C312.21 215.77 312.63 215.23 313.04 214.71C313.45 214.19 313.81 213.77 314.2 213.31C314.59 212.85 314.99 212.4 315.39 211.96C316.1 211.18 316.83 210.43 317.59 209.7C317.84 209.46 318.09 209.22 318.35 208.99C318.61 208.76 318.87 208.52 319.13 208.3C319.39 208.08 319.74 207.76 320.05 207.51L320.72 206.96L321.55 206.33L322.02 205.97L322.5 205.63C322.6 205.554 322.703 205.484 322.81 205.42C323.48 204.95 324.14 204.53 324.81 204.11C326.802 202.915 328.914 201.933 331.11 201.18C331.11 201.18 341.64 197.86 357.11 198.34C363.585 198.518 370.024 199.352 376.33 200.83C378.506 201.343 380.59 202.186 382.51 203.33C379.29 207.806 377.776 213.286 378.24 218.78C378.82 225.36 382.05 230.65 383.61 233.32C383.703 233.461 383.78 233.612 383.84 233.77C383.949 233.871 384.053 233.978 384.15 234.09V234.09Z" fill="#0987FF"/>
<path opacity="0.2" d="M303 232.54C306.17 225.46 314.47 219.01 314.47 219.01C340.2 215.21 378.47 214.07 378.11 217.62H378.31C378.128 212.479 379.654 207.422 382.65 203.24C380.73 202.096 378.646 201.253 376.47 200.74C370.164 199.262 363.725 198.428 357.25 198.25C341.75 197.77 331.25 201.09 331.25 201.09C329.053 201.843 326.942 202.825 324.95 204.02C324.26 204.44 323.6 204.86 322.95 205.33C322.843 205.394 322.739 205.464 322.64 205.54L322.16 205.88L321.69 206.24L320.86 206.87L320.19 207.42C319.88 207.67 319.57 207.94 319.27 208.21C318.97 208.48 318.74 208.66 318.49 208.9C318.24 209.14 317.98 209.37 317.73 209.61C316.97 210.34 316.24 211.09 315.53 211.87C315.13 212.31 314.72 212.76 314.34 213.22C313.96 213.68 313.57 214.15 313.18 214.62C312.79 215.09 312.36 215.67 311.96 216.2C311.56 216.73 311.19 217.26 310.81 217.79C310.44 218.33 310.07 218.88 309.72 219.42C309.37 219.96 309.19 220.23 308.94 220.63C308.69 221.03 308.57 221.21 308.4 221.5C308.14 221.91 307.89 222.34 307.65 222.77C307.41 223.2 306.98 223.91 306.65 224.48L305.72 226.21C304.37 228.78 303.18 231.37 302.12 233.9H302.33L303 232.54Z" fill="black"/>
<path opacity="0.1" d="M384 233.67C383.94 233.512 383.863 233.361 383.77 233.22C382.21 230.55 378.98 225.22 378.4 218.68C378.4 218.33 378.35 217.97 378.33 217.61H378.13C378.45 214.06 340.22 215.2 314.49 219C314.49 219 306.19 225.45 303.02 232.53L302.25 233.93H302.04C301.92 234.23 301.78 234.54 301.66 234.84C300.51 237.65 299.53 240.37 298.71 242.84C298.31 244.09 297.93 245.28 297.6 246.4C297 248.4 296.53 250.25 296.15 251.75C295.49 254.44 295.15 256.14 295.15 256.39H295.33C304.901 255.258 314.164 252.291 322.61 247.65C339.22 238.5 378.61 219.09 384.94 237.29C384.849 236.177 384.61 235.08 384.23 234.03C384.16 233.906 384.083 233.786 384 233.67V233.67Z" fill="black"/>
<path d="M384.15 234.09C384.53 235.14 384.769 236.237 384.86 237.35C378.57 219.15 339.14 238.56 322.53 247.71C314.084 252.351 304.821 255.318 295.25 256.45H295.07C295.12 256.2 295.44 254.45 296.07 251.81C296.45 250.31 296.92 248.49 297.52 246.46C297.85 245.34 298.23 244.15 298.63 242.9C299.45 240.4 300.43 237.68 301.58 234.9C302.73 232.12 304.05 229.18 305.58 226.3L306.51 224.57C306.82 224 307.15 223.42 307.51 222.86C307.87 222.3 308 222 308.26 221.59C308.427 221.303 308.607 221.013 308.8 220.72C309.05 220.32 309.31 219.91 309.58 219.51C309.85 219.11 310.3 218.42 310.67 217.88C311.05 217.35 311.43 216.81 311.82 216.29C312.21 215.77 312.63 215.23 313.04 214.71C313.45 214.19 313.81 213.77 314.2 213.31C314.59 212.85 314.99 212.4 315.39 211.96C316.1 211.18 316.83 210.43 317.59 209.7C317.84 209.46 318.09 209.22 318.35 208.99C318.61 208.76 318.87 208.52 319.13 208.3C319.39 208.08 319.74 207.76 320.05 207.51L320.72 206.96L321.55 206.33L322.02 205.97L322.5 205.63C322.6 205.554 322.703 205.484 322.81 205.42C323.48 204.95 324.14 204.53 324.81 204.11C326.802 202.915 328.914 201.933 331.11 201.18C331.11 201.18 341.64 197.86 357.11 198.34C363.585 198.518 370.024 199.352 376.33 200.83C378.506 201.343 380.59 202.186 382.51 203.33C379.29 207.806 377.776 213.286 378.24 218.78C378.82 225.36 382.05 230.65 383.61 233.32C383.703 233.461 383.78 233.612 383.84 233.77C383.949 233.871 384.053 233.978 384.15 234.09V234.09Z" stroke="#263238" stroke-miterlimit="10"/>
<path d="M111.81 243.46C111.81 243.46 103.81 243.08 103.73 246.46C103.65 249.84 113.42 266.2 114.53 265.82C115.64 265.44 115.63 256.71 115.63 256.71L111.81 243.46Z" fill="#263238" stroke="#263238" stroke-miterlimit="10"/>
<path d="M257.43 229.8L272.57 251.06L276.68 250.3L268.81 231.19L257.43 229.8Z" fill="#263238" stroke="#263238" stroke-miterlimit="10"/>
<path d="M358.39 198.17C358 198.17 357.62 198.17 357.23 198.24C341.73 197.76 331.23 201.08 331.23 201.08C329.034 201.833 326.922 202.816 324.93 204.01C322.29 205.38 320.56 206.41 321.4 204.37C321.436 204.283 321.479 204.199 321.53 204.12C322.95 201.38 329.53 197.12 329.53 197.12H329.65L358.39 198.17Z" fill="#0987FF" stroke="#263238" stroke-miterlimit="10"/>
<path d="M234.79 178.17C243.52 179.85 250.37 180.9 259.04 180.33C259.04 180.33 263.96 175.78 266.28 176.28" stroke="#263238" stroke-miterlimit="10"/>
<path d="M294.94 256.5H295.06" stroke="#263238" stroke-miterlimit="10"/>
<path d="M331.79 288.17H330.2" stroke="#263238" stroke-miterlimit="10"/>
<path d="M314.45 219C314.45 219 306.15 225.45 302.98 232.53L302.21 233.93L349.26 223.55L357.99 221.27C363.805 219.804 369.938 220.249 375.48 222.54L379.12 223.68C378.246 221.783 377.901 219.686 378.12 217.61C378.41 214.07 340.18 215.21 314.45 219Z" fill="white"/>
<path d="M322.56 205.53L324.96 217.74" stroke="#263238" stroke-miterlimit="10"/>
<path d="M330.19 288.19C330 288.32 329.81 288.45 329.61 288.57" stroke="#263238" stroke-miterlimit="10"/>
<path d="M388.09 250.73H388.08" stroke="#263238" stroke-miterlimit="10"/>
<path d="M347.7 284.54C347.171 284.842 346.611 285.086 346.03 285.27H346C343.795 285.922 341.541 286.397 339.26 286.69H339.19C335.19 287.28 331.49 287.56 331.49 287.56L331.85 286.95C332.743 286.227 333.487 285.337 334.04 284.33C334.47 283.51 334.9 282.57 335.32 281.53C337.395 279.661 339.372 277.685 341.24 275.61C341.24 275.61 345.39 273.15 347.72 273.9C350.05 274.65 351.12 282.45 347.7 284.54Z" fill="white" stroke="#263238" stroke-miterlimit="10"/>
<path d="M345.88 276.76C345.88 276.76 343.21 278.85 344.39 283.59C344.39 283.59 346.86 281.5 345.88 276.76Z" fill="#263238" stroke="#263238" stroke-miterlimit="10"/>
<path d="M380.39 271.34C380.39 271.34 383.96 265.18 386.6 266.14C387.79 266.57 388.4 271.71 386.74 273.07C385.08 274.43 378.74 275.07 378.74 275.07C378.74 275.07 379.61 273.07 380.39 271.34Z" fill="white" stroke="#263238" stroke-miterlimit="10"/>
<path d="M386.62 267.52C386.62 267.52 385.33 268.88 385.98 271.98C386 272 387.17 270.62 386.62 267.52Z" fill="#263238"/>
<path d="M92.0003 250.66C93.1403 263.66 86.6503 274.29 77.5203 274.29C68.3903 274.29 60.0003 263.7 58.8703 250.66C57.7403 237.62 64.2103 227 73.3403 227C74.5644 227.002 75.7812 227.187 76.9503 227.55C84.5803 229.9 91.0003 239.35 92.0003 250.66Z" fill="#5C5C5C" stroke="#263238" stroke-linecap="round" stroke-linejoin="round"/>
<path d="M84.6502 248.8C85.6502 260.01 81.2802 269.09 74.9402 269.09C68.6002 269.09 62.6602 260 61.6802 248.8C60.7002 237.6 65.6802 229.09 72.0702 229.09C78.4602 229.09 83.6602 237.58 84.6502 248.8Z" fill="#263238" stroke="#263238" stroke-miterlimit="10"/>
<path d="M76.3055 267.864C81.4192 267.277 84.5856 258.274 83.3779 247.756C82.1702 237.238 77.0457 229.187 71.932 229.774C66.8183 230.361 63.6519 239.364 64.8596 249.882C66.0673 260.4 71.1918 268.451 76.3055 267.864Z" fill="#BFBFBF"/>
<path d="M133.23 242.59C144.687 242.954 156.155 242.472 167.54 241.15L188.43 238.73" stroke="#263238" stroke-miterlimit="10"/>
<path d="M125.27 242.26L129.06 242.42" stroke="#263238" stroke-miterlimit="10"/>
<path d="M118.63 241.96L122.77 242.15" stroke="#263238" stroke-miterlimit="10"/>
<path d="M267.27 176C267.27 176 263.27 175.54 259.04 180.3L264.04 180.05L267.27 176Z" fill="#263238" stroke="#263238" stroke-miterlimit="10"/>
<path d="M159.31 211.37L181.05 186.77L196.61 189.03L179.27 209.94L159.31 211.37Z" fill="white"/>
<path d="M184.2 209.82L200.3 189.62L204.57 190.34L189.6 209.58L184.2 209.82Z" fill="white"/>
<path d="M153.43 197.52L144.63 202.4L144.87 206.2L153.43 197.52Z" fill="white"/>
<path d="M232 195.21C232.141 196.059 232.033 196.93 231.691 197.72C231.349 198.509 230.786 199.183 230.07 199.66L223.92 203.76L243.67 196.71L232 195.21Z" fill="white"/>
<path d="M236.06 182.5L260.3 187.72C260.3 187.72 262.67 182.85 274.55 183.8L279.31 184.51L266 181.43V182.38L258.16 183.33L250.79 181.9" fill="white"/>
<path d="M201 236.35C201.17 236.5 223.8 234.35 223.71 234.35" stroke="#0987FF" stroke-miterlimit="10"/>
<path d="M197.1 242.47C202.8 241.99 213.04 241.66 213.31 241.66" stroke="#0987FF" stroke-miterlimit="10"/>
<path d="M199.93 247.3C200.12 247.37 209.39 247.1 211.88 246.92" stroke="#0987FF" stroke-miterlimit="10"/>
<path d="M192.82 255.27C192.82 254.85 203.06 254.41 206.98 254.14" stroke="#0987FF" stroke-miterlimit="10"/>
<path d="M199.23 263.09L206.36 262.6" stroke="#0987FF" stroke-miterlimit="10"/>
<path d="M59.5 234.25C62.59 234.44 62.5 234.34 65.56 234.53" stroke="#0987FF" stroke-miterlimit="10"/>
<path d="M57.5098 242.48L64.6198 243.09" stroke="#0987FF" stroke-miterlimit="10"/>
<path d="M56.1797 245.59L59.3697 245.86" stroke="#0987FF" stroke-miterlimit="10"/>
<path d="M302.23 213.44C317.044 210.665 332.079 209.245 347.15 209.2" stroke="#0987FF" stroke-miterlimit="10"/>
<path d="M307.18 215.71C312.371 214.771 317.634 214.279 322.91 214.24" stroke="#0987FF" stroke-miterlimit="10"/>
<path d="M293.69 237.49L318.99 234.54" stroke="#0987FF" stroke-miterlimit="10"/>
<path d="M290.13 241.43L307.23 239.2" stroke="#0987FF" stroke-miterlimit="10"/>
<path d="M59.3301 265.9C59.6801 266.39 60.9301 266.97 64.1401 268.04" stroke="#0987FF" stroke-miterlimit="10"/>
<path d="M96.8701 248C102.148 248.734 107.463 249.172 112.79 249.31" stroke="#0987FF" stroke-miterlimit="10"/>
<path d="M101.92 252.75C104.992 253.177 108.088 253.405 111.19 253.43" stroke="#0987FF" stroke-miterlimit="10"/>
<path d="M103.7 257.35C106.651 257.815 109.626 258.112 112.61 258.24" stroke="#0987FF" stroke-miterlimit="10"/>
<path d="M258.39 261.41L282.99 260.48" stroke="#5C5C5C" stroke-miterlimit="10"/>
<path d="M259.82 264.83L268.73 264.48" stroke="#5C5C5C" stroke-miterlimit="10"/>
<path d="M258.4 269.12L280.5 268.76" stroke="#5C5C5C" stroke-miterlimit="10"/>
<path d="M257.68 277.33L283.35 275.87" stroke="#5C5C5C" stroke-miterlimit="10"/>
<path d="M257.68 284.14L273 283.8" stroke="#5C5C5C" stroke-miterlimit="10"/>
<path d="M254.12 290.81L265.52 290.11" stroke="#5C5C5C" stroke-miterlimit="10"/>
<path d="M244.85 297.62C247.592 296.628 250.493 296.146 253.41 296.2" stroke="#5C5C5C" stroke-miterlimit="10"/>
<path d="M81.1602 271.4C86.0218 270.667 90.954 270.523 95.8502 270.97" stroke="#5C5C5C" stroke-miterlimit="10"/>
<path d="M85.1699 266.61H90.8699" stroke="#5C5C5C" stroke-miterlimit="10"/>
<path d="M86.5898 262.61L94.0798 262.28" stroke="#5C5C5C" stroke-miterlimit="10"/>
<path d="M89.0801 258.69L94.7901 258.35" stroke="#5C5C5C" stroke-miterlimit="10"/>
<path d="M89.4502 254.08L93.7302 254.4" stroke="#5C5C5C" stroke-miterlimit="10"/>
<path d="M339.33 263.27L377.46 259.27" stroke="#5C5C5C" stroke-miterlimit="10"/>
<path d="M333.6 268.37L363.89 265.47" stroke="#5C5C5C" stroke-miterlimit="10"/>
<path d="M328.61 273C340.02 272.29 343.23 271.57 354.99 270.5" stroke="#5C5C5C" stroke-miterlimit="10"/>
<path d="M298.32 277.49C299.03 278.2 327.9 276.77 327.54 276.77" stroke="#263238" stroke-miterlimit="10"/>
<path d="M302.24 281.76H301.08C309.31 281.39 310.76 281.03 318.99 280.65" stroke="#263238" stroke-miterlimit="10"/>
<path d="M300.1 274.46H310.1" stroke="#263238" stroke-miterlimit="10"/>
<path d="M304.38 285.5L327.19 284.81" stroke="#263238" stroke-miterlimit="10"/>
<path d="M146.81 103.75C165.06 95.4399 183.27 88.6799 201.61 84.2399C230.91 77.1299 289.08 76.4399 289.08 76.4399" stroke="#263238" stroke-miterlimit="10"/>
<path d="M124.42 114.67C128.86 112.383 133.293 110.167 137.72 108.02" stroke="#263238" stroke-miterlimit="10"/>
<path d="M373.21 114.06L374.81 114.28" stroke="#263238" stroke-miterlimit="10"/>
<path d="M363.87 112.8L367.65 113.3" stroke="#263238" stroke-miterlimit="10"/>
<path d="M351.33 111.2C353.53 111.47 355.74 111.74 357.94 112.03" stroke="#263238" stroke-miterlimit="10"/>
<path d="M235.71 110.72C253.497 107.715 271.523 106.342 289.56 106.62C308.43 106.922 327.271 108.238 346 110.56" stroke="#263238" stroke-miterlimit="10"/>
<path d="M201.84 119.4C208.632 117.044 215.541 115.041 222.54 113.4" stroke="#263238" stroke-miterlimit="10"/>
<path d="M282.41 62.57L288.47 61.35C370.1 50.85 417.27 77.55 417.27 77.55C418.32 68.15 413.95 50.34 404.55 49.29C400.48 48.8301 396.381 49.8487 393 52.16C391.606 46.0184 387.899 40.6505 382.648 37.1731C377.397 33.6957 371.008 32.3765 364.81 33.49C359.637 34.4141 354.906 36.9975 351.332 40.8495C347.757 44.7015 345.535 49.6126 345 54.84V55C344.321 53.8937 343.397 52.9579 342.3 52.2644C341.202 51.571 339.96 51.1384 338.67 51C336.437 50.7547 334.197 51.3936 332.43 52.78C332.445 47.8811 330.586 43.1618 327.233 39.5903C323.88 36.0188 319.287 33.8657 314.397 33.5728C309.506 33.2799 304.69 34.8693 300.934 38.015C297.178 41.1607 294.769 45.6242 294.2 50.49C293.796 50.0465 293.306 49.6914 292.758 49.447C292.211 49.2026 291.619 49.0743 291.02 49.07C283.87 49.66 282 59.89 282.41 62.57Z" fill="#0987FF"/>
<path opacity="0.3" d="M282.41 62.57L288.47 61.35C370.1 50.85 417.27 77.55 417.27 77.55C418.32 68.15 413.95 50.34 404.55 49.29C400.48 48.8301 396.381 49.8487 393 52.16C391.606 46.0184 387.899 40.6505 382.648 37.1731C377.397 33.6957 371.008 32.3765 364.81 33.49C359.637 34.4141 354.906 36.9975 351.332 40.8495C347.757 44.7015 345.535 49.6126 345 54.84V55C344.321 53.8937 343.397 52.9579 342.3 52.2644C341.202 51.571 339.96 51.1384 338.67 51C336.437 50.7547 334.197 51.3936 332.43 52.78C332.445 47.8811 330.586 43.1618 327.233 39.5903C323.88 36.0188 319.287 33.8657 314.397 33.5728C309.506 33.2799 304.69 34.8693 300.934 38.015C297.178 41.1607 294.769 45.6242 294.2 50.49C293.796 50.0465 293.306 49.6914 292.758 49.447C292.211 49.2026 291.619 49.0743 291.02 49.07C283.87 49.66 282 59.89 282.41 62.57Z" fill="white"/>
<path d="M102.58 97.45L105.81 95.25C150.72 68.98 184.81 72.87 184.81 72.87C183.09 67.14 176.15 57.87 170.42 59.57C167.944 60.3052 165.814 61.9058 164.42 64.08C162.093 60.853 158.613 58.6469 154.702 57.9205C150.79 57.1941 146.75 58.0034 143.42 60.18C140.637 61.9929 138.52 64.6632 137.391 67.7866C136.261 70.91 136.18 74.3164 137.16 77.49V77.58C136.538 77.1393 135.831 76.835 135.084 76.6872C134.336 76.5393 133.566 76.5513 132.824 76.7222C132.081 76.8932 131.384 77.2193 130.776 77.679C130.169 78.1388 129.666 78.7219 129.3 79.39C128.081 76.5603 125.832 74.3003 123.008 73.0685C120.184 71.8368 116.998 71.7256 114.095 72.7577C111.192 73.7898 108.791 75.8877 107.378 78.6256C105.966 81.3636 105.648 84.5364 106.49 87.5C106.143 87.3468 105.769 87.2676 105.39 87.2676C105.011 87.2676 104.636 87.3468 104.29 87.5C100.24 89.58 101.67 96 102.58 97.45Z" fill="#0987FF"/>
<path opacity="0.3" d="M102.58 97.45L105.81 95.25C150.72 68.98 184.81 72.87 184.81 72.87C183.09 67.14 176.15 57.87 170.42 59.57C167.944 60.3052 165.814 61.9058 164.42 64.08C162.093 60.853 158.613 58.6469 154.702 57.9205C150.79 57.1941 146.75 58.0034 143.42 60.18C140.637 61.9929 138.52 64.6632 137.391 67.7866C136.261 70.91 136.18 74.3164 137.16 77.49V77.58C136.538 77.1393 135.831 76.835 135.084 76.6872C134.336 76.5393 133.566 76.5513 132.824 76.7222C132.081 76.8932 131.384 77.2193 130.776 77.679C130.169 78.1388 129.666 78.7219 129.3 79.39C128.081 76.5603 125.832 74.3003 123.008 73.0685C120.184 71.8368 116.998 71.7256 114.095 72.7577C111.192 73.7898 108.791 75.8877 107.378 78.6256C105.966 81.3636 105.648 84.5364 106.49 87.5C106.143 87.3468 105.769 87.2676 105.39 87.2676C105.011 87.2676 104.636 87.3468 104.29 87.5C100.24 89.58 101.67 96 102.58 97.45Z" fill="white"/>
<path d="M446.77 134.14C427.672 129.985 408.194 127.83 388.65 127.71L382.48 128.09C382.41 125.38 385.7 115.5 392.88 115.88C393.479 115.965 394.054 116.173 394.57 116.489C395.086 116.806 395.532 117.225 395.88 117.72C397.134 113.003 400.139 108.942 404.283 106.364C408.426 103.786 413.397 102.884 418.183 103.843C422.968 104.801 427.208 107.548 430.039 111.524C432.87 115.499 434.079 120.404 433.42 125.24C434.461 124.633 435.618 124.253 436.816 124.123C438.014 123.994 439.226 124.119 440.373 124.49C441.519 124.861 442.575 125.469 443.47 126.276C444.366 127.082 445.081 128.068 445.57 129.17C445.57 129.17 446.41 132.44 446.77 134.14Z" fill="#0987FF"/>
<path opacity="0.3" d="M446.77 134.14C427.672 129.985 408.194 127.83 388.65 127.71L382.48 128.09C382.41 125.38 385.7 115.5 392.88 115.88C393.479 115.965 394.054 116.173 394.57 116.489C395.086 116.806 395.532 117.225 395.88 117.72C397.134 113.003 400.139 108.942 404.283 106.364C408.426 103.786 413.397 102.884 418.183 103.843C422.968 104.801 427.208 107.548 430.039 111.524C432.87 115.499 434.079 120.404 433.42 125.24C434.461 124.633 435.618 124.253 436.816 124.123C438.014 123.994 439.226 124.119 440.373 124.49C441.519 124.861 442.575 125.469 443.47 126.276C444.366 127.082 445.081 128.068 445.57 129.17C445.57 129.17 446.41 132.44 446.77 134.14Z" fill="white"/>
</svg>
