<svg width="504" height="513" viewBox="0 0 504 513" fill="none" xmlns="http://www.w3.org/2000/svg">
<path fill-rule="evenodd" clip-rule="evenodd" d="M303.5 1.05062C195.965 11.9236 115.143 110.834 131.979 210.957C132.534 214.257 132.991 218.195 132.994 219.707L133 222.457H111.575H90.15L88.673 217.417C87.86 214.644 85.252 204.519 82.877 194.917L78.558 177.457H39.279H0V194.457V211.457H25.981H51.962L52.531 213.707C52.844 214.945 63.795 257.807 76.867 308.957L100.633 401.957H234.492H368.35L371.501 385.181C375.095 366.048 374.288 367.456 383.56 364.152C584.507 292.558 515.506 -20.3874 303.5 1.05062ZM349.116 51.2156C356.985 59.7146 371.501 83.2896 369.869 84.9206C369.408 85.3816 349.326 88.0656 340.75 88.8116L335 89.3116V64.3366V39.3606L339.326 42.3366C341.705 43.9736 346.111 47.9686 349.116 51.2156ZM301 64.8616V89.2666L297.25 88.8976C295.188 88.6956 287.359 87.7896 279.853 86.8866L266.207 85.2436L268.198 80.7426C275.464 64.3166 294.261 40.7066 300.25 40.4846C300.663 40.4696 301 51.4386 301 64.8616ZM242.255 56.6826C241.688 57.3836 239.52 61.7816 237.436 66.4566C232.516 77.4936 233.172 77.0566 225.581 74.3346C217.618 71.4786 217.645 71.7306 224.731 66.3266C235.719 57.9476 245.652 52.4806 242.255 56.6826ZM401.079 58.7436C409.244 63.9876 418.217 71.2046 417.286 71.7796C412.766 74.5736 403 77.1066 403 75.4856C403 74.9516 400.835 69.9856 398.188 64.4506C395.541 58.9156 393.889 54.5836 394.517 54.8246C395.144 55.0656 398.097 56.8286 401.079 58.7436ZM204.259 102.314C209.342 104.436 215.3 106.825 217.5 107.625C222.171 109.322 222.138 109.027 219.205 122.957C217.225 132.358 214.885 149.386 213.466 164.707L212.841 171.457H189.42H166L166.009 168.207C166.047 154.442 176.274 125.692 187.708 107.209C194.016 97.0106 192.574 97.4366 204.259 102.314ZM449.769 108.707C460.753 127.015 471 156.639 471 170.086C471 171.264 467.132 171.449 447.27 171.225L423.54 170.957L422.283 156.957C421.591 149.257 419.832 136.657 418.373 128.957C414.138 106.598 413.607 109.399 422.681 106.201C426.981 104.685 432.75 102.358 435.5 101.029C442.974 97.4196 443.009 97.4376 449.769 108.707ZM268.5 119.831C274 120.655 282.1 121.6 286.5 121.932C290.9 122.264 295.962 122.764 297.75 123.042L301 123.548V147.502V171.457H274.038H247.075L247.628 164.707C249.527 141.537 254.324 117.134 256.839 117.856C257.753 118.118 263 119.007 268.5 119.831ZM382.841 123.557C384.834 131.8 387.832 151.81 388.561 161.744L389.274 171.457H362.137H335V147.518V123.58L339.25 123.054C341.587 122.765 348.45 122.033 354.5 121.427C360.55 120.821 368.875 119.763 373 119.077C381.646 117.637 381.379 117.516 382.841 123.557ZM213.358 209.207C213.699 211.27 213.983 215.094 213.989 217.707L214 222.457H191.138H168.276L167.138 216.79C166.512 213.673 166 209.848 166 208.29V205.457H189.369H212.738L213.358 209.207ZM301 213.957V222.457H274.969C255.02 222.457 248.845 222.165 248.545 221.207C248.329 220.52 247.953 216.695 247.71 212.707L247.267 205.457H274.134H301V213.957ZM388.991 208.707C388.987 210.494 388.699 214.32 388.352 217.207L387.721 222.457H361.361H335V213.957V205.457H362H389L388.991 208.707ZM470.451 210.207C467.544 230.789 458.877 253.906 447.394 271.707C442.45 279.373 442.892 279.189 436.377 276.278C433.695 275.079 427.675 272.654 423 270.889C418.325 269.123 414.572 267.291 414.66 266.818C414.749 266.344 415.983 260.203 417.404 253.17C420.18 239.433 422.976 217.93 422.991 210.207L423 205.457H447.061H471.123L470.451 210.207ZM360.67 258.707C360.369 259.945 355.793 284.132 350.5 312.457C345.207 340.782 340.631 364.969 340.33 366.207L339.783 368.457H233.392C174.876 368.457 127 368.228 127 367.947C127 367.667 120.7 342.825 113 312.744C105.3 282.662 99 257.692 99 257.254C99 256.815 157.999 256.457 230.108 256.457H361.217L360.67 258.707ZM410.75 302.698C418.7 305.549 416.133 308.859 397.323 320.008L393.146 322.484L398.323 311.479C401.17 305.427 403.725 300.471 404 300.466C404.275 300.461 407.313 301.465 410.75 302.698ZM130.5 414.324C81.377 428.439 82.203 498.125 131.644 510.873C168.11 520.275 204.442 482.044 191.383 448.011C190.849 446.62 195.327 446.457 234.01 446.457H277.233L276.57 449.207C264.571 498.956 324.057 533.351 359.976 497.433C386.82 470.588 375.763 426.379 339.31 414.802L331.924 412.457L234.212 412.528C144.83 412.593 135.988 412.746 130.5 414.324ZM151.444 448.724C169.119 458.735 154.772 485.464 136.566 476.442C130.914 473.642 128.67 470.155 128.238 463.502C127.396 450.538 140.224 442.369 151.444 448.724ZM331.329 447.821C341.603 452.114 344.108 465.584 336.118 473.575C324.883 484.81 306.472 474.747 309.428 458.986C311.195 449.572 322.151 443.986 331.329 447.821Z" fill="#0987FF"/>
</svg>
