<svg width="474" height="384" viewBox="0 0 474 384" fill="none" xmlns="http://www.w3.org/2000/svg">
<path d="M135 24.1001C131.16 22.0001 129.41 23.7501 128 22.0001C126.59 20.2501 131.85 15.7101 121.36 11.1601C121.36 11.1601 120.66 1.37008 106.36 1.02008C92.0601 0.670075 95.8301 10.8101 92.0001 13.2601C88.1701 15.7101 87.1001 11.8601 83.2501 14.2601C79.4001 16.6601 81.1601 21.6001 78.0101 22.2601C74.8601 22.9201 70.6701 19.1101 66.8201 21.5601C62.9701 24.0101 63.0001 26.2001 61.2201 26.2001C59.4401 26.2001 55.9701 24.8001 53.8701 26.2001C51.7701 27.6001 49.3301 29.3401 49.3301 29.3401H137.79C137.79 29.3401 138.84 26.2001 135 24.1001Z" stroke="#263238" stroke-width="0.686672" stroke-linecap="round" stroke-linejoin="round"/>
<path d="M82.6596 22.6602C82.1598 22.9473 81.6382 23.1947 81.0996 23.4002" stroke="#263238" stroke-width="0.686672" stroke-linecap="round" stroke-linejoin="round"/>
<path d="M101.591 6.33008C100.723 6.71977 99.9602 7.31018 99.3656 8.0526C98.7709 8.79503 98.3613 9.6682 98.1705 10.6001C97.5305 13.8001 96.0406 15.9301 94.3306 16.1401C92.6206 16.3501 86.2206 15.7201 85.1606 18.0601C84.8752 18.7501 84.6738 19.472 84.5605 20.2101" stroke="#263238" stroke-width="0.686672" stroke-linecap="round" stroke-linejoin="round"/>
<path d="M395 73.25C392 71.62 390.65 72.98 389.57 71.62C388.49 70.26 392.57 66.73 384.4 63.2C384.4 63.2 383.86 55.58 372.71 55.31C361.56 55.04 364.56 62.92 361.57 64.83C358.58 66.74 357.77 63.74 354.78 65.64C351.79 67.54 353.14 71.35 350.7 71.89C348.26 72.43 344.99 69.45 342 71.35C339.01 73.25 339 74.88 337.65 74.88C336.3 74.88 333.57 73.8 331.94 74.88C330.31 75.96 328.41 77.33 328.41 77.33H397.18C397.18 77.33 398 74.88 395 73.25Z" stroke="#263238" stroke-width="0.686672" stroke-linecap="round" stroke-linejoin="round"/>
<path d="M354.32 72.1401C353.929 72.3547 353.525 72.5451 353.11 72.7101" stroke="#263238" stroke-width="0.686672" stroke-linecap="round" stroke-linejoin="round"/>
<path d="M369 59.4402C368.326 59.7433 367.734 60.2025 367.273 60.7799C366.813 61.3572 366.496 62.0361 366.35 62.7602C365.85 65.2402 364.69 66.9002 363.35 67.0702C362.01 67.2402 357.05 66.7402 356.22 68.5602C355.998 69.0957 355.843 69.6566 355.76 70.2302" stroke="#263238" stroke-width="0.686672" stroke-linecap="round" stroke-linejoin="round"/>
<path d="M347.44 71.54H352.21" stroke="#263238" stroke-width="0.686672" stroke-linecap="round" stroke-linejoin="round"/>
<path d="M389.57 71.54H421.71C421.71 71.54 424.29 63.79 414.82 58.62C405.35 53.45 401.04 57.76 397.6 53.45C394.16 49.14 407.07 37.95 381.23 26.76C381.23 26.76 379.51 2.63998 344.23 1.75998C308.95 0.879981 318.4 25.87 308.92 31.9C299.44 37.93 296.87 28.46 287.39 34.49C277.91 40.52 282.23 52.57 274.48 54.29C266.73 56.01 256.39 46.54 246.92 52.57C237.45 58.6 237.45 63.77 233.14 63.77C228.83 63.77 220.22 60.32 215.05 63.77C209.88 67.22 203.86 71.52 203.86 71.52H342" stroke="#263238" stroke-width="0.686672" stroke-linecap="round" stroke-linejoin="round"/>
<path d="M285.93 55.0801C284.694 55.7749 283.41 56.383 282.09 56.9001" stroke="#263238" stroke-width="0.686672" stroke-linecap="round" stroke-linejoin="round"/>
<path d="M290.6 49.0001C290.881 47.1884 291.374 45.4162 292.07 43.7201C294.7 37.9401 310.47 39.5101 314.67 38.9901C318.87 38.4701 322.55 33.2101 324.13 25.3201C324.595 23.0257 325.6 20.8753 327.063 19.0475C328.526 17.2196 330.403 15.7669 332.54 14.8101" stroke="#263238" stroke-width="0.686672" stroke-linecap="round" stroke-linejoin="round"/>
<path d="M145.39 321.67H183.8V368.67C183.8 372.383 182.325 375.944 179.699 378.57C177.074 381.195 173.513 382.67 169.8 382.67H159.39C155.677 382.67 152.116 381.195 149.49 378.57C146.865 375.944 145.39 372.383 145.39 368.67V321.67Z" fill="#263238" stroke="#263238" stroke-linecap="round" stroke-linejoin="round"/>
<path d="M399.2 321.67H437.61V368.67C437.61 372.383 436.135 375.944 433.51 378.57C430.884 381.195 427.323 382.67 423.61 382.67H413.2C409.487 382.67 405.926 381.195 403.301 378.57C400.675 375.944 399.2 372.383 399.2 368.67V321.67Z" fill="#263238" stroke="#263238" stroke-linecap="round" stroke-linejoin="round"/>
<path d="M452.17 195C449.26 191.6 437.59 190.14 431.75 189.65C425.91 189.16 424.46 194.51 424.46 199.38C424.46 204.25 425.46 211.53 424.46 213.48L423.46 215.42L412.3 186.25L387.15 135.93C385.801 133.18 383.559 130.97 380.79 129.66C379.453 129.042 378.055 128.563 376.62 128.23L287.56 126C285.067 125.94 282.573 125.94 280.08 126L201 128.23C199.867 128.781 198.949 129.692 198.39 130.82C198.39 130.82 168.24 191.6 164.84 200.35C161.44 209.1 159.49 216.35 159.49 216.35C158.865 215.809 158.367 215.137 158.032 214.382C157.697 213.626 157.532 212.806 157.55 211.98C157.55 209.06 157.55 192.98 156.55 190.58C155.55 188.18 138.55 190.58 131.27 194.96C123.99 199.34 128.35 207.6 134.67 211.01C139.085 213.178 143.868 214.497 148.77 214.9L155.1 224.13C155.1 224.13 146.83 232.89 145.86 235.8C144.89 238.71 140.99 269.8 140.99 279.57C140.99 289.34 142.45 322.35 144.88 327.22C147.31 332.09 153.63 338 157 338.93C160.37 339.86 296.55 343.79 296.55 343.79L421.55 340.87C421.55 340.87 432.74 344.27 437.11 321.87C441.48 299.47 440.51 280.54 440.51 267.87C440.51 255.2 439.51 237.72 437.6 233.87C435.69 230.02 429.82 225.12 428.85 223.66C427.88 222.2 431.28 212.96 431.28 212.96C431.28 212.96 448.78 211.5 452.18 209.07C455.58 206.64 455.09 198.4 452.17 195Z" fill="#0987FF" stroke="#263238" stroke-linecap="round" stroke-linejoin="round"/>
<path d="M199.34 192.45C199.34 192.45 185 205.58 237 211C289 216.42 345 225.88 357 231.25L368.94 236.63L394 224.69C394 224.69 382 211 349.78 205.58C317.56 200.16 256.65 196.63 235.78 189.47C214.91 182.31 199.34 186.48 199.34 192.45Z" fill="white"/>
<path d="M228.21 288.48L233.32 304.95" stroke="#263238" stroke-linecap="round" stroke-linejoin="round"/>
<path d="M356.58 288.48L351.47 304.95" stroke="#263238" stroke-linecap="round" stroke-linejoin="round"/>
<path d="M166.93 203.92C166.93 203.92 169.45 217.56 182.73 224.02C196.01 230.48 227.24 248.79 227.24 248.79" stroke="#263238" stroke-linecap="round" stroke-linejoin="round"/>
<path d="M416.43 203.92C416.43 203.92 413.92 217.56 400.64 224.02C387.36 230.48 356.12 248.79 356.12 248.79" stroke="#263238" stroke-linecap="round" stroke-linejoin="round"/>
<path d="M175.91 276.8L199.24 302.64" stroke="#263238" stroke-linecap="round" stroke-linejoin="round"/>
<path d="M405.3 277.51L383.76 304.8" stroke="#263238" stroke-linecap="round" stroke-linejoin="round"/>
<path d="M361.51 255.97H371.95" stroke="#263238" stroke-linecap="round" stroke-linejoin="round"/>
<path d="M223.29 255.97H210.65" stroke="#263238" stroke-linecap="round" stroke-linejoin="round"/>
<path d="M142.17 307.49C142.83 316.71 143.75 325.01 144.87 327.26C147.31 332.12 153.63 337.95 157.03 338.93C160.43 339.91 296.58 343.79 296.58 343.79L421.58 340.87C421.58 340.87 432.77 344.27 437.14 321.87C438.14 316.87 438.82 312.07 439.33 307.45L142.17 307.49Z" fill="#757575" stroke="#263238" stroke-linecap="round" stroke-linejoin="round"/>
<path d="M242.26 322H230.44L216.53 341.31C254.53 342.55 296.53 343.75 296.53 343.75L367.62 342.09L353.21 322H341.39L291.82 322.87L242.26 322Z" fill="#ABABAB" stroke="#263238" stroke-linecap="round" stroke-linejoin="round"/>
<path d="M197.39 137.14C197.39 137.14 174.53 197.43 174.53 199.38C174.53 201.33 312.63 198.89 312.63 198.89H407C407 198.89 409.92 196.95 408.46 190.14C407 183.33 383.67 138.6 383.67 138.6C383.67 138.6 297.6 135.19 271.83 135.19C246.06 135.19 197.39 137.14 197.39 137.14Z" fill="#263238" stroke="#263238" stroke-linecap="round" stroke-linejoin="round"/>
<path opacity="0.2" d="M189.86 160.93L227.43 199.3H201.45L182.66 180.91L189.86 160.93Z" fill="white"/>
<path opacity="0.2" d="M266.21 138.72L405.3 188.27L399.33 172.75L319.94 138.72H266.21Z" fill="white"/>
<path d="M414.73 229C414.73 229 396.26 233.86 387.51 239.69C378.76 245.52 374.86 248.93 371.95 256.69C369.04 264.45 369 277.17 369 277.17C369 277.17 416.65 270.37 424.92 265.5C433.19 260.63 433.67 249.95 434.15 246.06C434.431 243.618 434.268 241.145 433.67 238.76L414.73 229Z" fill="white" stroke="#263238" stroke-linecap="round" stroke-linejoin="round"/>
<path d="M383.65 259.69V271.65" stroke="#263238" stroke-linecap="round" stroke-linejoin="round"/>
<path d="M383.65 254.65V257.02" stroke="#263238" stroke-linecap="round" stroke-linejoin="round"/>
<path d="M389.17 252.52V269.52" stroke="#263238" stroke-linecap="round" stroke-linejoin="round"/>
<path d="M394.7 264.26V267.38" stroke="#263238" stroke-linecap="round" stroke-linejoin="round"/>
<path d="M394.7 250.39V261.79" stroke="#263238" stroke-linecap="round" stroke-linejoin="round"/>
<path d="M400.22 248.26V265.25" stroke="#263238" stroke-linecap="round" stroke-linejoin="round"/>
<path d="M405.74 260.83V263.12" stroke="#263238" stroke-linecap="round" stroke-linejoin="round"/>
<path d="M405.74 246.13V258.16" stroke="#263238" stroke-linecap="round" stroke-linejoin="round"/>
<path d="M411.271 244V260.99" stroke="#263238" stroke-linecap="round" stroke-linejoin="round"/>
<path d="M416.79 253.97V258.86" stroke="#263238" stroke-linecap="round" stroke-linejoin="round"/>
<path d="M416.79 241.86V250.73" stroke="#263238" stroke-linecap="round" stroke-linejoin="round"/>
<path d="M422.32 239.73V256.73" stroke="#263238" stroke-linecap="round" stroke-linejoin="round"/>
<path d="M167.86 229C167.86 229 186.34 233.86 195.09 239.69C203.84 245.52 207.73 248.93 210.65 256.69C213.57 264.45 213.57 277.11 213.57 277.11C213.57 277.11 165.92 270.31 157.65 265.44C149.38 260.57 148.9 249.89 148.41 246C148.135 243.557 148.301 241.084 148.9 238.7L167.86 229Z" fill="white" stroke="#263238" stroke-linecap="round" stroke-linejoin="round"/>
<path d="M197.65 259.69V271.65" stroke="#263238" stroke-linecap="round" stroke-linejoin="round"/>
<path d="M197.65 254.65V257.02" stroke="#263238" stroke-linecap="round" stroke-linejoin="round"/>
<path d="M192.13 252.52V269.52" stroke="#263238" stroke-linecap="round" stroke-linejoin="round"/>
<path d="M186.6 264.26V267.38" stroke="#263238" stroke-linecap="round" stroke-linejoin="round"/>
<path d="M186.6 250.39V261.79" stroke="#263238" stroke-linecap="round" stroke-linejoin="round"/>
<path d="M181.08 248.26V265.25" stroke="#263238" stroke-linecap="round" stroke-linejoin="round"/>
<path d="M175.55 260.83V263.12" stroke="#263238" stroke-linecap="round" stroke-linejoin="round"/>
<path d="M175.55 246.13V258.16" stroke="#263238" stroke-linecap="round" stroke-linejoin="round"/>
<path d="M170.03 244V260.99" stroke="#263238" stroke-linecap="round" stroke-linejoin="round"/>
<path d="M164.5 253.97V258.86" stroke="#263238" stroke-linecap="round" stroke-linejoin="round"/>
<path d="M164.5 241.86V250.73" stroke="#263238" stroke-linecap="round" stroke-linejoin="round"/>
<path d="M158.98 239.73V256.73" stroke="#263238" stroke-linecap="round" stroke-linejoin="round"/>
<path d="M228 286.13C225.685 276.217 224.111 266.146 223.29 256L236.22 250.26L289.1 250.96L348.58 250.26L361.51 256C360.704 266.155 359.143 276.236 356.84 286.16L228 286.13ZM234.91 308.75C238.46 317.75 242.05 323.61 244.91 325.26C249.15 327.73 259.28 331.92 289.24 330.37C325.67 331.92 335.81 327.73 340.05 325.26C342.87 323.61 346.46 317.79 350.05 308.75H234.91Z" fill="#263238" stroke="#263238" stroke-linecap="round" stroke-linejoin="round"/>
<path d="M361.51 256L348.58 250.26L289.1 250.96L236.22 250.26L223.29 256C223.29 256 223.34 256.71 223.45 258L265.66 263.56L272.12 267.15H312.32L318.79 263.56L361.34 258C361.46 256.71 361.51 256 361.51 256Z" fill="#757575" stroke="#263238" stroke-linecap="round" stroke-linejoin="round"/>
<path d="M348.58 250.23L289.1 250.93L236.22 250.23L231.37 252.38H257.4L263.86 254.9H322.38L327.04 252.74H354.24L348.58 250.23Z" fill="#263238" stroke="#263238" stroke-linecap="round" stroke-linejoin="round"/>
<path d="M225.45 272.13L229.04 267.82H238.37C244.165 269.303 250.056 270.382 256 271.05C265.7 272.13 335.34 271.05 335.34 271.05L347.9 268.18H355L358.59 273.92L312.64 278.92L304.75 281.79H277.5L270.68 277.84L225.45 272.13Z" fill="#757575" stroke="#263238" stroke-linecap="round" stroke-linejoin="round"/>
<path d="M350 279.67L337.09 284H247.35L234.42 279.69L226.42 278.8C226.87 281.16 227.42 283.62 227.98 286.15H356.84C357.35 283.94 357.84 281.78 358.23 279.69L350 279.67Z" fill="#757575" stroke="#263238" stroke-linecap="round" stroke-linejoin="round"/>
<path d="M202.11 331.36L205.7 324.9C201.978 319.231 196.393 315.039 189.91 313.05C178.78 309.46 166.57 307.67 162.62 309.1C158.67 310.53 157.62 320.95 158.32 323.82C159.02 326.69 162.32 329.21 162.32 329.21L202.11 331.36Z" fill="#474747"/>
<path d="M189.91 313.05C184.228 311.211 178.396 309.873 172.48 309.05C171.695 309.391 170.989 309.89 170.406 310.516C169.822 311.143 169.375 311.883 169.09 312.69C166.57 318.8 166.93 323.11 170.52 327.77C171.07 328.49 171.682 329.159 172.35 329.77L202.11 331.38L205.7 324.92C201.982 319.243 196.397 315.045 189.91 313.05Z" fill="#263238"/>
<path d="M185.241 320.05C185.241 321.506 184.809 322.929 184 324.139C183.191 325.35 182.042 326.293 180.697 326.85C179.352 327.407 177.872 327.553 176.445 327.269C175.017 326.985 173.706 326.284 172.676 325.254C171.647 324.225 170.946 322.914 170.662 321.486C170.378 320.058 170.524 318.579 171.081 317.234C171.638 315.889 172.581 314.739 173.792 313.931C175.002 313.122 176.425 312.69 177.881 312.69C178.847 312.689 179.805 312.878 180.699 313.248C181.592 313.617 182.404 314.159 183.088 314.843C183.771 315.527 184.314 316.339 184.683 317.232C185.052 318.126 185.242 319.083 185.241 320.05Z" fill="#ABABAB" stroke="#263238" stroke-linecap="round" stroke-linejoin="round"/>
<path d="M381.76 331.36L378.17 324.9C381.905 319.226 387.504 315.035 394 313.05C405.12 309.46 417.33 307.67 421.28 309.1C425.23 310.53 426.28 320.95 425.59 323.82C424.9 326.69 421.64 329.21 421.64 329.21L381.76 331.36Z" fill="#474747"/>
<path d="M394 313.05C399.682 311.209 405.514 309.871 411.43 309.05C412.215 309.392 412.92 309.891 413.504 310.518C414.087 311.144 414.535 311.883 414.82 312.69C417.33 318.8 416.97 323.11 413.38 327.77C412.831 328.49 412.218 329.159 411.55 329.77L381.79 331.38L378.2 324.92C381.924 319.244 387.512 315.046 394 313.05Z" fill="#263238"/>
<path d="M412.775 322.827C414.323 319.068 412.532 314.766 408.773 313.218C405.015 311.67 400.713 313.461 399.165 317.22C397.616 320.978 399.408 325.28 403.166 326.828C406.925 328.376 411.227 326.585 412.775 322.827Z" fill="#ABABAB" stroke="#263238" stroke-linecap="round" stroke-linejoin="round"/>
<path d="M198.88 136.79H204.63C204.63 136.79 206.4 129.17 211.97 127.41H216.47C216.47 127.41 212.88 123.15 207.47 123.87C202.06 124.59 198.88 128.89 198.88 136.79Z" fill="white" stroke="#263238" stroke-linecap="round" stroke-linejoin="round"/>
<path d="M211.82 124.32C202.71 126.64 204.63 136.79 204.63 136.79C204.63 136.79 206.4 129.17 211.97 127.41H216.47C215.194 126.018 213.598 124.957 211.82 124.32V124.32Z" fill="#263238" stroke="#263238" stroke-linecap="round" stroke-linejoin="round"/>
<path d="M383.05 136.79H377.3C377.3 136.79 375.53 129.17 369.95 127.41H365.45C365.45 127.41 369.04 123.15 374.45 123.87C379.86 124.59 383.05 128.89 383.05 136.79Z" fill="white" stroke="#263238" stroke-linecap="round" stroke-linejoin="round"/>
<path d="M370.11 124.32C379.22 126.64 377.3 136.79 377.3 136.79C377.3 136.79 375.53 129.17 369.95 127.41H365.45C366.731 126.019 368.33 124.959 370.11 124.32V124.32Z" fill="#263238" stroke="#263238" stroke-linecap="round" stroke-linejoin="round"/>
<path d="M209 199.87L263 196L273.17 192.5C273.17 192.5 312.11 191.09 339.12 195.3H270.72" stroke="#8A8A8A" stroke-linecap="round" stroke-linejoin="round"/>
<path d="M192.23 120.05C192.23 120.05 199.23 120.98 202.76 127.05C206.29 133.12 216.62 155.69 216.62 155.69C216.62 155.69 227 148 230.85 146.48C234.7 144.96 241.2 148.48 242.68 153.87C244.16 159.26 242.68 162.56 238.8 166.81C234.92 171.06 216.25 187.33 211.45 188.43C206.65 189.53 202.94 187.7 201.28 181.6C199.62 175.5 190.19 121.72 190.19 121.72C190.19 121.72 189.45 119.5 192.23 120.05Z" fill="white" stroke="#263238" stroke-miterlimit="10"/>
<path d="M124.72 226.53C124.633 228.558 124.89 230.587 125.48 232.53C126.4 234.82 128.23 238.64 128.23 240.62C128.23 242.6 128.84 247.34 127.93 247.95C127.02 248.56 126.55 246.27 126.4 245.35C126.168 244.413 125.86 243.497 125.48 242.61C125.48 242.61 126.25 248.71 126.25 250.85C126.25 252.99 129.76 252.99 128.69 254.85C127.62 256.71 125.79 255.61 123.5 254.85C121.21 254.09 118 252.25 118 246.45C118 240.65 118.16 227.83 118.16 227.83L124.72 226.53Z" fill="white" stroke="#263238" stroke-miterlimit="10"/>
<path d="M117 219.81L116.64 225.95C116.573 227.081 116.934 228.196 117.651 229.074C118.367 229.952 119.388 230.529 120.51 230.69V230.69C121.676 230.858 122.861 230.564 123.814 229.871C124.766 229.178 125.411 228.141 125.61 226.98L126.69 220.72L117 219.81Z" fill="white" stroke="#263238" stroke-miterlimit="10"/>
<path d="M133.27 122.82C133.27 122.82 126.68 123.23 123.35 130.82C122.15 133.55 110.93 215.59 111.84 218.62C112.75 221.65 120.92 224.98 124.84 223.77C128.76 222.56 130.59 220.44 131.2 218.01C131.81 215.58 136.04 126.28 136.04 126.28C136.104 125.868 136.083 125.447 135.976 125.044C135.869 124.641 135.679 124.264 135.418 123.939C135.157 123.613 134.832 123.345 134.462 123.153C134.092 122.96 133.686 122.847 133.27 122.82Z" fill="white" stroke="#263238" stroke-miterlimit="10"/>
<path d="M128.189 197.71C128.189 197.71 128.489 206.49 128.799 211.33C129.109 216.17 143.329 343.94 142.419 349.39C141.509 354.84 138.789 356.05 139.419 359.68C140.049 363.31 141.839 371.19 141.839 371.19H159.999C159.999 371.19 163.939 366.35 163.329 362.71C162.719 359.07 159.699 352.12 159.699 349.09C159.699 346.06 162.419 235.86 162.419 235.86L166.959 236.46C166.959 236.46 175.139 354.54 174.529 356.96C173.919 359.38 172.109 361.5 172.109 362.71C172.109 363.92 176.349 371.79 176.349 371.79L196.939 368.46C196.939 368.46 197.839 354.84 197.239 352.12C196.639 349.4 193.609 346.36 193.609 346.36L196.939 262.2L200.569 208.61L199.359 197.71H128.189Z" fill="#263238" stroke="#263238" stroke-miterlimit="10"/>
<path d="M199.339 197.71H128.189C128.189 197.71 128.269 199.92 128.379 202.71H199.899L199.339 197.71Z" fill="#757575" stroke="#263238" stroke-linecap="round" stroke-linejoin="round"/>
<path d="M139.47 199.34H136.25V204.71H139.47V199.34Z" fill="#263238" stroke="#263238" stroke-miterlimit="10"/>
<path d="M189.44 199.34H186.22V204.71H189.44V199.34Z" fill="#263238" stroke="#263238" stroke-miterlimit="10"/>
<path d="M169.229 197.95H159.109V202.45H169.229V197.95Z" fill="white" stroke="#263238" stroke-miterlimit="10"/>
<path d="M154.339 113.77C154.339 113.77 134.189 120.98 133.269 122.77C132.349 124.56 126.269 183.39 125.509 186.17C124.749 188.95 123.289 193.56 124.579 195.78C125.491 197.232 126.684 198.486 128.089 199.47H199.429C199.429 199.47 203.679 197.26 204.429 193.56C204.845 190.802 204.845 187.997 204.429 185.24L192.239 120L179.479 115L162.999 113.77H154.339Z" fill="white" stroke="#263238" stroke-miterlimit="10"/>
<path d="M138.09 182.73L178.6 157.27" stroke="#263238" stroke-linecap="round" stroke-linejoin="round"/>
<path d="M130.909 187.24L133.399 185.68" stroke="#263238" stroke-linecap="round" stroke-linejoin="round"/>
<path d="M147.26 171.8L176.33 152.27" stroke="#263238" stroke-linecap="round" stroke-linejoin="round"/>
<path d="M157.48 121.9L163.02 130.4L156.93 184L164.13 196.2L173.19 182.89L165.61 130.59L172.08 122.64L164.32 114.32L157.48 121.9Z" fill="#263238" stroke="#263238" stroke-miterlimit="10"/>
<path d="M156 100.28L156.93 111.92C156.93 111.92 161.18 118.76 164.32 118.76C167.46 118.76 175.22 112.11 175.22 112.11V99.3499C175.22 99.3499 167.09 105.08 163.58 104.16C160.873 103.254 158.318 101.946 156 100.28Z" fill="white" stroke="#263238" stroke-miterlimit="10"/>
<path d="M163.58 104.16C160.873 103.254 158.318 101.946 156 100.28L156.84 110.82C158.94 112.89 166.78 112.82 168.4 111.73C170.02 110.64 173.4 105.17 175.22 101.22V99.3499C175.22 99.3499 167.09 105.08 163.58 104.16Z" fill="#263238" stroke="#263238" stroke-miterlimit="10"/>
<path d="M162.28 118.02L155.26 130.22L149.35 114.69L155.82 107.3L162.28 118.02Z" fill="white" stroke="#263238" stroke-miterlimit="10"/>
<path d="M167.64 117.47L173.19 130.59L180.95 115.25L175.78 108.22L167.64 117.47Z" fill="white" stroke="#263238" stroke-miterlimit="10"/>
<path d="M180.68 78.7799C180.68 78.7799 183.62 73.7799 185.17 78.4299C185.713 80.2481 185.673 82.191 185.054 83.9849C184.435 85.7789 183.269 87.3335 181.72 88.4299C179.82 89.4299 179.3 87.0499 179.3 87.0499L180.68 78.7799Z" fill="white" stroke="#263238" stroke-miterlimit="10"/>
<path d="M149.77 79.2999C149.77 79.2999 148.21 74.8099 145.77 77.7399C143.33 80.6699 147.15 86.7399 148.36 88.0999C149.57 89.4599 150.95 88.9699 151.3 87.9299C151.65 86.8899 149.77 79.2999 149.77 79.2999Z" fill="white" stroke="#263238" stroke-miterlimit="10"/>
<path d="M148.92 59.9999C148.92 59.9999 147.17 66.4199 147.46 68.7499C147.75 71.0799 150.38 88.8799 151.25 93.2599C152.12 97.6399 157.38 103.18 158.55 105.81C159.72 108.44 168.76 108.43 170.55 107.27C172.34 106.11 176.68 98.7999 178.14 95.0099C179.6 91.2199 181 77.7699 181 73.9999C181 70.2299 184.21 64.9999 183.92 61.1699C183.63 57.3399 176.04 52.4099 172.25 50.9499C168.46 49.4899 166.71 50.0799 164.67 48.0399C162.63 45.9999 159.67 42.7799 154.74 44.5299C149.81 46.2799 154.74 50.6599 152.41 51.2499C150.08 51.8399 141.32 43.9499 139.57 52.1199C137.82 60.2899 148.92 59.9999 148.92 59.9999Z" fill="white" stroke="#263238" stroke-miterlimit="10"/>
<path d="M183.93 61.1399C183.64 57.3399 176.05 52.3799 172.26 50.9199C168.47 49.4599 166.72 50.0499 164.68 48.0099C162.64 45.9699 159.68 42.7499 154.75 44.4999C149.82 46.2499 154.75 50.6299 152.42 51.2199C150.09 51.8099 141.33 43.9199 139.58 52.0899C137.83 60.2599 148.92 59.9699 148.92 59.9699C148.92 59.9699 147.17 66.3899 147.46 68.7199C147.6 69.8199 148.25 74.3299 148.99 79.2599L149.25 79.4699C149.25 79.4699 150.11 78.2599 149.25 74.1199C148.39 69.9799 150.63 70.6599 150.63 68.7599C150.63 66.8599 152.01 62.0299 153.91 61.3399C155.81 60.6499 159.26 63.9299 162.2 62.8899C165.14 61.8499 169.11 58.0499 172.91 59.7799C176.71 61.5099 174.63 68.7799 175.33 69.7799C176.03 70.7799 178.26 71.3299 178.26 75.1299C178.26 78.9299 177.57 82.3899 178.95 82.8999C179.189 82.9718 179.442 82.9791 179.684 82.9211C179.927 82.8631 180.15 82.742 180.33 82.5699C180.75 78.9399 181.01 75.5699 181.01 73.9499C181 70.1799 184.22 64.9299 183.93 61.1399Z" fill="#263238" stroke="#263238" stroke-miterlimit="10"/>
<path d="M160.76 93.24C160.76 93.24 165.76 95.75 169.81 91.73" stroke="#263238" stroke-linecap="round" stroke-linejoin="round"/>
<path d="M158.75 72.5598L160.65 76.5598C160.65 76.5598 159.44 89.6898 159.95 90.0298C160.46 90.3698 167.95 88.6498 167.95 87.0998C167.973 86.2144 167.667 85.3519 167.09 84.6798" stroke="#263238" stroke-linecap="round" stroke-linejoin="round"/>
<path d="M157.349 68.0798C157.349 68.0798 150.439 68.0798 150.439 68.7698C150.439 69.4598 151.129 69.7698 152.169 69.6398C153.209 69.5098 156.479 69.4598 157.169 69.2898C157.859 69.1198 157.349 68.0798 157.349 68.0798Z" fill="#263238" stroke="#263238" stroke-linecap="round" stroke-linejoin="round"/>
<path d="M171.699 67.1799C171.699 67.1799 164.789 67.1799 164.789 67.8699C164.789 68.5599 165.479 68.8699 166.519 68.7399C167.559 68.6099 170.839 68.5599 171.519 68.3899C172.199 68.2199 171.699 67.1799 171.699 67.1799Z" fill="#263238" stroke="#263238" stroke-linecap="round" stroke-linejoin="round"/>
<path d="M169.279 78.2599C169.279 79.3099 168.859 80.1599 168.329 80.1599C167.799 80.1599 167.329 79.3099 167.329 78.2599C167.329 77.2099 167.759 76.3599 168.329 76.3599C168.899 76.3599 169.279 77.2099 169.279 78.2599Z" fill="#263238"/>
<path d="M157.189 78.2599C157.189 79.3099 156.769 80.1599 156.239 80.1599C155.709 80.1599 155.239 79.3099 155.239 78.2599C155.239 77.2099 155.669 76.3599 156.239 76.3599C156.809 76.3599 157.189 77.2099 157.189 78.2599Z" fill="#263238"/>
<path d="M216.62 155.72C216.62 155.72 207.57 163.3 205.35 168.11Z" fill="white"/>
<path d="M216.62 155.72C216.62 155.72 207.57 163.3 205.35 168.11" stroke="#263238" stroke-miterlimit="10"/>
<path d="M212.369 159.6C212.369 159.6 206.089 162.75 202.569 166.81Z" fill="white"/>
<path d="M212.369 159.6C212.369 159.6 206.089 162.75 202.569 166.81" stroke="#263238" stroke-miterlimit="10"/>
<path d="M263.199 147.41C263.199 147.41 268.369 145.93 269.479 143.71C270.589 141.49 270.399 140.01 269.109 141.12C267.819 142.23 266.339 143.12 265.779 143.71C265.219 144.3 263.199 147.41 263.199 147.41Z" fill="white" stroke="#263238" stroke-miterlimit="10"/>
<path d="M237.139 143.34L233.609 148.7C233.083 149.491 232.836 150.436 232.909 151.384C232.981 152.331 233.369 153.228 234.009 153.93C234.411 154.366 234.899 154.714 235.442 154.952C235.985 155.19 236.571 155.313 237.164 155.313C237.757 155.313 238.344 155.19 238.887 154.952C239.43 154.714 239.918 154.366 240.319 153.93L247.669 146.06C247.669 146.06 262.459 148.28 263.199 147.36C263.939 146.44 266.339 144.77 266.889 142.92C267.439 141.07 268.189 138.85 267.259 139.41C266.329 139.97 265.259 142.41 265.259 142.41L251.769 133.72C251.769 133.72 256.569 130.72 256.939 128.36C257.309 126 256.389 124.85 255.459 126.36C254.529 127.87 253.249 128.94 250.289 130.05C247.329 131.16 243.629 132.27 242.339 134.49L237.139 143.34Z" fill="white" stroke="#263238" stroke-miterlimit="10"/>
<path d="M240.32 154L244.39 149.64C242.677 149.523 241.045 148.873 239.721 147.781C238.397 146.689 237.449 145.209 237.01 143.55L233.61 148.72C233.003 149.616 232.758 150.709 232.924 151.778C233.09 152.848 233.656 153.815 234.506 154.484C235.357 155.153 236.43 155.476 237.508 155.386C238.587 155.296 239.592 154.801 240.32 154V154Z" fill="white" stroke="#263238" stroke-miterlimit="10"/>
<path d="M244.529 143.15C244.529 143.15 248.779 138.72 251.919 139.09C255.059 139.46 260.049 145.37 260.049 145.37C260.049 145.37 266.149 138.9 266.519 140.94C266.889 142.98 261.519 147.41 260.609 147.59C259.699 147.77 246.559 146.11 246.559 146.11" fill="white"/>
<path d="M244.529 143.15C244.529 143.15 248.779 138.72 251.919 139.09C255.059 139.46 260.049 145.37 260.049 145.37C260.049 145.37 266.149 138.9 266.519 140.94C266.889 142.98 261.519 147.41 260.609 147.59C259.699 147.77 246.559 146.11 246.559 146.11" stroke="#263238" stroke-miterlimit="10"/>
<path d="M159.42 371.1C159.42 371.1 150.52 364.1 148.36 363.68C146.2 363.26 143.24 366.11 142.29 367.32C141.34 368.53 141.08 369.89 140.67 370.16C140.26 370.43 136.09 374.16 134.47 375.68C132.85 377.2 132.72 381.21 133.26 381.89C133.738 382.345 134.353 382.63 135.01 382.7H161.44C161.678 381.138 161.769 379.558 161.71 377.98C161.343 375.668 160.764 373.395 159.98 371.19" fill="#757575"/>
<path d="M159.42 371.1C159.42 371.1 150.52 364.1 148.36 363.68C146.2 363.26 143.24 366.11 142.29 367.32C141.34 368.53 141.08 369.89 140.67 370.16C140.26 370.43 136.09 374.16 134.47 375.68C132.85 377.2 132.72 381.21 133.26 381.89C133.738 382.345 134.353 382.63 135.01 382.7H161.44C161.678 381.138 161.769 379.558 161.71 377.98C161.343 375.668 160.764 373.395 159.98 371.19" stroke="#263238" stroke-linecap="round" stroke-linejoin="round"/>
<path d="M132.999 380.21C132.94 380.785 133.037 381.365 133.279 381.89C133.757 382.345 134.373 382.63 135.029 382.7H161.459C161.459 382.7 161.639 381.58 161.719 380.21H132.999Z" fill="#757575" stroke="#263238" stroke-linecap="round" stroke-linejoin="round"/>
<path d="M176.559 371.1C176.559 371.1 188.009 364.1 190.169 363.68C192.329 363.26 195.289 366.11 196.239 367.32C197.189 368.53 197.859 371.23 198.239 371.5C198.619 371.77 204.169 374.2 205.789 375.68C207.409 377.16 207.549 381.21 207.009 381.89C206.526 382.343 205.908 382.628 205.249 382.7H174.539C174.301 381.138 174.211 379.558 174.269 377.98C174.637 375.668 175.216 373.395 175.999 371.19L176.559 371.1Z" fill="#757575" stroke="#263238" stroke-linecap="round" stroke-linejoin="round"/>
<path d="M174.54 382.7H205.27C205.928 382.628 206.546 382.343 207.03 381.89C207.267 381.364 207.363 380.785 207.31 380.21H174.31C174.36 381.58 174.54 382.7 174.54 382.7Z" fill="#757575" stroke="#263238" stroke-linecap="round" stroke-linejoin="round"/>
<path d="M102.89 88.0001C104.58 87.1801 105.52 83.9301 105.02 80.2401C104.47 76.1301 102.35 73.03 100.3 73.31C98.68 73.52 97.58 75.78 97.46 78.73L102.89 88.0001Z" fill="#263238" stroke="#263238" stroke-linecap="round" stroke-linejoin="round"/>
<path d="M58.9993 65.0001C59.9258 63.8479 60.4935 62.4491 60.6322 60.9771C60.7708 59.5052 60.4743 58.025 59.7793 56.7201C57.4493 51.8001 39.5993 52.0601 33.1293 61.3801C26.6593 70.7001 33.2693 81.6001 42.1293 80.0001C48.9993 78.7701 56.8993 68.8701 58.9993 65.0001Z" fill="white" stroke="#263238" stroke-linecap="round" stroke-linejoin="round"/>
<path d="M33.0996 61.3701C33.2091 63.5711 33.776 65.7252 34.7643 67.6949C35.7526 69.6646 37.1406 71.4067 38.8396 72.8101C44.6596 77.6801 49.2096 76.7401 49.2096 76.7401" stroke="#263238" stroke-linecap="round" stroke-linejoin="round"/>
<path d="M34.5898 60.0801C34.5898 60.0801 39.4698 65.4201 44.1798 67.6201C46.9209 68.8921 49.5914 70.3109 52.1798 71.8701" stroke="#263238" stroke-linecap="round" stroke-linejoin="round"/>
<path d="M35.6895 58.5C35.6895 58.5 42.4495 56.77 48.4295 58.19C52.1097 59.1615 55.2664 61.5291 57.2295 64.79" stroke="#263238" stroke-linecap="round" stroke-linejoin="round"/>
<path d="M95.2397 66.4599C95.2397 66.4599 98.0597 71.0899 98.6597 74.4599C99.2597 77.8299 98.6597 80.2999 99.6597 82.3099C100.66 84.3199 104.66 87.1399 103.88 88.9499C103.1 90.7599 100.26 91.9499 100.26 91.9499C100.26 91.9499 96.0297 101.21 93.8197 104.03C91.6097 106.85 83.1497 104.03 83.1497 104.03L82.9497 108.46L66.4497 105.46C66.4497 105.46 68.2597 102.84 65.2397 99.6199C62.2197 96.3999 53.1597 85.5299 63.6297 75.0699C74.0997 64.6099 91.8197 65.2499 95.2397 66.4599Z" fill="white" stroke="#263238" stroke-linecap="round" stroke-linejoin="round"/>
<path d="M83.1599 104.1L76.3398 102.85L82.9598 108.53L83.1599 104.1Z" fill="#263238" stroke="#263238" stroke-linecap="round" stroke-linejoin="round"/>
<path d="M95.8496 67.7901C94.5853 65.4185 92.9667 63.2536 91.0496 61.3701C85.0496 55.6701 71.6496 54.9001 60.7796 62.1401C49.9096 69.3801 42.6696 89.3101 48.8796 96.5501C55.0896 103.79 69.0596 99.1401 69.0596 99.1401C69.0596 99.1401 66.4696 88.7901 69.8396 87.7501C73.2096 86.7101 76.3096 88.0101 76.8396 85.6901C77.3696 83.3701 76.5796 77.4101 81.7596 74.0401C86.9396 70.6701 93.6496 72.1701 95.8496 67.7901Z" fill="white" stroke="#263238" stroke-linecap="round" stroke-linejoin="round"/>
<path d="M68.5495 95.0002C68.5495 95.0002 64.1495 98.4602 55.5495 95.6302C46.9495 92.8002 47.3795 84.1501 47.3795 84.1501" stroke="#263238" stroke-linecap="round" stroke-linejoin="round"/>
<path d="M49.0593 78.6301C49.0204 80.7994 49.6689 82.9254 50.9119 84.7036C52.1549 86.4819 53.9287 87.8213 55.9793 88.5301C63.3593 91.3601 67.1393 89.6301 67.1393 89.6301" stroke="#263238" stroke-linecap="round" stroke-linejoin="round"/>
<path d="M50.9395 74.0701C51.7724 76.4485 53.1646 78.592 54.9988 80.3201C56.8331 82.0481 59.0557 83.3102 61.4795 84.0001C63.4386 84.6317 65.445 85.1066 67.4795 85.4201" stroke="#263238" stroke-linecap="round" stroke-linejoin="round"/>
<path d="M52.6699 70.9199C56.859 73.5694 61.2806 75.8321 65.8799 77.6799C72.7999 80.3599 79.0899 76.2699 79.0899 76.2699" stroke="#263238" stroke-linecap="round" stroke-linejoin="round"/>
<path d="M56.1299 66.8401C56.1299 66.8401 57.3899 69.3501 70.2799 67.9401C83.1699 66.5301 89.2799 68.2701 90.3999 70.7701" stroke="#263238" stroke-linecap="round" stroke-linejoin="round"/>
<path d="M58.6494 63.8501C62.5545 62.9876 66.3888 61.8309 70.1194 60.3901C77.9794 57.5601 90.2894 59.1601 95.8494 67.7901" stroke="#263238" stroke-linecap="round" stroke-linejoin="round"/>
<path d="M72.6794 89.5701C72.6794 89.5701 70.8694 82.5701 66.6794 82.5701C62.4894 82.5701 63.8394 91.1101 66.9394 94.4701C70.0394 97.8301 71.9094 96.0001 71.9094 96.0001" fill="white"/>
<path d="M72.6794 89.5701C72.6794 89.5701 70.8694 82.5701 66.6794 82.5701C62.4894 82.5701 63.8394 91.1101 66.9394 94.4701C70.0394 97.8301 71.9094 96.0001 71.9094 96.0001" stroke="#263238" stroke-linecap="round" stroke-linejoin="round"/>
<path d="M86.3994 92.4102C86.3994 92.4102 88.9794 96.8102 93.3994 95.7802" stroke="#263238" stroke-linecap="round" stroke-linejoin="round"/>
<path d="M97.767 82.5474C98.4143 78.4561 95.6223 74.6148 91.5311 73.9676C87.4398 73.3203 83.5985 76.1122 82.9513 80.2035C82.304 84.2947 85.0959 88.136 89.1872 88.7833C93.2784 89.4306 97.1197 86.6386 97.767 82.5474Z" fill="#263238" stroke="#263238" stroke-linecap="round" stroke-linejoin="round"/>
<path d="M83.8094 81.8L70.6094 84.91" stroke="#263238" stroke-linecap="round" stroke-linejoin="round"/>
<path d="M97.1699 80.1201L100.27 79.3401" stroke="#263238" stroke-linecap="round" stroke-linejoin="round"/>
<path d="M71.9099 348.29V364.85H57.4199V348.03L71.9099 348.29Z" fill="white" stroke="#263238" stroke-linecap="round" stroke-linejoin="round"/>
<path d="M84.8401 350.1L84.5801 360.45L92.3501 363.55L97.2601 360.45V348.55L84.8401 350.1Z" fill="white" stroke="#263238" stroke-linecap="round" stroke-linejoin="round"/>
<path d="M98.2998 126.82C98.2998 126.82 106.55 131.56 107.78 137.71C109.01 143.86 111.47 166.38 114.33 173.34C117.19 180.3 118.43 184.81 116.79 186.86C116.064 187.858 115.544 188.992 115.263 190.194C114.981 191.396 114.943 192.643 115.15 193.86C115.56 195.5 119.25 196.73 117.61 200.01C115.97 203.29 113.93 206.56 113.93 206.56V250.39C113.93 254.49 109.01 259.39 107.78 260.63C106.55 261.87 104.5 257.36 104.5 254.08C104.5 250.8 103.68 175.43 102.5 169.7C101.32 163.97 94.2998 127.91 94.2998 127.91C94.2998 127.91 95.3698 124.54 98.2998 126.82Z" fill="#0987FF" stroke="#263238" stroke-linecap="round" stroke-linejoin="round"/>
<path d="M107.78 260.59C109.01 259.37 113.93 254.45 113.93 250.35V213.3C110.632 213.909 107.263 214.034 103.93 213.67C104.27 233.33 104.47 252.43 104.47 254.04C104.5 257.32 106.55 261.82 107.78 260.59Z" fill="white" stroke="#263238" stroke-linecap="round" stroke-linejoin="round"/>
<path d="M48.6191 231.86L56.6191 353.46L72.6191 353.2L82.9991 229.79L84.5591 230.05L83.7791 352.94L97.7791 352.43L112.269 237C112.269 237 109.159 210.61 106.269 204.4C104.463 200.543 102.105 196.969 99.2691 193.79H57.6791C57.6791 193.79 50.6891 205.47 48.6191 231.86Z" fill="#263238" stroke="#263238" stroke-linecap="round" stroke-linejoin="round"/>
<path d="M82.7692 117.51C82.7692 117.51 91.0492 122.94 92.8592 127.6C94.6692 132.26 101.399 196.42 101.399 197.45C101.399 198.48 88.9792 198.23 81.7392 198.45C74.4992 198.67 71.9092 198.71 71.9092 198.71C71.9092 198.71 62.3392 135.58 60.5192 129.11C58.6992 122.64 60.5192 120.06 62.5892 117.99C64.6592 115.92 68.0292 115.4 69.5892 114.62C71.1492 113.84 82.7692 117.51 82.7692 117.51Z" fill="white" stroke="#263238" stroke-linecap="round" stroke-linejoin="round"/>
<path d="M85.6196 121.65C85.6196 121.65 91.8296 135.36 95.1896 166.65C97.1896 185.75 96.7396 238.06 96.7396 238.06C97.6574 238.843 98.7875 239.335 99.9859 239.474C101.184 239.613 102.397 239.392 103.47 238.84C107.528 237.309 111.676 236.027 115.89 235C115.89 235 110.97 201.36 110.72 189.72C110.47 178.08 105.02 144.44 102.44 134.87C99.8596 125.3 98.8096 124.01 94.9296 121.68C91.0496 119.35 85.0996 118.57 85.0996 118.57L85.6196 121.65Z" fill="#0987FF" stroke="#263238" stroke-linecap="round" stroke-linejoin="round"/>
<path d="M86.1399 120.61C86.1399 120.61 87.6899 113.37 87.4299 110.52C87.1699 107.67 86.3799 107.44 80.1699 107.18C73.9599 106.92 66.7299 101.98 64.6599 104.57C62.5899 107.16 62.0799 116.73 63.3699 118C64.6599 119.27 69.9999 122.79 78.2899 123.55C81.2299 123.84 85.3599 122.68 86.1399 120.61Z" fill="white" stroke="#263238" stroke-linecap="round" stroke-linejoin="round"/>
<path d="M62.8497 116.73C62.8497 116.73 46.8497 127.08 43.4497 130.96C40.0497 134.84 46.5497 190.73 46.8097 204.7C46.8814 214.21 46.3638 223.714 45.2597 233.16C50.5497 235.659 55.9941 237.817 61.5597 239.62C67.9385 241.61 74.7446 241.79 81.2197 240.14C81.2197 240.14 77.8597 188.66 77.3397 173.65C76.8197 158.64 71.6497 132.77 69.8397 126.82C68.0297 120.87 62.8497 116.73 62.8497 116.73Z" fill="#0987FF" stroke="#263238" stroke-linecap="round" stroke-linejoin="round"/>
<path d="M62.5895 115.18C62.5895 115.18 47.3295 125.27 48.3595 126.56C49.3895 127.85 56.3595 162.27 56.3595 179.56C56.3595 196.85 57.1395 231.05 57.1395 231.05C57.1395 231.05 62.0595 231.05 65.6795 231.31C69.2995 231.57 77.0595 230.31 77.0595 230.31C77.0595 230.31 74.4695 194.61 74.4695 176.5C74.4695 158.39 68.0095 130.7 66.4695 126.3C64.9295 121.9 62.5895 115.18 62.5895 115.18Z" fill="#263238" stroke="#263238" stroke-linecap="round" stroke-linejoin="round"/>
<path d="M86.3994 119.32C86.3994 119.32 92.3494 150.37 94.9294 170.55C97.5094 190.73 100.369 214.55 100.369 218.41V228.24C100.369 228.24 105.279 229.02 107.089 229.02C108.598 228.91 110.081 228.572 111.489 228.02C111.489 228.02 107.609 193.61 106.579 177.83C105.549 162.05 100.109 132.3 98.2994 126.83L96.4894 121.4C96.4894 121.4 89.9994 118 86.3994 119.32Z" fill="#263238" stroke="#263238" stroke-linecap="round" stroke-linejoin="round"/>
<path d="M48.6196 300.17L10.6196 290.08C10.6196 290.08 7.76963 302.24 5.18963 307.15C2.60963 312.06 0.759627 320.6 1.53963 325C2.31963 329.4 6.96963 332.25 10.5896 333.54C14.2096 334.83 41.8996 342.85 48.8796 342.34C55.8596 341.83 56.8796 336.13 56.1296 331.21C55.3796 326.29 48.6196 300.17 48.6196 300.17Z" fill="#263238" stroke="#263238" stroke-linecap="round" stroke-linejoin="round"/>
<path d="M56.1295 331.21C55.3495 326.3 48.6195 300.21 48.6195 300.21L46.2595 299.58C45.8395 301.7 40.5695 328.17 39.8295 334.87C39.4395 338.33 40.3895 340.39 42.0095 341.69C44.2681 342.166 46.5714 342.397 48.8795 342.38C55.8695 341.82 56.8995 336.13 56.1295 331.21Z" fill="#4C4C4C" stroke="#263238" stroke-linecap="round" stroke-linejoin="round"/>
<path d="M27.6693 251L17.0893 297.08C17.0067 297.434 16.7998 297.747 16.5063 297.962C16.2127 298.176 15.8519 298.279 15.4893 298.25V298.25C15.2696 298.23 15.0568 298.162 14.866 298.051C14.6751 297.94 14.5107 297.789 14.3841 297.608C14.2576 297.427 14.1719 297.221 14.1331 297.004C14.0943 296.787 14.1032 296.564 14.1593 296.35L27.1593 247.35L39.3193 249.42L44.3193 302.7C44.3394 302.938 44.303 303.178 44.2132 303.399C44.1234 303.62 43.9827 303.817 43.8025 303.974C43.6223 304.131 43.4077 304.243 43.1761 304.301C42.9444 304.36 42.7023 304.363 42.4693 304.31L42.2493 304.26C41.9314 304.187 41.6457 304.013 41.4348 303.765C41.2239 303.516 41.0992 303.206 41.0793 302.88L38.0793 251.74L27.6693 251Z" fill="#263238" stroke="#263238" stroke-linecap="round" stroke-linejoin="round"/>
<path d="M46.5497 128.37C46.5497 128.37 35.6897 132 34.1297 135.88C32.5697 139.76 30.7697 170.29 29.9997 177.53C29.2297 184.77 29.2297 186.59 29.2297 186.59C29.2297 186.59 22.7597 189.69 23.7997 193.83C24.8397 197.97 28.7097 201.59 28.7097 202.63C28.7097 203.67 30.2597 235.74 30.2597 235.74C30.2597 235.74 25.3497 251.27 26.3797 252.56C27.4097 253.85 31.2997 255.41 31.8197 256.18C32.3397 256.95 35.1797 259.8 36.4697 258.77C37.2198 258.181 37.757 257.363 37.9997 256.44L38.7697 253.6C38.7697 253.6 41.8797 256.7 42.6497 256.7C43.4197 256.7 41.3597 250.75 41.3597 246.87C41.3597 242.99 37.9997 237.55 37.9997 236.52C37.9997 235.49 41.3797 205 41.3797 205C41.3797 205 46.5497 200.6 47.0697 197C47.5897 193.4 46.2897 189.23 46.8097 187.94C47.3297 186.65 49.1397 183.8 49.3997 181.21C49.6597 178.62 47.5897 174.75 47.3297 172.68C47.0697 170.61 49.1397 141.89 49.1397 141.89" fill="#0987FF"/>
<path d="M46.5497 128.37C46.5497 128.37 35.6897 132 34.1297 135.88C32.5697 139.76 30.7697 170.29 29.9997 177.53C29.2297 184.77 29.2297 186.59 29.2297 186.59C29.2297 186.59 22.7597 189.69 23.7997 193.83C24.8397 197.97 28.7097 201.59 28.7097 202.63C28.7097 203.67 30.2597 235.74 30.2597 235.74C30.2597 235.74 25.3497 251.27 26.3797 252.56C27.4097 253.85 31.2997 255.41 31.8197 256.18C32.3397 256.95 35.1797 259.8 36.4697 258.77C37.2198 258.181 37.757 257.363 37.9997 256.44L38.7697 253.6C38.7697 253.6 41.8797 256.7 42.6497 256.7C43.4197 256.7 41.3597 250.75 41.3597 246.87C41.3597 242.99 37.9997 237.55 37.9997 236.52C37.9997 235.49 41.3797 205 41.3797 205C41.3797 205 46.5497 200.6 47.0697 197C47.5897 193.4 46.2897 189.23 46.8097 187.94C47.3297 186.65 49.1397 183.8 49.3997 181.21C49.6597 178.62 47.5897 174.75 47.3297 172.68C47.0697 170.61 49.1397 141.89 49.1397 141.89" stroke="#263238" stroke-linecap="round" stroke-linejoin="round"/>
<path d="M31.81 256.18C32.32 256.96 35.17 259.8 36.46 258.77C37.2139 258.182 37.7547 257.364 38 256.44L38.77 253.6C38.77 253.6 41.88 256.7 42.65 256.7C43.42 256.7 41.36 250.75 41.36 246.87C41.36 242.99 38 237.55 38 236.52C38 235.82 39.53 221.65 40.53 212.52L29.08 211.64C29.54 221.46 30.23 235.73 30.23 235.73C30.23 235.73 25.32 251.26 26.35 252.55C27.38 253.84 31.29 255.41 31.81 256.18Z" fill="white" stroke="#263238" stroke-linecap="round" stroke-linejoin="round"/>
<path d="M69.5799 363.81C69.5799 363.81 60.2699 362.26 58.7099 362.26C57.1499 362.26 50.4299 372.87 49.3999 377C48.3699 381.13 51.4699 382.69 52.2399 382.69H72.6799C72.6799 382.69 75.7899 382.69 76.0499 377.77C76.3099 372.85 74.2399 365.87 74.2399 364.06C74.2399 362.25 75.5299 359.92 75.0099 358.63C74.4899 357.34 69.8399 356.57 69.5799 363.81Z" fill="#0987FF" stroke="#263238" stroke-linecap="round" stroke-linejoin="round"/>
<path d="M76.0498 377.78C76.0973 376.34 76.0237 374.898 75.8298 373.47C74.7298 374.76 73.9098 377.19 72.4298 378.3C70.3598 379.85 65.1798 379.3 64.1498 379.08C63.1198 378.86 60.5198 373.9 59.2298 373.13C57.9398 372.36 55.0898 378.3 55.0898 378.3H49.1998C49.0725 379.274 49.3079 380.26 49.8611 381.072C50.4144 381.883 51.2468 382.463 52.1998 382.7H72.6798C72.6798 382.7 75.7898 382.7 76.0498 377.78Z" fill="white" stroke="#263238" stroke-linecap="round" stroke-linejoin="round"/>
<path d="M58.0795 364.14C58.0795 364.14 56.3395 352.39 57.6395 351.88C58.9395 351.37 70.5495 350.17 71.0695 352.75C71.5895 355.33 69.6095 364.43 69.6095 364.43L58.0795 364.14Z" fill="white" stroke="#263238" stroke-linecap="round" stroke-linejoin="round"/>
<path d="M60.8299 352L60.6699 356.53L66.9799 356.85L67.4699 352C65.2839 351.509 63.016 351.509 60.8299 352V352Z" fill="#0987FF" stroke="#263238" stroke-linecap="round" stroke-linejoin="round"/>
<path d="M70.7396 366.19L57.4196 365.75C57.3005 365.747 57.1831 365.721 57.0743 365.673C56.9654 365.625 56.8672 365.555 56.7853 365.469C56.7035 365.382 56.6396 365.28 56.5974 365.169C56.5552 365.058 56.5356 364.939 56.5396 364.82C56.5393 364.699 56.5639 364.58 56.6118 364.469C56.6597 364.358 56.73 364.258 56.8181 364.176C56.9063 364.093 57.0106 364.03 57.1244 363.989C57.2381 363.948 57.3591 363.932 57.4796 363.94L70.7996 364.37C71.0409 364.37 71.2724 364.466 71.443 364.637C71.6137 364.807 71.7096 365.039 71.7096 365.28C71.7096 365.521 71.6137 365.753 71.443 365.923C71.2724 366.094 71.0409 366.19 70.7996 366.19H70.7396Z" fill="white" stroke="#263238" stroke-linecap="round" stroke-linejoin="round"/>
<path d="M69.9395 368.27L56.6195 367.83C56.3799 367.822 56.153 367.72 55.9883 367.546C55.8235 367.372 55.7341 367.14 55.7395 366.9C55.7377 366.779 55.7613 366.658 55.8087 366.547C55.8561 366.435 55.9263 366.335 56.0148 366.252C56.1033 366.169 56.2082 366.106 56.3226 366.066C56.4371 366.026 56.5586 366.01 56.6795 366.02L69.9995 366.45C70.2408 366.45 70.4723 366.546 70.643 366.716C70.8136 366.887 70.9095 367.119 70.9095 367.36C70.9095 367.601 70.8136 367.833 70.643 368.003C70.4723 368.174 70.2408 368.27 69.9995 368.27H69.9395Z" fill="white" stroke="#263238" stroke-linecap="round" stroke-linejoin="round"/>
<path d="M68.3995 370.19L57.5295 369.75C57.3108 369.718 57.1133 369.602 56.9789 369.426C56.8445 369.251 56.7837 369.03 56.8095 368.81C56.8095 368.31 57.1595 367.88 57.5795 367.94L68.4495 368.37C68.6671 368.405 68.8631 368.522 68.997 368.697C69.131 368.871 69.1927 369.091 69.1695 369.31C69.1833 369.529 69.11 369.744 68.9658 369.909C68.8216 370.074 68.618 370.175 68.3995 370.19V370.19Z" fill="white" stroke="#263238" stroke-linecap="round" stroke-linejoin="round"/>
<path d="M92.6092 360.71C92.6092 360.71 84.0692 356.83 82.2592 358.64C80.4492 360.45 79.9292 361.48 81.2592 362.26C82.5892 363.04 84.3692 364.07 84.3692 364.07C84.3692 364.07 81.5192 377.26 82.5592 379.07C83.36 380.312 84.4169 381.369 85.6592 382.17H121.359C121.359 382.17 123.429 381.17 121.619 377.51C119.809 373.85 112.569 372.08 109.719 370.27C106.869 368.46 101.439 361.73 101.179 360.96C100.919 360.19 102.479 353.19 100.669 352.42C98.8592 351.65 93.1592 352.42 93.4192 354.49C93.7033 356.163 94.1384 357.806 94.7192 359.4L92.6092 360.71Z" fill="#0987FF" stroke="#263238" stroke-linecap="round" stroke-linejoin="round"/>
<path d="M100.46 370.05C100.83 370.58 101.37 370.9 101.67 370.77L107.37 368.35C106.81 367.81 106.23 367.21 105.67 366.6L100.33 368.86C99.9999 369 100.09 369.52 100.46 370.05Z" fill="white" stroke="#263238" stroke-linecap="round" stroke-linejoin="round"/>
<path d="M97.2495 366C97.6095 366.53 98.2495 366.83 98.5695 366.66L103.72 364.41C103.15 363.73 102.64 363.1 102.23 362.57L97.2295 364.75C96.8395 364.85 96.8795 365.45 97.2495 366Z" fill="white" stroke="#263238" stroke-linecap="round" stroke-linejoin="round"/>
<path d="M98.25 367.18C97.85 367.3 97.89 367.9 98.25 368.43C98.61 368.96 99.25 369.25 99.57 369.09L105.57 366.47C105.02 365.87 104.48 365.26 103.98 364.68L98.25 367.18Z" fill="white" stroke="#263238" stroke-linecap="round" stroke-linejoin="round"/>
<path d="M101.93 362.08C101.67 361.31 103.55 351.92 101.74 351.15C99.9298 350.38 93.6598 352.43 93.3798 354.5C93.1198 356.4 94.6798 359.41 94.6798 359.41L97.5198 364.59C97.5198 364.59 101.41 362.86 101.93 362.08Z" fill="white" stroke="#263238" stroke-linecap="round" stroke-linejoin="round"/>
<path d="M96.7695 352.16L97.8995 355.4L100.82 354.4L100.17 351.32C100.17 351.32 97.5795 351 96.7695 352.16Z" fill="#0987FF" stroke="#263238" stroke-linecap="round" stroke-linejoin="round"/>
<path d="M121.579 377.52C121.149 376.74 120.559 376.059 119.849 375.52C119.818 375.588 119.791 375.659 119.769 375.73C119.249 377.54 120.029 379.35 118.999 380.39C117.969 381.43 112.789 381.17 108.649 380.65C104.509 380.13 97.2592 377.8 92.3492 375.99C89.1112 374.96 85.653 374.835 82.3492 375.63C82.2222 376.787 82.266 377.956 82.4792 379.1C82.5793 379.887 82.9381 380.619 83.4992 381.18C84.0603 381.741 84.792 382.1 85.5792 382.2H121.279C121.279 382.2 123.389 381.15 121.579 377.52Z" fill="white" stroke="#263238" stroke-linecap="round" stroke-linejoin="round"/>
<path d="M7 382.7H473" stroke="#263238" stroke-width="0.908269" stroke-linecap="round" stroke-linejoin="round"/>
</svg>
