<svg width="478" height="448" viewBox="0 0 478 448" fill="none" xmlns="http://www.w3.org/2000/svg">
<path d="M18.9313 134.616C40.0334 80.4259 79.4116 33.3259 137.139 13.9659C187.821 -3.03407 246.026 -4.92407 297.394 10.5559C323.016 18.2859 347.267 30.7259 366.582 48.4959C390.479 70.4059 402.23 99.1959 412.412 128.616C422.21 156.766 426.553 186.116 437.598 213.966C449.536 243.966 488.322 304.046 475.396 359.436C462.471 414.826 440.59 430.786 408.755 438.296C376.92 445.806 308.283 421.396 268.489 427.036C228.696 432.676 173.992 459.896 103.361 441.116C6.31777 415.316 -7.99969 271.546 3.2631 193.866C6.21589 173.623 11.4701 153.754 18.9313 134.616V134.616Z" fill="#263238"/>
<path opacity="0.24" d="M18.9313 134.616C40.0334 80.4259 79.4116 33.3259 137.139 13.9659C187.821 -3.03407 246.026 -4.92407 297.394 10.5559C323.016 18.2859 347.267 30.7259 366.582 48.4959C390.479 70.4059 402.23 99.1959 412.412 128.616C422.21 156.766 426.553 186.116 437.598 213.966C449.536 243.966 488.322 304.046 475.396 359.436C462.471 414.826 440.59 430.786 408.755 438.296C376.92 445.806 308.283 421.396 268.489 427.036C228.696 432.676 173.992 459.896 103.361 441.116C6.31777 415.316 -7.99969 271.546 3.2631 193.866C6.21589 173.623 11.4701 153.754 18.9313 134.616V134.616Z" fill="white"/>
<path d="M103.892 126.946C97.5909 126.946 92.4833 122.03 92.4833 115.966C92.4833 109.902 97.5909 104.986 103.892 104.986C110.192 104.986 115.3 109.902 115.3 115.966C115.3 122.03 110.192 126.946 103.892 126.946Z" fill="#0987FF"/>
<path d="M215.206 221.739C213.959 216.677 217.211 211.601 222.471 210.4C227.731 209.2 233.005 212.33 234.253 217.393C235.5 222.455 232.247 227.531 226.987 228.732C221.728 229.932 216.453 226.802 215.206 221.739Z" fill="#0987FF"/>
<path d="M71.6826 203.066C67.6085 203.066 64.3057 199.887 64.3057 195.966C64.3057 192.045 67.6085 188.866 71.6826 188.866C75.7568 188.866 79.0596 192.045 79.0596 195.966C79.0596 199.887 75.7568 203.066 71.6826 203.066Z" fill="#0987FF"/>
<path d="M320.253 107.156C316.179 107.156 312.876 103.977 312.876 100.056C312.876 96.1346 316.179 92.9558 320.253 92.9558C324.327 92.9558 327.63 96.1346 327.63 100.056C327.63 103.977 324.327 107.156 320.253 107.156Z" fill="#0987FF"/>
<path d="M37.028 129.119C36.3766 125.248 39.1088 121.602 43.1306 120.975C47.1523 120.348 50.9407 122.978 51.5921 126.849C52.2434 130.72 49.5112 134.366 45.4895 134.993C41.4677 135.62 37.6794 132.99 37.028 129.119Z" fill="#DBDBDB"/>
<path d="M28.2882 251.188C27.3496 247.372 29.8026 243.546 33.7671 242.643C37.7317 241.74 41.7065 244.1 42.6452 247.916C43.5838 251.732 41.1308 255.558 37.1662 256.461C33.2017 257.364 29.2268 255.003 28.2882 251.188Z" fill="#0987FF"/>
<path d="M245.662 54.2398C244.986 50.3729 247.695 46.7108 251.713 46.0602C255.731 45.4097 259.536 48.017 260.212 51.8839C260.888 55.7508 258.179 59.4129 254.161 60.0634C250.143 60.714 246.338 58.1067 245.662 54.2398Z" fill="#0987FF"/>
<path d="M186.17 36.0659C183.445 36.0659 181.235 33.9393 181.235 31.3159C181.235 28.6926 183.445 26.5659 186.17 26.5659C188.896 26.5659 191.105 28.6926 191.105 31.3159C191.105 33.9393 188.896 36.0659 186.17 36.0659Z" fill="#DBDBDB"/>
<path d="M170.699 173.966C174.803 174.416 175.177 174.776 175.634 178.716C176.102 174.776 176.476 174.416 180.569 173.966C176.476 173.526 176.102 173.166 175.634 169.216C175.177 173.116 174.803 173.476 170.699 173.966Z" fill="#0987FF"/>
<path d="M136.017 248.796C133.291 248.796 131.082 246.669 131.082 244.046C131.082 241.423 133.291 239.296 136.017 239.296C138.743 239.296 140.952 241.423 140.952 244.046C140.952 246.669 138.743 248.796 136.017 248.796Z" fill="#0987FF"/>
<path d="M177.723 310.726C174.997 310.726 172.788 308.599 172.788 305.976C172.788 303.352 174.997 301.226 177.723 301.226C180.449 301.226 182.658 303.352 182.658 305.976C182.658 308.599 180.449 310.726 177.723 310.726Z" fill="#0987FF"/>
<path d="M68.1497 324.376C65.424 324.376 63.2144 322.249 63.2144 319.626C63.2144 317.003 65.424 314.876 68.1497 314.876C70.8754 314.876 73.085 317.003 73.085 319.626C73.085 322.249 70.8754 324.376 68.1497 324.376Z" fill="#0987FF"/>
<path d="M28.0433 303.716C25.3176 303.716 23.108 301.589 23.108 298.966C23.108 296.342 25.3176 294.216 28.0433 294.216C30.7689 294.216 32.9785 296.342 32.9785 298.966C32.9785 301.589 30.7689 303.716 28.0433 303.716Z" fill="#DBDBDB"/>
<path d="M194.025 267.716C191.299 267.716 189.089 265.589 189.089 262.966C189.089 260.342 191.299 258.216 194.025 258.216C196.75 258.216 198.96 260.342 198.96 262.966C198.96 265.589 196.75 267.716 194.025 267.716Z" fill="#DBDBDB"/>
<path d="M292.199 244.616C296.303 245.056 296.677 245.426 297.134 249.366C297.602 245.426 297.976 245.056 302.08 244.616C297.976 244.166 297.602 243.806 297.134 239.866C296.677 243.806 296.303 244.166 292.199 244.616Z" fill="#0987FF"/>
<path d="M41.4056 181.116C39.5865 181.116 38.1119 179.697 38.1119 177.946C38.1119 176.195 39.5865 174.776 41.4056 174.776C43.2246 174.776 44.6992 176.195 44.6992 177.946C44.6992 179.697 43.2246 181.116 41.4056 181.116Z" fill="#0987FF"/>
<path d="M103.309 245.646C101.49 245.646 100.015 244.227 100.015 242.476C100.015 240.725 101.49 239.306 103.309 239.306C105.128 239.306 106.603 240.725 106.603 242.476C106.603 244.227 105.128 245.646 103.309 245.646Z" fill="#DBDBDB"/>
<path d="M159.198 102.916C157.379 102.916 155.904 101.497 155.904 99.7459C155.904 97.9952 157.379 96.5759 159.198 96.5759C161.017 96.5759 162.491 97.9952 162.491 99.7459C162.491 101.497 161.017 102.916 159.198 102.916Z" fill="#DBDBDB"/>
<path d="M141.503 42.3159C139.684 42.3159 138.21 40.8967 138.21 39.146C138.21 37.3952 139.684 35.976 141.503 35.976C143.322 35.976 144.797 37.3952 144.797 39.146C144.797 40.8967 143.322 42.3159 141.503 42.3159Z" fill="#0987FF"/>
<path d="M258.391 103.786C257.484 103.786 256.749 103.079 256.749 102.206C256.749 101.333 257.484 100.626 258.391 100.626C259.297 100.626 260.032 101.333 260.032 102.206C260.032 103.079 259.297 103.786 258.391 103.786Z" fill="#DBDBDB"/>
<path d="M306.788 58.1559C305.881 58.1559 305.146 57.4485 305.146 56.5759C305.146 55.7032 305.881 54.9958 306.788 54.9958C307.695 54.9958 308.43 55.7032 308.43 56.5759C308.43 57.4485 307.695 58.1559 306.788 58.1559Z" fill="#DBDBDB"/>
<path d="M240.281 22.3459C239.375 22.3459 238.64 21.6385 238.64 20.7659C238.64 19.8933 239.375 19.1859 240.281 19.1859C241.188 19.1859 241.923 19.8933 241.923 20.7659C241.923 21.6385 241.188 22.3459 240.281 22.3459Z" fill="#DBDBDB"/>
<path d="M114.884 322.546C113.977 322.546 113.242 321.839 113.242 320.966C113.242 320.093 113.977 319.386 114.884 319.386C115.79 319.386 116.525 320.093 116.525 320.966C116.525 321.839 115.79 322.546 114.884 322.546Z" fill="#0987FF"/>
<path d="M232.728 171.546C231.821 171.546 231.086 170.839 231.086 169.966C231.086 169.093 231.821 168.386 232.728 168.386C233.634 168.386 234.369 169.093 234.369 169.966C234.369 170.839 233.634 171.546 232.728 171.546Z" fill="#DBDBDB"/>
<path d="M112.806 190.546C111.899 190.546 111.164 189.839 111.164 188.966C111.164 188.093 111.899 187.386 112.806 187.386C113.712 187.386 114.447 188.093 114.447 188.966C114.447 189.839 113.712 190.546 112.806 190.546Z" fill="#DBDBDB"/>
<path d="M349.698 63.546C348.792 63.546 348.057 62.8386 348.057 61.966C348.057 61.0934 348.792 60.386 349.698 60.386C350.605 60.386 351.34 61.0934 351.34 61.966C351.34 62.8386 350.605 63.546 349.698 63.546Z" fill="#0987FF"/>
<path d="M281.124 275.546C280.217 275.546 279.482 274.839 279.482 273.966C279.482 273.093 280.217 272.386 281.124 272.386C282.031 272.386 282.766 273.093 282.766 273.966C282.766 274.839 282.031 275.546 281.124 275.546Z" fill="#DBDBDB"/>
<path d="M43.1923 338.546C42.2857 338.546 41.5507 337.839 41.5507 336.966C41.5507 336.093 42.2857 335.386 43.1923 335.386C44.099 335.386 44.834 336.093 44.834 336.966C44.834 337.839 44.099 338.546 43.1923 338.546Z" fill="#0987FF"/>
<path d="M99.7344 354.966C98.8277 354.966 98.0928 354.259 98.0928 353.386C98.0928 352.513 98.8277 351.806 99.7344 351.806C100.641 351.806 101.376 352.513 101.376 353.386C101.376 354.259 100.641 354.966 99.7344 354.966Z" fill="#0987FF"/>
<path d="M66.1431 73.676C70.2472 74.126 70.6212 74.486 71.0784 78.426C71.546 74.486 71.92 74.126 76.0137 73.676C71.92 73.236 71.546 72.876 71.0784 68.926C70.642 72.876 70.2472 73.236 66.1431 73.676Z" fill="#DBDBDB"/>
<path d="M123.227 52.246C125.211 51.986 127.238 51.776 129.232 51.626L129.16 50.626C127.134 50.776 125.097 50.996 123.082 51.256L123.227 52.246Z" fill="#DBDBDB"/>
<path d="M72.2733 73.2759C72.4499 73.1259 90.1234 58.1259 118.312 53.0259L118.114 52.0259C89.6246 57.1859 71.7642 72.3659 71.5876 72.5159L72.2733 73.2759Z" fill="#DBDBDB"/>
<path d="M29.7269 379.086C39.0779 373.086 50.9849 365.966 54.0188 365.966C59.2138 365.966 102.852 385.966 109.086 384.966C115.32 383.966 208.83 315.966 231.688 312.966C253.3 310.126 448.507 372.516 469.817 379.356C456.518 418.886 436.382 431.776 408.755 438.296C376.92 445.806 308.284 421.396 268.49 427.036C228.696 432.676 173.992 459.896 103.361 441.116C69.6038 432.136 45.8626 408.876 29.7269 379.086Z" fill="#263238"/>
<path d="M420.321 379.416C418.96 382.188 417.135 384.725 414.918 386.926V436.686C412.902 437.266 410.856 437.806 408.757 438.296C390.595 442.586 360.443 436.476 330.51 431.496C331.175 418.216 332.193 395.576 331.777 387.796C331.175 376.526 327.621 357.176 327.621 357.176C327.621 357.176 384.943 361.176 400.85 359.486C416.757 357.796 425.786 356.016 425.786 356.016L424.29 360.636C424.29 360.636 422.118 375.376 420.321 379.416Z" fill="#525252" stroke="#263238" stroke-linecap="round" stroke-linejoin="round"/>
<path d="M436.228 348.216C436.228 348.216 437.433 358.906 435.927 360.636C434.42 362.366 422.721 369.886 408.611 370.746C394.502 371.606 370.501 373.926 363.29 373.056C356.079 372.186 339.58 368.436 334.479 367.286C329.377 366.136 324.276 363.526 320.972 361.796C317.668 360.066 317.377 359.796 316.171 357.746C314.966 355.696 315.569 345.036 315.569 345.036C328.21 349.85 341.417 353.152 354.895 354.866C377.4 357.746 408.321 353.126 419.126 349.376C429.932 345.626 436.529 345.036 436.529 345.036L436.228 348.216Z" fill="white" stroke="#263238" stroke-linecap="round" stroke-linejoin="round"/>
<path d="M257.404 128.886C257.404 128.886 245.518 117.126 241.549 112.356C237.58 107.586 224.707 97.416 221.403 94.876C218.099 92.336 209.184 89.786 208.53 91.376C207.875 92.966 209.184 96.466 211.501 97.096C213.818 97.726 222.068 104.096 222.068 104.096L223.72 105.686C221.432 106.743 219.329 108.136 217.486 109.816C214.836 112.356 214.836 121.576 217.486 125.706C220.211 130.011 224.394 133.281 229.33 134.966C232.565 135.972 235.88 136.718 239.243 137.196L250.796 145.136L257.404 128.886Z" fill="white" stroke="#263238" stroke-linecap="round" stroke-linejoin="round"/>
<path d="M212.084 118.656C211.547 119.202 211.148 119.859 210.917 120.577C210.687 121.295 210.631 122.054 210.754 122.796C211.086 125.516 214.91 129.336 216.063 130.136C217.216 130.936 221.528 130.936 221.528 129.816C221.528 128.696 218.546 125.516 217.549 124.716C216.552 123.916 212.084 118.656 212.084 118.656Z" fill="white" stroke="#263238" stroke-linecap="round" stroke-linejoin="round"/>
<path d="M213.735 112.756C213.735 112.756 211.252 114.026 210.92 116.266C210.587 118.506 214.733 123.266 216.063 124.716C216.983 125.608 218.102 126.287 219.335 126.701C220.568 127.115 221.883 127.254 223.18 127.106C225.829 126.626 224.219 122.956 223.512 122.326C222.806 121.696 217.548 116.106 216.883 115.466C216.218 114.826 213.735 112.756 213.735 112.756Z" fill="white" stroke="#263238" stroke-linecap="round" stroke-linejoin="round"/>
<path d="M220.863 112.966C220.863 112.966 226.661 121.736 226.162 122.846C225.663 123.956 223.18 124.126 221.694 123.646C220.208 123.166 215.377 115.826 213.808 113.646C212.239 111.466 212.582 110.386 214.733 109.586C216.563 109.093 218.473 108.93 220.364 109.106L220.863 112.966Z" fill="white" stroke="#263238" stroke-linecap="round" stroke-linejoin="round"/>
<path d="M238.578 112.036L226.359 105.366C226.359 105.366 213.808 109.816 212.852 110.446C211.897 111.076 210.868 112.356 213.891 113.626C216.915 114.896 225.123 113.626 225.123 113.626C225.123 113.626 229.414 125.076 233.383 126.626C235.418 127.473 237.499 128.214 239.617 128.846" fill="white"/>
<path d="M238.578 112.036L226.359 105.366C226.359 105.366 213.808 109.816 212.852 110.446C211.897 111.076 210.868 112.356 213.891 113.626C216.915 114.896 225.123 113.626 225.123 113.626C225.123 113.626 229.414 125.076 233.383 126.626C235.418 127.473 237.499 128.214 239.617 128.846" stroke="#263238" stroke-linecap="round" stroke-linejoin="round"/>
<path d="M332.078 173.736C332.078 173.736 315.267 167.086 311.07 165.066C306.872 163.046 298.467 156.976 293.064 154.066C287.661 151.156 255.836 126.626 255.836 126.626C255.836 126.626 250.143 135.006 249.54 139.916C248.937 144.826 245.633 154.646 245.633 154.646L257.343 164.186C257.343 164.186 268.148 173.136 274.455 180.936C280.762 188.736 302.965 202.026 309.864 206.356C316.763 210.686 325.2 218.796 326.675 222.846C327.742 226.054 328.545 229.337 329.076 232.666C329.076 232.666 316.774 312.106 316.774 316.156C316.774 320.206 313.771 343.306 313.771 345.326C313.771 347.346 323.371 354.326 332.982 358.326C342.593 362.326 375.301 360.326 392.704 360.326C410.107 360.326 435.927 350.796 438.327 349.646C440.727 348.496 439.231 340.106 439.231 340.106L433.828 297.646C433.828 297.646 428.425 256.046 427.22 248.536C426.015 241.026 420.02 214.156 418.523 209.246C417.027 204.336 412.476 199.156 403.51 195.116C394.543 191.076 349.482 180.666 343.185 177.486C339.719 175.665 335.967 174.398 332.078 173.736Z" fill="#0987FF" stroke="#263238" stroke-linecap="round" stroke-linejoin="round"/>
<path d="M327.008 208.116C326.478 206.116 326.073 204.646 326.073 204.646" stroke="#263238" stroke-linecap="round" stroke-linejoin="round"/>
<path d="M329.075 232.666C329.075 232.666 329.678 222.846 329.377 219.086C329.006 216.367 328.464 213.672 327.756 211.016" stroke="#263238" stroke-linecap="round" stroke-linejoin="round"/>
<path d="M319.225 197.706C318.778 196.466 318.362 195.386 317.967 194.536" stroke="#263238" stroke-linecap="round" stroke-linejoin="round"/>
<path d="M326.238 221.276C326.238 221.276 322.955 208.786 320.087 200.276" stroke="#263238" stroke-linecap="round" stroke-linejoin="round"/>
<path d="M277.405 169.346C278.392 171.576 279.358 173.716 280.283 175.696" stroke="#263238" stroke-linecap="round" stroke-linejoin="round"/>
<path d="M263.618 136.386C263.618 136.386 269.156 150.316 274.881 163.586" stroke="#263238" stroke-linecap="round" stroke-linejoin="round"/>
<path d="M273.821 168.456C273.821 168.456 275.972 178.286 280.273 183.976" stroke="#263238" stroke-linecap="round" stroke-linejoin="round"/>
<path d="M269.093 137.046C269.093 137.046 264.583 147.156 262.786 152.646C261.536 156.631 260.52 160.681 259.742 164.776" stroke="#263238" stroke-linecap="round" stroke-linejoin="round"/>
<path d="M388.184 197.886C388.184 197.886 377.119 207.416 371.29 211.886C365.461 216.356 364.879 219.736 359.341 223.096C353.803 226.456 342.447 241.326 342.447 241.326C342.447 241.326 340.702 223.376 339.247 216.326C337.792 209.276 343.611 193.056 346.52 188.326C349.429 183.596 377.981 173.966 382.345 178.216C386.709 182.466 391.083 194.216 390.21 195.366C389.337 196.516 388.184 197.886 388.184 197.886Z" fill="white" stroke="#263238" stroke-linecap="round" stroke-linejoin="round"/>
<path d="M346.188 227.176C346.188 227.176 359.092 220.826 365.991 214.176C372.89 207.526 384.901 194.536 384.901 191.936C384.901 189.336 382.345 178.216 382.345 178.216C382.345 178.216 362.978 186.736 359.383 186.736C355.788 186.736 349.481 190.736 345.876 197.136C342.271 203.536 341.969 209.556 341.72 211.866C341.471 214.176 340.525 229.486 340.525 229.486C340.525 229.486 337.221 217.356 335.424 210.426C333.626 203.496 330.623 200.596 333.616 195.116C336.608 189.636 342.582 182.966 348.588 180.666C354.593 178.366 377.68 172.866 386.407 176.046C395.135 179.226 409.266 184.426 418.824 189.626C428.383 194.826 428.175 196.556 429.63 203.196C431.085 209.836 438.981 233.826 437.734 237.286C436.487 240.746 430.222 232.956 426.627 228.046C423.032 223.136 414.918 209.556 411.614 206.666C408.31 203.776 396.309 203.486 393.306 204.936C390.304 206.386 375.643 214.176 370.199 216.776C364.755 219.376 345.263 230.936 345.263 230.936L342.562 232.376L346.188 227.176Z" fill="white" stroke="#263238" stroke-linecap="round" stroke-linejoin="round"/>
<path d="M349.263 212.446L340.93 194.676L347.683 190.996L349.263 212.446Z" fill="white" stroke="#263238" stroke-linecap="round" stroke-linejoin="round"/>
<path d="M340.93 194.676L338.457 208.116L344.764 203.346L340.93 194.676Z" fill="white" stroke="#263238" stroke-linecap="round" stroke-linejoin="round"/>
<path d="M341.387 180.816C341.387 180.816 345.658 184.716 345.886 186.446C346.115 188.176 349.263 212.446 349.263 212.446L355.788 197.496C355.788 197.496 381.68 187.316 384.423 185.366C387.166 183.416 382.168 172.146 382.168 172.146C382.168 172.146 390.719 167.146 391.852 160.876C392.984 154.606 389.774 149.396 383.966 148.966C378.158 148.536 371.134 155.246 367.986 158.716C364.838 162.186 356.287 171.276 354.936 172.576C353.585 173.876 341.387 180.816 341.387 180.816Z" fill="white" stroke="#263238" stroke-linecap="round" stroke-linejoin="round"/>
<path d="M399.457 166.296C399.457 166.296 400.361 169.116 396.755 172.366C394.334 174.402 391.374 175.752 388.204 176.266C388.204 176.266 390.002 178.866 388.204 179.266C386.407 179.666 383.009 175.146 383.009 175.146C383.009 175.146 386.126 177.966 382.334 178.146C378.541 178.326 374.905 173.376 374.905 170.346C374.905 167.316 376.702 161.456 376.702 161.456C376.702 161.456 370.624 160.156 368.151 156.046C365.679 151.936 368.151 145.856 368.37 141.746C368.516 139.201 368.818 136.667 369.274 134.156C369.274 134.156 388.63 151.056 393.815 155.606C396.773 158.091 399.086 161.207 400.568 164.706L399.457 166.296Z" fill="#263238" stroke="#263238" stroke-linecap="round" stroke-linejoin="round"/>
<path d="M351.259 122.396C351.259 122.396 344.921 129.306 344.079 132.556C343.237 135.806 343.237 138.646 340.702 139.466C338.167 140.286 333.523 141.086 333.949 144.336C334.077 145.298 334.404 146.225 334.911 147.063C335.418 147.902 336.094 148.633 336.899 149.216C336.899 149.216 333.419 155.096 333.419 157.126C333.419 159.156 335.694 158.916 336.723 159.316C338.764 160.145 340.696 161.202 342.479 162.466C340.908 162.568 339.332 162.568 337.762 162.466C335.518 162.346 332.11 160.996 331.528 161.866C330.26 163.866 327.569 169.496 327.154 171.936C326.738 174.376 330.53 178.436 336.016 180.866C341.502 183.296 364.641 180.076 366.324 179.266C368.007 178.456 375.779 166.266 375.779 166.266C375.779 166.266 383.405 167.326 386.366 163.666C389.328 160.006 388.777 154.056 385.826 152.026C382.875 149.996 379.914 150.806 379.073 152.026C377.506 153.776 375.822 155.426 374.033 156.966L373.618 154.966L369.389 153.346C369.862 152.221 370.429 151.134 371.083 150.096C371.924 148.876 372.35 147.246 371.924 144.406C371.697 141.974 371.697 139.528 371.924 137.096L351.259 122.396Z" fill="white" stroke="#263238" stroke-linecap="round" stroke-linejoin="round"/>
<path d="M336.9 149.216C339.656 151.32 342.292 153.567 344.796 155.946C351.03 161.536 351.186 161.946 349.44 164.516C347.695 167.086 347.123 171.216 346.542 174.386C345.96 177.556 344.609 181.836 340.734 182.206C336.858 182.576 330.479 179.046 327.767 176.616C325.055 174.186 326.416 170.846 327.382 169.356C328.349 167.866 329.128 164.516 330.281 165.256C331.434 165.996 330.863 166.746 330.863 167.496C330.863 168.246 335.123 168.796 338.219 169.166C341.315 169.536 345.96 165.626 346.739 164.516C347.518 163.406 340.152 157.806 338.604 157.066C337.055 156.326 333.19 157.066 333.19 154.066C333.19 151.066 333.845 149.186 336.9 149.216Z" fill="#263238" stroke="#263238" stroke-linecap="round" stroke-linejoin="round"/>
<path d="M342.094 160.976L343.061 163.206" stroke="#263238" stroke-linecap="round" stroke-linejoin="round"/>
<path d="M343.828 148.676C343.828 148.676 344.026 150.676 342.093 150.916C340.161 151.156 336.898 149.216 336.898 149.216" stroke="#263238" stroke-linecap="round" stroke-linejoin="round"/>
<path d="M351.788 144.816C350.235 143.874 348.61 143.048 346.926 142.346" stroke="#263238" stroke-linecap="round" stroke-linejoin="round"/>
<path d="M349.201 139.426C348.577 140.676 348.671 141.966 349.388 142.296C350.105 142.626 351.206 141.876 351.819 140.616C352.432 139.356 352.349 138.076 351.622 137.746C350.894 137.416 349.814 138.166 349.201 139.426Z" fill="#263238"/>
<path d="M356.027 137.136C356.027 137.136 355.248 131.136 349.637 132.476" stroke="#263238" stroke-width="2" stroke-linecap="round" stroke-linejoin="round"/>
<path d="M352.94 114.276C352.94 114.276 355.018 107.776 369.398 105.746C381.863 104.093 394.552 106.222 405.701 111.836C414.563 116.306 421.743 119.556 422.169 121.586C422.595 123.616 420.091 125.246 420.091 125.246C420.647 132.185 419.46 139.151 416.631 145.556C412.039 155.716 408.662 156.966 408.662 156.966C408.662 156.966 379.528 124.426 352.94 114.276Z" fill="#858585" stroke="#263238" stroke-linecap="round" stroke-linejoin="round"/>
<path d="M414.149 161.396C414.149 161.396 404.434 170.336 402.72 170.336C401.006 170.336 385.836 152.056 377.389 144.746C368.942 137.436 348.297 124.426 348.297 124.426C348.063 122.812 347.925 121.186 347.881 119.556C347.881 117.556 351.258 111.426 352.941 110.616C354.624 109.806 385.867 125.246 398.107 136.616C410.346 147.986 417.941 158.556 414.149 161.396Z" fill="#858585" stroke="#263238" stroke-linecap="round" stroke-linejoin="round"/>
<path d="M410.284 159.256C407.612 161.07 404.837 162.739 401.972 164.256C400.632 164.756 398.668 164.856 398.055 164.456" stroke="#263238" stroke-linecap="round" stroke-linejoin="round"/>
<path d="M413.277 155.146C413.443 155.604 413.453 156.101 413.305 156.565C413.158 157.029 412.86 157.436 412.456 157.726L411.874 158.166" stroke="#263238" stroke-linecap="round" stroke-linejoin="round"/>
<path d="M398.034 158.296C397.409 158.747 396.706 159.085 395.956 159.296C394.72 159.296 392.039 159.096 392.039 159.096" stroke="#263238" stroke-linecap="round" stroke-linejoin="round"/>
<path d="M408.123 147.796C408.123 147.796 408.736 150.176 407.292 151.566C405.057 153.449 402.716 155.212 400.278 156.846" stroke="#263238" stroke-linecap="round" stroke-linejoin="round"/>
<path d="M394.574 149.146C392.666 150.628 390.641 151.966 388.517 153.146C387.904 153.146 386.252 152.946 386.252 152.946" stroke="#263238" stroke-linecap="round" stroke-linejoin="round"/>
<path d="M401.722 140.646C401.878 141.402 401.827 142.184 401.574 142.915C401.321 143.646 400.874 144.301 400.278 144.816C399.665 145.346 398.429 146.306 396.974 147.386" stroke="#263238" stroke-linecap="round" stroke-linejoin="round"/>
<path d="M386.313 144.506C385.315 145.374 384.178 146.083 382.947 146.606" stroke="#263238" stroke-linecap="round" stroke-linejoin="round"/>
<path d="M395.125 135.086C395.125 135.086 393.473 138.856 392.237 139.856C391.738 140.246 390.314 141.416 388.714 142.666" stroke="#263238" stroke-linecap="round" stroke-linejoin="round"/>
<path d="M386.625 179.966C386.625 179.966 368.619 191.016 365.471 192.966C362.349 194.683 359.114 196.203 355.788 197.516L362.77 215.276C362.77 215.276 375.82 205.536 381.68 199.036C387.54 192.536 390.459 183.846 386.625 179.966Z" fill="white" stroke="#263238" stroke-linecap="round" stroke-linejoin="round"/>
<path d="M337.782 233.246C335.807 235.299 334.365 237.773 333.574 240.466C332.379 244.796 329.273 248.516 327.88 249.136C323.6 251.006 321.272 253.136 322.779 256.646C324.285 260.156 325.771 260.396 325.771 260.396C325.771 260.396 325.48 272.246 326.374 276.286C327.267 280.326 331.777 280.616 335.725 280.906C338.341 281.047 340.965 280.852 343.528 280.326V295.646C343.528 295.646 356.432 292.756 360.63 292.466C364.827 292.176 369.337 292.176 369.337 292.176L369.035 283.796C369.035 283.796 369.337 284.666 371.737 285.246C374.137 285.826 376.246 284.956 375.342 284.086C374.744 283.426 374.329 282.632 374.137 281.776C377.837 280.379 381.284 278.429 384.35 275.996C389.452 271.996 385.244 262.416 377.14 253.466C369.035 244.516 363.03 239.886 352.204 234.976C341.377 230.066 337.782 233.246 337.782 233.246Z" fill="white" stroke="#263238" stroke-linecap="round" stroke-linejoin="round"/>
<path d="M354.438 254.336C355.982 251.862 356.618 248.96 356.245 246.096C358.416 246.015 360.56 246.569 362.396 247.686C365.368 249.466 378.937 259.236 385.358 265.786C387.104 270.136 387.021 273.846 384.319 275.996C381.253 278.429 377.806 280.379 374.106 281.776C374.298 282.632 374.713 283.426 375.311 284.086C376.215 284.956 374.106 285.816 371.706 285.246C369.306 284.676 369.004 283.796 369.004 283.796V284.846C369.004 284.846 368.111 284.126 367.508 283.546C366.906 282.966 364.952 280.226 364.952 280.226L364.506 282.536C363.906 282.425 363.339 282.188 362.845 281.843C362.351 281.497 361.943 281.051 361.648 280.536C360.453 278.656 358.531 272.736 358.531 272.736C359.733 273.041 360.991 273.082 362.212 272.857C363.433 272.632 364.586 272.147 365.586 271.436C369.191 268.976 370.542 262.626 368.703 261.326C366.864 260.026 364.547 260.026 361.804 260.896C359.52 261.801 357.354 262.962 355.352 264.356C355.353 263.235 355.503 262.12 355.799 261.036C356.134 260.176 356.646 259.39 357.305 258.726C356.008 258.879 354.696 258.879 353.399 258.726C352.462 258.537 351.508 258.44 350.552 258.436C350.552 258.436 351.892 258.086 354.438 254.336Z" fill="#263238" stroke="#263238" stroke-linecap="round" stroke-linejoin="round"/>
<path d="M335.589 248.656C335.174 250.096 335.319 251.396 335.922 251.556C336.525 251.716 337.345 250.686 337.761 249.246C338.177 247.806 338.031 246.506 337.439 246.346C336.847 246.186 335.995 247.216 335.589 248.656Z" fill="#263238"/>
<path d="M330.394 265.096C330.394 265.096 335.589 264.656 338.498 262.496C338.498 262.496 339.402 267.696 336.472 268.556C333.542 269.416 330.394 265.096 330.394 265.096Z" fill="#263238" stroke="#263238" stroke-linecap="round" stroke-linejoin="round"/>
<path d="M342.738 244.296C342.738 244.296 342.063 240.176 338.686 240.176" stroke="#263238" stroke-linecap="round" stroke-linejoin="round"/>
<path d="M382.501 432.856L382.273 439.216C364.911 437.766 344.308 433.676 324.193 430.466C324.193 427.926 324.276 425.676 324.276 424.766C324.276 422.166 321.876 408.016 321.876 408.016C321.876 408.016 354.895 414.656 367.498 413.216C374.6 412.488 381.566 410.836 388.206 408.306C388.206 408.306 389.411 418.706 388.206 423.616C387 428.526 382.501 432.856 382.501 432.856Z" fill="#0987FF" stroke="#263238" stroke-linecap="round" stroke-linejoin="round"/>
<path d="M395.405 396.456V408.306C395.405 408.306 378.906 415.816 365.991 416.396C353.076 416.976 332.078 413.796 327.88 412.346C323.683 410.896 314.675 405.126 314.675 405.126L317.667 395.306C317.667 395.306 340.785 400.796 354.292 401.086C367.799 401.376 383.706 397.906 387.301 396.456C390.896 395.006 394.813 393.856 394.813 393.856L395.405 396.456Z" fill="white" stroke="#263238" stroke-linecap="round" stroke-linejoin="round"/>
<path d="M387.904 325.686C387.904 325.686 396.61 391.836 396.61 396.176C396.61 400.516 376.495 408.886 356.089 407.726C335.683 406.566 318.571 400.796 316.472 397.326C314.373 393.856 318.27 381.146 318.27 379.996C318.27 378.846 331.434 318.466 332.078 317.306C332.722 316.146 334.156 310.666 337.481 306.306C340.806 301.946 363.591 295.626 373.503 299.086C383.415 302.546 387.01 311.506 387.301 315.556C387.592 319.606 387.904 325.686 387.904 325.686Z" fill="white" stroke="#263238" stroke-linecap="round" stroke-linejoin="round"/>
<path d="M385.202 297.376C385.202 297.376 398.408 310.666 397.805 314.126C397.203 317.586 393.909 327.706 392.111 328.866C390.314 330.026 388.807 328.866 387.01 327.706C385.212 326.546 369.596 309.216 367.196 306.616C364.796 304.016 346.188 305.756 344.338 306.046C342.489 306.336 334.436 314.416 333.532 315.576C332.629 316.736 327.537 320.486 332.036 312.976C336.535 305.466 341.387 294.196 345.845 292.756C350.302 291.316 360.547 284.956 370.157 288.996C375.523 291.16 380.579 293.976 385.202 297.376V297.376Z" fill="white" stroke="#263238" stroke-linecap="round" stroke-linejoin="round"/>
<path d="M277.405 300.846C277.405 300.846 262.402 286.686 261.82 285.846C261.238 285.006 256.116 281.846 253.124 280.076C250.131 278.306 239.617 276.896 239.315 279.206C239.014 281.516 243.471 281.516 245.31 282.096C247.15 282.676 252.521 286.426 252.521 286.426C250.114 286.395 247.707 286.492 245.31 286.716C244.417 287.006 242.609 294.516 242.609 295.386C242.609 296.256 247.118 300.296 247.721 301.156C248.324 302.016 251.877 302.026 251.877 302.026L252.48 298.276C252.48 298.276 257.581 303.756 259.68 304.626C261.925 305.325 264.236 305.811 266.579 306.076L273.249 309.796L277.405 300.846Z" fill="white" stroke="#263238" stroke-linecap="round" stroke-linejoin="round"/>
<path d="M252.542 298.246L247.139 295.356" stroke="#263238" stroke-linecap="round" stroke-linejoin="round"/>
<path d="M287.66 304.886C287.66 304.886 279.255 298.816 278.049 298.816C276.844 298.816 268.698 309.216 268.148 310.376C267.597 311.536 269.052 314.996 269.945 315.286C270.839 315.576 278.351 320.486 278.351 320.486L287.66 304.886Z" fill="white" stroke="#263238" stroke-linecap="round" stroke-linejoin="round"/>
<path d="M348.588 310.376C344.089 312.106 319.174 321.966 319.174 321.966C319.174 321.966 292.16 305.506 290.082 304.346C288.004 303.186 283.775 304.636 282.871 305.216C281.967 305.796 273.873 317.926 275.369 321.106C276.865 324.286 296.679 342.476 304.783 347.386C312.888 352.296 318.29 354.906 324.296 355.186C330.301 355.466 345.003 350.566 356.11 345.076C367.217 339.586 374.719 330.346 374.719 323.126C374.719 315.906 363.591 308.966 357.596 308.966" fill="white"/>
<path d="M348.588 310.376C344.089 312.106 319.174 321.966 319.174 321.966C319.174 321.966 292.16 305.506 290.082 304.346C288.004 303.186 283.775 304.636 282.871 305.216C281.967 305.796 273.873 317.926 275.369 321.106C276.865 324.286 296.679 342.476 304.783 347.386C312.888 352.296 318.29 354.906 324.296 355.186C330.301 355.466 345.003 350.566 356.11 345.076C367.217 339.586 374.719 330.346 374.719 323.126C374.719 315.906 363.591 308.966 357.596 308.966" stroke="#263238" stroke-linecap="round" stroke-linejoin="round"/>
<path d="M393.909 293.906C393.909 293.906 380.402 295.066 374.397 293.046C367.61 290.983 360.694 289.34 353.689 288.126C351.289 287.846 346.79 294.196 344.338 295.646C341.886 297.096 341.346 301.416 341.637 303.156C341.928 304.896 342.842 305.756 345.793 306.326C348.744 306.896 355.695 304.886 360.194 306.326C364.692 307.766 369.804 311.526 374.002 312.106C378.199 312.686 386.615 311.236 386.615 311.236L401.92 310.666C401.92 310.666 399.915 297.086 393.909 293.906Z" fill="white" stroke="#263238" stroke-linecap="round" stroke-linejoin="round"/>
<path d="M365.991 303.156C365.991 303.156 359.695 299.966 358.448 299.966C357.201 299.966 349.149 301.696 349.149 301.696C349.149 301.696 343.144 302.566 343.144 304.586" fill="white"/>
<path d="M365.991 303.156C365.991 303.156 359.695 299.966 358.448 299.966C357.201 299.966 349.149 301.696 349.149 301.696C349.149 301.696 343.144 302.566 343.144 304.586" stroke="#263238" stroke-linecap="round" stroke-linejoin="round"/>
<path d="M363.892 296.216C363.892 296.216 358.187 294.216 356.691 294.486C355.195 294.756 347.984 296.796 345.262 299.106C343.827 300.246 342.607 301.616 341.657 303.156" fill="white"/>
<path d="M363.892 296.216C363.892 296.216 358.187 294.216 356.691 294.486C355.195 294.756 347.984 296.796 345.262 299.106C343.827 300.246 342.607 301.616 341.657 303.156" stroke="#263238" stroke-linecap="round" stroke-linejoin="round"/>
<path d="M362.988 292.466C362.988 292.466 356.089 291.016 353.991 291.306C351.892 291.596 346.79 293.906 346.79 293.906" fill="white"/>
<path d="M362.988 292.466C362.988 292.466 356.089 291.016 353.991 291.306C351.892 291.596 346.79 293.906 346.79 293.906" stroke="#263238" stroke-linecap="round" stroke-linejoin="round"/>
<path d="M389.711 240.466L413.723 280.326C413.723 280.326 409.567 284.086 408.611 284.956C407.655 285.826 399.613 289.866 399.613 289.866C399.613 289.866 413.723 303.726 415.52 308.066C416.441 310.411 417.651 312.64 419.126 314.706L423.282 315.286C423.282 315.286 443.428 308.066 450.919 305.176C458.41 302.286 461.725 292.756 459.616 285.816C457.506 278.876 432.601 234.396 432.601 234.396C432.601 234.396 417.598 207.246 410.398 204.396C403.198 201.546 392.392 202.666 386.688 206.396C380.984 210.126 380.381 218.526 380.381 218.526" fill="#0987FF"/>
<path d="M389.711 240.466L413.723 280.326C413.723 280.326 409.567 284.086 408.611 284.956C407.655 285.826 399.613 289.866 399.613 289.866C399.613 289.866 413.723 303.726 415.52 308.066C416.441 310.411 417.651 312.64 419.126 314.706L423.282 315.286C423.282 315.286 443.428 308.066 450.919 305.176C458.41 302.286 461.725 292.756 459.616 285.816C457.506 278.876 432.601 234.396 432.601 234.396C432.601 234.396 417.598 207.246 410.398 204.396C403.198 201.546 392.392 202.666 386.688 206.396C380.984 210.126 380.381 218.526 380.381 218.526" stroke="#263238" stroke-linecap="round" stroke-linejoin="round"/>
<path d="M429.1 270.166C430.136 269.783 431.213 269.512 432.311 269.356Z" fill="white"/>
<path d="M429.1 270.166C430.136 269.783 431.213 269.512 432.311 269.356" stroke="#263238" stroke-linecap="round" stroke-linejoin="round"/>
<path d="M414.918 280.046C418.29 276.579 422.194 273.628 426.492 271.296Z" fill="white"/>
<path d="M414.918 280.046C418.29 276.579 422.194 273.628 426.492 271.296" stroke="#263238" stroke-linecap="round" stroke-linejoin="round"/>
<path d="M436.934 273.286C434.638 272.719 432.263 272.513 429.9 272.676Z" fill="white"/>
<path d="M436.934 273.286C434.638 272.719 432.263 272.513 429.9 272.676" stroke="#263238" stroke-linecap="round" stroke-linejoin="round"/>
<path d="M442.212 275.396C441.491 274.95 440.73 274.568 439.936 274.256Z" fill="white"/>
<path d="M442.212 275.396C441.491 274.95 440.73 274.568 439.936 274.256" stroke="#263238" stroke-linecap="round" stroke-linejoin="round"/>
<path d="M386.71 293.326C386.71 293.326 394.814 300.846 396.892 306.616C398.97 312.386 401.048 320.776 401.048 320.776C401.048 320.776 402.554 321.066 411.251 319.036C419.947 317.006 423.262 315.286 423.262 315.286C423.262 315.286 418.462 299.106 412.757 293.616C407.053 288.126 405.848 286.686 405.848 286.686L386.71 293.326Z" fill="#0987FF" stroke="#263238" stroke-linecap="round" stroke-linejoin="round"/>
<path d="M341.387 227.466C341.387 227.466 346.79 221.396 354.292 220.536C361.793 219.676 380.703 220.536 386.106 221.976C391.509 223.416 396.309 228.046 396.008 229.486C395.878 229.963 395.777 230.447 395.706 230.936L395.405 232.666C395.405 232.666 396.309 241.046 396.912 249.666C397.514 258.286 391.81 265.266 390.304 266.426C388.797 267.586 370.802 243.606 359.695 236.666C348.588 229.726 341.387 227.466 341.387 227.466Z" fill="#858585" stroke="#263238" stroke-linecap="round" stroke-linejoin="round"/>
<path d="M393.909 268.486C393.909 268.486 385.203 275.706 383.104 277.726C381.005 279.746 375.301 271.666 375.301 271.666C375.301 271.666 364.797 254.336 353.991 246.816C343.185 239.296 338.084 235.556 336.879 234.966C335.673 234.376 334.177 232.076 336.276 230.346C338.375 228.616 340.484 223.986 344.38 224.566C348.276 225.146 363.893 233.816 373.472 243.056C383.052 252.296 390.273 260.056 392.974 262.986C395.676 265.916 393.909 268.486 393.909 268.486Z" fill="#858585" stroke="#263238" stroke-linecap="round" stroke-linejoin="round"/>
<path d="M379.623 271.076C379.02 271.466 378.584 271.746 378.293 271.886C377.909 272.124 377.451 272.228 376.996 272.178C376.542 272.129 376.119 271.931 375.8 271.616" stroke="#263238" stroke-linecap="round" stroke-linejoin="round"/>
<path d="M383.384 268.516L381.171 270.026" stroke="#263238" stroke-linecap="round" stroke-linejoin="round"/>
<path d="M390.449 260.576C390.725 261.072 390.821 261.643 390.721 262.197C390.622 262.752 390.332 263.258 389.898 263.636C388.565 264.833 387.153 265.946 385.669 266.966" stroke="#263238" stroke-linecap="round" stroke-linejoin="round"/>
<path d="M384.372 254.196C384.445 254.758 384.354 255.329 384.11 255.844C383.867 256.36 383.479 256.8 382.99 257.116C381.328 258.046 373.036 265.366 372.07 265.366C371.104 265.366 369.857 264.166 369.857 264.166" stroke="#263238" stroke-linecap="round" stroke-linejoin="round"/>
<path d="M371.654 253.906C370.167 254.92 368.596 255.817 366.958 256.586C366.12 256.497 365.287 256.363 364.464 256.186" stroke="#263238" stroke-linecap="round" stroke-linejoin="round"/>
<path d="M377.877 247.536C377.838 248.562 377.447 249.547 376.765 250.336C375.679 251.269 374.515 252.115 373.285 252.866" stroke="#263238" stroke-linecap="round" stroke-linejoin="round"/>
<path d="M362.833 249.166L361.285 250.166" stroke="#263238" stroke-linecap="round" stroke-linejoin="round"/>
<path d="M371.654 241.816C371.654 241.816 369.722 243.946 368.62 245.016C368.039 245.566 366.085 246.946 364.34 248.146" stroke="#263238" stroke-linecap="round" stroke-linejoin="round"/>
<path d="M181.815 390.666C184.039 391.256 185.421 395.026 185.504 397.006C185.504 397.176 185.317 399.866 185.275 399.856C185.234 399.846 181.514 398.406 180.278 397.146C179.239 396.066 178.2 394.416 178.459 392.866C178.511 392.501 178.642 392.15 178.843 391.837C179.045 391.524 179.312 391.255 179.629 391.047C179.945 390.84 180.303 390.699 180.68 390.633C181.057 390.567 181.444 390.579 181.815 390.666V390.666Z" fill="#DBDBDB"/>
<path d="M217.557 413.376C217.557 413.376 215.24 410.166 214.939 408.456C214.669 406.996 214.762 405.066 215.874 403.926C216.125 403.648 216.434 403.425 216.78 403.27C217.127 403.114 217.504 403.031 217.886 403.026C218.268 403.02 218.648 403.092 218.999 403.237C219.351 403.382 219.666 403.596 219.926 403.866C221.443 405.536 220.435 409.426 219.375 411.116C219.282 411.266 217.578 413.406 217.557 413.376Z" fill="#DBDBDB"/>
<path d="M176.112 441.496C174.938 440.546 173.712 439.016 173.795 437.496C173.8 437.123 173.887 436.754 174.052 436.416C174.217 436.078 174.455 435.778 174.75 435.535C175.045 435.293 175.391 435.114 175.764 435.011C176.137 434.907 176.528 434.882 176.912 434.936C179.198 435.276 181.016 438.866 181.338 440.826C181.338 440.956 181.432 442.456 181.452 443.226C181.588 442.606 181.723 441.986 181.847 441.336C182.034 440.406 182.201 439.416 182.377 438.446C182.44 437.946 182.512 437.446 182.575 436.926C182.637 436.406 182.678 435.926 182.73 435.396C182.782 434.646 182.803 433.856 182.824 433.076C181.033 432.909 179.28 432.474 177.629 431.786C176.32 431.016 174.865 429.676 174.699 428.116C174.645 427.748 174.672 427.374 174.778 427.017C174.885 426.66 175.069 426.329 175.319 426.046C175.568 425.762 175.877 425.533 176.225 425.373C176.573 425.213 176.952 425.125 177.338 425.116C179.645 425.116 182.003 428.406 182.637 430.296C182.637 430.356 182.751 430.766 182.845 431.296C182.845 430.536 182.845 429.766 182.845 428.996C182.762 426.806 182.606 424.566 182.46 422.326C182.46 421.866 182.408 421.396 182.377 420.926C181.536 420.826 178.367 420.396 177.037 419.616C175.707 418.836 174.273 417.506 174.107 415.956C174.052 415.589 174.079 415.216 174.185 414.859C174.292 414.503 174.475 414.173 174.723 413.889C174.971 413.606 175.279 413.377 175.626 413.216C175.972 413.055 176.351 412.966 176.735 412.956C179.042 412.956 181.411 416.246 182.045 418.136C182.045 418.206 182.169 418.696 182.284 419.246C182.221 418.026 182.18 416.816 182.169 415.606C182.148 413.537 182.269 411.469 182.533 409.416C182.232 409.416 178.502 408.946 177.016 408.076C175.707 407.306 174.252 405.976 174.096 404.416C174.039 404.049 174.063 403.674 174.168 403.316C174.273 402.959 174.456 402.627 174.705 402.343C174.953 402.059 175.262 401.829 175.611 401.669C175.959 401.51 176.339 401.423 176.725 401.416C179.032 401.416 181.401 404.706 182.024 406.586C182.076 406.726 182.44 408.506 182.554 409.146C182.549 409.123 182.549 409.099 182.554 409.076C182.863 407.065 183.357 405.084 184.029 403.156C184.623 401.433 185.317 399.744 186.107 398.096C186.824 396.566 187.583 395.206 188.268 394.006C188.642 393.366 188.996 392.776 189.307 392.236H189.255C189.255 392.236 189.557 389.566 189.598 389.396C190.087 387.476 192.196 384.026 194.502 383.866C194.885 383.848 195.266 383.909 195.623 384.043C195.979 384.177 196.302 384.382 196.571 384.644C196.84 384.906 197.048 385.22 197.182 385.565C197.316 385.91 197.373 386.278 197.349 386.646C197.349 388.206 195.957 389.646 194.71 390.506C193.463 391.366 190.232 392.046 189.442 392.196C189.1 392.766 188.746 393.376 188.403 394.066C187.749 395.276 187.022 396.646 186.325 398.186C186.138 398.596 185.962 399.046 185.775 399.486C186.242 398.816 186.897 397.906 186.97 397.826C188.32 396.336 191.842 394.216 193.962 395.086C194.31 395.24 194.62 395.463 194.872 395.74C195.124 396.017 195.313 396.342 195.425 396.694C195.538 397.046 195.572 397.417 195.526 397.783C195.48 398.148 195.354 398.5 195.157 398.816C194.367 400.186 192.497 400.866 191.001 401.076C189.505 401.286 186.19 400.426 185.484 400.236C185.099 401.236 184.715 402.236 184.445 403.236C183.813 405.16 183.364 407.134 183.104 409.136H183.229C183.582 408.476 184.362 407.136 184.434 406.986C185.608 405.356 188.871 402.876 191.074 403.516C191.438 403.633 191.772 403.822 192.055 404.071C192.338 404.321 192.563 404.624 192.716 404.963C192.869 405.302 192.946 405.668 192.942 406.037C192.939 406.406 192.854 406.77 192.694 407.106C192.061 408.546 190.274 409.416 188.788 409.786C187.063 410.206 183.219 409.536 183.073 409.516C182.872 411.51 182.803 413.514 182.866 415.516C182.866 416.996 183.011 418.516 183.136 419.996C183.364 419.526 184.382 417.716 184.466 417.586C185.64 415.966 188.902 413.476 191.105 414.126C191.468 414.242 191.803 414.43 192.086 414.678C192.368 414.926 192.594 415.229 192.747 415.567C192.9 415.905 192.977 416.27 192.973 416.639C192.97 417.007 192.885 417.371 192.726 417.706C192.102 419.156 190.305 420.026 188.819 420.386C187.146 420.806 183.458 420.176 183.146 420.126C183.146 420.806 183.25 421.486 183.312 422.176C183.51 424.406 183.717 426.636 183.853 428.856C183.853 429.616 183.915 430.376 183.936 431.136C184.31 430.436 184.975 429.136 185.089 429.076C186.253 427.446 189.515 424.966 191.728 425.606C192.091 425.724 192.425 425.914 192.706 426.163C192.988 426.413 193.212 426.717 193.364 427.056C193.516 427.394 193.592 427.76 193.588 428.129C193.583 428.497 193.499 428.861 193.339 429.196C192.715 430.636 190.918 431.506 189.432 431.876C187.946 432.246 184.829 431.786 183.946 431.646C183.946 432.906 183.946 434.156 183.946 435.386C183.946 435.916 183.894 436.466 183.832 436.976C183.769 437.486 183.707 437.976 183.655 438.496C183.499 439.496 183.354 440.496 183.188 441.496C183.104 441.986 183.011 442.436 182.928 442.916C183.198 442.146 183.634 440.916 183.697 440.846C184.601 439.066 187.427 436.136 189.713 436.446C190.09 436.509 190.449 436.648 190.767 436.853C191.085 437.058 191.355 437.326 191.559 437.638C191.763 437.95 191.896 438.3 191.95 438.665C192.004 439.03 191.978 439.401 191.874 439.756C191.825 439.946 191.755 440.13 191.666 440.306C191.837 441.646 191.731 443.006 191.354 444.306C189.962 444.536 188.57 444.756 187.198 444.966C186.848 444.472 186.555 443.942 186.325 443.386C185.169 443.494 184.006 443.534 182.845 443.506C182.699 444.236 182.564 444.946 182.419 445.636L181.006 445.816C181.172 445.096 181.349 444.346 181.515 443.576C180.881 443.496 177.4 442.546 176.112 441.496Z" fill="#DBDBDB"/>
<path d="M193.016 443.966L194.055 442.806C194.419 442.426 194.72 442.016 195.094 441.606C195.582 441.006 196.05 440.366 196.507 439.726C195.114 438.632 193.905 437.336 192.923 435.886C192.268 434.546 191.821 432.666 192.58 431.276C192.746 430.945 192.984 430.651 193.276 430.413C193.568 430.176 193.91 430.001 194.277 429.899C194.645 429.797 195.031 429.771 195.41 429.822C195.788 429.873 196.152 430.001 196.476 430.196C198.398 431.416 198.492 435.416 197.931 437.326C197.931 437.386 197.754 437.786 197.557 438.246C197.993 437.606 198.429 436.966 198.845 436.306C200.04 434.436 201.193 432.486 202.346 430.546L203.084 429.336C202.44 428.796 200.04 426.756 199.375 425.396C198.71 424.036 198.274 422.176 199.032 420.786C199.2 420.454 199.438 420.16 199.731 419.923C200.025 419.685 200.367 419.51 200.735 419.408C201.104 419.306 201.49 419.28 201.87 419.332C202.249 419.383 202.614 419.511 202.939 419.706C204.861 420.926 204.944 424.926 204.393 426.836C204.393 426.906 204.175 427.376 203.957 427.896C204.601 426.846 205.256 425.806 205.941 424.796C207.113 423.051 208.401 421.381 209.796 419.796C209.567 419.606 206.679 417.266 205.962 415.796C205.308 414.456 204.871 412.576 205.63 411.186C205.795 410.854 206.031 410.558 206.324 410.32C206.616 410.082 206.958 409.906 207.326 409.804C207.694 409.702 208.08 409.676 208.459 409.728C208.839 409.78 209.202 409.909 209.526 410.106C211.448 411.326 211.542 415.326 210.981 417.236C210.981 417.376 210.222 419.056 209.942 419.646V419.596C211.349 418.081 212.897 416.692 214.565 415.446C216.047 414.321 217.598 413.283 219.209 412.336C220.695 411.446 222.108 410.706 223.365 410.076C224.041 409.736 224.675 409.436 225.267 409.166C225.267 409.166 227.044 407.096 227.179 406.986C228.685 405.636 232.426 403.876 234.452 404.986C234.611 405.066 234.758 405.167 234.888 405.286C234.802 405.158 234.725 405.025 234.659 404.886C234.517 404.596 234.439 404.279 234.431 403.958C234.423 403.637 234.485 403.317 234.614 403.02C234.742 402.724 234.933 402.456 235.176 402.235C235.418 402.014 235.706 401.844 236.02 401.736C237.943 401.146 240.831 403.266 241.88 404.676C241.943 404.766 242.639 405.966 242.919 406.536H243.023C242.767 404.794 242.35 403.077 241.777 401.406C241.465 400.476 241.122 399.616 240.738 398.776C239.186 399.281 237.564 399.554 235.927 399.586C235.205 399.544 234.501 399.352 233.864 399.022C233.227 398.692 232.673 398.233 232.239 397.676C232.062 397.403 231.948 397.096 231.902 396.778C231.857 396.459 231.882 396.134 231.975 395.825C232.068 395.516 232.227 395.229 232.443 394.983C232.658 394.737 232.925 394.537 233.226 394.396C235.065 393.596 238.182 395.396 239.376 396.696C239.449 396.766 240.031 397.546 240.415 398.126C240.249 397.746 240.083 397.356 239.917 397.006C239.293 395.666 238.639 394.476 238.047 393.426C237.714 392.836 237.392 392.306 237.08 391.806C235.472 391.571 233.912 391.096 232.457 390.396C231.834 390.041 231.3 389.559 230.892 388.984C230.485 388.408 230.214 387.754 230.098 387.066C230.072 386.746 230.116 386.423 230.227 386.12C230.339 385.817 230.516 385.54 230.746 385.307C230.977 385.074 231.255 384.89 231.564 384.768C231.873 384.645 232.206 384.587 232.54 384.596C234.555 384.706 236.446 387.686 236.904 389.366C236.904 389.506 237.278 391.846 237.247 391.836C237.548 392.306 237.87 392.836 238.202 393.376C238.815 394.376 239.501 395.586 240.156 396.926C240.884 398.351 241.523 399.817 242.067 401.316C242.684 402.991 243.147 404.714 243.449 406.466V406.526C243.543 405.966 243.834 404.406 243.875 404.286C244.395 402.626 246.421 399.716 248.426 399.686C248.761 399.688 249.092 399.758 249.397 399.892C249.702 400.025 249.974 400.219 250.195 400.461C250.417 400.702 250.583 400.986 250.683 401.294C250.783 401.602 250.814 401.926 250.774 402.246C250.63 402.93 250.331 403.575 249.898 404.135C249.465 404.695 248.909 405.156 248.27 405.486C246.747 406.129 245.133 406.55 243.481 406.736C243.738 408.529 243.873 410.336 243.886 412.146C243.886 413.146 243.886 414.256 243.886 415.326C243.979 414.836 244.073 414.406 244.083 414.326C244.613 412.666 246.629 409.766 248.644 409.726C248.979 409.729 249.31 409.801 249.614 409.935C249.919 410.07 250.19 410.265 250.411 410.508C250.632 410.75 250.797 411.035 250.895 411.343C250.993 411.651 251.023 411.976 250.982 412.296C250.836 412.978 250.537 413.621 250.107 414.181C249.676 414.741 249.124 415.203 248.489 415.536C247.011 416.17 245.441 416.581 243.834 416.756C243.834 417.166 243.834 417.576 243.834 417.986C243.74 419.986 243.636 421.896 243.595 423.816C243.595 424.486 243.595 425.156 243.595 425.816C243.668 425.386 243.74 425.026 243.761 424.966C244.281 423.306 246.307 420.406 248.322 420.366C248.657 420.371 248.987 420.443 249.29 420.578C249.594 420.714 249.865 420.909 250.085 421.151C250.305 421.393 250.47 421.677 250.569 421.985C250.668 422.292 250.699 422.616 250.66 422.936C250.514 423.62 250.214 424.264 249.782 424.824C249.349 425.384 248.794 425.845 248.156 426.176C246.724 426.802 245.199 427.207 243.636 427.376C243.636 428.066 243.699 428.746 243.761 429.376C243.761 429.826 243.834 430.266 243.907 430.716C243.979 431.166 244.042 431.596 244.114 432.036V432.176L243.075 432.426C243.075 432.336 243.075 432.256 243.075 432.176C243.013 431.736 242.961 431.286 242.899 430.846C242.836 430.406 242.816 429.926 242.774 429.466C242.701 428.386 242.67 427.286 242.68 426.186C241.108 426.515 239.493 426.61 237.891 426.466C237.175 426.35 236.495 426.085 235.898 425.69C235.3 425.294 234.799 424.777 234.431 424.176C234.275 423.886 234.185 423.568 234.167 423.241C234.149 422.915 234.204 422.589 234.328 422.285C234.452 421.981 234.642 421.706 234.886 421.479C235.129 421.251 235.421 421.076 235.74 420.966C237.662 420.366 240.551 422.496 241.6 423.896C241.662 423.986 242.296 425.076 242.639 425.686C242.639 425.026 242.639 424.356 242.639 423.686C242.722 421.756 242.868 419.796 243.013 417.846C243.013 417.246 243.086 416.646 243.127 416.056C241.5 416.393 239.83 416.498 238.171 416.366C237.458 416.248 236.781 415.981 236.185 415.586C235.589 415.191 235.09 414.675 234.722 414.076C234.575 413.786 234.494 413.469 234.484 413.147C234.474 412.824 234.534 412.503 234.662 412.205C234.789 411.907 234.981 411.638 235.224 411.416C235.467 411.193 235.756 411.023 236.072 410.916C237.995 410.326 240.883 412.446 241.932 413.856C242.005 413.956 242.971 415.536 243.138 415.946C243.21 414.626 243.283 413.316 243.294 412.016C243.325 410.269 243.235 408.522 243.023 406.786C242.899 406.786 239.553 407.446 238.047 407.096C237.027 406.886 236.082 406.424 235.304 405.756C235.584 406.215 235.721 406.743 235.697 407.275C235.673 407.808 235.49 408.322 235.169 408.756C234.233 410.036 232.29 410.516 230.753 410.576C229.215 410.636 226.14 409.486 225.381 409.196C224.778 409.486 224.134 409.806 223.417 410.196C222.181 410.866 220.789 411.616 219.334 412.546C218.95 412.786 218.534 413.066 218.139 413.326C218.908 413.016 219.968 412.616 220.082 412.586C222.056 412.056 226.223 412.156 227.49 414.006C227.691 414.32 227.821 414.671 227.872 415.036C227.923 415.401 227.894 415.772 227.786 416.126C227.678 416.48 227.494 416.807 227.247 417.088C226.999 417.369 226.692 417.597 226.347 417.756C224.903 418.486 222.95 418.046 221.558 417.416C220.165 416.786 217.911 414.326 217.402 413.786C216.518 414.386 215.635 415.016 214.752 415.726C213.122 416.991 211.62 418.401 210.264 419.936L210.347 420.026C211.012 419.666 212.425 418.916 212.581 418.876C214.492 418.136 218.628 417.796 220.103 419.506C220.339 419.797 220.508 420.132 220.601 420.489C220.694 420.847 220.707 421.22 220.64 421.583C220.574 421.946 220.429 422.291 220.214 422.597C220 422.902 219.721 423.161 219.396 423.356C218.046 424.226 216.051 423.996 214.596 423.516C212.923 422.956 210.108 420.356 209.993 420.256C208.687 421.812 207.483 423.445 206.388 425.146C205.567 426.406 204.798 427.716 204.04 429.026C204.508 428.756 206.388 427.786 206.534 427.726C208.445 426.996 212.591 426.656 214.056 428.366C214.293 428.655 214.464 428.989 214.557 429.347C214.651 429.704 214.665 430.076 214.598 430.439C214.531 430.802 214.385 431.146 214.17 431.451C213.955 431.756 213.675 432.013 213.349 432.206C211.999 433.086 210.014 432.856 208.56 432.376C206.918 431.826 204.206 429.376 203.978 429.136L202.939 430.936C201.827 432.936 200.715 434.876 199.562 436.796C199.157 437.456 198.741 438.096 198.325 438.746C199.032 438.356 200.341 437.676 200.466 437.636C202.378 436.896 206.513 436.556 207.988 438.266C208.311 438.645 208.511 439.107 208.563 439.594C208.615 440.081 208.516 440.573 208.279 441.006C206.347 441.426 204.393 441.846 202.419 442.246C200.813 441.434 199.339 440.4 198.045 439.176C197.338 440.236 196.621 441.276 195.863 442.276C195.52 442.696 195.198 443.146 194.824 443.536L194.647 443.726L192.84 444.046L193.016 443.966Z" fill="#DBDBDB"/>
<path d="M246.764 392.166C246.808 392.872 246.691 393.578 246.419 394.234C246.148 394.891 245.731 395.482 245.196 395.966C244.157 397.086 240.873 398.406 240.873 398.406C240.873 398.406 240.624 396.066 240.624 395.916C240.676 394.186 241.829 390.866 243.741 390.326C244.066 390.236 244.407 390.212 244.742 390.258C245.076 390.304 245.397 390.417 245.683 390.591C245.969 390.765 246.213 390.996 246.399 391.267C246.586 391.539 246.71 391.845 246.764 392.166V392.166Z" fill="#DBDBDB"/>
<path d="M246.941 429.966C246.963 429.799 247.004 429.634 247.065 429.476C247.159 429.167 247.32 428.88 247.537 428.635C247.754 428.39 248.023 428.192 248.325 428.054C248.627 427.917 248.956 427.842 249.291 427.835C249.625 427.829 249.958 427.89 250.266 428.016C251.121 428.498 251.75 429.279 252.021 430.196C249.943 430.669 247.865 431.169 245.787 431.696C246.094 431.075 246.482 430.493 246.941 429.966V429.966Z" fill="#DBDBDB"/>
<path d="M237.694 430.406C239.117 430.186 240.811 431.406 241.943 432.686L236.25 434.146C236.074 433.894 235.941 433.617 235.855 433.326C235.759 433.018 235.731 432.693 235.773 432.374C235.815 432.055 235.927 431.748 236.1 431.473C236.273 431.197 236.505 430.96 236.779 430.777C237.054 430.593 237.365 430.467 237.694 430.406V430.406Z" fill="#DBDBDB"/>
<path d="M256.926 428.596L256.541 429.206L255.274 429.486C255.762 428.696 256.313 427.906 256.811 427.126C255.311 426.566 253.909 425.787 252.655 424.816C252.129 424.337 251.716 423.754 251.445 423.106C251.174 422.459 251.052 421.763 251.087 421.066C251.133 420.748 251.249 420.442 251.427 420.169C251.604 419.896 251.839 419.662 252.116 419.482C252.393 419.302 252.706 419.18 253.035 419.124C253.365 419.068 253.702 419.079 254.027 419.156C255.97 419.686 257.144 422.986 257.227 424.716C257.227 424.826 257.134 426.076 257.071 426.716C257.456 426.166 257.84 425.616 258.245 425.076C259.43 423.506 260.677 421.946 261.903 420.396L263.035 418.966C261.48 418.389 260.026 417.587 258.723 416.586C258.192 416.112 257.776 415.531 257.505 414.885C257.234 414.238 257.114 413.542 257.154 412.846C257.2 412.527 257.315 412.22 257.491 411.947C257.668 411.673 257.903 411.439 258.181 411.258C258.458 411.078 258.772 410.956 259.102 410.901C259.432 410.845 259.77 410.857 260.095 410.936C262.038 411.456 263.212 414.766 263.295 416.496C263.295 416.626 263.16 418.416 263.097 418.876C263.918 417.826 264.729 416.766 265.487 415.696C266.509 414.25 267.435 412.744 268.261 411.186C266.699 410.6 265.235 409.795 263.918 408.796C263.391 408.319 262.978 407.738 262.707 407.092C262.436 406.446 262.314 405.752 262.349 405.056C262.396 404.736 262.512 404.43 262.69 404.156C262.868 403.883 263.104 403.648 263.382 403.468C263.661 403.288 263.975 403.166 264.306 403.11C264.636 403.055 264.975 403.067 265.3 403.146C267.233 403.666 268.417 406.976 268.49 408.706C268.49 408.816 268.396 410.186 268.324 410.836H268.438C269.215 409.268 269.851 407.639 270.339 405.966C270.609 405.036 270.817 404.126 271.004 403.246C269.422 402.839 267.913 402.205 266.526 401.366C265.947 400.947 265.469 400.411 265.127 399.796C264.784 399.182 264.584 398.503 264.542 397.806C264.553 397.484 264.635 397.168 264.781 396.879C264.927 396.589 265.134 396.332 265.389 396.124C265.645 395.915 265.942 395.761 266.263 395.67C266.585 395.579 266.922 395.554 267.253 395.596C267.988 395.772 268.639 396.18 269.103 396.756C269.509 396.481 270 396.347 270.495 396.376C270.998 396.425 271.478 396.601 271.887 396.886C271.887 396.406 271.95 395.886 271.971 395.506C270.767 394.455 269.74 393.23 268.926 391.876C268.618 391.253 268.452 390.573 268.441 389.883C268.431 389.192 268.575 388.508 268.864 387.876C269.028 387.596 269.251 387.352 269.519 387.16C269.787 386.968 270.094 386.832 270.419 386.761C270.745 386.689 271.083 386.684 271.411 386.745C271.739 386.806 272.05 386.933 272.324 387.116C273.934 388.286 273.81 391.776 273.228 393.416C273.228 393.556 272.116 395.686 272.095 395.656C272.095 396.086 272.095 396.556 272.033 397.036C272.883 397.68 273.59 398.483 274.111 399.396C275.41 398.396 277.124 397.516 278.423 397.896C278.739 398.001 279.029 398.168 279.273 398.387C279.518 398.606 279.712 398.873 279.844 399.168C279.975 399.464 280.04 399.784 280.035 400.105C280.03 400.427 279.955 400.744 279.815 401.036C279.457 401.644 278.964 402.168 278.371 402.57C277.779 402.973 277.101 403.245 276.386 403.366C276.011 403.447 275.628 403.488 275.243 403.486C275.243 403.606 275.243 403.696 275.243 403.686C275.545 404.156 275.856 404.686 276.199 405.216C276.812 406.216 277.498 407.436 278.153 408.766C278.876 410.192 279.51 411.658 280.054 413.156C280.674 414.829 281.137 416.553 281.436 418.306C281.441 418.326 281.441 418.346 281.436 418.366C281.519 417.806 281.82 416.246 281.862 416.126C282.381 414.466 284.397 411.566 286.413 411.526C286.748 411.53 287.079 411.601 287.384 411.735C287.689 411.87 287.961 412.065 288.182 412.307C288.404 412.55 288.57 412.834 288.669 413.142C288.769 413.451 288.8 413.776 288.761 414.096C288.611 414.778 288.31 415.421 287.877 415.98C287.445 416.539 286.892 417.002 286.257 417.336C284.731 417.982 283.113 418.4 281.457 418.576C281.724 420.368 281.86 422.176 281.862 423.986C281.862 424.746 281.862 425.506 281.862 426.276H281.249C281.249 425.506 281.311 424.746 281.322 423.986C281.348 422.236 281.258 420.485 281.051 418.746C279.418 419.09 277.741 419.198 276.075 419.066C275.36 418.948 274.681 418.682 274.083 418.287C273.486 417.892 272.985 417.376 272.615 416.776C272.47 416.485 272.391 416.168 272.382 415.845C272.373 415.523 272.435 415.202 272.564 414.904C272.692 414.606 272.884 414.338 273.127 414.116C273.371 413.894 273.66 413.724 273.976 413.616C275.898 413.026 278.776 415.146 279.825 416.556C279.898 416.646 280.594 417.846 280.864 418.426H280.979C280.719 416.684 280.298 414.967 279.721 413.296C279.42 412.376 279.077 411.506 278.682 410.666C278.516 410.716 278.184 410.816 277.768 410.916C277.682 411.15 277.56 411.369 277.405 411.566C276.89 412.058 276.27 412.436 275.588 412.672C274.906 412.909 274.178 412.999 273.456 412.936C271.815 412.666 270.225 412.16 268.739 411.436C267.93 413.066 267.01 414.643 265.986 416.156C265.394 417.046 264.76 417.916 264.126 418.786L264.843 418.076C266.235 416.976 269.581 415.616 271.285 416.666C271.562 416.847 271.796 417.081 271.972 417.355C272.149 417.628 272.263 417.935 272.308 418.253C272.353 418.572 272.328 418.897 272.234 419.206C272.14 419.515 271.979 419.801 271.763 420.046C271.25 420.537 270.631 420.913 269.951 421.15C269.271 421.387 268.545 421.478 267.825 421.416C266.228 421.168 264.681 420.678 263.243 419.966L262.495 420.966C261.29 422.546 260.084 424.116 258.952 425.696C258.557 426.256 258.183 426.816 257.809 427.376L258.432 426.766C259.825 425.666 263.17 424.306 264.874 425.346C265.255 425.574 265.558 425.906 265.743 426.299C265.927 426.693 265.987 427.13 265.913 427.556C263.281 427.983 260.587 428.489 257.83 429.076L256.926 428.596ZM277.872 408.776C277.249 407.436 276.594 406.246 276.002 405.196C275.659 404.606 275.337 404.076 275.036 403.586L273.893 403.356C272.563 403.246 271.316 403.026 271.316 403.026C271.36 402.908 271.416 402.794 271.482 402.686L271.378 402.636C271.198 403.781 270.955 404.916 270.651 406.036L270.485 406.616C270.675 406.428 270.901 406.275 271.15 406.166C272.791 405.456 275.462 406.826 276.864 408.046C277.256 408.281 277.559 408.632 277.727 409.046L278.34 409.876C278.205 409.526 278.038 409.136 277.872 408.776ZM270.298 409.636C270.246 409.575 270.197 409.512 270.152 409.446C270.006 409.191 269.908 408.914 269.861 408.626C269.57 409.436 269.238 410.256 268.822 411.066V411.126C269.092 410.786 269.944 409.966 270.298 409.636Z" fill="#DBDBDB"/>
<path d="M464.425 393.186C463.559 395.093 462.669 396.923 461.755 398.676C460.383 398.576 459.064 398.336 459.064 398.336C459.064 398.336 460.186 396.256 460.279 396.136C461.329 394.782 462.771 393.755 464.425 393.186V393.186Z" fill="#DBDBDB"/>
<path d="M434.481 387.476C434.526 388.171 434.413 388.867 434.151 389.517C433.889 390.166 433.484 390.752 432.964 391.236C431.925 392.356 428.631 393.676 428.631 393.676C428.631 393.676 428.382 391.336 428.382 391.186C428.382 389.456 429.587 386.186 431.499 385.596C431.824 385.511 432.164 385.493 432.497 385.543C432.83 385.594 433.148 385.712 433.43 385.89C433.712 386.067 433.951 386.301 434.132 386.574C434.313 386.848 434.432 387.155 434.481 387.476Z" fill="#DBDBDB"/>
<path d="M426.637 431.406C425.949 431.187 425.319 430.825 424.791 430.347C424.263 429.868 423.851 429.284 423.582 428.636C423.485 428.328 423.456 428.003 423.497 427.683C423.539 427.363 423.65 427.056 423.823 426.78C423.997 426.504 424.229 426.267 424.504 426.084C424.78 425.9 425.092 425.775 425.421 425.716C427.406 425.416 429.931 427.936 430.741 429.476C430.741 429.536 430.939 429.956 431.115 430.416C430.222 430.886 429.318 431.326 428.393 431.756C427.794 431.715 427.204 431.597 426.637 431.406V431.406Z" fill="#DBDBDB"/>
<path d="M458.191 404.786L458.346 404.686C457.889 405.416 457.432 406.146 456.964 406.856L456.455 406.626C455.645 408.257 454.722 409.834 453.692 411.346C453.411 411.766 453.11 412.166 452.819 412.586C451.072 414.79 449.188 416.891 447.177 418.876C447.988 417.826 448.808 416.786 449.64 415.746L450.762 414.316C449.206 413.747 447.749 412.955 446.439 411.966C445.912 411.487 445.499 410.904 445.229 410.256C444.958 409.609 444.836 408.913 444.87 408.216C444.913 407.896 445.026 407.589 445.201 407.313C445.376 407.038 445.61 406.802 445.886 406.62C446.163 406.437 446.477 406.313 446.806 406.256C447.136 406.199 447.475 406.209 447.8 406.286C449.743 406.806 450.917 410.116 451.001 411.846C451.001 411.976 450.866 413.766 450.803 414.226C451.634 413.176 452.434 412.116 453.193 411.046C454.218 409.602 455.145 408.096 455.967 406.536C455.853 406.486 452.684 405.236 451.634 404.146C451.103 403.672 450.687 403.091 450.416 402.445C450.145 401.798 450.025 401.102 450.066 400.406C450.111 400.088 450.226 399.783 450.402 399.51C450.578 399.237 450.812 399.003 451.088 398.823C451.365 398.643 451.677 398.52 452.006 398.464C452.334 398.408 452.672 398.419 452.996 398.496C454.938 399.016 456.113 402.326 456.196 404.056C456.196 404.166 456.092 405.536 456.029 406.186H456.133C456.921 404.595 457.557 402.938 458.035 401.236C458.305 400.306 458.523 399.396 458.7 398.516C457.12 398.11 455.614 397.477 454.232 396.636C453.651 396.218 453.173 395.683 452.83 395.068C452.487 394.453 452.288 393.773 452.247 393.076C452.258 392.755 452.338 392.439 452.483 392.149C452.627 391.859 452.834 391.602 453.088 391.394C453.343 391.186 453.64 391.031 453.96 390.94C454.281 390.849 454.618 390.824 454.949 390.866C456.933 391.186 458.502 394.346 458.762 396.056C458.762 396.156 458.762 397.116 458.835 397.816C458.907 397.416 459.001 397.006 459.063 396.616C459.313 395.166 459.448 393.826 459.552 392.616C459.614 391.936 459.645 391.326 459.676 390.756C458.475 389.697 457.445 388.47 456.622 387.116C456.314 386.493 456.149 385.813 456.138 385.123C456.127 384.432 456.271 383.748 456.559 383.116C456.722 382.834 456.944 382.588 457.211 382.394C457.478 382.2 457.785 382.063 458.111 381.99C458.437 381.917 458.776 381.912 459.104 381.973C459.433 382.034 459.745 382.161 460.019 382.346C461.64 383.516 461.505 387.006 460.923 388.646C460.923 388.786 459.822 390.916 459.791 390.886C459.791 391.436 459.791 392.026 459.718 392.666C459.635 393.866 459.531 395.206 459.313 396.666C459.095 398.239 458.783 399.798 458.378 401.336C457.939 403.052 457.337 404.726 456.58 406.336V406.396C456.933 406.016 458.076 404.866 458.191 404.786Z" fill="#DBDBDB"/>
<path d="M441.754 414.476C443.687 414.996 444.871 418.296 444.954 420.026C444.954 420.096 444.954 420.526 444.881 421.026C444.487 421.376 444.081 421.736 443.676 422.076C442.477 421.597 441.363 420.943 440.372 420.136C439.846 419.658 439.433 419.077 439.163 418.431C438.892 417.786 438.769 417.091 438.803 416.396C438.849 416.075 438.964 415.768 439.141 415.493C439.319 415.218 439.554 414.982 439.833 414.801C440.111 414.62 440.426 414.497 440.757 414.441C441.088 414.385 441.428 414.397 441.754 414.476Z" fill="#DBDBDB"/>
<path d="M432.694 429.386C432.985 427.89 433.66 426.488 434.657 425.306C434.684 425.14 434.726 424.976 434.782 424.816C434.877 424.507 435.039 424.22 435.257 423.975C435.475 423.73 435.744 423.532 436.047 423.394C436.351 423.256 436.681 423.182 437.016 423.175C437.351 423.168 437.684 423.23 437.992 423.356C438.752 423.772 439.328 424.441 439.613 425.236C437.4 426.824 435.085 428.277 432.683 429.586C432.69 429.52 432.694 429.453 432.694 429.386V429.386Z" fill="#DBDBDB"/>
<path d="M431.561 425.966C431.623 426.406 431.696 426.846 431.758 427.286C431.925 428.116 432.081 428.976 432.257 429.786L431.218 430.306L431.156 430.006C430.99 429.166 430.855 428.326 430.699 427.426C430.699 426.986 430.584 426.536 430.522 426.096C430.46 425.656 430.449 425.176 430.397 424.716C430.325 423.636 430.304 422.536 430.304 421.436C428.732 421.766 427.116 421.86 425.514 421.716C424.8 421.601 424.12 421.337 423.524 420.941C422.928 420.545 422.43 420.028 422.065 419.426C421.918 419.137 421.837 418.821 421.827 418.499C421.817 418.177 421.878 417.857 422.005 417.559C422.133 417.262 422.324 416.993 422.567 416.772C422.81 416.551 423.099 416.382 423.415 416.276C425.337 415.676 428.226 417.806 429.275 419.206C429.338 419.296 429.971 420.386 430.314 420.996C430.314 420.336 430.314 419.666 430.314 418.996C430.408 417.066 430.553 415.106 430.688 413.156C430.688 412.556 430.771 411.956 430.803 411.366C429.176 411.708 427.505 411.812 425.847 411.676C425.135 411.555 424.458 411.288 423.863 410.893C423.268 410.497 422.768 409.984 422.397 409.386C422.253 409.095 422.173 408.778 422.165 408.455C422.156 408.133 422.218 407.812 422.346 407.514C422.474 407.216 422.666 406.947 422.91 406.726C423.153 406.504 423.442 406.333 423.758 406.226C425.67 405.636 428.558 407.756 429.608 409.166C429.691 409.266 430.647 410.846 430.813 411.256C430.896 409.936 430.958 408.626 430.979 407.336C431.006 405.586 430.916 403.835 430.709 402.096C430.584 402.096 427.228 402.756 425.722 402.406C425.008 402.29 424.329 402.025 423.733 401.629C423.137 401.234 422.639 400.717 422.272 400.116C422.129 399.822 422.053 399.502 422.048 399.177C422.044 398.852 422.111 398.53 422.245 398.232C422.38 397.934 422.579 397.667 422.829 397.449C423.079 397.23 423.375 397.066 423.696 396.966C425.618 396.376 428.506 398.496 429.556 399.906C429.629 399.996 430.325 401.196 430.595 401.766H430.709C430.449 400.023 430.029 398.307 429.452 396.636C429.151 395.706 428.797 394.846 428.413 394.006C426.865 394.511 425.246 394.784 423.613 394.816C422.907 394.773 422.218 394.586 421.593 394.267C420.968 393.948 420.42 393.504 419.987 392.966C419.812 392.689 419.7 392.38 419.659 392.059C419.617 391.738 419.646 391.412 419.744 391.102C419.842 390.793 420.007 390.507 420.228 390.263C420.449 390.018 420.72 389.822 421.026 389.686C422.865 388.886 425.982 390.686 427.187 391.986C427.249 392.056 427.831 392.836 428.226 393.416C428.06 393.036 427.904 392.646 427.727 392.296C427.114 390.956 426.449 389.766 425.867 388.716C425.524 388.126 425.202 387.596 424.901 387.096C423.289 386.862 421.726 386.386 420.267 385.686C419.646 385.33 419.113 384.847 418.705 384.272C418.298 383.697 418.026 383.043 417.909 382.356C417.882 382.035 417.926 381.711 418.039 381.407C418.151 381.104 418.329 380.826 418.56 380.593C418.792 380.36 419.072 380.176 419.382 380.054C419.692 379.933 420.026 379.875 420.361 379.886C422.366 379.996 424.267 382.976 424.714 384.656C424.714 384.796 425.098 387.136 425.057 387.126C425.358 387.596 425.68 388.126 426.023 388.666C426.636 389.666 427.322 390.886 427.976 392.216C428.697 393.643 429.332 395.109 429.878 396.606C430.467 398.262 430.902 399.966 431.177 401.696C431.172 401.716 431.172 401.736 431.177 401.756C431.26 401.196 431.561 399.636 431.592 399.516C432.112 397.856 434.138 394.946 436.153 394.916C436.487 394.919 436.817 394.99 437.121 395.125C437.424 395.259 437.695 395.453 437.916 395.694C438.136 395.936 438.301 396.219 438.401 396.526C438.5 396.833 438.531 397.157 438.491 397.476C438.347 398.159 438.048 398.802 437.618 399.362C437.187 399.922 436.634 400.384 435.998 400.716C434.465 401.364 432.84 401.785 431.177 401.966C431.434 403.759 431.57 405.566 431.582 407.376C431.582 408.376 431.582 409.486 431.582 410.556C431.675 410.066 431.758 409.636 431.779 409.556C432.299 407.966 434.294 405.016 436.372 404.966C436.707 404.969 437.038 405.041 437.343 405.175C437.648 405.31 437.92 405.505 438.141 405.747C438.363 405.99 438.529 406.274 438.628 406.582C438.728 406.891 438.759 407.215 438.72 407.536C438.57 408.218 438.269 408.861 437.836 409.42C437.404 409.979 436.851 410.442 436.216 410.776C434.724 411.404 433.139 411.806 431.52 411.966C431.52 412.376 431.52 412.786 431.52 413.196C431.426 415.196 431.322 417.106 431.281 419.026C431.281 419.696 431.281 420.366 431.281 421.026L431.447 420.176C431.977 418.516 433.992 415.616 436.008 415.576C436.343 415.579 436.674 415.651 436.978 415.785C437.282 415.92 437.554 416.115 437.774 416.358C437.995 416.6 438.16 416.885 438.259 417.193C438.357 417.501 438.387 417.826 438.346 418.146C438.2 418.828 437.901 419.471 437.47 420.031C437.04 420.59 436.488 421.053 435.852 421.386C434.417 422.012 432.888 422.417 431.322 422.586C431.322 423.276 431.384 423.956 431.447 424.586C431.457 425.116 431.478 425.556 431.561 425.966Z" fill="#DBDBDB"/>
<path d="M169.524 403.426C169.566 404.059 169.463 404.694 169.222 405.285C168.982 405.876 168.61 406.409 168.132 406.846C166.927 407.771 165.586 408.519 164.152 409.066C164.152 409.066 163.924 406.936 163.934 406.806C163.934 405.226 165.025 402.206 166.792 401.716C167.089 401.634 167.4 401.615 167.706 401.659C168.011 401.704 168.303 401.81 168.562 401.972C168.821 402.134 169.041 402.348 169.207 402.599C169.373 402.85 169.481 403.132 169.524 403.426V403.426Z" fill="#DBDBDB"/>
<path d="M140.682 416.266C140.217 417.668 139.537 418.996 138.667 420.206C138.667 420.206 137.264 418.556 137.191 418.436C136.319 417.096 135.467 414.026 136.651 412.676C136.855 412.458 137.104 412.283 137.382 412.164C137.661 412.044 137.962 411.982 138.267 411.982C138.572 411.982 138.873 412.044 139.151 412.164C139.43 412.283 139.679 412.458 139.882 412.676C140.276 413.184 140.551 413.768 140.689 414.387C140.827 415.007 140.825 415.647 140.682 416.266Z" fill="#DBDBDB"/>
<path d="M125.148 413.696C126.727 412.816 129.73 414.166 130.946 415.216C131.049 415.316 132.525 416.916 132.494 416.936C132.972 417.146 133.481 417.376 134.021 417.636C135.06 418.136 136.172 418.696 137.356 419.396C138.651 420.128 139.9 420.933 141.097 421.806C142.439 422.78 143.687 423.867 144.827 425.056V425.056C144.598 424.586 144.006 423.256 143.975 423.146C143.507 421.636 143.528 418.456 145.014 417.456C145.27 417.297 145.558 417.192 145.859 417.147C146.16 417.103 146.468 417.12 146.762 417.197C147.056 417.274 147.33 417.41 147.566 417.596C147.802 417.782 147.994 418.014 148.131 418.276C148.373 418.867 148.479 419.5 148.441 420.134C148.403 420.768 148.223 421.386 147.912 421.946C147.091 423.172 146.083 424.271 144.92 425.206C146.048 426.442 147.089 427.748 148.037 429.116C148.598 429.906 149.128 430.726 149.658 431.556C149.481 431.136 149.315 430.776 149.305 430.716C148.837 429.206 148.858 426.026 150.344 425.026C150.599 424.867 150.887 424.761 151.188 424.716C151.488 424.67 151.796 424.687 152.09 424.763C152.384 424.839 152.658 424.974 152.894 425.159C153.13 425.344 153.323 425.575 153.461 425.836C153.705 426.426 153.813 427.059 153.777 427.693C153.741 428.327 153.562 428.946 153.253 429.506C152.461 430.702 151.483 431.774 150.354 432.686L150.946 433.686C151.902 435.216 152.837 436.746 153.814 438.226C154.146 438.746 154.51 439.226 154.853 439.746C154.687 439.386 154.562 439.076 154.541 439.026C154.074 437.516 154.095 434.336 155.58 433.336C155.836 433.177 156.123 433.071 156.424 433.026C156.725 432.98 157.032 432.997 157.326 433.073C157.62 433.149 157.894 433.284 158.13 433.469C158.367 433.654 158.56 433.885 158.697 434.146C158.937 434.737 159.042 435.371 159.004 436.004C158.967 436.637 158.788 437.255 158.479 437.816C157.716 438.983 156.77 440.029 155.674 440.916C156.048 441.426 156.432 441.916 156.817 442.396C157.201 442.876 157.336 443.036 157.627 443.346L158.479 444.246C159.04 444.806 159.612 445.386 160.173 445.916C160.557 446.296 160.931 446.636 161.305 446.996C160.962 446.476 160.266 445.456 160.266 445.366C159.698 444.091 159.48 442.696 159.632 441.316C159.562 441.179 159.506 441.035 159.466 440.886C159.378 440.605 159.352 440.31 159.39 440.019C159.428 439.728 159.529 439.448 159.686 439.197C159.844 438.946 160.055 438.73 160.305 438.563C160.556 438.396 160.84 438.281 161.139 438.226C162.947 437.946 165.243 440.226 165.981 441.646C166.033 441.736 166.396 442.646 166.625 443.286C166.542 442.916 166.469 442.546 166.396 442.166C166.251 441.406 166.126 440.636 165.981 439.816L165.825 438.606C165.763 438.206 165.752 437.766 165.711 437.346C165.648 436.346 165.627 435.346 165.627 434.346C164.198 434.644 162.73 434.728 161.274 434.596C160.629 434.487 160.016 434.245 159.478 433.886C158.94 433.527 158.489 433.059 158.157 432.516C158.026 432.251 157.954 431.962 157.946 431.669C157.938 431.375 157.994 431.083 158.111 430.812C158.227 430.54 158.402 430.296 158.623 430.093C158.843 429.891 159.106 429.735 159.393 429.636C161.139 429.106 163.768 431.036 164.724 432.316C164.786 432.396 165.357 433.396 165.669 433.946C165.669 433.336 165.669 432.736 165.669 432.126C165.752 430.366 165.887 428.586 166.012 426.806C166.012 426.256 166.085 425.716 166.116 425.176C164.636 425.489 163.116 425.584 161.607 425.456C160.962 425.343 160.35 425.098 159.812 424.737C159.274 424.377 158.823 423.909 158.489 423.366C158.358 423.102 158.287 422.814 158.279 422.521C158.271 422.228 158.327 421.937 158.444 421.666C158.56 421.395 158.735 421.151 158.956 420.95C159.176 420.748 159.439 420.594 159.726 420.496C161.471 419.956 164.1 421.896 165.056 423.176C165.129 423.266 165.96 424.706 166.147 425.076C166.22 423.876 166.292 422.686 166.303 421.506C166.331 419.913 166.247 418.319 166.053 416.736C164.567 417.05 163.04 417.148 161.523 417.026C160.879 416.913 160.266 416.668 159.729 416.307C159.191 415.947 158.74 415.479 158.406 414.936C158.277 414.671 158.207 414.382 158.201 414.089C158.195 413.797 158.252 413.506 158.369 413.235C158.487 412.965 158.662 412.721 158.883 412.52C159.104 412.319 159.366 412.164 159.653 412.066C161.399 411.526 164.027 413.466 164.973 414.746C165.035 414.826 165.669 415.916 166.012 416.446H166.116C165.877 414.857 165.495 413.291 164.973 411.766C164.703 410.926 164.381 410.136 164.059 409.376C162.649 409.839 161.173 410.085 159.684 410.106C159.027 410.068 158.387 409.893 157.807 409.592C157.227 409.292 156.723 408.873 156.328 408.366C156.163 408.117 156.056 407.837 156.012 407.544C155.968 407.251 155.99 406.953 156.076 406.669C156.161 406.386 156.309 406.122 156.508 405.898C156.707 405.673 156.954 405.492 157.232 405.366C158.905 404.646 161.731 406.286 162.833 407.466C162.833 407.526 163.425 408.236 163.799 408.766C163.643 408.426 163.498 408.066 163.342 407.766C162.781 406.546 162.188 405.456 161.648 404.506C161.336 403.966 161.045 403.506 160.775 403.036C159.31 402.813 157.888 402.378 156.557 401.746C155.996 401.424 155.513 400.989 155.142 400.472C154.771 399.954 154.52 399.365 154.406 398.746C154.384 398.454 154.426 398.16 154.529 397.884C154.633 397.609 154.795 397.357 155.005 397.145C155.215 396.933 155.47 396.765 155.751 396.654C156.033 396.542 156.336 396.488 156.64 396.496C158.469 396.606 160.193 399.326 160.609 400.846C160.609 400.976 160.952 403.106 160.921 403.096C161.201 403.516 161.482 403.976 161.794 404.486C162.355 405.436 162.978 406.486 163.57 407.716C164.231 409.014 164.807 410.35 165.295 411.716C165.861 413.239 166.282 414.809 166.552 416.406C166.557 416.426 166.557 416.446 166.552 416.466C166.635 415.956 166.905 414.536 166.937 414.466C167.415 412.956 169.254 410.306 171.093 410.276C171.398 410.28 171.698 410.345 171.975 410.468C172.252 410.59 172.499 410.768 172.7 410.989C172.901 411.209 173.051 411.468 173.141 411.749C173.231 412.029 173.259 412.325 173.223 412.616C173.086 413.238 172.811 413.823 172.416 414.333C172.022 414.842 171.517 415.263 170.937 415.566C169.55 416.153 168.079 416.534 166.573 416.696C166.811 418.326 166.932 419.97 166.937 421.616C166.937 422.616 166.937 423.546 166.937 424.516C167.02 424.076 167.103 423.676 167.113 423.626C167.591 422.116 169.43 419.466 171.269 419.446C171.574 419.448 171.874 419.512 172.151 419.634C172.428 419.756 172.675 419.932 172.876 420.152C173.077 420.372 173.228 420.63 173.318 420.91C173.408 421.19 173.436 421.485 173.399 421.776C173.265 422.397 172.991 422.982 172.598 423.492C172.206 424.001 171.702 424.422 171.124 424.726C169.779 425.305 168.349 425.679 166.885 425.836C166.885 426.206 166.885 426.576 166.833 426.956C166.75 428.736 166.656 430.516 166.615 432.256C166.615 432.876 166.615 433.486 166.615 434.086C166.698 433.696 166.76 433.366 166.77 433.316C167.248 431.816 169.087 429.166 170.926 429.136C171.231 429.14 171.532 429.205 171.809 429.328C172.086 429.45 172.333 429.628 172.534 429.849C172.735 430.069 172.885 430.328 172.975 430.609C173.065 430.889 173.093 431.185 173.056 431.476C172.923 432.096 172.65 432.681 172.257 433.189C171.864 433.697 171.36 434.116 170.781 434.416C169.464 434.991 168.062 435.362 166.625 435.516C166.625 436.136 166.677 436.756 166.739 437.356C166.739 437.766 166.802 438.166 166.874 438.576L167.061 439.786C167.207 440.546 167.352 441.336 167.518 442.076C167.622 442.586 167.737 443.076 167.851 443.576C167.851 442.956 167.851 441.766 167.913 441.666C168.142 440.096 169.544 437.216 171.352 436.916C171.654 436.877 171.96 436.899 172.252 436.98C172.545 437.062 172.816 437.201 173.049 437.389C173.281 437.578 173.471 437.811 173.605 438.074C173.738 438.337 173.813 438.624 173.825 438.916C173.793 439.551 173.616 440.171 173.307 440.732C172.998 441.294 172.565 441.783 172.038 442.166C170.753 442.948 169.351 443.538 167.882 443.916C168.069 444.726 168.267 445.516 168.464 446.266C168.537 446.566 168.62 446.856 168.693 447.136L167.57 447.226C167.518 446.986 167.456 446.746 167.404 446.506C167.207 445.676 167.009 444.786 166.822 443.876C165.901 443.909 164.978 443.889 164.059 443.816C163.432 445.086 162.628 446.267 161.669 447.326L161.897 447.526C158.728 447.666 155.518 447.716 152.266 447.696C152.253 447.411 152.306 447.127 152.421 446.864C152.536 446.601 152.71 446.366 152.931 446.176C154.282 444.986 157.502 445.686 158.926 446.466C159.009 446.466 159.871 447.106 160.401 447.466L159.57 446.646C159.009 446.086 158.469 445.516 157.876 444.906L157.056 443.976C156.775 443.676 156.515 443.316 156.235 442.976C155.622 442.196 155.03 441.376 154.458 440.536C153.434 441.544 152.257 442.397 150.967 443.066C150.362 443.321 149.706 443.445 149.046 443.431C148.386 443.418 147.737 443.266 147.144 442.986C146.882 442.835 146.657 442.633 146.483 442.393C146.309 442.152 146.189 441.879 146.132 441.591C146.075 441.303 146.082 441.007 146.153 440.722C146.223 440.436 146.356 440.169 146.541 439.936C147.684 438.556 150.988 438.786 152.515 439.346C152.609 439.346 153.658 439.896 154.23 440.196C153.897 439.696 153.554 439.196 153.191 438.666C152.245 437.156 151.341 435.596 150.427 434.046C150.146 433.566 149.866 433.046 149.575 432.626C148.521 433.672 147.309 434.559 145.98 435.256C145.375 435.51 144.72 435.634 144.06 435.622C143.4 435.61 142.751 435.461 142.156 435.186C141.895 435.034 141.67 434.831 141.496 434.59C141.322 434.349 141.202 434.076 141.144 433.787C141.086 433.499 141.092 433.202 141.161 432.916C141.229 432.63 141.36 432.361 141.543 432.126C142.697 430.756 146.001 430.976 147.528 431.536C147.642 431.536 149.149 432.336 149.523 432.536C148.91 431.536 148.276 430.476 147.611 429.536C146.721 428.192 145.738 426.905 144.671 425.686C143.611 426.737 142.392 427.627 141.055 428.326C140.453 428.585 139.799 428.712 139.14 428.7C138.481 428.688 137.833 428.537 137.242 428.256C136.98 428.106 136.754 427.905 136.579 427.664C136.403 427.424 136.283 427.151 136.225 426.863C136.167 426.575 136.173 426.279 136.243 425.993C136.312 425.708 136.444 425.439 136.629 425.206C137.772 423.826 141.076 424.046 142.603 424.616C142.707 424.616 143.86 425.226 144.401 425.506L144.463 425.426C143.362 424.225 142.148 423.123 140.837 422.136C140.12 421.576 139.413 421.086 138.759 420.626C137.842 421.754 136.752 422.742 135.528 423.556C134.957 423.874 134.321 424.068 133.664 424.125C133.007 424.181 132.346 424.1 131.725 423.886C131.444 423.764 131.193 423.585 130.989 423.363C130.785 423.14 130.633 422.878 130.542 422.594C130.452 422.31 130.425 422.011 130.464 421.717C130.503 421.422 130.607 421.139 130.769 420.886C131.756 419.396 135.06 419.266 136.639 419.666C136.733 419.666 137.574 420.006 138.198 420.236L137.232 419.626C136.068 418.906 134.946 418.326 133.948 417.816C133.387 417.526 132.909 417.276 132.379 417.046C131.03 417.643 129.593 418.038 128.119 418.216C127.461 418.242 126.804 418.13 126.194 417.888C125.584 417.647 125.036 417.281 124.587 416.816C124.389 416.584 124.245 416.313 124.165 416.023C124.085 415.732 124.071 415.428 124.125 415.132C124.178 414.836 124.297 414.555 124.473 414.307C124.65 414.059 124.88 413.851 125.148 413.696V413.696Z" fill="#DBDBDB"/>
<path d="M314.215 415.126C312.688 415.506 309.207 414.866 309.207 414.866C309.207 414.866 310.34 412.786 310.423 412.666C311.462 411.246 314.319 409.086 316.242 409.666C316.56 409.768 316.852 409.934 317.098 410.152C317.345 410.371 317.541 410.637 317.674 410.934C317.806 411.23 317.872 411.55 317.867 411.873C317.862 412.196 317.786 412.514 317.644 412.806C317.282 413.409 316.787 413.929 316.195 414.33C315.603 414.73 314.928 415.002 314.215 415.126V415.126Z" fill="#DBDBDB"/>
<path d="M284.678 403.966C284.723 404.662 284.61 405.359 284.346 406.009C284.082 406.658 283.674 407.244 283.151 407.726C282.112 408.846 278.828 410.166 278.818 410.166C278.807 410.166 278.569 407.836 278.579 407.686C278.579 405.956 279.774 402.636 281.696 402.086C282.021 402.004 282.36 401.988 282.692 402.04C283.024 402.092 283.34 402.211 283.621 402.388C283.902 402.565 284.142 402.797 284.324 403.069C284.506 403.341 284.626 403.647 284.678 403.966V403.966Z" fill="#DBDBDB"/>
<path d="M306.142 423.066C306.028 423.016 302.869 421.776 301.81 420.686C301.291 420.208 300.884 419.629 300.617 418.987C300.35 418.346 300.229 417.657 300.262 416.966C300.307 416.647 300.422 416.34 300.599 416.067C300.776 415.793 301.01 415.558 301.288 415.378C301.565 415.198 301.879 415.076 302.209 415.02C302.539 414.965 302.877 414.977 303.202 415.056C305.145 415.586 306.319 418.886 306.402 420.616C306.402 420.726 306.298 422.096 306.236 422.746H306.35C307.136 421.155 307.769 419.498 308.241 417.796C308.522 416.866 308.729 415.966 308.916 415.076C307.332 414.675 305.822 414.041 304.438 413.196C303.859 412.779 303.381 412.245 303.038 411.632C302.695 411.019 302.496 410.341 302.454 409.646C302.462 409.324 302.542 409.008 302.686 408.717C302.83 408.427 303.037 408.169 303.291 407.96C303.546 407.751 303.844 407.597 304.165 407.507C304.486 407.416 304.824 407.392 305.155 407.436C307.15 407.746 308.709 410.906 308.979 412.616C308.979 412.716 308.979 413.676 309.041 414.376C309.124 413.976 309.207 413.566 309.27 413.176C309.519 411.736 309.654 410.396 309.758 409.176C309.82 408.496 309.852 407.886 309.883 407.316C308.682 406.258 307.655 405.031 306.838 403.676C306.526 403.054 306.358 402.374 306.347 401.683C306.337 400.992 306.483 400.307 306.776 399.676C306.938 399.394 307.16 399.148 307.428 398.954C307.696 398.76 308.003 398.623 308.329 398.551C308.656 398.479 308.995 398.475 309.323 398.537C309.652 398.6 309.963 398.729 310.236 398.916C311.846 400.076 311.722 403.566 311.13 405.206C311.13 405.346 310.028 407.476 310.007 407.456C310.007 408.006 310.007 408.596 309.924 409.246C309.841 410.436 309.737 411.786 309.519 413.246C309.304 414.822 308.996 416.384 308.594 417.926C308.145 419.639 307.543 421.312 306.797 422.926V422.976C307.192 422.556 308.335 421.416 308.428 421.336C309.82 420.226 313.166 418.876 314.87 419.916C315.147 420.097 315.381 420.331 315.557 420.605C315.734 420.878 315.848 421.184 315.893 421.503C315.938 421.822 315.913 422.147 315.819 422.456C315.725 422.765 315.565 423.051 315.348 423.296C314.835 423.788 314.217 424.166 313.537 424.404C312.857 424.643 312.131 424.735 311.41 424.676C309.768 424.403 308.178 423.894 306.693 423.166C305.928 424.708 305.06 426.201 304.095 427.636L303.472 427.566C304.46 426.122 305.352 424.619 306.142 423.066V423.066Z" fill="#DBDBDB"/>
<path d="M297.987 422.816C299.566 423.246 300.657 425.536 301.031 427.306C299.14 427.106 297.26 426.936 295.41 426.786C295.074 426.151 294.944 425.433 295.036 424.726C295.084 424.407 295.201 424.101 295.38 423.828C295.558 423.556 295.794 423.322 296.072 423.142C296.35 422.962 296.664 422.84 296.994 422.784C297.323 422.728 297.662 422.739 297.987 422.816Z" fill="#DBDBDB"/>
<path d="M273.997 422.796C275.919 422.206 278.807 424.326 279.857 425.736L280.127 426.196C277.685 426.196 275.316 426.346 273.02 426.546C272.869 426.364 272.74 426.166 272.636 425.956C272.493 425.665 272.415 425.348 272.407 425.026C272.399 424.704 272.461 424.384 272.589 424.086C272.718 423.788 272.909 423.52 273.151 423.298C273.394 423.076 273.682 422.905 273.997 422.796V422.796Z" fill="#DBDBDB"/>
<path d="M286.506 421.506C286.841 421.511 287.17 421.583 287.474 421.718C287.778 421.854 288.048 422.049 288.269 422.291C288.489 422.533 288.654 422.817 288.753 423.125C288.852 423.432 288.883 423.756 288.844 424.076C288.72 424.93 288.294 425.718 287.639 426.306C285.696 426.236 283.794 426.196 281.924 426.196C281.927 426.166 281.927 426.136 281.924 426.106C282.464 424.456 284.49 421.546 286.506 421.506Z" fill="#DBDBDB"/>
<path d="M308.668 428.186L307.421 428.026C307.843 428.005 308.266 428.059 308.668 428.186V428.186Z" fill="#DBDBDB"/>
</svg>
