<svg width="402" height="375" viewBox="0 0 402 375" fill="none" xmlns="http://www.w3.org/2000/svg">
<path d="M0.380231 209.26C0.380231 209.26 2.66023 277.71 59.0002 318.52C115.34 359.33 193.42 355.76 256.6 354.52C319.78 353.28 368.24 312.68 375.47 257.03C382.7 201.38 334.41 189.47 308.12 129.16C281.83 68.8499 284.12 48.0599 228.66 14.4099C173.2 -19.2401 86.5802 12.0599 41.2302 81.9999C-4.11977 151.94 0.380231 209.26 0.380231 209.26Z" fill="#0987FF"/>
<path opacity="0.7" d="M0.380231 209.26C0.380231 209.26 2.66023 277.71 59.0002 318.52C115.34 359.33 193.42 355.76 256.6 354.52C319.78 353.28 368.24 312.68 375.47 257.03C382.7 201.38 334.41 189.47 308.12 129.16C281.83 68.8499 284.12 48.0599 228.66 14.4099C173.2 -19.2401 86.5802 12.0599 41.2302 81.9999C-4.11977 151.94 0.380231 209.26 0.380231 209.26Z" fill="white"/>
<path d="M323 94.0598C321.9 95.3292 321.158 96.8686 320.85 98.5198L316.56 100.93V89.5398L316.64 89.6498L323.49 84.6498C325.951 85.0246 328.469 84.6336 330.7 83.5298C334.22 81.6398 336.78 75.1498 336.78 75.1498C336.78 75.1498 328.4 74.1998 325.56 77.7198C324.008 79.5441 323.178 81.8748 323.23 84.2698L316.56 89.1598V80.7498C317.809 80.1673 318.913 79.3141 319.792 78.2522C320.671 77.1902 321.302 75.946 321.64 74.6098C322.86 69.8798 316.37 60.5498 316.37 60.5498C316.37 60.5498 309.6 70.1398 311 74.9998C311.318 76.3059 311.953 77.5133 312.85 78.5147C313.747 79.5161 314.877 80.2804 316.14 80.7398V98.9998L311.32 94.9998C311.425 93.724 311.259 92.4404 310.831 91.2337C310.404 90.027 309.725 88.9248 308.84 87.9998C305.6 84.3498 296.95 84.6198 296.95 84.6198C296.95 84.6198 300.6 91.9198 303.7 94.3498C306.42 96.4798 310.17 95.6098 311.07 95.3498L316.14 99.5798V105.12H308.61L311.68 124.34H320.91L323.98 105.12H316.6V101.45L321.32 98.8098C323.77 99.5134 326.391 99.3184 328.71 98.2598C331.371 96.7429 333.714 94.7259 335.61 92.3198C335.61 92.3198 326.5 89.9998 323 94.0598Z" fill="#0987FF"/>
<path d="M266.28 55.79H165V64.02H266.28V55.79Z" fill="white"/>
<path d="M266.28 68.1299H165V76.3599H266.28V68.1299Z" fill="white"/>
<path d="M266.28 80.4697H165V88.6997H266.28V80.4697Z" fill="white"/>
<path d="M266.28 92.8198H165V101.05H266.28V92.8198Z" fill="white"/>
<path d="M266.28 105.16H165V113.39H266.28V105.16Z" fill="white"/>
<path d="M266.28 117.5H165V125.73H266.28V117.5Z" fill="white"/>
<path d="M266.28 129.84H165V138.07H266.28V129.84Z" fill="white"/>
<path d="M266.28 142.18H165V150.41H266.28V142.18Z" fill="white"/>
<path d="M266.28 154.52H165V162.75H266.28V154.52Z" fill="white"/>
<path d="M266.28 166.86H165V175.09H266.28V166.86Z" fill="white"/>
<path d="M266.28 179.2H165V187.43H266.28V179.2Z" fill="white"/>
<path d="M266.28 191.54H165V199.77H266.28V191.54Z" fill="white"/>
<path d="M266.28 203.89H165V212.12H266.28V203.89Z" fill="white"/>
<path d="M158.3 55.79H57.0195V64.02H158.3V55.79Z" fill="white"/>
<path d="M158.3 68.1299H57.0195V76.3599H158.3V68.1299Z" fill="white"/>
<path d="M158.3 80.4697H57.0195V88.6997H158.3V80.4697Z" fill="white"/>
<path d="M158.3 92.8198H57.0195V101.05H158.3V92.8198Z" fill="white"/>
<path d="M158.3 105.16H57.0195V113.39H158.3V105.16Z" fill="white"/>
<path d="M158.3 117.5H57.0195V125.73H158.3V117.5Z" fill="white"/>
<path d="M158.3 129.84H57.0195V138.07H158.3V129.84Z" fill="white"/>
<path d="M158.3 142.18H57.0195V150.41H158.3V142.18Z" fill="white"/>
<path d="M158.3 154.52H57.0195V162.75H158.3V154.52Z" fill="white"/>
<path d="M158.3 166.86H57.0195V175.09H158.3V166.86Z" fill="white"/>
<path d="M158.3 179.2H57.0195V187.43H158.3V179.2Z" fill="white"/>
<path d="M158.3 191.54H57.0195V199.77H158.3V191.54Z" fill="white"/>
<path d="M158.3 203.89H57.0195V212.12H158.3V203.89Z" fill="white"/>
<path d="M271.31 47.6699H51.9805V53.6699H271.31V47.6699Z" stroke="#263238" stroke-miterlimit="10"/>
<path d="M52.1299 251.33H42.1299V374H52.1299V251.33Z" stroke="#263238" stroke-miterlimit="10"/>
<path d="M282.8 251.33H272.8V374H282.8V251.33Z" stroke="#263238" stroke-miterlimit="10"/>
<path d="M55.47 221.33H270C273.84 221.33 277.523 222.856 280.239 225.571C282.954 228.287 284.48 231.97 284.48 235.81V257.58H41V235.82C40.9987 233.919 41.3719 232.035 42.0984 230.278C42.8249 228.521 43.8904 226.924 45.234 225.578C46.5777 224.233 48.1732 223.165 49.9295 222.436C51.6858 221.707 53.5685 221.331 55.47 221.33V221.33Z" fill="#0987FF" stroke="#0987FF" stroke-miterlimit="10"/>
<path d="M61.3496 247.08H277.49" stroke="#263238" stroke-miterlimit="10"/>
<path d="M44.5801 247.08H50.5701" stroke="#263238" stroke-miterlimit="10"/>
<path d="M34.1299 310.67H24.1299V374H34.1299V310.67Z" stroke="#263238" stroke-miterlimit="10"/>
<path d="M101.47 310.67H91.4697V374H101.47V310.67Z" stroke="#263238" stroke-miterlimit="10"/>
<path d="M37.47 280.67H88.62C92.4603 280.67 96.1434 282.195 98.8589 284.911C101.574 287.627 103.1 291.31 103.1 295.15V316.92H23V295.15C23 291.311 24.5242 287.63 27.2376 284.915C29.9509 282.199 33.6314 280.673 37.47 280.67V280.67Z" fill="#0987FF" stroke="#0987FF" stroke-miterlimit="10"/>
<path d="M357.47 134.33H310.8V356.33H357.47V134.33Z" stroke="#263238" stroke-miterlimit="10"/>
<path d="M382.8 134.33H362.8V356.33H382.8" stroke="#263238" stroke-miterlimit="10"/>
<path d="M303.47 373.67V124.33H366.13" stroke="#263238" stroke-miterlimit="10"/>
<path d="M353.46 232.33H348.13V253H353.46V232.33Z" stroke="#263238" stroke-miterlimit="10"/>
<path d="M372.13 232.33H366.8V253H372.13V232.33Z" stroke="#263238" stroke-miterlimit="10"/>
<path d="M241.189 100.8C241.189 100.8 241.389 106.06 240.189 109.17C238.989 112.28 239.609 118.91 239.999 120.07C240.389 121.23 238.829 125.14 238.829 125.14L242.529 130.2C242.529 130.2 246.809 123.77 248.949 120.27C251.089 116.77 254.239 113.65 253.229 111.7C252.219 109.75 249.149 105.86 248.949 104.89C248.749 103.92 246.949 102.95 246.949 102.95L243.839 109.95C243.839 109.95 243.259 104.89 243.259 102.56C243.259 100.23 241.779 99.0497 241.189 100.8Z" fill="white"/>
<path opacity="0.15" d="M241.189 100.8C241.189 100.8 241.389 106.06 240.189 109.17C238.989 112.28 239.609 118.91 239.999 120.07C240.389 121.23 238.829 125.14 238.829 125.14L242.529 130.2C242.529 130.2 246.809 123.77 248.949 120.27C251.089 116.77 254.239 113.65 253.229 111.7C252.219 109.75 249.149 105.86 248.949 104.89C248.749 103.92 246.949 102.95 246.949 102.95L243.839 109.95C243.839 109.95 243.259 104.89 243.259 102.56C243.259 100.23 241.779 99.0497 241.189 100.8Z" fill="black" stroke="#263238" stroke-linecap="round" stroke-linejoin="round"/>
<path d="M241.189 100.8C241.189 100.8 241.389 106.06 240.189 109.17C238.989 112.28 239.609 118.91 239.999 120.07C240.389 121.23 238.829 125.14 238.829 125.14L242.529 130.2C242.529 130.2 246.809 123.77 248.949 120.27C251.089 116.77 254.239 113.65 253.229 111.7C252.219 109.75 249.149 105.86 248.949 104.89C248.749 103.92 246.949 102.95 246.949 102.95L243.839 109.95C243.839 109.95 243.259 104.89 243.259 102.56C243.259 100.23 241.779 99.0497 241.189 100.8Z" stroke="#263238" stroke-linecap="round" stroke-linejoin="round"/>
<path d="M238.08 124L245.87 131.78C245.87 131.78 221.34 172.47 218.81 173.63C216.28 174.79 206.74 167 206.74 167L200.31 131.56C200.31 131.56 208.89 136.17 211.81 141.03C214.73 145.89 216.67 146.36 216.67 146.36L238.08 124Z" fill="white"/>
<path d="M215.19 157.35C214.42 157.35 213.64 153.98 213.64 152.17C213.64 150.36 209.5 153.73 209.5 153.73L204.85 147.52L203.34 148.25L206.74 166.99C206.74 166.99 216.28 174.77 218.81 173.6C221.34 172.43 243.22 136.13 245.65 132.12C239.67 137.19 215.87 157.35 215.19 157.35Z" fill="#0987FF"/>
<path opacity="0.5" d="M215.19 157.35C214.42 157.35 213.64 153.98 213.64 152.17C213.64 150.36 209.5 153.73 209.5 153.73L204.85 147.52L203.34 148.25L206.74 166.99C206.74 166.99 216.28 174.77 218.81 173.6C221.34 172.43 243.22 136.13 245.65 132.12C239.67 137.19 215.87 157.35 215.19 157.35Z" fill="white"/>
<path d="M238.08 124L245.87 131.78C245.87 131.78 221.34 172.47 218.81 173.63C216.28 174.79 206.74 167 206.74 167L200.31 131.56C200.31 131.56 208.89 136.17 211.81 141.03C214.73 145.89 216.67 146.36 216.67 146.36L238.08 124Z" stroke="#263238" stroke-linecap="round" stroke-linejoin="round"/>
<path d="M213.05 159.13C213.55 154.63 216.67 146.35 216.67 146.35C216.67 146.35 212.55 152.13 211.3 155.13" stroke="#263238" stroke-linecap="round" stroke-linejoin="round"/>
<path d="M193.049 358C196.225 360.716 199.867 362.834 203.799 364.25C210.549 366.75 213.549 368.25 214.549 370.5C215.549 372.75 214.549 374 214.549 374H171.799C171.799 374 169.549 370.5 173.299 363.5C177.049 356.5 193.049 358 193.049 358Z" fill="white" stroke="#263238" stroke-linecap="round" stroke-linejoin="round"/>
<path d="M194.58 359.48C194.58 359.48 191.09 361.01 192.18 361.66C193.27 362.31 196.1 360.79 196.1 360.79C196.1 360.79 192.62 363.41 194.36 363.63C196.1 363.85 198.72 362.32 198.72 362.32C198.72 362.32 196.32 365.37 197.41 365.59C198.5 365.81 201.33 363.59 201.33 363.59" stroke="#263238" stroke-linecap="round" stroke-linejoin="round"/>
<path d="M171.409 370.85L214.549 370.5" stroke="#263238" stroke-linecap="round" stroke-linejoin="round"/>
<path d="M209.55 251.25C209.55 251.25 204.55 292 203.8 301.75C203.05 311.5 196.3 328.5 195.05 332.75C193.771 338.089 192.935 343.524 192.55 349C192.785 351.362 193.203 353.702 193.8 356C193.8 356 194.3 358.25 189.55 359.25C184.8 360.25 176.05 361.75 176.05 361.75C176.05 361.75 172.8 360.75 173.05 351.25C173.3 341.75 173.8 324.25 176.05 316C178.3 307.75 181.3 294.25 182.05 291.5C182.8 288.75 181.05 243.5 181.05 243.5L209.05 243.25L209.55 251.25Z" fill="#263238" stroke="#263238" stroke-linecap="round" stroke-linejoin="round"/>
<path d="M173.299 358C176.475 360.716 180.117 362.834 184.049 364.25C190.799 366.75 193.799 368.25 194.799 370.5C195.799 372.75 194.799 374 194.799 374H152.049C152.049 374 149.799 370.5 153.549 363.5C157.299 356.5 173.299 358 173.299 358Z" fill="white" stroke="#263238" stroke-linecap="round" stroke-linejoin="round"/>
<path d="M178.449 361.45C178.449 361.45 172.999 364.5 173.869 364.93C174.739 365.36 180.189 362.75 180.189 362.75C180.189 362.75 177.139 366.24 178.879 366.02C180.619 365.8 182.589 363.63 182.589 363.63C182.589 363.63 180.839 367.33 182.149 366.9C183.234 366.373 184.2 365.631 184.989 364.72" stroke="#263238" stroke-linecap="round" stroke-linejoin="round"/>
<path d="M151.51 369.84L194.8 370.5" stroke="#263238" stroke-linecap="round" stroke-linejoin="round"/>
<path d="M159.05 240.75C159.05 240.75 160.55 279.75 160.3 287.25C160.05 294.75 156.05 303 155.55 312C155.05 321 151.47 356.39 151.47 360.39C151.47 364.39 151.64 365.15 151.89 365.9C152.14 366.65 158.3 365 161.8 363.75C165.3 362.5 177.32 361.24 177.32 361.24C177.32 361.24 175.32 357.5 175.32 354.75C175.32 352 174.82 347.5 175.32 346C175.82 344.5 178.82 313.25 180.82 307.5C182.82 301.75 186.32 282.75 186.57 275.5C186.82 268.25 189.82 243.75 189.82 243.75C189.82 243.75 169.8 244.5 159.05 240.75Z" fill="#263238" stroke="#263238" stroke-linecap="round" stroke-linejoin="round"/>
<path d="M190.689 270.5C190.809 269 190.879 267.6 190.879 266.32" stroke="white" stroke-linecap="round" stroke-linejoin="round"/>
<path d="M177.319 358.69V351.07C177.319 347.25 180.709 328.18 183.669 311.23C185.869 298.67 188.769 285.64 190.119 275.59" stroke="white" stroke-linecap="round" stroke-linejoin="round"/>
<path d="M164.31 118.46C164.31 118.46 155.16 126.83 154.38 127.46C153.6 128.09 146.59 139.52 144.65 144C142.71 148.48 144.45 156.85 145.65 164C146.85 171.15 154.41 194.17 154.41 194.17L152.46 252.37C152.46 252.37 165.89 258.02 173.46 259.37C181.03 260.72 193.12 260.15 193.12 260.15L195.65 247.5L198.76 259.56C198.76 259.56 210.63 258.2 216.08 252.17L209.47 178L205.77 144.71C205.77 144.71 204.77 136.71 202.85 133.23C200.93 129.75 190.39 122.91 182.99 120.23C175.59 117.55 164.31 118.46 164.31 118.46Z" fill="white"/>
<path d="M171.999 169L152.599 158.66L153.419 151.19C153.419 151.19 146.659 150.13 148.209 145.73C149.759 141.33 155.999 133 157.269 130.19C158.539 127.38 165.539 122.19 165.539 122.19L168.329 118.31C165.919 118.31 164.329 118.47 164.329 118.47C164.329 118.47 155.179 126.84 154.399 127.47C153.619 128.1 146.609 139.53 144.669 144.01C142.729 148.49 144.469 156.86 145.669 164.01C146.869 171.16 154.429 194.18 154.429 194.18L152.479 252.38C152.479 252.38 155.669 253.72 159.819 255.25C159.249 233.99 158.229 193.6 158.609 193.03C159.129 192.26 168.179 179.84 170.759 177.03C173.339 174.22 159.389 177.8 160.159 177.29C160.929 176.78 171.999 169 171.999 169Z" fill="#0987FF"/>
<path opacity="0.5" d="M171.999 169L152.599 158.66L153.419 151.19C153.419 151.19 146.659 150.13 148.209 145.73C149.759 141.33 155.999 133 157.269 130.19C158.539 127.38 165.539 122.19 165.539 122.19L168.329 118.31C165.919 118.31 164.329 118.47 164.329 118.47C164.329 118.47 155.179 126.84 154.399 127.47C153.619 128.1 146.609 139.53 144.669 144.01C142.729 148.49 144.469 156.86 145.669 164.01C146.869 171.16 154.429 194.18 154.429 194.18L152.479 252.38C152.479 252.38 155.669 253.72 159.819 255.25C159.249 233.99 158.229 193.6 158.609 193.03C159.129 192.26 168.179 179.84 170.759 177.03C173.339 174.22 159.389 177.8 160.159 177.29C160.929 176.78 171.999 169 171.999 169Z" fill="white"/>
<path d="M190.549 159.75C190.549 159.75 197.239 224.03 195.649 247.52Z" fill="white"/>
<path d="M190.549 159.75C190.549 159.75 197.239 224.03 195.649 247.52" stroke="#263238" stroke-linecap="round" stroke-linejoin="round"/>
<path d="M161.049 214.25L181.299 217V222.25L161.299 219L161.049 214.25Z" stroke="#263238" stroke-linecap="round" stroke-linejoin="round"/>
<path d="M211.799 217.75L205.549 220L204.799 215L209.799 213.25" stroke="#263238" stroke-linecap="round" stroke-linejoin="round"/>
<path d="M164.31 118.46C164.31 118.46 155.16 126.83 154.38 127.46C153.6 128.09 146.59 139.52 144.65 144C142.71 148.48 144.45 156.85 145.65 164C146.85 171.15 154.41 194.17 154.41 194.17L152.46 252.37C152.46 252.37 165.89 258.02 173.46 259.37C181.03 260.72 193.12 260.15 193.12 260.15L195.65 247.5L198.76 259.56C198.76 259.56 210.63 258.2 216.08 252.17L209.47 178L205.77 144.71C205.77 144.71 204.77 136.71 202.85 133.23C200.93 129.75 190.39 122.91 182.99 120.23C175.59 117.55 164.31 118.46 164.31 118.46Z" stroke="#263238" stroke-linecap="round" stroke-linejoin="round"/>
<path d="M163.14 120C163.14 120 180.46 140.83 183.38 146.28C186.3 151.73 190.59 158.35 190.59 158.35C190.59 158.35 190.78 139.85 188.25 131.29C185.72 122.73 183 121.19 183 121.19C181.558 119.712 179.771 118.617 177.799 118.004C175.828 117.391 173.735 117.28 171.71 117.68C164.31 118.85 163.14 120 163.14 120Z" fill="white" stroke="#263238" stroke-linecap="round" stroke-linejoin="round"/>
<path d="M190.129 144.09L185.909 135.4V127.81L180.069 121.81L179.489 131.54L183.769 136.41L185.769 150.52C188.199 154.68 190.619 158.41 190.619 158.41C190.619 158.41 190.659 151.43 190.129 144.09Z" fill="#263238" stroke="#263238" stroke-linecap="round" stroke-linejoin="round"/>
<path d="M182.6 126.25L188.25 131.31L183.38 119.63C183.38 119.63 181.24 125.08 182.6 126.25Z" fill="white" stroke="#263238" stroke-linecap="round" stroke-linejoin="round"/>
<path d="M170.339 75.44C170.339 75.44 162.559 78.95 159.249 85.18C155.939 91.41 160.799 99 162.359 100.94C163.479 102.282 164.717 103.521 166.059 104.64L167.619 106.39L167.809 115.15L181.999 127.22L185.889 114.76C185.889 114.76 192.509 113.4 193.489 110.87C194.469 108.34 191.539 92.77 190.759 89.65C189.979 86.53 187.649 80.51 187.649 80.51C187.649 80.51 188.419 77.59 183.949 74.86C179.479 72.13 170.339 75.44 170.339 75.44Z" fill="white"/>
<g opacity="0.15">
<path opacity="0.15" d="M170.339 75.44C170.339 75.44 162.559 78.95 159.249 85.18C155.939 91.41 160.799 99 162.359 100.94C163.479 102.282 164.717 103.521 166.059 104.64L167.619 106.39L167.809 115.15L181.999 127.22L185.889 114.76C185.889 114.76 192.509 113.4 193.489 110.87C194.469 108.34 191.539 92.77 190.759 89.65C189.979 86.53 187.649 80.51 187.649 80.51C187.649 80.51 188.419 77.59 183.949 74.86C179.479 72.13 170.339 75.44 170.339 75.44Z" fill="black"/>
<g opacity="0.15">
<path opacity="0.15" d="M175.63 107.7C174.85 103.82 177.96 93.6999 174.63 87.0099C171.96 81.6599 164.23 82.0099 161.17 82.4199C160.445 83.2693 159.815 84.1947 159.289 85.1799C155.979 91.4099 160.839 98.9999 162.399 100.94C163.519 102.282 164.757 103.521 166.1 104.64L167.66 106.39L167.85 115.15L171.77 118.48C171.77 117.36 171.77 116.48 171.77 115.97C171.77 114.26 179.53 114.16 181.6 113.39C183.67 112.62 176.4 111.58 175.63 107.7Z" fill="black"/>
<path opacity="0.5" d="M175.63 107.7C174.85 103.82 177.96 93.6999 174.63 87.0099C171.96 81.6599 164.23 82.0099 161.17 82.4199C160.445 83.2693 159.815 84.1947 159.289 85.1799C155.979 91.4099 160.839 98.9999 162.399 100.94C163.519 102.282 164.757 103.521 166.1 104.64L167.66 106.39L167.85 115.15L171.77 118.48C171.77 117.36 171.77 116.48 171.77 115.97C171.77 114.26 179.53 114.16 181.6 113.39C183.67 112.62 176.4 111.58 175.63 107.7Z" fill="black"/>
</g>
</g>
<g style="mix-blend-mode:multiply" opacity="0.22">
<path d="M175.63 107.7C174.85 103.82 177.96 93.6999 174.63 87.0099C171.96 81.6599 164.23 82.0099 161.17 82.4199C160.445 83.2693 159.815 84.1947 159.289 85.1799C155.979 91.4099 160.839 98.9999 162.399 100.94C163.519 102.282 164.757 103.521 166.1 104.64L167.66 106.39L167.85 115.15L171.77 118.48C171.77 117.36 171.77 116.48 171.77 115.97C171.77 114.26 179.53 114.16 181.6 113.39C183.67 112.62 176.4 111.58 175.63 107.7Z" fill="black"/>
</g>
<path d="M170.339 75.44C170.339 75.44 162.559 78.95 159.249 85.18C155.939 91.41 160.799 99 162.359 100.94C163.479 102.282 164.717 103.521 166.059 104.64L167.619 106.39L167.809 115.15L181.999 127.22L185.889 114.76C185.889 114.76 192.509 113.4 193.489 110.87C194.469 108.34 191.539 92.77 190.759 89.65C189.979 86.53 187.649 80.51 187.649 80.51C187.649 80.51 188.419 77.59 183.949 74.86C179.479 72.13 170.339 75.44 170.339 75.44Z" stroke="#263238" stroke-linecap="round" stroke-linejoin="round"/>
<path d="M172.479 106.78C172.479 106.78 173.259 109.9 174.619 110.68C177.766 112.466 181.322 113.403 184.939 113.4" stroke="#263238" stroke-linecap="round" stroke-linejoin="round"/>
<path d="M190.779 89.6499L189.609 91.7899C189.609 91.7899 194.279 96.0799 194.089 97.2399C193.899 98.3999 190.199 99.7799 190.199 99.7799" fill="white"/>
<path opacity="0.15" d="M190.779 89.6499L189.609 91.7899C189.609 91.7899 194.279 96.0799 194.089 97.2399C193.899 98.3999 190.199 99.7799 190.199 99.7799" fill="black"/>
<path d="M190.779 89.6499L189.609 91.7899C189.609 91.7899 194.279 96.0799 194.089 97.2399C193.899 98.3999 190.199 99.7799 190.199 99.7799" stroke="#263238" stroke-linecap="round" stroke-linejoin="round"/>
<path d="M184.82 93.8896L185.13 94.6696L182.56 95.6897L185.26 95.6297" stroke="#263238" stroke-linecap="round" stroke-linejoin="round"/>
<path d="M185.2 91.0798C185.2 91.0798 181.92 90.1798 180.55 92.9298" stroke="#263238" stroke-linecap="round" stroke-linejoin="round"/>
<path d="M191.999 102.51C190.506 102.937 188.962 103.166 187.409 103.19" stroke="#263238" stroke-linecap="round" stroke-linejoin="round"/>
<path d="M175.999 81.67C181.249 78.56 187.679 80.5 187.679 80.5C187.679 80.5 188.449 77.59 183.979 74.86C179.509 72.13 170.349 75.44 170.349 75.44C170.349 75.44 162.569 78.95 159.259 85.18C155.949 91.41 160.809 99 162.369 100.94C163.489 102.282 164.727 103.521 166.069 104.64L167.629 106.39V107.1C170.789 106.72 171.309 106.2 171.309 106.2C170.872 106.21 170.437 106.126 170.035 105.954C169.633 105.781 169.273 105.524 168.979 105.2C167.619 104.03 165.089 102.08 165.669 99.36C166.249 96.64 168.589 96.6301 169.759 97.6001C170.929 98.5701 170.929 98.77 172.289 98.19C173.649 97.61 171.699 94.1001 171.699 94.1001L173.699 92.7401C175.649 91.3801 176.229 89.8201 174.699 88.4601C173.169 87.1001 170.729 84.79 175.999 81.67Z" fill="#263238" stroke="#263238" stroke-linecap="round" stroke-linejoin="round"/>
<path d="M165.87 113.21L163.14 120.02L178.71 135.01L182.8 127.03L165.87 113.21Z" fill="white" stroke="#263238" stroke-linecap="round" stroke-linejoin="round"/>
<path d="M206.739 65.3798C206.739 65.3798 216.859 83.2898 218.419 91.8498C219.979 100.41 222.899 111.7 222.899 111.7L248.399 108.78C248.399 108.78 244.699 85.0398 242.399 77.0598C240.099 69.0798 239.479 67.3198 239.479 67.3198C239.479 67.3198 210.999 64.3998 206.739 65.3798Z" fill="#263238" stroke="#263238" stroke-linecap="round" stroke-linejoin="round"/>
<path d="M210.25 125.14C210.25 125.14 211.25 118.14 211.25 117.54C211.25 116.94 211 107 211 107C211 107 214.7 98.9998 215.29 98.6298C215.88 98.2598 222.1 95.1298 222.49 96.4898C222.88 97.8498 221.13 98.4398 220.54 99.0198C219.95 99.5998 217.43 100.77 217.23 101.36C217.03 101.95 215.87 106.42 215.87 106.42C215.87 106.42 220.93 102.53 222.29 102.53C223.65 102.53 224.82 105.64 224.82 105.64C224.82 105.64 226.58 108.17 226.58 109.53C226.58 110.89 226.97 112.45 225.99 113.43C225.01 114.41 224.63 115.18 223.27 115.18C221.91 115.18 220.15 116.74 220.15 117.9C220.15 119.06 220.15 122.96 218.98 124.13C217.173 125.65 215.291 127.079 213.34 128.41L210.25 125.14Z" fill="white"/>
<path opacity="0.15" d="M210.25 125.14C210.25 125.14 211.25 118.14 211.25 117.54C211.25 116.94 211 107 211 107C211 107 214.7 98.9998 215.29 98.6298C215.88 98.2598 222.1 95.1298 222.49 96.4898C222.88 97.8498 221.13 98.4398 220.54 99.0198C219.95 99.5998 217.43 100.77 217.23 101.36C217.03 101.95 215.87 106.42 215.87 106.42C215.87 106.42 220.93 102.53 222.29 102.53C223.65 102.53 224.82 105.64 224.82 105.64C224.82 105.64 226.58 108.17 226.58 109.53C226.58 110.89 226.97 112.45 225.99 113.43C225.01 114.41 224.63 115.18 223.27 115.18C221.91 115.18 220.15 116.74 220.15 117.9C220.15 119.06 220.15 122.96 218.98 124.13C217.173 125.65 215.291 127.079 213.34 128.41L210.25 125.14Z" fill="black" stroke="#263238" stroke-linecap="round" stroke-linejoin="round"/>
<path d="M210.25 125.14C210.25 125.14 211.25 118.14 211.25 117.54C211.25 116.94 211 107 211 107C211 107 214.7 98.9998 215.29 98.6298C215.88 98.2598 222.1 95.1298 222.49 96.4898C222.88 97.8498 221.13 98.4398 220.54 99.0198C219.95 99.5998 217.43 100.77 217.23 101.36C217.03 101.95 215.87 106.42 215.87 106.42C215.87 106.42 220.93 102.53 222.29 102.53C223.65 102.53 224.82 105.64 224.82 105.64C224.82 105.64 226.58 108.17 226.58 109.53C226.58 110.89 226.97 112.45 225.99 113.43C225.01 114.41 224.63 115.18 223.27 115.18C221.91 115.18 220.15 116.74 220.15 117.9C220.15 119.06 220.15 122.96 218.98 124.13C217.173 125.65 215.291 127.079 213.34 128.41L210.25 125.14Z" stroke="#263238" stroke-linecap="round" stroke-linejoin="round"/>
<path d="M226.599 109.56L219.979 112.68" stroke="#263238" stroke-linecap="round" stroke-linejoin="round"/>
<path d="M224.839 105.67L218.619 109.37" stroke="#263238" stroke-linecap="round" stroke-linejoin="round"/>
<path d="M249.37 103.92C249.37 103.92 245.09 106.45 245.09 107.62C245.09 108.79 246.09 108.98 247.42 108.4C248.75 107.82 251.32 107.03 251.32 105.67C251.32 104.31 250.73 103.72 249.37 103.92Z" fill="white"/>
<path opacity="0.15" d="M249.37 103.92C249.37 103.92 245.09 106.45 245.09 107.62C245.09 108.79 246.09 108.98 247.42 108.4C248.75 107.82 251.32 107.03 251.32 105.67C251.32 104.31 250.73 103.72 249.37 103.92Z" fill="black" stroke="#263238" stroke-linecap="round" stroke-linejoin="round"/>
<path d="M249.37 103.92C249.37 103.92 245.09 106.45 245.09 107.62C245.09 108.79 246.09 108.98 247.42 108.4C248.75 107.82 251.32 107.03 251.32 105.67C251.32 104.31 250.73 103.72 249.37 103.92Z" stroke="#263238" stroke-linecap="round" stroke-linejoin="round"/>
<path d="M248.59 101.19C248.59 101.19 244.5 102.19 244.31 103.72C244.12 105.25 249.37 104.11 250.54 103.72C251.71 103.33 251.71 100.61 248.59 101.19Z" fill="white"/>
<path opacity="0.15" d="M248.59 101.19C248.59 101.19 244.5 102.19 244.31 103.72C244.12 105.25 249.37 104.11 250.54 103.72C251.71 103.33 251.71 100.61 248.59 101.19Z" fill="black" stroke="#263238" stroke-linecap="round" stroke-linejoin="round"/>
<path d="M248.59 101.19C248.59 101.19 244.5 102.19 244.31 103.72C244.12 105.25 249.37 104.11 250.54 103.72C251.71 103.33 251.71 100.61 248.59 101.19Z" stroke="#263238" stroke-linecap="round" stroke-linejoin="round"/>
<path d="M250.729 107C250.729 107 245.869 109.34 245.669 110.12C245.469 110.9 245.089 112.06 247.029 112.06C248.969 112.06 252.679 110.12 252.869 108.75C253.059 107.38 252.289 107 250.729 107Z" fill="white"/>
<path opacity="0.15" d="M250.729 107C250.729 107 245.869 109.34 245.669 110.12C245.469 110.9 245.089 112.06 247.029 112.06C248.969 112.06 252.679 110.12 252.869 108.75C253.059 107.38 252.289 107 250.729 107Z" fill="black" stroke="#263238" stroke-linecap="round" stroke-linejoin="round"/>
<path d="M250.729 107C250.729 107 245.869 109.34 245.669 110.12C245.469 110.9 245.089 112.06 247.029 112.06C248.969 112.06 252.679 110.12 252.869 108.75C253.059 107.38 252.289 107 250.729 107Z" stroke="#263238" stroke-linecap="round" stroke-linejoin="round"/>
<path d="M252.26 109.76C252.26 109.76 247.76 111.82 247.58 112.51C247.4 113.2 247.04 114.23 248.84 114.23C250.64 114.23 254.06 112.51 254.24 111.31C254.42 110.11 253.7 109.76 252.26 109.76Z" fill="white"/>
<path opacity="0.15" d="M252.26 109.76C252.26 109.76 247.76 111.82 247.58 112.51C247.4 113.2 247.04 114.23 248.84 114.23C250.64 114.23 254.06 112.51 254.24 111.31C254.42 110.11 253.7 109.76 252.26 109.76Z" fill="black" stroke="#263238" stroke-linecap="round" stroke-linejoin="round"/>
<path d="M252.26 109.76C252.26 109.76 247.76 111.82 247.58 112.51C247.4 113.2 247.04 114.23 248.84 114.23C250.64 114.23 254.06 112.51 254.24 111.31C254.42 110.11 253.7 109.76 252.26 109.76Z" stroke="#263238" stroke-linecap="round" stroke-linejoin="round"/>
<path d="M214.18 67.9297C214.18 67.9297 222.3 82.0797 223.8 87.8297C225.3 93.5797 226.55 109.58 226.55 109.58L242.8 107.58C242.8 107.58 242.3 93.0797 240.05 86.0797C237.8 79.0797 236.05 70.0797 236.05 70.0797L214.18 67.9297Z" fill="#7D7D7D"/>
<path d="M227.65 89.2699C227.65 89.2699 225.79 92.7299 226.85 94.1999C227.91 95.6699 230.44 96.3299 230.71 96.7299C230.98 97.1299 232.84 108.44 232.84 108.44L238.56 107.91C238.56 107.91 235.77 97.3899 236.43 95.3999C237.09 93.4099 238.7 91.5399 237.1 89.8099C235.5 88.0799 232.97 86.8799 231.38 87.1399C230.001 87.581 228.73 88.3066 227.65 89.2699V89.2699Z" fill="white"/>
<path d="M222.46 69.1699C222.46 69.1699 227.12 81.1699 226.72 83.2799C226.32 85.3899 225.25 88.8699 227.65 89.2799C230.05 89.6899 231.11 87.4199 231.91 87.5499C232.71 87.6799 234.04 90.2099 235.24 88.7499C236.44 87.2899 237.63 84.8899 235.64 82.4899C233.65 80.0899 232.18 78.7699 231.11 76.2399C230.293 74.1471 229.582 72.0144 228.98 69.8499L222.46 69.1699Z" fill="white"/>
<path d="M163.33 131.36C163.33 131.36 166.25 131.36 169.76 134.48C173.27 137.6 185.76 150.25 185.76 150.25L210.09 123.77L218.09 131.36L189.22 173.6C187.844 174.069 186.391 174.269 184.94 174.19C182.8 173.99 150.1 157.84 150.1 157.84" fill="white"/>
<path d="M181.06 167.69C176.66 167.69 161.92 159.41 157.27 155.79C155.699 154.517 154.394 152.947 153.43 151.17L150.1 157.84C150.1 157.84 182.8 173.99 184.94 174.19C186.391 174.269 187.844 174.069 189.22 173.6L210.08 143C202.56 150.38 184.52 167.69 181.06 167.69Z" fill="#0987FF"/>
<path opacity="0.5" d="M181.06 167.69C176.66 167.69 161.92 159.41 157.27 155.79C155.699 154.517 154.394 152.947 153.43 151.17L150.1 157.84C150.1 157.84 182.8 173.99 184.94 174.19C186.391 174.269 187.844 174.069 189.22 173.6L210.08 143C202.56 150.38 184.52 167.69 181.06 167.69Z" fill="white"/>
<path d="M163.33 131.36C163.33 131.36 166.25 131.36 169.76 134.48C173.27 137.6 185.76 150.25 185.76 150.25L210.09 123.77L218.09 131.36L189.22 173.6C187.844 174.069 186.391 174.269 184.94 174.19C182.8 173.99 150.1 157.84 150.1 157.84" stroke="#263238" stroke-linecap="round" stroke-linejoin="round"/>
<path d="M163.33 164.65L152.63 164.45" stroke="#263238" stroke-linecap="round" stroke-linejoin="round"/>
<path d="M185.72 149.87C185.72 149.87 179.55 157.25 178.8 161.25" stroke="#263238" stroke-linecap="round" stroke-linejoin="round"/>
<path d="M183.8 150.63C183.8 150.63 178.55 155.38 177.3 157.88" stroke="#263238" stroke-linecap="round" stroke-linejoin="round"/>
<path d="M12.1299 374H401.47" stroke="#263238" stroke-linecap="round" stroke-linejoin="round"/>
</svg>
