<svg width="459" height="435" viewBox="0 0 459 435" fill="none" xmlns="http://www.w3.org/2000/svg">
<path d="M393.69 96.2001C368.85 59.4001 331.92 27.2701 288.75 13.2601C273.836 8.48215 258.525 5.04846 243 3.00007C125 -12.9999 57.9998 58.0001 39.9998 105C29.6998 131.89 39.4898 161.91 47.2498 188.09C54.1198 211.28 70.8898 246.55 61.9998 271C49.9998 304 32.9998 350 83.9998 373C135 396 177.16 411.26 259 382C340.84 352.74 387.76 323.32 411.94 280.06C444.54 221.74 430.77 151.13 393.69 96.2001Z" fill="#0987FF"/>
<path opacity="0.7" d="M393.69 96.2001C368.85 59.4001 331.92 27.2701 288.75 13.2601C273.836 8.48215 258.525 5.04846 243 3.00007C125 -12.9999 57.9998 58.0001 39.9998 105C29.6998 131.89 39.4898 161.91 47.2498 188.09C54.1198 211.28 70.8898 246.55 61.9998 271C49.9998 304 32.9998 350 83.9998 373C135 396 177.16 411.26 259 382C340.84 352.74 387.76 323.32 411.94 280.06C444.54 221.74 430.77 151.13 393.69 96.2001Z" fill="white"/>
<path d="M117.21 26.28H25.5899L24.3799 41.07H117.21V26.28Z" stroke="#808080" stroke-linecap="round" stroke-linejoin="round"/>
<path d="M117.21 41.0701H25.5899L24.3799 55.8701H117.21V41.0701Z" stroke="#808080" stroke-linecap="round" stroke-linejoin="round"/>
<path d="M117.21 55.8701H25.5899L24.3799 70.6701H117.21V55.8701Z" stroke="#808080" stroke-linecap="round" stroke-linejoin="round"/>
<path d="M117.21 70.6702H25.5899L24.3799 85.4702H117.21V70.6702Z" stroke="#808080" stroke-linecap="round" stroke-linejoin="round"/>
<path d="M117.21 85.47H25.5899L24.3799 100.26H117.21V85.47Z" stroke="#808080" stroke-linecap="round" stroke-linejoin="round"/>
<path d="M117.21 100.26H25.5899L24.3799 115.06H117.21V100.26Z" stroke="#808080" stroke-linecap="round" stroke-linejoin="round"/>
<path d="M117.21 115.06H25.5899L24.3799 129.86H117.21V115.06Z" stroke="#808080" stroke-linecap="round" stroke-linejoin="round"/>
<path d="M117.21 129.86H25.5899L24.3799 144.65H117.21V129.86Z" stroke="#808080" stroke-linecap="round" stroke-linejoin="round"/>
<path d="M117.21 144.65H25.5899L24.3799 159.45H117.21V144.65Z" stroke="#808080" stroke-linecap="round" stroke-linejoin="round"/>
<path d="M117.21 159.45H25.5899L24.3799 174.25H117.21V159.45Z" stroke="#808080" stroke-linecap="round" stroke-linejoin="round"/>
<path d="M117.21 174.25H25.5899L24.3799 189.04H117.21V174.25Z" stroke="#808080" stroke-linecap="round" stroke-linejoin="round"/>
<path d="M117.21 189.04H25.5899L24.3799 203.84H117.21V189.04Z" stroke="#808080" stroke-linecap="round" stroke-linejoin="round"/>
<path d="M117.21 203.84H25.5899L24.3799 218.64H117.21V203.84Z" stroke="#808080" stroke-linecap="round" stroke-linejoin="round"/>
<path d="M117.21 218.64H25.5899L24.3799 233.44H117.21V218.64Z" stroke="#808080" stroke-linecap="round" stroke-linejoin="round"/>
<path d="M117.21 233.44H25.5899L24.3799 248.23H117.21V233.44Z" stroke="#808080" stroke-linecap="round" stroke-linejoin="round"/>
<path d="M211.4 26.28H119.78L118.57 41.07H211.4V26.28Z" stroke="#808080" stroke-linecap="round" stroke-linejoin="round"/>
<path d="M211.4 41.0701H119.78L118.57 55.8701H211.4V41.0701Z" stroke="#808080" stroke-linecap="round" stroke-linejoin="round"/>
<path d="M211.4 55.8701H119.78L118.57 70.6701H211.4V55.8701Z" stroke="#808080" stroke-linecap="round" stroke-linejoin="round"/>
<path d="M211.4 70.6702H119.78L118.57 85.4702H211.4V70.6702Z" stroke="#808080" stroke-linecap="round" stroke-linejoin="round"/>
<path d="M211.4 85.47H119.78L118.57 100.26H211.4V85.47Z" stroke="#808080" stroke-linecap="round" stroke-linejoin="round"/>
<path d="M211.4 100.26H119.78L118.57 115.06H211.4V100.26Z" stroke="#808080" stroke-linecap="round" stroke-linejoin="round"/>
<path d="M211.4 115.06H119.78L118.57 129.86H211.4V115.06Z" stroke="#808080" stroke-linecap="round" stroke-linejoin="round"/>
<path d="M211.4 129.86H119.78L118.57 144.65H211.4V129.86Z" stroke="#808080" stroke-linecap="round" stroke-linejoin="round"/>
<path d="M211.4 144.65H119.78L118.57 159.45H211.4V144.65Z" stroke="#808080" stroke-linecap="round" stroke-linejoin="round"/>
<path d="M211.4 159.45H119.78L118.57 174.25H211.4V159.45Z" stroke="#808080" stroke-linecap="round" stroke-linejoin="round"/>
<path d="M211.4 174.25H119.78L118.57 189.04H211.4V174.25Z" stroke="#808080" stroke-linecap="round" stroke-linejoin="round"/>
<path d="M211.4 189.04H119.78L118.57 203.84H211.4V189.04Z" stroke="#808080" stroke-linecap="round" stroke-linejoin="round"/>
<path d="M211.4 203.84H119.78L118.57 218.64H211.4V203.84Z" stroke="#808080" stroke-linecap="round" stroke-linejoin="round"/>
<path d="M211.4 218.64H119.78L118.57 233.44H211.4V218.64Z" stroke="#808080" stroke-linecap="round" stroke-linejoin="round"/>
<path d="M211.4 233.44H119.78L118.57 248.23H211.4V233.44Z" stroke="#808080" stroke-linecap="round" stroke-linejoin="round"/>
<path d="M215.99 14.8201H22.2402V25.9801H215.99V14.8201Z" stroke="#808080" stroke-linecap="round" stroke-linejoin="round"/>
<path d="M215.99 25.98V222.57" stroke="#808080" stroke-linecap="round" stroke-linejoin="round"/>
<path d="M213.88 26.3V161.18" stroke="#808080" stroke-linecap="round" stroke-linejoin="round"/>
<path d="M217.36 222.14H214.76V227.15H217.36V222.14Z" fill="#263238" stroke="#808080" stroke-linecap="round" stroke-linejoin="round"/>
<path d="M215.01 160.1H212.41V165.11H215.01V160.1Z" fill="#263238" stroke="#808080" stroke-linecap="round" stroke-linejoin="round"/>
<path d="M77.0006 234.35C77.0006 234.35 64.7006 227.52 63.7906 243C62.8806 258.48 60.6006 359.09 60.6006 359.09" stroke="#263238" stroke-width="2" stroke-linecap="round" stroke-linejoin="round"/>
<path d="M57.4102 244.36C57.4102 244.36 67.4102 266.67 62.8801 357.73" stroke="#263238" stroke-width="2" stroke-linecap="round" stroke-linejoin="round"/>
<path d="M67.2602 237.47C67.2602 237.47 62.5502 240.47 59.8802 237.03C57.2102 233.59 61.6902 227.27 57.7302 224.57C53.7702 221.87 47.0002 226 47.0002 226C47.0002 226 52.2502 227.54 52.0802 230.41C51.9102 233.28 49.3802 234.41 49.0802 233.11C48.7802 231.81 46.2302 225.54 41.9602 228.17C40.7306 228.897 39.6609 229.866 38.8153 231.017C37.9698 232.169 37.366 233.479 37.0402 234.87C37.0402 234.87 46.9802 233.81 47.5802 237.55C48.1802 241.29 43.5102 236.89 39.4102 236.65C35.3102 236.41 31.5702 237.01 31.8402 239.5C31.931 241.691 31.8004 243.885 31.4502 246.05C33.695 244.186 36.5325 243.186 39.4502 243.23C43.9602 243.5 43.7902 246.37 39.6902 246.13C35.5902 245.89 32.0002 249.78 32.0002 249.78C32.0002 249.78 35.7402 256.17 40.4902 259.33C45.2402 262.49 46.9502 261.33 47.4902 258.92C48.0302 256.51 46.7702 250.24 49.6402 250.41C52.5102 250.58 44.8902 261.23 48.5502 261.86C52.2102 262.49 55.1602 261.43 56.1202 259.02L57.1202 256.61C57.1202 256.61 55.8402 250.36 56.4002 247.93C56.9602 245.5 57.6302 248 58.2802 250.93C58.9302 253.86 59.3402 260.86 60.5902 260.52C61.8402 260.18 65.8502 255.08 66.7902 253.08C67.7302 251.08 61.5102 244.95 61.5802 243.72C61.6502 242.49 66.4502 244.83 67.2002 246.11C67.9502 247.39 68.6702 249.11 68.6702 249.11C68.6702 249.11 71.6702 247.23 71.5902 241.47C71.5102 235.71 67.2602 237.47 67.2602 237.47Z" fill="#0987FF"/>
<path opacity="0.3" d="M67.2602 237.47C67.2602 237.47 62.5502 240.47 59.8802 237.03C57.2102 233.59 61.6902 227.27 57.7302 224.57C53.7702 221.87 47.0002 226 47.0002 226C47.0002 226 52.2502 227.54 52.0802 230.41C51.9102 233.28 49.3802 234.41 49.0802 233.11C48.7802 231.81 46.2302 225.54 41.9602 228.17C40.7306 228.897 39.6609 229.866 38.8153 231.017C37.9698 232.169 37.366 233.479 37.0402 234.87C37.0402 234.87 46.9802 233.81 47.5802 237.55C48.1802 241.29 43.5102 236.89 39.4102 236.65C35.3102 236.41 31.5702 237.01 31.8402 239.5C31.931 241.691 31.8004 243.885 31.4502 246.05C33.695 244.186 36.5325 243.186 39.4502 243.23C43.9602 243.5 43.7902 246.37 39.6902 246.13C35.5902 245.89 32.0002 249.78 32.0002 249.78C32.0002 249.78 35.7402 256.17 40.4902 259.33C45.2402 262.49 46.9502 261.33 47.4902 258.92C48.0302 256.51 46.7702 250.24 49.6402 250.41C52.5102 250.58 44.8902 261.23 48.5502 261.86C52.2102 262.49 55.1602 261.43 56.1202 259.02L57.1202 256.61C57.1202 256.61 55.8402 250.36 56.4002 247.93C56.9602 245.5 57.6302 248 58.2802 250.93C58.9302 253.86 59.3402 260.86 60.5902 260.52C61.8402 260.18 65.8502 255.08 66.7902 253.08C67.7302 251.08 61.5102 244.95 61.5802 243.72C61.6502 242.49 66.4502 244.83 67.2002 246.11C67.9502 247.39 68.6702 249.11 68.6702 249.11C68.6702 249.11 71.6702 247.23 71.5902 241.47C71.5102 235.71 67.2602 237.47 67.2602 237.47Z" fill="#263238"/>
<path d="M43.4199 251C46.4799 247.21 50.9999 242.08 54.7899 239.63" stroke="#263238" stroke-linecap="round" stroke-linejoin="round"/>
<path d="M39.8604 255.59C39.8604 255.59 40.6504 254.5 41.9304 252.86" stroke="#263238" stroke-linecap="round" stroke-linejoin="round"/>
<path d="M56.79 240.55C56.79 240.55 61.35 246.99 62.19 253.62" stroke="#263238" stroke-linecap="round" stroke-linejoin="round"/>
<path d="M51.6299 244.36C51.6299 244.36 52.9099 243.61 52.4299 251.81" stroke="#263238" stroke-linecap="round" stroke-linejoin="round"/>
<path d="M55 236.74C55 236.74 57.6 234.43 56.23 229.82" stroke="#263238" stroke-linecap="round" stroke-linejoin="round"/>
<path d="M51.4401 240.65L49.5801 237.25" stroke="#263238" stroke-linecap="round" stroke-linejoin="round"/>
<path d="M47.5304 244.12C47.5304 244.12 41.6304 239.66 37.9404 239.44" stroke="#263238" stroke-linecap="round" stroke-linejoin="round"/>
<path d="M83.9999 225.32C83.9999 225.32 83.8199 232.08 78.5399 232.41C73.2599 232.74 69.9999 223.94 64.5999 226.06C59.1999 228.18 58.6799 237.82 58.6799 237.82C58.6799 237.82 63.7999 233.61 66.5599 235.73C69.3199 237.85 68.6799 241.13 67.1899 240.61C65.6999 240.09 57.6699 238.3 57.3999 244.36C57.2879 246.088 57.527 247.82 58.1027 249.453C58.6785 251.086 59.579 252.585 60.7499 253.86C60.7499 253.86 66.4599 243.19 70.6099 245.14C74.7599 247.09 67.1799 248.77 64.1499 252.71C61.1199 256.65 59.1499 260.8 61.8399 262.23C64.0967 263.632 66.2073 265.257 68.1399 267.08C67.7975 263.571 68.7234 260.055 70.7499 257.17C74.0899 252.84 76.8499 254.97 73.8099 258.9C70.7699 262.83 72.2999 269 72.2999 269C72.2999 269 81.2399 269.61 87.6399 267C94.0399 264.39 94.0799 261.92 92.0199 259.7C89.9599 257.48 82.8299 254.51 84.9599 251.75C87.0899 248.99 92.5599 263.88 95.6799 260.64C98.7999 257.4 99.7499 253.73 97.9999 251.13L96.2399 248.52C96.2399 248.52 89.1199 245.52 87.0599 243.32C84.9999 241.12 87.9699 242.14 91.3299 243.48C94.6899 244.82 102 249.19 102.52 247.7C103.04 246.21 100.65 238.7 99.2799 236.42C97.9099 234.14 87.5499 236.17 86.3699 235.26C85.1899 234.35 90.7999 231.14 92.5899 231.26C93.9321 231.371 95.2674 231.555 96.5899 231.81C96.5899 231.81 96.7499 227.53 90.9299 223.68C85.1099 219.83 83.9999 225.32 83.9999 225.32Z" fill="#0987FF"/>
<path opacity="0.2" d="M83.9999 225.32C83.9999 225.32 83.8199 232.08 78.5399 232.41C73.2599 232.74 69.9999 223.94 64.5999 226.06C59.1999 228.18 58.6799 237.82 58.6799 237.82C58.6799 237.82 63.7999 233.61 66.5599 235.73C69.3199 237.85 68.6799 241.13 67.1899 240.61C65.6999 240.09 57.6699 238.3 57.3999 244.36C57.2879 246.088 57.527 247.82 58.1027 249.453C58.6785 251.086 59.579 252.585 60.7499 253.86C60.7499 253.86 66.4599 243.19 70.6099 245.14C74.7599 247.09 67.1799 248.77 64.1499 252.71C61.1199 256.65 59.1499 260.8 61.8399 262.23C64.0967 263.632 66.2073 265.257 68.1399 267.08C67.7975 263.571 68.7234 260.055 70.7499 257.17C74.0899 252.84 76.8499 254.97 73.8099 258.9C70.7699 262.83 72.2999 269 72.2999 269C72.2999 269 81.2399 269.61 87.6399 267C94.0399 264.39 94.0799 261.92 92.0199 259.7C89.9599 257.48 82.8299 254.51 84.9599 251.75C87.0899 248.99 92.5599 263.88 95.6799 260.64C98.7999 257.4 99.7499 253.73 97.9999 251.13L96.2399 248.52C96.2399 248.52 89.1199 245.52 87.0599 243.32C84.9999 241.12 87.9699 242.14 91.3299 243.48C94.6899 244.82 102 249.19 102.52 247.7C103.04 246.21 100.65 238.7 99.2799 236.42C97.9099 234.14 87.5499 236.17 86.3699 235.26C85.1899 234.35 90.7999 231.14 92.5899 231.26C93.9321 231.371 95.2674 231.555 96.5899 231.81C96.5899 231.81 96.7499 227.53 90.9299 223.68C85.1099 219.83 83.9999 225.32 83.9999 225.32Z" fill="#263238"/>
<path d="M81.2902 258.39C79.5902 252.74 77.5302 244.72 77.6602 239.26" stroke="#263238" stroke-linecap="round" stroke-linejoin="round"/>
<path d="M83.4902 265.1C83.4902 265.1 82.9302 263.56 82.1602 261.17" stroke="#263238" stroke-linecap="round" stroke-linejoin="round"/>
<path d="M80 237.9C80 237.9 89.55 237.73 96.76 241.4" stroke="#263238" stroke-linecap="round" stroke-linejoin="round"/>
<path d="M80.2705 245.66C80.2705 245.66 80.3905 243.87 88.2705 249.94" stroke="#263238" stroke-linecap="round" stroke-linejoin="round"/>
<path d="M74.9103 237.14C74.9103 237.14 74.3703 232.95 68.8203 231.19" stroke="#263238" stroke-linecap="round" stroke-linejoin="round"/>
<path d="M76.42 243.32L71.75 242.86" stroke="#263238" stroke-linecap="round" stroke-linejoin="round"/>
<path d="M77.23 249.6C77.23 249.6 68.74 252.47 66 256" stroke="#263238" stroke-linecap="round" stroke-linejoin="round"/>
<path d="M27.3701 270.32C27.3701 270.32 54.2301 288.07 53.7701 356.82" stroke="#263238" stroke-width="2" stroke-linecap="round" stroke-linejoin="round"/>
<path d="M60.49 265.63C60.49 265.63 59.63 273.41 53.49 273.29C47.35 273.17 44.45 262.71 38 264.65C31.55 266.59 30.06 277.65 30.06 277.65C30.06 277.65 36.37 273.27 39.35 275.99C42.33 278.71 41.29 282.42 39.62 281.68C37.95 280.94 28.86 278.11 27.96 285.08C27.6725 287.064 27.7901 289.085 28.3057 291.022C28.8213 292.959 29.7243 294.772 30.96 296.35C30.96 296.35 38.56 284.58 43.16 287.22C47.76 289.86 38.86 291.09 34.99 295.35C31.12 299.61 28.48 304.21 31.42 306.11C33.8963 307.942 36.1813 310.019 38.24 312.31C38.24 312.31 37.93 305.81 42.24 301.12C46.55 296.43 49.48 299.12 45.61 303.41C41.74 307.7 42.84 315 42.84 315C42.84 315 53.11 316.55 60.74 314.15C68.37 311.75 68.64 308.89 66.47 306.15C64.3 303.41 56.37 299.29 59.08 296.31C61.79 293.33 66.7 311 70.61 307.54C74.52 304.08 75.96 299.95 74.18 296.77L72.4 293.59C72.4 293.59 64.46 289.48 62.3 286.73C60.14 283.98 63.46 285.46 67.22 287.32C70.98 289.18 78.99 294.91 79.72 293.25C80.45 291.59 78.41 282.71 77.06 279.92C75.71 277.13 63.54 278.52 62.26 277.36C60.98 276.2 67.76 273.03 69.82 273.36C71.3464 273.614 72.8585 273.948 74.35 274.36C74.35 274.36 74.93 269.44 68.58 264.44C62.23 259.44 60.49 265.63 60.49 265.63Z" fill="#0987FF"/>
<path opacity="0.3" d="M60.49 265.63C60.49 265.63 59.63 273.41 53.49 273.29C47.35 273.17 44.45 262.71 38 264.65C31.55 266.59 30.06 277.65 30.06 277.65C30.06 277.65 36.37 273.27 39.35 275.99C42.33 278.71 41.29 282.42 39.62 281.68C37.95 280.94 28.86 278.11 27.96 285.08C27.6725 287.064 27.7901 289.085 28.3057 291.022C28.8213 292.959 29.7243 294.772 30.96 296.35C30.96 296.35 38.56 284.58 43.16 287.22C47.76 289.86 38.86 291.09 34.99 295.35C31.12 299.61 28.48 304.21 31.42 306.11C33.8963 307.942 36.1813 310.019 38.24 312.31C38.24 312.31 37.93 305.81 42.24 301.12C46.55 296.43 49.48 299.12 45.61 303.41C41.74 307.7 42.84 315 42.84 315C42.84 315 53.11 316.55 60.74 314.15C68.37 311.75 68.64 308.89 66.47 306.15C64.3 303.41 56.37 299.29 59.08 296.31C61.79 293.33 66.7 311 70.61 307.54C74.52 304.08 75.96 299.95 74.18 296.77L72.4 293.59C72.4 293.59 64.46 289.48 62.3 286.73C60.14 283.98 63.46 285.46 67.22 287.32C70.98 289.18 78.99 294.91 79.72 293.25C80.45 291.59 78.41 282.71 77.06 279.92C75.71 277.13 63.54 278.52 62.26 277.36C60.98 276.2 67.76 273.03 69.82 273.36C71.3464 273.614 72.8585 273.948 74.35 274.36C74.35 274.36 74.93 269.44 68.58 264.44C62.23 259.44 60.49 265.63 60.49 265.63Z" fill="#263238"/>
<path d="M54.2299 303.54C52.7899 296.85 51.2299 287.4 51.8399 281.11" stroke="#263238" stroke-linecap="round" stroke-linejoin="round"/>
<path d="M56.13 311.48C56.13 311.48 55.63 309.66 54.96 306.82" stroke="#263238" stroke-linecap="round" stroke-linejoin="round"/>
<path d="M54.6299 279.76C54.6299 279.76 65.6299 280.46 73.6299 285.38" stroke="#263238" stroke-linecap="round" stroke-linejoin="round"/>
<path d="M54.2402 288.74C54.2402 288.74 54.5502 286.69 63.0702 294.44" stroke="#263238" stroke-linecap="round" stroke-linejoin="round"/>
<path d="M48.8604 278.4C48.8604 278.4 48.6304 273.52 42.4004 270.96" stroke="#263238" stroke-linecap="round" stroke-linejoin="round"/>
<path d="M50.0207 285.68L44.6807 284.71" stroke="#263238" stroke-linecap="round" stroke-linejoin="round"/>
<path d="M50.3705 293C50.3705 293 40.3005 295.52 36.8105 299.35" stroke="#263238" stroke-linecap="round" stroke-linejoin="round"/>
<path d="M37.8398 324.49C37.8398 324.49 55.1398 337.7 56.9998 357.27L53.3598 291.71" stroke="#263238" stroke-width="2" stroke-linecap="round" stroke-linejoin="round"/>
<path d="M79.72 314.93C57 310.83 57 357.27 57 357.27" stroke="#263238" stroke-width="2" stroke-linecap="round" stroke-linejoin="round"/>
<path d="M59.6899 356.82C59.6899 356.82 46.4899 260.76 84.6899 260.76" stroke="#263238" stroke-width="2" stroke-linecap="round" stroke-linejoin="round"/>
<path d="M71.0499 312.17C67.9399 308.67 61.3299 308.67 57.4499 317.61C53.5699 326.55 57.0599 325 57.0599 325C57.0599 325 64.4399 322.67 69.0599 321.11C73.6799 319.55 79.9999 315.67 80.3799 318C80.7599 320.33 77.2699 322.67 72.9899 323.44C68.7099 324.21 57.4499 327.33 58.6099 329.66C59.7699 331.99 62.4999 339 62.4999 339C65.8252 336.179 69.3328 333.58 72.9999 331.22C78.0599 328.11 81.1699 329.22 78.4399 332.77C75.7099 336.32 67.9499 340.16 69.4999 344.82C71.0499 349.48 80.3899 355.31 80.3899 355.31C80.3899 355.31 81.5499 345.6 84.2699 342.49C86.9899 339.38 86.9999 342.88 86.2199 348.32C85.8297 350.637 85.5693 352.974 85.4399 355.32L96.3199 359.21C98.0992 356.501 100.046 353.906 102.15 351.44L104.15 349.49C104.15 349.49 95.5999 342.11 95.2099 337.44C94.8199 332.77 101.04 337.44 102.98 338.22C104.92 339 108.03 344.44 108.03 344.44C108.03 344.44 109.98 335.5 110.37 332.39L110.75 329.28C110.75 329.28 102.59 326.17 99.4799 326.17C96.3699 326.17 94.8199 328.5 94.8199 325.4C94.8199 322.3 97.9299 320.34 101.43 320.73C104.593 321.26 107.709 322.039 110.75 323.06C110.75 323.06 113.09 321.12 112.31 315.29C111.53 309.46 109.59 309.46 104.92 311.01C100.25 312.56 97.1499 316.07 93.6499 316.07C90.1499 316.07 92.0999 311.79 94.4299 310.63C96.7599 309.47 102.59 307.13 103.76 306.74C104.93 306.35 97.5399 300.91 93.6499 300.13C89.7599 299.35 84.7299 302.13 85.0999 305.96C85.8199 314.11 74.1599 315.67 71.0499 312.17Z" fill="#0987FF"/>
<path d="M96.0703 352.19C96.1903 353.363 96.2703 354.533 96.3103 355.7" stroke="#263238" stroke-linecap="round" stroke-linejoin="round"/>
<path d="M88.2607 324.29C91.6765 331.987 94.1348 340.074 95.5807 348.37" stroke="#263238" stroke-linecap="round" stroke-linejoin="round"/>
<path d="M86.8602 321.17C84.9402 317.03 83.4902 314.5 83.4902 314.5C85.6113 313.501 87.3742 311.874 88.5402 309.84C89.4474 307.997 90.7809 306.396 92.4302 305.17" stroke="#263238" stroke-linecap="round" stroke-linejoin="round"/>
<path d="M69.8799 327.72C69.8799 327.72 83.8799 321.89 83.8799 323.05" stroke="#263238" stroke-linecap="round" stroke-linejoin="round"/>
<path d="M91.6504 320.33C91.6504 320.33 97.8704 317.22 103.31 317.22" stroke="#263238" stroke-linecap="round" stroke-linejoin="round"/>
<path d="M89.3202 329.66C86.6225 331.877 84.1475 334.352 81.9302 337.05C79.6611 339.728 77.8255 342.744 76.4902 345.99" stroke="#263238" stroke-linecap="round" stroke-linejoin="round"/>
<path d="M93.5898 331.22C93.5898 331.22 101.75 328.88 106.03 332.77" stroke="#263238" stroke-linecap="round" stroke-linejoin="round"/>
<path d="M108.381 278.7C104.151 276.2 99.4707 276.14 97.1707 273.5C94.8707 270.86 99.3806 269.5 101.791 270.5C104.201 271.5 109.791 274.37 110.841 274.99C111.891 275.61 111.171 266.48 109.211 262.99C107.251 259.5 101.881 257.54 99.2107 260.36C93.5507 266.3 84.7406 258.51 85.3406 253.87C85.9406 249.23 81.6106 244.24 72.3406 247.16C63.0706 250.08 66.5107 251.71 66.5107 251.71C66.5107 251.71 73.1106 255.76 77.3406 258.26C81.5706 260.76 88.5907 262.91 87.0807 264.73C85.5707 266.55 81.5207 265.44 78.0807 262.73C74.6407 260.02 65.0007 253.59 64.0007 256C63.0007 258.41 59.5007 265.05 59.5007 265.05C63.8086 265.71 68.0679 266.656 72.2507 267.88C77.9107 269.66 79.0707 272.77 74.6407 273.01C70.2107 273.25 62.1907 269.93 59.6407 274.16C57.0907 278.39 58.8507 289.26 58.8507 289.26C58.8507 289.26 66.9507 283.77 71.0807 283.78C75.2107 283.79 72.5706 286.09 67.9506 289.07C65.9469 290.293 64.0138 291.629 62.1607 293.07L66.3607 303.84C69.5729 303.405 72.8092 303.171 76.0507 303.14L78.7907 303.34C78.7907 303.34 78.7907 292.04 82.0307 288.69C85.2707 285.34 85.8507 293.09 86.5407 295.07C87.2307 297.05 85.1507 302.96 85.1507 302.96C85.1507 302.96 93.1507 298.57 95.7807 296.82L98.3806 295.08C98.3806 295.08 95.3806 286.87 93.3806 284.53C91.3806 282.19 88.5707 282.53 90.9107 280.53C93.2507 278.53 96.7706 279.53 98.7706 282.47C100.438 285.194 101.886 288.046 103.101 291C103.101 291 106.101 291.49 109.991 287.08C113.881 282.67 112.611 281.2 108.381 278.7ZM71.5906 291.14C68.4906 289.58 75.8707 286.48 75.8707 286.48C78.5907 286.09 74.7006 292.69 71.5906 291.14ZM76.8307 276.63C75.5107 275.97 79.4807 274.63 79.4807 274.63C85.2307 275.75 78.1607 277.29 76.8307 276.63Z" fill="#0987FF"/>
<path d="M71.5105 299.06C70.7005 299.91 69.8705 300.74 69.0205 301.54" stroke="#263238" stroke-linecap="round" stroke-linejoin="round"/>
<path d="M87.4603 274.87C83.8884 282.496 79.3913 289.653 74.0703 296.18" stroke="#263238" stroke-linecap="round" stroke-linejoin="round"/>
<path d="M88.9004 271.77C90.7704 267.6 91.7204 264.85 91.7204 264.85C93.87 265.793 96.2562 266.058 98.5604 265.61C100.545 265.086 102.625 265.041 104.63 265.48" stroke="#263238" stroke-linecap="round" stroke-linejoin="round"/>
<path d="M85.5203 270.75C86.4003 269.98 72.8203 263.24 72.8203 263.24" stroke="#263238" stroke-linecap="round" stroke-linejoin="round"/>
<path d="M92.6699 274.83C92.6699 274.83 99.0899 277.49 102.67 281.6" stroke="#263238" stroke-linecap="round" stroke-linejoin="round"/>
<path d="M84.1003 279.19C80.6592 278.606 77.1695 278.359 73.6804 278.45C70.1703 278.494 66.6886 279.085 63.3604 280.2" stroke="#263238" stroke-linecap="round" stroke-linejoin="round"/>
<path d="M85.7305 283.44C85.7305 283.44 92.8405 288.07 92.7305 293.85" stroke="#263238" stroke-linecap="round" stroke-linejoin="round"/>
<path d="M48.0007 332.55C44.6007 330.55 40.8307 330.5 39.0007 328.37C37.1707 326.24 40.7707 325.17 42.7107 325.97C44.6507 326.77 49.1407 329.09 50.0007 329.59C50.8607 330.09 50.2607 322.73 48.6807 319.96C47.1007 317.19 42.7807 315.58 40.6307 317.84C36.0807 322.62 28.9807 316.36 29.4607 312.62C29.9407 308.88 26.4607 304.87 18.9807 307.22C11.5007 309.57 14.2907 310.88 14.2907 310.88C14.2907 310.88 19.6007 314.14 23.0107 316.16C26.4207 318.18 32.0107 319.9 30.8407 321.36C29.6707 322.82 26.3707 321.94 23.6407 319.75C20.9107 317.56 13.0807 312.35 12.2707 314.29C11.4607 316.23 8.66072 321.57 8.66072 321.57C12.1269 322.105 15.5543 322.867 18.9207 323.85C23.4707 325.28 24.4007 327.78 20.8407 327.98C17.2807 328.18 10.8407 325.49 8.84072 328.9C6.84072 332.31 8.21072 341.05 8.21072 341.05C8.21072 341.05 14.7307 336.63 18.0507 336.64C21.3707 336.65 19.2507 338.5 15.5407 340.9C13.9266 341.888 12.3676 342.963 10.8707 344.12L14.2507 352.78C16.8366 352.433 19.4417 352.249 22.0507 352.23L24.2607 352.38C24.2607 352.38 24.2607 343.29 26.8607 340.59C29.4607 337.89 29.9407 344.14 30.4907 345.73C31.0407 347.32 29.3807 352.08 29.3807 352.08C29.3807 352.08 35.8407 348.54 37.9307 347.14L40.0307 345.73C40.0307 345.73 37.6107 339.13 35.9707 337.24C34.3307 335.35 32.0907 335.64 33.9707 334C35.8507 332.36 38.6807 333.22 40.2907 335.55C41.639 337.755 42.8126 340.062 43.8007 342.45C43.8007 342.45 46.2107 342.85 49.3407 339.3C52.4707 335.75 51.3907 334.57 48.0007 332.55ZM18.4007 342.55C15.9007 341.29 21.8407 338.79 21.8407 338.79C24.0007 338.5 20.8807 343.82 18.3807 342.57L18.4007 342.55ZM22.6107 330.87C21.5507 330.33 24.7507 329.27 24.7507 329.27C29.3507 330.18 23.6607 331.42 22.5907 330.89L22.6107 330.87Z" fill="#0987FF"/>
<path d="M18.3105 348.94C17.6605 349.63 17.0005 350.29 16.3105 350.94" stroke="#263238" stroke-linecap="round" stroke-linejoin="round"/>
<path d="M31.1499 329.47C28.2779 335.607 24.6606 341.367 20.3799 346.62" stroke="#263238" stroke-linecap="round" stroke-linejoin="round"/>
<path d="M32.3105 327C33.8105 323.64 34.5805 321.43 34.5805 321.43C36.3095 322.187 38.2278 322.4 40.0805 322.04C41.6759 321.618 43.3492 321.584 44.9605 321.94" stroke="#263238" stroke-linecap="round" stroke-linejoin="round"/>
<path d="M19.3701 320.11C19.3701 320.11 30.3001 325.54 29.5901 326.16" stroke="#263238" stroke-linecap="round" stroke-linejoin="round"/>
<path d="M35.3398 329.44C35.3398 329.44 40.5098 331.58 43.3398 334.89" stroke="#263238" stroke-linecap="round" stroke-linejoin="round"/>
<path d="M28.4407 333C25.6732 332.532 22.8666 332.334 20.0607 332.41C17.2372 332.441 14.4363 332.917 11.7607 333.82" stroke="#263238" stroke-linecap="round" stroke-linejoin="round"/>
<path d="M29.75 336.37C29.75 336.37 35.48 340.1 35.37 344.75" stroke="#263238" stroke-linecap="round" stroke-linejoin="round"/>
<path d="M34.1003 268.37C34.1003 268.37 29.8203 271.48 27.1003 268.37C24.3803 265.26 28.2703 259.04 24.3803 256.71C20.4903 254.38 14.2703 258.71 14.2703 258.71C14.2703 258.71 19.3303 259.87 19.3303 262.59C19.3303 265.31 16.9903 266.48 16.6103 265.31C16.2303 264.14 13.5003 258.31 9.61033 261.04C8.4878 261.794 7.52976 262.767 6.79411 263.902C6.05847 265.036 5.56051 266.308 5.33033 267.64C5.33033 267.64 14.6603 266.09 15.4403 269.64C16.2203 273.19 11.5503 269.25 7.67033 269.25C3.79033 269.25 0.280332 270.03 0.670332 272.36C0.882017 274.428 0.882017 276.512 0.670332 278.58C2.68377 276.695 5.30486 275.592 8.06033 275.47C12.3303 275.47 12.3303 278.19 8.44033 278.19C4.55033 278.19 1.44033 282.08 1.44033 282.08C1.44033 282.08 5.32033 287.91 9.99033 290.63C14.6603 293.35 16.2103 292.18 16.6003 289.85C16.9903 287.52 15.4303 281.69 18.1503 281.69C20.8703 281.69 14.2603 292.18 17.7603 292.57C21.2603 292.96 23.9803 291.79 24.7603 289.46L25.5403 287.13C25.5403 287.13 23.9803 281.3 24.3703 278.97C24.7603 276.64 25.5403 278.97 26.3103 281.69C27.0803 284.41 27.8703 291.01 29.0303 290.63C30.1903 290.25 33.7003 285.18 34.4803 283.24C35.2603 281.3 29.0003 275.76 29.0003 274.59C29.0003 273.42 33.6703 275.37 34.4503 276.53C35.2303 277.69 36.0003 279.25 36.0003 279.25C36.0003 279.25 38.7203 277.31 38.3303 271.87C37.9403 266.43 34.1003 268.37 34.1003 268.37Z" fill="#0987FF"/>
<path d="M12.3203 282.47C15.0103 278.72 18.9903 273.62 22.4403 271.09" stroke="#263238" stroke-linecap="round" stroke-linejoin="round"/>
<path d="M9.2207 287C9.2207 287 9.9007 285.92 11.0207 284.3" stroke="#263238" stroke-linecap="round" stroke-linejoin="round"/>
<path d="M24.3799 271.87C24.3799 271.87 29.0399 277.7 30.2099 283.92" stroke="#263238" stroke-linecap="round" stroke-linejoin="round"/>
<path d="M19.7207 275.76C19.7207 275.76 20.8807 274.98 20.8807 282.76" stroke="#263238" stroke-linecap="round" stroke-linejoin="round"/>
<path d="M22.4404 268.37C22.4404 268.37 24.7704 266.04 23.2104 261.76" stroke="#263238" stroke-linecap="round" stroke-linejoin="round"/>
<path d="M19.3299 272.26L17.3799 269.15" stroke="#263238" stroke-linecap="round" stroke-linejoin="round"/>
<path d="M15.83 275.76C15.83 275.76 10 271.87 6.5 271.87" stroke="#263238" stroke-linecap="round" stroke-linejoin="round"/>
<path d="M73.3508 355.45H43.3008V398.7H73.3508V355.45Z" fill="#263238" stroke="#263238" stroke-width="2" stroke-linecap="round" stroke-linejoin="round"/>
<path d="M433.44 14.77H235.73V394.43H433.44V14.77Z" stroke="#808080" stroke-linecap="round" stroke-linejoin="round"/>
<path d="M404 96.9299H369.54V249H404V96.9299Z" stroke="#808080" stroke-linecap="round" stroke-linejoin="round"/>
<path d="M423 207H412.54V249H423V207Z" stroke="#808080" stroke-linecap="round" stroke-linejoin="round"/>
<path d="M441 394.43H3.91016" stroke="#263238" stroke-linecap="round" stroke-linejoin="round"/>
<path d="M457.96 394.43H449" stroke="#263238" stroke-linecap="round" stroke-linejoin="round"/>
<path d="M285.5 434C321.675 434 351 428.627 351 422C351 415.373 321.675 410 285.5 410C249.325 410 220 415.373 220 422C220 428.627 249.325 434 285.5 434Z" fill="#263238" stroke="#263238" stroke-width="2" stroke-linecap="round" stroke-linejoin="round"/>
<path d="M274.19 93.4199C272.507 92.9448 270.993 92.002 269.825 90.7009C268.657 89.3999 267.881 87.794 267.59 86.0699C266.22 79.7999 277.89 77.9999 282.84 74.7099C287.79 71.4199 298.28 71.0199 305.84 72.3299C313.4 73.6399 323.4 76.9999 325.88 82.3999C328.36 87.7999 333.05 98.7399 332.32 105.54C331.922 110.324 330.464 114.96 328.05 119.11C326.49 121.75 327.5 124.11 327.87 125.47C328.24 126.83 327.46 126.96 325.37 129.79C323.28 132.62 322.92 133.61 316.11 132.88C309.3 132.15 306.85 128.82 305.11 126.33C303.37 123.84 299.58 113.75 296.51 109.08C293.44 104.41 292.75 98.9799 287.78 95.3899C282.81 91.7999 280 91.4899 274.19 93.4199Z" fill="#EBEBEB" stroke="#B0B0B0" stroke-linecap="round" stroke-linejoin="round"/>
<path d="M243.79 405.14C243.79 405.14 242.55 411.02 240.07 413.81C237.59 416.6 232.329 421.24 234.499 425.26C236.669 429.28 248.739 433.62 255.859 431.14C262.979 428.66 262.36 422.14 266.07 419.07C269.78 416 271.07 413.81 269.48 408.23C267.89 402.65 259.569 397.09 253.999 395.85C248.429 394.61 243.79 405.14 243.79 405.14Z" fill="white" stroke="#263238" stroke-linecap="round" stroke-linejoin="round"/>
<path d="M267.93 416.59C266.38 418.14 263.29 419.69 261.74 421.86C260.19 424.03 258.95 428.67 255.55 428.67C252.15 428.67 247.81 425.88 245.64 424.02C243.47 422.16 240.69 424.02 238.83 425.26C237.894 425.872 236.918 426.424 235.91 426.91C239.91 430.34 249.71 433.28 255.86 431.14C262.98 428.67 262.36 422.14 266.07 419.07C267.94 417.51 269.18 416.19 269.76 414.55C269.08 415.36 268.41 416.11 267.93 416.59Z" fill="#0987FF" stroke="#263238" stroke-linecap="round" stroke-linejoin="round"/>
<path d="M321.19 397.5C321.19 397.5 322.47 403.61 325.04 406.5C327.61 409.39 333.04 414.22 330.83 418.4C328.62 422.58 316.04 427.08 308.65 424.5C301.26 421.92 301.9 415.18 298 412C294.1 408.82 292.86 406.53 294.47 400.75C296.08 394.97 304.75 389.18 310.54 387.89C316.33 386.6 321.19 397.5 321.19 397.5Z" fill="white" stroke="#263238" stroke-linecap="round" stroke-linejoin="round"/>
<path d="M296.11 409.4C297.72 411 300.93 412.61 302.54 414.86C304.15 417.11 305.44 421.93 308.97 421.93C312.5 421.93 316.97 419.04 319.26 417.11C321.55 415.18 324.4 417.11 326.33 418.4C327.293 419.033 328.295 419.604 329.33 420.11C325.21 423.67 315 426.72 308.62 424.5C301.23 421.93 301.87 415.18 298.01 411.97C296.07 410.35 294.78 408.97 294.19 407.28C294.93 408.11 295.61 408.9 296.11 409.4Z" fill="#0987FF" stroke="#263238" stroke-linecap="round" stroke-linejoin="round"/>
<path d="M243.07 233.89C243.07 233.89 241.47 257.03 241.47 267C241.47 276.97 239.86 294 239.86 296.25C239.86 298.5 236.97 340.93 237.29 354.75C237.61 368.57 246.61 392.36 246.61 392.36C246.61 392.36 240.5 392.68 240.82 396.22C241.14 399.76 244 407.47 244 407.47C244 407.47 247.86 406.18 255.89 406.18C263.92 406.18 272 412 272 412C272 412 271.68 408.14 273.61 401.39C275.54 394.64 272 393 272.33 387.22C272.66 381.44 273.33 349.93 274.9 341.89C276.47 333.85 284.22 295.28 284.22 295.28C284.22 295.28 293.54 335.79 295.79 339.64C297.131 341.976 297.589 344.715 297.08 347.36C297.08 347.36 295.79 349.61 293.22 357.64C290.65 365.67 291.29 372.75 291.93 378.86C292.321 381.738 292.538 384.636 292.58 387.54C292.58 388.82 290.97 389.47 290.65 392.36C290.33 395.25 293.86 402.65 293.86 402.65C293.86 402.65 302.86 399.75 309.29 399.75C313.87 399.904 318.409 400.661 322.79 402C323.724 399.876 324.165 397.568 324.08 395.25C323.76 392.04 323.08 386.89 323.08 383.04C323.08 379.19 329.83 346.04 329.83 338.36C329.83 330.68 333.69 294.96 333.69 293.03C333.69 291.1 335.62 260.57 335.62 250.92C335.541 244.153 335.114 237.394 334.34 230.67L244.65 224.24L243.07 233.89Z" fill="#666666" stroke="#263238" stroke-linecap="round" stroke-linejoin="round"/>
<path d="M271.04 284.68L284.22 295.28L272.65 290.46" stroke="#263238" stroke-linecap="round" stroke-linejoin="round"/>
<path d="M280 260.89C280 260.89 279 276.96 279 278.57" stroke="#263238" stroke-linecap="round" stroke-linejoin="round"/>
<path d="M284.22 260.57L283.9 271.82" stroke="#263238" stroke-linecap="round" stroke-linejoin="round"/>
<path d="M259.15 258L257.86 270.85" stroke="#263238" stroke-linecap="round" stroke-linejoin="round"/>
<path d="M261.72 258L262.36 270.85" stroke="#263238" stroke-linecap="round" stroke-linejoin="round"/>
<path d="M311.22 258.64L311.86 273.75" stroke="#263238" stroke-linecap="round" stroke-linejoin="round"/>
<path d="M314.11 258.96L317.65 270.53" stroke="#263238" stroke-linecap="round" stroke-linejoin="round"/>
<path d="M271.36 389.15C271.36 389.15 268.15 380.47 266.86 375C265.57 369.53 263.65 357 263.65 357" stroke="#263238" stroke-linecap="round" stroke-linejoin="round"/>
<path d="M297.08 342.54C297.08 342.54 301.58 357 306.72 360.54" stroke="#263238" stroke-linecap="round" stroke-linejoin="round"/>
<path d="M247.58 404.25C247.58 404.25 263.33 397.5 266.86 399.11C270.39 400.72 267.18 402.65 263.33 402" stroke="#263238" stroke-linecap="round" stroke-linejoin="round"/>
<path d="M319.58 397.82C319.58 397.82 314.76 398.15 306.08 396.22C297.4 394.29 292.26 395.22 294.83 396.22C296.48 396.824 298.215 397.162 299.97 397.22" stroke="#263238" stroke-linecap="round" stroke-linejoin="round"/>
<path d="M268.31 135.8C268.31 135.8 249.14 133.28 242.54 139.87C236.826 145.562 233.524 153.237 233.32 161.3C233.32 167.64 229.59 189.79 226.04 201.21C222.49 212.63 223.5 223.27 223.75 228.34C224.121 232.608 224.789 236.845 225.75 241.02V243.56C225.75 243.56 220.68 250.66 220.43 253.19C220.18 255.72 223.72 262.32 223.98 263.59C224.24 264.86 225.25 265.11 228.04 266.59C230.83 268.07 234.12 266.85 235.9 266.85C237.68 266.85 237.9 265.33 240.21 264.06C242.52 262.79 245.03 258.99 245.03 255.94C245.03 252.89 242.49 247.57 240.97 245.29C240.117 244.037 239.443 242.67 238.97 241.23L241.51 235.91C241.51 235.91 247.59 253.15 265.6 258.23C283.61 263.31 313.27 257.23 320.6 254.93C327.93 252.63 331.25 248.59 331.25 248.59L336.58 244.02C336.935 244.84 337.074 245.737 336.985 246.626C336.896 247.515 336.581 248.367 336.07 249.1C334.29 251.63 332.01 253.41 332.01 256.45C332.126 259.36 332.552 262.25 333.28 265.07C333.79 267.35 336.28 267.61 336.83 265.58C337.38 263.55 339.11 268.58 342.91 269.64C346.71 270.7 349.51 267.35 352.3 263.04C355.09 258.73 356.1 256.96 354.83 253.15C353.56 249.34 350.78 247.07 351.28 243.52C351.78 239.97 359.65 220.19 360.41 201.67C361.17 183.15 351.79 149.67 350.02 144.61C348.25 139.55 340.63 130.41 333.02 130.41C325.41 130.41 318.02 132.95 314.51 132.95C312.217 132.935 309.929 132.764 307.66 132.44L271.66 135.99L268.31 135.8Z" fill="#0987FF" stroke="#263238" stroke-linecap="round" stroke-linejoin="round"/>
<path d="M241.51 236C241.51 236 246.07 223.06 249.37 209.37C252.67 195.68 252.66 185.53 252.66 176.37C252.66 167.21 255.96 154.56 255.96 154.56" stroke="#263238" stroke-linecap="round" stroke-linejoin="round"/>
<path d="M241 245.33C240.16 244.112 239.487 242.787 239 241.39C234.11 238.83 228.55 241.16 225.77 242.7V243.56C225.77 243.56 220.7 250.66 220.45 253.19C220.2 255.72 223.74 262.32 224 263.59C224.26 264.86 225.27 265.11 228.06 266.59C230.85 268.07 234.14 266.85 235.92 266.85C237.7 266.85 237.92 265.33 240.23 264.06C242.54 262.79 245.05 258.99 245.05 255.94C245.05 252.89 242.52 247.61 241 245.33Z" fill="white" stroke="#263238" stroke-linecap="round" stroke-linejoin="round"/>
<path d="M354.86 253.19C354.07 250.81 352.68 249.02 351.86 247.14C349.927 245.984 347.722 245.36 345.47 245.33C339.38 245.33 337.1 248.12 337.1 248.12L336.58 248.27C336.44 248.572 336.276 248.863 336.09 249.14C334.31 251.67 332.03 253.45 332.03 256.49C332.147 259.4 332.573 262.29 333.3 265.11C333.81 267.39 336.3 267.65 336.85 265.62C337.4 263.59 339.13 268.62 342.93 269.68C346.73 270.74 349.53 267.39 352.32 263.08C355.11 258.77 356.13 257 354.86 253.19Z" fill="white" stroke="#263238" stroke-linecap="round" stroke-linejoin="round"/>
<path d="M336.61 244.06C336.61 244.06 337.37 229.86 333.31 217.44C329.25 205.02 326.21 198.44 327.22 188.02C328.23 177.6 332.29 149.22 332.8 145.41" stroke="#263238" stroke-linecap="round" stroke-linejoin="round"/>
<path d="M243.28 230.62C243.28 230.62 250.89 245.62 267.88 251.93C284.87 258.24 304.88 255.73 314.29 252.18C323.7 248.63 333.29 240.77 334.58 238.48C335.273 237.264 335.865 235.993 336.35 234.68" stroke="#263238" stroke-linecap="round" stroke-linejoin="round"/>
<path d="M233.14 167.17C233.14 167.17 233.68 178.02 233.68 185.62" stroke="#263238" stroke-linecap="round" stroke-linejoin="round"/>
<path d="M330.44 162.93C330.44 162.93 325.56 178.93 323.39 184.09" stroke="#263238" stroke-linecap="round" stroke-linejoin="round"/>
<path d="M351.06 147.74C351.06 147.74 355.4 160.49 353.5 169.74C351.6 178.99 347.5 191.45 347.5 193.62" stroke="#263238" stroke-linecap="round" stroke-linejoin="round"/>
<path d="M279.29 158.85L291.46 181.93L304.91 155.81C304.91 155.81 300.59 148.71 293.24 147.44C285.89 146.17 277 152.51 279.29 158.85Z" fill="white" stroke="#263238" stroke-linecap="round" stroke-linejoin="round"/>
<path d="M290.45 157.59C288.392 157.701 286.392 158.308 284.62 159.36C281.57 161.14 275.74 165.45 275.74 165.45C275.74 165.45 274.47 153.78 274.74 147.95C275.01 142.12 288.18 131.21 296.55 128.17C304.92 125.13 310.75 128.17 312.27 132.99C313.79 137.81 313.54 149.73 311 155.56C309.233 159.467 307.111 163.202 304.66 166.72C304.66 166.72 296.8 160.63 295.28 159.36C293.76 158.09 290.45 157.59 290.45 157.59Z" fill="white" stroke="#263238" stroke-linecap="round" stroke-linejoin="round"/>
<path d="M277.48 86.0699C277.48 86.0699 270.55 96.0699 270.35 100.18C270.15 104.29 269.43 111.06 267.96 113.34C266.49 115.62 263.54 120.42 264.28 124.89C265.02 129.36 267.89 138.94 268.91 140.75C269.93 142.56 278.64 145.46 278.64 145.46C278.64 145.46 287.72 154 289 155.84C290.28 157.68 296 156.35 302.84 147.33C309.68 138.31 308.91 129.45 308.91 129.45C308.91 129.45 313.39 130.91 315.25 127.21C317.11 123.51 319.09 114.21 316.78 112.99C314.47 111.77 308.17 115.99 307.61 116.63C307.05 117.27 305.93 114 303 110C300.07 106 296.26 104.64 294.42 99.0799C292.58 93.5199 290.42 88.8899 287.01 86.3299C283.6 83.7699 280.18 83.6799 277.48 86.0699Z" fill="white" stroke="#263238" stroke-linecap="round" stroke-linejoin="round"/>
<path d="M315.79 110.49C315.79 110.49 313.85 110.67 311.25 114.21C306.88 120.16 305.58 118.21 305.48 114.21C305.42 112.15 301.35 111.73 298.87 108.84C294.068 102.946 289.658 96.7425 285.67 90.2698C282.37 84.4998 277.48 86.0698 277.48 86.0698C277.48 86.0698 268.75 80.7798 286.48 78.3098" fill="#EBEBEB"/>
<path d="M315.79 110.49C315.79 110.49 313.85 110.67 311.25 114.21C306.88 120.16 305.58 118.21 305.48 114.21C305.42 112.15 301.35 111.73 298.87 108.84C294.068 102.946 289.658 96.7425 285.67 90.2698C282.37 84.4998 277.48 86.0698 277.48 86.0698C277.48 86.0698 268.75 80.7798 286.48 78.3098" stroke="#B0B0B0" stroke-linecap="round" stroke-linejoin="round"/>
<path d="M278.21 104.2C278.21 104.2 279.48 108.2 278.9 109.2C278.32 110.2 273.21 121.27 273.21 121.27C273.21 121.27 273.81 124.75 277.07 123.88C280.33 123.01 281.15 124.56 282.59 124.72C284.03 124.88 284.86 123.99 284.11 121.96" stroke="#263238" stroke-linecap="round" stroke-linejoin="round"/>
<path d="M270.76 125.83C271.708 126.803 272.888 127.519 274.19 127.91C276.1 128.36 280.41 129.07 281.86 129.22C283.31 129.37 285.49 127.22 285.49 127.22" stroke="#263238" stroke-linecap="round" stroke-linejoin="round"/>
<path d="M272.68 130.67C272.68 130.67 276.78 133.31 281.06 132.06" stroke="#263238" stroke-linecap="round" stroke-linejoin="round"/>
<path d="M287.39 109.58L293.61 112.93" stroke="#263238" stroke-linecap="round" stroke-linejoin="round"/>
<path d="M276.81 108.19L272.36 108.69" stroke="#263238" stroke-linecap="round" stroke-linejoin="round"/>
<path d="M277.67 102.43C276.795 101.848 275.793 101.486 274.749 101.373C273.705 101.259 272.649 101.399 271.67 101.78" stroke="#B0B0B0" stroke-width="2" stroke-linecap="round" stroke-linejoin="round"/>
<path d="M285.28 104.23C285.28 104.23 289.45 101.75 293.8 106.61" stroke="#B0B0B0" stroke-width="2" stroke-linecap="round" stroke-linejoin="round"/>
<path d="M284.94 98.3398C284.94 98.3398 281.44 101.34 282.49 102.95" stroke="#263238" stroke-linecap="round" stroke-linejoin="round"/>
<path d="M287 113.19C287 113.19 286.47 115.82 290.92 117.52" stroke="#263238" stroke-linecap="round" stroke-linejoin="round"/>
<path d="M276.49 111.09C275.185 112.174 273.69 113.004 272.08 113.54" stroke="#263238" stroke-linecap="round" stroke-linejoin="round"/>
<path d="M274.63 109.74C274.59 110.091 274.413 110.413 274.138 110.635C273.863 110.858 273.512 110.964 273.16 110.93C272.824 110.873 272.522 110.69 272.316 110.419C272.11 110.147 272.016 109.807 272.051 109.469C272.087 109.13 272.25 108.817 272.508 108.594C272.767 108.372 273.1 108.256 273.44 108.27C273.792 108.31 274.113 108.487 274.336 108.762C274.558 109.037 274.664 109.388 274.63 109.74Z" fill="#263238"/>
<path d="M289.7 111.9C289.681 112.074 289.628 112.242 289.544 112.396C289.459 112.549 289.346 112.685 289.209 112.794C289.073 112.904 288.916 112.985 288.748 113.034C288.58 113.083 288.404 113.099 288.23 113.08C288.056 113.061 287.887 113.008 287.734 112.923C287.58 112.839 287.445 112.726 287.335 112.589C287.226 112.453 287.144 112.296 287.095 112.128C287.046 111.96 287.031 111.784 287.05 111.61C287.067 111.436 287.119 111.268 287.202 111.114C287.285 110.96 287.398 110.825 287.534 110.715C287.669 110.605 287.826 110.524 287.993 110.475C288.161 110.426 288.336 110.41 288.51 110.43C288.862 110.468 289.185 110.644 289.409 110.919C289.632 111.195 289.736 111.547 289.7 111.9Z" fill="#263238"/>
<path d="M308.9 129.45L305.39 128.15C304.637 129.766 303.704 131.292 302.61 132.7C301.616 133.974 300.704 135.31 299.88 136.7" stroke="#263238" stroke-linecap="round" stroke-linejoin="round"/>
<path d="M280.13 144.81C280.906 145.256 281.785 145.49 282.68 145.49C283.575 145.49 284.454 145.256 285.23 144.81C287.347 143.684 289.355 142.365 291.23 140.87" stroke="#263238" stroke-linecap="round" stroke-linejoin="round"/>
<path d="M339.62 279.72H232.86V286.75H339.62V279.72Z" fill="#8C8C8C" stroke="#263238" stroke-linecap="round" stroke-linejoin="round"/>
<path d="M232.64 428.23C232.207 428.23 231.778 428.144 231.378 427.978C230.978 427.813 230.615 427.569 230.31 427.263C230.004 426.956 229.762 426.592 229.597 426.192C229.432 425.792 229.348 425.363 229.35 424.93V256.66C229.348 256.227 229.432 255.798 229.597 255.398C229.762 254.997 230.004 254.634 230.31 254.327C230.615 254.02 230.978 253.777 231.378 253.611C231.778 253.445 232.207 253.36 232.64 253.36V253.36C233.073 253.36 233.502 253.445 233.902 253.611C234.303 253.777 234.667 254.02 234.973 254.326C235.28 254.633 235.523 254.997 235.688 255.397C235.854 255.797 235.94 256.227 235.94 256.66V424.93C235.94 425.363 235.854 425.792 235.688 426.193C235.523 426.593 235.28 426.957 234.973 427.263C234.667 427.57 234.303 427.813 233.902 427.979C233.502 428.145 233.073 428.23 232.64 428.23V428.23Z" fill="#8C8C8C" stroke="#263238" stroke-linecap="round" stroke-linejoin="round"/>
<path d="M341.6 428.23C341.167 428.23 340.738 428.144 340.338 427.978C339.938 427.813 339.575 427.569 339.27 427.263C338.964 426.956 338.722 426.592 338.557 426.192C338.392 425.792 338.308 425.363 338.31 424.93V256.66C338.308 256.227 338.392 255.798 338.557 255.398C338.722 254.997 338.964 254.634 339.27 254.327C339.575 254.02 339.938 253.777 340.338 253.611C340.738 253.445 341.167 253.36 341.6 253.36V253.36C342.033 253.36 342.462 253.445 342.862 253.611C343.263 253.777 343.627 254.02 343.933 254.326C344.239 254.633 344.483 254.997 344.648 255.397C344.814 255.797 344.9 256.227 344.9 256.66V424.93C344.9 425.363 344.814 425.792 344.648 426.193C344.483 426.593 344.239 426.957 343.933 427.263C343.627 427.57 343.263 427.813 342.862 427.979C342.462 428.145 342.033 428.23 341.6 428.23V428.23Z" fill="#8C8C8C" stroke="#263238" stroke-linecap="round" stroke-linejoin="round"/>
<path d="M155.5 434C185.047 434 209 428.627 209 422C209 415.373 185.047 410 155.5 410C125.953 410 102 415.373 102 422C102 428.627 125.953 434 155.5 434Z" fill="#263238" stroke="#263238" stroke-width="2" stroke-linecap="round" stroke-linejoin="round"/>
<path d="M169.25 401.07C169.25 401.07 179.73 408.62 182.58 410.38C185.43 412.14 190.06 411.98 187.87 415.78C185.68 419.58 174.51 419 168 419.23C161.49 419.46 154.45 416.91 147.47 416.68C140.49 416.45 146.58 404.16 146.58 404.16C146.58 404.16 162.15 397.13 169.25 401.07Z" fill="white" stroke="#263238" stroke-linecap="round" stroke-linejoin="round"/>
<path d="M187.87 415.78C188.2 415.274 188.392 414.692 188.43 414.09C179.01 417.66 163.59 413.7 159.76 413.83L144.32 414.35C144.479 415.053 144.886 415.676 145.466 416.104C146.047 416.532 146.762 416.736 147.48 416.68C154.48 416.91 161.48 419.45 168.01 419.23C174.54 419.01 185.67 419.57 187.87 415.78Z" fill="white" stroke="#263238" stroke-linecap="round" stroke-linejoin="round"/>
<path d="M186 205.83C186 205.83 188.08 258.26 185.39 275.08C182.7 291.9 178.64 322.7 175.24 332.08C171.84 341.46 165.13 376.56 165.34 382.59C165.55 388.62 165.26 394.21 165.26 394.21C165.26 394.21 168.05 394.11 168.56 395.49C168.955 397.315 169.172 399.174 169.21 401.04C169.21 401.04 160.91 402.72 158.62 403.72C156.33 404.72 144.83 407 144.83 407C144.83 407 144.22 402.84 144.15 400.52C144.08 398.2 146.15 391.16 146.15 391.16C146.15 391.16 143.43 365.7 142.43 349.93C141.43 334.16 145.84 299.64 145.66 294.07C145.48 288.5 151 204.23 151 204.23L183.47 202.67L186 205.83Z" fill="#0987FF" stroke="#263238" stroke-linecap="round" stroke-linejoin="round"/>
<path d="M141.52 405.26C141.52 405.26 157.63 414.48 160.47 416.26C163.31 418.04 166.6 418.84 165.77 421.65C164.94 424.46 157.6 427.51 146 427.9C134.4 428.29 123.63 425.9 119.36 423.22C115.09 420.54 119.45 412.07 119.45 412.07C119.45 412.07 131.6 400.49 141.52 405.26Z" fill="white" stroke="#263238" stroke-linecap="round" stroke-linejoin="round"/>
<path d="M165.77 421.63C165.913 421.18 165.934 420.701 165.83 420.24C162.42 421.62 155.06 423.88 144.41 423.39C135.34 422.881 126.332 421.576 117.49 419.49C117.459 420.217 117.614 420.94 117.941 421.589C118.269 422.239 118.757 422.794 119.36 423.2C123.63 425.85 134.36 428.27 146 427.88C157.64 427.49 164.93 424.45 165.77 421.63Z" fill="white" stroke="#263238" stroke-linecap="round" stroke-linejoin="round"/>
<path d="M155.81 278.41C155.81 278.41 150.7 333.41 146.53 347.48C142.36 361.55 139.1 388.62 139.24 392.8C139.322 395.303 139.719 397.786 140.42 400.19C141.269 400.74 141.94 401.525 142.35 402.45C142.725 403.963 142.933 405.512 142.97 407.07C142.97 407.07 140.76 410.4 132.5 413.47C127.613 415.3 122.486 416.411 117.28 416.77C117.28 416.77 117.86 392.59 115.44 375.95C113.02 359.31 114.12 336.95 115.74 329.95C117.36 322.95 120.65 310.27 119.45 302.41C118.25 294.55 116.14 286.73 116.14 286.73L112.37 271.52L155.81 278.41Z" fill="#0987FF" stroke="#263238" stroke-linecap="round" stroke-linejoin="round"/>
<path d="M158.68 102.07C158.68 102.07 148.26 105.52 144.96 108.72C141.66 111.92 151.06 206.72 151.06 206.72C151.06 206.72 166.33 209.3 172.21 209.1C178.09 208.9 186 205.83 186 205.83C186 205.83 183.89 152.63 181 141.27C179.157 134.081 176.849 127.02 174.09 120.13L161.79 104.44L158.68 102.07Z" fill="white" stroke="#263238" stroke-linecap="round" stroke-linejoin="round"/>
<path d="M171.48 117.82L175.37 128.2L168.63 124.82C168.63 124.82 170.89 118.72 171.48 117.82Z" stroke="#263238" stroke-linecap="round" stroke-linejoin="round"/>
<path d="M168.07 128L171.48 117.86L168.27 111.7C168.27 111.7 166 124.78 168.07 128Z" stroke="#263238" stroke-linecap="round" stroke-linejoin="round"/>
<path d="M203 75.2301C203.64 72.2301 202 59.8101 202 59.8101C202 59.8101 184.17 67.4801 172.26 70.5601C160.35 73.6401 150.7 78.7801 150.76 82.5601C150.76 82.5601 153.39 91.2301 153.97 93.9201C154.55 96.6101 151.38 102.17 151.38 102.17C151.38 102.17 158.68 111.28 162.94 115.17L167.31 133.75L168.95 113.8C170.711 111.491 172.35 109.091 173.86 106.61C173.86 106.61 180.29 109.07 182.25 108.61C184.21 108.15 194.25 96.5401 194.25 96.5401C194.25 96.5401 201.16 95.3101 201.83 93.6301C202.5 91.9501 200.15 79.8901 200.15 79.8901C201.56 78.6695 202.556 77.0411 203 75.2301V75.2301Z" fill="white" stroke="#263238" stroke-linecap="round" stroke-linejoin="round"/>
<path d="M173.81 106.62L168.01 103.17L170.03 111.23L173.81 106.62Z" fill="#263238" stroke="#263238" stroke-linecap="round" stroke-linejoin="round"/>
<path d="M193.83 81.68C193.45 82.94 192.71 83.83 192.18 83.68C191.65 83.53 191.53 82.37 191.91 81.11C192.29 79.85 193.03 78.96 193.56 79.11C194.09 79.26 194.21 80.42 193.83 81.68Z" fill="#263238"/>
<path d="M190.44 76.6402C190.44 76.6402 194.03 73.0502 197.08 76.4902" stroke="#263238" stroke-linecap="round" stroke-linejoin="round"/>
<path d="M189.07 97.7001C189.07 97.7001 185.13 97.2601 183.07 92.5701" stroke="#263238" stroke-linecap="round" stroke-linejoin="round"/>
<path d="M163.29 79.1401C163.29 79.1401 173.29 75.7001 186.62 70.7901C199.95 65.8801 208.08 62.0801 206.92 56.6901C205.76 51.3001 197.44 43.6001 184.92 41.1701C172.4 38.7401 158.92 41.8901 153.29 46.6901C147.66 51.4901 144.4 57.8301 145.56 63.2201C146.72 68.6101 148 82.1601 151 85.3601C154 88.5601 163.29 79.1401 163.29 79.1401Z" fill="#263238" stroke="#263238" stroke-linecap="round" stroke-linejoin="round"/>
<path d="M166.51 81.0002C166.51 81.0002 164.23 72.7702 160.31 73.6202C156.39 74.4702 154.5 83.6202 157.47 87.8202C160.44 92.0202 164.91 89.0402 164.91 89.0402" fill="white"/>
<path d="M166.51 81.0002C166.51 81.0002 164.23 72.7702 160.31 73.6202C156.39 74.4702 154.5 83.6202 157.47 87.8202C160.44 92.0202 164.91 89.0402 164.91 89.0402" stroke="#263238" stroke-linecap="round" stroke-linejoin="round"/>
<path d="M146.14 66.16C146.14 66.16 137.73 55.66 132.22 55.05C126.71 54.44 120.58 62.94 119.13 71.71C117.68 80.48 126.13 83.8 131.97 82.54C137.81 81.28 146.67 72.2 146.65 70.92C146.63 69.64 146.14 66.16 146.14 66.16Z" fill="#263238" stroke="#263238" stroke-linecap="round" stroke-linejoin="round"/>
<path d="M165.5 116.86L158.1 129.81C158.1 129.81 151.8 114.22 150.43 110.75C149.446 107.843 148.756 104.845 148.37 101.8L151.57 99.9302L165.5 116.86Z" fill="white" stroke="#263238" stroke-linecap="round" stroke-linejoin="round"/>
<path d="M201.71 214.89C201.71 214.89 197.66 216.68 195.2 216.76C192.74 216.84 194.2 210.76 195.12 206.35C196.04 201.94 200 211.66 201.71 214.89Z" fill="white" stroke="#263238" stroke-linecap="round" stroke-linejoin="round"/>
<path d="M198.38 205.41L197.1 224.41L189.1 213.72L188.24 212.65L187.24 198.43C187.24 198.43 196.57 200.54 198.38 205.41Z" fill="white" stroke="#263238" stroke-linecap="round" stroke-linejoin="round"/>
<path d="M185.88 184.46C185.88 184.46 194.01 189.66 197.57 197.77C199.818 203.231 201.214 209.005 201.71 214.89C201.71 214.89 197.59 206.54 193.95 204.19C191.728 202.786 189.283 201.772 186.72 201.19L185.88 184.46Z" fill="white" stroke="#263238" stroke-linecap="round" stroke-linejoin="round"/>
<path d="M148.37 101.8C148.37 101.8 154 121.2 158.73 131C163.46 140.8 165.89 171.17 167.73 177.15C167.73 177.15 166.78 231.54 167.33 247.79C167.88 264.04 168.85 306.28 168.85 306.28C168.85 306.28 155.48 309.52 132.1 305.2C108.72 300.88 93.1504 294 93.1504 294C93.1504 294 109.3 194.49 109.72 193.08C110.14 191.67 117.64 166.33 118.47 149.58C119.3 132.83 119.04 125.4 126.19 116.79C133.34 108.18 148.37 101.8 148.37 101.8Z" fill="white" stroke="#263238" stroke-linecap="round" stroke-linejoin="round"/>
<path d="M128.44 286.52C127.05 286.21 125.65 285.84 124.25 285.43" stroke="#263238" stroke-linecap="round" stroke-linejoin="round"/>
<path d="M119.2 280.38L122 246.92C147.23 252.43 163.27 249.21 163.27 249.21L163.73 286.8C153.475 288.861 142.931 289.043 132.61 287.34" stroke="#263238" stroke-linecap="round" stroke-linejoin="round"/>
<path d="M163.22 253.33C163.22 253.33 147.22 256.56 121.95 251.04" stroke="#263238" stroke-linecap="round" stroke-linejoin="round"/>
<path d="M189.23 210.66C189.23 210.66 197.23 220.8 198.03 227.66C198.83 234.52 195.33 253.24 195.33 253.24L189.23 210.66Z" fill="white" stroke="#263238" stroke-linecap="round" stroke-linejoin="round"/>
<path d="M168.23 117.86C168.23 117.86 179.46 139.62 181.4 155.81C183.34 172 184.19 224.48 183.79 240.29C183.39 256.1 182.68 303.52 182.68 303.52C182.68 303.52 198.29 297.88 199.06 293.2C199.83 288.52 195.26 249.66 193.51 239.03C191.76 228.4 187.87 196.03 187.67 190.03C187.47 184.03 190.98 164.37 187.4 154.73C185.131 148.435 183.359 141.972 182.1 135.4C182.1 135.4 182.94 129.23 178.1 122.4C173.26 115.57 167.14 113.25 168.23 117.86Z" fill="white" stroke="#263238" stroke-linecap="round" stroke-linejoin="round"/>
<path d="M178.19 131C178.19 131 181.19 145.66 182.26 152.9" stroke="#263238" stroke-width="2" stroke-linecap="round" stroke-linejoin="round"/>
<path d="M186.77 181.82C186.77 181.82 183.84 181.29 182.98 180.49C182.12 179.69 178.44 169 178.23 163C178.02 157 180.13 151.29 182.23 151.22C184.33 151.15 186.23 158.36 185.66 166.49C185.37 170.72 179.21 178.56 175.32 180.35C171.43 182.14 170.75 180.51 170.75 180.51" stroke="#263238" stroke-width="2" stroke-linecap="round" stroke-linejoin="round"/>
<path d="M171.12 180.06C171.13 180.388 171.042 180.711 170.868 180.989C170.695 181.267 170.442 181.487 170.144 181.622C169.845 181.757 169.513 181.8 169.189 181.747C168.866 181.693 168.566 181.545 168.326 181.321C168.087 181.097 167.919 180.807 167.845 180.488C167.77 180.169 167.791 179.834 167.906 179.527C168.021 179.22 168.224 178.954 168.49 178.762C168.756 178.571 169.072 178.462 169.4 178.45C169.841 178.437 170.27 178.598 170.592 178.9C170.915 179.202 171.104 179.619 171.12 180.06V180.06Z" fill="#263238"/>
<path d="M189.89 181.71C189.904 182.041 189.819 182.368 189.646 182.651C189.474 182.933 189.221 183.158 188.92 183.296C188.619 183.435 188.284 183.481 187.958 183.428C187.631 183.376 187.327 183.228 187.084 183.002C186.842 182.777 186.672 182.484 186.596 182.162C186.52 181.84 186.542 181.502 186.658 181.192C186.775 180.882 186.981 180.614 187.25 180.421C187.519 180.229 187.839 180.12 188.17 180.11C188.61 180.097 189.037 180.257 189.359 180.557C189.681 180.856 189.872 181.271 189.89 181.71V181.71Z" fill="#263238"/>
<path d="M175.31 133.72C175.31 133.72 175.52 133.01 177.62 133.41C179.72 133.81 184.76 138.28 184.76 138.28C184.76 138.28 183.91 126.92 180.03 122.17C176.15 117.42 169.27 113 169.27 113C168.758 113.357 168.408 113.903 168.297 114.518C168.186 115.133 168.324 115.767 168.68 116.28C169.91 118.34 175.31 133.72 175.31 133.72Z" fill="white" stroke="#263238" stroke-linecap="round" stroke-linejoin="round"/>
<path d="M146.83 119.75C146.83 119.75 152.5 152 153.05 168.4" stroke="#263238" stroke-width="2" stroke-linecap="round" stroke-linejoin="round"/>
<path d="M158.22 167.4C158.187 166.371 157.85 165.374 157.25 164.537C156.651 163.699 155.816 163.059 154.852 162.696C153.888 162.334 152.838 162.266 151.835 162.501C150.833 162.736 149.922 163.264 149.22 164.017C148.517 164.77 148.054 165.715 147.889 166.731C147.724 167.748 147.865 168.79 148.294 169.727C148.722 170.664 149.419 171.452 150.296 171.992C151.173 172.532 152.191 172.799 153.22 172.76C154.592 172.708 155.888 172.115 156.825 171.111C157.761 170.107 158.263 168.773 158.22 167.4V167.4Z" fill="white" stroke="#263238" stroke-linecap="round" stroke-linejoin="round"/>
<path d="M148.37 101.8C148.37 101.8 144.5 101.8 142.93 103.68C142.214 104.518 141.546 105.396 140.93 106.31C140.93 106.31 141.93 129.31 142.15 135.31C142.37 141.31 142.47 144.83 142.47 144.83C142.47 144.83 151.31 138.49 154.28 136.99C156.228 136.033 158.232 135.191 160.28 134.47L150.8 108.31L148.37 101.8Z" fill="white" stroke="#263238" stroke-linecap="round" stroke-linejoin="round"/>
<path d="M112.74 242.57L180.78 236.43L176.82 192.16L109.16 201.58L112.74 242.57Z" fill="#263238" stroke="#263238" stroke-linecap="round" stroke-linejoin="round"/>
<path d="M143.441 221.26C143.441 221.26 147.771 224.05 149.071 224.01C150.84 224.208 152.592 224.542 154.311 225.01C155.131 225.14 158.361 229.11 159.221 230.38C160.081 231.65 163.951 235.44 163.971 236.09C163.991 236.74 162.71 237.27 161.73 237.3C160.803 237.182 159.909 236.879 159.101 236.41C159.673 237.829 160.157 239.282 160.551 240.76C160.459 241.254 160.207 241.704 159.835 242.042C159.463 242.379 158.991 242.586 158.491 242.63C157.037 242.444 155.606 242.108 154.221 241.63C154.221 241.63 153.61 242.79 151.04 243.85C148.47 244.91 148.321 245.25 146.201 245.16C145.035 245.134 143.89 244.846 142.851 244.316C141.812 243.786 140.906 243.029 140.201 242.1C138.661 240.04 134.201 233.51 133.861 233.03C133.608 232.69 133.327 232.372 133.021 232.08L142.59 221.33L143.441 221.26Z" fill="white" stroke="#263238" stroke-linecap="round" stroke-linejoin="round"/>
<path d="M133 110.68C133 110.68 117.41 116.78 113.63 124.03C109.85 131.28 87.3802 190.59 88.7602 194.57C90.1402 198.55 105.96 212.89 110.48 218.31C115 223.73 130 237 130 237L145 221.63L118.91 190.12L130.91 149.76" fill="white"/>
<path d="M133 110.68C133 110.68 117.41 116.78 113.63 124.03C109.85 131.28 87.3802 190.59 88.7602 194.57C90.1402 198.55 105.96 212.89 110.48 218.31C115 223.73 130 237 130 237L145 221.63L118.91 190.12L130.91 149.76" stroke="#263238" stroke-linecap="round" stroke-linejoin="round"/>
</svg>
