<svg width="463" height="452" viewBox="0 0 463 452" fill="none" xmlns="http://www.w3.org/2000/svg">
<path d="M165.93 422.72C269.58 441.83 372.71 355.63 420.16 273C451.68 218.08 464.25 153.62 445.85 101.17C432.37 62.7301 398.46 25.4901 348 23.8601C291.85 22.0001 246.61 77.0001 188.89 75.9301C131.17 74.8601 63.0001 98.4801 30.0001 141.37C-2.99995 184.26 -9.80995 262.46 18.3001 323.14C34.3001 357.73 62.6801 387.36 99.5501 405.34C119.82 415.23 141.71 418.03 164.66 422.48L165.93 422.72Z" fill="#0987FF"/>
<path opacity="0.8" d="M165.93 422.72C269.58 441.83 372.71 355.63 420.16 273C451.68 218.08 464.25 153.62 445.85 101.17C432.37 62.7301 398.46 25.4901 348 23.8601C291.85 22.0001 246.61 77.0001 188.89 75.9301C131.17 74.8601 63.0001 98.4801 30.0001 141.37C-2.99995 184.26 -9.80995 262.46 18.3001 323.14C34.3001 357.73 62.6801 387.36 99.5501 405.34C119.82 415.23 141.71 418.03 164.66 422.48L165.93 422.72Z" fill="white"/>
<path d="M20.4805 381.92L254.33 289.54L462.43 395.57" stroke="#263238" stroke-miterlimit="10" stroke-linecap="round"/>
<path d="M254.33 289.54V3" stroke="#263238" stroke-miterlimit="10" stroke-linecap="round"/>
<path d="M135.28 141.7L20.1602 190.45V50.0801L135.28 1.34009V141.7Z" stroke="#263238" stroke-miterlimit="10"/>
<path d="M39.51 81.4102C39.51 81.4102 42.72 80.3502 43.83 80.4802C44.94 80.6102 44.44 82.2902 46.42 81.6102C48.4 80.9302 50.24 79.5402 51.42 80.2102C52.6 80.8802 53.15 82.5902 53.89 82.5802C54.63 82.5702 56.72 81.0802 58.57 78.3702C60.42 75.6602 62.2 72.7002 62.2 72.7002L62 79.0002C62 79.0002 61 78.0802 58.8 80.2002C56.6 82.3202 54.73 84.7502 54.36 86.0902C53.5813 88.8447 52.0752 91.3387 50 93.3102C47.17 95.9902 43 96.4302 40.88 97.0202C38.76 97.6102 37.79 98.7702 35.82 96.4902C34.6526 95.0029 33.9006 93.2327 33.6406 91.36C33.3806 89.4873 33.6219 87.5792 34.34 85.8302C34.824 84.7588 35.5382 83.8073 36.4318 83.0434C37.3254 82.2794 38.3764 81.7218 39.51 81.4102V81.4102Z" fill="#D9D9D9"/>
<path d="M113.79 50.0001C112.266 50.765 110.819 51.6759 109.47 52.7201C108.36 53.7801 108.86 55.0601 106.88 56.0401C104.9 57.0201 103.06 57.2101 101.88 58.9201C100.7 60.6301 100.15 62.7701 99.4104 63.3801C98.6823 63.7758 97.8592 63.9628 97.0316 63.9205C96.204 63.8781 95.4043 63.6081 94.7204 63.1401C93.4716 62.3426 92.2788 61.4605 91.1504 60.5001L91.3904 66.6301C91.7279 66.1007 92.2086 65.6777 92.7768 65.4105C93.345 65.1432 93.9773 65.0425 94.6004 65.1201C96.8204 65.3701 98.6704 66.2201 99.0404 67.2501C99.3414 68.1927 99.9101 69.0273 100.677 69.6523C101.444 70.2773 102.376 70.6657 103.36 70.7701C106.19 71.0501 110.36 67.9401 112.48 66.7701C114.6 65.6001 115.56 65.9101 117.54 61.9501C119.52 57.9901 120.69 52.2301 119 50.0001C117.31 47.7701 113.79 50.0001 113.79 50.0001Z" fill="#D9D9D9"/>
<path d="M123.56 42C123.56 42 123.19 33.84 119.86 31.69C116.53 29.54 112.34 31.76 110.12 33.89C107.9 36.02 106.05 41.25 102.97 42.41C99.8898 43.57 98.0398 41.82 95.0798 45.01C92.1198 48.2 91.0798 54.69 89.3998 55.72C87.7198 56.75 81.5798 56.23 77.1598 58.36C72.7398 59.97 66.5998 65.67 64.9098 66.09C63.2198 66.51 62.1998 60.86 59.2398 60.18C56.2798 59.5 54.4298 62.81 51.3498 64.27C48.2698 65.73 46.4198 62 44.1998 61.76C41.9798 61.52 37.7798 62.84 34.4498 67.82C31.1198 72.8 30.7598 81.26 30.7598 81.26C30.3866 84.0372 30.2195 86.8381 30.2598 89.64C30.5098 92.2 32.5998 95.64 32.5998 98C32.5998 100.36 33.0998 99.72 33.4698 98.37C33.8398 97.02 33.2198 94.77 33.2198 94.02C33.2198 93.27 33.5898 94.31 34.2198 95.54C34.8498 96.77 36.9298 98.1 38.1598 97.43C39.3898 96.76 35.8198 94.86 35.8198 93.22C35.8198 91.58 39.5198 94.48 40.8798 94.22C42.2398 93.96 37.4198 90.34 37.4198 90.34C37.4198 90.34 42.8498 90.12 43.3398 89.34C43.8298 88.56 38.6598 87.46 38.6598 87.46C40.5658 86.8767 42.4218 86.141 44.2098 85.26C45.5598 84.39 38.5298 84.84 38.5298 84.84L40.8798 83.84C42.4798 83.16 44.0798 81.84 42.4798 82.12C40.8798 82.4 37.6698 82.97 37.6698 82.97C37.6698 82.97 41.4898 81.35 41.6698 80.7C41.8498 80.05 37.6698 81.78 35.6698 81.04C33.6698 80.3 33.6698 75.19 35.9198 69.95C38.1698 64.71 41.9198 64.86 43.5698 65.07C45.2198 65.28 46.7698 68.32 50.0998 67.95C53.4298 67.58 55.8998 64.01 57.4998 63.95C59.0998 63.89 61.9398 67.12 62.0598 68.95C62.0786 71.7439 61.8308 74.5332 61.3198 77.28C60.8298 80.28 61.4498 82.28 62.0598 84.98C62.6698 87.68 68.2298 96.62 69.4598 99.67C70.6898 102.72 70.0798 109.05 69.9598 113.26C69.8398 117.47 73.4098 117.89 73.4098 117.89C72.2227 118.92 71.284 120.205 70.6641 121.65C70.0441 123.094 69.7589 124.66 69.8298 126.23C69.8298 128.76 71.8298 133.41 72.8298 139.08C73.8298 144.75 74.9298 150.08 74.9298 152.3C74.9298 154.52 76.0398 153.3 76.0398 153.3L76.1798 153.18C77.2896 152.082 78.7788 151.452 80.3398 151.42H80.4798C80.4798 151.42 81.5898 151.69 81.5898 149.47C81.7675 145.028 82.2318 140.602 82.9798 136.22C83.9798 129.71 85.8998 121.96 85.8998 119.43C85.9289 118.797 85.8271 118.165 85.6009 117.573C85.3747 116.981 85.0288 116.442 84.585 115.989C84.1411 115.537 83.6087 115.181 83.0211 114.944C82.4335 114.706 81.8033 114.593 81.1698 114.61C81.1698 114.61 84.7398 111.16 84.6198 107.06C84.4998 102.96 83.8798 97.13 85.1098 93.06C86.3398 88.99 91.8998 75.35 92.5098 72.12C93.1198 68.89 93.7498 66.4 93.2498 63.79C92.7308 61.2534 92.4827 58.6689 92.5098 56.08C92.6398 54.08 95.5098 48.45 97.0798 47.17C98.6498 45.89 101.14 47.38 104.47 44.93C107.8 42.48 109.41 38.09 111.01 36.52C112.61 34.95 116.44 31.52 118.66 34.92C120.88 38.32 121 43.28 118.9 45.8C116.8 48.32 112.74 50.04 112.9 50.58C113.06 51.12 116.85 49.51 116.85 49.51C116.85 49.51 113.64 51.61 112.04 52.73C110.44 53.85 112.04 53.73 113.64 53.09L115.98 52.09C115.98 52.09 108.98 57.59 110.31 57.31C112.221 56.6201 114.077 55.7843 115.86 54.81C115.86 54.81 110.68 60.27 111.17 60.66C111.66 61.05 117.09 56.66 117.09 56.66C117.09 56.66 112.28 64.33 113.64 63.46C115 62.59 118.7 56.57 118.7 58.2C118.7 59.83 115.12 64.77 116.35 64.39C117.58 64.01 119.68 60.9 120.35 59.16C121.02 57.42 121.35 56.07 121.35 56.81C121.35 57.55 120.73 60.34 121.1 61.37C121.47 62.4 121.96 62.64 121.96 60.26C121.96 57.88 124.06 52.69 124.31 49.92C124.28 47.2637 124.029 44.6146 123.56 42V42Z" fill="#B0B0B0"/>
<path d="M122.001 55.3801C122.621 54.5301 123.481 50.1601 123.361 47.8301C123.176 46.1268 122.8 44.4496 122.241 42.8301C122.031 35.5701 120.611 32.2501 117.601 31.8301C114.001 31.3501 112.041 33.2501 109.221 36.4401C108.331 37.4401 107.581 38.4901 106.861 39.4901C105.401 41.4901 104.141 43.2301 102.291 43.9201C101.367 44.2448 100.416 44.489 99.4506 44.6501C97.9222 44.7908 96.4804 45.4222 95.3406 46.4501C93.1006 48.5101 91.9606 52.9001 91.9106 53.0901C91.8606 53.2801 90.8306 55.5001 90.2306 56.9301C89.6029 58.1258 88.8558 59.2549 88.0006 60.3001C86.1506 62.3001 79.2506 66.8301 77.5206 67.5601C77.5206 67.5601 70.0006 71.0401 66.3006 68.8901C65.1739 68.243 64.121 67.4751 63.1606 66.6001C62.8006 66.0901 62.5106 65.6801 62.4806 65.6001C62.4506 65.5201 61.2606 62.0001 59.0006 61.8701C57.5806 61.7701 56.3306 62.6001 54.8906 63.5501C53.9855 64.1776 53.0364 64.7391 52.0506 65.2301C50.1906 66.1101 48.9306 65.4401 47.4806 64.6701C46.7344 64.2483 45.9426 63.9129 45.1206 63.6701C42.3006 62.8601 40.3306 62.6701 36.7306 66.1501C33.7306 69.1501 32.3106 73.6301 32.1006 81.0601C31.5766 83.0077 31.2087 84.994 31.0006 87.0001C30.8806 89.4201 31.7406 93.0701 32.3606 93.4001C32.9806 93.7301 32.6006 91.0701 33.2206 91.8501C33.8406 92.6301 34.2206 94.8501 34.7006 94.0401C35.1806 93.2301 34.0806 90.7401 34.9506 91.1201C35.8206 91.5001 37.0406 92.7501 36.8006 91.5201C36.5606 90.2901 35.0706 89.5801 36.3006 89.3501C37.5306 89.1201 39.0206 89.1001 38.3006 88.5201C37.5806 87.9401 36.4306 87.0001 37.0006 86.6101C37.5706 86.2201 39.2206 86.6101 38.4806 85.8401C37.9499 85.3383 37.3741 84.8864 36.7606 84.4901C36.7606 84.4901 39.1006 83.8001 38.2406 83.7201C37.3806 83.6401 37.3706 82.4501 36.3906 82.5701C35.7008 82.5066 35.0317 82.3005 34.4257 81.9649C33.8198 81.6292 33.2902 81.1713 32.8706 80.6201C33.0806 73.6201 34.3606 69.4801 37.0506 66.8401C40.3606 63.5801 42.1106 63.8401 44.7006 64.6201C45.4905 64.8722 46.2514 65.2074 46.9706 65.6201C48.4806 66.4301 49.9106 67.1901 52.0706 66.1601C53.1117 65.6541 54.1144 65.0725 55.0706 64.4201C56.4506 63.5101 57.5306 62.7901 58.7306 62.8801C60.6406 63.0201 65.1106 72.7301 65.4206 73.7101C66.2806 76.4701 67.6406 82.5701 70.2306 86.9701C72.8206 91.3701 75.9006 94.2201 76.3906 97.9701C76.8806 101.72 76.3906 111.33 76.2706 112.97C76.1506 114.61 76.6406 116.97 75.9006 118.62C75.1606 120.27 72.8206 120.22 72.2006 124.34C71.5806 128.46 73.2006 131.94 73.9306 135.79C74.6106 139.37 76.1606 151.2 76.3706 152.79C77.3848 151.89 78.6763 151.365 80.0306 151.3C80.2106 148.18 80.8406 138.87 82.0306 133.94C83.5106 127.94 84.6206 121.56 83.6406 119.46C82.6606 117.36 80.5506 117.65 79.6406 116.38C78.7306 115.11 78.2906 105.52 78.2906 102.55C78.2906 99.5801 78.6606 94.3801 79.7606 92.1301C80.8606 89.8801 82.8506 84.2901 85.5606 75.8701C88.2706 67.4501 90.8506 58.2501 90.8606 58.1801C90.8706 58.1101 93.6706 48.8701 95.5806 47.1201C96.6025 46.2239 97.8858 45.6804 99.2406 45.5701C100.263 45.4087 101.267 45.1508 102.241 44.8001C104.401 44.0001 105.831 42.0301 107.341 39.9401C108.041 38.9401 108.771 37.9401 109.611 37.0101C112.201 34.0801 113.951 32.3101 117.261 32.7601C119.951 33.1201 121.261 36.2301 121.441 43.0001C120.582 44.8467 119.388 46.5182 117.921 47.9301C116.921 48.6501 116.921 49.8301 116.071 50.6501C115.221 51.4701 117.551 50.1701 117.551 50.1701C117.551 50.1701 116.551 51.6201 115.821 52.9801C115.091 54.3401 116.691 52.6101 117.301 52.5001C117.911 52.3901 116.811 54.1901 116.071 55.4001C115.331 56.6101 116.811 55.4001 118.071 54.5601C119.331 53.7201 117.831 55.7001 117.581 57.1401C117.331 58.5801 118.581 56.2801 119.431 55.1401C120.281 54.0001 119.181 57.4701 119.681 57.8601C120.181 58.2501 120.541 55.7101 121.161 54.4101C121.781 53.1101 121.391 56.2401 122.001 55.3801Z" fill="#0987FF"/>
<path d="M103.14 28.3901L98.1999 30.4901L81.8799 58.2301" stroke="#263238" stroke-miterlimit="10"/>
<path d="M105.12 102.86L99.9302 105.05L79.4102 104.22" stroke="#263238" stroke-miterlimit="10"/>
<path d="M54.4404 140.09L59.6304 137.89L76.2004 142.19" stroke="#263238" stroke-miterlimit="10"/>
<path d="M34.6602 108.88L43.0702 105.32" stroke="#263238" stroke-miterlimit="10"/>
<path d="M34.6602 111.86L43.0702 108.3" stroke="#263238" stroke-miterlimit="10"/>
<path d="M106.601 101.93L115.011 98.3701" stroke="#263238" stroke-miterlimit="10"/>
<path d="M106.601 105.2L115.011 101.64" stroke="#263238" stroke-miterlimit="10"/>
<path d="M42.5703 144.82L50.9803 141.26" stroke="#263238" stroke-miterlimit="10"/>
<path d="M42.5703 148.09L50.9803 144.53" stroke="#263238" stroke-miterlimit="10"/>
<path d="M105.12 27.56L113.53 24" stroke="#263238" stroke-miterlimit="10"/>
<path d="M105.12 30.83L113.53 27.27" stroke="#263238" stroke-miterlimit="10"/>
<path d="M44.7998 107.86L49.4998 105.87L64.0798 84.52" stroke="#263238" stroke-miterlimit="10"/>
<path d="M118.72 76.26L114.76 77.94L107.59 66.99" stroke="#263238" stroke-miterlimit="10"/>
<path d="M143.24 426.06L137.62 434.66C137.473 434.88 137.37 435.127 137.319 435.387C137.268 435.647 137.269 435.914 137.322 436.174C137.375 436.434 137.479 436.68 137.628 436.899C137.777 437.118 137.968 437.305 138.19 437.45L139.76 438.5C140.171 438.782 140.673 438.901 141.167 438.832C141.661 438.764 142.112 438.513 142.43 438.13C148.96 430.37 181.06 392.4 186.74 388.5C193.06 384.15 252.74 375.45 252.74 375.45C252.635 374.571 252.216 373.759 251.56 373.164C250.904 372.569 250.056 372.23 249.17 372.21C237.53 371.95 197.83 371.04 195.8 370.7C193.43 370.31 190.66 370.31 191.06 367.54C191.34 365.54 195.17 357.29 197.24 352.91C197.395 352.584 197.473 352.227 197.467 351.867C197.462 351.506 197.374 351.151 197.209 350.83C197.045 350.509 196.809 350.231 196.52 350.016C196.23 349.8 195.895 349.655 195.54 349.59C195.141 349.515 194.729 349.546 194.345 349.68C193.961 349.813 193.618 350.044 193.35 350.35C189.72 354.51 175.8 370.35 171.68 373.08C167.56 375.81 116.76 390.73 103.39 394.63C103.052 394.722 102.744 394.903 102.497 395.152C102.25 395.401 102.073 395.711 101.984 396.051C101.894 396.39 101.896 396.747 101.989 397.086C102.081 397.425 102.261 397.733 102.51 397.98C102.744 398.225 103.037 398.408 103.36 398.509C103.684 398.61 104.028 398.628 104.36 398.56C112.06 396.99 158.04 387.64 160.22 386.91C162.59 386.12 169.71 386.52 161.4 399.57C153.09 412.62 143.24 426.06 143.24 426.06Z" fill="#263238"/>
<path d="M176.15 390.32C173.675 390.318 171.302 389.332 169.552 387.581C167.803 385.83 166.82 383.456 166.82 380.98V304.2C166.9 301.777 167.918 299.48 169.66 297.794C171.402 296.108 173.731 295.166 176.155 295.166C178.58 295.166 180.909 296.108 182.651 297.794C184.393 299.48 185.411 301.777 185.49 304.2V381C185.485 383.474 184.499 385.844 182.748 387.592C180.997 389.339 178.624 390.32 176.15 390.32V390.32Z" fill="#263238"/>
<path d="M81.9199 253.84L90.3799 281.6" stroke="#263238" stroke-width="4" stroke-miterlimit="10" stroke-linecap="round"/>
<path d="M57.8101 262C57.3601 263.37 75.1701 270.19 75.1701 270.19L104.47 254.43C104.47 254.43 100.24 246.09 84.8101 243.68C69.3801 241.27 59.7401 256.25 57.8101 262Z" fill="#8C8C8C" stroke="#263238" stroke-linecap="round" stroke-linejoin="round"/>
<path d="M75.1699 270.23C75.1699 270.23 77.5799 256.23 86.7399 250.47C95.8999 244.71 104.47 254.47 104.47 254.47L75.1699 270.23Z" fill="#5E5E5E" stroke="#263238" stroke-linecap="round" stroke-linejoin="round"/>
<path d="M152.6 317.63C152.6 317.63 136.93 388.63 133.6 396.87C127.88 411.12 111.77 415.42 98.0804 410.72C78.3804 404 74.5804 384.23 74.6504 365.54C74.7204 348.54 78.5304 332.54 82.5504 316.21C84.4804 308.34 86.1904 300.41 87.9604 292.51C88.2604 291.19 89.1404 282.24 90.3804 281.6L158 246.79C158 246.79 195.17 144.06 207.61 120.48C220.05 96.9 241.29 90.69 259.35 93.63C274.88 96.16 288.17 110.63 282.93 143.41C277.69 176.19 228.93 281.41 227.62 286.63C226.31 291.85 152.6 317.63 152.6 317.63Z" fill="#8C8C8C" stroke="#263238" stroke-linecap="round" stroke-linejoin="round"/>
<path d="M152.6 319.59C152.25 319.59 151.905 319.501 151.6 319.33L89.3796 283.33C89.1081 283.226 88.8624 283.065 88.6598 282.856C88.4571 282.648 88.3024 282.398 88.2062 282.123C88.1101 281.849 88.075 281.557 88.1032 281.267C88.1315 280.978 88.2225 280.698 88.3699 280.448C88.5173 280.197 88.7175 279.982 88.9567 279.817C89.1958 279.651 89.4682 279.54 89.7547 279.491C90.0412 279.442 90.335 279.455 90.6156 279.531C90.8962 279.607 91.157 279.743 91.3796 279.93L153.6 315.93C153.949 316.163 154.215 316.5 154.362 316.893C154.509 317.286 154.529 317.716 154.418 318.12C154.307 318.525 154.072 318.885 153.746 319.149C153.42 319.412 153.019 319.567 152.6 319.59Z" fill="#8C8C8C" stroke="#263238" stroke-linecap="round" stroke-linejoin="round"/>
<path d="M225.3 289.63C224.949 289.63 224.604 289.536 224.3 289.36L157 249.31C156.638 249.006 156.395 248.583 156.315 248.117C156.235 247.651 156.322 247.172 156.562 246.764C156.802 246.357 157.179 246.047 157.625 245.891C158.071 245.734 158.559 245.741 159 245.91L226.3 285.91C226.746 286.177 227.071 286.607 227.205 287.109C227.34 287.611 227.273 288.146 227.02 288.6C226.85 288.908 226.601 289.165 226.299 289.346C225.997 289.527 225.652 289.625 225.3 289.63Z" fill="#8C8C8C" stroke="#263238" stroke-linecap="round" stroke-linejoin="round"/>
<path d="M227 288.64L152.6 317.63L139.29 376.78" stroke="#263238" stroke-width="4" stroke-miterlimit="10" stroke-linecap="round"/>
<path d="M209.8 116.13L283.27 141.28" stroke="#263238" stroke-linecap="round" stroke-linejoin="round"/>
<path d="M214.84 124.28L265.63 142.88L271.63 129.02L224.63 112.02C224.63 112.02 216.87 109.12 214.84 124.28Z" fill="#8C8C8C" stroke="#263238" stroke-linecap="round" stroke-linejoin="round"/>
<path d="M265.63 142.88C265.63 142.88 261.46 129.67 271.63 129.02L265.63 142.88Z" fill="#5E5E5E" stroke="#263238" stroke-linecap="round" stroke-linejoin="round"/>
<path d="M170.91 72.7301C170.91 72.7301 167.38 64.5801 156.23 60.7301C145.08 56.8801 128 67.0001 120.89 76.0001C113.78 85.0001 110.28 99.1101 112.19 108.62C114.1 118.13 123.88 126.57 125.24 129.83C126.6 133.09 126.87 134.18 123.33 136.08C119.79 137.98 119.53 136.9 119.8 137.98C120.07 139.06 124.42 141.52 127.96 141.79C130.275 141.905 132.587 141.533 134.75 140.7L134.21 144.51C134.21 144.51 137.47 145.87 143.72 144.24C149.97 142.61 152.72 139.89 152.72 139.89C152.72 139.89 157.61 142.06 160.33 142.06C162.716 141.92 165.083 141.555 167.4 140.97L167.67 138.26C169.57 138.42 171.48 138.42 173.38 138.26C176.38 137.98 182.08 134.18 182.08 134.18L179.36 130.1C180.237 130.428 181.172 130.574 182.108 130.527C183.043 130.481 183.959 130.244 184.8 129.83C188.06 128.47 190.51 124.93 190.51 124.93C190.51 124.93 185.07 125.75 185.07 121.4C185.07 117.05 191.59 106.72 187.79 90.4001C183.99 74.0801 177.71 68.1101 170.91 72.7301Z" fill="#263238" stroke="#263238" stroke-miterlimit="10"/>
<path d="M121.92 207.11L120.62 224.56C120.62 224.56 123.62 233.17 129.24 232.1C134.86 231.03 136.56 225.85 137.64 221.33C138.42 217.631 138.995 213.892 139.36 210.13L121.92 207.11Z" fill="white" stroke="#263238" stroke-linecap="round" stroke-linejoin="round"/>
<path d="M90.3801 268.83C90.3801 268.83 82.2001 272.43 78.2701 278.66C74.3401 284.89 77.0001 296 77.9401 305.18C78.8801 314.36 85.4701 367.07 85.4701 373.95C85.4701 380.83 83.1801 386.4 81.8701 387.38C80.5601 388.36 69.7501 394.91 63.2001 397.53C56.6501 400.15 52.7201 398.53 51.7401 401.13C50.7601 403.73 52.7401 405.39 54.7401 406.04C56.7401 406.69 68.1601 409.32 72.7401 408.04C77.3201 406.76 79.9401 405.09 88.1301 403.45C96.3201 401.81 99.9201 403.78 100.25 395.6C100.58 387.42 99.5901 378.6 99.9201 369.4C100.25 360.2 104.18 336.65 104.51 322.24C104.84 307.83 104.83 295.06 104.83 295.06L126.12 282.61C123.746 277.143 119.59 272.642 114.33 269.84C105.77 265.56 90.3801 268.83 90.3801 268.83Z" fill="white" stroke="#263238" stroke-miterlimit="10" stroke-linecap="round"/>
<path d="M58.7605 400C58.7605 400 54.9105 399.51 54.6605 402.11C54.4105 404.71 55.1604 405.71 57.2704 406.21" stroke="#263238" stroke-miterlimit="10" stroke-linecap="round"/>
<path d="M117.16 276.89C117.16 276.89 102.9 285.66 101.81 290.05C100.72 294.44 97.1501 329.53 97.1501 338.05C97.1501 346.57 92.7601 389.05 91.6601 392.62C90.5601 396.19 87.2701 397.55 81.2401 399.47C75.2101 401.39 68.0801 403 66.1601 403C64.2401 403 59.0301 401.63 58.4901 403.83C58.4109 404.134 58.3706 404.446 58.3701 404.76C58.3891 405.675 58.6757 406.564 59.1947 407.318C59.7137 408.071 60.4422 408.656 61.2901 409L61.5001 409.09C61.5001 409.09 70.0001 413.75 71.9201 414.3C73.7101 414.779 75.5484 415.054 77.4001 415.12C78.5001 415.12 82.3401 414.84 87.8201 414.84C93.3001 414.84 100.98 414.84 104 412.93C107.02 411.02 106.47 406.93 106.47 403.05C106.47 399.17 108.11 382.76 112.23 372.35C116.35 361.94 125.39 345.75 127.03 333.41C128.67 321.07 128.4 305.17 128.4 305.17L138.27 300.51C137.713 294.488 135.428 288.755 131.69 284C125.39 275.79 117.16 276.89 117.16 276.89Z" fill="white" stroke="#263238" stroke-miterlimit="10" stroke-linecap="round"/>
<path d="M61.5 409.05C61.5 409.05 61.78 406.3 65.89 405.76" stroke="#263238" stroke-miterlimit="10" stroke-linecap="round"/>
<path d="M64.5205 410.42C64.5205 410.42 64.7905 407.95 68.3605 407.68" stroke="#263238" stroke-miterlimit="10" stroke-linecap="round"/>
<path d="M68.0801 412.34C68.3174 411.568 68.7883 410.89 69.4277 410.397C70.0671 409.904 70.8436 409.622 71.6501 409.59" stroke="#263238" stroke-miterlimit="10" stroke-linecap="round"/>
<path d="M71.9198 414.26C71.9198 414.26 70.8198 411.79 75.4798 412.06" stroke="#263238" stroke-miterlimit="10" stroke-linecap="round"/>
<path d="M145.73 136.2C145.73 136.2 148.35 143.08 147.73 145.37C147.11 147.66 136.93 149.63 132.34 151.59C127.75 153.55 121.53 182.38 118.59 188.93C116.417 194.052 114.551 199.297 113 204.64C113 204.64 119.22 209.56 124.13 210.87C129.04 212.18 131 212.5 131 212.5C131 212.5 137.22 223.64 138.53 227.57C139.84 231.5 141.15 236.08 139.84 237.39C138.53 238.7 129.69 246.23 127.73 247.54C125.77 248.85 97.9302 263.26 92.7302 266.54L87.4902 269.81C87.4902 269.81 104.19 271.12 115.98 277.67C127.77 284.22 136.28 302.89 136.28 302.89C136.28 302.89 183.11 294.05 195.55 283.89C207.99 273.73 208 267.89 208 256.06C208 244.23 205.71 211.52 205.71 203.66C205.71 195.8 198.83 154.87 194.9 150.94C190.97 147.01 168.37 146.68 167.72 144.72C167.07 142.76 165.72 136.2 165.72 136.2H145.73Z" fill="#0987FF" stroke="#263238" stroke-miterlimit="10"/>
<path d="M150.19 217.38C154.3 221.04 161.1 226.52 168.03 229.55" stroke="#263238" stroke-miterlimit="10" stroke-linecap="round"/>
<path d="M146.25 213.65C146.25 213.65 146.75 214.16 147.64 215.01" stroke="#263238" stroke-miterlimit="10" stroke-linecap="round"/>
<path d="M154.89 226.44C154.89 226.44 164.57 233.01 170.45 235.08" stroke="#263238" stroke-miterlimit="10" stroke-linecap="round"/>
<path d="M202.87 262.58C203.224 263.645 203.482 264.739 203.64 265.85" stroke="#263238" stroke-miterlimit="10" stroke-linecap="round"/>
<path d="M195 254.44C197.884 255.358 200.3 257.358 201.74 260.02" stroke="#263238" stroke-miterlimit="10" stroke-linecap="round"/>
<path d="M163.88 243C164.88 243.3 165.88 243.54 166.65 243.69" stroke="#263238" stroke-miterlimit="10" stroke-linecap="round"/>
<path d="M149.36 237.5C149.36 237.5 154.89 239.94 160.14 241.81" stroke="#263238" stroke-miterlimit="10" stroke-linecap="round"/>
<path d="M155.881 163.05C169.261 161.9 174.991 152.31 177.221 146.73C172.161 146.09 167.951 145.55 167.671 144.73C167.011 142.73 165.671 136.21 165.671 136.21H145.671C145.671 136.21 148.291 143.09 147.671 145.38C147.411 146.3 145.601 147.17 143.241 148.01C142.101 152.46 140.401 164.39 155.881 163.05Z" fill="white" stroke="#263238" stroke-miterlimit="10"/>
<path d="M156.54 145.41C160.466 144.492 163.922 142.174 166.26 138.89C165.94 137.38 165.7 136.2 165.7 136.2H145.7C145.7 136.2 148.07 142.45 147.7 145.01C150.582 145.791 153.6 145.927 156.54 145.41V145.41Z" fill="#263238" stroke="#263238" stroke-miterlimit="10"/>
<path d="M164.93 86.6001C159.007 91.2454 152.735 95.4278 146.17 99.1101C135.84 104.81 130.95 108.11 130.95 108.11C130.95 108.11 136.65 126.87 138.01 131.49C140.19 138.83 152.42 143.72 160.31 142.09C168.2 140.46 173.36 132.3 173.9 126.09C174.44 119.88 172.82 102.44 172.82 102.44C172.82 102.44 164.93 98.0001 164.93 86.6001Z" fill="white" stroke="#263238" stroke-miterlimit="10"/>
<path d="M143.16 116.48L148.62 115.57" stroke="#263238" stroke-width="0.5" stroke-miterlimit="10"/>
<path d="M166.47 111.93L161.55 113.93" stroke="#263238" stroke-width="0.5" stroke-miterlimit="10"/>
<path d="M156.31 104.4C156.31 104.4 156.54 111.94 156.99 113.31C157.44 114.68 160.65 115.6 159.05 118.8C157.45 122 153.34 122.92 151.74 119.72" stroke="#263238" stroke-miterlimit="10"/>
<path d="M147.34 111.19C147.77 112.86 147.48 114.38 146.68 114.59C145.88 114.8 144.88 113.59 144.44 111.94C144 110.29 144.31 108.75 145.1 108.54C145.89 108.33 146.9 109.52 147.34 111.19Z" fill="#263238"/>
<path d="M163.4 108.49C163.59 110.2 163.08 111.67 162.26 111.76C161.44 111.85 160.62 110.53 160.43 108.82C160.24 107.11 160.75 105.63 161.58 105.54C162.41 105.45 163.22 106.77 163.4 108.49Z" fill="#263238"/>
<path d="M139.65 106.72C139.65 106.72 141.01 101.55 146.44 102.64" stroke="#263238" stroke-width="2" stroke-miterlimit="10" stroke-linecap="round"/>
<path d="M157.05 102.37C157.05 102.37 162.48 99.1101 165.75 102.91" stroke="#263238" stroke-width="2" stroke-miterlimit="10" stroke-linecap="round"/>
<path d="M150 127.11C150 127.11 157.07 130.11 162.5 124.66" stroke="#263238" stroke-miterlimit="10"/>
<path d="M132 111.88C132 111.88 128.74 108.08 127.38 112.43C126.02 116.78 128.2 118.43 129.83 119.77C131.46 121.11 135.27 122.22 135.27 122.22L132 111.88Z" stroke="#263238" stroke-miterlimit="10"/>
<path d="M173.09 106.72C173.09 106.72 176.09 101.01 177.44 106.72C178.79 112.43 174.13 117.96 173.86 118.77L173.09 106.72Z" stroke="#263238" stroke-miterlimit="10"/>
<path d="M184.701 219.71L184.04 232.81C184.04 232.81 160.79 255.73 154.9 259.33C149.01 262.93 142.78 265.88 142.78 265.88C142.78 265.88 136.031 268.42 133.611 269.39C130.381 270.68 123.27 272.39 121.12 273.69C118.97 274.99 114.231 279.94 111.861 282.95C109.491 285.96 106.47 288.34 107.34 289.42C108.21 290.5 110.141 288.55 110.141 288.55C110.141 288.55 107.77 291.55 108.84 292.65C109.91 293.75 111.84 292.22 111.84 292.22C111.84 292.22 110.551 295.02 112.051 295.45C113.551 295.88 115.93 293.72 115.93 293.72C115.93 293.72 115.5 296.09 118.93 294.15C122.36 292.21 128.831 286.62 128.831 286.62C128.831 286.62 134.431 285.75 137.661 283.17C139.896 281.168 141.726 278.754 143.051 276.06L146.34 274.06C146.34 274.06 163.341 268.49 177.131 262.27C190.921 256.05 202.341 247.21 202.671 246.27C203.001 245.33 203.321 220.4 203.321 220.4C203.321 220.4 189.001 220 184.701 219.71Z" fill="white" stroke="#263238" stroke-linecap="round" stroke-linejoin="round"/>
<path d="M110.14 288.55C110.14 288.55 116.14 282.31 117.67 280.8C118.571 279.893 119.579 279.097 120.67 278.43" stroke="#263238" stroke-linecap="round" stroke-linejoin="round"/>
<path d="M111.86 292.22C111.86 292.22 117.67 285.97 119.18 284.46C120.669 283.126 122.253 281.902 123.92 280.8" stroke="#263238" stroke-linecap="round" stroke-linejoin="round"/>
<path d="M116 293.72C117.51 292.43 123.54 285.54 125.48 284.89C126.379 284.635 127.245 284.276 128.06 283.82" stroke="#263238" stroke-linecap="round" stroke-linejoin="round"/>
<path d="M185 172.88L178.8 221C183.553 223.058 188.69 224.081 193.87 224C203.04 224 212.21 218.43 212.21 218.43C212.21 218.43 202.38 160.79 200.42 155.55C198.46 150.31 191.25 149.66 189.61 149.99" fill="#0987FF"/>
<path d="M185 172.88L178.8 221C183.553 223.058 188.69 224.081 193.87 224C203.04 224 212.21 218.43 212.21 218.43C212.21 218.43 202.38 160.79 200.42 155.55C198.46 150.31 191.25 149.66 189.61 149.99" stroke="#263238" stroke-miterlimit="10"/>
<path d="M130.341 163.71C130.341 163.71 129.341 177.46 127.721 185C126.101 192.54 126.411 205.63 130.991 212.5" stroke="#263238" stroke-miterlimit="10"/>
<path d="M90.69 271.94C90.69 271.94 84.87 278.19 84.01 279.94C82.8233 282.573 81.8858 285.312 81.21 288.12C81.21 288.99 81.43 289.63 82.93 288.55C84.43 287.47 85.52 283.6 86.38 282.09C87.24 280.58 90.04 276.09 90.04 276.09" stroke="#263238" stroke-linecap="round" stroke-linejoin="round"/>
<path d="M121.7 222.19C121.7 222.19 115.02 234.25 112.22 241.14C110.01 246.6 106.44 255.71 105.05 259.26C103.38 260.69 94.7201 268.12 92.1901 270.65C89.1074 273.847 86.8849 277.772 85.7302 282.06C84.8702 285.94 83.7902 290.06 84.6602 291.32C84.7685 291.495 84.9113 291.645 85.0798 291.763C85.2484 291.88 85.4391 291.962 85.6404 292.003C85.8416 292.044 86.0492 292.044 86.2503 292.002C86.4515 291.961 86.642 291.878 86.8101 291.76L88.5301 291.54C88.5301 291.54 90.0402 293.91 91.9802 291.11C93.9202 288.31 97.1501 283.11 98.2201 282.06C99.2901 281.01 103.61 277.54 103.61 277.54C102.319 280.283 100.88 282.953 99.3002 285.54C98.0102 287.26 99.9501 288.54 101.24 287.05C102.53 285.56 107.06 280.8 108.99 277.14C110.92 273.48 111.15 267.88 111.36 267.02C111.49 266.5 112.08 264.85 112.53 263.59C112.53 263.59 120.19 253.45 125.79 248.06C131.39 242.67 133.12 231.27 134.62 227.6" fill="white"/>
<path d="M121.7 222.19C121.7 222.19 115.02 234.25 112.22 241.14C110.01 246.6 106.44 255.71 105.05 259.26C103.38 260.69 94.7201 268.12 92.1901 270.65C89.1074 273.847 86.8849 277.772 85.7302 282.06C84.8702 285.94 83.7902 290.06 84.6602 291.32C84.7685 291.495 84.9113 291.645 85.0798 291.763C85.2484 291.88 85.4391 291.962 85.6404 292.003C85.8416 292.044 86.0492 292.044 86.2503 292.002C86.4515 291.961 86.642 291.878 86.8101 291.76L88.5301 291.54C88.5301 291.54 90.0402 293.91 91.9802 291.11C93.9202 288.31 97.1501 283.11 98.2201 282.06C99.2901 281.01 103.61 277.54 103.61 277.54C102.319 280.283 100.88 282.953 99.3002 285.54C98.0102 287.26 99.9501 288.54 101.24 287.05C102.53 285.56 107.06 280.8 108.99 277.14C110.92 273.48 111.15 267.88 111.36 267.02C111.49 266.5 112.08 264.85 112.53 263.59C112.53 263.59 120.19 253.45 125.79 248.06C131.39 242.67 133.12 231.27 134.62 227.6" stroke="#263238" stroke-linecap="round" stroke-linejoin="round"/>
<path d="M88.5303 291.54C88.5303 291.54 92.6303 282.93 94.3503 280.77C95.6671 279.045 96.8889 277.249 98.0103 275.39" stroke="#263238" stroke-linecap="round" stroke-linejoin="round"/>
<path d="M86.8105 291.76C86.8105 291.76 87.0305 285.29 88.5305 281.85C90.0305 278.41 94.1305 273.45 94.1305 273.45" stroke="#263238" stroke-linecap="round" stroke-linejoin="round"/>
<path d="M150.38 290.96L155.68 317" stroke="#263238" stroke-width="4" stroke-miterlimit="10" stroke-linecap="round"/>
<path d="M124.83 294.34C124.37 295.71 142.18 302.53 142.18 302.53L171.48 286.78C171.48 286.78 167.25 278.43 151.83 276.02C136.41 273.61 126.76 288.55 124.83 294.34Z" fill="#8C8C8C" stroke="#263238" stroke-linecap="round" stroke-linejoin="round"/>
<path d="M142.18 302.53C142.18 302.53 144.59 288.53 153.75 282.77C162.91 277.01 171.48 286.77 171.48 286.77L142.18 302.53Z" fill="#5E5E5E" stroke="#263238" stroke-linecap="round" stroke-linejoin="round"/>
<path d="M374.999 271.53C371.929 269.83 369.049 268.61 367.389 269.53L345.819 281.39C337.448 285.992 331.22 293.699 328.479 302.85L303.479 386.27L347.999 407.88L414.999 291.51L374.999 271.53Z" fill="white" stroke="#263238" stroke-miterlimit="10" stroke-linecap="round"/>
<path d="M389.919 384.84L348.029 407.84L373.029 324.41C375.782 315.278 382.008 307.59 390.369 303L411.929 291.15C412.52 290.822 413.195 290.678 413.868 290.736C414.541 290.794 415.181 291.052 415.706 291.476C416.232 291.9 416.618 292.472 416.817 293.118C417.015 293.764 417.016 294.454 416.819 295.1L389.919 384.84Z" fill="#8C8C8C" stroke="#263238" stroke-linecap="round" stroke-linejoin="round"/>
<path d="M322.05 339.98L358.07 357.66L348.25 387.13L312.88 369.45L322.05 339.98Z" fill="#8C8C8C" stroke="#263238" stroke-linecap="round" stroke-linejoin="round"/>
<path d="M361.26 323.09L359.78 327.82L355.06 325.47L356.44 320.86L350.93 318.31L349.56 322.71L344.84 320.36L346.12 316.08L340.66 313.56L339.33 317.8L334.61 315.44L335.85 311.33L331.22 309.19L328.6 316.4L364.62 333.43L367.25 325.86L361.26 323.09Z" fill="#8C8C8C" stroke="#263238" stroke-linecap="round" stroke-linejoin="round"/>
<path d="M307.64 260.07L295.459 266.89C294.945 267.181 294.498 267.578 294.15 268.056C293.802 268.533 293.56 269.08 293.441 269.659C293.321 270.238 293.327 270.835 293.458 271.412C293.589 271.988 293.842 272.53 294.2 273V273C294.583 273.498 295.076 273.902 295.64 274.18L355.45 304C359.517 305.995 364.167 306.46 368.549 305.31C373.999 303.78 390.999 294.46 398.999 290C400.308 289.269 401.413 288.223 402.214 286.957C403.016 285.691 403.488 284.245 403.589 282.75L403.92 277.75L395.399 275.75L362.66 298.02C361.257 298.8 359.679 299.21 358.075 299.21C356.47 299.21 354.892 298.8 353.489 298.02C348.249 295.4 302.399 271.17 302.399 271.17C302.399 271.17 300.229 269.39 303.399 267.31C305.589 265.87 312.25 262 312.25 262L307.64 260.07Z" fill="white" stroke="#263238" stroke-miterlimit="10" stroke-linecap="round"/>
<path d="M403.26 214.22L392.13 234.53L410.47 242.39L424.88 222.08L403.26 214.22Z" fill="white" stroke="#263238" stroke-miterlimit="10" stroke-linecap="round"/>
<path d="M398.51 222.9L418.7 230.78L424.88 222.08L403.26 214.22L398.51 222.9Z" fill="#263238" stroke="#263238" stroke-miterlimit="10" stroke-linecap="round"/>
<path d="M376 222.13L430.8 245.7C432.016 246.225 433.006 247.164 433.594 248.351C434.182 249.538 434.329 250.895 434.01 252.18L432.44 258.43C431.892 260.629 430.872 262.682 429.451 264.447C428.03 266.212 426.241 267.646 424.21 268.65L375.39 292.76C373.368 293.758 371.144 294.277 368.89 294.277C366.635 294.277 364.411 293.758 362.39 292.76L305.54 264.64C304.967 264.356 304.482 263.922 304.136 263.385C303.79 262.848 303.596 262.227 303.574 261.588C303.553 260.949 303.705 260.316 304.014 259.757C304.323 259.197 304.777 258.732 305.33 258.41L366.54 222.7C367.963 221.873 369.559 221.391 371.202 221.292C372.845 221.193 374.488 221.48 376 222.13V222.13Z" fill="white" stroke="#263238" stroke-miterlimit="10" stroke-linecap="round"/>
<path d="M443.34 235.75L369.22 206.8C368.155 206.387 367.239 205.662 366.593 204.72C365.947 203.778 365.601 202.662 365.6 201.52V135.11C365.6 134.187 365.826 133.277 366.257 132.461C366.688 131.644 367.312 130.945 368.075 130.424C368.837 129.903 369.715 129.576 370.632 129.47C371.55 129.365 372.479 129.485 373.34 129.82L447.46 158.82C448.524 159.234 449.439 159.96 450.084 160.902C450.73 161.843 451.077 162.958 451.08 164.1V230.51C451.071 231.429 450.839 232.333 450.405 233.143C449.97 233.953 449.345 234.645 448.584 235.16C447.823 235.676 446.948 235.999 446.035 236.101C445.121 236.204 444.196 236.084 443.34 235.75V235.75Z" fill="white" stroke="#263238" stroke-miterlimit="10" stroke-linecap="round"/>
<path d="M444.859 160.37L423.709 152.11L415.999 154.38L400.869 149.16L395.229 141L375.679 133.36C374.875 133.046 374.007 132.933 373.15 133.03C372.292 133.128 371.472 133.433 370.759 133.92C370.047 134.407 369.464 135.06 369.061 135.824C368.659 136.587 368.449 137.437 368.449 138.3V200.3C368.449 201.366 368.771 202.406 369.372 203.286C369.973 204.166 370.826 204.843 371.819 205.23L440.999 232.23C441.802 232.544 442.67 232.657 443.526 232.56C444.383 232.463 445.203 232.158 445.915 231.673C446.627 231.187 447.21 230.535 447.614 229.773C448.017 229.011 448.228 228.162 448.229 227.3V165.3C448.229 164.234 447.908 163.194 447.306 162.314C446.705 161.434 445.852 160.757 444.859 160.37V160.37Z" fill="#263238" stroke="#263238" stroke-miterlimit="10" stroke-linecap="round"/>
<path d="M380.83 232.68L407.63 243.85L383.06 258L354.76 246.83L380.83 232.68Z" fill="#8C8C8C" stroke="#263238" stroke-linecap="round" stroke-linejoin="round"/>
<path d="M380.829 289.28C380.129 285.13 321.829 257.57 313.079 253.87L305.339 258.41C304.787 258.732 304.332 259.197 304.023 259.757C303.714 260.316 303.563 260.949 303.584 261.588C303.606 262.227 303.8 262.848 304.146 263.385C304.492 263.922 304.977 264.356 305.549 264.64L362.399 292.76C364.421 293.758 366.645 294.278 368.899 294.278C371.154 294.278 373.378 293.758 375.399 292.76L380.919 290.04C380.899 289.78 380.869 289.52 380.829 289.28Z" fill="#8C8C8C" stroke="#263238" stroke-linecap="round" stroke-linejoin="round"/>
<path d="M338.97 248.51C340.439 248.51 341.63 247.713 341.63 246.73C341.63 245.747 340.439 244.95 338.97 244.95C337.5 244.95 336.31 245.747 336.31 246.73C336.31 247.713 337.5 248.51 338.97 248.51Z" fill="white" stroke="#263238" stroke-miterlimit="10" stroke-linecap="round"/>
<path d="M348.739 252.95C350.208 252.95 351.399 252.153 351.399 251.17C351.399 250.187 350.208 249.39 348.739 249.39C347.27 249.39 346.079 250.187 346.079 251.17C346.079 252.153 347.27 252.95 348.739 252.95Z" fill="white" stroke="#263238" stroke-miterlimit="10" stroke-linecap="round"/>
<path d="M358.51 257.39C359.979 257.39 361.17 256.593 361.17 255.61C361.17 254.627 359.979 253.83 358.51 253.83C357.041 253.83 355.85 254.627 355.85 255.61C355.85 256.593 357.041 257.39 358.51 257.39Z" fill="white" stroke="#263238" stroke-miterlimit="10" stroke-linecap="round"/>
<path d="M368.279 261.83C369.748 261.83 370.939 261.033 370.939 260.05C370.939 259.067 369.748 258.27 368.279 258.27C366.81 258.27 365.619 259.067 365.619 260.05C365.619 261.033 366.81 261.83 368.279 261.83Z" fill="white" stroke="#263238" stroke-miterlimit="10" stroke-linecap="round"/>
<path d="M380.71 264.49C380.71 265.49 379.52 266.27 378.04 266.27C376.56 266.27 375.38 265.47 375.38 264.49C375.38 263.51 376.57 262.72 378.04 262.72C379.51 262.72 380.71 263.51 380.71 264.49Z" fill="white" stroke="#263238" stroke-miterlimit="10" stroke-linecap="round"/>
<path d="M387.809 270.71C389.278 270.71 390.469 269.913 390.469 268.93C390.469 267.947 389.278 267.15 387.809 267.15C386.34 267.15 385.149 267.947 385.149 268.93C385.149 269.913 386.34 270.71 387.809 270.71Z" fill="white" stroke="#263238" stroke-miterlimit="10" stroke-linecap="round"/>
<path d="M332.309 253.84C333.778 253.84 334.969 253.043 334.969 252.06C334.969 251.077 333.778 250.28 332.309 250.28C330.84 250.28 329.649 251.077 329.649 252.06C329.649 253.043 330.84 253.84 332.309 253.84Z" fill="white" stroke="#263238" stroke-miterlimit="10" stroke-linecap="round"/>
<path d="M342.08 258.28C343.549 258.28 344.74 257.483 344.74 256.5C344.74 255.517 343.549 254.72 342.08 254.72C340.611 254.72 339.42 255.517 339.42 256.5C339.42 257.483 340.611 258.28 342.08 258.28Z" fill="white" stroke="#263238" stroke-miterlimit="10" stroke-linecap="round"/>
<path d="M351.849 262.72C353.319 262.72 354.509 261.923 354.509 260.94C354.509 259.957 353.319 259.16 351.849 259.16C350.38 259.16 349.189 259.957 349.189 260.94C349.189 261.923 350.38 262.72 351.849 262.72Z" fill="white" stroke="#263238" stroke-miterlimit="10" stroke-linecap="round"/>
<path d="M361.62 267.16C363.089 267.16 364.28 266.363 364.28 265.38C364.28 264.397 363.089 263.6 361.62 263.6C360.151 263.6 358.96 264.397 358.96 265.38C358.96 266.363 360.151 267.16 361.62 267.16Z" fill="white" stroke="#263238" stroke-miterlimit="10" stroke-linecap="round"/>
<path d="M371.38 271.6C372.849 271.6 374.04 270.803 374.04 269.82C374.04 268.837 372.849 268.04 371.38 268.04C369.911 268.04 368.72 268.837 368.72 269.82C368.72 270.803 369.911 271.6 371.38 271.6Z" fill="white" stroke="#263238" stroke-miterlimit="10" stroke-linecap="round"/>
<path d="M381.149 276.04C382.618 276.04 383.809 275.243 383.809 274.26C383.809 273.277 382.618 272.48 381.149 272.48C379.68 272.48 378.489 273.277 378.489 274.26C378.489 275.243 379.68 276.04 381.149 276.04Z" fill="white" stroke="#263238" stroke-miterlimit="10" stroke-linecap="round"/>
<path d="M258.05 388.26C255.426 391.407 252.635 394.412 249.69 397.26C246.34 400.26 239.98 403.62 236.97 404.96C233.96 406.3 241.32 409.96 245.67 409.96C250.02 409.96 256.04 408.62 263.07 408.62C270.1 408.62 276.46 408.62 277.46 403.26C278.46 397.9 272.46 382.18 272.46 382.18L257.07 385.18L258.05 388.26Z" fill="#0987FF" stroke="#263238" stroke-miterlimit="10"/>
<path d="M248 406.67C241.87 407.33 238.18 406.26 236.36 405.45C235.36 407.02 241.74 410.02 245.66 410.02C250.01 410.02 256.03 408.68 263.06 408.68C270.09 408.68 276.45 408.68 277.45 403.32C277.578 402.483 277.601 401.633 277.52 400.79C276.063 402.034 274.47 403.108 272.77 403.99C268.09 406.34 257.38 405.67 248 406.67Z" fill="white" stroke="#263238" stroke-miterlimit="10" stroke-linecap="round"/>
<path d="M236 315L250.06 388C253.565 390.137 257.754 390.853 261.77 390C268.77 388.66 276.5 384.31 276.5 384.31L262.4 322C262.4 322 243.66 306.27 236 315Z" fill="#263238" stroke="#263238" stroke-miterlimit="10" stroke-linecap="round"/>
<path d="M215.22 400.65C215.22 400.65 212.54 408.01 211.22 409.65C209.9 411.29 195.83 423.37 192.81 425.05C189.79 426.73 193.48 428.73 196.16 429.4C198.84 430.07 209.55 428.4 216.91 425.4C224.27 422.4 235.65 421.4 237.66 418.04C239.67 414.68 233.31 398.29 233.31 398.29C233.31 398.29 216.89 402.65 215.22 400.65Z" fill="#0987FF" stroke="#263238" stroke-miterlimit="10"/>
<path d="M201.49 426.75C196.77 428.28 193.96 428.19 192.27 427.57C193.404 428.472 194.727 429.107 196.14 429.43C198.82 430.1 209.53 428.43 216.89 425.43C224.25 422.43 235.63 421.43 237.64 418.07C238.18 417.16 238.11 415.29 237.72 413.07C236.42 413.79 235.02 414.48 233.62 415.07C228.94 417 212.87 423.07 201.49 426.75Z" fill="white" stroke="#263238" stroke-miterlimit="10" stroke-linecap="round"/>
<path d="M245 290.21C245 290.21 220.24 283.85 215.89 285.86C211.54 287.87 204.89 297.57 204.89 306.61C204.89 315.65 209.24 399.61 209.24 399.61C213.676 401.703 218.426 403.054 223.3 403.61C225.55 403.759 227.807 403.45 229.935 402.703C232.063 401.955 234.017 400.784 235.68 399.26L232.68 312.91L246.4 296.18C246.4 296.18 249 293.22 245 290.21Z" fill="#263238" stroke="#263238" stroke-miterlimit="10" stroke-linecap="round"/>
<path d="M230.28 313.63C230.28 313.63 220.28 311.96 214.55 305.63" stroke="white" stroke-miterlimit="10" stroke-linecap="round"/>
<path d="M285.229 413.9C284.585 413.9 283.946 413.773 283.35 413.527C282.755 413.28 282.213 412.918 281.758 412.462C281.302 412.006 280.94 411.465 280.693 410.869C280.446 410.274 280.319 409.635 280.319 408.99V374.12C280.289 373.456 280.394 372.793 280.628 372.17C280.861 371.548 281.219 370.979 281.678 370.499C282.137 370.018 282.689 369.636 283.301 369.375C283.912 369.113 284.57 368.979 285.234 368.979C285.899 368.979 286.557 369.113 287.168 369.375C287.78 369.636 288.332 370.018 288.791 370.499C289.25 370.979 289.608 371.548 289.841 372.17C290.074 372.793 290.179 373.456 290.149 374.12V409C290.148 409.645 290.02 410.283 289.772 410.878C289.524 411.474 289.161 412.014 288.704 412.469C288.247 412.924 287.705 413.285 287.109 413.53C286.513 413.776 285.874 413.902 285.229 413.9V413.9Z" fill="#263238"/>
<path d="M285.23 383.45C282.755 383.45 280.382 382.467 278.632 380.718C276.883 378.968 275.9 376.595 275.9 374.12V334.82C275.859 333.569 276.07 332.322 276.52 331.153C276.971 329.985 277.652 328.919 278.523 328.019C279.394 327.119 280.437 326.404 281.59 325.915C282.743 325.427 283.982 325.175 285.235 325.175C286.487 325.175 287.726 325.427 288.879 325.915C290.032 326.404 291.075 327.119 291.946 328.019C292.817 328.919 293.498 329.985 293.949 331.153C294.399 332.322 294.611 333.569 294.57 334.82V374.12C294.567 376.596 293.582 378.969 291.83 380.718C290.079 382.468 287.705 383.45 285.23 383.45V383.45Z" fill="#263238"/>
<path d="M276.879 408.5L232.579 429C232.24 429.153 231.953 429.4 231.751 429.712C231.549 430.024 231.441 430.388 231.441 430.76C231.441 431.132 231.549 431.496 231.751 431.808C231.953 432.12 232.24 432.368 232.579 432.52H232.649C235.109 433.52 242.939 430.38 242.939 430.38L274.409 419.75C276.255 419.079 278.255 418.953 280.17 419.387C282.085 419.822 283.834 420.798 285.209 422.2L306.829 448.73C306.829 448.73 310.269 451.73 311.249 448.24C312.229 444.75 295.529 417.24 295.529 417.24C295.529 417.24 296.019 412.33 301.919 410.37C306.329 409 324.999 400.15 324.999 400.15C324.999 400.15 326.999 398.15 323.999 397.69C320.999 397.23 287.649 405.55 287.649 405.55L281.259 392.29C281.259 392.29 278.809 391.8 279.259 395.24C279.709 398.68 280.319 406 276.879 408.5Z" fill="#263238" stroke="#263238" stroke-miterlimit="10" stroke-linecap="round"/>
<path d="M243.479 433.52C243.479 434.438 243.207 435.335 242.697 436.098C242.187 436.861 241.463 437.455 240.615 437.807C239.767 438.158 238.834 438.25 237.934 438.071C237.034 437.892 236.207 437.45 235.558 436.801C234.909 436.152 234.467 435.325 234.288 434.425C234.109 433.525 234.201 432.592 234.552 431.744C234.904 430.896 235.498 430.172 236.261 429.662C237.024 429.152 237.922 428.88 238.839 428.88C240.07 428.88 241.25 429.369 242.12 430.239C242.99 431.109 243.479 432.289 243.479 433.52V433.52Z" fill="#263238" stroke="#263238" stroke-miterlimit="10" stroke-linecap="round"/>
<path d="M325.92 403.38C325.92 404.298 325.648 405.195 325.138 405.958C324.628 406.721 323.903 407.316 323.055 407.667C322.207 408.018 321.275 408.11 320.374 407.931C319.474 407.752 318.648 407.31 317.999 406.661C317.35 406.012 316.908 405.186 316.729 404.285C316.55 403.385 316.642 402.452 316.993 401.605C317.344 400.757 317.939 400.032 318.702 399.522C319.465 399.012 320.362 398.74 321.28 398.74C321.889 398.739 322.493 398.858 323.057 399.091C323.62 399.323 324.132 399.665 324.564 400.096C324.995 400.527 325.336 401.039 325.569 401.603C325.802 402.167 325.921 402.771 325.92 403.38V403.38Z" fill="#263238" stroke="#263238" stroke-miterlimit="10" stroke-linecap="round"/>
<path d="M308.66 445.89C308.66 446.808 308.388 447.705 307.878 448.468C307.368 449.231 306.643 449.826 305.796 450.177C304.948 450.528 304.015 450.62 303.115 450.441C302.215 450.262 301.388 449.82 300.739 449.171C300.09 448.522 299.648 447.695 299.469 446.795C299.29 445.895 299.382 444.962 299.733 444.114C300.084 443.267 300.679 442.542 301.442 442.032C302.205 441.522 303.102 441.25 304.02 441.25C304.63 441.249 305.234 441.368 305.797 441.601C306.361 441.833 306.873 442.175 307.304 442.606C307.735 443.037 308.077 443.549 308.309 444.113C308.542 444.676 308.661 445.28 308.66 445.89Z" fill="#263238" stroke="#263238" stroke-miterlimit="10" stroke-linecap="round"/>
<path d="M236 315C236 315 221.2 320 226.33 324.53C228.21 326.19 274.33 351.73 279.33 352.04C295.05 353.04 340.24 326.99 342.7 321.09C345.16 315.19 330.42 309.3 320.1 303.41C309.78 297.52 288.66 292.11 283.75 294.57C278.84 297.03 236 315 236 315Z" fill="#0987FF" stroke="#263238" stroke-miterlimit="10"/>
<path d="M278.089 110.9C278.089 110.9 273.759 118.41 273.759 122.45C273.759 126.49 274.049 127.06 272.319 129.37C270.589 131.68 264.819 131.97 264.819 134.57C264.819 137.17 266.259 140.05 267.989 140.92L269.719 141.78C269.719 141.78 269.429 151.3 269.429 155.92C269.429 160.54 269.429 164.29 272.029 165.16C274.629 166.03 285.879 166.02 285.879 166.02L290.209 181.89C290.209 181.89 300.889 176.99 306.949 173.81C310.415 171.979 313.981 170.343 317.629 168.91C317.629 168.91 312.429 156.5 313.869 154.19C315.309 151.88 326.279 149.57 330.319 138.32C334.359 127.07 332.059 109.75 323.969 103.69C315.879 97.6301 299.729 95.6101 299.729 95.6101C299.729 95.6101 293.389 88.3901 287.039 86.3701C280.689 84.3501 265.679 89.2601 265.099 100.23C264.519 111.2 278.089 110.9 278.089 110.9Z" fill="white" stroke="#263238" stroke-miterlimit="10" stroke-linecap="round"/>
<path d="M289.92 149.57L287.09 149.99C286.941 152.87 285.969 155.646 284.29 157.99" stroke="#263238" stroke-miterlimit="10" stroke-linecap="round"/>
<path d="M323.999 103.69C315.919 97.6301 299.759 95.6101 299.759 95.6101C299.759 95.6101 293.419 88.3901 287.069 86.3701C280.719 84.3501 265.709 89.2601 265.129 100.23C264.549 111.2 278.129 110.9 278.129 110.9C278.129 110.9 276.399 116.68 277.269 120.43C278.139 124.18 283.039 132.55 284.479 134.28C285.919 136.01 285.629 136.28 289.389 134.57C293.149 132.86 295.729 138.03 294.289 143.22C292.849 148.41 289.959 149.57 289.959 149.57C292.223 152.232 295.094 154.311 298.329 155.63C303.529 157.63 313.909 154.19 313.909 154.19C315.359 151.88 326.319 149.57 330.359 138.32C334.399 127.07 332.059 109.75 323.999 103.69Z" fill="#263238" stroke="#263238" stroke-miterlimit="10" stroke-linecap="round"/>
<path d="M268.089 131.74C267.792 130.215 267.792 128.646 268.089 127.12C268.779 123.12 271.089 120.12 273.179 120.53C273.471 120.588 273.749 120.7 273.999 120.86" stroke="#263238" stroke-miterlimit="10" stroke-linecap="round"/>
<path d="M268.529 125.64L289.349 134.57" stroke="#263238" stroke-miterlimit="10" stroke-linecap="round"/>
<path d="M319.93 101.67C319.326 101.797 318.761 102.064 318.281 102.451C317.8 102.838 317.418 103.333 317.166 103.896C316.913 104.458 316.797 105.073 316.828 105.689C316.858 106.305 317.033 106.905 317.34 107.44C319.34 112.06 323.69 109.44 325.13 115.81C327.487 126.037 326.159 136.767 321.38 146.11C315.03 158.52 310.99 157.11 312.72 160.25C314.45 163.39 323.11 165.45 328.59 163.71C334.07 161.97 337.59 156.79 337.59 156.79C337.59 156.79 335.28 163.71 336.43 164C337.58 164.29 345.67 167.47 354.04 153C362.41 138.53 358.04 132.22 358.04 132.22C358.04 132.22 360.35 138.28 360.63 134.82C360.91 131.36 364.63 118.08 347.63 107.11C330.63 96.1402 319.93 101.67 319.93 101.67Z" fill="#263238" stroke="#263238" stroke-miterlimit="10" stroke-linecap="round"/>
<path d="M270.29 209.25C270.29 209.25 263.78 201.11 261.88 198.4C259.98 195.69 257.27 195.4 253.47 193.79C249.67 192.18 246.96 189.45 245.34 190.26C244.975 190.4 244.654 190.635 244.41 190.941C244.165 191.247 244.007 191.612 243.951 191.999C243.895 192.386 243.943 192.781 244.091 193.143C244.238 193.506 244.48 193.822 244.79 194.06C246.15 195.14 248.59 196.23 249.68 197.06C250.438 197.652 251.163 198.287 251.85 198.96L243.71 203.84L239.91 203.57C239.91 203.57 236.91 194.89 235.84 196.25C234.77 197.61 235.3 201.95 236.66 206.01C238.02 210.07 239.1 212.8 241.54 212.8C243.98 212.8 258.09 210.35 258.09 210.35L266 222.81L275.5 214.68L270.29 209.25Z" fill="white" stroke="#263238" stroke-miterlimit="10" stroke-linecap="round"/>
<path d="M244 207.08L240.75 206.81C240.75 206.81 235.86 197.31 234.51 198.94C233.16 200.57 235.86 206.54 235.86 206.54C235.86 206.54 238.86 211.69 241.02 211.69C243.18 211.69 247.8 208.98 247.8 208.98" fill="white"/>
<path d="M244 207.08L240.75 206.81C240.75 206.81 235.86 197.31 234.51 198.94C233.16 200.57 235.86 206.54 235.86 206.54C235.86 206.54 238.86 211.69 241.02 211.69C243.18 211.69 247.8 208.98 247.8 208.98" stroke="#263238" stroke-miterlimit="10" stroke-linecap="round"/>
<path d="M243.999 209.79H239.099C239.099 209.79 234.219 200.3 232.859 201.93C231.499 203.56 234.219 209.52 234.219 209.52C234.219 209.52 237.219 214.68 239.369 214.68C241.519 214.68 246.149 211.96 246.149 211.96" fill="white"/>
<path d="M243.999 209.79H239.099C239.099 209.79 234.219 200.3 232.859 201.93C231.499 203.56 234.219 209.52 234.219 209.52C234.219 209.52 237.219 214.68 239.369 214.68C241.519 214.68 246.149 211.96 246.149 211.96" stroke="#263238" stroke-miterlimit="10" stroke-linecap="round"/>
<path d="M259.999 211.15C259.999 211.15 239.649 217.39 238.289 216.57C236.929 215.75 229.889 209.25 230.699 207.08C231.509 204.91 233.949 206.54 234.769 207.89C235.589 209.24 239.379 212.5 239.379 212.5C239.379 212.5 251.849 206 254.289 206C256.729 206 258.899 208.72 258.899 208.72" fill="white"/>
<path d="M259.999 211.15C259.999 211.15 239.649 217.39 238.289 216.57C236.929 215.75 229.889 209.25 230.699 207.08C231.509 204.91 233.949 206.54 234.769 207.89C235.589 209.24 239.379 212.5 239.379 212.5C239.379 212.5 251.849 206 254.289 206C256.729 206 258.899 208.72 258.899 208.72" stroke="#263238" stroke-miterlimit="10" stroke-linecap="round"/>
<path d="M284.83 192.49C279.752 197.008 275.05 201.931 270.77 207.21C264.41 215.21 262.77 219.93 262.77 223.27C262.77 226.61 262.43 278.49 262.43 278.49C262.43 278.49 261.09 284.85 261.76 286.19L262.43 287.53C262.43 287.53 249.05 288.87 242.02 287.53C234.99 286.19 230.97 288.53 229.97 297.24C229.356 303.353 229.132 309.499 229.3 315.64C229.3 315.64 253.4 328.69 262.1 332.37C270.8 336.05 284.86 342.37 295.23 338.37C305.6 334.37 321.67 329 327.69 321.3C333.71 313.6 334.39 308.25 334.39 300.22C334.39 292.19 333.39 287.17 334.39 281.81C335.39 276.45 342.08 243.99 344.39 227.93C346.7 211.87 349.07 199.82 343.05 190.45C337.03 181.08 331.68 176.42 328 175.42C324.32 174.42 300.22 184.79 294.2 187.13C290.801 188.384 287.634 190.196 284.83 192.49Z" fill="white" stroke="#263238" stroke-miterlimit="10" stroke-linecap="round"/>
<path d="M263.229 299.66C263.229 299.66 263.229 306.43 271.939 314.17" stroke="#263238" stroke-miterlimit="10" stroke-linecap="round"/>
<path d="M262.399 306.94C262.399 306.94 264.199 316.43 271.939 322.56" stroke="#263238" stroke-miterlimit="10" stroke-linecap="round"/>
<path d="M327.099 215.59C323.929 223.72 317.739 235.59 306.659 243.7" stroke="#263238" stroke-miterlimit="10" stroke-linecap="round"/>
<path d="M329.999 206.52C329.999 206.52 329.689 208 328.939 210.44" stroke="#263238" stroke-miterlimit="10" stroke-linecap="round"/>
<path d="M325.47 228C325.47 228 320.99 236.51 309.79 244.13" stroke="#263238" stroke-miterlimit="10" stroke-linecap="round"/>
<path d="M321.3 167.05C321.3 167.05 293.86 177.05 286.16 183.45C278.46 189.85 275.79 199.85 275.79 199.85C275.79 199.85 289.85 189.47 303.9 185.46C312.899 182.805 321.635 179.33 330 175.08L321.3 167.05Z" fill="white" stroke="#263238" stroke-miterlimit="10" stroke-linecap="round"/>
<path d="M236.299 281.17C236.299 281.17 229.299 277.17 227.599 276.17C225.899 275.17 222.909 274.5 222.239 275.84C221.852 276.564 221.624 277.361 221.569 278.18C221.569 278.18 216.219 278.51 215.569 280.18C214.919 281.85 214.569 282.85 214.569 282.85C214.569 282.85 211.569 283.52 211.569 285.85C211.569 288.18 209.899 291.2 211.239 291.85C211.519 292.027 211.834 292.142 212.162 292.187C212.49 292.232 212.824 292.206 213.142 292.111C213.459 292.017 213.752 291.855 214.002 291.638C214.252 291.42 214.452 291.151 214.589 290.85C214.993 290.043 215.44 289.258 215.929 288.5L218.929 289.84C218.929 289.84 221.929 292.84 224.619 293.52C226.822 293.962 229.063 294.187 231.309 294.19L238.309 283.19L236.299 281.17Z" fill="white" stroke="#263238" stroke-miterlimit="10" stroke-linecap="round"/>
<path d="M271.099 209.22C271.099 209.22 264.099 212.57 261.099 217.92C258.099 223.27 245.379 282.51 245.379 282.51L236.379 281.17C236.379 281.17 232.699 278.49 229.019 285.17C225.339 291.85 228.019 296.55 228.019 296.55C228.019 296.55 249.109 304.91 252.119 305.92C255.129 306.93 259.479 310.6 262.489 306.92C265.499 303.24 283.579 239.65 283.579 239.65" fill="white"/>
<path d="M271.099 209.22C271.099 209.22 264.099 212.57 261.099 217.92C258.099 223.27 245.379 282.51 245.379 282.51L236.379 281.17C236.379 281.17 232.699 278.49 229.019 285.17C225.339 291.85 228.019 296.55 228.019 296.55C228.019 296.55 249.109 304.91 252.119 305.92C255.129 306.93 259.479 310.6 262.489 306.92C265.499 303.24 283.579 239.65 283.579 239.65" stroke="#263238" stroke-miterlimit="10" stroke-linecap="round"/>
<path d="M292.509 263.15L290.419 299.08C290.363 300.052 290.561 301.022 290.993 301.895C291.424 302.768 292.075 303.513 292.882 304.059C293.688 304.604 294.623 304.931 295.594 305.006C296.564 305.082 297.538 304.904 298.419 304.49L356.779 277.05C357.662 276.635 358.422 275.998 358.983 275.2C359.544 274.402 359.888 273.471 359.979 272.5L363.539 235.11C363.631 234.136 363.467 233.155 363.063 232.265C362.659 231.374 362.029 230.604 361.235 230.032C360.442 229.46 359.513 229.105 358.54 229.003C357.567 228.901 356.584 229.055 355.689 229.45L298.319 254.79C296.674 255.512 295.261 256.675 294.235 258.151C293.21 259.626 292.613 261.356 292.509 263.15V263.15Z" fill="#0987FF" stroke="#263238" stroke-miterlimit="10"/>
<path d="M363.539 234.82C362.849 234.85 362.171 235.009 361.539 235.29L304.169 260.63C302.527 261.352 301.116 262.514 300.092 263.987C299.068 265.461 298.472 267.189 298.369 268.98L296.279 304.92V305.02C297.024 304.987 297.755 304.807 298.429 304.49L356.789 277.05C357.672 276.635 358.432 275.998 358.993 275.2C359.554 274.402 359.898 273.471 359.989 272.5L363.549 235.11C363.539 235 363.539 234.91 363.539 234.82Z" fill="#0987FF" stroke="#263238" stroke-miterlimit="10"/>
<path d="M331.159 268.86H331.059C329.513 268.86 328.028 269.468 326.926 270.553C325.824 271.639 325.193 273.114 325.169 274.66L324.099 338.16C324.097 338.666 323.961 339.162 323.707 339.599C323.452 340.036 323.088 340.398 322.649 340.65C322.215 340.912 321.72 341.056 321.214 341.068C320.707 341.08 320.206 340.96 319.759 340.72L316.379 338.92C312.319 341.06 308.109 343.12 303.979 344.92C304.497 345.67 305.182 346.289 305.979 346.73L314.179 351.09C316.407 352.275 318.902 352.868 321.425 352.813C323.948 352.758 326.414 352.056 328.588 350.774C330.761 349.493 332.57 347.674 333.839 345.494C335.109 343.313 335.798 340.843 335.839 338.32L336.909 274.82C336.928 273.27 336.335 271.775 335.259 270.659C334.182 269.543 332.709 268.897 331.159 268.86V268.86Z" fill="#263238"/>
</svg>
