<svg width="426" height="385" viewBox="0 0 426 385" fill="none" xmlns="http://www.w3.org/2000/svg">
<path d="M100.65 51C100.65 51 53.0897 97.09 38.9997 149.38C24.9097 201.67 45.2897 256.56 93.2197 286.94C141.15 317.32 205.1 290.94 268.7 299.62C332.3 308.3 391.28 283.56 399.15 219.82C407.02 156.08 361.01 147.82 333.27 85.82C305.53 23.82 215.16 -51.18 100.65 51Z" fill="#0987FF"/>
<path opacity="0.7" d="M100.65 51C100.65 51 53.0897 97.09 38.9997 149.38C24.9097 201.67 45.2897 256.56 93.2197 286.94C141.15 317.32 205.1 290.94 268.7 299.62C332.3 308.3 391.28 283.56 399.15 219.82C407.02 156.08 361.01 147.82 333.27 85.82C305.53 23.82 215.16 -51.18 100.65 51Z" fill="white"/>
<path d="M218.48 384.86C325.071 384.86 411.48 369.512 411.48 350.58C411.48 331.648 325.071 316.3 218.48 316.3C111.89 316.3 25.4805 331.648 25.4805 350.58C25.4805 369.512 111.89 384.86 218.48 384.86Z" fill="#0987FF"/>
<path opacity="0.5" d="M218.48 384.86C325.071 384.86 411.48 369.512 411.48 350.58C411.48 331.648 325.071 316.3 218.48 316.3C111.89 316.3 25.4805 331.648 25.4805 350.58C25.4805 369.512 111.89 384.86 218.48 384.86Z" fill="white"/>
<path d="M407.74 173.33C407.74 173.33 407.74 169.13 401.86 163.24C395.98 157.35 392.19 154 392.19 154C392.19 154 389.25 163.66 394.71 169.55C398.721 173.684 403.069 177.477 407.71 180.89L407.74 173.33Z" fill="#0987FF"/>
<path d="M399.2 199.57C399.2 199.57 399.2 195.37 393.32 189.49C387.44 183.61 383.66 180.24 383.66 180.24C383.66 180.24 380.66 189.91 386.18 195.79C390.189 199.926 394.538 203.719 399.18 207.13L399.2 199.57Z" fill="#0987FF"/>
<path d="M407.37 180.49C407.37 180.49 407.81 176.31 414.29 171.08C420.77 165.85 424.87 162.91 424.87 162.91C424.87 162.91 426.78 172.83 420.72 178.1C416.287 181.788 411.554 185.099 406.57 188L407.37 180.49Z" fill="#0987FF"/>
<path d="M397.06 211.48C397.06 211.48 397.94 207.37 404.92 202.85C411.9 198.33 416.31 195.85 416.31 195.85C416.31 195.85 417.16 205.92 410.59 210.53C405.79 213.73 400.732 216.527 395.47 218.89L397.06 211.48Z" fill="#0987FF"/>
<path d="M399 245.27C399 245.27 399 241.06 404.88 235.18C410.76 229.3 414.54 225.94 414.54 225.94C414.54 225.94 417.48 235.6 412.02 241.48C408.012 245.621 403.664 249.417 399.02 252.83L399 245.27Z" fill="#0987FF"/>
<path d="M398.9 253.51C398.9 253.51 399.49 249.35 394.51 242.69C389.53 236.03 386.26 232.17 386.26 232.17C386.26 232.17 381.97 241.32 386.54 247.92C389.928 252.588 393.701 256.963 397.82 261L398.9 253.51Z" fill="#0987FF"/>
<path d="M393.1 278C393.1 278 393.1 273.8 398.98 267.92C404.86 262.04 408.64 258.68 408.64 258.68C408.64 258.68 411.59 268.34 406.12 274.22C402.112 278.361 397.763 282.157 393.12 285.57L393.1 278Z" fill="#0987FF"/>
<path d="M397 300.12C397 300.12 395.93 296.05 400.13 288.87C404.33 281.69 407.13 277.48 407.13 277.48C407.13 277.48 412.42 286.08 408.63 293.16C405.788 298.178 402.533 302.951 398.9 307.43L397 300.12Z" fill="#0987FF"/>
<path d="M408.27 172.25C407.976 176.627 407.438 180.983 406.66 185.3C404.34 197.3 398.52 205.06 396.2 215.92C393.88 226.78 400.55 240.75 398.76 254.69C396.97 268.63 391.55 276.38 393.1 285.69C394.65 295 402.97 321.09 402.97 321.09" stroke="#263238" stroke-width="0.75" stroke-linecap="round" stroke-linejoin="round"/>
<path d="M407.31 183.28L413.65 178.41" stroke="#263238" stroke-width="0.75" stroke-linecap="round" stroke-linejoin="round"/>
<path d="M407.61 177.68L404.95 172.96" stroke="#263238" stroke-width="0.75" stroke-linecap="round" stroke-linejoin="round"/>
<path d="M396.55 215.42C396.55 215.42 401.86 211.42 407.31 207.42" stroke="#263238" stroke-width="0.75" stroke-linecap="round" stroke-linejoin="round"/>
<path d="M398.92 206.39C396.333 201.536 393.268 196.953 389.77 192.71" stroke="#263238" stroke-width="0.75" stroke-linecap="round" stroke-linejoin="round"/>
<path d="M399.2 251.24C402.231 245.656 406.058 240.542 410.56 236.06" stroke="#263238" stroke-width="0.75" stroke-linecap="round" stroke-linejoin="round"/>
<path d="M398.17 257.14C396.561 253.349 394.638 249.7 392.42 246.23C389.33 241.66 388.88 241.07 388.88 241.07" stroke="#263238" stroke-width="0.75" stroke-linecap="round" stroke-linejoin="round"/>
<path d="M393.1 285.68C394.442 282.338 396.04 279.105 397.88 276.01C399.717 273.141 401.787 270.429 404.07 267.9" stroke="#263238" stroke-width="0.75" stroke-linecap="round" stroke-linejoin="round"/>
<path d="M398.94 307.43C398.634 304.244 399.183 301.034 400.53 298.13C402.74 293.85 405.25 288.25 406.28 286.04" stroke="#263238" stroke-width="0.75" stroke-linecap="round" stroke-linejoin="round"/>
<path d="M369.22 229.46C369.22 229.46 368.76 226.83 371.81 222.46C374.86 218.09 376.87 215.61 376.87 215.61C376.87 215.61 379.76 221.36 376.98 225.61C374.907 228.641 372.586 231.494 370.04 234.14L369.22 229.46Z" fill="#0987FF"/>
<path d="M377.42 245C377.42 245 376.97 242.37 380.02 238C383.07 233.63 385.07 231.15 385.07 231.15C385.07 231.15 387.97 236.89 385.18 241.15C383.108 244.179 380.787 247.029 378.24 249.67L377.42 245Z" fill="#0987FF"/>
<path d="M370.23 233.91C370.23 233.91 369.5 231.34 364.87 228.76C360.24 226.18 357.34 224.76 357.34 224.76C357.34 224.76 357.23 231.19 361.6 233.83C364.78 235.666 368.108 237.231 371.55 238.51L370.23 233.91Z" fill="#0987FF"/>
<path d="M380.06 252.22C380.06 252.22 379.06 249.74 374.19 247.67C369.32 245.6 366.29 244.51 366.29 244.51C366.29 244.51 366.85 250.91 371.47 253.09C374.827 254.577 378.303 255.781 381.86 256.69L380.06 252.22Z" fill="#0987FF"/>
<path d="M382.51 273.62C382.51 273.62 382.06 270.99 377.73 267.94C373.4 264.89 370.66 263.19 370.66 263.19C370.66 263.19 369.87 269.57 373.93 272.67C376.901 274.825 380.045 276.732 383.33 278.37L382.51 273.62Z" fill="#0987FF"/>
<path d="M383.47 278.78C383.47 278.78 382.64 276.24 385.05 271.52C387.46 266.8 389.05 264.03 389.05 264.03C389.05 264.03 392.73 269.3 390.58 273.93C388.964 277.226 387.074 280.38 384.93 283.36L383.47 278.78Z" fill="#0987FF"/>
<path d="M390.85 300C390.85 300 391.16 297.34 395.3 294C399.44 290.66 402.08 288.86 402.08 288.86C402.08 288.86 403.24 295.18 399.36 298.5C396.521 300.828 393.49 302.912 390.3 304.73L390.85 300Z" fill="#0987FF"/>
<path d="M389.76 293.48C389.76 293.48 389.3 290.85 384.98 287.8C380.66 284.75 377.91 283.05 377.91 283.05C377.91 283.05 377.12 289.43 381.18 292.52C384.148 294.683 387.292 296.593 390.58 298.23L389.76 293.48Z" fill="#0987FF"/>
<path d="M389.699 307.81C389.699 307.81 389.929 305.14 386.509 301.09C383.089 297.04 380.879 294.71 380.879 294.71C380.879 294.71 378.499 300.71 381.649 304.71C383.973 307.55 386.532 310.19 389.299 312.6L389.699 307.81Z" fill="#0987FF"/>
<path d="M368.77 228.85C369.433 231.558 370.241 234.228 371.19 236.85C373.96 244.13 378.44 248.36 381.08 254.92C383.72 261.48 381.08 270.92 383.68 279.51C386.28 288.1 390.56 292.32 390.6 298.32C390.64 304.32 388.27 321 388.27 321" stroke="#263238" stroke-width="0.75" stroke-linecap="round" stroke-linejoin="round"/>
<path d="M370.57 235.66L366.06 233.29" stroke="#263238" stroke-width="0.75" stroke-linecap="round" stroke-linejoin="round"/>
<path d="M369.77 232.17L370.93 228.93" stroke="#263238" stroke-width="0.75" stroke-linecap="round" stroke-linejoin="round"/>
<path d="M380.809 254.64C380.809 254.64 377.039 252.72 373.189 250.82" stroke="#263238" stroke-width="0.75" stroke-linecap="round" stroke-linejoin="round"/>
<path d="M378.21 248.91C379.409 245.713 380.875 242.622 382.59 239.67" stroke="#263238" stroke-width="0.75" stroke-linecap="round" stroke-linejoin="round"/>
<path d="M382.999 277.39C380.49 274.219 377.537 271.427 374.229 269.1" stroke="#263238" stroke-width="0.75" stroke-linecap="round" stroke-linejoin="round"/>
<path d="M384.32 281C384.917 278.447 385.726 275.948 386.74 273.53C388.18 270.33 388.4 269.92 388.4 269.92" stroke="#263238" stroke-width="0.75" stroke-linecap="round" stroke-linejoin="round"/>
<path d="M390.39 302.88C391.856 301.074 393.479 299.401 395.24 297.88C396.358 297.052 397.408 296.135 398.38 295.14" stroke="#263238" stroke-width="0.75" stroke-linecap="round" stroke-linejoin="round"/>
<path d="M390.6 298.32C389.394 296.372 388.04 294.52 386.55 292.78C385.086 291.183 383.494 289.708 381.79 288.37" stroke="#263238" stroke-width="0.75" stroke-linecap="round" stroke-linejoin="round"/>
<path d="M389.3 312.6C389.147 310.569 388.457 308.616 387.3 306.94C385.45 304.5 383.3 301.26 382.38 299.94" stroke="#263238" stroke-width="0.75" stroke-linecap="round" stroke-linejoin="round"/>
<path d="M380.84 318.84H409.53V333.67C409.53 334.33 409.268 334.964 408.801 335.431C408.334 335.898 407.7 336.16 407.04 336.16H383.33C382.669 336.16 382.036 335.898 381.569 335.431C381.102 334.964 380.84 334.33 380.84 333.67V318.84Z" fill="#263238" stroke="#263238" stroke-linecap="round" stroke-linejoin="round"/>
<path d="M43.2397 193.16C43.2397 193.16 43.2397 189.58 38.2397 184.58C33.2397 179.58 29.9997 176.72 29.9997 176.72C29.9997 176.72 27.4997 184.94 32.1397 189.94C35.5593 193.458 39.2654 196.686 43.2197 199.59L43.2397 193.16Z" fill="#0987FF"/>
<path d="M35.9995 215.47C35.9995 215.47 35.9995 211.9 30.9995 206.9C25.9995 201.9 22.7595 199 22.7595 199C22.7595 199 20.2595 207.21 24.8995 212.22C28.3225 215.751 32.0355 218.989 35.9995 221.9V215.47Z" fill="#0987FF"/>
<path d="M42.9303 199.24C42.9303 199.24 43.3003 195.69 48.8103 191.24C54.3203 186.79 57.8103 184.3 57.8103 184.3C57.8103 184.3 59.4303 192.73 54.2803 197.22C50.5205 200.354 46.5066 203.171 42.2803 205.64L42.9303 199.24Z" fill="#0987FF"/>
<path d="M34.1596 225.6C34.1596 225.6 34.9096 222.1 40.8396 218.26C46.7696 214.42 50.5296 212.26 50.5296 212.26C50.5296 212.26 51.2496 220.81 45.6596 224.73C41.5819 227.457 37.2836 229.838 32.8096 231.85L34.1596 225.6Z" fill="#0987FF"/>
<path d="M35.8103 254.33C35.8103 254.33 35.8103 250.76 40.8103 245.75C45.8103 240.74 49.0003 237.89 49.0003 237.89C49.0003 237.89 51.5003 246.11 46.8503 251.11C43.4385 254.633 39.7354 257.861 35.7803 260.76L35.8103 254.33Z" fill="#0987FF"/>
<path d="M35.7204 261.34C35.7204 261.34 36.2303 257.81 31.9903 252.14C27.7503 246.47 24.9904 243.19 24.9904 243.19C24.9904 243.19 21.3503 250.97 25.2303 256.59C28.1145 260.558 31.3257 264.278 34.8304 267.71L35.7204 261.34Z" fill="#0987FF"/>
<path d="M30.7903 282.13C30.7903 282.13 30.7903 278.56 35.7903 273.55C40.7903 268.54 44.0003 265.69 44.0003 265.69C44.0003 265.69 46.5003 273.91 41.8603 278.91C38.4407 282.428 34.7346 285.656 30.7803 288.56L30.7903 282.13Z" fill="#0987FF"/>
<path d="M34.1297 301C34.1297 301 33.2197 297.55 36.7997 291.44C40.3797 285.33 42.7997 281.75 42.7997 281.75C42.7997 281.75 47.2597 289 43.9997 295.06C41.5843 299.326 38.8181 303.383 35.7297 307.19L34.1297 301Z" fill="#0987FF"/>
<path d="M43.69 192.24C43.4409 195.963 42.9835 199.668 42.32 203.34C40.32 213.55 35.4 220.14 33.43 229.34C31.46 238.54 37.13 250.46 35.61 262.34C34.09 274.22 29.47 280.78 30.79 288.69C32.11 296.6 39.19 318.8 39.19 318.8" stroke="#263238" stroke-width="0.75" stroke-linecap="round" stroke-linejoin="round"/>
<path d="M42.8799 201.62L48.2699 197.48" stroke="#263238" stroke-width="0.75" stroke-linecap="round" stroke-linejoin="round"/>
<path d="M43.1301 196.85L40.8701 192.84" stroke="#263238" stroke-width="0.75" stroke-linecap="round" stroke-linejoin="round"/>
<path d="M33.7295 229C33.7295 229 38.2395 225.61 42.8795 222.23" stroke="#263238" stroke-width="0.75" stroke-linecap="round" stroke-linejoin="round"/>
<path d="M35.74 221.27C33.5533 217.145 30.9605 213.25 28 209.64" stroke="#263238" stroke-width="0.75" stroke-linecap="round" stroke-linejoin="round"/>
<path d="M36 259.41C38.5782 254.662 41.8322 250.313 45.66 246.5" stroke="#263238" stroke-width="0.75" stroke-linecap="round" stroke-linejoin="round"/>
<path d="M35.0997 264.43C33.7334 261.207 32.1011 258.103 30.2197 255.15C27.5797 251.26 27.2197 250.76 27.2197 250.76" stroke="#263238" stroke-width="0.75" stroke-linecap="round" stroke-linejoin="round"/>
<path d="M30.79 288.69C31.9346 285.852 33.2918 283.104 34.85 280.47C36.4155 278.033 38.1781 275.729 40.12 273.58" stroke="#263238" stroke-width="0.75" stroke-linecap="round" stroke-linejoin="round"/>
<path d="M35.7603 307.19C35.4986 304.48 35.9646 301.75 37.1103 299.28C38.9903 295.64 41.1103 290.88 42.0003 289" stroke="#263238" stroke-width="0.75" stroke-linecap="round" stroke-linejoin="round"/>
<path d="M10.4795 240.89C10.4795 240.89 10.0995 238.65 12.6895 234.97C15.2795 231.29 16.9895 229.15 16.9895 229.15C16.9895 229.15 19.4495 234.03 17.0795 237.67C15.3187 240.247 13.3451 242.672 11.1795 244.92L10.4795 240.89Z" fill="#0987FF"/>
<path d="M17.4602 254.1C17.4602 254.1 17.0702 251.86 19.6702 248.18C22.2702 244.5 23.9702 242.35 23.9702 242.35C23.9702 242.35 26.4302 247.24 24.0602 250.88C22.2994 253.457 20.3258 255.882 18.1602 258.13L17.4602 254.1Z" fill="#0987FF"/>
<path d="M11.3399 244.67C11.3399 244.67 10.7199 242.49 6.78991 240.3C2.85991 238.11 0.38991 236.92 0.38991 236.92C0.38991 236.92 0.289911 242.38 3.99991 244.64C6.70378 246.206 9.53359 247.544 12.4599 248.64L11.3399 244.67Z" fill="#0987FF"/>
<path d="M19.7 260.25C19.7 260.25 18.85 258.14 14.7 256.37C10.55 254.6 8 253.68 8 253.68C8 253.68 8.48 259.13 12.41 260.98C15.263 262.247 18.2165 263.274 21.24 264.05L19.7 260.25Z" fill="#0987FF"/>
<path d="M21.7896 278.44C21.7896 278.44 21.3996 276.2 17.7196 273.61C14.0396 271.02 11.7196 269.61 11.7196 269.61C11.7196 269.61 10.9996 275 14.4896 277.63C17.0176 279.465 19.6935 281.087 22.4896 282.48L21.7896 278.44Z" fill="#0987FF"/>
<path d="M22.6003 282.83C22.6003 282.83 21.9003 280.67 23.9403 276.66C25.9803 272.65 27.3703 270.29 27.3703 270.29C27.3703 270.29 30.5003 274.77 28.6703 278.71C27.2972 281.506 25.6915 284.182 23.8703 286.71L22.6003 282.83Z" fill="#0987FF"/>
<path d="M28.8801 300.91C28.8801 300.91 29.1402 298.65 32.6702 295.85C36.2002 293.05 38.4302 291.48 38.4302 291.48C38.4302 291.48 39.4302 296.85 36.1202 299.68C33.703 301.665 31.124 303.445 28.4102 305L28.8801 300.91Z" fill="#0987FF"/>
<path d="M28.0001 295.33C28.0001 295.33 27.6101 293.09 23.9301 290.5C20.2501 287.91 17.9301 286.5 17.9301 286.5C17.9301 286.5 17.2501 291.93 20.7101 294.56C23.237 296.397 25.913 298.019 28.7101 299.41L28.0001 295.33Z" fill="#0987FF"/>
<path d="M27.9004 307.51C27.9004 307.51 28.0904 305.25 25.1904 301.8C22.2904 298.35 20.4004 296.38 20.4004 296.38C20.4004 296.38 18.4004 301.45 21.0504 304.88C23.0299 307.294 25.2074 309.538 27.5604 311.59L27.9004 307.51Z" fill="#0987FF"/>
<path d="M10.0996 240.37C10.6653 242.675 11.3529 244.948 12.1596 247.18C14.5096 253.37 18.3296 256.96 20.5696 262.54C22.8096 268.12 20.5696 276.18 22.7796 283.45C24.9896 290.72 28.6296 294.35 28.6596 299.45C28.6896 304.55 26.6596 318.74 26.6596 318.74" stroke="#263238" stroke-width="0.75" stroke-linecap="round" stroke-linejoin="round"/>
<path d="M11.6298 246.16L7.7998 244.15" stroke="#263238" stroke-width="0.75" stroke-linecap="round" stroke-linejoin="round"/>
<path d="M10.96 243.2L11.94 240.44" stroke="#263238" stroke-width="0.75" stroke-linecap="round" stroke-linejoin="round"/>
<path d="M20.3404 262.3C20.3404 262.3 17.1404 260.67 13.8604 259.05" stroke="#263238" stroke-width="0.75" stroke-linecap="round" stroke-linejoin="round"/>
<path d="M18.1299 257.43C19.1542 254.712 20.4018 252.083 21.8599 249.57" stroke="#263238" stroke-width="0.75" stroke-linecap="round" stroke-linejoin="round"/>
<path d="M22.2295 281.65C20.0929 278.97 17.5803 276.612 14.7695 274.65" stroke="#263238" stroke-width="0.75" stroke-linecap="round" stroke-linejoin="round"/>
<path d="M23.3203 284.7C23.8304 282.53 24.5195 280.406 25.3803 278.35C26.6103 275.63 26.7903 275.27 26.7903 275.27" stroke="#263238" stroke-width="0.75" stroke-linecap="round" stroke-linejoin="round"/>
<path d="M28.4902 303.32C29.734 301.777 31.1128 300.348 32.6102 299.05C33.5613 298.346 34.4541 297.567 35.2802 296.72" stroke="#263238" stroke-width="0.75" stroke-linecap="round" stroke-linejoin="round"/>
<path d="M28.6597 299.45C27.6362 297.794 26.4861 296.219 25.2197 294.74C23.9917 293.379 22.6538 292.122 21.2197 290.98" stroke="#263238" stroke-width="0.75" stroke-linecap="round" stroke-linejoin="round"/>
<path d="M27.5599 311.59C27.4252 309.861 26.8352 308.198 25.8499 306.77C24.2799 304.7 22.4199 301.94 21.6699 300.86" stroke="#263238" stroke-width="0.75" stroke-linecap="round" stroke-linejoin="round"/>
<path d="M18.8398 318.84H47.5298V333.67C47.5299 334 47.4642 334.327 47.3366 334.632C47.2089 334.937 47.0219 335.213 46.7865 335.445C46.551 335.677 46.2717 335.859 45.965 335.982C45.6583 336.105 45.3302 336.165 44.9998 336.16H21.3298C20.6695 336.16 20.0361 335.898 19.5691 335.431C19.1022 334.964 18.8398 334.33 18.8398 333.67V318.84V318.84Z" fill="#263238" stroke="#263238" stroke-linecap="round" stroke-linejoin="round"/>
<path d="M292.14 133C288.64 137.358 286.264 142.509 285.22 148C283.38 157.33 278.85 174.86 279.42 180.94C279.99 187.02 281.42 190.41 286.91 191.4C292.4 192.39 295.53 187.58 296.67 183.48C297.393 180.782 297.957 178.044 298.36 175.28L299.49 153C299.49 153 297.49 139.61 296.54 136.79C295.59 133.97 292.14 133 292.14 133Z" fill="#0987FF" stroke="#263238" stroke-linecap="round" stroke-linejoin="round"/>
<path d="M365.68 128.54C365.68 128.54 367.68 128.1 369.58 135.04C371.48 141.98 373.77 151.94 377.52 164.22C381.27 176.5 382 180.55 381.71 183.29C381.42 186.03 379.26 189.07 371.71 189.07C364.16 189.07 360.71 186.18 358.71 179.68C356.71 173.18 357 153.1 356.86 150.5C356.72 147.9 363.36 127.24 365.68 128.54Z" fill="#0987FF" stroke="#263238" stroke-linecap="round" stroke-linejoin="round"/>
<path d="M314.099 344.24C314.099 344.24 309.189 349.44 306.299 352.77C303.409 356.1 302.399 358.11 307.159 360.13C311.919 362.15 319.299 359.13 321.469 355.8C323.639 352.47 328.259 348.72 328.259 348.72C328.259 348.72 330.709 345.98 327.529 342.08C324.349 338.18 315.539 342.65 314.099 344.24Z" fill="white" stroke="#263238" stroke-linecap="round" stroke-linejoin="round"/>
<path d="M343.569 348.58C343.569 348.58 348.479 349.3 351.079 351.58C353.679 353.86 362.789 358.95 368.849 356.49C374.909 354.03 371.019 349.99 367.699 347.1C365.835 345.446 363.8 343.995 361.629 342.77C361.629 342.77 351.949 342.05 347.629 344.21C343.309 346.37 343.569 348.58 343.569 348.58Z" fill="white" stroke="#263238" stroke-linecap="round" stroke-linejoin="round"/>
<path d="M308.46 281.39C308.46 281.39 310.78 298.73 309.62 303.93C308.46 309.13 305.14 312.17 307.62 317.23C309.455 321.142 310.799 325.267 311.62 329.51C311.91 331.24 310.32 331.67 311.62 333.51C312.567 334.696 313.345 336.009 313.93 337.41C313.93 337.85 312.2 340.3 312.2 340.88C312.2 341.46 313.07 345.07 313.07 345.07C313.07 345.07 317.69 344.07 321.01 345.36C323.415 346.396 325.693 347.704 327.8 349.26C327.8 349.26 330.8 348.1 331.85 346.37C332.416 345.463 332.759 344.435 332.85 343.37C332.99 342.79 334.44 339.75 334.3 337.44C334.16 335.13 332.56 330.22 332.56 327.33C332.56 324.44 334.73 321.26 334.73 316.64C334.73 312.02 332.56 282.4 332.56 282.4L334.56 281.67C334.56 281.67 337.74 299.3 337.74 307.54C337.74 315.78 335.29 326.03 336.88 328.05C338.47 330.07 340.34 331.81 340.34 332.24C340.34 332.67 338.46 335.85 338.9 337.44C339.586 339.529 340.163 341.651 340.63 343.8C340.63 344.67 342.22 347.99 343.52 348.57C344.82 349.15 345.52 347.84 353.2 346.26C360.88 344.68 365.2 345.1 364.47 342.79C363.74 340.48 363.03 337.44 362.16 336.86C361.29 336.28 362.45 335.86 362.16 333.69C361.87 331.52 360.28 329.21 358.84 325.74C357.4 322.27 359.41 318.52 359.99 314.9C360.57 311.28 359.7 305.9 358.26 300.02C356.82 294.14 358.11 279.65 358.11 279.65L358.84 274.02C358.84 274.02 336.73 276.02 323.15 275.89L308.56 275.75C308.56 275.75 307.6 276.77 308.46 281.39Z" fill="#263238" stroke="#263238" stroke-linecap="round" stroke-linejoin="round"/>
<path d="M364.52 221C364.52 221 366.52 247.3 369.14 261C370.648 268.732 371.604 276.562 372 284.43H361.49C361.05 284.43 362.21 235.74 362.49 231.43C362.871 227.902 363.55 224.413 364.52 221V221Z" fill="#0987FF" stroke="#263238" stroke-linecap="round" stroke-linejoin="round"/>
<path d="M321 114C321 114 308.72 122.23 302.37 125.12C296.02 128.01 292.54 131.77 292.11 133.12C291.68 134.47 299.04 155.22 299.04 155.22C299.04 155.22 298.61 223.85 298.61 235.41C298.61 246.97 295 281.78 295.43 281.78C295.86 281.78 307.43 289.3 323.31 289.73C339.19 290.16 344.31 287.85 349.31 287.85C354.31 287.85 364.31 287.85 364.48 286.41C364.65 284.97 364.77 253.03 364.91 238.15C365.05 223.27 365.2 212.72 364.91 210.27C364.62 207.82 360.58 154.93 360.58 154.93C360.58 154.93 363.58 146.12 365.35 139.04C367.12 131.96 367.08 131.09 364.91 127.92C362.74 124.75 346.46 116.11 343.57 115C340.019 113.757 336.321 112.98 332.57 112.69C329.85 112.5 321 114 321 114Z" fill="#0987FF" stroke="#263238" stroke-linecap="round" stroke-linejoin="round"/>
<path d="M293.87 172.75C293.87 172.75 295.75 177.08 298.06 178.96C300.37 180.84 305.72 181.71 306.87 184.6C308.02 187.49 306.87 189.65 305.57 193.12C304.27 196.59 305 202.37 300.23 203.12C295.46 203.87 294.02 202.12 290.11 199.36C286.2 196.6 283.76 196.18 281.45 191.99C279.14 187.8 278.45 181.99 280.45 178.85" fill="#0987FF"/>
<path d="M293.87 172.75C293.87 172.75 295.75 177.08 298.06 178.96C300.37 180.84 305.72 181.71 306.87 184.6C308.02 187.49 306.87 189.65 305.57 193.12C304.27 196.59 305 202.37 300.23 203.12C295.46 203.87 294.02 202.12 290.11 199.36C286.2 196.6 283.76 196.18 281.45 191.99C279.14 187.8 278.45 181.99 280.45 178.85" stroke="#263238" stroke-linecap="round" stroke-linejoin="round"/>
<path d="M320.46 108.31L320 120.45C320 120.45 318.85 122.18 325.78 122.61C330.235 122.844 334.701 122.508 339.07 121.61L337.92 108.47C337.92 108.47 330.69 111.47 326.5 110.06C324.535 109.321 322.516 108.736 320.46 108.31V108.31Z" fill="white" stroke="#263238" stroke-linecap="round" stroke-linejoin="round"/>
<path d="M317.71 105.28C317.71 105.28 316.71 119.28 315.98 123.48C315.25 127.68 315.4 130.27 316.98 131.28C318.56 132.29 327.81 135.91 332.58 135.62C337.35 135.33 344.58 130.99 345.15 129.69C345.72 128.39 340.83 108 340.83 108L340.1 108.87C340.1 108.87 341.4 119.56 340.97 119.87C340.54 120.18 323.78 119 320.74 118.87C317.7 118.74 318.58 118.58 318.58 118.58L318.43 106.3L317.71 105.28Z" fill="white" stroke="#263238" stroke-linecap="round" stroke-linejoin="round"/>
<path d="M317.25 121.94C317.25 121.94 333.04 124.27 342.51 122.44" stroke="#263238" stroke-width="0.5" stroke-miterlimit="10"/>
<path d="M316.59 125.6C316.59 125.6 327.59 130.25 342.51 126.09" stroke="#263238" stroke-width="0.5" stroke-miterlimit="10"/>
<path d="M317.75 129.92C317.75 129.92 328.22 135.57 342.51 129.58" stroke="#263238" stroke-width="0.5" stroke-miterlimit="10"/>
<path d="M343.29 90.54C343.65 86.1 343.95 81.54 342.85 79.27C341.12 75.66 335.91 71.47 328.4 71.76C320.89 72.05 314.53 74.94 314.68 84.18C314.68 84.18 315 86.93 315.37 90.3C314.682 91.7716 314.442 93.413 314.68 95.02C314.913 96.5619 315.454 98.0412 316.27 99.37C316.34 100.23 316.39 100.97 316.41 101.52C316.55 105.42 319.15 110.04 321.47 111.63C323.79 113.22 328.11 115.68 330.86 115.68C333.61 115.68 338.51 113.08 340.86 109.32C342.68 106.32 342.86 104.32 342.86 100.79H343C343.414 98.936 343.658 97.0482 343.73 95.15C343.789 93.6006 343.641 92.0502 343.29 90.54Z" fill="white" stroke="#263238" stroke-linecap="round" stroke-linejoin="round"/>
<path d="M316 91.41C316 91.41 316.43 95.02 317.15 94.87C317.87 94.72 318.74 89.53 318.74 89.53L316 91.41Z" fill="#263238" stroke="#263238" stroke-linecap="round" stroke-linejoin="round"/>
<path d="M340.54 91C340.54 91 340.54 95.05 341.54 95.63C342.54 96.21 343.27 92.16 343.27 92.16C342.451 91.5873 341.521 91.1921 340.54 91V91Z" fill="#263238" stroke="#263238" stroke-linecap="round" stroke-linejoin="round"/>
<path d="M342.85 79.27C341.12 75.66 335.91 71.47 328.4 71.76C320.89 72.05 314.53 74.94 314.68 84.18C314.68 84.18 315 86.93 315.37 90.3C314.914 91.2771 314.653 92.3333 314.6 93.41C317.41 91.16 322.67 87.94 329.27 88.52C334.405 89.1053 339.342 90.8454 343.71 93.61C343.664 92.576 343.523 91.5483 343.29 90.54C343.65 86.1 344 81.57 342.85 79.27Z" fill="#0987FF" stroke="#263238" stroke-linecap="round" stroke-linejoin="round"/>
<path d="M327.39 94L326.52 99.2C326.52 99.2 324.93 99.34 325.52 100.35C326.11 101.36 329.13 102.52 330.58 102.09C332.03 101.66 333.47 100.21 333.32 99.63C333.275 99.4565 333.185 99.2981 333.058 99.1715C332.932 99.0448 332.773 98.9545 332.6 98.91L330.72 93.56" stroke="#263238" stroke-linecap="round" stroke-linejoin="round"/>
<path d="M325.8 104.7C328.574 105.299 331.454 105.199 334.18 104.41" stroke="#263238" stroke-linecap="round" stroke-linejoin="round"/>
<path d="M324.209 93.79C324.209 94.55 323.819 95.16 323.339 95.16C322.859 95.16 322.479 94.55 322.479 93.79C322.479 93.03 322.869 92.42 323.339 92.42C323.809 92.42 324.209 93 324.209 93.79Z" fill="#263238"/>
<path d="M335.19 93.72C335.19 94.48 334.8 95.09 334.33 95.09C333.86 95.09 333.46 94.48 333.46 93.72C333.46 92.96 333.85 92.35 334.33 92.35C334.81 92.35 335.19 93 335.19 93.72Z" fill="#263238"/>
<path d="M320.89 91.7C320.89 91.7 321.89 89.24 325.08 90.11" stroke="#263238" stroke-linecap="round" stroke-linejoin="round"/>
<path d="M331.58 90.25C331.58 90.25 334.58 88.08 336.78 91.84" stroke="#263238" stroke-linecap="round" stroke-linejoin="round"/>
<path d="M304.27 190.81C304.27 190.81 313.09 192.81 315.11 192.4C317.757 191.906 320.182 190.59 322.04 188.64C324.65 186.04 326.81 183.87 326.81 186.04C326.819 186.896 326.657 187.746 326.334 188.539C326.012 189.332 325.534 190.053 324.93 190.66C323.93 191.82 322.04 193.12 321.61 195C321.18 196.88 321.76 198.32 324.07 199.19C326.38 200.06 333.6 201.35 333.6 203.19C333.6 205.03 333.02 209.41 330.42 210.85C327.82 212.29 321.47 211.28 321.47 211.28C321.47 211.28 326.67 214.17 325.66 214.9C324.65 215.63 321.61 214.61 320.17 213.31C318.73 212.01 318.17 211.86 313.95 208.83C309.73 205.8 306.15 202.18 304.13 201.03C303.035 200.517 302.024 199.843 301.13 199.03C299.97 198.03 299.54 196.03 300.4 193.69C300.693 192.997 301.127 192.372 301.674 191.856C302.222 191.339 302.871 190.942 303.58 190.69L304.27 190.81Z" fill="white" stroke="#263238" stroke-linecap="round" stroke-linejoin="round"/>
<path d="M372.9 174.34C372.9 174.34 362.5 176.34 361.49 177.08C360.48 177.82 361.49 180.84 361.49 180.84C361.49 180.84 352.67 185.03 349.35 187.34C346.03 189.65 349.06 194.28 349.21 194.85C349.21 194.85 351.81 203.38 356.14 206.27C360.47 209.16 364.95 208.14 369.29 203.52C373.63 198.9 376.37 192.52 378.39 190.37C380.41 188.22 382.58 186.18 381.86 181.37C381.14 176.56 377.38 176.02 377.38 176.02" fill="#0987FF"/>
<path d="M372.9 174.34C372.9 174.34 362.5 176.34 361.49 177.08C360.48 177.82 361.49 180.84 361.49 180.84C361.49 180.84 352.67 185.03 349.35 187.34C346.03 189.65 349.06 194.28 349.21 194.85C349.21 194.85 351.81 203.38 356.14 206.27C360.47 209.16 364.95 208.14 369.29 203.52C373.63 198.9 376.37 192.52 378.39 190.37C380.41 188.22 382.58 186.18 381.86 181.37C381.14 176.56 377.38 176.02 377.38 176.02" stroke="#263238" stroke-linecap="round" stroke-linejoin="round"/>
<path d="M351.66 193.41C351.66 193.41 345.02 195.14 343.14 195.29C341.26 195.44 340.97 195.72 339.82 194.85C338.67 193.98 333.31 190.85 330.82 187.92C328.33 184.99 326.48 184.45 326.77 186.04C327.06 187.63 326.48 188.78 328.22 189.94C329.96 191.1 331.68 194.28 331.68 195.58C331.68 196.88 331.54 197.31 327.93 198.58C324.32 199.85 316.08 201.47 316.93 202.48C317.78 203.49 319.53 203.78 321.41 203.64C323.29 203.5 331.09 202.34 331.66 202.77C331.849 202.963 331.989 203.196 332.071 203.453C332.153 203.71 332.174 203.982 332.133 204.248C332.091 204.514 331.987 204.767 331.831 204.986C331.674 205.205 331.469 205.384 331.23 205.51C329.93 206.38 325.31 206.38 322.56 206.67C319.81 206.96 319.67 207.67 320.83 208.26C322.693 208.955 324.673 209.278 326.66 209.21C328.97 209.21 331.66 208.98 330.51 209.7C329.36 210.42 327.76 210.57 324.87 211C321.98 211.43 320.97 210.14 321.41 211.29C321.85 212.44 325.31 212.45 329.64 212.29C333.582 212.089 337.409 210.899 340.77 208.83C343.66 207.09 354.2 204.49 354.93 203.92C355.66 203.35 356.8 200.01 356.08 195.97C355.36 191.93 351.66 193.41 351.66 193.41Z" fill="white" stroke="#263238" stroke-linecap="round" stroke-linejoin="round"/>
<path d="M363.08 176.5C365.895 174.17 368.945 172.139 372.18 170.44" stroke="#263238" stroke-linecap="round" stroke-linejoin="round"/>
<path d="M323.2 203.72C323.2 203.72 331.42 202.78 332.25 202.66C333.08 202.54 334.6 203.48 333.89 204.54C333.18 205.6 332.83 205.36 329.89 205.95C326.972 206.393 324.022 206.591 321.07 206.54" fill="white"/>
<path d="M323.2 203.72C323.2 203.72 331.42 202.78 332.25 202.66C333.08 202.54 334.6 203.48 333.89 204.54C333.18 205.6 332.83 205.36 329.89 205.95C326.972 206.393 324.022 206.591 321.07 206.54" stroke="#263238" stroke-linecap="round" stroke-linejoin="round"/>
<path d="M324.14 209.36C324.14 209.36 333.3 208.77 333.07 209.48C332.84 210.19 332.25 211.12 328.96 211.36C325.67 211.6 321.96 211.83 318.85 210.3" fill="white"/>
<path d="M324.14 209.36C324.14 209.36 333.3 208.77 333.07 209.48C332.84 210.19 332.25 211.12 328.96 211.36C325.67 211.6 321.96 211.83 318.85 210.3" stroke="#263238" stroke-linecap="round" stroke-linejoin="round"/>
<path d="M232.52 337.12C232.52 337.12 234.08 338.67 227.86 342.47C221.64 346.27 216.45 348 216.45 350.25C216.45 352.5 223.36 354.74 230.45 353.01C237.54 351.28 240.45 350.77 244.45 350.08C248.45 349.39 249.64 345.93 249.64 341.08C249.64 336.23 239.1 335.08 237.89 334.86C236.68 334.64 233.39 335.22 232.52 337.12Z" fill="white" stroke="#263238" stroke-linecap="round" stroke-linejoin="round"/>
<path d="M248.07 341.09C245.452 345.012 242.248 348.51 238.57 351.46C233.21 355.46 232.52 357.33 235.29 358.37C238.06 359.41 246 359.75 251.36 357.68C256.72 355.61 259.31 352.5 260.86 351.11C262.41 349.72 263.28 350.59 263.28 345.06C263.28 339.53 257.4 337.63 252.57 337.98C247.74 338.33 248.07 341.09 248.07 341.09Z" fill="white" stroke="#263238" stroke-linecap="round" stroke-linejoin="round"/>
<path d="M227 228.43C227 228.43 228.56 259.88 229.08 269.04C229.6 278.2 233.4 312.58 234.08 320.7C234.76 328.82 234.77 331.24 234.77 331.24C234.77 331.24 231.66 333.49 231.66 334.01C231.66 334.53 231.31 339.36 231.31 339.36C233.605 340.624 236.042 341.611 238.57 342.3C241.347 342.926 244.207 343.102 247.04 342.82C247.04 342.82 252.74 344.72 257.58 346.1C262.42 347.48 264.32 346.79 264.32 346.79C264.32 346.79 265.7 339.88 266.04 337.63C266.38 335.38 272.26 311.54 272.26 300.63C272.26 289.72 270.88 284.73 268.81 278.34C266.74 271.95 271.57 249.13 273.3 240.84C274.292 236.215 275.043 231.542 275.55 226.84C275.55 226.84 260.69 234.48 227 228.43Z" fill="#263238" stroke="#263238" stroke-linecap="round" stroke-linejoin="round"/>
<path d="M246.35 239C246.35 239 245.48 262 245.48 270.79C245.48 279.58 247.73 290.32 248.76 300.69C249.79 311.06 249.11 327.99 247.9 330.93C246.69 333.87 245.83 334.93 246 337.15C246.17 339.37 246.35 342.5 246.35 342.5" stroke="white" stroke-linecap="round" stroke-linejoin="round"/>
<path d="M243.58 105.22C243.58 105.22 242.58 102.11 240.98 103.32C239.38 104.53 240.47 106.78 241.85 109.03C243.23 111.28 244.78 111.79 244.96 110.58C245.14 109.37 243.58 105.22 243.58 105.22Z" fill="white" stroke="#263238" stroke-linecap="round" stroke-linejoin="round"/>
<path d="M243.58 106.61L241.85 101.61C241.85 101.61 234.6 98.67 236.85 91.41C239.1 84.15 256.38 77.59 261.04 77.59C265.7 77.59 274.69 83.81 276.25 91.07C277.81 98.33 272.62 104.89 272.62 104.89C272.62 104.89 270.37 111.28 268.62 110.94C266.87 110.6 267.92 105.58 265.68 101.61C263.44 97.64 262.05 95.61 259.63 96.61C257.21 97.61 247.19 100.61 246.33 101.96C245.47 103.31 243.93 107.47 243.58 106.61Z" fill="#263238" stroke="#263238" stroke-linecap="round" stroke-linejoin="round"/>
<path d="M278.661 177.8L279.521 182.29L268.811 198.88L271.231 202.68C276.311 199.292 280.953 195.288 285.051 190.76C291.961 183.16 292.651 182.12 292.651 179.01C292.651 175.9 290.241 170.54 290.241 170.54C290.241 170.54 285.401 177.8 278.661 177.8Z" fill="white" stroke="#263238" stroke-linecap="round" stroke-linejoin="round"/>
<path d="M220.08 167.78C220.08 167.78 216.62 176.07 217.32 178.66C218.02 181.25 229.93 196.46 229.93 196.46L232 190.76C232 190.76 227.51 181.43 227.51 178.32C227.51 175.21 229.07 169.16 229.07 169.16L220.08 167.78Z" stroke="#263238" stroke-linecap="round" stroke-linejoin="round"/>
<path d="M250.67 126.65C250.67 126.65 235.81 132.35 233.04 133.22C230.27 134.09 228.37 134.6 228.2 135.46C228.03 136.32 219.74 157.58 218.2 160.52C216.66 163.46 214.57 166.74 214.57 166.74C216.583 167.999 218.659 169.154 220.79 170.2C222.964 171.15 225.22 171.9 227.53 172.44L228.53 184.37L218.33 229.29C218.33 229.29 238.72 234.99 252.33 234.48C260.996 234.185 269.564 232.552 277.73 229.64C280.33 228.77 284.3 227.22 284.3 227.22L271.3 178.32L272.3 171.06L272.99 178.15C272.99 178.15 279.9 179.7 283.87 178.66C287.84 177.62 292.87 173.66 292.87 173.66L280.08 133.75L256.24 127.18L250.67 126.65Z" fill="#0987FF" stroke="#263238" stroke-linecap="round" stroke-linejoin="round"/>
<path d="M267.461 130.22L256.371 127.17L250.671 126.65L245.541 128.65C245.441 131.37 245.311 136 245.311 141.55C245.311 150.55 246.311 158.49 248.941 156.93C251.571 155.37 263.941 138.62 266.041 133.93C266.608 132.731 267.083 131.491 267.461 130.22Z" fill="#0987FF" stroke="#263238" stroke-linecap="round" stroke-linejoin="round"/>
<path d="M272.44 171.06C272.09 170.72 270.54 155.85 270.54 155.85" stroke="#263238" stroke-linecap="round" stroke-linejoin="round"/>
<path d="M227.51 172.44C227.51 172.44 226.3 166.57 226.65 164.32C227 162.07 229.41 148.77 229.41 148.77" stroke="#263238" stroke-linecap="round" stroke-linejoin="round"/>
<path d="M233.391 197.33C233.391 197.33 225.441 199.92 225.441 200.44C225.441 200.96 225.261 203.37 225.261 203.37L233.391 199.57V197.33Z" stroke="#263238" stroke-linecap="round" stroke-linejoin="round"/>
<path d="M254.47 198.54L254.12 200.78L271.4 205.27L272.26 203.55L254.47 198.54Z" stroke="#263238" stroke-linecap="round" stroke-linejoin="round"/>
<path d="M260.17 164.18C259.934 164.18 259.708 164.086 259.541 163.919C259.374 163.752 259.28 163.526 259.28 163.29C259.28 160.29 260.77 153.05 262.22 146.05C263.37 140.48 264.46 135.21 264.46 133.56C264.504 132.651 264.354 131.742 264.02 130.896C263.685 130.049 263.174 129.283 262.52 128.65C260.45 126.73 256.77 125.95 251.59 126.33C240.78 127.13 239.99 151.33 239.98 151.56C239.975 151.793 239.879 152.014 239.712 152.176C239.546 152.339 239.323 152.43 239.09 152.43V152.43C238.973 152.426 238.858 152.399 238.752 152.351C238.645 152.303 238.549 152.234 238.469 152.148C238.389 152.063 238.327 151.962 238.286 151.853C238.245 151.743 238.226 151.627 238.23 151.51C238.23 150.45 239.08 125.51 251.49 124.51C257.19 124.1 261.32 125.03 263.76 127.31C264.591 128.11 265.245 129.077 265.677 130.147C266.11 131.217 266.312 132.367 266.27 133.52C266.27 135.35 265.22 140.46 264 146.37C262.63 152.96 261.09 160.43 261.09 163.25C261.096 163.373 261.076 163.495 261.032 163.61C260.987 163.725 260.92 163.829 260.834 163.916C260.747 164.004 260.644 164.072 260.529 164.118C260.415 164.163 260.293 164.184 260.17 164.18V164.18Z" fill="#263238" stroke="#263238" stroke-linecap="round" stroke-linejoin="round"/>
<path d="M248.76 121.3C248.76 121.3 248.76 126.3 248.59 127.3C248.42 128.3 248.59 132.66 248.59 138.54C248.59 144.42 249.59 148.38 251.01 147C252.43 145.62 261.55 133.35 262.07 130.93C262.376 129.57 262.55 128.183 262.59 126.79L263.28 119.87C263.28 119.87 252.57 122.98 248.07 121.6" fill="white"/>
<path d="M248.76 121.3C248.76 121.3 248.76 126.3 248.59 127.3C248.42 128.3 248.59 132.66 248.59 138.54C248.59 144.42 249.59 148.38 251.01 147C252.43 145.62 261.55 133.35 262.07 130.93C262.376 129.57 262.55 128.183 262.59 126.79L263.28 119.87C263.28 119.87 252.57 122.98 248.07 121.6" stroke="#263238" stroke-linecap="round" stroke-linejoin="round"/>
<path d="M266.56 110.93C267.46 116.932 267.692 123.016 267.25 129.07C266.56 139.61 265.31 144.55 262.25 146.07C259.19 147.59 263.14 149.31 267.8 149.48C272.46 149.65 279.38 148.96 280.59 135.14C281.8 121.32 271.78 112.33 270.91 110.6C270.688 110.198 270.354 109.869 269.95 109.651C269.546 109.433 269.088 109.335 268.63 109.37C268.171 109.405 267.733 109.57 267.366 109.847C267 110.123 266.72 110.499 266.56 110.93V110.93Z" fill="#263238" stroke="#263238" stroke-linecap="round" stroke-linejoin="round"/>
<path d="M232.87 163.66H232.8C232.679 163.653 232.56 163.621 232.452 163.566C232.344 163.51 232.248 163.433 232.171 163.339C232.094 163.246 232.037 163.137 232.005 163.02C231.972 162.903 231.963 162.78 231.98 162.66C231.98 162.17 232.98 150.6 239.09 150.6C245.2 150.6 245.34 161.73 245.34 162.21C245.34 162.446 245.246 162.672 245.079 162.839C244.913 163.006 244.686 163.1 244.45 163.1V163.1C244.214 163.1 243.988 163.006 243.821 162.839C243.654 162.672 243.56 162.446 243.56 162.21C243.56 162.11 243.43 152.39 239.1 152.39C235.38 152.39 233.99 159.9 233.77 162.8C233.76 163.032 233.66 163.25 233.493 163.411C233.325 163.571 233.102 163.66 232.87 163.66Z" fill="#263238"/>
<path d="M232.87 162.08C232.87 162.08 232.87 170.72 233.21 172.44C233.55 174.16 237.88 177.8 243.06 180.05" stroke="#263238" stroke-width="2" stroke-linecap="round" stroke-linejoin="round"/>
<path d="M244.101 161C244.101 161 244.441 169.64 242.721 173.44C241.001 177.24 235.811 178.8 233.561 179.66" stroke="#263238" stroke-width="2" stroke-linecap="round" stroke-linejoin="round"/>
<path d="M245.48 180.39C245.449 179.999 245.271 179.634 244.983 179.368C244.695 179.102 244.317 178.955 243.925 178.955C243.533 178.955 243.155 179.102 242.867 179.368C242.579 179.634 242.402 179.999 242.37 180.39C242.353 180.605 242.38 180.821 242.451 181.024C242.521 181.228 242.633 181.415 242.779 181.573C242.925 181.731 243.102 181.857 243.3 181.944C243.497 182.03 243.71 182.075 243.925 182.075C244.141 182.075 244.354 182.03 244.551 181.944C244.748 181.857 244.926 181.731 245.072 181.573C245.218 181.415 245.329 181.228 245.4 181.024C245.47 180.821 245.497 180.605 245.48 180.39V180.39Z" fill="white" stroke="#263238" stroke-linecap="round" stroke-linejoin="round"/>
<path d="M234.77 180.05C234.772 179.741 234.683 179.438 234.512 179.181C234.342 178.923 234.099 178.721 233.814 178.602C233.529 178.482 233.215 178.45 232.912 178.509C232.609 178.568 232.33 178.716 232.111 178.933C231.892 179.151 231.742 179.429 231.681 179.732C231.62 180.035 231.65 180.349 231.768 180.635C231.886 180.92 232.086 181.165 232.343 181.336C232.599 181.508 232.901 181.6 233.21 181.6C233.622 181.6 234.018 181.437 234.31 181.147C234.602 180.856 234.768 180.462 234.77 180.05V180.05Z" fill="white" stroke="#263238" stroke-linecap="round" stroke-linejoin="round"/>
<path d="M265.35 166.57C265.352 165.509 265.039 164.471 264.451 163.588C263.863 162.705 263.026 162.017 262.046 161.61C261.066 161.203 259.987 161.096 258.947 161.302C257.906 161.509 256.95 162.02 256.2 162.77C255.45 163.52 254.939 164.476 254.732 165.517C254.526 166.557 254.633 167.636 255.04 168.616C255.447 169.596 256.135 170.433 257.018 171.021C257.901 171.609 258.939 171.922 260 171.92C261.418 171.917 262.777 171.353 263.78 170.35C264.783 169.347 265.347 167.988 265.35 166.57Z" fill="white" stroke="#263238" stroke-linecap="round" stroke-linejoin="round"/>
<path d="M262.931 166.57C262.931 165.988 262.758 165.419 262.435 164.936C262.111 164.452 261.651 164.075 261.114 163.853C260.576 163.631 259.984 163.573 259.414 163.687C258.843 163.801 258.319 164.083 257.908 164.495C257.498 164.907 257.218 165.432 257.106 166.003C256.994 166.574 257.053 167.165 257.277 167.702C257.502 168.239 257.88 168.698 258.365 169.019C258.849 169.341 259.419 169.512 260.001 169.51C260.779 169.507 261.524 169.196 262.073 168.645C262.622 168.094 262.931 167.348 262.931 166.57V166.57Z" fill="white" stroke="#263238" stroke-linecap="round" stroke-linejoin="round"/>
<path d="M262.93 93.13C262.93 93.13 247.9 99 246 100C245.182 100.494 244.314 100.9 243.41 101.21C243.41 101.21 244.27 114.34 244.62 117.8C244.97 121.26 250.49 124.54 255.33 124.37C260.17 124.2 264.14 121.6 265.01 120.05C265.88 118.5 268.29 113.83 268.29 113.83C268.29 113.83 273.99 112.83 274.29 107.78C274.59 102.73 272.91 103.78 271.01 104.84C269.11 105.9 268.07 106.57 268.07 106.57C268.44 104.737 268.131 102.832 267.2 101.21C265.7 98.66 263.28 95.55 262.93 93.13Z" fill="white" stroke="#263238" stroke-linecap="round" stroke-linejoin="round"/>
<path d="M250.67 109.2C250.67 109.2 252.05 111.27 253.26 111.1" stroke="#263238" stroke-linecap="round" stroke-linejoin="round"/>
<path d="M250.15 112.31C250.15 112.31 253.08 115.08 258.15 112.83" stroke="#263238" stroke-linecap="round" stroke-linejoin="round"/>
<path d="M257.58 105.05C257.58 105.05 261.12 103.5 263.11 106.26" stroke="#263238" stroke-width="1.5" stroke-linecap="round" stroke-linejoin="round"/>
<path d="M250.67 104.71C250.67 104.71 247.9 102.98 245.83 104.36" stroke="#263238" stroke-width="1.5" stroke-linecap="round" stroke-linejoin="round"/>
<path d="M252.7 104.06C252.702 105.026 252.418 105.971 251.882 106.775C251.347 107.579 250.585 108.206 249.693 108.577C248.8 108.947 247.818 109.045 246.871 108.857C245.923 108.669 245.053 108.204 244.37 107.521C243.687 106.838 243.222 105.967 243.034 105.02C242.846 104.072 242.943 103.09 243.314 102.198C243.684 101.306 244.311 100.544 245.115 100.008C245.92 99.4727 246.864 99.188 247.83 99.19C249.121 99.1926 250.358 99.7065 251.271 100.619C252.184 101.532 252.698 102.769 252.7 104.06Z" stroke="#263238" stroke-linecap="round" stroke-linejoin="round"/>
<path d="M264.85 105.43C264.852 106.396 264.567 107.34 264.032 108.144C263.497 108.948 262.736 109.575 261.844 109.946C260.953 110.316 259.971 110.415 259.024 110.227C258.077 110.04 257.206 109.576 256.523 108.894C255.839 108.212 255.373 107.343 255.184 106.396C254.995 105.449 255.091 104.467 255.46 103.575C255.829 102.682 256.455 101.92 257.258 101.383C258.06 100.846 259.004 100.56 259.97 100.56C261.262 100.563 262.5 101.076 263.414 101.989C264.328 102.901 264.845 104.138 264.85 105.43V105.43Z" stroke="#263238" stroke-linecap="round" stroke-linejoin="round"/>
<path d="M252.7 104.06C253.049 103.942 253.423 103.919 253.784 103.995C254.144 104.071 254.478 104.242 254.75 104.49" stroke="#263238" stroke-linecap="round" stroke-linejoin="round"/>
<path d="M265.021 106.2L269.811 105.52" stroke="#263238" stroke-linecap="round" stroke-linejoin="round"/>
<path d="M61.8604 338.38C60.5358 341.193 58.906 343.853 57.0004 346.31C54.1104 349.86 53.3804 352.39 56.5204 354.59C59.6604 356.79 65.3804 356.45 68.2604 352.9C71.1404 349.35 75.7804 339.56 75.7804 339.56C75.7804 339.56 65.6604 336.52 61.8604 338.38Z" fill="white" stroke="#263238" stroke-linecap="round" stroke-linejoin="round"/>
<path d="M97.0803 340.57C97.0803 340.57 102.08 347.16 105.08 350.57C108.08 353.98 113.75 355.63 116.78 355.46C119.81 355.29 124.16 354.28 121.22 348.88C118.28 343.48 112.14 338.24 112.14 338.24C112.14 338.24 105.72 338.24 101.31 337.73C96.9003 337.22 96.8603 339.56 97.0803 340.57Z" fill="white" stroke="#263238" stroke-linecap="round" stroke-linejoin="round"/>
<path d="M64.6208 216.45C64.6208 216.45 62.6208 239.45 63.3008 255.63C63.9808 271.81 61.0008 304.1 60.0008 312C59.0008 319.9 60.9108 332.94 61.0008 335.81C61.0908 338.68 61.1908 340.21 61.1908 340.21C61.1908 340.21 62.6708 339.21 68.1208 340.21C70.5812 340.736 73.0787 341.07 75.5908 341.21C77.8392 337.407 79.6986 333.386 81.1408 329.21C82.7708 323.81 81.8508 318.21 81.7208 315.36C81.5908 312.51 81.1208 309.45 81.4408 308.94C81.7608 308.43 88.4408 260.14 88.8008 249.5C89.21 242.287 90.2811 235.127 92.0008 228.11C92.0008 228.11 95.1908 242.97 95.4408 248.71C95.6908 254.45 94.8708 301.23 95.2808 310.71C95.6908 320.19 94.9608 322.71 93.8808 325.07C92.8008 327.43 93.1908 328.61 93.9508 330.47C94.7108 332.33 97.1008 340.6 97.1008 340.6C97.1008 340.6 109.291 341.28 110.941 340.43C112.591 339.58 113.231 338.75 113.201 338.24C113.171 337.73 119.071 325.57 118.511 320.51C117.951 315.45 117.311 316.29 116.741 307.17C116.171 298.05 119.901 221.17 119.891 217.17C119.881 213.17 119.211 220.88 94.3508 216.17C69.4908 211.46 65.3308 213.24 64.6208 216.45Z" fill="#0987FF" stroke="#263238" stroke-linecap="round" stroke-linejoin="round"/>
<path d="M97.8008 334C97.8008 334 105.611 327.24 112.121 325.55Z" fill="white"/>
<path d="M97.8008 334C97.8008 334 105.611 327.24 112.121 325.55" stroke="#263238" stroke-linecap="round" stroke-linejoin="round"/>
<path d="M65.9102 330.78C65.9102 330.78 75.6702 326.05 78.4902 324.87Z" fill="white"/>
<path d="M65.9102 330.78C65.9102 330.78 75.6702 326.05 78.4902 324.87" stroke="#263238" stroke-linecap="round" stroke-linejoin="round"/>
<path d="M82.2901 91.4901C82.2901 91.4901 79.6701 85.58 77.7301 87.61C75.7901 89.64 77.2601 92.33 79.9301 95.54C82.6001 98.75 84.7101 96.72 84.1501 95.37C83.5901 94.02 82.2901 91.4901 82.2901 91.4901Z" fill="white" stroke="#263238" stroke-linecap="round" stroke-linejoin="round"/>
<path d="M107.65 88.28C107.65 88.28 110.27 82.54 112.41 85.28C114.55 88.02 109.95 94.74 108.82 95.92C107.69 97.1 106.96 88.15 106.96 88.15L107.65 88.28Z" fill="white" stroke="#263238" stroke-linecap="round" stroke-linejoin="round"/>
<path d="M50.7704 162.25C50.7704 162.25 50.0404 172.72 49.1504 175.42C47.3335 181.783 46.484 188.384 46.6304 195C46.9804 202.93 50.0904 220.16 50.1504 225.39C50.2104 230.62 48.5804 231.81 50.3304 233.16C52.0804 234.51 55.8004 238.57 57.1504 238.57C58.5004 238.57 60.5604 239.24 60.5104 238.23C60.4604 237.22 59.8004 237.38 59.2304 236.03C58.5027 234.062 57.908 232.048 57.4504 230C57.8611 228.509 58.3586 227.043 58.9404 225.61C58.9404 225.61 60.1404 229.83 60.3704 231.19C60.6004 232.55 62.4804 233.04 62.3704 230.51C62.2604 227.98 62.2104 226.96 62.0904 224.26C61.9704 221.56 59.8404 219.2 58.9404 217.84C58.0404 216.48 57.3304 215.65 57.3004 215.14C57.2704 214.63 60.2104 196.74 60.3004 190.49C60.3904 184.24 60.4804 179.17 60.9304 177.99C61.3804 176.81 63.6204 166.17 63.6204 166.17L50.7704 162.25Z" fill="white" stroke="#263238" stroke-linecap="round" stroke-linejoin="round"/>
<path d="M134.29 162.75C134.29 162.75 135.01 173.28 135.91 176.06C137.705 182.506 138.551 189.18 138.42 195.87C138.07 203.78 134.94 220.73 134.88 225.96C134.82 231.19 136.46 232.51 134.71 233.71C132.96 234.91 129.23 238.63 127.88 238.52C126.53 238.41 124.48 238.89 124.52 237.88C124.56 236.87 125.23 237.1 125.8 235.8C126.539 233.872 127.137 231.894 127.59 229.88C127.176 228.343 126.675 226.83 126.09 225.35C126.09 225.35 124.89 229.47 124.66 230.8C124.43 232.13 122.56 232.47 122.66 229.95C122.76 227.43 122.81 226.42 122.93 223.73C123.05 221.04 125.18 218.86 126.09 217.59C127 216.32 127.7 215.53 127.73 215.03C127.76 214.53 124.82 196.37 124.73 190.11C124.64 183.85 124.56 178.78 124.1 177.56C123.64 176.34 121.41 165.5 121.41 165.5L134.29 162.75Z" fill="white" stroke="#263238" stroke-linecap="round" stroke-linejoin="round"/>
<path d="M87.7005 110.91C87.7005 110.91 78.1006 115.47 72.3006 118C66.5006 120.53 59.2106 123.57 59.3006 124.76C59.3906 125.95 53.1205 149.58 51.1405 154.48C49.1605 159.38 47.3105 163.26 47.3105 163.26C47.3105 163.26 54.4005 168 59.0005 169C61.9651 169.628 64.9743 170.022 68.0005 170.18L62.5305 218.82C62.5305 218.82 73.5306 223.21 90.7606 223.38C101.451 223.459 112.137 222.895 122.761 221.69C122.761 221.69 124.381 181.69 124.211 177.78C124.093 175.637 124.17 173.489 124.441 171.36C127.065 171.932 129.793 171.819 132.361 171.03C134.619 170.19 136.832 169.232 138.991 168.16C138.991 168.16 130.601 134.72 129.221 130.16C127.841 125.6 128.481 124.93 127.281 124.42C126.081 123.91 112.821 118.17 108.491 115.64C104.161 113.11 102.491 113.1 98.7005 111.92C94.9105 110.74 89.6505 109.22 87.7005 110.91Z" fill="#0987FF" stroke="#263238" stroke-linecap="round" stroke-linejoin="round"/>
<path d="M124.46 171.36L122.32 141.37" stroke="#263238" stroke-linecap="round" stroke-linejoin="round"/>
<path d="M68.4007 187.07L87.1307 186.56C87.1307 186.56 86.3007 210.04 85.7307 212.56C85.1607 215.08 81.3607 216.78 76.4507 216.61C71.5407 216.44 68.5707 214.08 68.0107 212.9" stroke="#263238" stroke-linecap="round" stroke-linejoin="round"/>
<path d="M67.3506 190.11L87.1006 189.94" stroke="#263238" stroke-linecap="round" stroke-linejoin="round"/>
<path d="M119.351 216.62C117.511 217.13 113.121 217.13 112.161 214.43C111.201 211.73 111.831 187.58 111.831 187.58L121.471 187.91" stroke="#263238" stroke-linecap="round" stroke-linejoin="round"/>
<path d="M111.75 189.6L120.92 190.95" stroke="#263238" stroke-linecap="round" stroke-linejoin="round"/>
<path d="M68 170.18C68 170.18 68.68 147.05 68.41 140.97" stroke="#263238" stroke-linecap="round" stroke-linejoin="round"/>
<path d="M84.8408 99.59C84.8408 99.59 86.3008 113.59 86.3608 115.13C86.4208 116.67 88.1308 120.87 89.7508 123.07C91.3708 125.27 95.9008 132.36 97.7008 131C99.5008 129.64 104.571 122.05 105.061 117.83C105.551 113.61 105.791 103.65 105.791 103.65C105.791 103.65 99.2208 103.99 94.2408 102.3C89.2608 100.61 84.8408 99.59 84.8408 99.59Z" fill="white" stroke="#263238" stroke-linecap="round" stroke-linejoin="round"/>
<path d="M77.84 78.65L81.57 90.48C81.57 90.48 82.97 99.26 85.49 102.8C88.01 106.34 96.84 111.42 100.85 110.4C104.86 109.38 109.59 105.67 109.41 101.62C109.23 97.57 108.41 85.75 108.52 81.19C108.63 76.63 107.52 67.34 104.76 64.81C102 62.28 92.76 60.75 86.13 63.46C79.5 66.17 75 71.22 77.84 78.65Z" fill="#263238" stroke="#263238" stroke-linecap="round" stroke-linejoin="round"/>
<path d="M81.7802 91.49C81.7802 91.49 81.4502 91.66 82.3202 88.28C83.1902 84.9 85.8102 83.21 86.0702 81.53C86.3302 79.85 82.7702 79.33 83.1602 76.8C83.5502 74.27 87.0302 72.41 94.4202 71.56C101.81 70.71 106.73 75.11 106.49 77.3C106.25 79.49 105.59 79.84 106.67 81.36C107.75 82.88 108.21 85.75 108.29 87.44C108.37 89.13 109.29 95.2 107.69 97.06C106.09 98.92 104.89 98.58 103.3 97.06C101.71 95.54 101.12 93.52 97.5802 93.52C94.0402 93.52 92.9102 94.87 92.2902 96.22C91.6702 97.57 91.0702 99.22 89.0502 99.22C87.0302 99.22 85.5902 97.36 84.1502 95.33C83.2727 94.1061 82.4808 92.8231 81.7802 91.49V91.49Z" fill="white" stroke="#263238" stroke-linecap="round" stroke-linejoin="round"/>
<path d="M97.0007 83.21C97.0007 83.21 100.271 92.33 100.131 93.01C99.9907 93.69 98.3907 95.71 96.5207 95.54C94.6507 95.37 93.7207 93.18 93.7207 93.18" stroke="#263238" stroke-linecap="round" stroke-linejoin="round"/>
<path d="M97.92 82C97.8306 81.6948 97.8114 81.3733 97.8637 81.0595C97.9161 80.7458 98.0387 80.448 98.2224 80.1883C98.4061 79.9287 98.6461 79.7139 98.9245 79.5601C99.2029 79.4062 99.5124 79.3173 99.83 79.3C100.875 79.2493 101.919 79.419 102.894 79.798C103.869 80.1771 104.754 80.7569 105.49 81.5" stroke="#263238" stroke-width="2" stroke-linecap="round" stroke-linejoin="round"/>
<path d="M93.0002 81C92.5177 80.6412 91.9614 80.3941 91.3717 80.2765C90.782 80.1589 90.1735 80.1738 89.5902 80.32C87.5902 80.83 85.1802 83.87 85.2102 84.38" stroke="#263238" stroke-width="2" stroke-linecap="round" stroke-linejoin="round"/>
<path d="M92.3505 85.92C92.3505 86.76 92.0005 87.44 91.4805 87.44C90.9605 87.44 90.4805 86.76 90.4805 85.92C90.4805 85.08 90.8305 84.4 91.3405 84.4C91.8505 84.4 92.3105 85.08 92.3505 85.92Z" fill="#263238"/>
<path d="M102.121 85.41C102.121 86.25 101.771 86.93 101.261 86.93C100.751 86.93 100.261 86.25 100.261 85.41C100.261 84.57 100.611 83.89 101.121 83.89C101.631 83.89 102.081 84.57 102.121 85.41Z" fill="#263238"/>
<path d="M93.4404 99.26C93.4404 99.26 96.7104 100.78 101.68 98.58" stroke="white" stroke-width="2" stroke-linecap="round" stroke-linejoin="round"/>
<path d="M81.4102 114C81.4102 114 86.4102 131.22 91.7802 142.54C97.1502 153.86 101.41 161.79 101.41 161.79C101.41 161.79 109.5 134.6 109.46 125.79C109.42 116.98 109.37 116 109.37 116" stroke="#263238" stroke-linecap="round" stroke-linejoin="round"/>
<path d="M107.401 178.96H97.0908L96.3408 161.74H106.641L107.401 178.96Z" fill="white" stroke="#263238" stroke-linecap="round" stroke-linejoin="round"/>
<path d="M183.14 345.81C183.14 345.81 188.54 350.2 192.42 351.38C196.3 352.56 198.331 353.24 197.491 355.1C196.651 356.96 193.94 357.63 186.01 357.8C178.08 357.97 176.55 356.28 173.51 355.43C170.47 354.58 166.25 355.43 164.9 353.75C163.55 352.07 164.051 349.52 164.051 346.82C164.051 344.12 175.71 342.94 178.75 343.95C180.276 344.411 181.748 345.034 183.14 345.81V345.81Z" fill="white" stroke="#263238" stroke-linecap="round" stroke-linejoin="round"/>
<path d="M167.77 349.19C167.77 349.19 172.84 354.59 177.06 356.95C181.28 359.31 183.64 361.01 182.63 362.19C181.62 363.37 178.41 364.89 169.96 364.05C161.51 363.21 159.83 361.34 155.78 358.47C151.73 355.6 149.87 355.94 148.52 354.42C147.17 352.9 147.17 349.52 147.17 349.52L167.77 349.19Z" fill="white" stroke="#263238" stroke-linecap="round" stroke-linejoin="round"/>
<path d="M193.101 224.22C193.101 224.22 190.101 264.41 188.881 271.67C187.661 278.93 186.511 282.99 186.681 288.05C186.851 293.11 188.371 307.64 185.331 316.26C182.291 324.88 182.331 335.34 182.631 338.38C182.931 341.42 183.981 345.47 183.811 346.15C183.641 346.83 178.751 349.52 175.201 350.2C172.97 350.61 170.709 350.834 168.441 350.87C165.005 352.083 161.436 352.879 157.811 353.24C152.741 353.58 145.811 352.06 145.811 352.06C145.811 352.06 145.811 339.56 145.131 331.45C144.451 323.34 142.131 310.35 144.961 300.55C147.791 290.75 147.161 285.55 146.961 282.31C146.761 279.07 146.961 264.58 146.791 264.07C146.621 263.56 145.611 221.35 145.611 221.35C145.611 221.35 164.011 224.05 176.341 222.87C188.671 221.69 191.881 221.69 191.881 221.69C191.881 221.69 194.621 218.65 193.101 224.22Z" fill="#263238" stroke="#263238" stroke-linecap="round" stroke-linejoin="round"/>
<path d="M169.29 348.51C169.281 345.777 168.945 343.054 168.29 340.4C167.29 337.03 167.1 325.04 167.61 320.14C168.12 315.24 170.61 302.92 170.61 295.99C170.61 289.06 171.29 278.43 171.29 278.43" stroke="white" stroke-linecap="round" stroke-linejoin="round"/>
<path d="M204.24 274.71L185 274.54C184.16 274.54 184.16 261.71 184.16 261.71L204.24 274.71Z" fill="white" stroke="#263238" stroke-linecap="round" stroke-linejoin="round"/>
<path d="M163.551 226.59C163.551 226.59 182.801 227.77 193.611 225.91L189.891 135.06C189.891 135.06 187.361 130.84 180.601 128.47C173.841 126.1 165.741 129.47 162.871 132.69C160.001 135.91 162.031 226.25 162.031 226.25L163.551 226.59Z" fill="#0987FF" stroke="#263238" stroke-linecap="round" stroke-linejoin="round"/>
<path d="M164.39 128.47C164.39 128.47 145.31 138.1 142.44 139.79C139.57 141.48 139.44 147.55 139.44 150.43C139.44 153.31 140.28 281.13 140.28 281.13C147.503 281.602 154.753 280.861 161.73 278.94C168.612 277.139 175.087 274.044 180.81 269.82L177.6 201.09L174 140.8C174 140.8 171.82 124.08 164.39 128.47Z" fill="white" stroke="#263238" stroke-linecap="round" stroke-linejoin="round"/>
<path d="M170.13 122.22C170.13 122.22 165.74 122.73 163.88 125.22C162.79 126.689 161.989 128.352 161.52 130.12L159.83 145.32L165.57 143.97L162.7 150.72C162.7 150.72 165.57 159.17 168.78 166.26C171.99 173.35 176.72 187.87 176.72 187.87L174.52 142.45C174.52 142.45 174.52 129.28 173.52 126.45C172.52 123.62 171.48 122.22 170.13 122.22Z" fill="white" stroke="#263238" stroke-linecap="round" stroke-linejoin="round"/>
<path d="M181.11 131.51L184.49 269.14L204.24 274.71L201.37 169.85C201.37 169.85 201.88 142.85 200.19 139.11C198.5 135.37 183.31 127.8 181.79 128C180.27 128.2 181.11 131.51 181.11 131.51Z" fill="white" stroke="#263238" stroke-linecap="round" stroke-linejoin="round"/>
<path d="M181.11 124.59C182.34 124.89 183.49 125.453 184.481 126.24C185.472 127.027 186.28 128.02 186.85 129.15C188.54 132.86 192.93 144.35 192.93 144.35L187.36 145.02L193.27 149.24L182.8 188.59L181.62 146L180.62 128.44C180.62 128.44 179.42 125.6 181.11 124.59Z" fill="white" stroke="#263238" stroke-linecap="round" stroke-linejoin="round"/>
<path d="M168.781 116.48C168.781 116.48 169.461 121.38 168.441 124.08C167.421 126.78 171.651 135.23 173.341 140.46C175.031 145.69 176.721 149.92 177.731 149.41C178.741 148.9 182.291 129.15 182.121 126.61C181.951 124.07 183.641 116.48 183.641 116.48C183.641 116.48 174.351 119.18 168.781 116.48Z" fill="white" stroke="#263238" stroke-linecap="round" stroke-linejoin="round"/>
<path d="M156.92 111.33C162.239 111.33 166.55 106.826 166.55 101.27C166.55 95.714 162.239 91.21 156.92 91.21C151.602 91.21 147.29 95.714 147.29 101.27C147.29 106.826 151.602 111.33 156.92 111.33Z" fill="#263238" stroke="#263238" stroke-linecap="round" stroke-linejoin="round"/>
<path d="M161.86 106C161.86 106 160.17 101.61 158.14 103.3C156.11 104.99 158.14 108.7 159.66 110.9C161.18 113.1 164.05 112.08 163.72 109.9C163.447 108.461 162.807 107.118 161.86 106V106Z" fill="white" stroke="#263238" stroke-linecap="round" stroke-linejoin="round"/>
<path d="M188 103.27C188 103.27 188.85 99.05 190 101.92C190.509 103.044 190.744 104.273 190.684 105.506C190.625 106.739 190.274 107.94 189.66 109.01C188.66 110.7 188.82 110.53 188.48 109.01C188.214 107.107 188.054 105.191 188 103.27V103.27Z" fill="white" stroke="#263238" stroke-linecap="round" stroke-linejoin="round"/>
<path d="M159.49 97.87C159.49 97.87 162.7 113.4 164.73 117.12C166.76 120.84 173.51 127.12 179.59 124.55C185.67 121.98 189.05 117.29 189.05 111.55C189.05 105.81 189.89 98.55 188.88 92.29C188.37 89.4396 186.903 86.8484 184.721 84.9447C182.54 83.041 179.773 81.9387 176.88 81.82C171.47 81.65 163.03 84.69 161.34 90.1C160.464 92.6213 159.844 95.2244 159.49 97.87V97.87Z" fill="white" stroke="#263238" stroke-linecap="round" stroke-linejoin="round"/>
<path d="M159.661 103.61C159.661 103.61 169.121 99.89 175.201 95.33C181.281 90.77 183.141 87.4 183.141 87.4C183.141 87.4 186.011 95.16 187.191 97.7C188.371 100.24 189.381 103.1 189.381 103.1C189.381 103.1 191.241 99.89 191.241 93.1C191.241 86.31 189.381 80.94 182.241 77.39C175.101 73.84 163.501 76.04 158.241 81.11C152.981 86.18 154.021 94.45 155.371 97.66C156.427 99.8875 157.881 101.904 159.661 103.61Z" fill="#263238" stroke="#263238" stroke-linecap="round" stroke-linejoin="round"/>
<path d="M180.6 97.36C180.6 97.36 179.6 97.53 179.6 100.57C179.6 103.61 180.6 108.67 180.44 109.35C180.28 110.03 178.44 112.05 177.24 110.87" stroke="#263238" stroke-linecap="round" stroke-linejoin="round"/>
<path d="M173 113.91C173 113.91 177.39 115.77 183 112.39" stroke="#263238" stroke-linecap="round" stroke-linejoin="round"/>
<path d="M181.28 97C181.28 97 184.84 95.64 187.19 97.68" stroke="#263238" stroke-linecap="round" stroke-linejoin="round"/>
<path d="M175.37 97.7C173.824 97.2408 172.192 97.1546 170.607 97.4484C169.021 97.7422 167.528 98.4076 166.25 99.39" stroke="#263238" stroke-linecap="round" stroke-linejoin="round"/>
<path d="M173 102.59C173 103.59 172.59 104.45 172.08 104.45C171.57 104.45 171.15 103.62 171.15 102.59C171.15 101.56 171.56 100.74 172.08 100.74C172.6 100.74 173 101.57 173 102.59Z" fill="#263238"/>
<path d="M184.001 101.92C184.001 102.92 183.581 103.78 183.071 103.78C182.561 103.78 182.141 102.95 182.141 101.92C182.141 100.89 182.561 100.06 183.071 100.06C183.581 100.06 184.001 100.89 184.001 101.92Z" fill="#263238"/>
<path d="M194.79 170.35L191.79 165.45C190.94 164.1 187.06 164.61 185.2 164.61C184.234 164.711 183.303 165.034 182.483 165.554C181.662 166.075 180.973 166.779 180.47 167.61C179.8 168.96 176.76 171.16 177.94 172.51C179.12 173.86 182.33 173.01 182.84 173.35C183.35 173.69 187.57 176.56 189.09 177.07C189.898 177.367 190.763 177.479 191.62 177.4L194.79 170.35Z" stroke="#263238" stroke-linecap="round" stroke-linejoin="round"/>
<path d="M199.35 138.1C201.049 138.884 202.569 140.007 203.817 141.4C205.066 142.793 206.016 144.426 206.61 146.2C208.47 152.11 214.71 191.46 213.36 195.2C212.01 198.94 208.64 201.78 202.73 199.76C196.82 197.74 187.73 188.1 187.73 188.1L194.82 170.37L200.39 173.24L199.21 157.37" fill="white"/>
<path d="M199.35 138.1C201.049 138.884 202.569 140.007 203.817 141.4C205.066 142.793 206.016 144.426 206.61 146.2C208.47 152.11 214.71 191.46 213.36 195.2C212.01 198.94 208.64 201.78 202.73 199.76C196.82 197.74 187.73 188.1 187.73 188.1L194.82 170.37L200.39 173.24L199.21 157.37" stroke="#263238" stroke-linecap="round" stroke-linejoin="round"/>
<path d="M200.36 173.22C200.36 173.22 209.31 178.46 210.16 180.32" stroke="#263238" stroke-linecap="round" stroke-linejoin="round"/>
<path d="M189.04 149.58H156.45V195.18H189.04V149.58Z" fill="#263238" stroke="#263238" stroke-linecap="round" stroke-linejoin="round"/>
<path d="M171.151 181.33C171.151 181.33 177.391 177.95 179.251 176.09C181.111 174.23 181.451 174.09 182.461 174.09C184.946 174.089 187.429 173.919 189.891 173.58C190.891 173.24 190.401 175.58 189.891 176.11C189.381 176.64 186.181 177.3 186.181 177.3C186.181 177.3 191.581 176.79 191.751 178.48C191.872 178.965 191.856 179.473 191.706 179.95C191.556 180.426 191.277 180.852 190.901 181.18L190.401 181.69C190.401 181.69 190.901 185.23 190.401 186.92C189.901 188.61 188.881 189.12 186.681 189.45C183.745 189.638 180.797 189.47 177.901 188.95C176.211 188.61 170.471 189.79 170.471 189.79L171.151 181.33Z" fill="white" stroke="#263238" stroke-linecap="round" stroke-linejoin="round"/>
<path d="M148.69 136.75C148.69 136.75 138.69 138.94 137.03 139.95C135.37 140.96 129.77 181.16 128.59 187.95C127.41 194.74 139.06 196.06 142.59 197.41C146.12 198.76 172 200.75 172 200.75L172.34 179.81L154.44 175.25L154.27 146.37" fill="white"/>
<path d="M148.69 136.75C148.69 136.75 138.69 138.94 137.03 139.95C135.37 140.96 129.77 181.16 128.59 187.95C127.41 194.74 139.06 196.06 142.59 197.41C146.12 198.76 172 200.75 172 200.75L172.34 179.81L154.44 175.25L154.27 146.37" stroke="#263238" stroke-linecap="round" stroke-linejoin="round"/>
<path d="M154.43 175.25C154.43 175.25 148.18 172.38 144.13 173.9C140.08 175.42 136.7 183.19 136.7 183.19" stroke="#263238" stroke-linecap="round" stroke-linejoin="round"/>
<path d="M147.5 173.22C147.5 173.22 141.59 172.88 138.72 174.07C136.955 174.817 135.392 175.972 134.16 177.44" stroke="#263238" stroke-linecap="round" stroke-linejoin="round"/>
<path d="M179.59 148.06H168.11V151.78H179.59V148.06Z" fill="white" stroke="#263238" stroke-linecap="round" stroke-linejoin="round"/>
</svg>
