<svg width="392" height="302" viewBox="0 0 392 302" fill="none" xmlns="http://www.w3.org/2000/svg">
<path d="M382 93.6199C379.384 86.9322 376.087 80.5318 372.16 74.5199C354.78 47.9999 322.56 30.4499 295 16.9999C211 -24.0001 141 20.9999 102 66.9999C63 113 17 137 12 187C6.99997 237 36 292 116 301C196 310 259 249 313 256C395.52 266.69 403 146.89 382 93.6199Z" fill="#0987FF"/>
<path opacity="0.7" d="M382 93.6199C379.384 86.9322 376.087 80.5318 372.16 74.5199C354.78 47.9999 322.56 30.4499 295 16.9999C211 -24.0001 141 20.9999 102 66.9999C63 113 17 137 12 187C6.99997 237 36 292 116 301C196 310 259 249 313 256C395.52 266.69 403 146.89 382 93.6199Z" fill="white"/>
<path d="M189.86 108.55C180.3 102 166 100.87 166 100.87C187 97.5801 207.14 104.17 207.14 104.17C207.14 104.17 193.74 94.2901 184.14 94.2901C174.54 94.2901 159.27 93.1901 159.27 93.1901C165 86.6101 186 78.9301 186 78.9301C186 78.9301 170.69 78.9301 164 80.0301C157.31 81.1301 155.39 88.8001 155.39 88.8001C155.39 88.8001 153.48 84.4101 139.13 81.1201C124.78 77.8301 121 88.8001 121 88.8001H134.39C139.18 88.8001 145.87 95.3901 145.87 95.3901C145.87 95.3901 130.57 95.3901 124.87 98.6801C119.93 101.51 113.59 113.26 111.87 116.49C115.806 96.2588 121.398 76.3852 128.59 57.0701L128.97 56.7801C138.38 50.0001 142.42 46.0001 142.42 46.0001L158.61 73.0001L157.26 50.0001C157.26 50.0001 170.74 54.0501 174.79 58.0901C178.84 62.1301 191 75.6601 191 75.6601C191 75.6601 185.6 55.4401 178.86 48.6601C172.12 41.8801 160 33.8601 160 33.8601C160 33.8601 174.84 33.8601 180.23 36.5601C185.62 39.2601 201.76 50.0001 201.76 50.0001C201.76 50.0001 191 31.1601 182.88 27.1201C174.76 23.0801 153.21 23.0701 153.21 23.0701C153.21 23.0701 162.65 14.9801 169.39 14.9801H188.27C188.27 14.9801 182.88 1.50012 162.65 5.54012C142.42 9.58012 139.73 15.0001 139.73 15.0001C139.73 15.0001 137.03 5.56012 127.59 4.22012C118.15 2.88012 96.5896 2.87012 96.5896 2.87012C96.5896 2.87012 126.25 12.3101 134.34 20.4001C134.34 20.4001 112.77 21.7501 99.2796 21.7501C85.7896 21.7501 66.9196 33.8801 66.9196 33.8801C66.9196 33.8801 95.2396 25.7901 124.92 29.8801C124.92 29.8801 104.7 31.2201 91.2097 39.3201C77.7197 47.4201 64.2096 66.3201 64.2096 66.3201C64.2096 66.3201 76.3496 54.1901 92.5296 50.1401C108.71 46.0901 131.64 40.7001 131.64 40.7001C131.64 40.7001 108.71 59.4801 106 68.9201C103.29 78.3601 95.2097 94.5401 95.2097 94.5401C95.2097 94.5401 114.54 69.8401 125.41 59.7401C116.41 84.5401 105.06 124.49 103.66 170.63C99.6597 154.27 87.9996 120.41 57.4896 103.44C63.2696 105.02 71.5997 107.32 78.3197 109.24C89.7997 112.53 98.4097 122.41 98.4097 122.41C98.4097 122.41 88.8397 107.05 79.2697 100.46C69.6997 93.8701 55.3496 92.7801 55.3496 92.7801C76.3496 89.4901 96.4897 96.0701 96.4897 96.0701C96.4897 96.0701 83.0996 86.2001 73.4896 86.2001C63.8796 86.2001 48.6197 85.1001 48.6197 85.1001C54.3597 78.5201 75.4097 70.8401 75.4097 70.8401C75.4097 70.8401 60.0997 70.8401 53.4097 71.9301C46.7197 73.0201 44.7997 80.7101 44.7997 80.7101C44.7997 80.7101 42.8896 76.3201 28.5296 73.0301C14.1696 69.7401 10.3596 80.7101 10.3596 80.7101H23.7997C28.5797 80.7101 35.2796 87.3001 35.2796 87.3001C35.2796 87.3001 19.9696 87.3001 14.2796 90.5901C8.58965 93.8801 0.889648 109.24 0.889648 109.24C0.889648 109.24 12.3696 100.46 16.1996 98.2401C20.0296 96.0201 30.5497 96.0401 30.5497 96.0401C30.5497 96.0401 21.9397 102.63 17.1497 108.11C12.3597 113.59 8.53965 130.11 8.53965 130.11C8.53965 130.11 17.1496 119.11 20.0196 115.85C22.8896 112.59 32.4596 109.26 32.4596 109.26L31.4596 127.92L42.9496 105.92C45.915 109.079 49.1104 112.014 52.5097 114.7C59.2097 120.18 76.4296 145.42 76.4296 145.42C76.4296 145.42 70.6896 132.25 68.7796 124.57C67.1996 118.25 55.9097 106.73 51.9697 102.86C90.9697 121.16 101.29 167.22 103.17 177.86H86.9996L90.5596 209.19H119L122.55 177.86H105.85C106.85 171.48 110.43 152.43 119.85 135.13C119.36 136.95 119.08 138.13 119.08 138.13C119.08 138.13 127.69 127.13 130.57 123.87C133.45 120.61 143 117.33 143 117.33L142 136L153.48 114C156.447 117.16 159.646 120.095 163.05 122.78C169.74 128.27 186.96 153.5 186.96 153.5C186.96 153.5 181.22 140.33 179.31 132.65C177.4 124.97 161.13 109.65 161.13 109.65C161.13 109.65 177.4 114.04 188.88 117.33C200.36 120.62 209 130.5 209 130.5C209 130.5 199.43 115.14 189.86 108.55ZM105.79 167.7C106.504 150.706 108.489 133.788 111.73 117.09C113.54 115.71 123.25 108.35 126.73 106.36C130.56 104.17 141.08 104.17 141.08 104.17C141.08 104.17 132.47 110.75 127.68 116.24C125.62 118.61 123.73 123.03 122.25 127.24C113.18 140.92 108.27 157 105.79 167.7Z" fill="#0987FF"/>
<path opacity="0.5" d="M189.86 108.55C180.3 102 166 100.87 166 100.87C187 97.5801 207.14 104.17 207.14 104.17C207.14 104.17 193.74 94.2901 184.14 94.2901C174.54 94.2901 159.27 93.1901 159.27 93.1901C165 86.6101 186 78.9301 186 78.9301C186 78.9301 170.69 78.9301 164 80.0301C157.31 81.1301 155.39 88.8001 155.39 88.8001C155.39 88.8001 153.48 84.4101 139.13 81.1201C124.78 77.8301 121 88.8001 121 88.8001H134.39C139.18 88.8001 145.87 95.3901 145.87 95.3901C145.87 95.3901 130.57 95.3901 124.87 98.6801C119.93 101.51 113.59 113.26 111.87 116.49C115.806 96.2588 121.398 76.3852 128.59 57.0701L128.97 56.7801C138.38 50.0001 142.42 46.0001 142.42 46.0001L158.61 73.0001L157.26 50.0001C157.26 50.0001 170.74 54.0501 174.79 58.0901C178.84 62.1301 191 75.6601 191 75.6601C191 75.6601 185.6 55.4401 178.86 48.6601C172.12 41.8801 160 33.8601 160 33.8601C160 33.8601 174.84 33.8601 180.23 36.5601C185.62 39.2601 201.76 50.0001 201.76 50.0001C201.76 50.0001 191 31.1601 182.88 27.1201C174.76 23.0801 153.21 23.0701 153.21 23.0701C153.21 23.0701 162.65 14.9801 169.39 14.9801H188.27C188.27 14.9801 182.88 1.50012 162.65 5.54012C142.42 9.58012 139.73 15.0001 139.73 15.0001C139.73 15.0001 137.03 5.56012 127.59 4.22012C118.15 2.88012 96.5896 2.87012 96.5896 2.87012C96.5896 2.87012 126.25 12.3101 134.34 20.4001C134.34 20.4001 112.77 21.7501 99.2796 21.7501C85.7896 21.7501 66.9196 33.8801 66.9196 33.8801C66.9196 33.8801 95.2396 25.7901 124.92 29.8801C124.92 29.8801 104.7 31.2201 91.2097 39.3201C77.7197 47.4201 64.2096 66.3201 64.2096 66.3201C64.2096 66.3201 76.3496 54.1901 92.5296 50.1401C108.71 46.0901 131.64 40.7001 131.64 40.7001C131.64 40.7001 108.71 59.4801 106 68.9201C103.29 78.3601 95.2097 94.5401 95.2097 94.5401C95.2097 94.5401 114.54 69.8401 125.41 59.7401C116.41 84.5401 105.06 124.49 103.66 170.63C99.6597 154.27 87.9996 120.41 57.4896 103.44C63.2696 105.02 71.5997 107.32 78.3197 109.24C89.7997 112.53 98.4097 122.41 98.4097 122.41C98.4097 122.41 88.8397 107.05 79.2697 100.46C69.6997 93.8701 55.3496 92.7801 55.3496 92.7801C76.3496 89.4901 96.4897 96.0701 96.4897 96.0701C96.4897 96.0701 83.0996 86.2001 73.4896 86.2001C63.8796 86.2001 48.6197 85.1001 48.6197 85.1001C54.3597 78.5201 75.4097 70.8401 75.4097 70.8401C75.4097 70.8401 60.0997 70.8401 53.4097 71.9301C46.7197 73.0201 44.7997 80.7101 44.7997 80.7101C44.7997 80.7101 42.8896 76.3201 28.5296 73.0301C14.1696 69.7401 10.3596 80.7101 10.3596 80.7101H23.7997C28.5797 80.7101 35.2796 87.3001 35.2796 87.3001C35.2796 87.3001 19.9696 87.3001 14.2796 90.5901C8.58965 93.8801 0.889648 109.24 0.889648 109.24C0.889648 109.24 12.3696 100.46 16.1996 98.2401C20.0296 96.0201 30.5497 96.0401 30.5497 96.0401C30.5497 96.0401 21.9397 102.63 17.1497 108.11C12.3597 113.59 8.53965 130.11 8.53965 130.11C8.53965 130.11 17.1496 119.11 20.0196 115.85C22.8896 112.59 32.4596 109.26 32.4596 109.26L31.4596 127.92L42.9496 105.92C45.915 109.079 49.1104 112.014 52.5097 114.7C59.2097 120.18 76.4296 145.42 76.4296 145.42C76.4296 145.42 70.6896 132.25 68.7796 124.57C67.1996 118.25 55.9097 106.73 51.9697 102.86C90.9697 121.16 101.29 167.22 103.17 177.86H86.9996L90.5596 209.19H119L122.55 177.86H105.85C106.85 171.48 110.43 152.43 119.85 135.13C119.36 136.95 119.08 138.13 119.08 138.13C119.08 138.13 127.69 127.13 130.57 123.87C133.45 120.61 143 117.33 143 117.33L142 136L153.48 114C156.447 117.16 159.646 120.095 163.05 122.78C169.74 128.27 186.96 153.5 186.96 153.5C186.96 153.5 181.22 140.33 179.31 132.65C177.4 124.97 161.13 109.65 161.13 109.65C161.13 109.65 177.4 114.04 188.88 117.33C200.36 120.62 209 130.5 209 130.5C209 130.5 199.43 115.14 189.86 108.55ZM105.79 167.7C106.504 150.706 108.489 133.788 111.73 117.09C113.54 115.71 123.25 108.35 126.73 106.36C130.56 104.17 141.08 104.17 141.08 104.17C141.08 104.17 132.47 110.75 127.68 116.24C125.62 118.61 123.73 123.03 122.25 127.24C113.18 140.92 108.27 157 105.79 167.7Z" fill="white"/>
<path d="M246.071 120.07C253.261 108.07 255.861 93.2401 252.071 79.7901C248.141 65.7101 236.911 53.6101 222.821 49.7101C206.821 45.2901 189.741 51.3801 175.451 59.8101C161.161 68.2401 148.271 79.1301 133.001 85.6901C128.611 87.5701 123.491 89.0601 119.201 87.0001C105.381 80.3601 126.481 68.4101 131.201 65.5301C142.999 58.2892 155.406 52.0891 168.281 47.0001C186.751 39.7001 206.701 34.6801 226.381 37.2701C246.061 39.8601 265.381 51.2001 273.491 69.3401C279.981 83.9401 278.571 100.73 276.121 116.52C275.341 121.58 274.321 126.92 270.861 130.69C265.711 136.3 256.951 136.55 249.441 135.2C246.661 134.71 243.551 133.76 242.361 131.2C240.921 128.07 243.151 124.6 245.021 121.71C245.381 121.19 245.731 120.643 246.071 120.07Z" fill="#0987FF"/>
<path d="M140.891 59.9202C137.631 61.7202 134.401 63.5802 131.221 65.5302C126.511 68.4102 105.411 80.3602 119.221 87.0002C123.511 89.0602 128.631 87.5702 133.021 85.6902C139.572 82.7605 145.861 79.2779 151.821 75.2802C149.891 66.3602 145.501 62.0002 140.891 59.9202Z" fill="white"/>
<path d="M246.071 120.07C253.261 108.07 255.861 93.2401 252.071 79.7901C248.141 65.7101 236.911 53.6101 222.821 49.7101C206.821 45.2901 189.741 51.3801 175.451 59.8101C161.161 68.2401 148.271 79.1301 133.001 85.6901C128.611 87.5701 123.491 89.0601 119.201 87.0001C105.381 80.3601 126.481 68.4101 131.201 65.5301C142.999 58.2892 155.406 52.0891 168.281 47.0001C186.751 39.7001 206.701 34.6801 226.381 37.2701C246.061 39.8601 265.381 51.2001 273.491 69.3401C279.981 83.9401 278.571 100.73 276.121 116.52C275.341 121.58 274.321 126.92 270.861 130.69C265.711 136.3 256.951 136.55 249.441 135.2C246.661 134.71 243.551 133.76 242.361 131.2C240.921 128.07 243.151 124.6 245.021 121.71C245.381 121.19 245.731 120.643 246.071 120.07Z" stroke="#263238" stroke-width="1.5" stroke-miterlimit="10"/>
<path d="M246.071 120.07C253.261 108.07 255.861 93.2401 252.071 79.7901C248.141 65.7101 236.911 53.6101 222.821 49.7101C206.821 45.2901 189.741 51.3801 175.451 59.8101C161.161 68.2401 148.271 79.1301 133.001 85.6901C128.611 87.5701 123.491 89.0601 119.201 87.0001C105.381 80.3601 126.481 68.4101 131.201 65.5301C142.999 58.2892 155.406 52.0891 168.281 47.0001C186.751 39.7001 206.701 34.6801 226.381 37.2701C246.061 39.8601 265.381 51.2001 273.491 69.3401C279.981 83.9401 278.571 100.73 276.121 116.52C275.341 121.58 274.321 126.92 270.861 130.69C265.711 136.3 256.951 136.55 249.441 135.2C246.661 134.71 243.551 133.76 242.361 131.2C240.921 128.07 243.151 124.6 245.021 121.71C245.381 121.19 245.731 120.643 246.071 120.07Z" fill="#0987FF"/>
<path d="M241.881 50.26C238.821 56.2 241.881 57.69 241.881 57.69C241.881 57.69 241.581 55.22 243.471 50.83C244.412 48.3658 246.283 46.3694 248.68 45.27C248.68 45.27 244.941 44.31 241.881 50.26Z" fill="#263238"/>
<path d="M225.37 43.29C223.25 48.54 225.76 50.03 225.76 50.03C225.625 47.9403 225.942 45.8459 226.69 43.89C227.96 40 230.52 39.1 230.52 39.1C230.52 39.1 227.5 38 225.37 43.29Z" fill="#263238"/>
<path d="M206.24 41.14C204.12 46.39 206.63 47.88 206.63 47.88C206.487 45.7908 206.801 43.6955 207.55 41.74C208.83 37.85 211.38 36.95 211.38 36.95C211.38 36.95 208.36 35.89 206.24 41.14Z" fill="#263238"/>
<path d="M262.751 57.31C262.751 57.31 260.001 53.91 253.161 56.83C246.321 59.75 248.091 63.14 248.091 63.14C248.091 63.14 249.521 60.85 254.241 58.44C256.831 56.9958 259.873 56.5918 262.751 57.31V57.31Z" fill="#263238"/>
<path d="M259.55 69.59C262.034 67.9703 265.039 67.3521 267.96 67.86C267.96 67.86 264.96 64.66 258.35 68.07C251.74 71.48 253.75 74.72 253.75 74.72C253.75 74.72 255 72.33 259.55 69.59Z" fill="#263238"/>
<path d="M263.001 81.0001C254.001 83.2001 255.201 87.8001 255.201 87.8001C255.201 87.8001 257.541 85.2401 263.841 83.2301C270.141 81.2201 274.301 83.6401 274.301 83.6401C274.301 83.6401 272.001 78.8301 263.001 81.0001Z" fill="#263238"/>
<path d="M262.86 101.76C253.8 103.58 254.78 108.23 254.78 108.23C254.78 108.23 257.23 105.77 263.61 104.02C269.99 102.27 274.04 104.86 274.04 104.86C274.04 104.86 271.92 99.9301 262.86 101.76Z" fill="#263238"/>
<path d="M140.891 59.9199C137.631 61.7199 134.401 63.5799 131.221 65.5299C126.511 68.4099 105.411 80.3599 119.221 86.9999C123.511 89.0599 128.631 87.5699 133.021 85.6899C139.572 82.7603 145.861 79.2777 151.821 75.2799C149.891 66.3599 145.501 61.9999 140.891 59.9199Z" fill="white"/>
<path d="M246.071 120.07C253.261 108.07 255.861 93.2401 252.071 79.7901C248.141 65.7101 236.911 53.6101 222.821 49.7101C206.821 45.2901 189.741 51.3801 175.451 59.8101C161.161 68.2401 148.271 79.1301 133.001 85.6901C128.611 87.5701 123.491 89.0601 119.201 87.0001C105.381 80.3601 126.481 68.4101 131.201 65.5301C142.999 58.2892 155.406 52.0891 168.281 47.0001C186.751 39.7001 206.701 34.6801 226.381 37.2701C246.061 39.8601 265.381 51.2001 273.491 69.3401C279.981 83.9401 278.571 100.73 276.121 116.52C275.341 121.58 274.321 126.92 270.861 130.69C265.711 136.3 256.951 136.55 249.441 135.2C246.661 134.71 243.551 133.76 242.361 131.2C240.921 128.07 243.151 124.6 245.021 121.71C245.381 121.19 245.731 120.643 246.071 120.07Z" stroke="#263238" stroke-width="1.5" stroke-miterlimit="10"/>
<path d="M230.001 242.57C230.001 242.57 272.151 246.3 263.081 250.04C254.011 253.78 247.081 252.17 210.791 256.97C174.501 261.77 122.221 261.78 98.2107 261.78C74.2007 261.78 67.8007 266.05 81.6707 266.05C95.5407 266.05 123.821 266.05 178.781 268.18C233.741 270.31 298.781 283.12 331.901 269.78C365.021 256.44 332.971 244.7 332.971 244.7C332.971 244.7 345.781 242.04 335.111 237.77C324.441 233.5 283.351 229.23 264.111 226.56C244.871 223.89 234.241 229.76 247.571 229.76C260.901 229.76 323.871 236.17 315.871 241.5C307.871 246.83 268.921 240.97 256.111 238.3C243.301 235.63 226.771 238.3 230.001 242.57Z" fill="#263238"/>
<path d="M275.67 220.8C275.67 220.8 279.06 237.44 284.29 246.38C289.52 255.32 300.01 254.7 301.55 247.61C303.09 240.52 296.01 231.61 294.16 224.81C292.31 218.01 292.62 206.01 292.62 206.01C292.62 206.01 275.05 204.47 275.67 220.8Z" fill="#0987FF"/>
<path d="M281.351 240.19C282.181 242.322 283.163 244.39 284.291 246.38C289.531 255.32 300.011 254.7 301.551 247.61C302.701 242.36 299.101 236.09 296.411 230.44C293.287 230.682 290.273 231.7 287.643 233.403C285.012 235.106 282.85 237.439 281.351 240.19V240.19Z" fill="white"/>
<path d="M275.67 220.8C275.67 220.8 279.06 237.44 284.29 246.38C289.52 255.32 300.01 254.7 301.55 247.61C303.09 240.52 296.01 231.61 294.16 224.81C292.31 218.01 292.62 206.01 292.62 206.01C292.62 206.01 275.05 204.47 275.67 220.8Z" stroke="#263238" stroke-width="1.5" stroke-miterlimit="10"/>
<path d="M290.46 241.45C290.46 241.45 294.77 247 293.54 252.55" stroke="#263238" stroke-width="1.5" stroke-miterlimit="10" stroke-linecap="round"/>
<path d="M295.7 239.29C297.58 240.361 299.015 242.067 299.749 244.102C300.482 246.137 300.465 248.367 299.7 250.39" stroke="#263238" stroke-width="1.5" stroke-miterlimit="10" stroke-linecap="round"/>
<path d="M265.8 229.43C265.8 229.43 256.87 238.68 247.31 241.43C237.75 244.18 228.2 243.59 229.44 239.27C230.68 234.95 234.98 233.42 240.53 233.42C246.08 233.42 257.53 222.01 257.53 222.01C257.53 222.01 269.81 214.33 265.8 229.43Z" fill="#0987FF" stroke="#263238" stroke-width="1.5" stroke-miterlimit="10"/>
<path d="M157.93 184.13C157.93 184.13 144.68 190.29 142.21 197.07C140.605 201.691 139.372 206.433 138.52 211.25C138.52 211.25 121.87 218.95 109.24 223.25C96.6101 227.55 83.6601 229.1 76.2401 234.34C68.8201 239.58 68.5301 245.44 72.8501 249.75C77.1701 254.06 85.7901 252.53 88.5701 250.98C91.3501 249.43 97.8101 243.28 106.44 241.74C115.07 240.2 140.96 245.44 156.06 242.35C171.16 239.26 184.06 234.35 187.5 234.35C190.94 234.35 204.5 236.2 213.39 230.35C222.28 224.5 216.47 197.35 209.69 184.12C202.91 170.89 167.18 179.5 157.93 184.13Z" fill="#0987FF"/>
<path d="M189.36 208.53C184.01 199.67 179.62 183.03 171.11 179.77C166.582 180.777 162.166 182.237 157.93 184.13C157.93 184.13 156.55 184.77 154.59 185.87C151.44 189.48 151.59 193.4 154.74 195.87C159.94 199.87 178.4 221.26 173.21 219.52C172.353 219.209 171.54 218.789 170.79 218.27C165.21 214.62 156.6 205.2 150.13 202.22C142.63 198.75 157.05 217.79 157.05 223.56C157.05 229.33 151.28 224.14 146.05 217.79C140.82 211.44 139.7 217.22 142.59 223.56C145.48 229.9 141.43 232.79 129.32 232.79C117.21 232.79 102.78 233.37 102.78 233.37C102.339 230.683 101.07 228.201 99.1503 226.27C90.0603 228.69 81.6503 230.55 76.2203 234.39C68.8203 239.63 68.5103 245.49 72.8303 249.8C77.1503 254.11 85.7703 252.58 88.5503 251.03C91.3303 249.48 97.7903 243.33 106.42 241.79C115.05 240.25 140.94 245.49 156.04 242.4C171.14 239.31 184.04 234.4 187.48 234.4C190.64 234.4 202.62 236 211.48 231.49C207.93 228.56 194.92 217.74 189.36 208.53Z" fill="white"/>
<path d="M157.93 184.13C157.93 184.13 144.68 190.29 142.21 197.07C140.605 201.691 139.372 206.433 138.52 211.25C138.52 211.25 121.87 218.95 109.24 223.25C96.6101 227.55 83.6601 229.1 76.2401 234.34C68.8201 239.58 68.5301 245.44 72.8501 249.75C77.1701 254.06 85.7901 252.53 88.5701 250.98C91.3501 249.43 97.8101 243.28 106.44 241.74C115.07 240.2 140.96 245.44 156.06 242.35C171.16 239.26 184.06 234.35 187.5 234.35C190.94 234.35 204.5 236.2 213.39 230.35C222.28 224.5 216.47 197.35 209.69 184.12C202.91 170.89 167.18 179.5 157.93 184.13Z" stroke="#263238" stroke-width="1.5" stroke-miterlimit="10"/>
<path d="M76.26 244.84C77.6242 244.84 78.73 243.734 78.73 242.37C78.73 241.006 77.6242 239.9 76.26 239.9C74.8959 239.9 73.79 241.006 73.79 242.37C73.79 243.734 74.8959 244.84 76.26 244.84Z" fill="#263238"/>
<path d="M86.4305 245.76C88.9821 245.76 91.0506 243.692 91.0506 241.14C91.0506 238.588 88.9821 236.52 86.4305 236.52C83.879 236.52 81.8105 238.588 81.8105 241.14C81.8105 243.692 83.879 245.76 86.4305 245.76Z" fill="#263238"/>
<path d="M80.2698 250.39C81.6339 250.39 82.7398 249.284 82.7398 247.92C82.7398 246.556 81.6339 245.45 80.2698 245.45C78.9057 245.45 77.7998 246.556 77.7998 247.92C77.7998 249.284 78.9057 250.39 80.2698 250.39Z" fill="#263238"/>
<path d="M86.4299 250.39C87.7941 250.39 88.8999 249.284 88.8999 247.92C88.8999 246.556 87.7941 245.45 86.4299 245.45C85.0658 245.45 83.96 246.556 83.96 247.92C83.96 249.284 85.0658 250.39 86.4299 250.39Z" fill="#263238"/>
<path d="M178.89 211.55C193.07 226.96 203.55 233.75 218.03 235.55C232.51 237.35 251.32 235.55 265.8 229.39C280.28 223.23 283.68 219.22 283.68 219.22C287.095 217.491 290.389 215.533 293.54 213.36C300.63 208.74 313.54 195.18 316.96 177.61C319.88 162.48 317.48 145.71 309.71 132.33C300.71 116.77 284.15 108.8 266.43 108.49C255.66 108.31 245.68 112.18 236.83 118.13C219.88 129.53 215.83 139.4 215.83 139.4H198.31C198.31 139.4 189.68 136.01 173.96 152.03" fill="#0987FF"/>
<path d="M305.33 182C304.18 171 298.41 183.16 296.68 187.19C293.27 195.19 294.95 168.19 289.75 161.81C284.55 155.43 290.91 177.39 289.18 184.89C287.45 192.39 288.6 179.69 284.56 172.19C280.52 164.69 286.29 182 277.64 191.81C268.99 201.62 253.4 192.39 253.4 192.39C260.64 212.88 241.28 228.61 228.87 236.28C241.13 236.34 254.73 234.15 265.8 229.44C280.29 223.28 283.68 219.27 283.68 219.27C287.095 217.54 290.389 215.583 293.54 213.41C295.481 212.097 297.308 210.622 299 209C303.82 199.35 306.14 189.68 305.33 182Z" fill="white"/>
<path d="M178.89 211.55C193.07 226.96 203.55 233.75 218.03 235.55C232.51 237.35 251.32 235.55 265.8 229.39C280.28 223.23 283.68 219.22 283.68 219.22C287.095 217.491 290.389 215.533 293.54 213.36C300.63 208.74 313.54 195.18 316.96 177.61C319.88 162.48 317.48 145.71 309.71 132.33C300.71 116.77 284.15 108.8 266.43 108.49C255.66 108.31 245.68 112.18 236.83 118.13C219.88 129.53 215.83 139.4 215.83 139.4H198.31C198.31 139.4 189.68 136.01 173.96 152.03" stroke="#263238" stroke-width="1.5" stroke-miterlimit="10"/>
<path d="M162.86 190.6C162.86 190.6 173.34 206.6 190.86 210.6C208.38 214.6 212.74 190.26 211.2 177.6C209.66 164.94 204.11 165.27 201.96 168.05C199.81 170.83 189.63 179.14 179.46 181.3C169.29 183.46 161.32 185.05 162.86 190.6Z" fill="white"/>
<path d="M149.201 122.2C145.841 121.64 142.435 121.412 139.031 121.52C134.961 121.86 126.821 125.59 123.091 126.26C119.361 126.93 121.091 128.26 125.811 133.72C130.531 139.18 141.741 142.54 141.741 142.54L149.201 122.2Z" fill="#0987FF" stroke="#263238" stroke-width="1.5" stroke-miterlimit="10"/>
<path d="M207.85 161.86C207.85 161.86 202.09 176.44 193.28 181.19C188.044 184.035 182.232 185.659 176.28 185.94C176.28 185.94 170.18 191.7 158.99 192.38C147.8 193.06 140.99 182.88 140.99 179.49V170.34C140.99 170.34 133.87 161.52 134.21 156.78C134.55 152.04 134.89 130.67 147.1 122.2C159.31 113.73 171.17 114.74 180.66 116.77C190.15 118.8 200.66 130.33 204.05 137.11C207.44 143.89 207.45 152.37 207.45 152.37" fill="#0987FF"/>
<path d="M159.941 176.8L154.741 168.14C154.741 168.14 153.591 157.76 147.821 151.99C142.051 146.22 146.001 170 146.001 170C144.276 170.378 142.623 171.026 141.101 171.92V179.48C141.101 182.87 147.881 193.05 159.101 192.37C163.216 192.141 167.25 191.122 170.981 189.37C169.101 180.51 159.941 176.8 159.941 176.8Z" fill="white"/>
<path d="M158.32 173C158.32 173 161.73 166.18 170.68 171.29" stroke="#263238" stroke-width="2" stroke-miterlimit="10" stroke-linecap="round"/>
<path d="M139.57 164.05C139.57 164.05 142.98 161.91 143.83 167.88" stroke="#263238" stroke-width="2" stroke-miterlimit="10" stroke-linecap="round"/>
<path d="M148.94 186.64C148.94 186.64 151.07 190.47 154.49 191.75" stroke="#263238" stroke-miterlimit="10" stroke-linecap="round"/>
<path d="M162.24 150.84C162.24 150.84 164.55 158.91 176.09 160.64C187.63 162.37 191.53 157.77 187.85 153.73C184.17 149.69 164.55 150.84 162.24 150.84Z" fill="#263238"/>
<path d="M187.85 153.73C187.85 153.73 178.36 156.44 170.9 156.44C163.44 156.44 160.05 150 158.35 148C156.65 146 165.13 138.51 175.35 140.54C185.57 142.57 187.85 153.73 187.85 153.73Z" fill="#0987FF" stroke="#263238" stroke-width="1.5" stroke-miterlimit="10"/>
<path d="M152.001 186.47C152.841 185.74 153.001 184.53 151.391 184C149.261 183.3 145.811 182.44 146.531 184.58C146.832 185.376 147.387 186.052 148.109 186.502C148.832 186.952 149.683 187.151 150.531 187.07C151.073 187.035 151.589 186.824 152.001 186.47V186.47Z" fill="#263238"/>
<path d="M198 172.18C198 172.18 195.69 173.91 188.76 173.91C181.83 173.91 176.65 173.34 176.65 173.34C176.65 173.34 185.3 176.22 189.92 176.8C194.54 177.38 198 172.18 198 172.18Z" fill="#263238"/>
<path d="M191.091 180.26C191.091 180.26 187.091 183.72 182.441 181.99C177.791 180.26 172.051 177.38 172.051 177.38C172.051 177.38 186.481 181.42 191.091 180.26Z" fill="#263238"/>
<path d="M164 128.33C164 128.33 154.2 132.33 153 143.33C151.8 154.33 153 160.63 153 160.63C153 160.63 155.32 138.72 164 128.33Z" fill="#263238"/>
<path d="M148.4 130.07C148.4 130.07 142.58 132.51 141.74 142.54C140.9 152.57 140.9 159.54 140.9 159.54C140.9 159.54 143.78 138.14 148.4 130.07Z" fill="#263238"/>
<path d="M207.85 161.86C207.85 161.86 202.09 176.44 193.28 181.19C188.044 184.035 182.232 185.659 176.28 185.94C176.28 185.94 170.18 191.7 158.99 192.38C147.8 193.06 140.99 182.88 140.99 179.49V170.34C140.99 170.34 133.87 161.52 134.21 156.78C134.55 152.04 134.89 130.67 147.1 122.2C159.31 113.73 171.17 114.74 180.66 116.77C190.15 118.8 200.66 130.33 204.05 137.11C207.44 143.89 207.45 152.37 207.45 152.37" stroke="#263238" stroke-width="1.5" stroke-miterlimit="10"/>
<path d="M141.06 179.49C141.06 179.49 125.88 175.19 116.94 174.88" stroke="#263238" stroke-width="0.5" stroke-miterlimit="10" stroke-linecap="round"/>
<path d="M141.291 182C141.291 182 120.291 180.15 110.471 182" stroke="#263238" stroke-width="0.5" stroke-miterlimit="10" stroke-linecap="round"/>
<path d="M142.831 184.13C142.831 184.13 117.831 185.36 110.471 187.82" stroke="#263238" stroke-width="0.5" stroke-miterlimit="10" stroke-linecap="round"/>
<path d="M162.86 189.36C162.86 189.36 164.71 203.54 165.64 213.36" stroke="#263238" stroke-width="0.5" stroke-miterlimit="10" stroke-linecap="round"/>
<path d="M164.4 186.59C164.4 186.59 174.58 202.31 174.58 210.01" stroke="#263238" stroke-width="0.5" stroke-miterlimit="10" stroke-linecap="round"/>
<path d="M168.101 185.67C168.101 185.67 180.101 195.84 182.591 205.08" stroke="#263238" stroke-width="0.5" stroke-miterlimit="10" stroke-linecap="round"/>
<path d="M283.681 219.26C283.681 219.26 300.631 205.39 298.161 174.57" stroke="#263238" stroke-width="1.5" stroke-miterlimit="10" stroke-linecap="round"/>
<path d="M229.13 183.2C229.13 183.2 239.61 183.51 252.86 190.6C266.11 197.69 279.36 201.08 279.36 208.78C279.36 216.48 251.93 232.51 238.68 242.37C225.43 252.23 214.95 261.79 205.68 264.26C196.41 266.73 184.42 267.03 182.88 260.87C181.34 254.71 189.35 253.16 193.97 252.55C198.59 251.94 206.3 250.08 206.3 250.08L222 235C222 235 204.12 233.77 195.8 219.28" fill="#0987FF"/>
<path d="M204.94 228.15C204.94 228.15 215.32 227 221.09 217.76C226.86 208.52 228.59 196.99 228.59 196.99C228.59 196.99 228.59 210.26 224.59 218.92C220.59 227.58 204.94 228.15 204.94 228.15Z" fill="#263238"/>
<path d="M237.251 191.8C237.251 191.8 243.021 203.34 237.831 212.57C234.694 218.116 230.107 222.704 224.561 225.84C224.561 225.84 239.561 212 237.251 191.8Z" fill="#263238"/>
<path d="M219.94 243.15L228.59 248.92C228.59 248.92 228 241.42 219.94 243.15Z" fill="#263238"/>
<path d="M228.001 234.5L236.651 240.27C236.651 240.27 236.101 232.76 228.001 234.5Z" fill="#263238"/>
<path d="M243.601 224.69L252.251 230.46C252.251 230.46 251.671 223 243.601 224.69Z" fill="#263238"/>
<path d="M252.831 216L261.481 221.77C261.481 221.77 260.911 214.3 252.831 216Z" fill="#263238"/>
<path d="M210.761 257C210.171 254.23 206.611 252.14 203.401 250.78C200.741 251.37 196.801 252.2 193.991 252.58C189.371 253.19 181.361 254.73 182.901 260.9C184.441 267.07 196.461 266.75 205.701 264.29C208.033 263.619 210.279 262.676 212.391 261.48C211.649 260.067 211.1 258.56 210.761 257V257Z" fill="white"/>
<path d="M247.631 216C251.631 210.23 246.481 218.31 234.361 225.81C222.241 233.31 204.941 228.12 204.941 228.12L204.391 228.48C209.642 232.055 215.687 234.293 222.001 235L215.001 241.77C227.881 237 243.851 221.44 247.631 216Z" fill="white"/>
<path d="M229.13 183.2C229.13 183.2 239.61 183.51 252.86 190.6C266.11 197.69 279.36 201.08 279.36 208.78C279.36 216.48 251.93 232.51 238.68 242.37C225.43 252.23 214.95 261.79 205.68 264.26C196.41 266.73 184.42 267.03 182.88 260.87C181.34 254.71 189.35 253.16 193.97 252.55C198.59 251.94 206.3 250.08 206.3 250.08L222 235C222 235 204.12 233.77 195.8 219.28" stroke="#263238" stroke-width="1.5" stroke-miterlimit="10"/>
<path d="M222 235C222 235 247.27 230.07 250.35 208.8" stroke="#263238" stroke-width="1.5" stroke-miterlimit="10" stroke-linecap="round"/>
<path d="M182.9 260.87C182.9 260.87 185.36 256.24 189.06 255.63" stroke="#263238" stroke-width="1.5" stroke-miterlimit="10" stroke-linecap="round"/>
<path d="M186.9 264.26C186.9 264.26 188.75 257.48 194.3 257.48" stroke="#263238" stroke-width="1.5" stroke-miterlimit="10" stroke-linecap="round"/>
<path d="M224 141.6C224 141.6 241.31 143.34 254 156.03C266.69 168.72 269 192.38 269 186.03C269 179.68 265.54 162.38 258 153.14C250.46 143.9 229.17 138.72 224 141.6Z" fill="#263238"/>
<path d="M210.49 148.28C210.49 148.28 224.42 149.67 234.63 159.88C244.84 170.09 246.7 189.13 246.7 184C246.7 178.87 243.91 165 237.88 157.54C231.85 150.08 214.67 146 210.49 148.28Z" fill="#263238"/>
<path d="M234.94 131.8C234.94 131.8 252.25 133.53 264.94 146.22C277.63 158.91 279.94 182.57 279.94 176.22C279.94 169.87 276.48 152.57 268.94 143.34C261.4 134.11 240.13 128.91 234.94 131.8Z" fill="#263238"/>
<path d="M249.37 115.06C249.37 115.06 266.67 116.79 279.37 129.49C292.07 142.19 294.37 165.84 294.37 159.49C294.37 153.14 290.91 135.83 283.37 126.6C275.83 117.37 254.56 112.18 249.37 115.06Z" fill="#263238"/>
<path d="M82.9199 277.93C89.5473 277.93 94.9199 275.423 94.9199 272.33C94.9199 269.237 89.5473 266.73 82.9199 266.73C76.2925 266.73 70.9199 269.237 70.9199 272.33C70.9199 275.423 76.2925 277.93 82.9199 277.93Z" fill="#263238"/>
<path d="M78.7304 275.96C87.7492 275.96 95.0604 268.649 95.0604 259.63C95.0604 250.611 87.7492 243.3 78.7304 243.3C69.7116 243.3 62.4004 250.611 62.4004 259.63C62.4004 268.649 69.7116 275.96 78.7304 275.96Z" fill="#0987FF" stroke="#263238" stroke-width="1.5" stroke-miterlimit="10"/>
<path d="M78.0804 252.22C78.0471 253.08 77.7616 253.912 77.2594 254.611C76.7572 255.31 76.0605 255.846 75.2559 256.153C74.4514 256.459 73.5746 256.522 72.7345 256.334C71.8944 256.146 71.1282 255.715 70.5311 255.095C69.9341 254.475 69.5325 253.693 69.3765 252.846C69.2204 251.999 69.3167 251.126 69.6534 250.333C69.9901 249.541 70.5523 248.865 71.2701 248.39C71.9879 247.915 72.8295 247.661 73.6904 247.66C74.2783 247.671 74.8584 247.797 75.3974 248.032C75.9364 248.267 76.4238 248.606 76.8316 249.029C77.2394 249.453 77.5596 249.953 77.7739 250.5C77.9882 251.048 78.0924 251.632 78.0804 252.22V252.22Z" fill="white"/>
</svg>
