<svg width="503" height="486" viewBox="0 0 503 486" fill="none" xmlns="http://www.w3.org/2000/svg">
<path fill-rule="evenodd" clip-rule="evenodd" d="M155.323 43.107C142.577 76.401 138.368 86.374 136.823 86.94C135.723 87.344 114.573 88.706 89.8232 89.967C65.0732 91.229 44.6802 92.381 44.5052 92.528C44.3302 92.674 49.6103 113.193 56.2373 138.125C65.6793 173.644 68.0213 183.7 67.0553 184.584C66.3783 185.204 50.1852 198.405 31.0732 213.918C-10.3577 247.547 -10.3577 238.437 31.0732 272.066C50.1863 287.579 66.3783 300.78 67.0553 301.4C68.0213 302.284 65.6793 312.34 56.2373 347.859C49.6103 372.791 44.3302 393.31 44.5052 393.456C44.6802 393.603 65.0732 394.755 89.8232 396.017C114.573 397.278 135.723 398.64 136.823 399.044C138.368 399.61 142.577 409.583 155.323 442.877C164.398 466.582 172.124 485.98 172.493 485.984C172.861 485.989 190.515 474.742 211.724 460.992C257.658 431.211 244.988 431.211 290.922 460.992C312.131 474.742 329.785 485.989 330.153 485.984C330.522 485.98 338.248 466.582 347.323 442.877C360.069 409.583 364.278 399.61 365.823 399.044C366.923 398.64 388.073 397.278 412.823 396.017C437.573 394.755 457.966 393.603 458.141 393.456C458.316 393.31 453.036 372.791 446.409 347.859C436.964 312.329 434.625 302.283 435.591 301.397C436.268 300.775 452.46 287.571 471.573 272.054C512.998 238.422 512.998 247.562 471.573 213.93C452.46 198.413 436.268 185.209 435.591 184.587C434.625 183.701 436.964 173.655 446.409 138.125C453.036 113.193 458.316 92.674 458.141 92.528C457.966 92.381 437.573 91.229 412.823 89.967C388.073 88.706 366.923 87.344 365.823 86.94C364.278 86.374 360.069 76.401 347.323 43.107C338.248 19.402 330.522 0.00400167 330.153 1.66647e-06C329.785 -0.00499833 312.131 11.242 290.922 24.992C244.988 54.773 257.658 54.773 211.724 24.992C190.515 11.242 172.861 -0.00499833 172.493 1.66647e-06C172.124 0.00400167 164.398 19.402 155.323 43.107ZM220.221 72.492C256.083 95.767 246.591 95.775 282.523 72.445C299.081 61.694 312.946 53.256 313.335 53.695C313.724 54.133 319.708 69.283 326.634 87.361C333.56 105.438 339.491 120.494 339.815 120.817C340.138 121.14 356.697 122.266 376.613 123.318C396.528 124.37 412.917 125.308 413.031 125.403C413.146 125.498 408.984 141.531 403.782 161.034C398.581 180.536 394.325 196.511 394.324 196.535C394.324 196.558 407.12 206.908 422.761 219.535C456.597 246.85 456.597 239.134 422.761 266.449C407.12 279.076 394.323 289.426 394.324 289.449C394.324 289.473 398.566 305.463 403.749 324.983C408.933 344.503 413.095 360.537 412.998 360.614C412.902 360.691 396.728 361.574 377.056 362.575C334.154 364.759 341.663 359.396 326.656 398.567C319.718 416.676 313.729 431.846 313.346 432.278C312.964 432.71 299.097 424.273 282.531 413.528C246.577 390.208 256.06 390.206 220.123 413.539C203.565 424.29 189.7 432.728 189.311 432.289C188.922 431.851 182.938 416.701 176.012 398.623C169.086 380.546 163.157 365.493 162.836 365.172C162.516 364.851 145.957 363.729 126.038 362.677C106.12 361.626 89.7422 360.698 89.6442 360.616C89.5452 360.534 93.7053 344.497 98.8883 324.979C104.072 305.461 108.315 289.473 108.318 289.449C108.321 289.426 95.5262 279.076 79.8852 266.449C46.0492 239.134 46.0492 246.85 79.8852 219.535C95.5262 206.908 108.323 196.558 108.322 196.535C108.322 196.511 104.08 180.521 98.8972 161.001C93.7132 141.481 89.5512 125.447 89.6482 125.37C89.7442 125.293 105.918 124.41 125.59 123.409C145.262 122.408 161.828 121.298 162.403 120.943C163.177 120.464 181.511 74.168 188.62 54.742C189.501 52.335 187.009 50.936 220.221 72.492ZM186.507 147.554C154.891 156.062 144.004 195.951 166.861 219.536C191.405 244.863 233.928 231.541 240.407 196.497C246.015 166.161 216.604 139.455 186.507 147.554ZM238.824 230.991L159.83 309.989L172.079 322.238L184.327 334.486L263.567 255.246L342.807 176.007L330.83 163.999C324.244 157.395 318.621 151.992 318.336 151.992C318.051 151.992 282.271 187.541 238.824 230.991ZM203.468 183.63C207.384 187.158 205.602 195.358 200.636 196.66C192.99 198.665 187.365 192.849 190.542 186.223C192.96 181.179 199.33 179.902 203.468 183.63ZM296.431 254.013C262.897 261.06 250.108 302.93 274.164 326.915C300.645 353.317 345.183 336.783 348.035 299.492C350.166 271.636 323.674 248.289 296.431 254.013ZM310.963 291.147C313.445 293.889 313.232 299.528 310.545 302.214C306.36 306.4 297.981 304.173 297.089 298.638C295.778 290.496 305.583 285.202 310.963 291.147Z" fill="#0987FF"/>
</svg>
