<svg width="562" height="450" viewBox="0 0 562 450" fill="none" xmlns="http://www.w3.org/2000/svg">
<path d="M552.31 163.09C533.24 100.75 484.19 50.8301 426.15 24.5201C370.78 -0.57988 300.78 -12.9999 248.31 25.6501C213.77 51.0901 194.2 91.8501 162.57 120.38C146.85 134.56 129.64 139.17 110.93 147.65C65.35 168.32 27.2 208.19 24.06 260.78C18.81 348.72 88.51 409.54 166.29 429.49C269.08 455.85 345.9 455.85 416.5 427.38C453.17 412.59 490.5 393.89 516.91 363.27C556.91 316.96 567.91 251.19 558.84 191.72C557.362 182.031 555.18 172.462 552.31 163.09V163.09Z" fill="#0987FF"/>
<path opacity="0.8" d="M552.31 163.09C533.24 100.75 484.19 50.8301 426.15 24.5201C370.78 -0.57988 300.78 -12.9999 248.31 25.6501C213.77 51.0901 194.2 91.8501 162.57 120.38C146.85 134.56 129.64 139.17 110.93 147.65C65.35 168.32 27.2 208.19 24.06 260.78C18.81 348.72 88.51 409.54 166.29 429.49C269.08 455.85 345.9 455.85 416.5 427.38C453.17 412.59 490.5 393.89 516.91 363.27C556.91 316.96 567.91 251.19 558.84 191.72C557.362 182.031 555.18 172.462 552.31 163.09V163.09Z" fill="white"/>
<path d="M214.811 13H123.091V127.29H214.811V13Z" stroke="#A3A3A3" stroke-miterlimit="10"/>
<path d="M211.061 17.6799H126.841V122.62H211.061V17.6799Z" stroke="#A3A3A3" stroke-miterlimit="10"/>
<path d="M184.97 50.1899H152.94V90.0999H184.97V50.1899Z" fill="#D6D6D6"/>
<path d="M282.82 49.1299H220.62V126.64H282.82V49.1299Z" stroke="#A3A3A3" stroke-miterlimit="10"/>
<path d="M280.35 52.2H223.08V123.56H280.35V52.2Z" stroke="#A3A3A3" stroke-miterlimit="10"/>
<path d="M262.58 74.3501H240.86V101.42H262.58V74.3501Z" fill="#D6D6D6"/>
<path d="M172.24 205.68V143.48H94.7302V205.68H172.24Z" stroke="#A3A3A3" stroke-miterlimit="10"/>
<path d="M168.591 202.76V146.41H98.3708V202.76H168.591Z" stroke="#A3A3A3" stroke-miterlimit="10"/>
<path d="M147.021 185.44V163.72H119.951V185.44H147.021Z" fill="#D6D6D6"/>
<path d="M258.861 143.02H179.461V241.95H258.861V143.02Z" stroke="#A3A3A3" stroke-miterlimit="10"/>
<path d="M255.66 147.01H182.66V237.97H255.66V147.01Z" stroke="#A3A3A3" stroke-miterlimit="10"/>
<path d="M233.031 175.21H205.301V209.76H233.031V175.21Z" fill="#D6D6D6"/>
<path d="M22.5898 227.67L42.5398 418.91" stroke="#263238" stroke-width="2" stroke-miterlimit="10"/>
<path d="M38.8693 381.55L30.2793 372.76" stroke="#263238" stroke-width="2" stroke-miterlimit="10"/>
<path d="M32.9996 375.62C32.9824 374.157 32.6522 372.715 32.0312 371.39C31.4103 370.066 30.513 368.889 29.3996 367.94C27.0796 365.87 14.8496 360.73 13.6896 365.03C12.4596 369.71 24.9996 378.91 32.9996 375.62Z" fill="#0987FF" stroke="#263238" stroke-miterlimit="10"/>
<path d="M33.0296 375.62L21.3896 368.37" stroke="#263238" stroke-width="0.5" stroke-miterlimit="10"/>
<path d="M40.5198 403.2L32.5498 394.5" stroke="#263238" stroke-width="2" stroke-miterlimit="10"/>
<path d="M35.2997 397.37C35.2825 395.907 34.9523 394.465 34.3313 393.14C33.7104 391.816 32.8131 390.639 31.6997 389.69C29.3797 387.62 17.1497 382.48 15.9897 386.78C14.7297 391.46 27.2397 400.66 35.2997 397.37Z" fill="#0987FF" stroke="#263238" stroke-miterlimit="10"/>
<path d="M35.3002 397.37L23.6602 390.12" stroke="#263238" stroke-width="0.5" stroke-miterlimit="10"/>
<path d="M33.3801 328.42L24.3301 318.86" stroke="#263238" stroke-width="2" stroke-miterlimit="10"/>
<path d="M27.4901 322.55C27.4729 321.087 27.1427 319.645 26.5218 318.32C25.9008 316.996 25.0035 315.819 23.8901 314.87C21.5701 312.8 9.3401 307.66 8.1801 311.96C6.9201 316.64 19.4301 325.84 27.4901 322.55Z" fill="#0987FF" stroke="#263238" stroke-miterlimit="10"/>
<path d="M27.4896 322.55L15.8496 315.3" stroke="#263238" stroke-width="0.5" stroke-miterlimit="10"/>
<path d="M35.1598 350.22L27.0098 341.43" stroke="#263238" stroke-width="2" stroke-miterlimit="10"/>
<path d="M29.7596 344.3C29.7424 342.837 29.4122 341.395 28.7913 340.07C28.1704 338.746 27.273 337.569 26.1596 336.62C23.8396 334.55 11.6096 329.41 10.4496 333.71C9.18963 338.39 21.6996 347.59 29.7596 344.3Z" fill="#0987FF" stroke="#263238" stroke-miterlimit="10"/>
<path d="M29.7601 344.3L18.1201 337.05" stroke="#263238" stroke-width="0.5" stroke-miterlimit="10"/>
<path d="M29.7998 293.11L21.0498 284.35" stroke="#263238" stroke-width="2" stroke-miterlimit="10"/>
<path d="M23.7994 287.22C23.7822 285.757 23.452 284.315 22.8311 282.99C22.2102 281.666 21.3128 280.489 20.1994 279.54C17.8794 277.47 5.65943 272.33 4.49943 276.63C3.23943 281.31 15.7494 290.51 23.7994 287.22Z" fill="#0987FF" stroke="#263238" stroke-miterlimit="10"/>
<path d="M23.7999 287.22L12.1699 279.97" stroke="#263238" stroke-width="0.5" stroke-miterlimit="10"/>
<path d="M25.6696 257.65L17.3496 248.87" stroke="#263238" stroke-width="2" stroke-miterlimit="10"/>
<path d="M20.0997 251.73C20.0817 250.269 19.7512 248.828 19.1302 247.505C18.5093 246.182 17.6124 245.007 16.4997 244.06C14.1797 242 1.99973 236.84 0.789727 241.15C-0.470273 245.83 11.9997 255 20.0997 251.73Z" fill="#0987FF" stroke="#263238" stroke-miterlimit="10"/>
<path d="M20.1 251.73L8.45996 244.48" stroke="#263238" stroke-width="0.5" stroke-miterlimit="10"/>
<path d="M37.8096 369.44L44.6896 358.23" stroke="#263238" stroke-width="2" stroke-miterlimit="10"/>
<path d="M42.5894 361.59C42.3038 360.156 42.3293 358.678 42.6639 357.254C42.9986 355.831 43.6348 354.496 44.5294 353.34C46.3694 350.83 57.2694 343.28 59.2894 347.25C61.4894 351.57 51.1494 363.15 42.5894 361.59Z" fill="#0987FF" stroke="#263238" stroke-miterlimit="10"/>
<path d="M42.5898 361.59L53.0598 351.58" stroke="#263238" stroke-width="0.5" stroke-miterlimit="10"/>
<path d="M31.8301 312.21L38.7101 300.99" stroke="#263238" stroke-width="2" stroke-miterlimit="10"/>
<path d="M36.6094 304.36C36.3271 302.926 36.3542 301.448 36.6887 300.026C37.0233 298.603 37.6576 297.268 38.5494 296.11C40.3994 293.6 51.2894 286.05 53.3194 290.02C55.5194 294.34 45.1794 305.92 36.6094 304.36Z" fill="#0987FF" stroke="#263238" stroke-miterlimit="10"/>
<path d="M36.6094 304.36L47.0894 294.35" stroke="#263238" stroke-width="0.5" stroke-miterlimit="10"/>
<path d="M29.21 287.06L36.09 275.84" stroke="#263238" stroke-width="2" stroke-miterlimit="10"/>
<path d="M34.0002 279.21C33.7192 277.783 33.746 276.313 34.0788 274.897C34.4116 273.481 35.0428 272.153 35.9302 271C37.7702 268.49 48.6702 260.93 50.6902 264.91C52.8902 269.19 42.5502 280.77 34.0002 279.21Z" fill="#0987FF" stroke="#263238" stroke-miterlimit="10"/>
<path d="M33.9893 279.21L44.4693 269.2" stroke="#263238" stroke-width="0.5" stroke-miterlimit="10"/>
<path d="M25.3594 250.19L32.2394 238.97" stroke="#263238" stroke-width="2" stroke-miterlimit="10"/>
<path d="M30.1397 242.34C29.8574 240.906 29.8844 239.428 30.219 238.006C30.5535 236.583 31.1879 235.248 32.0797 234.09C33.9197 231.58 44.8197 224.02 46.8497 227.99C49.0497 232.32 38.6997 243.89 30.1397 242.34Z" fill="#0987FF" stroke="#263238" stroke-miterlimit="10"/>
<path d="M30.1396 242.34L40.6197 232.32" stroke="#263238" stroke-width="0.5" stroke-miterlimit="10"/>
<path d="M22.4195 226.61C22.1339 225.176 22.1593 223.698 22.494 222.274C22.8287 220.851 23.4648 219.516 24.3595 218.36C26.1995 215.85 37.0995 208.3 39.1195 212.27C41.3195 216.59 30.9995 228.17 22.4195 226.61Z" fill="#0987FF" stroke="#263238" stroke-miterlimit="10"/>
<path d="M22.4199 226.61L32.8999 216.6" stroke="#263238" stroke-width="0.5" stroke-miterlimit="10"/>
<path d="M23.0001 227C21.5447 227.133 20.0776 226.953 18.6976 226.472C17.3177 225.991 16.0569 225.22 15.0001 224.21C12.7001 222.11 6.33005 210.48 10.4901 208.89C15.0001 207.19 25.4701 218.69 23.0001 227Z" fill="#0987FF" stroke="#263238" stroke-miterlimit="10"/>
<path d="M23.0299 227.04L14.1699 215.58" stroke="#263238" stroke-width="0.5" stroke-miterlimit="10"/>
<path d="M75.2302 254.41L58.9502 418.91" stroke="#263238" stroke-width="2" stroke-miterlimit="10"/>
<path d="M59.7699 409.18L52.8799 397.96" stroke="#263238" stroke-width="2" stroke-miterlimit="10"/>
<path d="M54.9994 401.33C55.285 399.896 55.2596 398.418 54.9249 396.994C54.5902 395.571 53.9541 394.236 53.0594 393.08C51.1894 390.57 40.2894 383 38.2694 387C36.0694 391.32 46.4194 402.89 54.9994 401.33Z" fill="#0987FF" stroke="#263238" stroke-miterlimit="10"/>
<path d="M54.9799 401.33L45.0898 391.84" stroke="#263238" stroke-width="0.5" stroke-miterlimit="10"/>
<path d="M65.2796 356.1L58.3896 344.89" stroke="#263238" stroke-width="2" stroke-miterlimit="10"/>
<path d="M60.4902 348.26C60.7726 346.824 60.7457 345.345 60.4112 343.921C60.0766 342.496 59.4422 341.16 58.5502 340C56.7002 337.5 45.8002 329.95 43.7802 333.92C41.5802 338.24 51.9302 349.82 60.4902 348.26Z" fill="#0987FF" stroke="#263238" stroke-miterlimit="10"/>
<path d="M60.4896 348.26L50.5996 338.76" stroke="#263238" stroke-width="0.5" stroke-miterlimit="10"/>
<path d="M63.0199 377.85L56.1299 366.64" stroke="#263238" stroke-width="2" stroke-miterlimit="10"/>
<path d="M58.2294 370C58.5152 368.565 58.4899 367.085 58.1552 365.66C57.8205 364.235 57.1843 362.898 56.2894 361.74C54.4394 359.24 43.5394 351.69 41.5194 355.66C39.3194 360 49.6694 371.57 58.2294 370Z" fill="#0987FF" stroke="#263238" stroke-miterlimit="10"/>
<path d="M58.2299 370.01L48.3398 360.51" stroke="#263238" stroke-width="0.5" stroke-miterlimit="10"/>
<path d="M68.9396 320.77L62.0596 309.56" stroke="#263238" stroke-width="2" stroke-miterlimit="10"/>
<path d="M64.1594 312.92C64.4347 311.482 64.3986 310.001 64.0536 308.578C63.7086 307.155 63.0627 305.822 62.1594 304.67C60.3194 302.16 49.4094 294.62 47.3894 298.59C45.2494 302.91 55.5894 314.49 64.1594 312.92Z" fill="#0987FF" stroke="#263238" stroke-miterlimit="10"/>
<path d="M64.1598 312.92L54.2598 303.43" stroke="#263238" stroke-width="0.5" stroke-miterlimit="10"/>
<path d="M72.6193 285.28L65.7393 274.07" stroke="#263238" stroke-width="2" stroke-miterlimit="10"/>
<path d="M67.8401 277.44C68.1154 276.002 68.0793 274.521 67.7344 273.098C67.3894 271.675 66.7435 270.343 65.8401 269.19C64.0001 266.68 53.1002 259.13 51.0802 263.1C48.9302 267.43 59.2801 279 67.8401 277.44Z" fill="#0987FF" stroke="#263238" stroke-miterlimit="10"/>
<path d="M67.8394 277.44L57.9395 267.95" stroke="#263238" stroke-width="0.5" stroke-miterlimit="10"/>
<path d="M60.9297 396.27L69.9697 386.71" stroke="#263238" stroke-width="2" stroke-miterlimit="10"/>
<path d="M67.2197 389.57C67.2377 388.109 67.5683 386.668 68.1892 385.345C68.8102 384.022 69.7071 382.848 70.8197 381.9C73.1397 379.82 85.3597 374.67 86.5197 378.98C87.7897 383.66 75.2797 392.86 67.2197 389.57Z" fill="#0987FF" stroke="#263238" stroke-miterlimit="10"/>
<path d="M67.2197 389.57L79.5397 381.93" stroke="#263238" stroke-width="0.5" stroke-miterlimit="10"/>
<path d="M66.8701 339.03L75.9101 329.47" stroke="#263238" stroke-width="2" stroke-miterlimit="10"/>
<path d="M73.1602 332.34C73.1774 330.877 73.5075 329.435 74.1285 328.11C74.7494 326.786 75.6468 325.609 76.7601 324.66C79.0801 322.59 91.3002 317.44 92.4602 321.74C93.7302 326.42 81.2202 335.62 73.1602 332.34Z" fill="#0987FF" stroke="#263238" stroke-miterlimit="10"/>
<path d="M73.1602 332.34L85.4801 324.7" stroke="#263238" stroke-width="0.5" stroke-miterlimit="10"/>
<path d="M69.4795 313.88L78.5195 304.32" stroke="#263238" stroke-width="2" stroke-miterlimit="10"/>
<path d="M75.7695 307.18C75.7875 305.719 76.1181 304.278 76.739 302.955C77.36 301.632 78.2569 300.458 79.3695 299.51C81.6895 297.43 93.9095 292.28 95.0695 296.59C96.3395 301.27 83.8295 310.47 75.7695 307.18Z" fill="#0987FF" stroke="#263238" stroke-miterlimit="10"/>
<path d="M75.7695 307.18L88.0895 299.54" stroke="#263238" stroke-width="0.5" stroke-miterlimit="10"/>
<path d="M73.2998 277.01L82.3498 267.45" stroke="#263238" stroke-width="2" stroke-miterlimit="10"/>
<path d="M79.5996 270.31C79.6168 268.847 79.947 267.405 80.5679 266.08C81.1889 264.756 82.0862 263.579 83.1996 262.63C85.5196 260.56 97.7396 255.41 98.8996 259.71C100.16 264.39 87.6596 273.6 79.5996 270.31Z" fill="#0987FF" stroke="#263238" stroke-miterlimit="10"/>
<path d="M79.5996 270.31L91.9096 262.67" stroke="#263238" stroke-width="0.5" stroke-miterlimit="10"/>
<path d="M75.2793 253.33C75.2966 251.869 75.6269 250.428 76.2479 249.105C76.8689 247.782 77.7662 246.607 78.8793 245.66C81.1993 243.58 93.4193 238.43 94.5793 242.73C95.8393 247.42 83.3393 256.62 75.2793 253.33Z" fill="#0987FF" stroke="#263238" stroke-miterlimit="10"/>
<path d="M75.2793 253.33L87.5893 245.69" stroke="#263238" stroke-width="0.5" stroke-miterlimit="10"/>
<path d="M75.78 253.88C74.3285 253.711 72.9301 253.233 71.6794 252.477C70.4286 251.722 69.3546 250.707 68.53 249.5C66.71 246.97 62.87 234.28 67.27 233.58C72.06 232.81 79.9 246.21 75.78 253.88Z" fill="#0987FF" stroke="#263238" stroke-miterlimit="10"/>
<path d="M75.7795 253.88L69.4795 240.83" stroke="#263238" stroke-width="0.5" stroke-miterlimit="10"/>
<path d="M52.4795 177.07V418.91" stroke="#263238" stroke-width="2" stroke-miterlimit="10"/>
<path d="M52.6799 382.55L44.6699 372.1" stroke="#263238" stroke-width="2" stroke-miterlimit="10"/>
<path d="M47.1098 375.24C47.2406 373.785 47.0594 372.318 46.5783 370.939C46.0971 369.559 45.3272 368.298 44.3198 367.24C42.2298 364.93 30.5998 358.55 28.9998 362.71C27.2598 367.23 38.7498 377.67 47.1098 375.24Z" fill="#0987FF" stroke="#263238" stroke-miterlimit="10"/>
<path d="M47.11 375.24L36.29 366.82" stroke="#263238" stroke-width="0.5" stroke-miterlimit="10"/>
<path d="M52.6799 337.1L44.6699 326.65" stroke="#263238" stroke-width="2" stroke-miterlimit="10"/>
<path d="M47.1098 329.79C47.2406 328.335 47.0594 326.869 46.5783 325.489C46.0971 324.109 45.3272 322.848 44.3198 321.79C42.2298 319.49 30.5998 313.1 28.9998 317.26C27.2598 321.78 38.7498 332.22 47.1098 329.79Z" fill="#0987FF" stroke="#263238" stroke-miterlimit="10"/>
<path d="M47.11 329.79L36.29 321.37" stroke="#263238" stroke-width="0.5" stroke-miterlimit="10"/>
<path d="M52.6799 283.74L44.6699 273.29" stroke="#263238" stroke-width="2" stroke-miterlimit="10"/>
<path d="M47.1098 276.43C47.2406 274.975 47.0594 273.508 46.5783 272.129C46.0971 270.749 45.3272 269.488 44.3198 268.43C42.2298 266.13 30.5998 259.74 28.9998 263.91C27.2598 268.42 38.7498 278.86 47.1098 276.43Z" fill="#0987FF" stroke="#263238" stroke-miterlimit="10"/>
<path d="M47.11 276.43L36.29 268.01" stroke="#263238" stroke-width="0.5" stroke-miterlimit="10"/>
<path d="M52.6799 248.22L44.6699 237.77" stroke="#263238" stroke-width="2" stroke-miterlimit="10"/>
<path d="M47.1098 240.91C47.2406 239.455 47.0594 237.989 46.5783 236.609C46.0971 235.229 45.3272 233.968 44.3198 232.91C42.2298 230.61 30.5998 224.22 28.9998 228.38C27.2598 232.9 38.7498 243.34 47.1098 240.91Z" fill="#0987FF" stroke="#263238" stroke-miterlimit="10"/>
<path d="M47.11 240.91L36.29 232.49" stroke="#263238" stroke-width="0.5" stroke-miterlimit="10"/>
<path d="M52.6799 212.54L44.6699 202.1" stroke="#263238" stroke-width="2" stroke-miterlimit="10"/>
<path d="M47.1098 205.23C47.2406 203.775 47.0594 202.309 46.5783 200.929C46.0971 199.549 45.3272 198.288 44.3198 197.23C42.2298 194.93 30.5998 188.55 28.9998 192.71C27.2598 197.22 38.7498 207.67 47.1098 205.23Z" fill="#0987FF" stroke="#263238" stroke-miterlimit="10"/>
<path d="M47.11 205.23L36.29 196.81" stroke="#263238" stroke-width="0.5" stroke-miterlimit="10"/>
<path d="M52.5 396.42L60.51 385.98" stroke="#263238" stroke-width="2" stroke-miterlimit="10"/>
<path d="M58.0693 389.11C57.934 387.655 58.1121 386.189 58.5917 384.809C59.0712 383.429 59.8411 382.167 60.8493 381.11C62.9493 378.8 74.5693 372.42 76.1693 376.58C77.9093 381.11 66.4193 391.55 58.0693 389.11Z" fill="#0987FF" stroke="#263238" stroke-miterlimit="10"/>
<path d="M58.0693 389.11L69.5293 380.24" stroke="#263238" stroke-width="0.5" stroke-miterlimit="10"/>
<path d="M52.5 324.14L60.51 313.7" stroke="#263238" stroke-width="2" stroke-miterlimit="10"/>
<path d="M58.0696 316.83C57.9355 315.376 58.1143 313.909 58.5937 312.529C59.0732 311.149 59.8424 309.888 60.8496 308.83C62.9496 306.53 74.5696 300.15 76.1696 304.31C77.9096 308.82 66.4196 319.27 58.0696 316.83Z" fill="#0987FF" stroke="#263238" stroke-miterlimit="10"/>
<path d="M58.0693 316.83L69.5293 307.96" stroke="#263238" stroke-width="0.5" stroke-miterlimit="10"/>
<path d="M52.5 288.46L60.51 278.02" stroke="#263238" stroke-width="2" stroke-miterlimit="10"/>
<path d="M58.0693 281.15C57.934 279.695 58.1121 278.229 58.5917 276.849C59.0712 275.469 59.8411 274.207 60.8493 273.15C62.9493 270.84 74.5693 264.46 76.1693 268.62C77.9093 273.15 66.4193 283.59 58.0693 281.15Z" fill="#0987FF" stroke="#263238" stroke-miterlimit="10"/>
<path d="M58.0693 281.15L69.5293 272.28" stroke="#263238" stroke-width="0.5" stroke-miterlimit="10"/>
<path d="M52.5 241.31L60.51 230.87" stroke="#263238" stroke-width="2" stroke-miterlimit="10"/>
<path d="M58.0696 234C57.9355 232.546 58.1143 231.079 58.5937 229.699C59.0732 228.319 59.8424 227.058 60.8496 226C62.9496 223.7 74.5696 217.32 76.1696 221.48C77.9096 226 66.4196 236.44 58.0696 234Z" fill="#0987FF" stroke="#263238" stroke-miterlimit="10"/>
<path d="M58.0693 234L69.5293 225.13" stroke="#263238" stroke-width="0.5" stroke-miterlimit="10"/>
<path d="M52.5 204.24L60.51 193.79" stroke="#263238" stroke-width="2" stroke-miterlimit="10"/>
<path d="M58.0696 196.93C57.9355 195.475 58.1143 194.009 58.5937 192.629C59.0732 191.249 59.8424 189.988 60.8496 188.93C62.9496 186.63 74.5696 180.24 76.1696 184.4C77.9096 188.92 66.4196 199.36 58.0696 196.93Z" fill="#0987FF" stroke="#263238" stroke-miterlimit="10"/>
<path d="M58.0693 196.93L69.5293 188.05" stroke="#263238" stroke-width="0.5" stroke-miterlimit="10"/>
<path d="M52 180.48C51.8647 179.025 52.0428 177.559 52.5223 176.179C53.0019 174.799 53.7717 173.537 54.78 172.48C56.88 170.17 68.5 163.79 70.1 167.95C71.86 172.48 60.37 182.92 52 180.48Z" fill="#0987FF" stroke="#263238" stroke-miterlimit="10"/>
<path d="M52.0195 180.48L63.4795 171.61" stroke="#263238" stroke-width="0.5" stroke-miterlimit="10"/>
<path d="M52.58 181C51.1182 180.98 49.6776 180.647 48.3548 180.024C47.032 179.402 45.8575 178.504 44.91 177.39C42.84 175.06 37.71 162.84 42.01 161.68C46.7 160.4 55.88 172.92 52.58 181Z" fill="#0987FF" stroke="#263238" stroke-miterlimit="10"/>
<path d="M52.58 180.98L44.96 168.65" stroke="#263238" stroke-width="0.5" stroke-miterlimit="10"/>
<path d="M191.11 419.05C187.56 408.15 178.88 381.22 179.58 380.18C180.44 378.88 180.44 371.94 180.44 371.94C180.44 371.94 152.24 375.41 132.29 358.49C112.34 341.57 88.4699 321.62 88.4699 321.62C88.4699 321.62 84.9999 332 81.5299 342.88C78.5999 352.05 72.8699 403.41 71.1699 419.05H191.11Z" fill="#263238" stroke="#263238" stroke-linecap="round" stroke-linejoin="round"/>
<path d="M121.32 388.83C126.38 393.51 135.13 401.76 141.57 408.69" stroke="#6E6E6E" stroke-linecap="round" stroke-linejoin="round"/>
<path d="M117.26 385.11L118.83 386.54" stroke="#6E6E6E" stroke-linecap="round" stroke-linejoin="round"/>
<path d="M215.72 202C215.72 202 186.06 214.44 172.51 223.6C158.96 232.76 131.51 259.48 123.45 270.1C115.39 280.72 95.62 303.1 90.5 309.27C85.38 315.44 82.08 319.16 83.5 329.41C84.92 339.66 93.75 356.14 103.27 364.56C112.79 372.98 131.82 383.5 156.36 382.5C170.63 381.92 179.06 378.84 186.75 371.15C194.44 363.46 206.16 343.32 216.41 333.44C226.66 323.56 244.23 303.44 244.23 303.44C244.23 303.44 291.1 320.28 295.49 320.28C299.88 320.28 321.86 307.83 322.22 304.17C322.58 300.51 273.89 268.29 269.5 260.23C265.11 252.17 256 237.5 256 237.5C256 237.5 234 205.65 215.72 202Z" fill="#7D7D7D" stroke="#263238" stroke-linecap="round" stroke-linejoin="round"/>
<path d="M269.54 260.2C265.14 252.15 255.99 237.5 255.99 237.5C251.392 231.032 246.34 224.9 240.87 219.15C239.06 219.446 237.334 220.128 235.81 221.15C224.45 229.52 229.81 250.44 231.02 267.15C231.851 277.449 234.923 287.442 240.02 296.43L222.33 327.53C232.28 317.17 244.33 303.4 244.33 303.4C244.33 303.4 291.2 320.24 295.59 320.24C299.98 320.24 321.96 307.79 322.32 304.13C322.68 300.47 273.93 268.26 269.54 260.2Z" fill="#263238" stroke="#263238" stroke-linecap="round" stroke-linejoin="round"/>
<path d="M202.14 210.55C202.14 210.55 194.93 206.95 189.88 224.26C184.83 241.57 197.81 287.02 204.31 287.74C210.81 288.46 224.51 254.56 226.67 244.46C228.83 234.36 222.34 204.06 202.14 210.55Z" fill="#0987FF" stroke="#263238" stroke-linecap="round" stroke-linejoin="round"/>
<path d="M224.5 248.12C224.5 248.12 220.76 251.3 215.35 255.44C209.13 260.2 207.98 269.06 203.59 263.93C199.2 258.8 192.65 222.86 196.68 215.53C200.71 208.2 215.68 198.32 216.81 197.59C217.94 196.86 228.16 210.41 228.9 220.29C229.64 230.17 224.5 248.12 224.5 248.12Z" fill="white" stroke="#263238" stroke-linecap="round" stroke-linejoin="round"/>
<path d="M216.81 197.59C215.72 198.32 200.7 208.21 196.68 215.53C195.09 218.41 195.15 225.73 196.06 233.85C197.5 234.83 199.06 235.873 200.74 236.98C214.31 245.93 224.5 248.12 224.5 248.12L225.25 208.99C222 202.48 217.52 197.12 216.81 197.59Z" fill="#263238" stroke="#263238" stroke-linecap="round" stroke-linejoin="round"/>
<path d="M282 207.11L266.62 233.47C261.49 242.26 255.62 252.47 245.38 254.71C235.14 256.95 225.25 258.37 219.75 249.58C214.25 240.79 208.4 229.08 212.06 212.97C215.72 196.86 221.95 192.1 229.64 186.24C237.33 180.38 245 176.72 253.79 180C262.58 183.28 282 207.11 282 207.11Z" fill="white" stroke="#263238" stroke-linecap="round" stroke-linejoin="round"/>
<path d="M250.87 216.16C250.1 217.52 248.81 218.25 248 217.78C247.19 217.31 247.15 215.84 247.92 214.48C248.69 213.12 249.98 212.4 250.8 212.86C251.62 213.32 251.65 214.8 250.87 216.16Z" fill="#263238" stroke="#263238" stroke-linecap="round" stroke-linejoin="round"/>
<path d="M266.78 223.69C266.01 225.05 264.72 225.78 263.91 225.32C263.1 224.86 263.06 223.37 263.83 222.01C264.6 220.65 265.89 219.93 266.71 220.39C267.53 220.85 267.56 222.34 266.78 223.69Z" fill="#263238" stroke="#263238" stroke-linecap="round" stroke-linejoin="round"/>
<path d="M246.4 205.19C248.245 204.859 250.138 204.911 251.961 205.343C253.785 205.774 255.5 206.577 257 207.7" stroke="#263238" stroke-width="2" stroke-linecap="round" stroke-linejoin="round"/>
<path d="M266.51 213.11C266.51 213.11 273.96 213.5 273.64 218.91" stroke="#263238" stroke-width="2" stroke-linecap="round" stroke-linejoin="round"/>
<path d="M238.26 232.22C238.26 232.22 240.26 238.59 249.94 241.47" stroke="#263238" stroke-linecap="round" stroke-linejoin="round"/>
<path d="M264.14 218L261.88 223.29C261.88 223.29 256.88 235.8 255.99 237.47C255.1 239.14 248.28 235.75 246.4 232.73" stroke="#263238" stroke-linecap="round" stroke-linejoin="round"/>
<path d="M221.57 204.18C221.57 204.18 222.67 204.18 225.57 202.35C228.47 200.52 231.8 203.82 238.75 201.25C245.7 198.68 235.82 188.8 245.34 188.07C254.86 187.34 259.99 202.72 271.7 208.21C283.41 213.7 291.48 211.51 296.6 198.32C301.72 185.13 294.41 177.45 288.55 171.6C282.69 165.75 288.55 164.6 286.72 155.49C284.89 146.38 275.72 142.67 266.95 145.97C258.18 149.27 260.35 151.83 255.59 151.83C250.83 151.83 246.44 145.6 233.26 148.16C220.08 150.72 209.83 164.64 208.36 177.82C206.89 191 211.29 204.91 213.12 205.65C214.95 206.39 221.57 204.18 221.57 204.18Z" fill="#263238" stroke="#263238" stroke-linecap="round" stroke-linejoin="round"/>
<path d="M221.59 209C221.59 209 225.21 197.76 221.37 194.43C217.53 191.1 211.16 193.23 209.85 198.2C208.54 203.17 206.47 212.09 208.64 214.37C210.81 216.65 215.05 215.96 215.05 215.96" fill="white"/>
<path d="M221.59 209C221.59 209 225.21 197.76 221.37 194.43C217.53 191.1 211.16 193.23 209.85 198.2C208.54 203.17 206.47 212.09 208.64 214.37C210.81 216.65 215.05 215.96 215.05 215.96" stroke="#263238" stroke-linecap="round" stroke-linejoin="round"/>
<path d="M343 419.05L327.26 361.22C326.099 356.949 323.564 353.179 320.047 350.491C316.53 347.804 312.226 346.349 307.8 346.35H244.83C239.8 346.349 234.951 348.227 231.235 351.616C227.518 355.006 225.202 359.661 224.74 364.67L219.74 419.05H343Z" fill="#263238" stroke="#263238" stroke-linecap="round" stroke-linejoin="round"/>
<path d="M298.1 300.5C298.1 300.5 250.86 321.74 248.67 323.93C246.48 326.12 232.92 419.05 232.92 419.05H395.86C395.86 419.05 370.59 321 367.3 318.81C364.01 316.62 320.8 298.67 319.7 298.67C318.6 298.67 298.1 300.5 298.1 300.5Z" fill="#0987FF" stroke="#263238" stroke-linecap="round" stroke-linejoin="round"/>
<path d="M355 304.5C355 304.5 359.67 304.72 360.52 305.99C361.37 307.26 363.52 315.12 362.64 316.99C361.76 318.86 359.88 317.2 358.64 314.87C357.4 312.54 356.3 310.2 356.3 310.2L353.96 308.5L355 304.5Z" fill="white" stroke="#263238" stroke-linecap="round" stroke-linejoin="round"/>
<path d="M349 299.83C349 299.83 354.95 300.47 355.8 302.59C356.65 304.71 356.43 310.24 355.58 313.42C354.73 316.6 353.25 318.73 351.97 317.67C350.69 316.61 348.15 305.35 348.15 304.08C348.15 302.81 348.36 299.83 349 299.83Z" fill="white" stroke="#263238" stroke-linecap="round" stroke-linejoin="round"/>
<path d="M344.76 296.86C344.76 296.86 350.28 298.35 351.34 299.86C352.4 301.37 352.4 309.63 351.34 312.81C350.28 315.99 347.73 316.81 346.45 316C345.17 315.19 343.91 309.84 343.91 307.29C343.91 304.74 344.76 296.86 344.76 296.86Z" fill="white" stroke="#263238" stroke-linecap="round" stroke-linejoin="round"/>
<path d="M337.74 295.94C337.74 295.94 343.35 293.78 345.07 295.94C346.79 298.1 345.93 314.48 344.64 316.21C343.35 317.94 339.46 316.21 339.46 314.05C339.46 311.89 338 306 338 306L331.31 303.28C331.31 303.28 334.72 295.94 337.74 295.94Z" fill="white" stroke="#263238" stroke-linecap="round" stroke-linejoin="round"/>
<path d="M337.96 305.99L337.33 300.9" stroke="#263238" stroke-linecap="round" stroke-linejoin="round"/>
<path d="M295.47 302.12C295.47 302.12 288.34 303.54 287.87 309.25C287.4 314.96 288.82 342.98 292.62 345.83C296.42 348.68 315 335.37 315 335.37C315 335.37 329.67 343 333 340.6C336.33 338.2 333.47 313.52 326.35 304.02C319.23 294.52 295.47 302.12 295.47 302.12Z" fill="white" stroke="#263238" stroke-linecap="round" stroke-linejoin="round"/>
<path d="M266.34 388.41L273.56 350.18" stroke="#263238" stroke-linecap="round" stroke-linejoin="round"/>
<path d="M355.07 342.96L363.73 374.3L357.96 417.99" stroke="#263238" stroke-linecap="round" stroke-linejoin="round"/>
<path d="M274.7 295.98C287.137 295.98 297.22 286.39 297.22 274.56C297.22 262.73 287.137 253.14 274.7 253.14C262.262 253.14 252.18 262.73 252.18 274.56C252.18 286.39 262.262 295.98 274.7 295.98Z" fill="#263238" stroke="#263238" stroke-linecap="round" stroke-linejoin="round"/>
<path d="M283.13 294C284.255 293.558 285.334 293.006 286.35 292.35" stroke="#6E6E6E" stroke-linecap="round" stroke-linejoin="round"/>
<path d="M255 264.75C255 264.75 249.68 279.15 258.45 288.85C264.62 295.69 273.12 296.47 279.57 295.02" stroke="#6E6E6E" stroke-linecap="round" stroke-linejoin="round"/>
<path d="M293.7 288.42C293.7 288.42 293.34 302.7 293.34 306.73C293.34 310.76 305.42 328.73 312.74 329.79C320.06 330.85 322.99 317.34 323.36 311.12C323.73 304.9 325.19 296.12 325.19 296.12C325.19 296.12 304 300.5 293.7 288.42Z" fill="white" stroke="#263238" stroke-linecap="round" stroke-linejoin="round"/>
<path d="M320.43 302.17L316.71 296.88C309.63 296.94 299.71 295.55 293.71 288.42C293.71 288.42 293.48 297.64 293.38 303.35C310.38 306.94 320.43 302.17 320.43 302.17Z" fill="#263238" stroke="#263238" stroke-linecap="round" stroke-linejoin="round"/>
<path d="M286.38 277.8C286.38 277.8 290.77 289.88 297 295.74C303.23 301.6 315.31 309.29 323.73 304.89C332.15 300.49 337.64 294.64 339.84 281.1C342.04 267.56 339.84 236.43 339.84 236.43C339.84 236.43 338.74 229.84 327.02 227.64C315.3 225.44 295.17 229.47 291.14 237.53C287.11 245.59 286 256.2 286 262.79C286 269.38 286.38 277.8 286.38 277.8Z" fill="white" stroke="#263238" stroke-linecap="round" stroke-linejoin="round"/>
<path d="M313.79 268.24C314.729 268.24 315.49 266.973 315.49 265.41C315.49 263.847 314.729 262.58 313.79 262.58C312.851 262.58 312.09 263.847 312.09 265.41C312.09 266.973 312.851 268.24 313.79 268.24Z" fill="#263238" stroke="#263238" stroke-linecap="round" stroke-linejoin="round"/>
<path d="M333.05 264.08C333.05 265.65 332.29 266.92 331.35 266.92C330.41 266.92 329.65 265.65 329.65 264.08C329.65 262.51 330.41 261.25 331.35 261.25C332.29 261.25 333.05 262.52 333.05 264.08Z" fill="#263238" stroke="#263238" stroke-linecap="round" stroke-linejoin="round"/>
<path d="M308.689 259.18C308.689 259.18 310.199 254.27 316.619 255.02" stroke="#263238" stroke-linecap="round" stroke-linejoin="round"/>
<path d="M327.57 255C327.57 255 331.35 249.72 336.63 256.51" stroke="#263238" stroke-linecap="round" stroke-linejoin="round"/>
<path d="M327.569 266C327.569 266 326.059 270.15 327.569 272C329.079 273.85 329.839 277.67 327.189 278.42C325.226 278.906 323.212 279.161 321.189 279.18" stroke="#263238" stroke-linecap="round" stroke-linejoin="round"/>
<path d="M312.47 285.6C312.47 285.6 317.38 290.14 327.19 287.87" stroke="#263238" stroke-linecap="round" stroke-linejoin="round"/>
<path d="M333.61 235.77L341.16 253.51C341.16 253.51 349.85 246.72 348.34 235.39C346.83 224.06 340.41 223.31 340.41 223.31L333.61 235.77Z" fill="#263238" stroke="#263238" stroke-linecap="round" stroke-linejoin="round"/>
<path d="M284.18 260.59C284.18 260.59 285.6 265.59 289.99 262.29C294.38 258.99 299.19 248.51 299.19 248.51C299.19 248.51 293.34 256.2 297 258.4C300.66 260.6 316 256.56 332.88 240.09C349.76 223.62 346.43 214.09 338.37 207.5C330.31 200.91 312.01 211.5 312.01 211.5C312.01 211.5 299.19 207.5 283.09 216.99C266.99 226.48 269.9 248.85 272.47 252.87C275.04 256.89 275.4 264.25 284.18 260.59Z" fill="#263238" stroke="#263238" stroke-linecap="round" stroke-linejoin="round"/>
<path d="M288.17 264.59C288.17 264.59 285.24 255.43 280.48 255.8C275.72 256.17 272.79 270.8 278.65 277.4C284.51 284 287.8 278.5 287.8 278.5" fill="white"/>
<path d="M288.17 264.59C288.17 264.59 285.24 255.43 280.48 255.8C275.72 256.17 272.79 270.8 278.65 277.4C284.51 284 287.8 278.5 287.8 278.5" stroke="#263238" stroke-linecap="round" stroke-linejoin="round"/>
<path d="M285.58 277C285.582 277.467 285.446 277.924 285.187 278.314C284.929 278.703 284.561 279.007 284.13 279.187C283.699 279.368 283.225 279.416 282.766 279.326C282.308 279.236 281.886 279.012 281.555 278.682C281.224 278.353 280.998 277.932 280.906 277.474C280.815 277.016 280.861 276.541 281.039 276.109C281.217 275.677 281.52 275.308 281.908 275.048C282.296 274.789 282.753 274.65 283.22 274.65C283.845 274.65 284.443 274.897 284.886 275.338C285.328 275.778 285.578 276.376 285.58 277V277Z" fill="#0987FF" stroke="#263238" stroke-linecap="round" stroke-linejoin="round"/>
<path d="M333.25 333.82L344.25 357.62C344.25 357.62 385.99 382.15 388.55 383.25C391.11 384.35 398.07 390.94 399.17 399.72C400.27 408.5 395.17 413.64 388.92 413.64C382.67 413.64 376.84 412.17 372.08 408.15C367.32 404.13 335.46 364.58 335.46 364.58C335.46 364.58 328.51 360.58 326.68 359.08C324.85 357.58 323.01 353.59 323.01 353.59C323.01 353.59 319.35 355.42 316.79 355.06C314.23 354.7 310.2 346.27 310.2 346.27C310.2 346.27 314.2 333.09 315.33 331.27C316.46 329.45 326.33 329.07 326.33 329.07L333.25 333.82Z" fill="white" stroke="#263238" stroke-linecap="round" stroke-linejoin="round"/>
<path d="M318.229 349.93L322.259 348.46L322.989 350.3V353.59" stroke="#263238" stroke-linecap="round" stroke-linejoin="round"/>
<path d="M295.17 354L304.32 326.17C304.32 326.17 314.94 322.17 317.87 321.41C320.8 320.65 329.58 328.41 331.42 328.73C333.26 329.05 334.34 333.49 333.25 333.86C332.16 334.23 328.49 332.39 328.49 332.39L317.49 334.23C317.49 334.23 314.2 351.43 310.54 355.46C307.535 358.486 304.22 361.188 300.65 363.52C300.65 363.52 265.14 406 262.58 410C260.02 414 247.58 421.35 238.78 416.22C229.98 411.09 234.78 398.65 237.32 394.22C239.86 389.79 295.17 354 295.17 354Z" fill="white" stroke="#263238" stroke-linecap="round" stroke-linejoin="round"/>
<path d="M331.42 328.69L322 326.65L315.32 328.14" stroke="#263238" stroke-linecap="round" stroke-linejoin="round"/>
<path d="M311.34 325.56L321.26 323.69L324.23 324.06" stroke="#263238" stroke-linecap="round" stroke-linejoin="round"/>
<path d="M180.35 228.41C180.35 228.41 186.95 245.99 185.85 263.56C184.75 281.13 190.24 338.62 191.71 344.84C193.18 351.06 195 361.69 195 361.69C195 361.69 252.48 389.51 262.74 393.54C270.271 396.357 277.973 398.695 285.8 400.54C285.8 400.54 307.4 393.21 309.6 391.38C311.8 389.55 317.29 392.11 317.29 392.11C317.29 392.11 329.01 395.41 329.74 396.51C330.47 397.61 330.1 412.25 330.1 412.25C330.1 412.25 331.57 416.25 330.47 416.65C329.37 417.05 317.29 419.94 313.26 418.84C309.23 417.74 298.62 412.98 298.62 412.98C298.62 412.98 290.56 415.91 286.53 415.18C282.5 414.45 277.38 413.35 277.38 413.35C277.38 413.35 209.28 402.35 190.97 397.97C172.66 393.59 161.32 391.02 159.49 384.43C157.66 377.84 138.98 296.92 138.25 292.53" fill="#7D7D7D"/>
<path d="M180.35 228.41C180.35 228.41 186.95 245.99 185.85 263.56C184.75 281.13 190.24 338.62 191.71 344.84C193.18 351.06 195 361.69 195 361.69C195 361.69 252.48 389.51 262.74 393.54C270.271 396.357 277.973 398.695 285.8 400.54C285.8 400.54 307.4 393.21 309.6 391.38C311.8 389.55 317.29 392.11 317.29 392.11C317.29 392.11 329.01 395.41 329.74 396.51C330.47 397.61 330.1 412.25 330.1 412.25C330.1 412.25 331.57 416.25 330.47 416.65C329.37 417.05 317.29 419.94 313.26 418.84C309.23 417.74 298.62 412.98 298.62 412.98C298.62 412.98 290.56 415.91 286.53 415.18C282.5 414.45 277.38 413.35 277.38 413.35C277.38 413.35 209.28 402.35 190.97 397.97C172.66 393.59 161.32 391.02 159.49 384.43C157.66 377.84 138.98 296.92 138.25 292.53" stroke="#263238" stroke-linecap="round" stroke-linejoin="round"/>
<path d="M303.14 404.71H326C328.201 404.71 330.312 405.584 331.869 407.141C333.425 408.698 334.3 410.809 334.3 413.01V419.01H294.84V413.01C294.84 410.809 295.714 408.698 297.271 407.141C298.827 405.584 300.939 404.71 303.14 404.71V404.71Z" fill="#263238" stroke="#263238" stroke-linecap="round" stroke-linejoin="round"/>
<path d="M313.26 418.8C317.26 419.9 329.37 416.97 330.47 416.61C331.57 416.25 330.1 412.21 330.1 412.21C330.1 412.21 330.47 397.57 329.74 396.47C329.01 395.37 317.29 392.07 317.29 392.07C317.29 392.07 311.8 389.51 309.6 391.34C307.4 393.17 285.8 400.5 285.8 400.5C277.974 398.655 270.271 396.317 262.74 393.5C259.11 392.08 249.59 387.68 238.79 382.59C225 386.29 223.89 398.32 224.23 404.31C249.23 408.73 277.38 413.31 277.38 413.31C277.38 413.31 282.51 414.41 286.53 415.14C290.55 415.87 298.62 412.94 298.62 412.94C298.62 412.94 309.24 417.7 313.26 418.8Z" fill="white" stroke="#263238" stroke-linecap="round" stroke-linejoin="round"/>
<path d="M316.92 395.74C316.92 395.74 323.15 403.06 325.34 405.99C327.53 408.92 330.1 412.21 330.1 412.21" stroke="#263238" stroke-linecap="round" stroke-linejoin="round"/>
<path d="M307.77 397.93C307.77 397.93 317.29 407.82 319.85 409.65C322.41 411.48 325.71 417.7 325.71 417.7" stroke="#263238" stroke-linecap="round" stroke-linejoin="round"/>
<path d="M300.08 404.16C300.08 404.16 312.16 412.94 313.63 414.04C315.309 415.531 316.899 417.121 318.39 418.8" stroke="#263238" stroke-linecap="round" stroke-linejoin="round"/>
<path d="M247.06 386.5C244.45 385.29 241.67 383.99 238.79 382.63C225 386.33 223.89 398.36 224.23 404.35L234.15 406.09C235.37 395.17 242.71 389.15 247.06 386.5Z" fill="#0987FF" stroke="#263238" stroke-linecap="round" stroke-linejoin="round"/>
<path d="M359.5 412.56H508.36V419H353.63V418.38C353.646 416.833 354.271 415.354 355.37 414.265C356.468 413.175 357.952 412.563 359.5 412.56V412.56Z" fill="#263238" stroke="#263238" stroke-linecap="round" stroke-linejoin="round"/>
<path d="M508.36 412.56H414.22V419.05H508.36V412.56Z" fill="white" stroke="#263238" stroke-linecap="round" stroke-linejoin="round"/>
<path d="M518.64 339.52H424.5L414.22 412.01H508.36L518.64 339.52Z" fill="white" stroke="#263238" stroke-linecap="round" stroke-linejoin="round"/>
<path d="M508.36 412L517.36 348.35C505.19 357.82 487.65 372.45 467.57 389.1C452.24 401.86 439.4 408.53 430 412H508.36Z" fill="#263238" stroke="#263238" stroke-linecap="round" stroke-linejoin="round"/>
<path d="M468.69 387.66C473.672 387.66 477.71 384.271 477.71 380.09C477.71 375.909 473.672 372.52 468.69 372.52C463.708 372.52 459.67 375.909 459.67 380.09C459.67 384.271 463.708 387.66 468.69 387.66Z" fill="white" stroke="#263238" stroke-linecap="round" stroke-linejoin="round"/>
<path d="M546 419.05H554.85" stroke="#263238" stroke-linecap="round" stroke-linejoin="round"/>
<path d="M10 419.05H539" stroke="#263238" stroke-linecap="round" stroke-linejoin="round"/>
<path d="M453.294 132.229C455.179 123.149 449.347 114.261 440.268 112.376C431.189 110.491 422.301 116.322 420.415 125.402C418.53 134.481 424.362 143.369 433.441 145.254C442.521 147.14 451.409 141.308 453.294 132.229Z" fill="#0987FF" stroke="#263238" stroke-linecap="round" stroke-linejoin="round"/>
<path d="M436.351 126.88V191.57" stroke="#263238" stroke-linecap="round" stroke-linejoin="round"/>
<path d="M436.351 136.43L445.901 126.53" stroke="#263238" stroke-linecap="round" stroke-linejoin="round"/>
<path d="M435.64 141.38L430.16 135.9" stroke="#263238" stroke-linecap="round" stroke-linejoin="round"/>
<path d="M417.254 160.181C422.967 157.796 425.665 151.231 423.28 145.518C420.894 139.804 414.329 137.107 408.616 139.492C402.903 141.877 400.205 148.442 402.59 154.155C404.975 159.868 411.541 162.566 417.254 160.181Z" fill="#0987FF" stroke="#263238" stroke-linecap="round" stroke-linejoin="round"/>
<path d="M412.58 148.52V191.72" stroke="#263238" stroke-linecap="round" stroke-linejoin="round"/>
<path d="M412.58 154.89L418.96 148.28" stroke="#263238" stroke-linecap="round" stroke-linejoin="round"/>
<path d="M412.11 158.19L408.45 154.54" stroke="#263238" stroke-linecap="round" stroke-linejoin="round"/>
<path d="M520.9 151.88C527.092 151.88 532.11 146.861 532.11 140.67C532.11 134.479 527.092 129.46 520.9 129.46C514.709 129.46 509.69 134.479 509.69 140.67C509.69 146.861 514.709 151.88 520.9 151.88Z" fill="#0987FF" stroke="#263238" stroke-linecap="round" stroke-linejoin="round"/>
<path d="M520.54 139.37V182.58" stroke="#263238" stroke-linecap="round" stroke-linejoin="round"/>
<path d="M520.54 145.75L526.92 139.14" stroke="#263238" stroke-linecap="round" stroke-linejoin="round"/>
<path d="M520.07 149.05L516.41 145.39" stroke="#263238" stroke-linecap="round" stroke-linejoin="round"/>
<path d="M528.05 167.66H413.55V203.79H528.05V167.66Z" fill="white" stroke="#263238" stroke-linecap="round" stroke-linejoin="round"/>
<path d="M470.95 134.69L413.86 167.66H528.05L470.95 134.69Z" fill="#0987FF" stroke="#263238" stroke-linecap="round" stroke-linejoin="round"/>
<path d="M494 164.72H465.67V203.79H494V164.72Z" fill="white" stroke="#263238" stroke-linecap="round" stroke-linejoin="round"/>
<path d="M494 164.72H465.67V166.38H494V164.72Z" fill="#263238" stroke="#263238" stroke-linecap="round" stroke-linejoin="round"/>
<path d="M486.91 203.79H472.76V179.37C472.76 177.495 473.505 175.697 474.831 174.371C476.156 173.045 477.955 172.3 479.83 172.3C480.759 172.299 481.679 172.481 482.538 172.835C483.397 173.19 484.178 173.711 484.835 174.367C485.493 175.024 486.015 175.804 486.371 176.662C486.727 177.521 486.91 178.441 486.91 179.37V203.79Z" fill="#263238" stroke="#263238" stroke-linecap="round" stroke-linejoin="round"/>
<path d="M470.96 173.99H405.33V203.79H470.96V173.99Z" fill="white" stroke="#263238" stroke-linecap="round" stroke-linejoin="round"/>
<path d="M470.96 173.99H405.33V175.32H470.96V173.99Z" fill="#263238" stroke="#263238" stroke-linecap="round" stroke-linejoin="round"/>
<path d="M463.74 176.45H412.55V203.79H463.74V176.45Z" fill="#0987FF" stroke="#263238" stroke-linecap="round" stroke-linejoin="round"/>
<path d="M438.15 152.19L403.32 172.3H472.98L438.15 152.19Z" fill="#0987FF" stroke="#263238" stroke-linecap="round" stroke-linejoin="round"/>
<path d="M472.98 172.3H403.32V173.99H472.98V172.3Z" fill="white" stroke="#263238" stroke-linecap="round" stroke-linejoin="round"/>
<path d="M479.83 153.38L461.79 163.8H497.87L479.83 153.38Z" fill="#0987FF" stroke="#263238" stroke-linecap="round" stroke-linejoin="round"/>
<path d="M497.88 163.8H461.8V165.47H497.88V163.8Z" fill="white" stroke="#263238" stroke-linecap="round" stroke-linejoin="round"/>
<path d="M418.57 178.64H414.42V182.79H418.57V178.64Z" fill="white" stroke="#263238" stroke-width="0.5" stroke-linecap="round" stroke-linejoin="round"/>
<path d="M424.791 178.64H420.641V182.79H424.791V178.64Z" fill="white" stroke="#263238" stroke-width="0.5" stroke-linecap="round" stroke-linejoin="round"/>
<path d="M431.001 178.64H426.851V182.79H431.001V178.64Z" fill="white" stroke="#263238" stroke-width="0.5" stroke-linecap="round" stroke-linejoin="round"/>
<path d="M437.22 178.64H433.07V182.79H437.22V178.64Z" fill="white" stroke="#263238" stroke-width="0.5" stroke-linecap="round" stroke-linejoin="round"/>
<path d="M443.44 178.64H439.29V182.79H443.44V178.64Z" fill="white" stroke="#263238" stroke-width="0.5" stroke-linecap="round" stroke-linejoin="round"/>
<path d="M449.66 178.64H445.51V182.79H449.66V178.64Z" fill="white" stroke="#263238" stroke-width="0.5" stroke-linecap="round" stroke-linejoin="round"/>
<path d="M455.87 178.64H451.72V182.79H455.87V178.64Z" fill="white" stroke="#263238" stroke-width="0.5" stroke-linecap="round" stroke-linejoin="round"/>
<path d="M462.09 178.64H457.94V182.79H462.09V178.64Z" fill="white" stroke="#263238" stroke-width="0.5" stroke-linecap="round" stroke-linejoin="round"/>
<path d="M418.57 184.74H414.42V188.89H418.57V184.74Z" fill="white" stroke="#263238" stroke-width="0.5" stroke-linecap="round" stroke-linejoin="round"/>
<path d="M424.791 184.74H420.641V188.89H424.791V184.74Z" fill="white" stroke="#263238" stroke-width="0.5" stroke-linecap="round" stroke-linejoin="round"/>
<path d="M431.001 184.74H426.851V188.89H431.001V184.74Z" fill="white" stroke="#263238" stroke-width="0.5" stroke-linecap="round" stroke-linejoin="round"/>
<path d="M437.22 184.74H433.07V188.89H437.22V184.74Z" fill="white" stroke="#263238" stroke-width="0.5" stroke-linecap="round" stroke-linejoin="round"/>
<path d="M443.44 184.74H439.29V188.89H443.44V184.74Z" fill="white" stroke="#263238" stroke-width="0.5" stroke-linecap="round" stroke-linejoin="round"/>
<path d="M449.66 184.74H445.51V188.89H449.66V184.74Z" fill="white" stroke="#263238" stroke-width="0.5" stroke-linecap="round" stroke-linejoin="round"/>
<path d="M455.87 184.74H451.72V188.89H455.87V184.74Z" fill="white" stroke="#263238" stroke-width="0.5" stroke-linecap="round" stroke-linejoin="round"/>
<path d="M462.09 184.74H457.94V188.89H462.09V184.74Z" fill="white" stroke="#263238" stroke-width="0.5" stroke-linecap="round" stroke-linejoin="round"/>
<path d="M418.57 190.84H414.42V194.99H418.57V190.84Z" fill="white" stroke="#263238" stroke-width="0.5" stroke-linecap="round" stroke-linejoin="round"/>
<path d="M424.791 190.84H420.641V194.99H424.791V190.84Z" fill="white" stroke="#263238" stroke-width="0.5" stroke-linecap="round" stroke-linejoin="round"/>
<path d="M431.001 190.84H426.851V194.99H431.001V190.84Z" fill="white" stroke="#263238" stroke-width="0.5" stroke-linecap="round" stroke-linejoin="round"/>
<path d="M437.22 190.84H433.07V194.99H437.22V190.84Z" fill="white" stroke="#263238" stroke-width="0.5" stroke-linecap="round" stroke-linejoin="round"/>
<path d="M443.44 190.84H439.29V194.99H443.44V190.84Z" fill="white" stroke="#263238" stroke-width="0.5" stroke-linecap="round" stroke-linejoin="round"/>
<path d="M449.66 190.84H445.51V194.99H449.66V190.84Z" fill="white" stroke="#263238" stroke-width="0.5" stroke-linecap="round" stroke-linejoin="round"/>
<path d="M455.87 190.84H451.72V194.99H455.87V190.84Z" fill="white" stroke="#263238" stroke-width="0.5" stroke-linecap="round" stroke-linejoin="round"/>
<path d="M462.09 190.84H457.94V194.99H462.09V190.84Z" fill="white" stroke="#263238" stroke-width="0.5" stroke-linecap="round" stroke-linejoin="round"/>
<path d="M418.57 196.94H414.42V201.09H418.57V196.94Z" fill="white" stroke="#263238" stroke-width="0.5" stroke-linecap="round" stroke-linejoin="round"/>
<path d="M424.791 196.94H420.641V201.09H424.791V196.94Z" fill="white" stroke="#263238" stroke-width="0.5" stroke-linecap="round" stroke-linejoin="round"/>
<path d="M431.001 196.94H426.851V201.09H431.001V196.94Z" fill="white" stroke="#263238" stroke-width="0.5" stroke-linecap="round" stroke-linejoin="round"/>
<path d="M437.22 196.94H433.07V201.09H437.22V196.94Z" fill="white" stroke="#263238" stroke-width="0.5" stroke-linecap="round" stroke-linejoin="round"/>
<path d="M443.44 196.94H439.29V201.09H443.44V196.94Z" fill="white" stroke="#263238" stroke-width="0.5" stroke-linecap="round" stroke-linejoin="round"/>
<path d="M449.66 196.94H445.51V201.09H449.66V196.94Z" fill="white" stroke="#263238" stroke-width="0.5" stroke-linecap="round" stroke-linejoin="round"/>
<path d="M455.87 196.94H451.72V201.09H455.87V196.94Z" fill="white" stroke="#263238" stroke-width="0.5" stroke-linecap="round" stroke-linejoin="round"/>
<path d="M462.09 196.94H457.94V201.09H462.09V196.94Z" fill="white" stroke="#263238" stroke-width="0.5" stroke-linecap="round" stroke-linejoin="round"/>
<path d="M531.3 203.79H489.43V164.72L510.37 153.38L531.3 164.72V203.79Z" fill="white" stroke="#263238" stroke-linecap="round" stroke-linejoin="round"/>
<path d="M534.5 166.39L510.37 153.31L486.24 166.39L485.48 165L510.37 151.52L535.25 165L534.5 166.39Z" fill="white" stroke="#263238" stroke-linecap="round" stroke-linejoin="round"/>
<path d="M489.43 164.72V165.67L510.37 154.33L531.3 165.67V164.72L510.37 153.38L489.43 164.72Z" fill="#263238" stroke="#263238" stroke-linecap="round" stroke-linejoin="round"/>
<path d="M518.06 178.11H511.04V182.99H518.06V178.11Z" fill="#263238" stroke="#263238" stroke-linecap="round" stroke-linejoin="round"/>
<path d="M518.06 184.6H511.04V189.48H518.06V184.6Z" fill="#263238" stroke="#263238" stroke-linecap="round" stroke-linejoin="round"/>
<path d="M518.06 171.3H511.04V176.51H518.06V171.3Z" fill="#263238" stroke="#263238" stroke-linecap="round" stroke-linejoin="round"/>
<path d="M509.43 171.3H502.41V176.51H509.43V171.3Z" fill="#263238" stroke="#263238" stroke-linecap="round" stroke-linejoin="round"/>
<path d="M509.43 184.6H502.41V189.48H509.43V184.6Z" fill="#263238" stroke="#263238" stroke-linecap="round" stroke-linejoin="round"/>
<path d="M509.43 178.11H502.41V182.99H509.43V178.11Z" fill="#263238" stroke="#263238" stroke-linecap="round" stroke-linejoin="round"/>
<path d="M518.06 191.09H511.04V195.58H518.06V191.09Z" fill="#263238" stroke="#263238" stroke-linecap="round" stroke-linejoin="round"/>
<path d="M509.43 191.09H502.41V195.58H509.43V191.09Z" fill="#263238" stroke="#263238" stroke-linecap="round" stroke-linejoin="round"/>
<path d="M504.911 218.86H432.351C428.485 218.86 425.351 221.994 425.351 225.86V245.04C425.351 248.906 428.485 252.04 432.351 252.04H504.911C508.777 252.04 511.911 248.906 511.911 245.04V225.86C511.911 221.994 508.777 218.86 504.911 218.86Z" fill="#0987FF" stroke="#263238" stroke-linecap="round" stroke-linejoin="round"/>
<path d="M497 267.28C497 267.28 492.7 260.34 491.31 259.28C489.92 258.22 486.59 258.28 486.04 260.66C485.49 263.04 486.87 264.27 487.84 265.24C489.099 266.834 490.258 268.504 491.31 270.24C492.5 272.17 492.76 275.14 493.81 277.24C496.21 282.05 500.92 286.13 506.52 286.16C512.72 286.16 518.66 280.85 519.52 274.67C519.86 272.05 519.92 264.75 519.93 262.23C519.939 261.667 519.744 261.12 519.38 260.69C518.914 260.152 518.272 259.798 517.569 259.689C516.865 259.581 516.146 259.727 515.54 260.1L515.08 260.38L514.59 259.61C514.234 259.003 513.705 258.515 513.07 258.21C512.531 257.925 511.913 257.824 511.31 257.921C510.707 258.018 510.153 258.309 509.73 258.75L509.25 259.28L508.69 258.37C507.47 256.9 504.83 256.76 503.69 258.3V247.3C503.69 246.433 503.346 245.601 502.733 244.988C502.119 244.375 501.288 244.03 500.42 244.03C499.553 244.03 498.721 244.375 498.108 244.988C497.495 245.601 497.15 246.433 497.15 247.3L497 267.28Z" fill="white" stroke="#263238" stroke-linecap="round" stroke-linejoin="round"/>
<path d="M509.17 259.24V265.62" stroke="#263238" stroke-linecap="round" stroke-linejoin="round"/>
<path d="M515 260.34V266.03" stroke="#263238" stroke-linecap="round" stroke-linejoin="round"/>
<path d="M503.62 258.26V264.78" stroke="#263238" stroke-linecap="round" stroke-linejoin="round"/>
<path d="M500.351 235.12V241.6" stroke="#263238" stroke-linecap="round" stroke-linejoin="round"/>
<path d="M505.59 245.59H511.08" stroke="#263238" stroke-linecap="round" stroke-linejoin="round"/>
<path d="M488.88 245.59H494.37" stroke="#263238" stroke-linecap="round" stroke-linejoin="round"/>
<path d="M504.34 241.6L506.59 238.86" stroke="#263238" stroke-linecap="round" stroke-linejoin="round"/>
<path d="M495.61 241.6L493.37 238.86" stroke="#263238" stroke-linecap="round" stroke-linejoin="round"/>
<path d="M537.28 87.9202H400.41C396.174 87.9202 392.74 91.3541 392.74 95.5902V288C392.74 292.236 396.174 295.67 400.41 295.67H537.28C541.516 295.67 544.95 292.236 544.95 288V95.5902C544.95 91.3541 541.516 87.9202 537.28 87.9202Z" stroke="#263238" stroke-linecap="round" stroke-linejoin="round"/>
<path d="M536.66 87.9201H401C398.799 87.9201 396.688 88.7945 395.131 90.3511C393.575 91.9076 392.7 94.0188 392.7 96.2201V98.0001H545V96.2001C544.999 95.108 544.782 94.027 544.362 93.0191C543.941 92.0112 543.326 91.0963 542.551 90.3269C541.776 89.5575 540.857 88.9488 539.846 88.5358C538.835 88.1227 537.752 87.9135 536.66 87.9201Z" fill="#263238" stroke="#263238" stroke-linecap="round" stroke-linejoin="round"/>
<path d="M521.87 95.1102C523.163 95.1102 524.21 94.0625 524.21 92.7702C524.21 91.4778 523.163 90.4302 521.87 90.4302C520.578 90.4302 519.53 91.4778 519.53 92.7702C519.53 94.0625 520.578 95.1102 521.87 95.1102Z" fill="white" stroke="#263238" stroke-linecap="round" stroke-linejoin="round"/>
<path d="M530.53 95.1102C531.823 95.1102 532.87 94.0625 532.87 92.7702C532.87 91.4778 531.823 90.4302 530.53 90.4302C529.238 90.4302 528.19 91.4778 528.19 92.7702C528.19 94.0625 529.238 95.1102 530.53 95.1102Z" fill="white" stroke="#263238" stroke-linecap="round" stroke-linejoin="round"/>
<path d="M472.94 296.39V339.68" stroke="#263238" stroke-linecap="round" stroke-linejoin="round"/>
<path d="M442.151 236.623V240H439.752V230.047H443.724C444.485 230.047 445.157 230.188 445.74 230.471C446.328 230.749 446.782 231.147 447.101 231.667C447.424 232.182 447.586 232.768 447.586 233.424C447.586 234.395 447.237 235.172 446.54 235.755C445.847 236.334 444.895 236.623 443.683 236.623H442.151ZM442.151 234.771H443.724C444.188 234.771 444.542 234.654 444.783 234.422C445.029 234.189 445.152 233.861 445.152 233.438C445.152 232.973 445.027 232.601 444.776 232.323C444.526 232.045 444.184 231.904 443.751 231.899H442.151V234.771ZM452.569 236.486H451.271V240H448.871V230.047H452.788C453.968 230.047 454.891 230.309 455.557 230.833C456.222 231.357 456.555 232.098 456.555 233.055C456.555 233.747 456.413 234.322 456.131 234.777C455.853 235.233 455.415 235.602 454.818 235.885L456.896 239.897V240H454.326L452.569 236.486ZM451.271 234.634H452.788C453.244 234.634 453.586 234.515 453.813 234.278C454.046 234.037 454.162 233.702 454.162 233.273C454.162 232.845 454.046 232.51 453.813 232.269C453.581 232.022 453.239 231.899 452.788 231.899H451.271V234.634ZM466.433 235.229C466.433 236.199 466.253 237.058 465.893 237.806C465.533 238.553 465.02 239.13 464.354 239.535C463.694 239.936 462.939 240.137 462.092 240.137C461.244 240.137 460.492 239.943 459.836 239.556C459.18 239.164 458.667 238.605 458.298 237.881C457.933 237.156 457.742 236.325 457.724 235.386V234.825C457.724 233.85 457.901 232.991 458.257 232.248C458.617 231.501 459.13 230.924 459.795 230.519C460.465 230.113 461.226 229.91 462.078 229.91C462.921 229.91 463.673 230.111 464.334 230.512C464.995 230.913 465.507 231.485 465.872 232.228C466.241 232.966 466.428 233.813 466.433 234.771V235.229ZM463.992 234.812C463.992 233.823 463.826 233.073 463.493 232.562C463.165 232.048 462.693 231.79 462.078 231.79C460.875 231.79 460.239 232.692 460.171 234.497L460.164 235.229C460.164 236.204 460.326 236.953 460.649 237.478C460.973 238.002 461.454 238.264 462.092 238.264C462.698 238.264 463.165 238.006 463.493 237.491C463.821 236.976 463.988 236.236 463.992 235.27V234.812ZM474.896 231.899H471.908V240H469.509V231.899H466.576V230.047H474.896V231.899ZM482.087 235.782H478.313V238.154H482.771V240H475.914V230.047H482.784V231.899H478.313V233.998H482.087V235.782ZM491.801 236.63C491.769 237.323 491.582 237.936 491.24 238.469C490.898 238.997 490.418 239.408 489.798 239.699C489.183 239.991 488.479 240.137 487.686 240.137C486.378 240.137 485.348 239.711 484.596 238.858C483.844 238.006 483.468 236.803 483.468 235.249V234.757C483.468 233.782 483.636 232.929 483.974 232.2C484.315 231.466 484.805 230.901 485.443 230.505C486.081 230.104 486.82 229.903 487.658 229.903C488.866 229.903 489.837 230.222 490.57 230.86C491.304 231.494 491.721 232.369 491.821 233.485H489.429C489.41 232.879 489.258 232.444 488.971 232.18C488.684 231.915 488.246 231.783 487.658 231.783C487.061 231.783 486.624 232.007 486.346 232.453C486.068 232.9 485.922 233.613 485.908 234.593V235.297C485.908 236.359 486.04 237.118 486.305 237.573C486.574 238.029 487.034 238.257 487.686 238.257C488.237 238.257 488.659 238.127 488.95 237.867C489.242 237.607 489.397 237.195 489.415 236.63H491.801ZM500.544 231.899H497.557V240H495.157V231.899H492.225V230.047H500.544V231.899Z" fill="white"/>
</svg>
