<svg width="705" height="460" viewBox="0 0 705 460" fill="none" xmlns="http://www.w3.org/2000/svg">
<path d="M677.06 303.59C700.48 193.21 643.87 81 540.3 36.21C539.02 35.65 537.72 35.1 536.41 34.56C405.6 -19.68 355.61 45.19 278 73.91C200.39 102.63 182.28 42 92.9997 99.43C3.7197 156.86 -9.18031 280.24 17.3997 344.05C43.9797 407.86 114.19 451.47 179.06 451.47C243.93 451.47 272.65 435.47 361.99 450.4C451.33 465.33 574.7 467.4 632.13 403.61C656.17 376.9 669.58 338.83 677.06 303.59Z" fill="#0987FF"/>
<path opacity="0.7" d="M677.06 303.59C700.48 193.21 643.87 81 540.3 36.21C539.02 35.65 537.72 35.1 536.41 34.56C405.6 -19.68 355.61 45.19 278 73.91C200.39 102.63 182.28 42 92.9997 99.43C3.7197 156.86 -9.18031 280.24 17.3997 344.05C43.9797 407.86 114.19 451.47 179.06 451.47C243.93 451.47 272.65 435.47 361.99 450.4C451.33 465.33 574.7 467.4 632.13 403.61C656.17 376.9 669.58 338.83 677.06 303.59Z" fill="white"/>
<g opacity="0.3">
<path opacity="0.3" d="M487.549 66.74C487.549 66.46 487.549 66.17 487.489 65.85C487.409 59.11 484.909 54.44 478.799 50.9C467.349 44.25 460.709 50.9 457.379 56.8C454.049 62.7 448.889 53.11 440.769 54.22C432.649 55.33 433.009 64.22 430.769 68.99C428.529 73.76 423.769 67.51 417.469 68.62C411.169 69.73 410.829 73.42 409.719 74.9C408.609 76.38 398.639 72.68 393.099 75.64C389.568 77.6684 386.638 80.5982 384.609 84.13H505.749C505.749 84.13 507.229 75.27 502.429 71.94C498.129 69 488.369 73.73 487.549 66.74Z" stroke="black" stroke-linecap="round" stroke-linejoin="round"/>
<path opacity="0.3" d="M431.329 77.79C430.918 77.8937 430.535 78.0885 430.209 78.36C428.649 79.72 428.649 80.7 428.649 80.7" stroke="black" stroke-linecap="round" stroke-linejoin="round"/>
<path opacity="0.3" d="M458.079 66.32C457.009 68.68 456.079 71.32 453.829 72.32C450.659 73.8 447.689 70.45 444.759 69.69C443.933 69.4205 443.045 69.4123 442.214 69.6664C441.384 69.9205 440.652 70.4247 440.119 71.11C438.799 72.62 438.779 76.04 437.039 77C435.981 77.4167 434.844 77.5976 433.709 77.53" stroke="black" stroke-linecap="round" stroke-linejoin="round"/>
<path opacity="0.3" d="M494.129 77.23C494.039 77.01 493.949 76.8 493.849 76.6C491.519 71.95 486.019 75.69 482.629 74.38C479.629 73.22 480.629 68.47 480.209 65.99C479.429 61.18 473.389 57.51 468.669 58.25C465.162 58.8403 461.988 60.6847 459.739 63.44" stroke="black" stroke-linecap="round" stroke-linejoin="round"/>
<path opacity="0.3" d="M495.09 81.49C495.001 80.666 494.864 79.848 494.68 79.04" stroke="black" stroke-linecap="round" stroke-linejoin="round"/>
</g>
<g opacity="0.3">
<path opacity="0.3" d="M186.1 142.84C186.084 142.547 186.084 142.253 186.1 141.96C186.02 135.21 183.51 130.54 177.4 126.96C165.96 120.31 159.31 126.96 155.99 132.87C152.67 138.78 147.5 129.17 139.37 130.28C131.24 131.39 131.62 140.28 129.37 145.05C127.12 149.82 122.37 143.57 116.08 144.68C109.79 145.79 109.43 149.48 108.32 150.96C107.21 152.44 97.2497 148.74 91.7097 151.7C88.1779 153.728 85.2481 156.658 83.2197 160.19H204.31C204.31 160.19 205.79 151.33 200.99 148.01C196.69 145.06 186.93 149.83 186.1 142.84Z" stroke="black" stroke-linecap="round" stroke-linejoin="round"/>
<path opacity="0.3" d="M129.89 153.89C129.478 153.992 129.095 154.187 128.77 154.46C127.2 155.83 127.2 156.8 127.2 156.8" stroke="black" stroke-linecap="round" stroke-linejoin="round"/>
<path opacity="0.3" d="M156.64 142.42C155.56 144.78 154.64 147.42 152.39 148.42C149.21 149.9 146.24 146.55 143.32 145.79C142.493 145.521 141.603 145.513 140.771 145.767C139.939 146.021 139.206 146.525 138.67 147.21C137.35 148.72 137.33 152.14 135.6 153.1C134.538 153.517 133.398 153.698 132.26 153.63" stroke="black" stroke-linecap="round" stroke-linejoin="round"/>
<path opacity="0.3" d="M192.69 153.33C192.6 153.11 192.51 152.9 192.41 152.7C190.08 148.05 184.57 151.79 181.19 150.48C178.19 149.33 179.19 144.57 178.76 142.09C177.98 137.28 171.94 133.61 167.22 134.35C163.718 134.947 160.549 136.79 158.3 139.54" stroke="black" stroke-linecap="round" stroke-linejoin="round"/>
<path opacity="0.3" d="M193.639 157.6C193.555 156.773 193.422 155.951 193.239 155.14" stroke="black" stroke-linecap="round" stroke-linejoin="round"/>
</g>
<g opacity="0.3">
<path opacity="0.3" d="M391.48 46.28C391.48 46.07 391.48 45.85 391.43 45.62C391.37 40.62 389.51 37.13 384.97 34.49C376.46 29.55 371.51 34.49 369.04 38.89C366.57 43.29 362.73 36.14 356.69 36.96C350.65 37.78 350.92 44.38 349.27 47.96C347.62 51.54 344.05 46.86 339.39 47.68C334.73 48.5 334.44 51.25 333.62 52.35C332.8 53.45 325.38 50.7 321.26 52.9C318.654 54.4155 316.495 56.5922 315 59.21H405C405 59.21 406.1 52.62 402.54 50.15C399.34 47.93 392.09 51.47 391.48 46.28Z" stroke="black" stroke-linecap="round" stroke-linejoin="round"/>
<path opacity="0.3" d="M349.67 54.49C349.364 54.5628 349.08 54.7067 348.84 54.91C347.67 55.91 347.67 56.66 347.67 56.66" stroke="black" stroke-linecap="round" stroke-linejoin="round"/>
<path opacity="0.3" d="M369.56 46C368.76 47.75 368.05 49.67 366.4 50.44C364.04 51.55 361.83 49.05 359.66 48.44C359.045 48.2396 358.382 48.2339 357.763 48.4236C357.144 48.6132 356.598 48.9891 356.2 49.5C355.2 50.62 355.2 53.16 353.92 53.88C353.132 54.1876 352.286 54.3207 351.44 54.27" stroke="black" stroke-linecap="round" stroke-linejoin="round"/>
<path opacity="0.3" d="M396.37 54.08C396.31 53.919 396.24 53.762 396.16 53.61C394.43 50.15 390.34 52.93 387.82 51.96C385.58 51.1 386.32 47.56 386.02 45.71C385.43 42.14 380.94 39.41 377.43 39.96C374.828 40.4094 372.475 41.7794 370.8 43.82" stroke="black" stroke-linecap="round" stroke-linejoin="round"/>
<path opacity="0.3" d="M397.08 57.25C397.017 56.6345 396.917 56.0234 396.78 55.42" stroke="black" stroke-linecap="round" stroke-linejoin="round"/>
</g>
<g opacity="0.3">
<path opacity="0.3" d="M643.829 159.38C643.819 159.24 643.819 159.1 643.829 158.96C643.903 157.495 643.55 156.039 642.813 154.77C642.077 153.501 640.988 152.473 639.679 151.81C634.209 148.63 631.029 151.81 629.439 154.63C627.849 157.45 625.439 152.87 621.509 153.4C617.579 153.93 617.799 158.16 616.739 160.4C615.679 162.64 613.389 159.7 610.389 160.23C607.389 160.76 607.209 162.52 606.689 163.23C606.169 163.94 601.389 162.17 598.749 163.58C597.061 164.55 595.659 165.951 594.689 167.64H652.559C652.559 167.64 653.259 163.4 650.969 161.82C648.879 160.44 644.219 162.72 643.829 159.38Z" stroke="black" stroke-linecap="round" stroke-linejoin="round"/>
<path opacity="0.3" d="M617 164.66C616.802 164.709 616.617 164.801 616.46 164.93C615.72 165.58 615.72 166.05 615.72 166.05" stroke="black" stroke-linecap="round" stroke-linejoin="round"/>
<path opacity="0.3" d="M629.75 159.18C629.23 160.31 628.75 161.54 627.75 162.04C626.23 162.75 624.81 161.15 623.41 160.78C623.015 160.648 622.589 160.643 622.191 160.765C621.793 160.887 621.443 161.13 621.19 161.46C620.56 162.18 620.56 163.82 619.73 164.28C619.22 164.475 618.675 164.56 618.13 164.53" stroke="black" stroke-linecap="round" stroke-linejoin="round"/>
<path opacity="0.3" d="M646.999 164.39C646.999 164.29 646.919 164.19 646.869 164.09C645.759 161.87 643.129 163.65 641.509 163.03C640.069 162.48 640.509 160.21 640.349 159.03C639.979 156.73 637.089 154.98 634.839 155.33C633.162 155.611 631.644 156.492 630.569 157.81" stroke="black" stroke-linecap="round" stroke-linejoin="round"/>
<path opacity="0.3" d="M647.429 166.43C647.429 166.08 647.329 165.67 647.239 165.25" stroke="black" stroke-linecap="round" stroke-linejoin="round"/>
</g>
<path d="M276.67 126.94C276.67 126.94 281.87 124.86 289.15 133.18C289.631 130.879 290.773 128.768 292.435 127.105C294.098 125.443 296.209 124.301 298.51 123.82" stroke="#B2B2B2" stroke-linecap="round" stroke-linejoin="round"/>
<path d="M294.65 101.4C294.65 101.4 299.85 99.32 307.13 107.64C307.612 105.337 308.755 103.225 310.42 101.563C312.084 99.9003 314.197 98.7594 316.5 98.28" stroke="#B2B2B2" stroke-linecap="round" stroke-linejoin="round"/>
<path d="M323.15 109.54C323.15 109.54 328.35 107.46 335.63 115.79C336.11 113.487 337.251 111.374 338.913 109.709C340.576 108.045 342.688 106.902 344.99 106.42" stroke="#B2B2B2" stroke-linecap="round" stroke-linejoin="round"/>
<path d="M31.4805 250.58L60.6405 254H65.2605L71.1905 249.36L34.5805 250L31.4805 250.58Z" fill="white" stroke="#B2B2B2" stroke-linecap="round" stroke-linejoin="round"/>
<path d="M61.1005 258.83C63.4938 256.07 65.8871 253.307 68.2805 250.54H31.4805C33.0405 248.933 34.5971 247.317 36.1505 245.69H74.2505C74.2505 244.44 74.2505 243.2 74.2505 241.96L76.8105 239.23L70.2905 235.36L76.7105 229.49H101.71L105.57 225.97C121.217 225.97 136.83 225.97 152.41 225.97C152.41 225.97 163.16 227.08 160.12 230.67L186.29 233.44C186.29 233.44 190.75 233.44 186.29 236.51L195.18 240.67L200.52 240.62L210.25 245.78C210.25 245.78 231.25 244.26 245 247L241.51 249.66L248.74 255.11C185.88 256.15 124 257.41 61.1005 258.83Z" fill="white" stroke="#B2B2B2" stroke-linecap="round" stroke-linejoin="round"/>
<path d="M245 247L241.51 249.66L248.74 255.11C223.6 255.54 198.63 256 173.69 256.48L182 248.5C202.953 247.973 223.953 247.473 245 247ZM166.48 256C169.253 253.48 172.027 250.963 174.8 248.45C142.11 248.87 109.47 249.36 76.57 249.88L68.75 256.83C68.75 256.83 68.95 257.54 69.28 258.61C104.15 257.83 138.72 257.09 173.34 256.42L166.48 256Z" fill="white" stroke="#B2B2B2" stroke-linecap="round" stroke-linejoin="round"/>
<path d="M73.07 256.44H79.31C79.31 254.83 79.31 253.22 79.24 251.6H74.67L72 254V255.54C72.0254 255.8 72.1516 256.04 72.3516 256.208C72.5515 256.376 72.8094 256.46 73.07 256.44Z" fill="white" stroke="#B2B2B2" stroke-linecap="round" stroke-linejoin="round"/>
<path d="M74.2004 242C74.2004 243.24 74.2004 244.48 74.2004 245.73C90.0338 245.77 105.81 245.82 121.53 245.88L133.03 235.38C112.15 235.38 91.2038 235.38 70.1904 235.38L76.7104 239.25L74.2004 242Z" fill="white" stroke="#B2B2B2" stroke-linecap="round" stroke-linejoin="round"/>
<path d="M133.091 240.59C153.591 240.59 174.081 240.62 194.561 240.68L186.241 236.52C190.591 233.25 186.241 233.45 186.241 233.45C170.907 233.71 155.611 233.98 140.351 234.26L133.091 240.59Z" fill="white" stroke="#B2B2B2" stroke-linecap="round" stroke-linejoin="round"/>
<path d="M87.6407 251.41H81.7807C81.6412 251.396 81.5003 251.411 81.3672 251.455C81.2341 251.499 81.1117 251.571 81.008 251.665C80.9043 251.759 80.8215 251.874 80.7651 252.003C80.7088 252.131 80.68 252.27 80.6807 252.41L80.7407 256.58H88.8207L88.7607 252.4C88.7401 252.121 88.6115 251.862 88.4022 251.677C88.1929 251.492 87.9196 251.396 87.6407 251.41V251.41Z" fill="#B2B2B2"/>
<path d="M97.0008 251.4H91.1508C91.0113 251.386 90.8704 251.401 90.7373 251.445C90.6042 251.489 90.4818 251.561 90.3781 251.655C90.2744 251.749 90.1916 251.864 90.1353 251.993C90.0789 252.121 90.0501 252.26 90.0508 252.4C90.0508 253.79 90.0508 255.18 90.1008 256.57H98.1708C98.1708 255.18 98.1708 253.79 98.1708 252.4C98.1478 252.112 98.0118 251.846 97.7924 251.658C97.5731 251.471 97.2884 251.378 97.0008 251.4V251.4Z" fill="#B2B2B2"/>
<path d="M106.4 251.4H100.55C100.272 251.389 100.001 251.488 99.7955 251.675C99.5897 251.862 99.4657 252.122 99.4502 252.4C99.4502 253.79 99.4502 255.18 99.4502 256.57H107.5V252.4C107.48 252.124 107.354 251.867 107.15 251.681C106.945 251.495 106.677 251.394 106.4 251.4V251.4Z" fill="#B2B2B2"/>
<path d="M115.76 251.4H109.92C109.782 251.393 109.644 251.414 109.515 251.46C109.385 251.507 109.265 251.579 109.163 251.672C109.061 251.765 108.978 251.877 108.919 252.002C108.86 252.127 108.827 252.262 108.82 252.4C108.82 253.79 108.82 255.18 108.82 256.57H116.82V252.4C116.803 252.13 116.683 251.877 116.487 251.692C116.29 251.506 116.031 251.402 115.76 251.4V251.4Z" fill="#B2B2B2"/>
<path d="M88.2007 237H82.3307C82.0511 236.986 81.7775 237.084 81.5696 237.271C81.3616 237.459 81.2362 237.721 81.2207 238C81.2207 239.39 81.2207 240.78 81.2207 242.17H89.3207C89.3207 240.78 89.3207 239.39 89.3207 238C89.3002 237.721 89.1719 237.46 88.9629 237.274C88.7539 237.087 88.4806 236.989 88.2007 237V237Z" fill="#B2B2B2"/>
<path d="M97.4807 237H91.6107C91.3329 236.989 91.0618 237.088 90.8561 237.275C90.6503 237.462 90.5263 237.722 90.5107 238C90.5107 239.39 90.5107 240.78 90.5107 242.17H98.6007C98.6007 240.78 98.6007 239.39 98.6007 238C98.5827 237.72 98.4551 237.458 98.2456 237.271C98.036 237.083 97.7613 236.986 97.4807 237V237Z" fill="#B2B2B2"/>
<path d="M106.74 237H100.88C100.741 236.986 100.6 237.001 100.467 237.045C100.334 237.089 100.211 237.161 100.108 237.255C100.004 237.349 99.9211 237.464 99.8648 237.593C99.8084 237.721 99.7796 237.86 99.7803 238V242.17H107.86V238C107.842 237.72 107.715 237.458 107.505 237.271C107.296 237.083 107.021 236.986 106.74 237V237Z" fill="#B2B2B2"/>
<path d="M116 237H110.14C110.001 236.986 109.86 237.001 109.727 237.045C109.593 237.089 109.471 237.161 109.367 237.255C109.264 237.349 109.181 237.464 109.125 237.593C109.068 237.721 109.039 237.86 109.04 238C109.04 239.39 109.04 240.78 109.04 242.17H117.12V238C117.112 237.861 117.077 237.724 117.017 237.599C116.956 237.473 116.872 237.36 116.768 237.268C116.664 237.175 116.542 237.103 116.411 237.057C116.279 237.011 116.139 236.992 116 237V237Z" fill="#B2B2B2"/>
<path d="M160.071 235.87H156.611C156.397 235.862 156.189 235.938 156.032 236.082C155.875 236.226 155.781 236.427 155.771 236.64V240.55H160.9C160.9 239.24 160.9 237.94 160.9 236.63C160.888 236.42 160.794 236.224 160.639 236.082C160.484 235.941 160.28 235.864 160.071 235.87V235.87Z" fill="#B2B2B2"/>
<path d="M166.111 235.88H162.651C162.439 235.872 162.233 235.947 162.076 236.089C161.919 236.231 161.823 236.429 161.811 236.64C161.811 237.95 161.811 239.25 161.811 240.56H166.951C166.951 239.25 166.951 237.95 166.951 236.64C166.938 236.429 166.843 236.231 166.686 236.089C166.528 235.947 166.322 235.872 166.111 235.88V235.88Z" fill="#B2B2B2"/>
<path d="M176.251 235.9H175.001C174.928 235.895 174.855 235.904 174.787 235.927C174.718 235.951 174.654 235.988 174.6 236.036C174.546 236.085 174.502 236.144 174.471 236.21C174.441 236.276 174.423 236.347 174.421 236.42C174.421 237.8 174.421 239.19 174.421 240.58H176.801C176.801 239.2 176.801 237.81 176.801 236.42C176.796 236.279 176.735 236.145 176.632 236.048C176.529 235.95 176.392 235.897 176.251 235.9V235.9Z" fill="#B2B2B2"/>
<path d="M163.101 251.63C163.094 251.479 163.058 251.331 162.994 251.194C162.93 251.056 162.84 250.933 162.729 250.831C162.617 250.729 162.487 250.65 162.345 250.598C162.203 250.546 162.052 250.523 161.901 250.53H156.261C156.109 250.523 155.959 250.546 155.816 250.598C155.674 250.65 155.544 250.729 155.432 250.831C155.321 250.933 155.231 251.056 155.167 251.194C155.103 251.331 155.067 251.479 155.061 251.63V256.63H163.061C163.091 255 163.101 253.29 163.101 251.63Z" fill="#B2B2B2"/>
<path d="M172.66 256.42V256.47H173.34L172.66 256.42Z" fill="white" stroke="#B2B2B2" stroke-linecap="round" stroke-linejoin="round"/>
<path d="M171.83 256.37L166.48 256.04L171.76 251.24C171.663 251.028 171.506 250.849 171.309 250.725C171.112 250.6 170.883 250.536 170.65 250.54H165C164.694 250.526 164.395 250.634 164.168 250.84C163.942 251.047 163.806 251.334 163.79 251.64V256.64H165.51L171.82 256.52L171.83 256.37Z" fill="#B2B2B2"/>
<path d="M189.59 251.67C189.575 251.367 189.44 251.082 189.215 250.878C188.99 250.673 188.693 250.566 188.39 250.58H182.75C182.445 250.569 182.147 250.678 181.921 250.884C181.695 251.089 181.558 251.375 181.54 251.68C181.54 253.22 181.54 254.77 181.54 256.32L189.54 256.17L189.59 251.67Z" fill="#B2B2B2"/>
<path d="M180.72 251.66C180.711 251.408 180.615 251.166 180.45 250.975C180.284 250.784 180.059 250.655 179.81 250.61L173.7 256.45L180.7 256.32L180.72 251.66Z" fill="white" stroke="#B2B2B2" stroke-linecap="round" stroke-linejoin="round"/>
<path d="M206.68 250H201C200.694 249.986 200.395 250.094 200.168 250.301C199.942 250.507 199.806 250.794 199.79 251.1C199.79 252.76 199.79 254.42 199.79 256.1H207.79C207.79 254.44 207.79 252.78 207.84 251.1C207.83 250.801 207.702 250.518 207.485 250.313C207.268 250.107 206.979 249.995 206.68 250Z" fill="#B2B2B2"/>
<path d="M216.051 250H210.391C210.085 249.986 209.787 250.093 209.559 250.296C209.331 250.5 209.191 250.785 209.171 251.09C209.171 252.75 209.171 254.41 209.171 256.09H217.231L217.291 251.09C217.282 250.937 217.243 250.787 217.175 250.649C217.108 250.511 217.014 250.387 216.899 250.286C216.783 250.184 216.649 250.107 216.503 250.058C216.358 250.009 216.204 249.989 216.051 250V250Z" fill="#B2B2B2"/>
<path d="M225.42 250.06H219.76C219.454 250.044 219.154 250.149 218.926 250.353C218.697 250.558 218.559 250.844 218.54 251.15L218.48 256.15H226.54C226.54 254.49 226.59 252.82 226.61 251.15C226.604 251 226.568 250.853 226.505 250.717C226.442 250.582 226.352 250.459 226.242 250.358C226.131 250.257 226.002 250.179 225.861 250.127C225.72 250.076 225.57 250.053 225.42 250.06Z" fill="#B2B2B2"/>
<path d="M227.73 256.35C227.73 254.6 227.78 252.84 227.8 251.08C227.821 250.741 227.974 250.424 228.227 250.198C228.48 249.971 228.812 249.854 229.15 249.87H229.31C230.256 249.872 231.179 250.157 231.96 250.69L239.61 255.99L227.73 256.35Z" fill="#B2B2B2"/>
<path d="M178.511 240.59C178.511 239.42 178.511 238.26 178.511 237.1C178.529 236.767 178.678 236.454 178.925 236.229C179.172 236.005 179.497 235.886 179.831 235.9H180.421C180.651 235.897 180.878 235.952 181.081 236.06L189.641 240.6L178.511 240.59Z" fill="#B2B2B2"/>
<path d="M116.511 219.94H113.431C113.431 215.407 113.431 210.877 113.431 206.35H116.521C116.507 210.883 116.504 215.413 116.511 219.94Z" fill="white" stroke="#B2B2B2" stroke-linecap="round" stroke-linejoin="round"/>
<path d="M109.841 226L112.061 221.82H121.711L126.381 226H109.841Z" fill="white" stroke="#B2B2B2" stroke-linecap="round" stroke-linejoin="round"/>
<path d="M118.53 221.85H107.75V220H118.52C118.52 220.58 118.52 221.22 118.53 221.85Z" fill="white" stroke="#B2B2B2" stroke-linecap="round" stroke-linejoin="round"/>
<path d="M112.93 213.47C112.029 213.429 111.148 213.747 110.481 214.355C109.814 214.962 109.414 215.809 109.37 216.71C109.37 217.79 109.37 218.87 109.37 219.94H116.5V216.71C116.451 215.809 116.049 214.964 115.38 214.357C114.712 213.751 113.832 213.432 112.93 213.47V213.47Z" fill="white" stroke="#B2B2B2" stroke-linecap="round" stroke-linejoin="round"/>
<path d="M107.78 207.18H118.7C118.825 207.188 118.949 207.171 119.067 207.131C119.185 207.09 119.293 207.027 119.386 206.944C119.479 206.861 119.555 206.761 119.609 206.649C119.663 206.536 119.694 206.414 119.7 206.29V206.29C119.695 206.165 119.665 206.042 119.612 205.928C119.559 205.815 119.483 205.713 119.39 205.629C119.297 205.545 119.188 205.481 119.069 205.44C118.951 205.399 118.825 205.382 118.7 205.39H107.78C107.655 205.382 107.53 205.399 107.411 205.44C107.293 205.481 107.184 205.545 107.091 205.629C106.998 205.713 106.922 205.815 106.869 205.928C106.815 206.042 106.785 206.165 106.78 206.29V206.29C106.787 206.414 106.818 206.536 106.872 206.649C106.925 206.761 107.001 206.861 107.094 206.944C107.187 207.027 107.296 207.09 107.414 207.131C107.531 207.171 107.656 207.188 107.78 207.18V207.18Z" fill="white" stroke="#B2B2B2" stroke-linecap="round" stroke-linejoin="round"/>
<path d="M116.171 211.83H124.851C124.912 211.834 124.973 211.826 125.031 211.806C125.089 211.786 125.143 211.754 125.188 211.713C125.234 211.672 125.271 211.623 125.297 211.567C125.323 211.512 125.338 211.451 125.341 211.39V211.39C125.338 211.328 125.323 211.268 125.297 211.212C125.271 211.156 125.235 211.105 125.189 211.063C125.143 211.022 125.09 210.989 125.032 210.968C124.974 210.947 124.912 210.937 124.851 210.94H116.171C116.109 210.937 116.047 210.947 115.989 210.968C115.931 210.989 115.878 211.022 115.832 211.063C115.787 211.105 115.75 211.156 115.724 211.212C115.698 211.268 115.683 211.328 115.681 211.39V211.39C115.688 211.513 115.744 211.628 115.836 211.71C115.927 211.792 116.048 211.836 116.171 211.83V211.83Z" fill="white" stroke="#B2B2B2" stroke-linecap="round" stroke-linejoin="round"/>
<path d="M116.181 214.14H124.851C124.912 214.143 124.974 214.133 125.032 214.112C125.09 214.091 125.143 214.058 125.189 214.017C125.235 213.975 125.271 213.924 125.297 213.868C125.323 213.812 125.338 213.752 125.341 213.69V213.69C125.338 213.628 125.323 213.568 125.297 213.512C125.271 213.456 125.235 213.405 125.189 213.363C125.143 213.322 125.09 213.289 125.032 213.268C124.974 213.247 124.912 213.237 124.851 213.24H116.171C116.109 213.237 116.047 213.247 115.989 213.268C115.931 213.289 115.878 213.322 115.832 213.363C115.787 213.405 115.75 213.456 115.724 213.512C115.698 213.568 115.683 213.628 115.681 213.69V213.69C115.683 213.753 115.698 213.814 115.725 213.871C115.752 213.928 115.789 213.978 115.836 214.02C115.882 214.062 115.937 214.094 115.996 214.115C116.055 214.136 116.118 214.144 116.181 214.14V214.14Z" fill="white" stroke="#B2B2B2" stroke-linecap="round" stroke-linejoin="round"/>
<path d="M76.8207 229.69L76.5107 229.3L80.2507 226.88C80.2995 226.864 80.352 226.864 80.4007 226.88H104.331V227.35H80.4907L76.8207 229.69Z" fill="white" stroke="#B2B2B2" stroke-linecap="round" stroke-linejoin="round"/>
<path d="M83.0004 229.65L82.6104 229.33L84.9503 226.91L85.3503 227.23L83.0004 229.65Z" fill="white" stroke="#B2B2B2" stroke-linecap="round" stroke-linejoin="round"/>
<path d="M89.53 229.48H89C89 228.68 89 227.87 89 227.07H89.53C89.51 227.87 89.52 228.68 89.53 229.48Z" fill="white" stroke="#B2B2B2" stroke-linecap="round" stroke-linejoin="round"/>
<path d="M94.7605 229.48H94.2305C94.2305 228.68 94.2305 227.87 94.2305 227.07H94.7505C94.7505 227.87 94.7505 228.68 94.7605 229.48Z" fill="white" stroke="#B2B2B2" stroke-linecap="round" stroke-linejoin="round"/>
<path d="M99.53 229.48H99C99 228.67 99 227.87 99 227.07H99.53C99.52 227.87 99.52 228.67 99.53 229.48Z" fill="white" stroke="#B2B2B2" stroke-linecap="round" stroke-linejoin="round"/>
<path d="M160.241 230.87L159.941 230.48C160.404 230.194 160.739 229.74 160.877 229.213C161.015 228.686 160.945 228.126 160.681 227.65C159.881 226.15 155.191 224.94 153.451 224.65H130.451L128.661 226.2L128.301 225.85L130.161 224.24C130.184 224.217 130.212 224.198 130.243 224.186C130.274 224.174 130.308 224.169 130.341 224.17H153.491C153.811 224.22 160.061 225.47 161.141 227.48C161.436 228.056 161.508 228.722 161.342 229.348C161.176 229.974 160.783 230.516 160.241 230.87V230.87Z" fill="white" stroke="#B2B2B2" stroke-linecap="round" stroke-linejoin="round"/>
<path d="M135.921 226.11L135.511 225.82C135.961 225.28 136.421 224.74 136.881 224.21L137.291 224.5L135.921 226.11Z" fill="white" stroke="#B2B2B2" stroke-linecap="round" stroke-linejoin="round"/>
<path d="M145.15 226.12L144.74 225.83L146.11 224.21L146.52 224.5L145.15 226.12Z" fill="white" stroke="#B2B2B2" stroke-linecap="round" stroke-linejoin="round"/>
<path d="M154.081 226.14L153.681 225.83L154.871 224.57L155.271 224.88L154.081 226.14Z" fill="white" stroke="#B2B2B2" stroke-linecap="round" stroke-linejoin="round"/>
<path d="M36.3704 245.87L35.9404 245.59C36.7804 244.49 37.6304 243.39 38.4904 242.29C38.5158 242.259 38.5478 242.234 38.5841 242.216C38.6204 242.199 38.6602 242.19 38.7004 242.19H73.9704V242.66H38.8504L36.3704 245.87Z" fill="white" stroke="#B2B2B2" stroke-linecap="round" stroke-linejoin="round"/>
<path d="M44.1906 245.72H43.6606L43.6006 242.43H44.1306L44.1906 245.72Z" fill="white" stroke="#B2B2B2" stroke-linecap="round" stroke-linejoin="round"/>
<path d="M52.4904 245.71H52.0004L51.9404 242.42H52.4704L52.4904 245.71Z" fill="white" stroke="#B2B2B2" stroke-linecap="round" stroke-linejoin="round"/>
<path d="M60.7605 245.7H60.2305C60.2305 244.6 60.2305 243.51 60.2305 242.41H60.7605C60.7305 243.5 60.7405 244.6 60.7605 245.7Z" fill="white" stroke="#B2B2B2" stroke-linecap="round" stroke-linejoin="round"/>
<path d="M69 245.69H68.5C68.5 244.59 68.5 243.5 68.5 242.4H69C69 243.5 69 244.59 69 245.69Z" fill="white" stroke="#B2B2B2" stroke-linecap="round" stroke-linejoin="round"/>
<path d="M46.9203 256.08H46.4003C46.3469 254.24 46.3069 252.4 46.2803 250.56H46.8103C46.8403 252.4 46.8803 254.24 46.9203 256.08Z" fill="white" stroke="#B2B2B2" stroke-linecap="round" stroke-linejoin="round"/>
<path d="M59.7005 256.06H59.1705C59.1705 254.22 59.1005 252.38 59.0605 250.55H59.5905C59.6305 252.38 59.6605 254.22 59.7005 256.06Z" fill="white" stroke="#B2B2B2" stroke-linecap="round" stroke-linejoin="round"/>
<path d="M27.8205 273.38C110.56 273.15 190.92 273.2 273.26 273.62C280.077 264.586 288.53 256.913 298.18 251C297.82 251 200.01 256.06 166.48 256.09C132.95 256.12 31.4805 256.09 31.1905 256.15C29.3605 258.24 27.5405 260.34 25.7305 262.43C26.4238 266.07 27.1205 269.72 27.8205 273.38Z" fill="#B2B2B2"/>
<path d="M118.531 221.85L109.841 226L112.061 221.82L118.531 221.85Z" fill="white" stroke="#B2B2B2" stroke-linecap="round" stroke-linejoin="round"/>
<path d="M118.141 232.51H113.471C113.471 231.09 113.471 229.68 113.471 228.27H118.141C118.131 229.68 118.131 231.09 118.141 232.51Z" fill="#B2B2B2"/>
<path d="M125.65 232.51H121C121 231.09 121 229.68 121 228.27H125.66C125.65 229.68 125.65 231.1 125.65 232.51Z" fill="#B2B2B2"/>
<path d="M5.12042 273.06C4.91042 299.86 9.34042 324.7 17.4004 344.06C20.3205 351.035 23.7428 357.79 27.6404 364.27H657.48C666.54 344.89 672.78 323.78 677.06 303.6C679.195 293.528 680.684 283.331 681.52 273.07L5.12042 273.06Z" fill="#0987FF"/>
<path d="M30.1709 285.55H85.4709" stroke="white" stroke-linecap="round" stroke-linejoin="round"/>
<path d="M116.311 294.06H171.621" stroke="white" stroke-linecap="round" stroke-linejoin="round"/>
<path d="M67.3906 294.06H82.2806" stroke="white" stroke-linecap="round" stroke-linejoin="round"/>
<path d="M24.8506 302.57H49.3106" stroke="white" stroke-linecap="round" stroke-linejoin="round"/>
<path d="M46.1201 312.14H72.7101" stroke="white" stroke-linecap="round" stroke-linejoin="round"/>
<path d="M111 312.14H137.58" stroke="white" stroke-linecap="round" stroke-linejoin="round"/>
<path d="M101.42 278.11H76.96" stroke="white" stroke-linecap="round" stroke-linejoin="round"/>
<path d="M25.9102 278.11H40.8002" stroke="white" stroke-linecap="round" stroke-linejoin="round"/>
<path d="M201.4 278.11H219.48" stroke="white" stroke-linecap="round" stroke-linejoin="round"/>
<path d="M145.03 278.11H163.11" stroke="white" stroke-linecap="round" stroke-linejoin="round"/>
<path d="M206.71 285.55H262.02" stroke="white" stroke-linecap="round" stroke-linejoin="round"/>
<path d="M292.86 294.06H348.16" stroke="white" stroke-linecap="round" stroke-linejoin="round"/>
<path d="M243.94 294.06H258.83" stroke="white" stroke-linecap="round" stroke-linejoin="round"/>
<path d="M201.4 302.57H225.86" stroke="white" stroke-linecap="round" stroke-linejoin="round"/>
<path d="M222.67 312.14H249.26" stroke="white" stroke-linecap="round" stroke-linejoin="round"/>
<path d="M287.54 312.14H314.13" stroke="white" stroke-linecap="round" stroke-linejoin="round"/>
<path d="M277.971 278.11H253.511" stroke="white" stroke-linecap="round" stroke-linejoin="round"/>
<path d="M202.46 278.11H217.35" stroke="white" stroke-linecap="round" stroke-linejoin="round"/>
<path d="M377.94 278.11H396.02" stroke="white" stroke-linecap="round" stroke-linejoin="round"/>
<path d="M321.58 278.11H339.66" stroke="white" stroke-linecap="round" stroke-linejoin="round"/>
<path d="M383.261 285.55H438.571" stroke="white" stroke-linecap="round" stroke-linejoin="round"/>
<path d="M469.41 294.06H524.71" stroke="white" stroke-linecap="round" stroke-linejoin="round"/>
<path d="M420.49 294.06H435.38" stroke="white" stroke-linecap="round" stroke-linejoin="round"/>
<path d="M377.94 302.57H402.41" stroke="white" stroke-linecap="round" stroke-linejoin="round"/>
<path d="M399.21 312.14H425.8" stroke="white" stroke-linecap="round" stroke-linejoin="round"/>
<path d="M464.091 312.14H490.681" stroke="white" stroke-linecap="round" stroke-linejoin="round"/>
<path d="M454.521 278.11H430.061" stroke="white" stroke-linecap="round" stroke-linejoin="round"/>
<path d="M379.011 278.11H393.901" stroke="white" stroke-linecap="round" stroke-linejoin="round"/>
<path d="M554.49 278.11H572.57" stroke="white" stroke-linecap="round" stroke-linejoin="round"/>
<path d="M498.12 278.11H516.2" stroke="white" stroke-linecap="round" stroke-linejoin="round"/>
<path d="M557.69 285.55H590.93" stroke="white" stroke-linecap="round" stroke-linejoin="round"/>
<path d="M609.471 294.06H642.711" stroke="white" stroke-linecap="round" stroke-linejoin="round"/>
<path d="M580.061 294.06H589.011" stroke="white" stroke-linecap="round" stroke-linejoin="round"/>
<path d="M554.49 302.57H569.19" stroke="white" stroke-linecap="round" stroke-linejoin="round"/>
<path d="M567.28 312.14H583.26" stroke="white" stroke-linecap="round" stroke-linejoin="round"/>
<path d="M606.271 312.14H622.26" stroke="white" stroke-linecap="round" stroke-linejoin="round"/>
<path d="M600.52 278.11H585.82" stroke="white" stroke-linecap="round" stroke-linejoin="round"/>
<path d="M555.131 278.11H564.081" stroke="white" stroke-linecap="round" stroke-linejoin="round"/>
<path d="M660.61 278.11H671.48" stroke="white" stroke-linecap="round" stroke-linejoin="round"/>
<path d="M626.73 278.11H637.6" stroke="white" stroke-linecap="round" stroke-linejoin="round"/>
<path d="M355 145.26C355 145.26 361.6 151.12 364.32 156.14C367.04 161.16 366.46 160.81 371.8 162.66C377.14 164.51 392.04 168.45 398.28 170.35C404.52 172.25 422.28 179.1 423.22 178.56C424.16 178.02 426.37 176.63 426.37 176.63C426.37 176.63 430.09 180.19 432.5 180.34C434.91 180.49 458.5 181.64 473.22 183.16C487.94 184.68 490.48 183.31 492.63 182.84C494.177 182.369 495.583 181.52 496.72 180.37C498.563 181.647 500.714 182.406 502.95 182.57C506.57 182.79 543.09 175.05 547.05 174.69C551.01 174.33 552.39 171.69 556.31 171.93C560.23 172.17 558.88 169.66 561.51 166.19C563.344 163.882 565.511 161.86 567.94 160.19L568.15 156.87C568.15 156.87 545.26 144.87 531.39 138.87C517.52 132.87 494.39 130.22 466.71 126.69C439.03 123.16 403.71 131.29 392.97 133.69C382.23 136.09 363.63 142.79 363.63 142.79L355 145.26Z" fill="#0987FF" stroke="#263238" stroke-linecap="round" stroke-linejoin="round"/>
<path d="M369.1 161.58C369.414 159.245 369.96 156.947 370.73 154.72C371.8 152.06 390.51 143.52 390.51 143.52" stroke="#263238" stroke-linecap="round" stroke-linejoin="round"/>
<path d="M426.33 176.63C426.33 176.63 441.33 139.69 445.16 136.63" stroke="#263238" stroke-linecap="round" stroke-linejoin="round"/>
<path d="M496.68 180.37L484.62 140.24" stroke="#263238" stroke-linecap="round" stroke-linejoin="round"/>
<path d="M554.46 171.82C549.337 165.747 543.707 160.12 537.63 155C527.83 146.82 523.45 144.12 523.45 144.12" stroke="#263238" stroke-linecap="round" stroke-linejoin="round"/>
<path d="M461.52 134.29L447.09 367.95" stroke="#263238" stroke-width="5" stroke-linecap="round" stroke-linejoin="round"/>
<path d="M433.15 115.25C433.15 115.25 423.49 114.66 407.78 118.84C392.07 123.02 368.19 137 364.72 139.2C361.25 141.4 354.96 145.26 354.96 145.26C354.96 145.26 358.37 148.81 360.79 148.95C363.21 149.09 404.73 143.79 407.52 142.75C410.31 141.71 413.66 136.47 417.52 138.22C421.38 139.97 421.92 140.61 422.82 140.67C423.72 140.73 453.47 139.83 476.97 141.89C500.47 143.95 504.38 144.49 506.55 143.71C508.72 142.93 509.47 140.56 512.96 142.9C516.45 145.24 518.47 146.9 521.49 147.06C524.51 147.22 533.03 146.56 541.88 150.44C550.73 154.32 561.63 159.23 564.65 159.44C565.441 159.539 566.24 159.335 566.888 158.87C567.535 158.404 567.982 157.711 568.14 156.93C568.14 156.93 555.28 144.32 540.7 135.24C526.12 126.16 501.7 119.5 496.31 118.24C490.92 116.98 489.57 114.49 483.87 113.54C478.17 112.59 454.03 111.09 446.77 110.94C439.51 110.79 433.15 115.25 433.15 115.25Z" fill="white" stroke="#263238" stroke-linecap="round" stroke-linejoin="round"/>
<path d="M433.15 115.25C433.15 115.25 421.15 127.54 415.72 137.5" stroke="#263238" stroke-linecap="round" stroke-linejoin="round"/>
<path d="M493.88 117.79C493.88 117.79 505.56 129.72 510.88 141.56" stroke="#263238" stroke-linecap="round" stroke-linejoin="round"/>
<path d="M209.37 352.68H230.84C232.108 352.681 233.33 353.154 234.269 354.006C235.208 354.858 235.796 356.028 235.92 357.29L239.31 391.94H200.9L204.29 357.29C204.417 356.029 205.006 354.86 205.944 354.009C206.883 353.157 208.103 352.684 209.37 352.68V352.68Z" fill="#0987FF" stroke="#263238" stroke-linecap="round" stroke-linejoin="round"/>
<path d="M198.35 395.36H241.45V390.67H198.35V395.36Z" fill="#0987FF" stroke="#263238" stroke-linecap="round" stroke-linejoin="round"/>
<path d="M187.749 395.381L187.95 395.904C188.149 396.419 188.727 396.676 189.243 396.478L221.224 384.163C221.739 383.964 221.996 383.386 221.798 382.87L221.596 382.348C221.398 381.832 220.819 381.575 220.304 381.774L188.323 394.089C187.807 394.287 187.551 394.866 187.749 395.381Z" fill="white" stroke="#263238" stroke-linecap="round" stroke-linejoin="round"/>
<path d="M671.48 319.59C645.96 317.46 609.8 319.59 572.21 322.04C534.62 324.49 460.9 324.91 359.86 315.33C258.82 305.75 256.7 314.27 180.13 322.78C119.58 329.5 43.0997 332.91 13.7197 334C14.8497 337.47 16.0697 340.82 17.3997 344C43.9997 407.86 114.19 451.47 179.06 451.47C243.93 451.47 272.65 435.47 361.99 450.4C451.33 465.33 574.7 467.4 632.13 403.61C652.53 380.94 665.28 350.1 673.24 319.74L671.48 319.59Z" fill="white"/>
<path d="M1.4502 334.48C1.4502 334.48 103.55 331.29 180.13 322.78C256.71 314.27 258.83 305.78 359.86 315.33C460.89 324.88 534.63 324.5 572.21 322C609.79 319.5 645.96 317.42 671.48 319.55C697 321.68 704.48 323.8 704.48 323.8" fill="white"/>
<path d="M1.4502 334.48C1.4502 334.48 103.55 331.29 180.13 322.78C256.71 314.27 258.83 305.78 359.86 315.33C460.89 324.88 534.63 324.5 572.21 322C609.79 319.5 645.96 317.42 671.48 319.55C697 321.68 704.48 323.8 704.48 323.8" stroke="#263238" stroke-linecap="round" stroke-linejoin="round"/>
<g opacity="0.3">
<path opacity="0.3" d="M616.378 55.1018C627.478 50.5402 632.779 37.8435 628.217 26.7431C623.656 15.6427 610.959 10.3421 599.859 14.9037C588.758 19.4654 583.458 32.162 588.019 43.2624C592.581 54.3628 605.278 59.6635 616.378 55.1018Z" stroke="black" stroke-linecap="round" stroke-linejoin="round"/>
<path opacity="0.3" d="M608.11 1.48001V9.90001" stroke="black" stroke-linecap="round" stroke-linejoin="round"/>
<path opacity="0.3" d="M608.11 59.54V67.96" stroke="black" stroke-linecap="round" stroke-linejoin="round"/>
<path opacity="0.3" d="M641.35 34.72H632.93" stroke="black" stroke-linecap="round" stroke-linejoin="round"/>
<path opacity="0.3" d="M583.29 34.72H574.87" stroke="black" stroke-linecap="round" stroke-linejoin="round"/>
<path opacity="0.3" d="M631.62 11.21L625.66 17.17" stroke="black" stroke-linecap="round" stroke-linejoin="round"/>
<path opacity="0.3" d="M590.56 52.27L584.61 58.22" stroke="black" stroke-linecap="round" stroke-linejoin="round"/>
<path opacity="0.3" d="M631.62 58.22L625.66 52.27" stroke="black" stroke-linecap="round" stroke-linejoin="round"/>
<path opacity="0.3" d="M590.56 17.17L584.61 11.21" stroke="black" stroke-linecap="round" stroke-linejoin="round"/>
</g>
<path d="M229.4 354.33C229.4 354.33 237.73 354.15 263.4 349.33C289.07 344.51 352.02 349.33 369.75 349.33C387.48 349.33 410.16 346.49 425.75 344.33C441.34 342.17 446.31 342.92 471.84 343.62" fill="white"/>
<path d="M229.4 354.33C229.4 354.33 237.73 354.15 263.4 349.33C289.07 344.51 352.02 349.33 369.75 349.33C387.48 349.33 410.16 346.49 425.75 344.33C441.34 342.17 446.31 342.92 471.84 343.62" stroke="#263238" stroke-linecap="round" stroke-linejoin="round"/>
<path d="M367.66 221.23L334.07 209.36V233.1L367.66 221.23Z" fill="#0987FF" stroke="#263238" stroke-linecap="round" stroke-linejoin="round"/>
<path d="M334.341 208.22H333.011V258.73H334.341V208.22Z" fill="white" stroke="#263238" stroke-linecap="round" stroke-linejoin="round"/>
<path d="M357.421 252.58H349.921V257.46H345.351V252.58H338.951V257.46H334.381V252.58H327.981V257.46H323.411V252.58H316.581L311.471 303.63H362.521L357.421 252.58Z" fill="white" stroke="#263238" stroke-linecap="round" stroke-linejoin="round"/>
<path d="M379.751 293.53H372.261V298.4H369.071L368.581 293.53H367.691H361.291H361.091V298.4H357.901L357.421 293.53H356.711H356.521H350.311H350.121H349.921V298.4H346.741L346.251 293.53H345.741H345.551H345.351H339.141H338.951H338.911H338.751V295.1L338.431 298.4H335.571L335.081 293.53H334.571H334.381H334.181H327.981H327.781H327.751H327.591V295.1L327.261 298.4H323.411V293.53H323.211H323.021H316.811H316.621H316.581L316.091 298.4H312.241V293.53H312.041H305.641H305.411L304.921 298.4H301.071V293.53H294.241L289.141 344.58H300.311H311.471H322.641H333.811H340.191H351.361H362.521H373.691H384.861L379.751 293.53Z" fill="white" stroke="#263238" stroke-linecap="round" stroke-linejoin="round"/>
<path d="M371.561 338.2H307.221V371.7H371.561V338.2Z" fill="white" stroke="#263238" stroke-linecap="round" stroke-linejoin="round"/>
<path d="M318.6 320.65H311.1V325.52H306.53V320.65H300.13V325.52H295.56V320.65H289.16V325.52H284.59V320.65H277.76L272.65 371.7H323.7L318.6 320.65Z" fill="white" stroke="#263238" stroke-linecap="round" stroke-linejoin="round"/>
<path d="M395.701 320.65H388.211V325.52H383.641V320.65H377.241V325.52H372.671V320.65H366.261V325.52H361.691V320.65H354.871L349.761 371.7H400.811L395.701 320.65Z" fill="white" stroke="#263238" stroke-linecap="round" stroke-linejoin="round"/>
<path d="M335.87 348.83H336.54C337.933 348.83 339.268 349.383 340.252 350.368C341.237 351.352 341.79 352.688 341.79 354.08V371.7H330.62V354.08C330.62 352.688 331.173 351.352 332.158 350.368C333.142 349.383 334.478 348.83 335.87 348.83V348.83Z" fill="#263238" stroke="#263238" stroke-linecap="round" stroke-linejoin="round"/>
<path d="M336.24 266.94H336.68C337.608 266.94 338.499 267.309 339.155 267.965C339.811 268.621 340.18 269.512 340.18 270.44V279.17H332.74V270.44C332.74 269.512 333.109 268.621 333.765 267.965C334.422 267.309 335.312 266.94 336.24 266.94Z" fill="#263238" stroke="#263238" stroke-linecap="round" stroke-linejoin="round"/>
<path d="M336.24 307.89H336.68C337.608 307.89 338.499 308.259 339.155 308.915C339.811 309.572 340.18 310.462 340.18 311.39V320.12H332.74V311.39C332.74 310.462 333.109 309.572 333.765 308.915C334.422 308.259 335.312 307.89 336.24 307.89V307.89Z" fill="#263238" stroke="#263238" stroke-linecap="round" stroke-linejoin="round"/>
<path d="M247.48 376.66C247.48 376.66 278.48 370.66 296.23 367.8C313.98 364.94 340.23 371.35 352.23 372.06C364.23 372.77 394.77 372.06 394.77 372.06" fill="white"/>
<path d="M247.48 376.66C247.48 376.66 278.48 370.66 296.23 367.8C313.98 364.94 340.23 371.35 352.23 372.06C364.23 372.77 394.77 372.06 394.77 372.06" stroke="#263238" stroke-linecap="round" stroke-linejoin="round"/>
<path d="M399.92 377.37C399.92 377.37 364.78 372.37 351.53 369.57C338.28 366.77 318.67 373.12 309.66 373.83C300.65 374.54 277.86 373.83 277.86 373.83" fill="white"/>
<path d="M399.92 377.37C399.92 377.37 364.78 372.37 351.53 369.57C338.28 366.77 318.67 373.12 309.66 373.83C300.65 374.54 277.86 373.83 277.86 373.83" stroke="#263238" stroke-linecap="round" stroke-linejoin="round"/>
<path d="M406 376.31C412.624 376.695 419.27 376.457 425.85 375.6C437.2 374.18 437.2 373.47 472.65 370.6C508.1 367.73 532.92 362.8 547.1 358.54C561.28 354.28 583.97 365.63 603.1 369.18C622.23 372.73 635.71 369.18 635.71 369.18" fill="white"/>
<path d="M406 376.31C412.624 376.695 419.27 376.457 425.85 375.6C437.2 374.18 437.2 373.47 472.65 370.6C508.1 367.73 532.92 362.8 547.1 358.54C561.28 354.28 583.97 365.63 603.1 369.18C622.23 372.73 635.71 369.18 635.71 369.18" stroke="#263238" stroke-linecap="round" stroke-linejoin="round"/>
<path d="M493.611 157.44C493.611 157.44 482.681 157.79 482.331 146.52C481.981 135.25 501.721 121.14 524.631 124.66C547.541 128.18 548.631 155.66 545.071 159.91C541.511 164.16 539.781 166.25 539.781 166.25C539.781 166.25 557.781 170.84 549.651 178.25C541.521 185.66 532.001 187.75 525.001 184.58C518.001 181.41 529.581 173.3 528.531 171.89C527.481 170.48 519.011 159.56 519.711 154.27C520.411 148.98 510.901 151.8 506.711 154.62C502.521 157.44 493.611 157.44 493.611 157.44Z" fill="#263238" stroke="#263238" stroke-linecap="round" stroke-linejoin="round"/>
<path d="M495.37 204.67C492.42 205.473 489.679 206.909 487.339 208.877C484.999 210.846 483.116 213.3 481.82 216.07C477.21 225.64 471.89 272.07 471.89 272.07C471.89 272.07 437.89 284.61 434.49 285.49C429.13 286.87 425.15 287.17 420.1 288.55C416.34 289.55 412.1 290.12 411.22 292.68C410.91 293.62 407.97 299.79 409.39 301.56C410.81 303.33 415.52 305.04 418.39 303.62C419.151 303.33 419.784 302.778 420.175 302.063C420.565 301.348 420.688 300.517 420.52 299.72L425.12 295.82C425.12 295.82 427.12 294.88 431.46 295.13C442.05 295.75 477.59 292.28 481.85 291.93C486.11 291.58 489.29 288.03 489.29 288.03C489.29 288.03 496.74 253.28 498.51 241.58C500.28 229.88 502.05 211.1 502.76 209.68C503.47 208.26 495.37 204.67 495.37 204.67Z" fill="white" stroke="#263238" stroke-linecap="round" stroke-linejoin="round"/>
<path d="M426.921 352.56H409.091C408.037 352.56 407.022 352.168 406.241 351.46C405.461 350.752 404.973 349.779 404.871 348.73L402.051 319.94H434.001L431.181 348.73C431.078 349.785 430.584 350.764 429.795 351.473C429.007 352.182 427.981 352.57 426.921 352.56V352.56Z" fill="#0987FF" stroke="#263238" stroke-linecap="round" stroke-linejoin="round"/>
<path d="M436.09 317.11H400.28V321.01H436.09V317.11Z" fill="#0987FF" stroke="#263238" stroke-linecap="round" stroke-linejoin="round"/>
<path d="M418.42 297.25H418.29C417.738 297.25 417.29 297.698 417.29 298.25V326.38C417.29 326.932 417.738 327.38 418.29 327.38H418.42C418.972 327.38 419.42 326.932 419.42 326.38V298.25C419.42 297.698 418.972 297.25 418.42 297.25Z" fill="white" stroke="#263238" stroke-linecap="round" stroke-linejoin="round"/>
<path d="M421 295.11C421 295.11 419.9 298 419.63 298.55C419.36 299.1 419.63 303.09 419.08 304.87C418.53 306.65 421.42 307.21 422.24 306.25C423.06 305.29 423.07 303.09 423.48 302.67C424.76 301.473 425.953 300.187 427.05 298.82C427.987 297.218 428.729 295.509 429.26 293.73" fill="white"/>
<path d="M421 295.11C421 295.11 419.9 298 419.63 298.55C419.36 299.1 419.63 303.09 419.08 304.87C418.53 306.65 421.42 307.21 422.24 306.25C423.06 305.29 423.07 303.09 423.48 302.67C424.76 301.473 425.953 300.187 427.05 298.82C427.987 297.218 428.729 295.509 429.26 293.73" stroke="#263238" stroke-linecap="round" stroke-linejoin="round"/>
<path d="M417 299.25C415.571 299.444 414.204 299.957 413 300.75" stroke="#263238" stroke-linecap="round" stroke-linejoin="round"/>
<path d="M416 296.2C417.215 296.419 418.374 296.878 419.41 297.55" stroke="#263238" stroke-linecap="round" stroke-linejoin="round"/>
<path d="M490.79 153.56C490.79 153.56 490.79 164.14 490.44 169.78C490.09 175.42 495.02 188.78 497.44 192.34C499.86 195.9 507.31 195.16 507.31 195.16V203.62L495.31 204.62C495.31 204.62 486.15 227.89 482.62 234.23C479.09 240.57 477.69 251.5 482.62 258.55C487.55 265.6 490.38 267.36 490.38 267.36L481.21 298.36C481.21 298.36 460.42 305.76 445.97 328.67C431.52 351.58 432.97 360.67 435.22 366.27C437.63 372.27 446.67 376.96 451.22 378.02C455.77 379.08 465.32 378.02 465.32 378.02C465.32 378.02 479.77 392.82 485.77 392.82C491.77 392.82 501.63 391.76 517.14 385.77C532.65 379.78 542.45 379.36 546.07 378.25C549.29 377.25 572.12 380.13 573.18 380.13C574.24 380.13 566.83 368.85 566.83 364.62V353.77C566.83 353.77 573.88 347.07 572.12 322.04C570.36 297.01 560.12 270.58 558.38 266.35C557.446 264.062 556.384 261.829 555.2 259.66C555.2 259.66 560.49 239.21 560.49 237.8C560.49 236.39 562.96 219.8 560.84 211.72C558.72 203.64 548.84 200.09 545.33 200.09C541.82 200.09 531.24 199.74 531.24 199.74L527.71 183.88L529.83 178.94C529.83 178.94 537.23 171.54 536.52 166.25C535.81 160.96 530.88 163.43 529.12 164.49L527.36 165.55C527.36 165.55 523.48 157.79 523.48 150.74V140.17C523.48 140.17 501.37 153.21 490.79 153.56Z" fill="white" stroke="#263238" stroke-linecap="round" stroke-linejoin="round"/>
<path d="M508.051 327.74C508.051 327.74 539.961 307.18 547.761 302.22C555.561 297.26 563.761 301.86 569.031 304.7C569.34 304.864 569.64 305.045 569.931 305.24C567.29 291.958 563.455 278.941 558.47 266.35C557.536 264.062 556.475 261.829 555.29 259.66C555.29 259.66 555.401 259.25 555.571 258.57C549.571 260.35 539.151 262.87 528.571 262.87C518.898 262.909 509.377 260.464 500.921 255.77C500.921 255.77 493.871 260 486.421 260C485.421 260 484.531 260 483.661 259.93C487.991 265.85 490.441 267.38 490.441 267.38L481.271 298.38L508.051 327.74Z" fill="#0987FF" stroke="#263238" stroke-linecap="round" stroke-linejoin="round"/>
<path d="M522.851 161.66L531.291 163.31L529.211 164.49L523.081 164.95L522.851 161.66Z" fill="#263238" stroke="#263238" stroke-linecap="round" stroke-linejoin="round"/>
<path d="M499.62 162.13C499.62 162.13 485.31 161.19 484.14 162.6C482.97 164.01 483.9 172.69 489.06 174.8C494.22 176.91 499.15 174.57 500.06 173.39C500.97 172.21 501.94 167.76 501.94 167.76L503.81 167.29C503.81 167.29 505.22 173.63 508.97 174.8C510.794 175.391 512.726 175.571 514.628 175.327C516.53 175.083 518.354 174.422 519.97 173.39C523.02 171.28 522.79 162.6 522.79 161.66C522.79 160.72 499.62 162.13 499.62 162.13Z" fill="#263238" stroke="#263238" stroke-linecap="round" stroke-linejoin="round"/>
<path d="M500.79 176.21L503.61 176.91" stroke="#263238" stroke-linecap="round" stroke-linejoin="round"/>
<path d="M498.92 181.84C498.92 181.84 505.25 184.65 513.23 178.79" stroke="#263238" stroke-linecap="round" stroke-linejoin="round"/>
<path d="M507.36 195.16L509.69 194.88C511.127 194.711 512.49 194.151 513.63 193.26L520.73 187.7L507.42 206.33L507.36 195.16Z" fill="#263238" stroke="#263238" stroke-linecap="round" stroke-linejoin="round"/>
<path d="M492.15 160.6C493.436 159.908 494.868 159.534 496.327 159.508C497.787 159.482 499.231 159.805 500.54 160.45" stroke="#263238" stroke-linecap="round" stroke-linejoin="round"/>
<path d="M505.84 160.16C505.84 160.16 510.4 156.16 518.49 160.01" stroke="#263238" stroke-linecap="round" stroke-linejoin="round"/>
<path d="M499.54 204.37C499.54 204.37 493.54 223.51 492.81 226.7C492.08 229.89 499.54 250.1 503.09 251.17C506.64 252.24 525.42 226.35 526.84 223.51C528.26 220.67 539.6 200.12 539.6 200.12L542.79 199.76C542.79 199.76 533.93 222.81 533.93 223.87C533.93 224.93 541.02 240.18 547.4 242.66C550.985 244.079 554.66 245.261 558.4 246.2L555.21 260.74C555.21 260.74 548.12 266.74 534.65 269.6C521.18 272.46 501.65 262.51 501.65 262.51L490.42 267.41C490.42 267.41 477.54 261.09 478.25 247.62C478.822 239.296 481.776 231.312 486.76 224.62L494.2 205.12L499.54 204.37Z" fill="#0987FF" stroke="#263238" stroke-linecap="round" stroke-linejoin="round"/>
<path d="M545.42 200.09C545.42 200.09 558.04 197.63 566.54 203.66C575.04 209.69 589.15 263.32 589.23 265.66C589.37 269.46 553.78 290.83 553.78 290.83C553.78 290.83 548.21 296.67 544.67 298.44C541.13 300.21 539.26 300.05 539.26 300.05C539.26 300.05 533.26 308.2 531.45 309.27C529.64 310.34 529.97 308.27 531.09 306.43C531.68 305.43 536.09 298.63 536.09 298.63L528.35 306.06C527.621 306.759 526.677 307.193 525.67 307.29L523.67 307.49L523.06 306.59C522.603 305.901 522.342 305.099 522.307 304.273C522.272 303.446 522.463 302.626 522.86 301.9L527.57 293.31L518.7 300.54C518.503 300.703 518.256 300.791 518 300.791C517.745 300.791 517.497 300.703 517.3 300.54C517.09 300.361 516.955 300.108 516.923 299.834C516.892 299.559 516.966 299.282 517.13 299.06L526.5 286.23L551.68 280.23L567.27 263.23L548.48 229.55" fill="white"/>
<path d="M545.42 200.09C545.42 200.09 558.04 197.63 566.54 203.66C575.04 209.69 589.15 263.32 589.23 265.66C589.37 269.46 553.78 290.83 553.78 290.83C553.78 290.83 548.21 296.67 544.67 298.44C541.13 300.21 539.26 300.05 539.26 300.05C539.26 300.05 533.26 308.2 531.45 309.27C529.64 310.34 529.97 308.27 531.09 306.43C531.68 305.43 536.09 298.63 536.09 298.63L528.35 306.06C527.621 306.759 526.677 307.193 525.67 307.29L523.67 307.49L523.06 306.59C522.603 305.901 522.342 305.099 522.307 304.273C522.272 303.446 522.463 302.626 522.86 301.9L527.57 293.31L518.7 300.54C518.503 300.703 518.256 300.791 518 300.791C517.745 300.791 517.497 300.703 517.3 300.54C517.09 300.361 516.955 300.108 516.923 299.834C516.892 299.559 516.966 299.282 517.13 299.06L526.5 286.23L551.68 280.23L567.27 263.23L548.48 229.55" stroke="#263238" stroke-linecap="round" stroke-linejoin="round"/>
<path d="M523.44 306.64L532.63 293.58" stroke="#263238" stroke-linecap="round" stroke-linejoin="round"/>
<path d="M527.551 293.35L528.971 289.81" stroke="#263238" stroke-linecap="round" stroke-linejoin="round"/>
<path d="M508.051 327.74C508.051 327.74 474.051 354.33 468.701 361.07C463.351 367.81 463.381 375.6 465.151 376.66" stroke="#263238" stroke-linecap="round" stroke-linejoin="round"/>
<path d="M496.71 385.17C496.71 385.17 534.64 372.76 549.88 365.32C565.12 357.88 566.88 353.77 566.88 353.77" stroke="#263238" stroke-linecap="round" stroke-linejoin="round"/>
<path d="M447.78 392.62C447.78 392.62 501.59 393.96 525.78 382.3C549.97 370.64 567.65 374.18 587.5 377.02C607.35 379.86 625.79 384.11 625.79 384.11" fill="white"/>
<path d="M447.78 392.62C447.78 392.62 501.59 393.96 525.78 382.3C549.97 370.64 567.65 374.18 587.5 377.02C607.35 379.86 625.79 384.11 625.79 384.11" stroke="#263238" stroke-linecap="round" stroke-linejoin="round"/>
<path d="M399.57 395.45C399.57 395.45 441.4 388.36 459.13 386.94C476.86 385.52 541.37 391.94 562.65 391.2" fill="white"/>
<path d="M399.57 395.45C399.57 395.45 441.4 388.36 459.13 386.94C476.86 385.52 541.37 391.94 562.65 391.2" stroke="#263238" stroke-linecap="round" stroke-linejoin="round"/>
<path d="M211 363.55C202.183 363.66 193.397 364.608 184.76 366.38C172 369.22 135.13 367.8 128.04 366.38C120.95 364.96 92.59 365.67 84.04 371.38" fill="white"/>
<path d="M211 363.55C202.183 363.66 193.397 364.608 184.76 366.38C172 369.22 135.13 367.8 128.04 366.38C120.95 364.96 92.59 365.67 84.04 371.38" stroke="#263238" stroke-linecap="round" stroke-linejoin="round"/>
<path d="M201 225.26C201 225.26 205.07 223.98 205.72 226.33C206.37 228.68 204.43 236.2 204.43 236.2C204.43 236.2 204.51 236.88 203.61 236.65C202.71 236.42 201 226.76 201 225.26Z" fill="white" stroke="#263238" stroke-linecap="round" stroke-linejoin="round"/>
<path d="M201 228.05C201 228.05 203.7 227.27 204.13 228.69C204.56 230.11 203.27 234.61 203.27 234.61C203.27 234.61 203.33 235.02 202.73 234.88C202.13 234.74 201 229 201 228.05Z" fill="#263238" stroke="#263238" stroke-linecap="round" stroke-linejoin="round"/>
<path d="M200.39 219.49C200.39 219.49 201.19 225.49 201.19 227.87C201.19 230.25 201.59 235.45 203.58 236.65C205.57 237.85 205.58 238.65 203.98 241.04C203.034 242.463 201.967 243.801 200.79 245.04C200.79 245.04 196.79 256.61 193.6 257.41C190.41 258.21 179.24 255.81 179.24 255.81L176.44 262.99L148.91 254.22C148.91 254.22 142.13 245.84 142.53 241.84C142.652 239.754 143.192 237.713 144.12 235.84L192.41 219.08C192.41 219.08 198 218.29 200.39 219.49Z" fill="white" stroke="#263238" stroke-linecap="round" stroke-linejoin="round"/>
<path d="M144.12 235.85C143.192 237.723 142.652 239.764 142.53 241.85C142.13 245.85 148.91 254.23 148.91 254.23L157.54 256.98C158.278 256.792 158.998 256.538 159.69 256.22C163.69 254.22 167.27 246.22 167.27 246.22C167.27 246.22 158.78 243.32 159.58 238.13C160.38 232.94 166.87 229.86 166.87 229.86C166.87 229.86 170.46 237.05 174.05 237.05C177.64 237.05 177.24 226.67 177.24 226.67V224.35L144.12 235.85Z" fill="#263238" stroke="#263238" stroke-linecap="round" stroke-linejoin="round"/>
<path d="M201 225.26C201 225.26 193.71 223.76 192.21 226.98C190.71 230.2 190.92 238.13 194.56 239.2C198.2 240.27 204.34 238.22 201 225.26Z" fill="white" stroke="#263238" stroke-linecap="round" stroke-linejoin="round"/>
<path d="M199.48 227.64C199.48 227.64 194.69 226.64 193.7 228.76C192.71 230.88 192.86 236.09 195.25 236.76C197.64 237.43 201.69 236.15 199.48 227.64Z" fill="#263238" stroke="#263238" stroke-linecap="round" stroke-linejoin="round"/>
<path d="M192.18 226.98L168.37 232.77L169.44 234.06L190.89 232.13L192.18 226.98Z" fill="white" stroke="#263238" stroke-linecap="round" stroke-linejoin="round"/>
<path d="M190.41 243.9C190.41 243.9 191.82 247.27 196.61 247.62" stroke="#263238" stroke-linecap="round" stroke-linejoin="round"/>
<path d="M135.74 242.63C135.74 242.63 172.85 230.63 185.62 225.07C198.39 219.51 219.14 216.69 219.14 216.69L197.59 212.31L186.42 193.55C186.42 193.55 168.06 192.75 160.08 196.74C152.1 200.73 141.33 206.74 141.33 208.74C141.33 210.74 143.72 233.88 143.72 233.88L135.74 242.63Z" fill="white" stroke="#263238" stroke-linecap="round" stroke-linejoin="round"/>
<path d="M191.649 202.33C181.889 203.44 159.119 207.62 142.649 222.84C143.219 228.57 143.759 233.84 143.759 233.84C143.759 233.84 171.699 214.69 197.629 212.3L191.649 202.33Z" fill="#0987FF" stroke="#263238" stroke-linecap="round" stroke-linejoin="round"/>
<path d="M178 341.57L160.63 367.09C160.63 367.09 168.43 372.41 174.81 374.18C181.19 375.95 180.13 377.37 177.29 378.79C174.45 380.21 158.5 377.73 157.44 376.31C156.38 374.89 146.8 365 146.8 365L162.05 342.66L178 341.57Z" fill="white" stroke="#263238" stroke-linecap="round" stroke-linejoin="round"/>
<path d="M172.679 345.11L154.249 367.45C154.249 367.45 163.819 374.89 169.839 375.95C175.859 377.01 179.059 376.66 179.059 377.73C179.059 378.8 171.969 381.98 168.059 382.34C164.149 382.7 143.959 380.92 140.059 380.92C136.159 380.92 129.769 379.85 130.479 374.18C131.189 368.51 137.219 364.97 137.219 364.97L149.269 343.34L174.439 342.99L172.679 345.11Z" fill="white" stroke="#263238" stroke-linecap="round" stroke-linejoin="round"/>
<path d="M95.3994 336.6C95.3994 336.6 97.1694 350.08 106.739 355.39C116.309 360.7 126.949 361.77 132.619 358.58L146.449 350.78L185.089 344.05C185.089 344.05 190.089 311.43 190.089 304.7C190.089 297.97 179.459 289.81 173.429 289.45C167.399 289.09 128.759 321.36 120.609 327.39C112.459 333.42 100.359 337.31 95.3994 336.6Z" fill="#263238" stroke="#263238" stroke-linecap="round" stroke-linejoin="round"/>
<path d="M146.45 350.78C146.45 350.78 169.14 322.42 176.93 311.43" stroke="#787878" stroke-linecap="round" stroke-linejoin="round"/>
<path d="M266 294.32C265.336 294.39 264.693 294.597 264.113 294.927C263.533 295.258 263.027 295.705 262.628 296.24C262.229 296.776 261.945 297.388 261.794 298.038C261.643 298.689 261.628 299.363 261.75 300.02L261.92 301.02L231 306.71C230.429 306.098 229.677 305.686 228.854 305.535C228.031 305.384 227.181 305.502 226.43 305.87C225.679 306.239 225.066 306.84 224.683 307.583C224.299 308.327 224.165 309.174 224.3 310C224.468 310.917 224.959 311.742 225.685 312.327C226.41 312.912 227.321 313.217 228.253 313.187C229.184 313.156 230.073 312.793 230.759 312.162C231.445 311.531 231.882 310.675 231.99 309.75L262.51 304.08L262.68 305.02C262.802 305.675 263.059 306.298 263.432 306.85C263.806 307.401 264.29 307.87 264.853 308.227C265.416 308.583 266.046 308.82 266.704 308.922C267.363 309.024 268.036 308.989 268.68 308.82L282.87 305L280.59 292.74L266 294.32Z" fill="white" stroke="#263238" stroke-linecap="round" stroke-linejoin="round"/>
<path d="M161 254.36C161 254.36 146.47 249.36 133 261.8C119.53 274.24 92.5797 304.34 90.4497 314.62C88.3197 324.9 94.3497 330.93 94.3497 330.93C94.3497 330.93 93.6397 334.48 95.4197 336.6C97.1997 338.72 103.22 341.92 115.98 337.31C128.74 332.7 140.44 319.59 147.53 313.56C154.62 307.53 168.43 299 168.43 299C168.43 299 180.83 292.26 180.13 280.92C179.43 269.58 168.07 256.48 161 254.36Z" fill="#0987FF" stroke="#263238" stroke-linecap="round" stroke-linejoin="round"/>
<path d="M105.409 330.67C101.159 331.55 98.7595 331.46 98.2295 330.93" stroke="#263238" stroke-linecap="round" stroke-linejoin="round"/>
<path d="M149.64 310.37C141.56 316.033 132.881 320.788 123.76 324.55C118.99 326.603 114.093 328.347 109.1 329.77" stroke="#263238" stroke-linecap="round" stroke-linejoin="round"/>
<path d="M143.15 286.22L140.42 286.97" stroke="#263238" stroke-linecap="round" stroke-linejoin="round"/>
<path d="M157.08 282.36L146.8 285.21" stroke="#263238" stroke-linecap="round" stroke-linejoin="round"/>
<path d="M188.63 285.91L198.21 291.91C198.21 291.91 252.09 295.1 253.51 295.1C254.93 295.1 261.66 304.31 261.66 306.44C261.66 308.57 257.41 308.21 257.41 308.21C257.41 308.21 250.32 311.4 248.55 311.4C246.78 311.4 240.39 307.86 238.62 306.4C236.85 304.94 235.78 303.92 235.78 303.92C235.78 303.92 185.09 312.07 184.02 311.72C182.95 311.37 172.33 300.37 172.33 300.37L188.63 285.91Z" fill="white" stroke="#263238" stroke-linecap="round" stroke-linejoin="round"/>
<path d="M257.409 308.24L252.819 301.22" stroke="#263238" stroke-linecap="round" stroke-linejoin="round"/>
<path d="M248.13 303.35L253.25 309.53" stroke="#263238" stroke-linecap="round" stroke-linejoin="round"/>
<path d="M243.439 304.63L249.409 310.81" stroke="#263238" stroke-linecap="round" stroke-linejoin="round"/>
<path d="M144.319 256.13C147.859 254 162.749 251.52 171.969 258.26C181.189 265 196.079 284.84 196.079 284.84L169.839 306.12L152.469 272.44" fill="#0987FF"/>
<path d="M144.319 256.13C147.859 254 162.749 251.52 171.969 258.26C181.189 265 196.079 284.84 196.079 284.84L169.839 306.12L152.469 272.44" stroke="#263238" stroke-linecap="round" stroke-linejoin="round"/>
<path d="M80.5098 382.69C80.5098 382.69 104.61 379.85 130.85 379.15C157.09 378.45 183.32 385.53 203.85 387.65C217.757 388.917 231.738 389.154 245.68 388.36" fill="white"/>
<path d="M80.5098 382.69C80.5098 382.69 104.61 379.85 130.85 379.15C157.09 378.45 183.32 385.53 203.85 387.65C217.757 388.917 231.738 389.154 245.68 388.36" stroke="#263238" stroke-linecap="round" stroke-linejoin="round"/>
</svg>
