<svg width="512" height="513" viewBox="0 0 512 513" fill="none" xmlns="http://www.w3.org/2000/svg">
<path fill-rule="evenodd" clip-rule="evenodd" d="M0 20.03V40.06L28.75 40.354C62.028 40.693 63.086 40.941 68.5 49.659L71.5 54.489L72 219.568L72.5 384.647L75.079 391.267C81.941 408.883 93.62 421.151 109.781 427.72C112.927 428.998 115.484 430.405 115.464 430.846C115.444 431.286 114.595 435.209 113.577 439.563C103.655 481.986 143.93 521.035 186.404 510.172C217.581 502.198 237.814 469.854 230.52 439.647C229.723 436.347 229.055 433.31 229.036 432.897C229.016 432.484 257.402 432.147 292.117 432.147H355.233L354.59 434.397C341.719 479.403 381.712 521.602 426.404 510.172C457.581 502.198 477.814 469.854 470.52 439.647C469.723 436.347 469.055 433.31 469.036 432.897C469.016 432.484 478.675 432.147 490.5 432.147H512V412.155V392.162L319.171 391.905L126.343 391.647L121.512 388.647C114.406 384.234 112.58 380.063 112.155 367.265L111.81 356.883L114.655 357.646C116.22 358.066 119.3 358.781 121.5 359.235C131.454 361.288 458.159 360.28 466.404 358.172C487.829 352.692 504.545 335.976 510.025 314.551C511.923 307.13 512 303.167 512 213.487V120.147H492H472V80.147V40.147L373.25 40.115L274.5 40.083L253.262 20.056L232.024 0.03L172.262 56.113L112.5 112.197L111.956 80.422C111.27 40.303 109.264 33.176 94.418 18.094C79.438 2.875 72.163 0.799 32.25 0.357L0 0V20.03ZM266.726 87.647L300.808 119.647L266.404 119.91C247.482 120.055 216.521 120.055 197.603 119.91L163.206 119.647L197.353 87.473C216.134 69.778 231.757 55.378 232.072 55.473C232.386 55.569 247.98 70.047 266.726 87.647ZM432 100.147V120.147H395.95H359.901L338.95 100.458C327.428 89.63 318 80.63 318 80.458C318 80.287 343.65 80.147 375 80.147H432V100.147ZM472 232.033V303.919L469.216 309.248C466.959 313.568 465.417 315.108 461.085 317.371L455.738 320.165L291.04 319.906L126.343 319.647L121.512 316.647C111.94 310.703 112.539 316.105 112.231 232.897L111.962 160.147H291.981H472V232.033ZM192 240.147V280.147H212H232V240.147V200.147H212H192V240.147ZM272 240.147V280.147H292H312V240.147V200.147H292H272V240.147ZM352 240.147V280.147H372H392V240.147V200.147H372H352V240.147ZM181.101 434.931C195.263 442.329 195.263 461.965 181.101 469.363C161.209 479.754 142.13 454.017 157.978 438.169C164.442 431.705 172.709 430.547 181.101 434.931ZM421.101 434.931C435.263 442.329 435.263 461.965 421.101 469.363C401.209 479.754 382.13 454.017 397.978 438.169C404.442 431.705 412.709 430.547 421.101 434.931Z" fill="#0987FF"/>
</svg>
