<svg width="513" height="438" viewBox="0 0 513 438" fill="none" xmlns="http://www.w3.org/2000/svg">
<path fill-rule="evenodd" clip-rule="evenodd" d="M36.8608 0.667C36.4938 1.033 36.1938 10.959 36.1938 22.723V44.113L18.6028 87.307C-0.905186 135.206 -1.54319 137.597 1.15681 152.635C3.92981 168.081 16.7178 187.188 28.4918 193.477L32.1938 195.455V316.727V438H256.194H480.194V316.727V195.455L483.896 193.477C495.676 187.185 508.458 168.082 511.235 152.618C513.941 137.544 513.29 135.161 493.237 86.742L475.194 43.175V21.588V0H256.361C136.002 0 37.2268 0.3 36.8608 0.667ZM453.194 32.5V43H255.694H58.1938V32.5V22H255.694H453.194V32.5ZM112.128 67.75C112.092 69.263 110.158 83.325 107.831 99L103.601 127.5L64.3788 127.762L25.1568 128.023L26.7408 124.262C27.6108 122.193 32.5338 110.15 37.6798 97.5C42.8248 84.85 47.9548 72.362 49.0788 69.75L51.1228 65H81.6578H112.194L112.128 67.75ZM201.167 67.25C201.152 68.487 200.487 81.2 199.689 95.5C198.891 109.8 198.228 122.963 198.216 124.75L198.194 128H161.649H125.103L125.671 124.75C126.608 119.376 134.194 67.099 134.194 66.01C134.194 65.35 145.809 65 167.694 65H201.194L201.167 67.25ZM289.611 67.25C290.103 69.682 292.223 115.449 292.205 123.25L292.194 128H255.675H219.156L219.622 125.75C219.878 124.512 220.599 110.9 221.223 95.5C221.848 80.1 222.532 66.938 222.745 66.25C223.044 65.283 230.606 65 256.144 65H289.156L289.611 67.25ZM378.194 66.075C378.194 66.666 380.219 80.681 382.694 97.219C385.169 113.758 387.194 127.449 387.194 127.645C387.194 127.84 370.769 128 350.694 128C322.167 128 314.191 127.727 314.182 126.75C314.175 126.063 313.507 112.9 312.698 97.5C311.889 82.1 311.22 68.487 311.211 67.25L311.194 65H344.694C367.917 65 378.194 65.33 378.194 66.075ZM474.291 96.5L486.956 127.5L448.42 127.762C427.225 127.906 409.661 127.8 409.387 127.527C408.813 126.952 400.243 70.63 400.213 67.236L400.194 64.971L430.91 65.236L461.626 65.5L474.291 96.5ZM99.6048 153.75C93.2088 189.053 36.1848 189.405 23.7708 154.217L22.2828 150H61.2838H100.285L99.6048 153.75ZM196.667 154.25C193.613 172.732 164.905 186.525 145.041 179.055C131.481 173.955 118.915 159.101 121.801 151.582C122.34 150.178 126.634 150 159.889 150H197.37L196.667 154.25ZM294.194 153.616C294.194 163.652 276.305 178.919 262.3 180.834C243.182 183.448 218.194 168.028 218.194 153.616V150H256.194H294.194V153.616ZM391.004 154.248C391.977 166 370.948 181.181 353.694 181.181C336.739 181.181 315.194 165.6 315.194 153.339V149.976L352.944 150.238L390.694 150.5L391.004 154.248ZM488.617 154.217C476.203 189.405 419.179 189.053 412.783 153.75L412.103 150H451.104H490.105L488.617 154.217ZM130.019 195.826C153.11 208.133 180.93 204.264 200.455 186.03L207.967 179.014L210.642 182.521C230.731 208.859 281.657 208.859 301.746 182.521L304.421 179.014L311.696 185.808C336.308 208.793 371.059 208.813 395.64 185.857L402.863 179.111L406.496 183.457C415.483 194.208 432.308 201.851 448.944 202.74L459.194 203.287V309.644V416H448.194H437.194V320V224H373.194H309.194V320V416H181.194H53.1938V309.644V203.287L63.4438 202.74C80.0328 201.854 93.7818 195.784 104.652 184.547L109.694 179.335L116.832 185.969C120.759 189.617 126.692 194.053 130.019 195.826ZM75.1938 299V374H181.694H288.194V299V224H181.694H75.1938V299ZM267.194 299V352H181.694H96.1938V299V246H181.694H267.194V299ZM416.194 331V416H373.694H331.194V379V342H336.726C343.818 342 348.646 339.961 350.628 336.128C355.215 327.258 348.959 320 336.726 320H331.194V283V246H373.694H416.194V331ZM242.63 256.707C237.568 257.647 171.194 326.268 171.194 330.561C171.194 337.481 177.02 342.478 183.694 341.28C187.771 340.548 253.638 275.216 255.263 270.292C257.835 262.497 251.005 255.151 242.63 256.707ZM239.694 300.811C215.973 315.964 206.399 341.816 224.701 341.297C230.823 341.123 254.418 318.654 255.71 311.766C257.414 302.683 247.442 295.862 239.694 300.811Z" fill="#0987FF"/>
</svg>
