<svg width="619" height="716" viewBox="0 0 619 716" fill="none" xmlns="http://www.w3.org/2000/svg">
<path opacity="0.7" d="M15.5329 222.965C15.5329 222.965 -29.4975 339.256 33.7841 456.354C97.0657 573.453 227.408 635.313 331.731 688.209C436.053 741.105 544.381 715.343 595.856 628.707C647.331 542.07 576.733 480.226 576.636 356.683C576.539 233.14 595.129 200.434 528.181 96.0627C461.234 -8.30835 297.118 -31.4211 173.01 45.993C48.9019 123.407 15.5329 222.965 15.5329 222.965Z" fill="white"/>
<path d="M66.8466 86.9372C88.5704 60.9656 117.95 40.857 152.934 41.2931C212.695 42.0361 244.998 94.9161 279.271 135.731C297.038 156.889 317.211 177.305 343.603 187.238C383.19 202.162 427.283 193.456 465.853 179.615C483.135 173.412 503.615 164.691 523.062 169.148C582.225 182.683 576.071 254.881 566.299 300.589C553.104 362.32 531.655 428.041 488.191 475.462C384.127 588.99 196.85 519.394 102.978 428.8C96.0808 422.145 89.4749 415.184 83.2566 407.884C67.1145 389.009 53.4576 368.144 42.6194 345.797C12.4161 282.887 8.20054 206.41 34.4467 141.416C42.3782 121.697 53.3069 103.321 66.8466 86.9372V86.9372Z" fill="#0987FF"/>
<path opacity="0.7" d="M66.8466 86.9372C88.5704 60.9656 117.95 40.857 152.934 41.2931C212.695 42.0361 244.998 94.9161 279.271 135.731C297.038 156.889 317.211 177.305 343.603 187.238C383.19 202.162 427.283 193.456 465.853 179.615C483.135 173.412 503.615 164.691 523.062 169.148C582.225 182.683 576.071 254.881 566.299 300.589C553.104 362.32 531.655 428.041 488.191 475.462C384.127 588.99 196.85 519.394 102.978 428.8C96.0808 422.145 89.4749 415.184 83.2566 407.884C67.1145 389.009 53.4576 368.144 42.6194 345.797C12.4161 282.887 8.20054 206.41 34.4467 141.416C42.3782 121.697 53.3069 103.321 66.8466 86.9372V86.9372Z" fill="white"/>
<path d="M389.198 625.299C389.198 625.299 378.797 640.013 389.57 644.955C400.343 649.898 495.734 638.495 540.376 638.075C585.019 637.655 609.408 620.793 608.455 615.689C607.502 610.585 596.616 600.862 596.616 600.862L589.025 609.729C589.025 609.729 597.1 612.152 596.874 615.899C596.648 619.646 567.075 631.84 529.878 626.704C492.681 621.568 413.409 637.493 407.127 636.783C400.844 636.072 406.852 622.02 406.852 622.02L389.198 625.299Z" fill="#263238"/>
<path d="M538.954 631.162C480.308 635.232 382.866 633.859 382.866 633.859C332.57 630.193 323.105 613.605 330.955 594.724C343.181 565.651 396.885 531.168 406.673 530.36C422.824 529.052 439.816 535.464 439.816 535.464L450.314 533.251C447.084 524.546 480.275 505.164 495.442 513.53C510.608 521.897 541.958 510.413 551.406 516.308C553.913 517.921 556.067 520.026 557.738 522.495C560.416 526.49 562.297 530.965 563.278 535.674V535.674H563.407C565.782 535.037 568.219 534.657 570.675 534.544C575.876 534.269 582.805 535.06 588.232 539.793C589.619 541.025 590.94 542.329 592.189 543.701C601.977 554.394 614.575 574.599 617.482 586.39C620.874 599.796 597.584 627.076 538.954 631.162Z" fill="#999999"/>
<path opacity="0.2" d="M488.675 522.688C485.816 517.665 521.915 520.04 525.742 522.688C529.57 525.337 529.586 533.639 533.737 531.394C537.048 529.617 549.663 522.785 557.739 522.495C560.417 526.49 562.298 530.965 563.279 535.674C563.279 535.674 513.613 549.71 510.415 545.979C507.217 542.248 519.363 539.147 523.19 530.958C527.018 522.769 511.691 525.014 508.509 525.079C505.327 525.144 491.534 527.695 488.675 522.688Z" fill="black"/>
<path opacity="0.2" d="M538.955 631.162C480.309 635.233 382.867 633.86 382.867 633.86C332.571 630.193 323.106 613.606 330.956 594.725C332.894 596.243 336.221 596.921 341.68 595.871C359.625 592.415 369.832 591.462 381.348 602.332C392.864 613.202 405.963 619.808 412.036 617.676C412.036 617.676 412.876 593.675 436.263 576.441C459.651 559.208 465.158 564.101 469.826 559.531C474.494 554.96 477.256 546.609 463.85 541.893C450.444 537.177 443.919 535.432 443.919 535.432C443.919 535.432 458.682 534.286 471.474 540.02C484.266 545.753 495.426 559.401 489.999 562.486C484.573 565.571 497.978 571.063 507.249 569.593C515.454 568.269 542.686 568.123 548.145 567.897C543.299 568.931 521.624 575.698 521.624 580.899C521.624 580.899 528.311 591.882 528.262 604.302C528.214 616.723 542.799 618.306 549.114 613.654C555.429 609.003 556.754 602.623 554.363 590.477C551.973 578.331 545.286 577.426 536.597 579.316C536.597 579.316 547.773 572.581 551.294 574.81C554.815 577.039 564.7 576.102 566.622 586.633C568.544 597.164 561.777 605.805 565.007 608.68C568.237 611.554 586.731 608.357 589.929 602.219C593.127 596.081 591.011 560.92 587.926 560.225C584.841 559.531 569.416 564.214 568.98 564.344C569.711 562.289 570.969 560.462 572.627 559.045C574.285 557.627 576.285 556.67 578.429 556.268C584.114 555.267 591.124 549.678 592.238 543.573C602.026 554.265 614.624 574.471 617.532 586.261C620.875 599.796 597.585 627.076 538.955 631.162Z" fill="black"/>
<path d="M538.954 631.162C480.308 635.232 382.866 633.859 382.866 633.859C332.57 630.193 323.105 613.605 330.955 594.724C343.181 565.651 396.885 531.168 406.673 530.36C422.824 529.052 439.816 535.464 439.816 535.464L450.314 533.251C447.084 524.546 480.275 505.164 495.442 513.53C510.608 521.897 541.958 510.413 551.406 516.308C553.913 517.921 556.067 520.026 557.738 522.495C560.416 526.49 562.297 530.965 563.278 535.674V535.674H563.407C565.782 535.037 568.219 534.657 570.675 534.544C575.876 534.269 582.805 535.06 588.232 539.793C589.619 541.025 590.94 542.329 592.189 543.701C601.977 554.394 614.575 574.599 617.482 586.39C620.874 599.796 597.584 627.076 538.954 631.162Z" stroke="#263238" stroke-linecap="round" stroke-linejoin="round"/>
<path d="M439.817 535.464C439.817 535.464 447.166 537.919 465.659 542.328C484.153 546.738 473.961 561.71 460.539 562.518C447.117 563.325 412.666 593.319 412.02 613.686C411.374 634.053 438.815 631.081 438.815 631.081" stroke="#263238" stroke-linecap="round" stroke-linejoin="round"/>
<path d="M450.33 533.251C450.33 533.251 475.914 532.169 493.164 542.328C510.414 552.488 556.429 538.274 556.429 538.274" stroke="#263238" stroke-linecap="round" stroke-linejoin="round"/>
<path d="M523.19 580.931C530.879 591.461 527.648 625.153 527.648 625.153C527.648 625.153 578.316 620.534 592.254 609.196C606.193 597.857 594.079 560.967 586.407 559.594C578.735 558.222 550.632 574.244 528.262 577.361" stroke="#263238" stroke-linecap="round" stroke-linejoin="round"/>
<path d="M531.509 580.931C531.509 580.931 547.483 574.858 550.681 580.931C553.879 587.004 560.21 607.548 556.431 614.671C552.651 621.794 538.535 620.469 538.535 620.469" stroke="#263238" stroke-linecap="round" stroke-linejoin="round"/>
<path d="M471.44 516.777C471.44 516.777 491.856 525.386 503.372 525.224C514.888 525.063 528.31 524.207 523.19 531.022C520.909 533.942 518.78 536.978 516.81 540.116" stroke="#263238" stroke-linecap="round" stroke-linejoin="round"/>
<path d="M421.047 592.77C421.047 592.77 443.998 600.845 468.92 597.082C493.842 593.319 497.912 597.809 497.912 597.809V614.671C497.912 614.671 481.761 611.683 471.472 614.671C461.184 617.659 427.379 619.936 412.051 613.686" stroke="#263238" stroke-linecap="round" stroke-linejoin="round"/>
<path d="M414.281 604.334C414.281 604.334 422.729 606.692 443.887 606.741C465.045 606.789 484.863 604.996 484.863 604.996" stroke="#263238" stroke-linecap="round" stroke-linejoin="round"/>
<path d="M409.29 554.814L408.628 547.465C408.595 547.056 408.71 546.65 408.954 546.32C409.197 545.991 409.552 545.76 409.952 545.672L427.105 541.925C427.337 541.862 427.58 541.852 427.817 541.895C428.054 541.938 428.278 542.034 428.473 542.174C428.668 542.315 428.829 542.498 428.945 542.709C429.06 542.92 429.127 543.154 429.14 543.395L429.835 550.34C429.87 550.744 429.762 551.147 429.528 551.478C429.295 551.81 428.951 552.047 428.559 552.149L411.357 556.3C411.122 556.369 410.873 556.383 410.632 556.342C410.39 556.3 410.16 556.204 409.961 556.061C409.762 555.918 409.598 555.731 409.481 555.515C409.365 555.299 409.3 555.059 409.29 554.814Z" fill="#0987FF" stroke="#263238" stroke-linecap="round" stroke-linejoin="round"/>
<path d="M415.525 546.737L424.796 548.336L422.729 549.564L412.812 548.143L415.525 546.737Z" fill="#263238"/>
<path d="M434.535 537.773C437.714 535.073 441.679 533.47 445.841 533.203C452.06 533.203 456.857 535.125 456.21 535.496C455.564 535.868 445.68 537.806 443.838 540.035L434.535 537.773Z" fill="#263238"/>
<path d="M342.374 615.721C342.374 615.721 322.249 622.294 333.103 629.966C343.956 637.638 358.671 636.039 370.639 628.351L371.915 621.164C367.214 621.887 362.644 623.291 358.347 625.331C352.113 628.561 337.577 625.331 338.53 623.554C338.936 623.003 339.466 622.556 340.078 622.25C340.69 621.944 341.366 621.788 342.051 621.794L342.374 615.721Z" fill="#263238"/>
<path d="M404.38 633.374C405.865 641.45 462.008 629.821 507.604 621.778C553.199 613.734 593.53 623.054 596.889 615.899C600.249 608.743 608.454 615.689 608.454 615.689C604.47 623.648 597.799 629.942 589.621 633.455C576.248 638.931 513.434 637.655 478.176 644.874C442.917 652.094 380.362 662.641 384.869 635.183L404.38 633.374Z" fill="#263238"/>
<path d="M26.9518 541.005C26.9518 541.005 26.0312 582.627 94.9496 613.315C163.868 644.003 351.161 658.911 385.289 550.793L279.157 520.315H136.782L105.448 534.544L26.9518 541.005Z" fill="#0987FF"/>
<path opacity="0.2" d="M26.9518 541.005C26.9518 541.005 26.0312 582.627 94.9496 613.315C163.868 644.003 351.161 658.911 385.289 550.793L279.157 520.315H136.782L105.448 534.544L26.9518 541.005Z" fill="black"/>
<path d="M26.9518 541.005C26.9518 541.005 26.0312 582.627 94.9496 613.315C163.868 644.003 351.161 658.911 385.289 550.793L279.157 520.315H136.782L105.448 534.544L26.9518 541.005Z" stroke="#263238" stroke-linecap="round" stroke-linejoin="round"/>
<path d="M107.854 358.25C95.3528 369.411 52.0022 495.538 57.6067 509.299C63.2113 523.06 136.749 535.626 136.749 535.626C136.749 535.626 129.481 393.218 129.109 390.844C128.738 388.47 107.854 358.25 107.854 358.25Z" fill="#263238"/>
<path d="M302.626 358.25C315.127 369.411 358.477 495.538 352.873 509.299C347.268 523.06 273.73 535.626 273.73 535.626C273.73 535.626 280.999 393.218 281.37 390.844C281.742 388.47 302.626 358.25 302.626 358.25Z" fill="#263238"/>
<path d="M107.854 358.251C107.854 358.251 136.7 325.657 204.924 323.719C259.742 322.104 297.262 349.319 302.624 358.251C307.987 367.183 278.236 486.235 278.236 486.235L294.888 550.324C294.888 550.324 205.586 580.075 125.83 550.324L136.539 482.65C136.539 482.65 108.451 374.919 107.854 358.251Z" fill="#263238"/>
<g opacity="0.5">
<path opacity="0.5" d="M242.978 336.817C242.978 336.817 218.266 364.049 193.183 356.458" stroke="white" stroke-linecap="round" stroke-linejoin="round"/>
<path opacity="0.5" d="M222.385 387.081C228.163 388.199 234.005 388.954 239.877 389.342" stroke="white" stroke-linecap="round" stroke-linejoin="round"/>
<path opacity="0.5" d="M151.432 352.807C167.115 367.069 190.195 379.279 214.665 385.385" stroke="white" stroke-linecap="round" stroke-linejoin="round"/>
<path opacity="0.5" d="M287.475 381.104C282.231 390.84 279.125 401.584 278.365 412.616" stroke="white" stroke-linecap="round" stroke-linejoin="round"/>
<path opacity="0.5" d="M298.894 363.612C296.257 366.774 293.85 370.121 291.69 373.626" stroke="white" stroke-linecap="round" stroke-linejoin="round"/>
<path opacity="0.5" d="M301.139 397.531C289.978 402.376 279.706 419.852 279.706 419.852C284.347 428.939 287.939 438.525 290.414 448.424" stroke="white" stroke-linecap="round" stroke-linejoin="round"/>
<path opacity="0.5" d="M284.164 490.402C284.164 490.402 294.614 488.706 301.139 481.729C307.664 474.751 326.578 476.625 329.259 481.729" stroke="white" stroke-linecap="round" stroke-linejoin="round"/>
<path opacity="0.5" d="M307.826 473.378C307.826 473.378 314.529 463.17 329.259 470.309" stroke="white" stroke-linecap="round" stroke-linejoin="round"/>
<path opacity="0.5" d="M113.653 366.746C113.653 366.746 128.367 376.55 129.805 403.313" stroke="white" stroke-linecap="round" stroke-linejoin="round"/>
<path opacity="0.5" d="M123.667 430.189C119.677 441.221 115.349 452.495 113.185 464.108" stroke="white" stroke-linecap="round" stroke-linejoin="round"/>
<path opacity="0.5" d="M116.819 403.313C120.712 404.298 129.547 407.997 130.29 412.552C130.645 414.667 127.544 419.739 126.817 421.677" stroke="white" stroke-linecap="round" stroke-linejoin="round"/>
<path opacity="0.5" d="M100.764 474.784C102.276 474.426 103.856 474.463 105.349 474.894C106.843 475.324 108.201 476.131 109.292 477.239" stroke="white" stroke-linecap="round" stroke-linejoin="round"/>
<path opacity="0.5" d="M84.6123 481.729C87.2708 479.959 90.0752 478.419 92.9949 477.125" stroke="white" stroke-linecap="round" stroke-linejoin="round"/>
<path opacity="0.5" d="M99.3428 486.817C99.3428 486.817 100.296 478.854 113.653 481.729C127.01 484.604 158.716 494.424 158.716 494.424" stroke="white" stroke-linecap="round" stroke-linejoin="round"/>
</g>
<path d="M239.989 334.346C239.989 334.346 224.645 349.448 206.071 349.448C187.497 349.448 169.763 331.956 169.763 331.956C169.763 331.956 179.341 327.191 181.909 317.645C182.072 317.067 182.201 316.479 182.296 315.885C182.991 311.702 181.876 304.579 180.261 297.553C177.725 286.489 173.962 275.409 173.962 275.409H233.965C233.965 275.409 231.122 289.251 229.249 302.011C228.909 304.353 228.586 306.646 228.344 308.827C228.102 311.007 227.843 313.349 227.73 315.287C226.987 328.806 239.989 334.346 239.989 334.346Z" fill="white" stroke="#263238" stroke-linecap="round" stroke-linejoin="round"/>
<path d="M296.472 550.438V557.367C296.47 557.742 296.426 558.115 296.343 558.481C296.081 559.48 295.498 560.366 294.684 561.002C293.87 561.639 292.869 561.99 291.836 562.002H127.382C126.333 562.002 125.315 561.653 124.487 561.009C123.659 560.366 123.069 559.465 122.811 558.449C122.727 558.083 122.684 557.709 122.682 557.334V550.405L296.472 550.438Z" fill="#757575"/>
<path opacity="0.2" d="M296.472 550.438V557.367C296.47 557.742 296.426 558.115 296.343 558.481H122.811C122.727 558.115 122.684 557.742 122.682 557.367V550.438H296.472Z" fill="black"/>
<path d="M296.472 550.438V557.367C296.47 557.742 296.426 558.115 296.343 558.481C296.081 559.48 295.498 560.366 294.684 561.002C293.87 561.639 292.869 561.99 291.836 562.002H127.382C126.333 562.002 125.315 561.653 124.487 561.009C123.659 560.366 123.069 559.465 122.811 558.449C122.727 558.083 122.684 557.709 122.682 557.334V550.405L296.472 550.438Z" stroke="#263238" stroke-linecap="round" stroke-linejoin="round"/>
<path d="M294.841 555.057H124.297C123.501 555.084 122.72 554.833 122.089 554.346C121.458 553.86 121.017 553.169 120.841 552.392L106.03 432.871C105.967 432.411 106.004 431.944 106.138 431.5C106.272 431.056 106.5 430.647 106.807 430.299C107.113 429.951 107.491 429.673 107.914 429.484C108.337 429.296 108.796 429.2 109.26 429.204H309.894C310.357 429.2 310.816 429.296 311.24 429.484C311.663 429.673 312.041 429.951 312.347 430.299C312.654 430.647 312.882 431.056 313.016 431.5C313.15 431.944 313.187 432.411 313.124 432.871L298.313 552.392C298.142 553.175 297.7 553.872 297.064 554.359C296.429 554.847 295.641 555.094 294.841 555.057V555.057Z" fill="#757575" stroke="#263238" stroke-linecap="round" stroke-linejoin="round"/>
<path opacity="0.2" d="M124.991 552.537L110.455 437.974C110.421 437.649 110.456 437.32 110.556 437.008C110.656 436.697 110.82 436.41 111.037 436.165C111.255 435.921 111.52 435.724 111.818 435.588C112.115 435.451 112.438 435.379 112.765 435.374H306.373C306.7 435.379 307.023 435.452 307.321 435.588C307.619 435.724 307.886 435.92 308.105 436.165C308.323 436.409 308.489 436.696 308.591 437.007C308.693 437.319 308.73 437.648 308.698 437.974L294.162 552.537" fill="white"/>
<path d="M124.991 552.537L110.455 437.974C110.421 437.649 110.456 437.32 110.556 437.008C110.656 436.697 110.82 436.41 111.037 436.165C111.255 435.921 111.52 435.724 111.818 435.588C112.115 435.451 112.438 435.379 112.765 435.374H306.373C306.7 435.379 307.023 435.452 307.321 435.588C307.619 435.724 307.886 435.92 308.105 436.165C308.323 436.409 308.489 436.696 308.591 437.007C308.693 437.319 308.73 437.648 308.698 437.974L294.162 552.537" stroke="#263238" stroke-linecap="round" stroke-linejoin="round"/>
<path d="M351.371 623.07L356.54 628.949C356.54 628.949 361.385 639.965 347.996 653.451C334.606 666.938 299.897 669.603 286.394 667.261L277.882 668.408L248.922 662.141C248.922 662.141 234.257 654.97 240.249 642.387C246.241 629.805 351.371 623.07 351.371 623.07Z" fill="#0987FF" stroke="#263238" stroke-linecap="round" stroke-linejoin="round"/>
<path d="M342.487 651.368C331.294 663.045 295.438 665.371 280.466 661.963C276.379 661.027 261.504 660.494 250.424 656.52C244.448 654.404 239.57 651.287 238.084 646.571C233.788 633.117 271.647 607.517 271.647 607.517C271.647 607.517 295.793 612.168 300.8 613.363C306.632 614.737 312.581 615.559 318.567 615.818C330.051 616.319 337.819 614.785 346.234 618.403C355.764 622.521 355.893 637.381 342.487 651.368Z" fill="#757575"/>
<path opacity="0.2" d="M318.502 615.818C309.877 629.903 288.347 656.94 250.424 656.52C244.448 654.404 239.57 651.287 238.084 646.571C233.788 633.117 271.647 607.517 271.647 607.517C271.647 607.517 295.793 612.168 300.8 613.363C306.611 614.733 312.538 615.555 318.502 615.818V615.818Z" fill="black"/>
<path d="M342.487 651.368C331.294 663.045 295.438 665.371 280.466 661.963C276.379 661.027 261.504 660.494 250.424 656.52C244.448 654.404 239.57 651.287 238.084 646.571C233.788 633.117 271.647 607.517 271.647 607.517C271.647 607.517 295.793 612.168 300.8 613.363C306.632 614.737 312.581 615.559 318.567 615.818C330.051 616.319 337.819 614.785 346.234 618.403C355.764 622.521 355.893 637.381 342.487 651.368Z" stroke="#263238" stroke-linecap="round" stroke-linejoin="round"/>
<path d="M264.782 623.942C264.782 623.942 301.931 635.152 308.908 634.425C315.886 633.698 316.742 639.415 316.742 639.415" stroke="#263238" stroke-linecap="round" stroke-linejoin="round"/>
<path d="M270.742 610.456C270.742 610.456 311.509 619.178 316.435 620.631C319.408 621.485 322.578 621.343 325.463 620.228" stroke="#263238" stroke-linecap="round" stroke-linejoin="round"/>
<path d="M278.301 611.103C277.952 615.066 276.577 618.871 274.311 622.141C272.046 625.412 268.968 628.037 265.38 629.758" stroke="#263238" stroke-linecap="round" stroke-linejoin="round"/>
<path d="M285.925 612.491C285.558 616.338 284.412 620.07 282.558 623.461C280.703 626.851 278.178 629.829 275.136 632.212" stroke="#263238" stroke-linecap="round" stroke-linejoin="round"/>
<path d="M294.049 615.301C294.049 615.301 296.245 627.221 283.566 635.991" stroke="#263238" stroke-linecap="round" stroke-linejoin="round"/>
<path d="M302.609 616.238C302.609 616.238 304.531 631.259 292.288 638.963" stroke="#263238" stroke-linecap="round" stroke-linejoin="round"/>
<path d="M311.767 617.546C311.767 617.546 311.444 633.229 301.123 639.949" stroke="#263238" stroke-linecap="round" stroke-linejoin="round"/>
<path d="M318.955 619.55C318.955 619.55 321.668 632.875 310.572 640.999" stroke="#263238" stroke-linecap="round" stroke-linejoin="round"/>
<path d="M274.506 601.33C270.904 625.735 233.271 652.256 233.271 652.256C233.271 652.256 222.853 642.484 219.413 642.888C215.973 643.292 201.646 642.274 201.646 642.274C201.646 642.274 88.3272 599.86 74.7277 599.634C66.232 599.505 41.7463 592.059 29.6327 572.742C22.4291 561.274 19.6026 545.607 27.0484 524.82C39.3236 490.531 99.8432 515.792 159.184 548.563C178.889 559.465 196.332 568.203 210.497 574.858C233.998 585.922 248.292 591.252 248.292 591.252L256.141 588.441L274.506 601.33Z" fill="#0987FF"/>
<path opacity="0.2" d="M274.506 601.331C270.904 625.736 233.271 652.257 233.271 652.257C233.271 652.257 222.853 642.485 219.413 642.889C215.973 643.292 201.646 642.275 201.646 642.275C201.646 642.275 88.3274 599.861 74.7278 599.635C66.2321 599.506 41.7464 592.06 29.6328 572.743C43.8623 573.793 68.1057 576.167 79.7025 580.495C79.7025 580.495 66.7813 583.726 70.3346 586.827C73.8879 589.928 125.767 596.033 144.018 591.43C160.525 587.279 193.474 576.054 210.53 574.859C234.03 585.922 248.324 591.252 248.324 591.252L256.174 588.442L274.506 601.331Z" fill="black"/>
<path d="M274.506 601.33C270.904 625.735 233.271 652.256 233.271 652.256C233.271 652.256 222.853 642.484 219.413 642.888C215.973 643.292 201.646 642.274 201.646 642.274C201.646 642.274 88.3272 599.86 74.7277 599.634C66.232 599.505 41.7463 592.059 29.6327 572.742C22.4291 561.274 19.6026 545.607 27.0484 524.82C39.3236 490.531 99.8432 515.792 159.184 548.563C178.889 559.465 196.332 568.203 210.497 574.858C233.998 585.922 248.292 591.252 248.292 591.252L256.141 588.441L274.506 601.33Z" stroke="#263238" stroke-linecap="round" stroke-linejoin="round"/>
<path d="M174.157 577.75C178.179 577.055 182.233 576.231 186.125 575.198" stroke="#263238" stroke-linecap="round" stroke-linejoin="round"/>
<path d="M66.8457 579.897C99.6817 582.53 133.487 583.273 166.194 578.96" stroke="#263238" stroke-linecap="round" stroke-linejoin="round"/>
<path d="M64.4718 625.331L59.2548 631.21C59.2548 631.21 54.4094 642.226 67.7828 655.712C81.1563 669.199 115.882 671.864 129.385 669.522L137.913 670.668L166.856 664.45C166.856 664.45 181.586 657.295 175.546 644.697C169.505 632.099 64.4718 625.331 64.4718 625.331Z" fill="#0987FF" stroke="#263238" stroke-linecap="round" stroke-linejoin="round"/>
<path d="M144.212 609.777C144.212 609.777 120.066 614.429 115.042 615.608C92.6081 620.906 81.7866 615.463 69.6891 620.663C60.0951 624.782 59.9982 639.642 73.3555 653.629C84.5485 665.306 120.405 667.632 135.377 664.224C141.66 662.803 173.495 662.237 177.775 648.816C182.055 635.394 144.212 609.777 144.212 609.777Z" fill="#757575" stroke="#263238" stroke-linecap="round" stroke-linejoin="round"/>
<path d="M151.059 626.204C151.059 626.204 113.911 637.413 106.933 636.686C99.9556 635.959 99.0996 641.677 99.0996 641.677" stroke="#263238" stroke-linecap="round" stroke-linejoin="round"/>
<path d="M145.116 612.669C145.116 612.669 104.334 621.407 99.4076 622.844C96.4367 623.707 93.2649 623.571 90.3789 622.457" stroke="#263238" stroke-linecap="round" stroke-linejoin="round"/>
<path d="M137.558 613.364C137.907 617.327 139.282 621.132 141.547 624.403C143.813 627.674 146.891 630.298 150.479 632.019" stroke="#263238" stroke-linecap="round" stroke-linejoin="round"/>
<path d="M129.917 614.752C130.284 618.601 131.431 622.335 133.289 625.725C135.147 629.116 137.676 632.093 140.722 634.473" stroke="#263238" stroke-linecap="round" stroke-linejoin="round"/>
<path d="M121.809 617.546C121.809 617.546 119.597 629.466 132.275 638.236" stroke="#263238" stroke-linecap="round" stroke-linejoin="round"/>
<path d="M113.233 618.532C113.233 618.532 111.311 633.553 123.554 641.257" stroke="#263238" stroke-linecap="round" stroke-linejoin="round"/>
<path d="M104.09 619.808C104.09 619.808 104.397 635.491 114.734 642.21" stroke="#263238" stroke-linecap="round" stroke-linejoin="round"/>
<path d="M96.9036 621.762C96.9036 621.762 94.1902 635.071 105.27 643.211" stroke="#263238" stroke-linecap="round" stroke-linejoin="round"/>
<path d="M386.436 524.594C374.08 490.321 313.625 515.695 254.365 548.579C201.97 577.652 165.322 591.429 165.322 591.429L157.472 588.651L139.124 601.572C142.774 625.961 180.472 652.401 180.472 652.401C180.472 652.401 190.857 642.597 194.314 643.001C197.77 643.405 212.08 642.355 212.08 642.355C212.08 642.355 325.399 599.731 338.918 599.489C352.437 599.246 406.512 580.398 386.436 524.594Z" fill="#0987FF" stroke="#263238" stroke-linecap="round" stroke-linejoin="round"/>
<path d="M222.029 612.636C225.26 612.862 228.587 612.992 231.866 613.008" stroke="#263238" stroke-linecap="round" stroke-linejoin="round"/>
<path d="M165.321 591.43C177.16 603.996 196.542 609.455 213.049 611.716" stroke="#263238" stroke-linecap="round" stroke-linejoin="round"/>
<path d="M298.685 569.205C321.862 573.614 347.64 577.652 370.963 572.209" stroke="#263238" stroke-linecap="round" stroke-linejoin="round"/>
<path d="M280.902 565.329C284.133 566.152 287.46 566.944 290.771 567.606" stroke="#263238" stroke-linecap="round" stroke-linejoin="round"/>
<path d="M229.33 301.963C228.991 304.305 228.668 306.598 228.425 308.779C222.385 314.965 212.274 323.476 202.583 323.767C195.492 323.977 188.047 320.941 182.006 317.597C182.169 317.019 182.299 316.431 182.394 315.837C183.088 311.654 181.974 304.531 180.358 297.505L229.33 301.963Z" fill="#263238"/>
<path d="M244.997 262.844C244.997 262.844 249.407 258.693 251.571 260.066C253.735 261.438 256.303 265.282 255.124 268.803C253.945 272.325 248.825 278.494 248.421 282.048C248.017 285.601 245.385 289.671 242.478 287.297C239.57 284.923 244.997 262.844 244.997 262.844Z" fill="white" stroke="#263238" stroke-linecap="round" stroke-linejoin="round"/>
<path d="M166.468 262.844C166.468 262.844 162.058 258.693 159.894 260.066C157.73 261.438 155.162 265.282 156.357 268.803C157.552 272.325 162.656 278.494 163.044 282.048C163.431 285.601 166.096 289.671 168.987 287.297C171.878 284.923 166.468 262.844 166.468 262.844Z" fill="white" stroke="#263238" stroke-linecap="round" stroke-linejoin="round"/>
<path d="M204.78 206.184C262.118 206.184 246.612 275.506 236.049 300.024C232.35 308.633 214.067 320.698 204.78 320.698C196.139 320.698 178.937 309.392 175.384 301.316C164.708 276.605 150.139 206.184 204.78 206.184Z" fill="white" stroke="#263238" stroke-linecap="round" stroke-linejoin="round"/>
<path d="M214.503 262.359C214.503 262.359 229.427 257.74 234.046 266.978" stroke="#263238" stroke-linecap="round" stroke-linejoin="round"/>
<path d="M225.615 274.909C225.615 276.669 224.727 278.139 223.613 278.139C222.498 278.139 221.626 276.701 221.626 274.909C221.626 273.116 222.514 271.678 223.613 271.678C224.711 271.678 225.615 273.148 225.615 274.909Z" fill="#263238"/>
<path d="M196.994 262.359C196.994 262.359 182.054 257.74 177.435 266.978" stroke="#263238" stroke-linecap="round" stroke-linejoin="round"/>
<path d="M185.932 274.909C185.932 276.669 186.836 278.139 187.934 278.139C189.033 278.139 189.937 276.701 189.937 274.909C189.937 273.116 189.033 271.678 187.934 271.678C186.836 271.678 185.932 273.148 185.932 274.909Z" fill="#263238"/>
<path d="M199.014 288.008C196.849 290.317 204.344 294.113 205.749 294.113C207.154 294.113 212.855 291.125 212.855 289.365" fill="white"/>
<path d="M199.014 288.008C196.849 290.317 204.344 294.113 205.749 294.113C207.154 294.113 212.855 291.125 212.855 289.365" stroke="#263238" stroke-linecap="round" stroke-linejoin="round"/>
<path d="M228.587 225.712C214.213 230.298 198.769 230.298 184.396 225.712C184.396 225.712 176.659 225.259 173.607 229.152C170.554 233.044 173.607 245.045 174.414 249.939C175.222 254.833 167.695 258.208 168.713 270.564L167.695 275.232C167.695 275.232 159.361 254.009 161.396 236.905C163.431 219.8 172.589 214.099 172.589 214.099C172.589 214.099 177.515 199.336 206.362 199.433C237.454 199.562 240.587 216.392 240.587 216.392C240.587 216.392 259.969 230.928 244.334 276.815L242.719 270.564C243.519 264.487 242.121 258.323 238.778 253.185C236.065 249.228 240.393 237.308 239.392 231.203C238.39 225.098 228.587 225.712 228.587 225.712Z" fill="#263238"/>
<path d="M193.312 299.733C197.211 301.548 201.464 302.475 205.764 302.447C209.824 302.528 213.862 301.843 217.668 300.428" fill="white"/>
<path d="M193.312 299.733C197.211 301.548 201.464 302.475 205.764 302.447C209.824 302.528 213.862 301.843 217.668 300.428" stroke="#263238" stroke-linecap="round" stroke-linejoin="round"/>
<path d="M227.327 231.17C228.569 237.449 230.839 243.479 234.046 249.018C238.892 256.754 244.609 257.546 246.24 266.978C246.24 266.978 261.116 241.879 248.534 219.848C248.534 219.848 244.577 194.846 205.749 194.846C166.92 194.846 148.944 221.899 164.029 263.441C167.682 261.853 170.848 259.324 173.203 256.111C175.559 252.899 177.019 249.119 177.435 245.158C178.222 250.818 176.792 256.564 173.446 261.196C173.446 261.196 193.441 258.24 198.626 241.572C198.626 241.572 196.607 252.652 189.936 257.352C189.936 257.352 197.479 266.881 206.088 251.99C214.697 237.098 219.881 228.182 227.327 231.17Z" fill="#263238"/>
<path opacity="0.2" d="M196.689 234.417C194.266 237.89 190.858 243.252 185.932 242.735" stroke="white" stroke-linecap="round" stroke-linejoin="round"/>
<path opacity="0.2" d="M225.615 219.994C219.073 206.685 204.892 222.998 200.257 229.426" stroke="white" stroke-linecap="round" stroke-linejoin="round"/>
<path opacity="0.2" d="M170.828 222.949C169.224 224.395 167.322 225.471 165.256 226.099" stroke="white" stroke-linecap="round" stroke-linejoin="round"/>
<path opacity="0.2" d="M217.653 207.574C204.457 193.764 185.754 209.819 175.304 219.009" stroke="white" stroke-linecap="round" stroke-linejoin="round"/>
<path opacity="0.2" d="M244.303 223.288C246.559 226.843 248.004 230.853 248.534 235.03" stroke="white" stroke-linecap="round" stroke-linejoin="round"/>
<path opacity="0.2" d="M234.047 217.49C236.143 217.438 238.209 217.999 239.991 219.105" stroke="white" stroke-linecap="round" stroke-linejoin="round"/>
<path opacity="0.2" d="M230.04 210.545C230.04 210.545 232.899 202.97 238.649 208.51" stroke="white" stroke-linecap="round" stroke-linejoin="round"/>
<path d="M131.239 223.185C145.777 202.881 141.104 174.637 120.8 160.099C100.497 145.56 72.2525 150.234 57.7143 170.537C43.1762 190.841 47.8497 219.085 68.1531 233.624C88.4564 248.162 116.701 243.488 131.239 223.185Z" stroke="#263238" stroke-width="0.996243" stroke-linecap="round" stroke-linejoin="round"/>
<path d="M130.674 161.444C121.705 152.669 109.767 147.582 97.225 147.19C84.6832 146.799 72.4513 151.13 62.9512 159.328" stroke="#263238" stroke-linecap="round" stroke-linejoin="round"/>
<path d="M142.224 215.439C145.55 206.959 146.5 197.733 144.972 188.754C143.444 179.775 139.495 171.383 133.551 164.481" stroke="#263238" stroke-linecap="round" stroke-linejoin="round"/>
<path d="M131.531 243.817L140.641 249.244L132.92 230.573C134.19 229.163 135.377 227.679 136.474 226.131" stroke="#263238" stroke-linecap="round" stroke-linejoin="round"/>
<path d="M62.9512 235.03C71.2141 242.157 81.5789 246.389 92.4685 247.083C103.358 247.777 114.176 244.895 123.277 238.874L127.767 241.539" stroke="#263238" stroke-linecap="round" stroke-linejoin="round"/>
<path d="M49.2069 178.629C45.8108 187.147 44.8191 196.434 46.34 205.477C47.8609 214.52 51.8361 222.972 57.8318 229.91" stroke="#263238" stroke-linecap="round" stroke-linejoin="round"/>
<path d="M54.2786 169.1C53.1735 170.71 52.1701 172.388 51.2744 174.123" stroke="#263238" stroke-linecap="round" stroke-linejoin="round"/>
<path d="M87.5013 213.517L71.8182 198.415C71.1178 197.74 70.7141 196.815 70.696 195.843C70.6778 194.87 71.0466 193.931 71.7213 193.23C72.3959 192.53 73.3212 192.126 74.2935 192.108C75.2658 192.09 76.2055 192.459 76.9059 193.133" stroke="#263238" stroke-linecap="round" stroke-linejoin="round"/>
<path d="M113.473 177.708C114.012 176.899 114.852 176.337 115.806 176.146C116.76 175.955 117.751 176.151 118.56 176.691C119.37 177.231 119.932 178.07 120.123 179.024C120.314 179.978 120.118 180.969 119.578 181.779L96.5298 216.23C96.234 216.677 95.8433 217.054 95.3855 217.333C94.9277 217.612 94.414 217.787 93.881 217.845H93.5579C92.5836 217.858 91.6434 217.487 90.9414 216.811" stroke="#263238" stroke-linecap="round" stroke-linejoin="round"/>
<path d="M80.4756 196.59L92.8638 208.51L110.453 182.215" stroke="#263238" stroke-linecap="round" stroke-linejoin="round"/>
<path d="M563.181 199.562C563.181 199.562 540.569 197.058 526.727 172.233C512.885 147.408 438.54 155.565 438.54 155.565C438.54 155.565 438.976 164.254 450.476 166.499L442.4 170.376C442.4 170.376 444.758 180.325 465.82 179.437L460.199 185.671C460.199 185.671 469.05 192.891 491.242 189.725L487.059 195.104C487.059 195.104 497.428 202.323 515.034 197.252L513.112 202.178C513.112 202.178 526.453 203.147 534.318 199.707C534.351 199.707 549.565 209.091 563.181 199.562Z" fill="white"/>
<path opacity="0.4" d="M563.181 199.577C549.517 209.091 534.302 199.723 534.302 199.723C526.436 203.131 513.095 202.194 513.095 202.194L514.969 197.187C497.38 202.275 487.011 195.039 487.011 195.039L491.194 189.66C469.002 192.891 460.151 185.59 460.151 185.59L465.868 179.453C444.871 180.309 442.465 170.375 442.465 170.375L450.54 166.515C439.041 164.254 438.604 155.564 438.604 155.564C438.604 155.564 442.82 163.075 454.966 162.833C454.966 162.833 452.931 167.904 465.368 168.841C465.368 168.841 475.882 173.315 483.506 169.972C483.506 169.972 486.058 175.172 495.199 174.284L492.114 178.37C492.114 178.37 493.067 183.733 504.39 181.068L502.774 186.333C502.774 186.333 506.489 190.646 521.058 187.431C521.058 187.431 516.503 190.403 518.005 191.921C519.507 193.44 524.094 194.167 528.068 193.779C528.003 193.747 543.557 206.038 563.181 199.577Z" fill="#0987FF"/>
<path d="M563.181 199.562C563.181 199.562 540.569 197.058 526.727 172.233C512.885 147.408 438.54 155.565 438.54 155.565C438.54 155.565 438.976 164.254 450.476 166.499L442.4 170.376C442.4 170.376 444.758 180.325 465.82 179.437L460.199 185.671C460.199 185.671 469.05 192.891 491.242 189.725L487.059 195.104C487.059 195.104 497.428 202.323 515.034 197.252L513.112 202.178C513.112 202.178 526.453 203.147 534.318 199.707C534.351 199.707 549.565 209.091 563.181 199.562Z" stroke="#263238" stroke-linecap="round" stroke-linejoin="round"/>
<path d="M466.918 160.281C459.44 162.17 454.917 161.573 449.361 164.399C449.361 164.399 454.207 171.022 466.966 170.133" fill="white"/>
<path d="M466.918 160.281C459.44 162.17 454.917 161.573 449.361 164.399C449.361 164.399 454.207 171.022 466.966 170.133" stroke="#263238" stroke-linecap="round" stroke-linejoin="round"/>
<path d="M472.604 172.75C469.386 173.435 466.239 174.419 463.204 175.69C463.204 175.69 465.045 184.298 485.251 180.18" stroke="#263238" stroke-linecap="round" stroke-linejoin="round"/>
<path d="M493.115 182.99L487.269 186.802C494.132 189.608 501.707 190.173 508.912 188.417" stroke="#263238" stroke-linecap="round" stroke-linejoin="round"/>
<path d="M514.727 188.562C514.727 188.562 508.945 192.633 509.139 193.198C509.332 193.763 520.719 198.043 531.024 192.439" fill="white"/>
<path d="M514.727 188.562C514.727 188.562 508.945 192.633 509.139 193.198C509.332 193.763 520.719 198.043 531.024 192.439" stroke="#263238" stroke-linecap="round" stroke-linejoin="round"/>
<path d="M479.194 162.72C475.657 164.335 465.175 165.853 464.48 167.388C464.48 167.388 467.905 176.982 485.477 171.571" fill="white"/>
<path d="M479.194 162.72C475.657 164.335 465.175 165.853 464.48 167.388C464.48 167.388 467.905 176.982 485.477 171.571" stroke="#263238" stroke-linecap="round" stroke-linejoin="round"/>
<path d="M490.968 173.913C488.296 174.986 485.789 176.432 483.522 178.209C483.522 178.209 490.338 187.674 506.894 179.501" fill="white"/>
<path d="M490.968 173.913C488.296 174.986 485.789 176.432 483.522 178.209C483.522 178.209 490.338 187.674 506.894 179.501" stroke="#263238" stroke-linecap="round" stroke-linejoin="round"/>
<path d="M508.994 179.485C507.536 180.139 506.226 181.083 505.146 182.261C504.066 183.438 503.237 184.824 502.711 186.333C502.711 186.333 510.9 191.631 524.935 186.123" fill="white"/>
<path d="M508.994 179.485C507.536 180.139 506.226 181.083 505.146 182.261C504.066 183.438 503.237 184.824 502.711 186.333C502.711 186.333 510.9 191.631 524.935 186.123" stroke="#263238" stroke-linecap="round" stroke-linejoin="round"/>
<path d="M493.73 165.999C493.73 165.999 483.748 168.131 483.474 169.972C483.474 169.972 491.549 176.868 504.325 173.396" fill="white"/>
<path d="M493.73 165.999C493.73 165.999 483.748 168.131 483.474 169.972C483.474 169.972 491.549 176.868 504.325 173.396" stroke="#263238" stroke-linecap="round" stroke-linejoin="round"/>
<path d="M505.829 172.508C504.278 173.294 502.929 174.427 501.888 175.819C501.888 175.819 505.748 181.536 515.697 178.419" fill="white"/>
<path d="M505.829 172.508C504.278 173.294 502.929 174.427 501.888 175.819C501.888 175.819 505.748 181.536 515.697 178.419" stroke="#263238" stroke-linecap="round" stroke-linejoin="round"/>
<path d="M574.488 164.852L566.67 167.549L562.923 159.716C562.739 159.319 562.413 159.006 562.009 158.839C561.605 158.671 561.153 158.661 560.743 158.811L534.109 167.905C533.676 168.064 533.307 168.36 533.056 168.747C532.806 169.135 532.688 169.593 532.72 170.053L533.414 178.92L489.014 194.215C487.979 194.59 487.121 195.338 486.607 196.311C486.093 197.285 485.961 198.415 486.236 199.481L504.164 267.075C504.29 267.577 504.519 268.048 504.837 268.457C505.155 268.866 505.554 269.204 506.01 269.451C506.466 269.697 506.968 269.845 507.484 269.887C508.001 269.928 508.52 269.862 509.009 269.691L594.435 240.263C595.468 239.885 596.325 239.138 596.841 238.166C597.357 237.194 597.495 236.066 597.229 234.998L579.333 167.485C579.207 166.982 578.978 166.511 578.66 166.102C578.342 165.692 577.943 165.353 577.488 165.105C577.032 164.858 576.531 164.708 576.014 164.664C575.498 164.62 574.978 164.684 574.488 164.852V164.852Z" fill="#0987FF"/>
<path opacity="0.2" d="M574.488 164.852L566.67 167.549L562.923 159.716C562.739 159.319 562.413 159.006 562.009 158.839C561.605 158.671 561.153 158.661 560.743 158.811L534.109 167.905C533.676 168.064 533.307 168.36 533.056 168.747C532.806 169.135 532.688 169.593 532.72 170.053L533.414 178.92L489.014 194.215C487.979 194.59 487.121 195.338 486.607 196.311C486.093 197.285 485.961 198.415 486.236 199.481L504.164 267.075C504.29 267.577 504.519 268.048 504.837 268.457C505.155 268.866 505.554 269.204 506.01 269.451C506.466 269.697 506.968 269.845 507.484 269.887C508.001 269.928 508.52 269.862 509.009 269.691L594.435 240.263C595.468 239.885 596.325 239.138 596.841 238.166C597.357 237.194 597.495 236.066 597.229 234.998L579.333 167.485C579.207 166.982 578.978 166.511 578.66 166.102C578.342 165.692 577.943 165.353 577.488 165.105C577.032 164.858 576.531 164.708 576.014 164.664C575.498 164.62 574.978 164.684 574.488 164.852V164.852Z" fill="black"/>
<path d="M574.488 164.852L566.67 167.549L562.923 159.716C562.739 159.319 562.413 159.006 562.009 158.839C561.605 158.671 561.153 158.661 560.743 158.811L534.109 167.905C533.676 168.064 533.307 168.36 533.056 168.747C532.806 169.135 532.688 169.593 532.72 170.053L533.414 178.92L489.014 194.215C487.979 194.59 487.121 195.338 486.607 196.311C486.093 197.285 485.961 198.415 486.236 199.481L504.164 267.075C504.29 267.577 504.519 268.048 504.837 268.457C505.155 268.866 505.554 269.204 506.01 269.451C506.466 269.697 506.968 269.845 507.484 269.887C508.001 269.928 508.52 269.862 509.009 269.691L594.435 240.263C595.468 239.885 596.325 239.138 596.841 238.166C597.357 237.194 597.495 236.066 597.229 234.998L579.333 167.485C579.207 166.982 578.978 166.511 578.66 166.102C578.342 165.692 577.943 165.353 577.488 165.105C577.032 164.858 576.531 164.708 576.014 164.664C575.498 164.62 574.978 164.684 574.488 164.852V164.852Z" stroke="#263238" stroke-linecap="round" stroke-linejoin="round"/>
<path d="M593.999 240.409L508.574 269.837C507.507 270.171 506.357 270.116 505.328 269.681C504.298 269.246 503.457 268.46 502.953 267.462L502.533 266.606L482.424 224.887L472.459 204.278C472.22 203.82 472.084 203.315 472.06 202.799C472.035 202.283 472.124 201.769 472.319 201.29C472.515 200.812 472.812 200.382 473.19 200.031C473.568 199.679 474.019 199.414 474.51 199.255L559.952 169.843C561.016 169.5 562.167 169.55 563.198 169.982C564.229 170.415 565.071 171.202 565.572 172.201L596.115 235.402C596.353 235.863 596.486 236.37 596.506 236.888C596.526 237.407 596.432 237.923 596.23 238.401C596.028 238.879 595.723 239.306 595.338 239.653C594.952 240 594.495 240.258 593.999 240.409V240.409Z" fill="#0987FF"/>
<path opacity="0.2" d="M532.978 225.452C532.518 231.049 530.202 236.332 526.399 240.463C522.595 244.595 517.521 247.338 511.981 248.258C510.202 254.981 506.99 261.241 502.565 266.606L482.424 224.887C499.431 227.826 519.007 229.474 532.978 225.452Z" fill="black"/>
<path d="M593.999 240.409L508.574 269.837C507.507 270.171 506.357 270.116 505.328 269.681C504.298 269.246 503.457 268.46 502.953 267.462L502.533 266.606L482.424 224.887L472.459 204.278C472.22 203.82 472.084 203.315 472.06 202.799C472.035 202.283 472.124 201.769 472.319 201.29C472.515 200.812 472.812 200.382 473.19 200.031C473.568 199.679 474.019 199.414 474.51 199.255L559.952 169.843C561.016 169.5 562.167 169.55 563.198 169.982C564.229 170.415 565.071 171.202 565.572 172.201L596.115 235.402C596.353 235.863 596.486 236.37 596.506 236.888C596.526 237.407 596.432 237.923 596.23 238.401C596.028 238.879 595.723 239.306 595.338 239.653C594.952 240 594.495 240.258 593.999 240.409V240.409Z" stroke="#263238" stroke-linecap="round" stroke-linejoin="round"/>
<path d="M532.978 225.436C532.978 225.436 510.818 230.282 489.676 211.255C468.534 192.229 400.843 223.756 400.843 223.756C400.843 223.756 404.073 231.832 415.638 230.217L409.29 236.468C409.29 236.468 414.701 245.125 434.373 237.534L430.933 245.206C430.933 245.206 441.625 249.211 461.621 239.084L459.376 245.545C459.376 245.545 471.522 249.05 486.559 238.616L486.381 243.946C486.381 243.946 499.302 240.57 505.682 234.804C505.682 234.853 523.093 238.842 532.978 225.436Z" fill="white"/>
<path opacity="0.4" d="M532.979 225.452C523.094 238.842 505.683 234.852 505.683 234.852C499.335 240.618 486.382 243.994 486.382 243.994L486.559 238.648C471.522 249.114 459.376 245.593 459.376 245.593L461.621 239.132C441.626 249.275 430.934 245.254 430.934 245.254L434.374 237.598C414.701 245.173 409.291 236.516 409.291 236.516L415.654 230.265C404.025 231.88 400.827 223.805 400.827 223.805C400.827 223.805 407.288 229.554 418.594 225.42C418.594 225.42 418.287 230.879 430.368 227.778C430.368 227.778 441.771 228.65 447.909 223.029C447.909 223.029 452.011 227.132 460.378 223.368L458.763 228.214C458.763 228.214 461.379 232.979 471.264 226.825L471.377 232.349C471.377 232.349 476.222 235.224 489.063 227.503C489.063 227.503 485.703 231.783 487.593 232.736C489.483 233.689 494.054 232.898 497.736 231.267C497.768 231.267 516.423 237.889 532.979 225.452Z" fill="#0987FF"/>
<path d="M532.978 225.436C532.978 225.436 510.818 230.282 489.676 211.255C468.534 192.229 400.843 223.756 400.843 223.756C400.843 223.756 404.073 231.832 415.638 230.217L409.29 236.468C409.29 236.468 414.701 245.125 434.373 237.534L430.933 245.206C430.933 245.206 441.625 249.211 461.621 239.084L459.376 245.545C459.376 245.545 471.522 249.05 486.559 238.616L486.381 243.946C486.381 243.946 499.302 240.57 505.682 234.804C505.682 234.853 523.093 238.842 532.978 225.436Z" stroke="#263238" stroke-linecap="round" stroke-linejoin="round"/>
<path d="M429.124 219.137C422.663 223.337 418.173 224.193 413.828 228.667C413.828 228.667 420.596 233.367 432.338 228.44" fill="white"/>
<path d="M429.124 219.137C422.663 223.337 418.173 224.193 413.828 228.667C413.828 228.667 420.596 233.367 432.338 228.44" stroke="#263238" stroke-linecap="round" stroke-linejoin="round"/>
<path d="M438.525 229.054C435.7 230.734 433.04 232.675 430.578 234.852C430.578 234.852 435.068 242.427 452.883 232.026" stroke="#263238" stroke-linecap="round" stroke-linejoin="round"/>
<path d="M461.266 232.236L456.889 237.744C464.292 238.172 471.64 236.25 477.886 232.252" stroke="#263238" stroke-linecap="round" stroke-linejoin="round"/>
<path d="M483.441 230.605C483.441 230.605 479.274 236.306 479.646 236.791C480.017 237.275 492.163 237.663 500.126 229.038" fill="white"/>
<path d="M483.441 230.605C483.441 230.605 479.274 236.306 479.646 236.791C480.017 237.275 492.163 237.663 500.126 229.038" stroke="#263238" stroke-linecap="round" stroke-linejoin="round"/>
<path d="M441.593 217.49C438.734 220.074 429.318 224.952 429.156 226.632C429.156 226.632 435.488 234.626 450.428 223.853" fill="white"/>
<path d="M441.593 217.49C438.734 220.074 429.318 224.952 429.156 226.632C429.156 226.632 435.488 234.626 450.428 223.853" stroke="#263238" stroke-linecap="round" stroke-linejoin="round"/>
<path d="M456.307 224.322C454.122 226.198 452.214 228.373 450.638 230.782C450.638 230.782 460.135 237.566 473.25 224.516" fill="white"/>
<path d="M456.307 224.322C454.122 226.198 452.214 228.373 450.638 230.782C450.638 230.782 460.135 237.566 473.25 224.516" stroke="#263238" stroke-linecap="round" stroke-linejoin="round"/>
<path d="M475.172 223.821C474 224.91 473.063 226.226 472.418 227.69C471.774 229.154 471.436 230.734 471.425 232.333C471.425 232.333 480.857 234.724 492.422 225" fill="white"/>
<path d="M475.172 223.821C474 224.91 473.063 226.226 472.418 227.69C471.774 229.154 471.436 230.734 471.425 232.333C471.425 232.333 480.857 234.724 492.422 225" stroke="#263238" stroke-linecap="round" stroke-linejoin="round"/>
<path d="M456.388 215.939C456.388 215.939 447.618 221.173 447.957 222.998C447.957 222.998 457.761 226.955 468.792 219.557" fill="white"/>
<path d="M456.388 215.939C456.388 215.939 447.618 221.173 447.957 222.998C447.957 222.998 457.761 226.955 468.792 219.557" stroke="#263238" stroke-linecap="round" stroke-linejoin="round"/>
<path d="M469.938 218.233C468.717 219.468 467.804 220.973 467.273 222.626C467.273 222.626 472.765 226.809 481.18 220.672" fill="white"/>
<path d="M469.938 218.233C468.717 219.468 467.804 220.973 467.273 222.626C467.273 222.626 472.765 226.809 481.18 220.672" stroke="#263238" stroke-linecap="round" stroke-linejoin="round"/>
<path d="M360.189 455.288C362.111 454.642 364.147 453.899 366.262 453.076" stroke="#263238" stroke-width="2" stroke-linecap="round" stroke-linejoin="round"/>
<path d="M373.611 449.991C410.049 433.678 463.413 394.591 451.93 330.987C442.465 278.656 399.195 283.324 386.177 294.113C364.098 312.429 360.738 355.489 392.637 364.501C445.614 379.344 485.88 313.204 499.043 288.04" stroke="#263238" stroke-width="2" stroke-linecap="round" stroke-linejoin="round" stroke-dasharray="7.9 4.94"/>
<path d="M500.933 284.486C502.758 280.836 503.711 278.655 503.711 278.655" stroke="#263238" stroke-width="2" stroke-linecap="round" stroke-linejoin="round"/>
</svg>
