<svg width="483" height="436" viewBox="0 0 483 436" fill="none" xmlns="http://www.w3.org/2000/svg">
<path d="M456.52 84.55C454.933 81.8833 453.266 79.25 451.52 76.65C428.34 42.31 388.45 18.81 349.21 8.18996C331.994 3.61024 314.307 1.02988 296.5 0.49996C179.88 -3.45004 133.43 88.5 94.8898 112.18C56.3498 135.86 -2.93017 176.41 0.999825 261.4C4.92983 346.39 66.2198 426.4 184.81 431.4C303.4 436.4 311.33 383 377.54 363.19C421.36 350.11 452.54 305.93 467.74 265.1C488.52 209.46 487.54 137.19 456.52 84.55Z" fill="#0987FF"/>
<path opacity="0.7" d="M456.52 84.55C454.933 81.8833 453.266 79.25 451.52 76.65C428.34 42.31 388.45 18.81 349.21 8.18996C331.994 3.61024 314.307 1.02988 296.5 0.49996C179.88 -3.45004 133.43 88.5 94.8898 112.18C56.3498 135.86 -2.93017 176.41 0.999825 261.4C4.92983 346.39 66.2198 426.4 184.81 431.4C303.4 436.4 311.33 383 377.54 363.19C421.36 350.11 452.54 305.93 467.74 265.1C488.52 209.46 487.54 137.19 456.52 84.55Z" fill="white"/>
<path d="M482 78.2H364.03L368.82 70.01H482" stroke="#263238" stroke-linecap="round" stroke-linejoin="round"/>
<path d="M482 86.4002H364.03L368.82 78.2002H482" stroke="#263238" stroke-linecap="round" stroke-linejoin="round"/>
<path d="M482 94.5901H364.03L368.82 86.4001H482" stroke="#263238" stroke-linecap="round" stroke-linejoin="round"/>
<path d="M482 102.78H364.03L368.82 94.5901H482" stroke="#263238" stroke-linecap="round" stroke-linejoin="round"/>
<path d="M482 110.98H364.03L368.82 102.78H482" stroke="#263238" stroke-linecap="round" stroke-linejoin="round"/>
<path d="M482 119.17H364.03L368.82 110.98H482" stroke="#263238" stroke-linecap="round" stroke-linejoin="round"/>
<path d="M482 127.36H364.03L368.82 119.17H482" stroke="#263238" stroke-linecap="round" stroke-linejoin="round"/>
<path d="M482 135.56H364.03L368.82 127.36H482" stroke="#263238" stroke-linecap="round" stroke-linejoin="round"/>
<path d="M482 143.75H364.03L368.82 135.56H482" stroke="#263238" stroke-linecap="round" stroke-linejoin="round"/>
<path d="M482 151.94H364.03L368.82 143.75H482" stroke="#263238" stroke-linecap="round" stroke-linejoin="round"/>
<path d="M482 160.14H364.03L368.82 151.94H482" stroke="#263238" stroke-linecap="round" stroke-linejoin="round"/>
<path d="M482 168.33H364.03L368.82 160.14H482" stroke="#263238" stroke-linecap="round" stroke-linejoin="round"/>
<path d="M482 176.52H364.03L368.82 168.33H482" stroke="#263238" stroke-linecap="round" stroke-linejoin="round"/>
<path d="M482 184.72H364.03L368.82 176.52H482" stroke="#263238" stroke-linecap="round" stroke-linejoin="round"/>
<path d="M482 192.91H364.03L368.82 184.72H482" stroke="#263238" stroke-linecap="round" stroke-linejoin="round"/>
<path d="M482 201.1H364.03L368.82 192.91H482" stroke="#263238" stroke-linecap="round" stroke-linejoin="round"/>
<path d="M482 209.3H364.03L368.82 201.1H482" stroke="#263238" stroke-linecap="round" stroke-linejoin="round"/>
<path d="M482 217.49H364.03L368.82 209.3H482" stroke="#263238" stroke-linecap="round" stroke-linejoin="round"/>
<path d="M482 225.68H364.03L368.82 217.49H482" stroke="#263238" stroke-linecap="round" stroke-linejoin="round"/>
<path d="M482 233.88H364.03L368.82 225.68H482" stroke="#263238" stroke-linecap="round" stroke-linejoin="round"/>
<path d="M482 242.07H364.03L368.82 233.88H482" stroke="#263238" stroke-linecap="round" stroke-linejoin="round"/>
<path d="M482 250.26H364.03L368.82 242.07H482" stroke="#263238" stroke-linecap="round" stroke-linejoin="round"/>
<path d="M482 258.46H364.03L368.82 250.26H482" stroke="#263238" stroke-linecap="round" stroke-linejoin="round"/>
<path d="M482 266.65H364.03L368.82 258.46H482" stroke="#263238" stroke-linecap="round" stroke-linejoin="round"/>
<path d="M482 274.84H364.03L368.82 266.65H482" stroke="#263238" stroke-linecap="round" stroke-linejoin="round"/>
<path d="M482 283.04H364.03L368.82 274.84H482" stroke="#263238" stroke-linecap="round" stroke-linejoin="round"/>
<path d="M482 291.23H364.03L368.82 283.04H482" stroke="#263238" stroke-linecap="round" stroke-linejoin="round"/>
<path d="M482 299.43H364.03L368.82 291.23H482" stroke="#263238" stroke-linecap="round" stroke-linejoin="round"/>
<path d="M482 55.8601H356.86V70.0101H482" stroke="#263238" stroke-linecap="round" stroke-linejoin="round"/>
<path d="M70.53 193.27C70.5414 193.256 70.5476 193.238 70.5476 193.22C70.5476 193.202 70.5414 193.184 70.53 193.17C70.5235 193.164 70.5157 193.158 70.5072 193.155C70.4986 193.151 70.4894 193.149 70.48 193.149C70.4707 193.149 70.4615 193.151 70.4529 193.155C70.4443 193.158 70.4366 193.164 70.43 193.17C68.2623 198.373 66.546 203.753 65.3 209.25C64.0262 214.775 63.0679 220.367 62.43 226L62.03 230.22C61.97 230.92 61.89 231.62 61.84 232.33L61.72 234.44C61.66 235.85 61.58 237.26 61.54 238.67V242.91V245.03C61.54 245.73 61.62 246.43 61.67 247.14C61.78 248.55 61.86 249.96 61.99 251.36C62.26 254.17 62.69 256.96 63.12 259.74C63.12 259.74 63.12 259.81 63.19 259.8C63.2096 259.8 63.2286 259.793 63.2433 259.78C63.2581 259.767 63.2676 259.75 63.27 259.73C63.27 258.31 63.2 256.91 63.17 255.51C63.14 254.11 63.01 252.7 63.03 251.3C63.05 249.9 63.03 248.5 63.03 247.09L63 245V242.9V238.7L63.11 234.5V232.4C63.11 231.7 63.19 231.01 63.23 230.31L63.49 226.12C64.0152 220.521 64.8531 214.956 66 209.45C67.0426 203.937 68.5582 198.523 70.53 193.27Z" fill="#263238"/>
<path d="M71.1301 215.22C71.1407 215.207 71.1465 215.192 71.1465 215.175C71.1465 215.159 71.1407 215.143 71.1301 215.13C71.1245 215.124 71.1176 215.119 71.1098 215.115C71.102 215.112 71.0936 215.11 71.0851 215.11C71.0766 215.11 71.0682 215.112 71.0604 215.115C71.0527 215.119 71.0457 215.124 71.0401 215.13C69.8457 218.626 68.8442 222.184 68.0401 225.79C67.2463 229.421 66.6587 233.093 66.2801 236.79C65.9001 240.46 65.4901 244.14 65.4401 247.79C65.3503 251.488 65.4805 255.188 65.8301 258.87C65.8353 258.885 65.8445 258.899 65.8568 258.91C65.8692 258.92 65.8841 258.927 65.9001 258.93C65.9094 258.933 65.9194 258.934 65.9292 258.933C65.939 258.931 65.9483 258.927 65.9562 258.922C65.9641 258.916 65.9705 258.908 65.9746 258.899C65.9788 258.89 65.9807 258.88 65.9801 258.87C66.4101 255.19 66.6701 251.52 66.9201 247.87C67.1701 244.22 67.2201 240.53 67.4601 236.87C67.6806 233.226 68.1046 229.597 68.7301 226C69.3246 222.364 70.1259 218.765 71.1301 215.22V215.22Z" fill="#263238"/>
<path d="M83.3001 222.94C83.2936 222.932 83.2852 222.925 83.2757 222.92C83.2662 222.916 83.2557 222.913 83.2451 222.913C83.2346 222.913 83.2241 222.916 83.2146 222.92C83.205 222.925 83.1967 222.932 83.1901 222.94C80.1491 224.883 77.4098 227.261 75.0601 230C73.8779 231.381 72.8142 232.86 71.8801 234.42L71.2201 235.66L70.7101 237C70.5301 237.42 70.4001 237.86 70.2601 238.3C70.1201 238.74 69.9901 239.17 69.8701 239.61C68.9363 243.118 68.3699 246.714 68.1801 250.34C68.0066 253.948 68.1438 257.565 68.5901 261.15C68.5901 261.169 68.5975 261.186 68.6106 261.2C68.6238 261.213 68.6416 261.22 68.6601 261.22C68.6797 261.22 68.6987 261.213 68.7135 261.2C68.7282 261.187 68.7377 261.169 68.7401 261.15L69.6601 250.45C69.9071 246.894 70.3545 243.355 71.0001 239.85C71.1001 239.42 71.2201 239 71.3301 238.57C71.4309 238.144 71.5544 237.723 71.7001 237.31L72.1401 236.07L72.7001 234.9C73.5456 233.348 74.519 231.87 75.6101 230.48C77.7865 227.628 80.3669 225.108 83.2701 223V223C83.2792 222.993 83.2866 222.984 83.2917 222.973C83.2969 222.963 83.2998 222.952 83.3001 222.94V222.94Z" fill="#263238"/>
<path d="M77.4101 236.69C75.8281 237.841 74.5566 239.366 73.7101 241.13C72.8209 242.866 72.1235 244.693 71.6301 246.58C71.4901 247.05 71.3701 247.52 71.2701 248L70.9401 249.42C70.7605 250.375 70.6403 251.34 70.5801 252.31C70.5801 253.31 70.5801 254.25 70.5801 255.22C70.6519 256.19 70.7788 257.155 70.9601 258.11C70.9644 258.124 70.9721 258.137 70.9826 258.148C70.993 258.158 71.0059 258.166 71.0201 258.17C71.0399 258.173 71.0601 258.169 71.0768 258.158C71.0934 258.146 71.1053 258.13 71.1101 258.11C71.3373 257.171 71.5076 256.219 71.6201 255.26C71.7801 254.32 71.9201 253.38 72.0301 252.45C72.1401 251.52 72.3001 250.58 72.3701 249.64C72.4401 248.7 72.5701 247.77 72.7701 246.85C73.0995 244.997 73.6327 243.186 74.3601 241.45C75.0144 239.681 76.0765 238.092 77.4601 236.81V236.81C77.4714 236.796 77.4776 236.778 77.4776 236.76C77.4776 236.742 77.4714 236.724 77.4601 236.71C77.4535 236.704 77.4457 236.698 77.4371 236.695C77.4285 236.692 77.4193 236.69 77.4101 236.69V236.69Z" fill="#263238"/>
<path d="M60.34 247.41C59.94 242.66 59.16 237.95 58.42 233.25C57.68 228.55 56.86 223.86 56 219.19C55.14 214.52 54.18 209.85 53.17 205.19C53.1635 205.172 53.1512 205.156 53.135 205.145C53.1188 205.134 53.0995 205.129 53.08 205.13C53.0605 205.135 53.0436 205.147 53.0325 205.163C53.0214 205.18 53.0169 205.2 53.02 205.22C53.83 209.9 54.57 214.6 55.27 219.3C55.97 224 56.65 228.7 57.27 233.41C57.89 238.12 58.27 242.85 58.9 247.55L60.64 261.69C60.64 261.709 60.6474 261.727 60.6605 261.74C60.6736 261.753 60.6914 261.76 60.71 261.76C60.7286 261.76 60.7464 261.753 60.7595 261.74C60.7726 261.727 60.78 261.709 60.78 261.69C60.84 260.5 60.84 259.3 60.87 258.11C60.9 256.92 60.87 255.73 60.8 254.53C60.72 252.16 60.52 249.78 60.34 247.41Z" fill="#263238"/>
<path d="M57.4902 247.34C57.2402 245.46 56.8902 243.59 56.4902 241.72L55.8702 239C55.6502 238.07 55.4402 237.15 55.1702 236.23C54.2211 232.548 53.0079 228.938 51.5402 225.43L51.0002 224.07L50.3702 222.79C49.9702 221.93 49.4802 221.11 49.0202 220.28C48.0813 218.623 46.928 217.096 45.5902 215.74C45.5837 215.733 45.5759 215.728 45.5673 215.725C45.5587 215.721 45.5495 215.719 45.5402 215.719C45.5309 215.719 45.5217 215.721 45.5131 215.725C45.5045 215.728 45.4967 215.733 45.4902 215.74C45.4788 215.754 45.4727 215.772 45.4727 215.79C45.4727 215.808 45.4788 215.826 45.4902 215.84C46.7402 217.243 47.7963 218.807 48.6302 220.49C49.0402 221.33 49.4802 222.16 49.8302 223.04L50.3902 224.33L50.8802 225.65C52.1846 229.175 53.2274 232.792 54.0002 236.47C54.4302 238.29 54.7202 240.16 55.0702 242L55.5202 244.78C55.6802 245.71 55.8802 246.63 56.0102 247.56C56.3002 249.42 56.6502 251.27 57.0102 253.13C57.3702 254.99 57.6402 256.85 58.0102 258.71C58.0126 258.727 58.0211 258.742 58.0339 258.753C58.0468 258.764 58.0633 258.77 58.0802 258.77C58.0998 258.77 58.1188 258.763 58.1335 258.75C58.1483 258.737 58.1578 258.72 58.1602 258.7C58.1602 256.8 58.1602 254.9 58.0302 253.01C57.9002 251.12 57.6902 249.23 57.4902 247.34Z" fill="#263238"/>
<path d="M53.5604 247.58C52.6804 245.09 51.6604 242.65 50.5604 240.26C49.447 237.87 48.1846 235.552 46.7804 233.32C46.7652 233.311 46.7479 233.307 46.7304 233.307C46.7128 233.307 46.6956 233.311 46.6804 233.32C46.6682 233.336 46.6616 233.355 46.6616 233.375C46.6616 233.395 46.6682 233.414 46.6804 233.43C47.905 235.744 48.9837 238.132 49.9104 240.58C50.9104 243.01 51.7504 245.47 52.4804 247.98C53.2104 250.49 53.7504 253.03 54.4204 255.54C55.0904 258.05 55.6804 260.59 56.4204 263.14C56.4267 263.156 56.4378 263.169 56.4522 263.178C56.4666 263.187 56.4835 263.191 56.5004 263.19C56.5189 263.19 56.5367 263.183 56.5499 263.17C56.563 263.156 56.5704 263.139 56.5704 263.12C56.6052 260.468 56.3572 257.82 55.8304 255.22C55.2874 252.615 54.5281 250.059 53.5604 247.58V247.58Z" fill="#263238"/>
<path d="M53.4003 255.88C52.9151 254.328 52.2114 252.853 51.3103 251.5C50.4673 250.106 49.4415 248.832 48.2603 247.71C47.6591 247.17 47.0135 246.682 46.3303 246.25C45.649 245.812 44.908 245.476 44.1303 245.25C44.1185 245.242 44.1046 245.238 44.0903 245.238C44.076 245.238 44.062 245.242 44.0503 245.25C44.0389 245.264 44.0327 245.282 44.0327 245.3C44.0327 245.318 44.0389 245.336 44.0503 245.35V245.35C45.4516 246.028 46.6951 246.992 47.7003 248.18C48.7144 249.343 49.5655 250.638 50.2303 252.03C50.9503 253.39 51.3303 254.9 51.9503 256.31C52.2303 257.03 52.5103 257.75 52.8303 258.47C53.1147 259.225 53.4487 259.96 53.8303 260.67V260.67C53.8359 260.685 53.8462 260.699 53.8596 260.708C53.873 260.717 53.8889 260.722 53.9053 260.722C53.9216 260.722 53.9375 260.717 53.9509 260.708C53.9643 260.699 53.9746 260.685 53.9803 260.67C54.0002 259.859 53.9702 259.047 53.8903 258.24C53.7603 257.46 53.5903 256.67 53.4003 255.88Z" fill="#263238"/>
<path d="M53.6903 212C51.318 211.336 49.172 210.037 47.4837 208.243C45.7955 206.449 44.6291 204.228 44.1103 201.82C42.3203 193.44 48.1103 197.03 42.9203 183.82C37.7303 170.61 38.9203 167.65 40.7203 163.82C42.5203 159.99 43.5103 161.22 45.1103 166.21C46.7103 171.2 52.5003 178.99 54.6903 193.56C56.8803 208.13 53.6903 212 53.6903 212Z" fill="#0987FF"/>
<path d="M69.0603 197.83C69.0603 197.83 63.8703 196.03 63.6703 186.25C63.4703 176.47 67.4703 178.47 68.0603 166.25C68.6503 154.03 69.4603 145.5 71.6603 145.3C73.8603 145.1 79.6603 151.3 81.6603 164.86C83.6603 178.42 79.0603 187.41 75.0703 191.4C71.0803 195.39 69.0603 197.83 69.0603 197.83Z" fill="#0987FF"/>
<path d="M50.9001 223.78C50.9001 223.78 49.7001 216.59 47.3101 213.2C44.9201 209.81 39.7201 206.81 36.3101 200.2C32.9001 193.59 29.1201 190.42 29.3101 199.8C29.5001 209.18 33.7001 213.97 38.8901 217.16C44.0801 220.35 50.9001 223.78 50.9001 223.78Z" fill="#0987FF"/>
<path d="M48.7002 236.15C45.5349 230.299 41.5739 224.914 36.9302 220.15C29.9302 213.37 24.3502 209.98 26.3502 213.37C28.3502 216.76 30.7402 216.56 34.1302 222.55C37.5202 228.54 36.5302 232.93 41.3202 236.32C46.1102 239.71 48.7002 236.15 48.7002 236.15Z" fill="#0987FF"/>
<path d="M48.1001 247.93C47.9101 247.33 47.7101 242.93 40.9201 239.35C34.1301 235.77 27.7501 237.15 28.5401 238.95C29.3301 240.75 33.5401 243.74 37.7301 245.53C41.0716 246.765 44.556 247.571 48.1001 247.93V247.93Z" fill="#0987FF"/>
<path d="M68.6603 224.18C68.6603 224.18 65.6603 220.38 67.2703 212.4C68.8803 204.42 72.4603 206.4 76.4503 202.22C80.4403 198.04 79.6403 197.43 83.6303 193.04C87.6203 188.65 91.2203 186.25 92.8103 188.04C94.4003 189.83 92.0203 195.43 89.6203 198.62C87.2203 201.81 83.4303 203.41 81.6203 207.4C79.8103 211.39 80.6203 217.78 76.0303 220.77C71.4403 223.76 68.6603 224.18 68.6603 224.18Z" fill="#0987FF"/>
<path d="M78.6401 226.37C78.6401 226.37 85.8301 218.19 91.0001 212.2C96.1701 206.21 98.1801 201.62 98.3801 205.61C98.5801 209.6 100.2 212.8 96.0001 218C91.8001 223.2 78.6401 226.37 78.6401 226.37Z" fill="#0987FF"/>
<path d="M74.8503 239.55C74.8503 239.55 74.6503 236.35 86.0003 229C97.3503 221.65 102.16 220.21 101 223.21C99.8403 226.21 94.8103 229.21 89.4203 234.59C84.0303 239.97 74.8503 239.55 74.8503 239.55Z" fill="#0987FF"/>
<path d="M54.1703 211.15C54.1703 211.15 51.5004 196.83 48.7004 186.65C45.9004 176.47 44.1104 170.29 44.1104 170.29" stroke="#263238" stroke-linecap="round" stroke-linejoin="round"/>
<path d="M68.6001 198C68.6001 198 73.4501 182.48 75.0501 173.1C76.6501 163.72 74.8501 156.73 74.0501 152.54" stroke="#263238" stroke-linecap="round" stroke-linejoin="round"/>
<path d="M50.2701 223.48C48.1229 219.784 45.6639 216.278 42.9201 213C38.5201 207.81 35.1301 205 33.1401 200" stroke="#263238" stroke-linecap="round" stroke-linejoin="round"/>
<path d="M68.6602 224.18C68.6602 224.18 70.2602 214.6 74.0502 209.61C77.8402 204.62 85.4302 196.83 88.4202 191.84" stroke="#263238" stroke-linecap="round" stroke-linejoin="round"/>
<path d="M47.6404 247.71C47.6404 247.71 40.9204 243.34 36.1304 240.94" stroke="#263238" stroke-linecap="round" stroke-linejoin="round"/>
<path d="M69.7104 290.04H55.8404L48.9004 255.31H76.6504L69.7104 290.04Z" fill="#263238" stroke="#263238" stroke-linecap="round" stroke-linejoin="round"/>
<path d="M106.06 290.93H19.1499V434.34H106.06V290.93Z" stroke="#263238" stroke-linecap="round" stroke-linejoin="round"/>
<path d="M97.7298 304.66H27.5498V340.51H97.7298V304.66Z" stroke="#263238" stroke-linecap="round" stroke-linejoin="round"/>
<path d="M62.6301 323.07C71.8974 323.07 79.4101 322.215 79.4101 321.16C79.4101 320.105 71.8974 319.25 62.6301 319.25C53.3628 319.25 45.8501 320.105 45.8501 321.16C45.8501 322.215 53.3628 323.07 62.6301 323.07Z" fill="#263238" stroke="#263238" stroke-linecap="round" stroke-linejoin="round"/>
<path d="M97.7298 348.14H27.5498V383.99H97.7298V348.14Z" stroke="#263238" stroke-linecap="round" stroke-linejoin="round"/>
<path d="M79.4201 364.64C79.4201 365.69 71.9001 366.55 62.6301 366.55C53.3601 366.55 45.8501 365.69 45.8501 364.64C45.8501 363.59 53.3701 362.73 62.6301 362.73C71.8901 362.73 79.4201 363.59 79.4201 364.64Z" fill="#263238" stroke="#263238" stroke-linecap="round" stroke-linejoin="round"/>
<path d="M97.7298 391.62H27.5498V427.47H97.7298V391.62Z" stroke="#263238" stroke-linecap="round" stroke-linejoin="round"/>
<path d="M62.6301 410.03C71.8974 410.03 79.4101 409.175 79.4101 408.12C79.4101 407.065 71.8974 406.21 62.6301 406.21C53.3628 406.21 45.8501 407.065 45.8501 408.12C45.8501 409.175 53.3628 410.03 62.6301 410.03Z" fill="#263238" stroke="#263238" stroke-linecap="round" stroke-linejoin="round"/>
<path d="M285.54 59.25H203.92V224.78H285.54V59.25Z" fill="white" stroke="#263238" stroke-linecap="round" stroke-linejoin="round"/>
<path d="M239.19 86.6899V64.6899H248.77V67.7999H243.67V73.6399H247.61V76.7599H243.67V83.6499H248.83V86.6499L239.19 86.6899Z" fill="#263238"/>
<path d="M224.65 108.87V92.6499H231.72V94.9299H228V99.2399H230.9V101.54H228V106.63H231.81V108.87H224.65Z" fill="#263238"/>
<path d="M225.47 126.28V116H223.61V114.2H229.78V116H228V126.25L225.47 126.28Z" fill="#263238"/>
<path d="M244.22 126.44C243.49 126.474 242.765 126.312 242.12 125.97C241.6 125.655 241.205 125.171 241 124.6C240.762 123.919 240.646 123.201 240.66 122.48V118C240.646 117.279 240.762 116.561 241 115.88C241.203 115.318 241.596 114.845 242.11 114.54C242.756 114.202 243.481 114.043 244.21 114.08C244.949 114.044 245.684 114.206 246.34 114.55C246.854 114.857 247.249 115.329 247.46 115.89C247.695 116.568 247.807 117.282 247.79 118V122.51C247.806 123.23 247.694 123.948 247.46 124.63C247.25 125.199 246.856 125.681 246.34 126C245.684 126.332 244.953 126.483 244.22 126.44V126.44ZM244.22 124.67C244.476 124.69 244.73 124.612 244.93 124.45C245.08 124.289 245.181 124.087 245.22 123.87C245.273 123.613 245.3 123.352 245.3 123.09V117.37C245.299 117.111 245.273 116.853 245.22 116.6C245.179 116.383 245.079 116.182 244.93 116.02C244.729 115.862 244.475 115.786 244.22 115.81C243.978 115.797 243.74 115.871 243.55 116.02C243.394 116.179 243.289 116.381 243.25 116.6C243.205 116.854 243.182 117.112 243.18 117.37V123.09C243.176 123.352 243.2 123.613 243.25 123.87C243.279 124.09 243.381 124.294 243.54 124.45C243.633 124.53 243.741 124.59 243.858 124.628C243.974 124.666 244.097 124.68 244.22 124.67V124.67Z" fill="#263238"/>
<path d="M220.81 142.86V130.78H223.27V141.19H226.1V142.86H220.81Z" fill="#263238"/>
<path d="M217.38 158.46V147.56H220.84C221.397 147.535 221.95 147.663 222.44 147.93C222.853 148.179 223.176 148.554 223.36 149C223.577 149.54 223.683 150.118 223.67 150.7C223.7 151.335 223.562 151.966 223.27 152.53C223.022 152.951 222.643 153.278 222.19 153.46C221.685 153.651 221.149 153.746 220.61 153.74H219.61V158.46H217.38ZM219.6 152.18H220.38C220.639 152.192 220.898 152.136 221.13 152.02C221.307 151.907 221.435 151.732 221.49 151.53C221.557 151.248 221.587 150.959 221.58 150.67C221.581 150.388 221.557 150.107 221.51 149.83C221.467 149.622 221.35 149.437 221.18 149.31C220.937 149.162 220.653 149.096 220.37 149.12H219.6V152.18Z" fill="#263238"/>
<path d="M217.25 173.55V164.45H221.25V165.73H219.1V168.15H220.73V169.44H219.1V172.29H221.24V173.55H217.25Z" fill="#263238"/>
<path d="M217.51 188.74V182.63H220.09V183.48H218.75V185.13H219.89V186H218.75V188.74H217.51Z" fill="#263238"/>
<path d="M226.5 188.74V182.63H229.17V183.49H227.75V185.11H228.84V186H227.75V187.92H229.18V188.76L226.5 188.74Z" fill="#263238"/>
<path d="M219.78 197.07V191.74H221.08C221.442 191.724 221.803 191.786 222.14 191.92C222.38 192.024 222.571 192.217 222.67 192.46C222.787 192.762 222.841 193.086 222.83 193.41V195.35C222.845 195.691 222.791 196.031 222.67 196.35C222.623 196.474 222.552 196.587 222.461 196.683C222.37 196.779 222.261 196.856 222.14 196.91C221.823 197.04 221.482 197.102 221.14 197.09L219.78 197.07ZM220.86 196.31H221.09C221.239 196.324 221.389 196.293 221.52 196.22C221.608 196.149 221.668 196.05 221.69 195.94C221.702 195.784 221.702 195.626 221.69 195.47V193.28C221.703 193.13 221.703 192.98 221.69 192.83C221.678 192.78 221.656 192.732 221.625 192.691C221.594 192.65 221.555 192.615 221.51 192.59C221.384 192.523 221.241 192.496 221.1 192.51H220.87L220.86 196.31Z" fill="#263238"/>
<path d="M223 210V205.4H223.94V209.4H225V210H223Z" fill="#263238"/>
<path d="M228.55 210V205.4H230.55V206.04H229.48V207.27H230.31V208H229.48V209.44H230.56V210H228.55Z" fill="#263238"/>
<path d="M234.71 210V205.4H236.65V206.03H235.65V207.28H236.5V208H235.65V210H234.71Z" fill="#263238"/>
<path d="M224.74 215.42V211.94H226.21V212.42H225.45V213.36H226.09V213.86H225.45V215.42H224.74Z" fill="#263238"/>
<path d="M229.11 215.42V211.94H230C230.238 211.932 230.476 211.969 230.7 212.05C230.856 212.124 230.98 212.252 231.05 212.41C231.119 212.609 231.153 212.819 231.15 213.03V214.3C231.153 214.518 231.119 214.734 231.05 214.94C230.981 215.101 230.857 215.232 230.7 215.31C230.484 215.396 230.252 215.434 230.02 215.42H229.11ZM229.82 214.93H230C230.1 214.939 230.201 214.918 230.29 214.87C230.346 214.822 230.382 214.754 230.39 214.68C230.396 214.58 230.396 214.48 230.39 214.38V212.94C230.402 212.844 230.402 212.746 230.39 212.65C230.386 212.616 230.374 212.584 230.354 212.557C230.335 212.529 230.31 212.506 230.28 212.49C230.195 212.451 230.103 212.434 230.01 212.44H229.86L229.82 214.93Z" fill="#263238"/>
<path d="M233.73 215.42V211.94H234.83C235.011 211.932 235.191 211.974 235.35 212.06C235.482 212.138 235.584 212.258 235.64 212.4C235.708 212.572 235.742 212.755 235.74 212.94C235.748 213.145 235.703 213.348 235.61 213.53C235.531 213.667 235.408 213.773 235.26 213.83C235.099 213.885 234.93 213.912 234.76 213.91H234.44V215.42H233.73ZM234.44 213.42H234.69C234.769 213.438 234.851 213.438 234.93 213.42C234.983 213.38 235.021 213.324 235.04 213.26C235.053 213.167 235.053 213.073 235.04 212.98C235.046 212.893 235.046 212.807 235.04 212.72C235.024 212.652 234.985 212.592 234.93 212.55C234.852 212.503 234.761 212.482 234.67 212.49H234.43L234.44 213.42Z" fill="#263238"/>
<path d="M239.39 215.42V211.94H240.1V214.94H240.91V215.42H239.39Z" fill="#263238"/>
<path d="M245.19 215.42V211.94H245.68L246.46 213.76V211.94H247V215.42H246.53L245.75 213.5V215.42H245.19Z" fill="#263238"/>
<path d="M252.5 215.47C252.285 215.479 252.07 215.431 251.88 215.33C251.734 215.232 251.625 215.087 251.57 214.92C251.506 214.723 251.476 214.517 251.48 214.31V213.06C251.475 212.85 251.506 212.64 251.57 212.44C251.622 212.274 251.732 212.132 251.88 212.04C252.069 211.934 252.284 211.886 252.5 211.9C252.7 211.89 252.9 211.931 253.08 212.02C253.223 212.095 253.333 212.219 253.39 212.37C253.444 212.541 253.471 212.72 253.47 212.9V213.2H252.79V212.87C252.795 212.793 252.795 212.717 252.79 212.64C252.783 212.578 252.759 212.519 252.72 212.47C252.693 212.445 252.661 212.427 252.627 212.415C252.593 212.403 252.556 212.398 252.52 212.4C252.447 212.396 252.375 212.421 252.32 212.47C252.271 212.518 252.239 212.582 252.23 212.65C252.225 212.73 252.225 212.81 252.23 212.89V214.48C252.219 214.563 252.219 214.647 252.23 214.73C252.243 214.794 252.274 214.853 252.32 214.9C252.373 214.943 252.441 214.965 252.51 214.96C252.546 214.964 252.583 214.96 252.618 214.948C252.653 214.936 252.684 214.916 252.71 214.89C252.752 214.839 252.777 214.776 252.78 214.71C252.785 214.633 252.785 214.557 252.78 214.48V214.14H253.46V214.43C253.466 214.613 253.439 214.796 253.38 214.97C253.321 215.122 253.216 215.251 253.08 215.34C252.902 215.436 252.702 215.481 252.5 215.47Z" fill="#263238"/>
<path d="M257.92 215.42V211.94H259.44V212.43H258.63V213.35H259.26V213.85H258.63V214.94H259.45V215.42H257.92Z" fill="#263238"/>
<path d="M265.7 215.47C265.487 215.483 265.275 215.435 265.09 215.33C264.945 215.236 264.833 215.1 264.77 214.94C264.705 214.743 264.675 214.537 264.68 214.33V213C264.675 212.793 264.705 212.587 264.77 212.39C264.833 212.23 264.945 212.094 265.09 212C265.278 211.904 265.488 211.859 265.7 211.87C265.911 211.858 266.122 211.903 266.31 212C266.46 212.09 266.576 212.227 266.64 212.39C266.704 212.587 266.735 212.793 266.73 213V214.3C266.735 214.507 266.704 214.713 266.64 214.91C266.576 215.073 266.46 215.21 266.31 215.3C266.128 215.416 265.915 215.476 265.7 215.47V215.47ZM265.7 214.96C265.772 214.967 265.843 214.945 265.9 214.9C265.947 214.854 265.978 214.795 265.99 214.73C265.995 214.653 265.995 214.577 265.99 214.5V212.86C265.995 212.783 265.995 212.707 265.99 212.63C265.978 212.563 265.942 212.503 265.888 212.46C265.835 212.418 265.768 212.396 265.7 212.4C265.665 212.398 265.63 212.404 265.598 212.416C265.565 212.428 265.535 212.446 265.51 212.47C265.463 212.512 265.431 212.568 265.42 212.63C265.414 212.707 265.414 212.783 265.42 212.86V214.5C265.414 214.577 265.414 214.653 265.42 214.73C265.421 214.764 265.429 214.798 265.444 214.829C265.459 214.86 265.481 214.887 265.507 214.909C265.534 214.931 265.565 214.946 265.598 214.955C265.631 214.964 265.666 214.966 265.7 214.96V214.96Z" fill="#263238"/>
<path d="M241.69 210.09C241.412 210.103 241.136 210.041 240.89 209.91C240.694 209.79 240.546 209.606 240.47 209.39C240.377 209.13 240.332 208.856 240.34 208.58V206.86C240.332 206.587 240.376 206.316 240.47 206.06C240.539 205.842 240.69 205.66 240.89 205.55C241.142 205.431 241.417 205.37 241.695 205.37C241.973 205.37 242.248 205.431 242.5 205.55C242.697 205.666 242.849 205.846 242.93 206.06C243.019 206.317 243.063 206.588 243.06 206.86V208.58C243.062 208.855 243.018 209.129 242.93 209.39C242.851 209.608 242.699 209.792 242.5 209.91C242.251 210.042 241.971 210.104 241.69 210.09V210.09ZM241.69 209.42C241.739 209.424 241.788 209.417 241.834 209.402C241.88 209.387 241.923 209.362 241.96 209.33C242.02 209.271 242.059 209.194 242.07 209.11C242.081 209.01 242.081 208.91 242.07 208.81V206.64C242.081 206.54 242.081 206.44 242.07 206.34C242.056 206.257 242.018 206.181 241.96 206.12C241.882 206.062 241.786 206.034 241.69 206.04C241.599 206.034 241.51 206.063 241.44 206.12C241.379 206.18 241.337 206.256 241.32 206.34C241.309 206.44 241.309 206.54 241.32 206.64V208.81C241.309 208.91 241.309 209.01 241.32 209.11C241.331 209.194 241.37 209.271 241.43 209.33C241.501 209.393 241.595 209.426 241.69 209.42V209.42Z" fill="#263238"/>
<path d="M246.8 210V205.4H247.92C248.23 205.386 248.54 205.437 248.83 205.55C249.041 205.641 249.209 205.809 249.3 206.02C249.396 206.282 249.44 206.561 249.43 206.84V208.52C249.44 208.806 249.396 209.091 249.3 209.36C249.21 209.571 249.046 209.741 248.84 209.84C248.556 209.962 248.248 210.017 247.94 210H246.8ZM247.73 209.35H247.93C248.06 209.363 248.19 209.331 248.3 209.26C248.339 209.233 248.372 209.197 248.396 209.155C248.42 209.114 248.435 209.068 248.44 209.02C248.452 208.887 248.452 208.753 248.44 208.62V206.72C248.459 206.594 248.459 206.466 248.44 206.34C248.432 206.296 248.416 206.254 248.392 206.216C248.368 206.178 248.336 206.146 248.3 206.12C248.186 206.074 248.063 206.053 247.94 206.06H247.74L247.73 209.35Z" fill="#263238"/>
<path d="M261.24 210.09C260.957 210.106 260.676 210.04 260.43 209.9C260.231 209.775 260.082 209.584 260.01 209.36C259.925 209.102 259.884 208.832 259.89 208.56V206.91C259.884 206.632 259.924 206.355 260.01 206.09C260.084 205.87 260.232 205.683 260.43 205.56C260.676 205.42 260.957 205.354 261.24 205.37C261.506 205.354 261.772 205.409 262.01 205.53C262.193 205.636 262.335 205.802 262.41 206C262.494 206.224 262.535 206.461 262.53 206.7V207.09H261.62V206.65C261.625 206.553 261.625 206.457 261.62 206.36C261.615 206.276 261.583 206.195 261.53 206.13C261.494 206.096 261.451 206.071 261.405 206.055C261.358 206.04 261.309 206.035 261.26 206.04C261.211 206.036 261.162 206.043 261.116 206.058C261.069 206.073 261.027 206.098 260.99 206.13C260.93 206.197 260.892 206.281 260.88 206.37C260.874 206.477 260.874 206.583 260.88 206.69V208.78C260.869 208.893 260.869 209.007 260.88 209.12C260.895 209.204 260.937 209.281 261 209.34C261.07 209.396 261.159 209.425 261.25 209.42C261.297 209.425 261.345 209.419 261.39 209.403C261.434 209.388 261.475 209.363 261.51 209.33C261.562 209.26 261.597 209.177 261.61 209.09C261.615 208.987 261.615 208.883 261.61 208.78V208.33H262.52V208.71C262.525 208.952 262.484 209.193 262.4 209.42C262.333 209.625 262.194 209.799 262.01 209.91C261.775 210.041 261.508 210.104 261.24 210.09V210.09Z" fill="#263238"/>
<path d="M254.18 210V205.4H255.64C255.876 205.391 256.11 205.442 256.32 205.55C256.49 205.66 256.625 205.816 256.71 206C256.795 206.23 256.836 206.475 256.83 206.72C256.846 206.986 256.791 207.252 256.67 207.49C256.565 207.671 256.403 207.811 256.21 207.89C255.996 207.97 255.768 208.007 255.54 208H255.12V210H254.18ZM255.12 207.35H255.45C255.557 207.353 255.664 207.329 255.76 207.28C255.8 207.26 255.834 207.23 255.86 207.193C255.886 207.157 255.903 207.114 255.91 207.07C255.928 206.951 255.928 206.829 255.91 206.71C255.922 206.594 255.922 206.476 255.91 206.36C255.902 206.316 255.886 206.274 255.862 206.236C255.838 206.198 255.806 206.166 255.77 206.14C255.669 206.075 255.549 206.047 255.43 206.06H255.11L255.12 207.35Z" fill="#263238"/>
<path d="M267 210V206.1H266.29V205.4H268.64V206.1H268V210H267Z" fill="#263238"/>
<path d="M227.1 197.07V191.74H229.42V192.49H228.19V193.91H229.14V194.66H228.19V196.33H229.44V197.07H227.1Z" fill="#263238"/>
<path d="M233.81 197.07V191.74H236.06V192.48H234.9V193.92H235.9V194.68H234.9V197.07H233.81Z" fill="#263238"/>
<path d="M240.82 197.07V191.74H242.51C242.782 191.731 243.052 191.797 243.29 191.93C243.492 192.051 243.649 192.233 243.74 192.45C243.847 192.713 243.898 192.996 243.89 193.28C243.908 193.588 243.842 193.896 243.7 194.17C243.58 194.379 243.393 194.541 243.17 194.63C242.924 194.722 242.662 194.766 242.4 194.76H241.91V197.07H240.82ZM241.91 194H242.29C242.415 194.007 242.539 193.979 242.65 193.92C242.695 193.895 242.734 193.86 242.765 193.819C242.796 193.778 242.818 193.73 242.83 193.68C242.848 193.541 242.848 193.399 242.83 193.26C242.842 193.127 242.842 192.993 242.83 192.86C242.808 192.758 242.751 192.666 242.67 192.6C242.548 192.532 242.409 192.501 242.27 192.51H241.9L241.91 194Z" fill="#263238"/>
<path d="M250.55 197.14C250.23 197.156 249.912 197.083 249.63 196.93C249.403 196.791 249.231 196.58 249.14 196.33C249.033 196.028 248.982 195.71 248.99 195.39V193.39C248.982 193.07 249.033 192.751 249.14 192.45C249.233 192.204 249.406 191.997 249.63 191.86C249.914 191.715 250.231 191.646 250.55 191.66C250.877 191.643 251.202 191.715 251.49 191.87C251.721 191.999 251.896 192.209 251.98 192.46C252.088 192.758 252.139 193.073 252.13 193.39V195.39C252.138 195.71 252.087 196.028 251.98 196.33C251.893 196.582 251.72 196.795 251.49 196.93C251.202 197.085 250.877 197.157 250.55 197.14V197.14ZM250.55 196.36C250.606 196.366 250.662 196.36 250.716 196.343C250.769 196.326 250.818 196.297 250.86 196.26C250.931 196.189 250.98 196.099 251 196C251.011 195.884 251.011 195.766 251 195.65V193.13C251.01 193.017 251.01 192.903 251 192.79C250.978 192.695 250.93 192.608 250.86 192.54C250.773 192.468 250.662 192.432 250.55 192.44C250.498 192.437 250.445 192.444 250.395 192.461C250.345 192.478 250.299 192.505 250.26 192.54C250.19 192.606 250.144 192.694 250.13 192.79C250.12 192.903 250.12 193.017 250.13 193.13V195.65C250.119 195.766 250.119 195.884 250.13 196C250.149 196.094 250.194 196.181 250.26 196.25C250.299 196.287 250.344 196.315 250.394 196.334C250.444 196.353 250.497 196.362 250.55 196.36V196.36Z" fill="#263238"/>
<path d="M256 197.07V192.55H255.18V191.74H257.9V192.55H257.09V197.07H256Z" fill="#263238"/>
<path d="M263 197.07V191.74H265.32V192.49H264.08V193.91H265V194.66H264.05V196.33H265.3V197.07H263Z" fill="#263238"/>
<path d="M271.15 197.14C270.825 197.158 270.502 197.081 270.22 196.92C269.994 196.772 269.822 196.554 269.73 196.3C269.637 195.999 269.593 195.685 269.6 195.37V193.46C269.587 193.122 269.631 192.783 269.73 192.46C269.82 192.207 269.993 191.992 270.22 191.85C270.502 191.689 270.825 191.612 271.15 191.63C271.462 191.612 271.772 191.677 272.05 191.82C272.261 191.941 272.424 192.132 272.51 192.36C272.607 192.619 272.654 192.893 272.65 193.17V193.61H271.59V193.11C271.59 192.99 271.59 192.88 271.59 192.77C271.58 192.674 271.542 192.584 271.48 192.51C271.439 192.47 271.391 192.44 271.337 192.421C271.284 192.402 271.227 192.395 271.17 192.4C271.113 192.395 271.057 192.403 271.003 192.422C270.95 192.441 270.901 192.471 270.86 192.51C270.79 192.584 270.744 192.679 270.73 192.78C270.719 192.903 270.719 193.027 270.73 193.15V195.57C270.718 195.7 270.718 195.83 270.73 195.96C270.743 196.061 270.793 196.154 270.87 196.22C270.952 196.285 271.055 196.317 271.16 196.31C271.214 196.316 271.269 196.31 271.321 196.293C271.373 196.275 271.42 196.247 271.46 196.21C271.526 196.131 271.564 196.033 271.57 195.93C271.581 195.81 271.581 195.69 271.57 195.57V195.05H272.63V195.49C272.632 195.772 272.588 196.052 272.5 196.32C272.417 196.555 272.254 196.753 272.04 196.88C271.774 197.049 271.465 197.14 271.15 197.14V197.14Z" fill="#263238"/>
<path d="M236 188.74V182.63H237.25V187.9H238.68V188.74H236Z" fill="#263238"/>
<path d="M245 188.83C244.63 188.85 244.262 188.763 243.94 188.58C243.679 188.422 243.481 188.178 243.38 187.89C243.256 187.547 243.198 187.184 243.21 186.82V184.54C243.198 184.176 243.256 183.813 243.38 183.47C243.482 183.185 243.68 182.945 243.94 182.79C244.265 182.617 244.632 182.538 245 182.56C245.374 182.537 245.748 182.617 246.08 182.79C246.338 182.949 246.538 183.188 246.65 183.47C246.766 183.815 246.82 184.177 246.81 184.54V186.82C246.82 187.183 246.766 187.546 246.65 187.89C246.541 188.177 246.341 188.419 246.08 188.58C245.751 188.763 245.376 188.85 245 188.83ZM245 187.93C245.129 187.939 245.258 187.9 245.36 187.82C245.437 187.736 245.489 187.632 245.51 187.52C245.521 187.39 245.521 187.26 245.51 187.13V184.24C245.521 184.11 245.521 183.98 245.51 183.85C245.487 183.742 245.435 183.642 245.36 183.56C245.31 183.519 245.253 183.488 245.191 183.469C245.129 183.45 245.064 183.444 245 183.45C244.939 183.444 244.877 183.451 244.819 183.47C244.76 183.489 244.706 183.519 244.66 183.56C244.585 183.642 244.533 183.742 244.51 183.85C244.499 183.98 244.499 184.11 244.51 184.24V187.13C244.499 187.26 244.499 187.39 244.51 187.52C244.515 187.579 244.532 187.637 244.559 187.69C244.587 187.742 244.624 187.789 244.67 187.827C244.715 187.865 244.768 187.894 244.825 187.912C244.881 187.929 244.941 187.936 245 187.93Z" fill="#263238"/>
<path d="M251.74 188.74V182.63H253.68C253.993 182.616 254.305 182.689 254.58 182.84C254.813 182.979 254.995 183.19 255.1 183.44C255.219 183.742 255.277 184.065 255.27 184.39C255.28 184.736 255.204 185.08 255.05 185.39C254.91 185.626 254.695 185.809 254.44 185.91C254.158 186.014 253.86 186.065 253.56 186.06H253V188.71L251.74 188.74ZM252.99 185.22H253.43C253.575 185.228 253.72 185.197 253.85 185.13C253.945 185.065 254.015 184.97 254.05 184.86C254.085 184.699 254.102 184.535 254.1 184.37C254.117 184.217 254.117 184.063 254.1 183.91C254.077 183.789 254.009 183.682 253.91 183.61C253.774 183.53 253.617 183.495 253.46 183.51H253L252.99 185.22Z" fill="#263238"/>
<path d="M260.59 188.74V188L262.15 183.51H260.67V182.66H263.39V183.34L261.79 187.93H263.4V188.77L260.59 188.74Z" fill="#263238"/>
<path d="M269.22 188.74V182.63H270.72C271.133 182.613 271.544 182.681 271.93 182.83C272.068 182.89 272.193 182.976 272.298 183.084C272.402 183.192 272.485 183.32 272.54 183.46C272.672 183.808 272.733 184.178 272.72 184.55V186.77C272.731 187.151 272.67 187.532 272.54 187.89C272.427 188.174 272.213 188.405 271.94 188.54C271.561 188.688 271.156 188.756 270.75 188.74H269.22ZM270.47 187.88H270.73C270.904 187.893 271.077 187.854 271.23 187.77C271.327 187.685 271.391 187.568 271.41 187.44C271.427 187.264 271.427 187.086 271.41 186.91V184.39C271.412 184.219 271.395 184.048 271.36 183.88C271.348 183.822 271.324 183.767 271.29 183.719C271.255 183.67 271.211 183.63 271.16 183.6C271.011 183.527 270.845 183.496 270.68 183.51H270.43L270.47 187.88Z" fill="#263238"/>
<path d="M228.68 173.55V164.45H230.91C231.524 164.422 232.137 164.524 232.71 164.75C233.126 164.929 233.456 165.262 233.63 165.68C233.827 166.197 233.919 166.747 233.9 167.3V170.62C233.918 171.186 233.827 171.749 233.63 172.28C233.47 172.72 233.143 173.079 232.72 173.28C232.161 173.516 231.556 173.622 230.95 173.59L228.68 173.55ZM230.53 172.26H230.93C231.184 172.284 231.439 172.228 231.66 172.1C231.737 172.041 231.801 171.967 231.849 171.883C231.897 171.799 231.928 171.706 231.94 171.61C231.984 171.349 232.004 171.085 232 170.82V167.07C232.006 166.814 231.979 166.559 231.92 166.31C231.902 166.224 231.867 166.143 231.818 166.07C231.768 165.998 231.704 165.937 231.63 165.89C231.409 165.782 231.165 165.734 230.92 165.75H230.53V172.26Z" fill="#263238"/>
<path d="M239.3 173.55V164.45H243.14V165.71H241.14V168.17H242.83V169.46H241.14V173.55H239.3Z" fill="#263238"/>
<path d="M251.12 173.68C250.56 173.708 250.004 173.572 249.52 173.29C249.129 173.045 248.838 172.67 248.7 172.23C248.531 171.721 248.45 171.186 248.46 170.65V167.38C248.447 166.83 248.528 166.282 248.7 165.76C248.846 165.34 249.137 164.986 249.52 164.76C250.008 164.49 250.562 164.362 251.12 164.39C251.652 164.358 252.184 164.468 252.66 164.71C253.018 164.918 253.293 165.243 253.44 165.63C253.604 166.074 253.682 166.546 253.67 167.02V167.78H251.88V166.93C251.891 166.733 251.891 166.536 251.88 166.34C251.87 166.175 251.807 166.017 251.7 165.89C251.63 165.823 251.546 165.772 251.455 165.741C251.363 165.71 251.266 165.699 251.17 165.71C251.072 165.702 250.974 165.714 250.881 165.745C250.789 165.776 250.703 165.825 250.63 165.89C250.515 166.023 250.442 166.186 250.42 166.36C250.404 166.57 250.404 166.78 250.42 166.99V171.13C250.417 171.355 250.437 171.579 250.48 171.8C250.508 171.967 250.589 172.121 250.71 172.24C250.853 172.347 251.031 172.401 251.21 172.39C251.304 172.399 251.399 172.387 251.489 172.356C251.579 172.325 251.661 172.275 251.73 172.21C251.836 172.078 251.902 171.918 251.92 171.75C251.93 171.543 251.93 171.337 251.92 171.13V170.24H253.71V170.99C253.72 171.473 253.646 171.953 253.49 172.41C253.353 172.823 253.077 173.176 252.71 173.41C252.218 173.654 251.665 173.748 251.12 173.68V173.68Z" fill="#263238"/>
<path d="M258.48 173.55V172.41L260.79 165.71H258.59V164.45H262.65V165.45L260.26 172.28H262.66V173.54L258.48 173.55Z" fill="#263238"/>
<path d="M268.34 173.55V164.45H271.23C271.696 164.429 272.16 164.536 272.57 164.76C272.916 164.966 273.186 165.278 273.34 165.65C273.52 166.101 273.605 166.585 273.59 167.07C273.617 167.6 273.503 168.128 273.26 168.6C273.05 168.953 272.731 169.227 272.35 169.38C271.932 169.538 271.487 169.616 271.04 169.61H270.2V173.55H268.34ZM270.2 168.3H270.85C271.065 168.315 271.279 168.27 271.47 168.17C271.546 168.127 271.612 168.068 271.664 167.997C271.715 167.927 271.752 167.846 271.77 167.76C271.828 167.525 271.855 167.283 271.85 167.04C271.853 166.809 271.833 166.577 271.79 166.35C271.756 166.173 271.656 166.016 271.51 165.91C271.31 165.785 271.075 165.729 270.84 165.75H270.2V168.3Z" fill="#263238"/>
<path d="M232.56 158.46V147.56H237.31V149.09H234.78V152H236.73V153.54H234.78V157H237.34V158.51L232.56 158.46Z" fill="#263238"/>
<path d="M246.6 158.61C245.929 158.647 245.262 158.487 244.68 158.15C244.211 157.854 243.858 157.406 243.68 156.88C243.481 156.27 243.386 155.631 243.4 154.99V151.07C243.384 150.412 243.479 149.757 243.68 149.13C243.855 148.606 244.209 148.159 244.68 147.87C245.266 147.545 245.931 147.393 246.6 147.43C247.234 147.397 247.865 147.532 248.43 147.82C248.866 148.064 249.202 148.453 249.38 148.92C249.569 149.449 249.661 150.008 249.65 150.57V151.49H247.5V150.49C247.516 150.254 247.516 150.017 247.5 149.78C247.482 149.582 247.405 149.394 247.28 149.24C247.196 149.162 247.097 149.103 246.988 149.067C246.879 149.03 246.764 149.018 246.65 149.03C246.534 149.021 246.417 149.036 246.307 149.074C246.197 149.112 246.096 149.172 246.01 149.25C245.867 149.405 245.776 149.601 245.75 149.81C245.712 150.062 245.695 150.316 245.7 150.57V155.52C245.695 155.788 245.719 156.057 245.77 156.32C245.807 156.521 245.905 156.706 246.05 156.85C246.222 156.98 246.435 157.044 246.65 157.03C246.761 157.042 246.873 157.029 246.979 156.993C247.084 156.957 247.18 156.898 247.26 156.82C247.39 156.66 247.47 156.465 247.49 156.26C247.523 156.015 247.539 155.768 247.54 155.52V154.46H249.69V155.36C249.701 155.935 249.609 156.507 249.42 157.05C249.249 157.528 248.921 157.933 248.49 158.2C247.915 158.522 247.257 158.665 246.6 158.61V158.61Z" fill="#263238"/>
<path d="M256.47 158.46V147.56H261.07V149.07H258.69V152H260.69V153.55H258.69V158.45L256.47 158.46Z" fill="#263238"/>
<path d="M267.29 158.46V147.56H270C270.737 147.527 271.473 147.65 272.16 147.92C272.656 148.134 273.051 148.532 273.26 149.03C273.491 149.653 273.6 150.315 273.58 150.98V154.98C273.602 155.661 273.493 156.34 273.26 156.98C273.053 157.486 272.664 157.896 272.17 158.13C271.5 158.41 270.775 158.537 270.05 158.5L267.29 158.46ZM269.51 156.91H270C270.306 156.936 270.612 156.87 270.88 156.72C271.057 156.573 271.175 156.367 271.21 156.14C271.258 155.826 271.281 155.508 271.28 155.19V150.7C271.288 150.394 271.257 150.088 271.19 149.79C271.143 149.581 271.018 149.398 270.84 149.28C270.572 149.152 270.276 149.097 269.98 149.12H269.53L269.51 156.91Z" fill="#263238"/>
<path d="M234.57 142.86V130.78H238.4C239.02 130.751 239.635 130.892 240.18 131.19C240.634 131.463 240.985 131.877 241.18 132.37C241.417 132.968 241.533 133.607 241.52 134.25C241.549 134.943 241.398 135.633 241.08 136.25C240.794 136.704 240.37 137.055 239.87 137.25C239.314 137.46 238.724 137.562 238.13 137.55H237V142.79L234.57 142.86ZM237.03 135.86H237.9C238.183 135.874 238.465 135.815 238.72 135.69C238.819 135.631 238.906 135.553 238.975 135.461C239.043 135.368 239.093 135.262 239.12 135.15C239.199 134.823 239.232 134.486 239.22 134.15C239.229 133.841 239.202 133.532 239.14 133.23C239.094 132.997 238.966 132.788 238.78 132.64C238.506 132.487 238.193 132.418 237.88 132.44H237L237.03 135.86Z" fill="#263238"/>
<path d="M247.91 142.86V130.78H253.18V132.48H250.37V135.68H252.53V137.4H250.37V141.19H253.21V142.86H247.91Z" fill="#263238"/>
<path d="M259.21 142.86V130.78H262.21C263.028 130.743 263.845 130.876 264.61 131.17C265.158 131.412 265.591 131.857 265.82 132.41C266.082 133.096 266.204 133.827 266.18 134.56V139C266.205 139.753 266.082 140.504 265.82 141.21C265.594 141.772 265.166 142.229 264.62 142.49C263.876 142.797 263.074 142.937 262.27 142.9L259.21 142.86ZM261.67 141.14H262.19C262.537 141.173 262.886 141.1 263.19 140.93C263.393 140.769 263.525 140.536 263.56 140.28C263.613 139.933 263.636 139.581 263.63 139.23V134.23C263.639 133.894 263.605 133.558 263.53 133.23C263.507 133.116 263.461 133.008 263.396 132.912C263.331 132.816 263.247 132.734 263.15 132.67C262.852 132.537 262.526 132.478 262.2 132.5H261.69L261.67 141.14Z" fill="#263238"/>
<path d="M258 126.28V124.76L261.07 115.87H258.15V114.2H263.53V115.54L260.37 124.61H263.55V126.28H258Z" fill="#263238"/>
<path d="M252.39 108.87V92.6501H257.53C258.361 92.6187 259.186 92.8085 259.92 93.2001C260.534 93.5718 261.013 94.1285 261.29 94.7901C261.61 95.5943 261.763 96.455 261.74 97.3201C261.789 98.2631 261.585 99.202 261.15 100.04C260.781 100.672 260.21 101.161 259.53 101.43C258.783 101.714 257.989 101.853 257.19 101.84H255.69V108.84L252.39 108.87ZM255.69 99.5201H256.85C257.234 99.5398 257.616 99.4606 257.96 99.2901C258.093 99.21 258.208 99.1041 258.299 98.9787C258.39 98.8533 258.455 98.711 258.49 98.5601C258.596 98.142 258.643 97.7112 258.63 97.2801C258.641 96.8639 258.604 96.4478 258.52 96.0401C258.465 95.7232 258.29 95.4399 258.03 95.2501C257.668 95.0377 257.249 94.9401 256.83 94.9701H255.69V99.5201Z" fill="#263238"/>
<path d="M275.25 176.71H214.21V179.27H275.25V176.71Z" fill="#263238"/>
<path d="M275.25 200.64H214.21V203.2H275.25V200.64Z" fill="#263238"/>
<path d="M473.67 290.15C477.9 273.55 476.24 259.9 469.29 258.43C461.49 256.77 450.01 271.07 443.64 290.35C437.82 307.98 438.29 323.66 444.37 327.49L415.37 435.15L464.62 434.15L481.11 301C481.497 298.583 480.941 296.109 479.556 294.09C478.172 292.07 476.065 290.66 473.67 290.15V290.15Z" fill="#263238" stroke="#263238" stroke-linecap="round" stroke-linejoin="round"/>
<path d="M323 239.89C323 239.89 316 249.65 317.15 253.18C318.56 257.35 316.35 263.69 312.64 265.18C310.1 266.18 308.13 267.04 308.39 269.18C308.65 271.32 312.11 273.7 312.11 273.7C312.11 273.7 314.23 284.31 314.76 288.03C315.29 291.75 316.35 292.29 320.34 292.82C322.629 293.14 324.944 293.227 327.25 293.08H330.18L341.61 309.56L348.52 301.56C348.52 301.56 341.61 288.8 344.8 274.98C347.99 261.16 355.16 258.98 347.99 249.46C340.82 239.94 328.54 235.9 323 239.89Z" fill="white" stroke="#263238" stroke-linecap="round" stroke-linejoin="round"/>
<path d="M322.1 261.9C322.1 263.26 321.63 264.37 321.05 264.37C320.47 264.37 320 263.26 320 261.9C320 260.54 320.47 259.44 321.05 259.44C321.63 259.44 322.1 260.54 322.1 261.9Z" fill="#263238"/>
<path d="M315.52 277.51C315.52 277.51 320.9 277.96 323.89 274.51" stroke="#263238" stroke-linecap="round" stroke-linejoin="round"/>
<path d="M319.85 255C319.85 255 322.1 251.57 325.23 254.85" stroke="#263238" stroke-linecap="round" stroke-linejoin="round"/>
<path d="M338.3 385.29C336.161 389.04 333.681 392.586 330.89 395.88C328.548 398.77 326.882 402.149 326.017 405.767C325.152 409.386 325.109 413.152 325.89 416.79C327.48 423.14 335.42 425.53 340.19 426.32C344.96 427.11 348.66 428.97 349.72 418.91C350.78 408.85 346.8 392.7 343.36 389.26C339.92 385.82 338.3 385.29 338.3 385.29Z" fill="white" stroke="#263238" stroke-linecap="round" stroke-linejoin="round"/>
<path d="M341 410.44C340.6 414.28 340.81 428.13 340.93 434.44H412.18C412.81 431.95 412.88 427.92 410.36 422.05C405.59 410.93 396.66 337.81 391.83 323.3C387.33 309.8 385.77 308.57 376.47 302.92C362.97 294.71 347.62 306.09 345.24 310.33C343.66 313.328 342.567 316.558 342 319.9C342 319.9 336.71 346.64 333.79 359.35C330.87 372.06 335.12 378.41 338.29 385.29C341.46 392.17 341.48 405.41 341 410.44Z" fill="#0987FF" stroke="#263238" stroke-linecap="round" stroke-linejoin="round"/>
<path d="M325.62 229.79C325.62 229.79 317.38 229.26 322.96 239.89C328.54 250.52 332.26 246.27 336.25 250.52C340.24 254.77 342.63 264.34 338.38 270.46C334.13 276.58 330.38 277.1 336.25 284.81C342.12 292.52 343.69 294.38 341.83 298.64C339.97 302.9 330.4 305.28 333.83 312.72C337.26 320.16 345.26 319.64 342.83 321.72C340.4 323.8 335.13 322.52 337.78 326.51C340.43 330.5 352.4 330.23 351.08 327.3C349.76 324.37 347.62 325.18 348.42 323.58C349.22 321.98 346.56 313.48 355.86 308.96C365.16 304.44 370.75 303.11 377.39 309.49C384.03 315.87 385.63 320.92 392.28 319.6C398.93 318.28 399.46 313.48 396.28 308.96C393.1 304.44 392.55 306.84 395.21 299.96C397.87 293.08 404.78 289.86 395.74 283.48C386.7 277.1 380.86 280.29 381.12 274.71C381.38 269.13 386.22 250 376.92 238C367.62 226 351.67 222.31 343.69 223.11C335.71 223.91 326.15 226.07 325.62 229.79Z" fill="#263238" stroke="#263238" stroke-linecap="round" stroke-linejoin="round"/>
<path d="M353.92 316.46C350.844 323.161 349.655 330.573 350.48 337.9C351.8 350.34 358.69 393.23 358.69 393.23C358.69 393.23 354.69 394.82 355.78 397.47C356.87 400.12 357.63 401.7 357.89 402.47C358.15 403.24 347.3 406.17 343.07 407.23C338.84 408.29 334.86 413.32 335.92 418.61C336.98 423.9 344.66 426.29 349.92 427.88C355.18 429.47 384.07 429.47 390.92 427.09C397.77 424.71 401.25 415.44 397.01 402.47C392.77 389.5 386.42 327.55 386.42 327.55" fill="#0987FF"/>
<path d="M353.92 316.46C350.844 323.161 349.655 330.573 350.48 337.9C351.8 350.34 358.69 393.23 358.69 393.23C358.69 393.23 354.69 394.82 355.78 397.47C356.87 400.12 357.63 401.7 357.89 402.47C358.15 403.24 347.3 406.17 343.07 407.23C338.84 408.29 334.86 413.32 335.92 418.61C336.98 423.9 344.66 426.29 349.92 427.88C355.18 429.47 384.07 429.47 390.92 427.09C397.77 424.71 401.25 415.44 397.01 402.47C392.77 389.5 386.42 327.55 386.42 327.55" stroke="#263238" stroke-linecap="round" stroke-linejoin="round"/>
<path d="M357.89 402.5C357.89 402.5 374 411 383.31 412" stroke="#263238" stroke-linecap="round" stroke-linejoin="round"/>
<path d="M361.86 401.44C361.86 401.44 371.39 403.02 378.54 402.5" stroke="#263238" stroke-linecap="round" stroke-linejoin="round"/>
<path d="M335.39 400.11C335.39 400.11 330.63 403.29 329.57 405.94C328.51 408.59 329.57 413.88 329.3 417.85C329.03 421.82 330.89 423.14 337.24 426.32C343.59 429.5 348.63 430.32 347.57 427.91C346.51 425.5 344.13 425.53 340.69 422.91C337.25 420.29 336.69 414.17 338.83 412.32C340.97 410.47 339.63 408.32 345.45 408.08C351.27 407.84 354.45 405.97 353.92 404.08C353.39 402.19 351.01 403.55 348.36 403.29C345.71 403.03 342.27 398.79 335.39 400.11Z" fill="white" stroke="#263238" stroke-linecap="round" stroke-linejoin="round"/>
<path d="M301.23 370.66H276.73C270.8 370.676 265.102 368.355 260.87 364.2L240.49 344.3C238.416 342.267 236.767 339.842 235.639 337.165C234.511 334.489 233.927 331.614 233.92 328.71V289.78C233.92 288.515 234.423 287.302 235.318 286.407C236.212 285.513 237.425 285.01 238.69 285.01C239.955 285.01 241.169 285.513 242.063 286.407C242.958 287.302 243.46 288.515 243.46 289.78V328.71C243.465 330.342 243.794 331.956 244.427 333.46C245.061 334.964 245.986 336.327 247.15 337.47L267.53 357.38C269.984 359.792 273.29 361.14 276.73 361.13H301.23C301.875 361.1 302.518 361.202 303.122 361.428C303.726 361.654 304.277 362 304.744 362.446C305.21 362.891 305.581 363.426 305.834 364.019C306.088 364.612 306.219 365.25 306.219 365.895C306.219 366.54 306.088 367.178 305.834 367.771C305.581 368.364 305.21 368.899 304.744 369.344C304.277 369.79 303.726 370.136 303.122 370.362C302.518 370.588 301.875 370.69 301.23 370.66V370.66Z" fill="#263238"/>
<path d="M285.51 272.2L257.63 275.63V252.76L285.51 256.19V272.2Z" fill="#263238"/>
<path d="M280.86 271.91L285.51 271.34V255.33L280.86 254.75V271.91Z" fill="#263238"/>
<path d="M253.69 251.93H225.38V276.36H253.69V251.93Z" fill="#263238"/>
<path d="M226.34 253.07H195.89V275.21H226.34V253.07Z" fill="#263238"/>
<path d="M218.41 245.36H190.43V257.2H218.41V245.36Z" fill="#263238"/>
<path d="M255.64 279.69C254.977 279.69 254.341 279.427 253.872 278.958C253.404 278.489 253.14 277.853 253.14 277.19V250.54C253.14 249.877 253.404 249.241 253.872 248.772C254.341 248.303 254.977 248.04 255.64 248.04V248.04C256.303 248.04 256.939 248.303 257.408 248.772C257.877 249.241 258.14 249.877 258.14 250.54V277.19C258.14 277.853 257.877 278.489 257.408 278.958C256.939 279.427 256.303 279.69 255.64 279.69Z" fill="#263238"/>
<path d="M250.07 275.84H227.67V287.63H250.07V275.84Z" fill="#263238"/>
<path d="M245.34 287.27H231.88V292.27H245.34V287.27Z" fill="#263238"/>
<path d="M312.31 383.41H294.8V349.81L300.4 347.66C302.763 346.752 305.387 346.806 307.71 347.81L312.31 349.81V383.41Z" fill="#263238"/>
<path d="M307.12 358C307.12 357.276 306.906 356.568 306.503 355.967C306.101 355.365 305.53 354.896 304.861 354.619C304.192 354.342 303.456 354.269 302.746 354.41C302.036 354.552 301.384 354.9 300.872 355.412C300.36 355.924 300.012 356.576 299.871 357.286C299.729 357.996 299.802 358.732 300.079 359.401C300.356 360.069 300.825 360.641 301.427 361.043C302.029 361.445 302.736 361.66 303.46 361.66C303.941 361.66 304.417 361.565 304.861 361.381C305.305 361.197 305.708 360.928 306.048 360.588C306.388 360.248 306.658 359.845 306.842 359.401C307.026 358.957 307.12 358.481 307.12 358V358Z" fill="white" stroke="#263238" stroke-linecap="round" stroke-linejoin="round"/>
<path d="M303.46 377.06C305.482 377.06 307.12 375.421 307.12 373.4C307.12 371.379 305.482 369.74 303.46 369.74C301.439 369.74 299.8 371.379 299.8 373.4C299.8 375.421 301.439 377.06 303.46 377.06Z" fill="white" stroke="#263238" stroke-linecap="round" stroke-linejoin="round"/>
<path d="M312.67 383.41H294.8V391.27H312.67V383.41Z" fill="white" stroke="#263238" stroke-linecap="round" stroke-linejoin="round"/>
<path d="M312.67 390.91H294.8V413.8H312.67V390.91Z" fill="#263238"/>
<path d="M314.1 390.91H293.37V402.35H314.1V390.91Z" fill="#263238"/>
<path d="M210.037 410.093L199.207 420.486L202.427 423.841L213.257 413.448L210.037 410.093Z" fill="white" stroke="#263238" stroke-linecap="round" stroke-linejoin="round"/>
<path d="M214.39 409.49H314.45V429.51H192.95L214.39 409.49Z" fill="#263238"/>
<path d="M295.51 396.63L265.85 378.4H248.7V383.41H264.78L296.58 409.85L295.51 396.63Z" fill="#263238"/>
<path d="M260.13 383.76H253.7V391.62H260.13V383.76Z" fill="white" stroke="#263238" stroke-linecap="round" stroke-linejoin="round"/>
<path d="M272.28 391.63H241.55V400.92H272.28V391.63Z" fill="white" stroke="#263238" stroke-linecap="round" stroke-linejoin="round"/>
<path d="M264.42 400.92H249.41V410.21H264.42V400.92Z" fill="white" stroke="#263238" stroke-linecap="round" stroke-linejoin="round"/>
<path d="M224.677 394.202L220.668 395.152L223.343 406.439L227.352 405.489L224.677 394.202Z" fill="white" stroke="#263238" stroke-linecap="round" stroke-linejoin="round"/>
<path d="M222.262 378.963L216.005 380.446L220.784 400.617L227.041 399.135L222.262 378.963Z" fill="white" stroke="#263238" stroke-linecap="round" stroke-linejoin="round"/>
<path d="M234.05 405.56H219.04V410.21H234.05V405.56Z" fill="white" stroke="#263238" stroke-linecap="round" stroke-linejoin="round"/>
<path d="M347.7 238.32H341.61V429.15H347.7V238.32Z" fill="white" stroke="#263238" stroke-linecap="round" stroke-linejoin="round"/>
<path d="M309.45 241.89H289.79V244.03H309.45V241.89Z" fill="white" stroke="#263238" stroke-linecap="round" stroke-linejoin="round"/>
<path d="M309.81 239.75H296.94V246.54H309.81V239.75Z" fill="#263238"/>
<path d="M350.9 243.68H305.16V251.54H350.9V243.68Z" fill="#263238"/>
<path d="M350.9 292.64H319.77V297.93H350.9V292.64Z" fill="#263238"/>
<path d="M285.51 331.23H272.64V355.53H285.51V331.23Z" fill="#263238"/>
<path d="M297.37 312.29H287.22V336.59H297.37V312.29Z" fill="#263238"/>
<path d="M297.03 297.92H287.55V310.23H297.03V297.92Z" fill="#263238"/>
<path d="M297 290.57H287.51V269.05L293.92 263.26C294.184 263.02 294.512 262.861 294.864 262.803C295.216 262.746 295.577 262.792 295.903 262.936C296.23 263.08 296.507 263.316 296.702 263.615C296.897 263.914 297 264.263 297 264.62V290.57Z" fill="#263238"/>
<path d="M297.03 291.48H287.55V298.07H297.03V291.48Z" fill="white" stroke="#263238" stroke-linecap="round" stroke-linejoin="round"/>
<path d="M298.55 308.08H286.05V315.78H298.55V308.08Z" fill="white" stroke="#263238" stroke-linecap="round" stroke-linejoin="round"/>
<path d="M271.28 312.29H261.13V336.59H271.28V312.29Z" fill="#263238"/>
<path d="M272.46 318.09H259.96V325.79H272.46V318.09Z" fill="white" stroke="#263238" stroke-linecap="round" stroke-linejoin="round"/>
<path d="M258.35 335.52H299.09L290.94 346.6H264.87L258.35 335.52Z" fill="#263238"/>
<path d="M279.79 344.18C281.812 344.18 283.45 342.541 283.45 340.52C283.45 338.499 281.812 336.86 279.79 336.86C277.769 336.86 276.13 338.499 276.13 340.52C276.13 342.541 277.769 344.18 279.79 344.18Z" fill="white" stroke="#263238" stroke-linecap="round" stroke-linejoin="round"/>
<path d="M295.15 354.82H278V358.04H295.15V354.82Z" fill="#263238"/>
<path d="M276.57 299.43H254.77V313.01H276.57V299.43Z" fill="#263238"/>
<path d="M272.11 294.42H259.24V299.78H272.11V294.42Z" fill="#263238"/>
<path d="M280.86 254.75L274.43 244.39H267.28V248.68H273L274.07 255.47L280.86 257.61V254.75Z" fill="#263238"/>
<path d="M273 237.96H269.78V245.46H273V237.96Z" fill="#263238"/>
<path d="M284.65 232.01H281V252.12H284.65V232.01Z" fill="#263238"/>
<path d="M229.4 241.89H206.17V240.1H203.67V245.46H206.17V244.03H229.4V241.89Z" fill="white" stroke="#263238" stroke-linecap="round" stroke-linejoin="round"/>
<path d="M280.86 240.1H229.04V246.18H280.86V240.1Z" fill="#263238"/>
<path d="M350.15 412.64C350.15 411.637 349.853 410.657 349.296 409.823C348.739 408.99 347.947 408.34 347.02 407.956C346.094 407.572 345.075 407.472 344.091 407.667C343.108 407.863 342.204 408.346 341.495 409.055C340.786 409.764 340.303 410.667 340.108 411.651C339.912 412.634 340.012 413.654 340.396 414.58C340.78 415.507 341.43 416.299 342.263 416.856C343.097 417.413 344.077 417.71 345.08 417.71C346.425 417.71 347.714 417.176 348.665 416.225C349.616 415.274 350.15 413.985 350.15 412.64V412.64Z" fill="white" stroke="#263238" stroke-linecap="round" stroke-linejoin="round"/>
<path d="M282.59 406.51H315.19C318.108 406.51 320.905 407.669 322.968 409.732C325.031 411.795 326.19 414.593 326.19 417.51V434.51H271.62V417.51C271.62 414.598 272.775 411.804 274.831 409.742C276.888 407.68 279.678 406.518 282.59 406.51V406.51Z" fill="white" stroke="#263238" stroke-linecap="round" stroke-linejoin="round"/>
<path d="M306.67 428.63H191.03V434.48H306.67V428.63Z" fill="white" stroke="#263238" stroke-linecap="round" stroke-linejoin="round"/>
<path d="M352.88 422.78H258.89V434.48H352.88V422.78Z" fill="white" stroke="#263238" stroke-linecap="round" stroke-linejoin="round"/>
<path d="M202 275.22L198.78 310.38L216 314.09L214.94 301.38C214.94 301.38 219.44 296.38 219.94 293.17C220.747 288.626 221.188 284.025 221.26 279.41C221.26 278.09 221.26 276.65 221.26 275.22H202Z" fill="white" stroke="#263238" stroke-linecap="round" stroke-linejoin="round"/>
<path d="M71.9999 382.38L69.9399 434.48H180C179.11 424.18 177.34 403.48 176.57 393.23C175.51 379.23 174.98 374.17 174.98 374.17C174.98 374.17 196.42 383.96 201.19 384.23C205.96 384.5 210.19 379.23 212.04 369.4C213.89 359.57 221.83 317.78 221.83 316.72C221.83 315.66 213.36 310.64 213.36 310.64L202.77 301.37L188.21 329.17C188.21 329.17 187.15 324.17 178.68 309.58C170.21 294.99 164.39 290.52 158.56 287.07C152.73 283.62 149.83 282.31 149.83 282.31L123.09 258.75C123.09 258.75 100.09 253.19 98.7399 254.51C97.3899 255.83 96.6199 264.57 96.6199 264.57C96.6199 264.57 69.3499 293.16 64.3199 301.11C59.2899 309.06 59.3199 318.58 59.8199 322.55C60.3199 326.52 71.9999 382.38 71.9999 382.38Z" fill="white" stroke="#263238" stroke-linecap="round" stroke-linejoin="round"/>
<path d="M110.37 268.81C110.37 268.81 98.4599 259.54 99.5199 259.01C100.58 258.48 121.76 260.6 121.76 260.6L110.37 268.81Z" fill="#263238" stroke="#263238" stroke-linecap="round" stroke-linejoin="round"/>
<path d="M89.0899 414C87.6499 416.53 86.3299 418.74 85.1699 420.51" stroke="#263238" stroke-linecap="round" stroke-linejoin="round"/>
<path d="M113.68 365.59C113.68 365.59 101.6 391.07 92.0698 408.59" stroke="#263238" stroke-linecap="round" stroke-linejoin="round"/>
<path d="M140.61 380.91L127.94 406.78" stroke="#263238" stroke-linecap="round" stroke-linejoin="round"/>
<path d="M142.14 305.09L151.67 319.38L154.85 300.85C154.85 300.85 152.99 292.91 149.29 287.08C145.59 281.25 141.08 280.47 140.29 286.56C139.5 292.65 142.14 305.09 142.14 305.09Z" fill="white" stroke="#263238" stroke-linecap="round" stroke-linejoin="round"/>
<path d="M143.99 297.41L146.38 303.23L145.32 309.59L151.67 319.38L153 305.62L151.14 302.7L152.2 295.56L144.79 290L143.99 297.41Z" fill="#0987FF" stroke="#263238" stroke-linecap="round" stroke-linejoin="round"/>
<path d="M146.38 292.38L154.85 300.85C154.85 300.85 156.44 291.32 154.05 287.85C151.66 284.38 150.61 284.41 150.61 284.41L147.17 284.94L146.38 292.38Z" fill="white" stroke="#263238" stroke-linecap="round" stroke-linejoin="round"/>
<path d="M185.82 216.14C185.82 216.14 190.59 237.05 189.53 239.7C188.75 241.448 187.572 242.989 186.09 244.2C186.09 244.2 191.38 257.7 190.32 259.82C189.26 261.94 182.38 261.41 182.38 261.41C182.38 261.41 179.2 273.85 178.38 277.02C177.56 280.19 175.2 280.73 172.03 281.02C168.86 281.31 159.85 278.1 159.85 278.1L147.67 287.1L146.35 292.4C146.35 292.4 144.23 291.87 134.96 279.69C125.69 267.51 121.73 260.37 121.73 260.37L123.32 253.22C123.84 250.84 123.84 228.6 123.84 228.6C123.84 228.6 138.67 214.3 152.96 209.54C167.25 204.78 185.82 216.14 185.82 216.14Z" fill="white" stroke="#263238" stroke-linecap="round" stroke-linejoin="round"/>
<path d="M171.53 224.61C171.53 224.61 172.85 230.96 171.79 232.02C170.73 233.08 161.73 234.93 161.47 236.02C161.21 237.11 162.52 242.11 160.41 242.64C158.3 243.17 155.11 243.43 154.05 242.11C152.99 240.79 151.41 235.49 148.23 232.32C145.05 229.15 138.43 232.58 136.32 238.4C134.21 244.22 134.46 246.88 133.67 250.58C133.305 252.305 132.603 253.942 131.604 255.395C130.605 256.849 129.33 258.091 127.85 259.05C125.2 260.64 123.08 261.17 122.02 256.14C120.96 251.11 120.17 241.58 115.4 232.32C110.63 223.06 125.73 201.87 130.49 198.7C135.25 195.53 151.14 196.05 166.76 199.23C182.38 202.41 194.56 205.84 194.03 210.08C193.5 214.32 184.76 218.02 180.26 220.14C175.76 222.26 171.53 224.61 171.53 224.61Z" fill="#263238" stroke="#263238" stroke-linecap="round" stroke-linejoin="round"/>
<path d="M154.05 242.08C155.11 243.4 158.29 243.14 160.41 242.61C162.53 242.08 161.2 237.05 161.47 235.99C161.74 234.93 170.73 233.08 171.79 231.99C172.33 231.45 172.25 229.54 172.04 227.79C170.708 227.519 169.435 227.015 168.28 226.3C162.285 222.919 155.268 221.828 148.53 223.23C141.94 224.55 137.99 219.72 131.4 229.81C124.81 239.9 126.51 244.16 119.86 244.72C120.95 249.32 121.45 253.36 122.02 256.08C123.08 261.08 125.2 260.58 127.85 258.99C129.33 258.031 130.605 256.789 131.604 255.335C132.603 253.882 133.305 252.245 133.67 250.52C134.46 246.82 134.2 244.17 136.32 238.34C138.44 232.51 145.05 229.08 148.23 232.26C151.41 235.44 153 240.76 154.05 242.08Z" fill="#525252" stroke="#263238" stroke-linecap="round" stroke-linejoin="round"/>
<path d="M176.82 243.14C180.53 239.14 186.09 240.49 186.09 240.49" stroke="#263238" stroke-linecap="round" stroke-linejoin="round"/>
<path d="M182.77 248.08C182.57 249.68 181.77 250.89 180.97 250.8C180.17 250.71 179.68 249.33 179.88 247.73C180.08 246.13 180.88 244.92 181.67 245.01C182.46 245.1 183 246.48 182.77 248.08Z" fill="#263238"/>
<path d="M151.41 241C151.41 241 154.32 237.56 148.23 232.27C142.14 226.98 137.11 231.47 136.05 235.71C134.99 239.95 137.11 244.18 139.23 247.36C140.745 249.776 142.838 251.776 145.32 253.18C146.91 253.97 149.55 253.44 149.55 253.44" fill="white"/>
<path d="M151.41 241C151.41 241 154.32 237.56 148.23 232.27C142.14 226.98 137.11 231.47 136.05 235.71C134.99 239.95 137.11 244.18 139.23 247.36C140.745 249.776 142.838 251.776 145.32 253.18C146.91 253.97 149.55 253.44 149.55 253.44" stroke="#263238" stroke-linecap="round" stroke-linejoin="round"/>
<path d="M159.88 278.08L150.61 270.94V284.44L159.88 278.08Z" fill="#263238" stroke="#263238" stroke-linecap="round" stroke-linejoin="round"/>
<path d="M121.76 260.35L146.38 292.38L142.14 305.09L110.37 268.55L121.76 260.35Z" fill="white" stroke="#263238" stroke-linecap="round" stroke-linejoin="round"/>
<path d="M166.76 317.26C166.76 317.26 165.44 304.82 163.58 299.26" stroke="#263238" stroke-linecap="round" stroke-linejoin="round"/>
<path d="M174.97 373.91L175.76 369.15" stroke="#263238" stroke-linecap="round" stroke-linejoin="round"/>
<path d="M189.53 303C189.53 303 190.32 290.56 187.41 283.41C185.281 277.867 182.806 272.463 180 267.23C177.61 262.99 181.06 256.11 182.38 253.46C183.7 250.81 185.82 246.85 188.73 247.64C191.64 248.43 190.06 250.29 189.26 251.35C188.46 252.41 186.09 256.91 186.09 257.7C186.09 258.49 189.26 264.58 189.26 264.58C189.26 264.58 191.64 259.02 192.44 256.64C193.24 254.26 195.62 248.43 197.44 247.11C199.26 245.79 205.91 249.76 204.59 251.11C203.27 252.46 200.35 252.96 200.35 252.96C200.35 252.96 198.5 258.52 197.97 260.64C197.44 262.76 197.17 263.55 198.76 265.14C200.35 266.73 206.44 251.91 207.76 249.79C209.08 247.67 210.68 246.61 212.76 246.61C214.84 246.61 220.18 248.46 219.38 250.61C218.58 252.76 218.59 251.94 216.47 251.67C215.055 251.565 213.647 251.938 212.47 252.73C212.47 252.73 209.82 260.14 209.82 261.47C209.82 262.8 209.29 266.76 209.29 266.76C209.29 266.76 214.59 261.2 215.91 258.55C217.23 255.9 219.62 249.82 221.2 250.08C222.78 250.34 223.32 252.47 222.79 254.58C222.26 256.69 220.67 261.2 220.15 263.32C219.63 265.44 213.26 273.38 213.26 273.38C213.26 273.38 212.73 285.29 212.2 290.06C211.67 294.83 206.91 298.79 206.38 300.12C205.85 301.45 203.73 310.71 203.73 310.71L189.53 303Z" fill="white" stroke="#263238" stroke-linecap="round" stroke-linejoin="round"/>
<path d="M79.6699 295.29C79.6699 295.29 99.2599 292.64 104.55 296.35C109.84 300.06 113.55 305.09 116.73 308.26C119.91 311.43 125.46 314.88 130.49 319.38C135.52 323.88 138.7 326.26 139.49 329.18C140.28 332.1 141.35 336.85 141.35 336.85L148.49 329.44C148.49 329.44 170.49 316.44 178.67 309.32C186.85 302.2 188.2 299.79 189 299.26C189.8 298.73 186.35 295.26 201.7 306.41C217.05 317.56 219.7 322.82 218.7 324.94C217.7 327.06 194.87 354.85 175.81 369.15C156.75 383.45 150.66 392.71 145.1 392.71C139.54 392.71 124.19 387.15 116.25 380.53C108.31 373.91 96.3899 362.53 81.8299 350.88" fill="white"/>
<path d="M79.6699 295.29C79.6699 295.29 99.2599 292.64 104.55 296.35C109.84 300.06 113.55 305.09 116.73 308.26C119.91 311.43 125.46 314.88 130.49 319.38C135.52 323.88 138.7 326.26 139.49 329.18C140.28 332.1 141.35 336.85 141.35 336.85L148.49 329.44C148.49 329.44 170.49 316.44 178.67 309.32C186.85 302.2 188.2 299.79 189 299.26C189.8 298.73 186.35 295.26 201.7 306.41C217.05 317.56 219.7 322.82 218.7 324.94C217.7 327.06 194.87 354.85 175.81 369.15C156.75 383.45 150.66 392.71 145.1 392.71C139.54 392.71 124.19 387.15 116.25 380.53C108.31 373.91 96.3899 362.53 81.8299 350.88" stroke="#263238" stroke-linecap="round" stroke-linejoin="round"/>
<path d="M81.1299 318.69C88.3199 313.34 99.8799 306.88 111.43 309.32" stroke="#263238" stroke-linecap="round" stroke-linejoin="round"/>
<path d="M73.8398 324.94C73.8398 324.94 75.0198 323.72 77.0698 321.94" stroke="#263238" stroke-linecap="round" stroke-linejoin="round"/>
<path d="M141.35 336.85C141.35 336.85 129.7 347.71 129.17 354.33C128.64 360.95 137.64 347.18 138.96 344.53" stroke="#263238" stroke-linecap="round" stroke-linejoin="round"/>
<path d="M81 363.33C85.2086 362.899 89.3712 362.099 93.44 360.94" stroke="#263238" stroke-linecap="round" stroke-linejoin="round"/>
<path d="M7.66992 434.48H468.13" stroke="#263238" stroke-linecap="round" stroke-linejoin="round"/>
</svg>
