<svg width="421" height="372" viewBox="0 0 421 372" fill="none" xmlns="http://www.w3.org/2000/svg">
<path d="M230.25 205.25H178.89V249.37H230.25V205.25Z" fill="#0987FF"/>
<path d="M230.25 152.8H178.89V196.92H230.25V152.8Z" fill="#0987FF"/>
<path d="M230.25 47H178.89V92.02H230.25V47Z" fill="#0987FF"/>
<path d="M230.25 100.35H178.89V144.47H230.25V100.35Z" fill="#0987FF"/>
<path d="M377.38 103.18H333.82V43.1801C331.913 41.4401 329.973 39.7468 328 38.1001V110.17H380.38C379.46 107.83 378.46 105.5 377.38 103.18Z" fill="#0987FF"/>
<path d="M348 57.6502C344.18 53.3002 340.15 49.1402 336 45.1802H335.85V101.18H376.5C369.089 85.4051 359.495 70.7514 348 57.6502V57.6502Z" fill="#0987FF"/>
<path d="M290.839 257.7H239.479V303.63H290.839V257.7Z" fill="#0987FF"/>
<path d="M130 48.6504C128.06 50.2004 126.13 51.7504 124.18 53.2804V103.18H71.82V86.1104C69.82 87.2304 67.9 88.3504 66 89.4704V110.18H130V48.6504Z" fill="#0987FF"/>
<path d="M122.179 54.8501C112.089 62.7301 101.779 70.1301 90.6693 75.9201C84.8193 79.0001 79.1893 82.0001 73.8193 85.0001V101.2H122.179V54.8501Z" fill="#0987FF"/>
<path d="M178.89 275.83C196.32 282.05 211.98 293.83 228.76 303.63H230.25V257.7H178.89V275.83Z" fill="#0987FF"/>
<path d="M290.839 100.35H239.479V144.47H290.839V100.35Z" fill="#0987FF"/>
<path d="M290.839 152.8H239.479V196.92H290.839V152.8Z" fill="#0987FF"/>
<path d="M299 38H170.76V273.4C172.83 273.89 174.87 274.48 176.89 275.15V255.7H232.25V305.63C236.842 308.22 241.572 310.556 246.42 312.63H299V38ZM232.25 251.37H176.89V203.25H232.25V251.37ZM232.25 198.92H176.89V150.8H232.25V198.92ZM232.25 146.47H176.89V98.35H232.25V146.47ZM232.25 94.02H176.89V45H232.25V94.02ZM292.84 305.63H237.48V255.7H292.84V305.63ZM292.84 251.37H237.48V203.25H292.84V251.37ZM292.84 198.92H237.48V150.8H292.84V198.92ZM292.84 146.47H237.48V98.35H292.84V146.47ZM292.84 94.02H237.48V45H292.84V94.02Z" fill="#0987FF"/>
<path d="M290.839 205.25H239.479V249.37H290.839V205.25Z" fill="#0987FF"/>
<path d="M326 112.18V36.4702C299.62 15.0702 267.48 1.62019 233.32 0.520192C190 -0.879808 161 23.6202 132 47.0002V112.15H63.9996V90.6502C31.6596 110.12 9.99958 131.46 5.45958 169.65C-0.280417 217.53 4.45959 262.36 43.7596 284.78C83.0596 307.2 106.94 269.5 157.68 271.53C161.405 271.693 165.111 272.161 168.76 272.93V36.0002H301V314.67H251.49C266.49 320.13 283 322.08 302.72 316.39C344.61 304.32 375.67 260.07 387.35 217.5C397.25 181.4 393.9 144.79 381.18 112.18H326Z" fill="#0987FF"/>
<path d="M290.839 47H239.479V92.02H290.839V47Z" fill="#0987FF"/>
<g opacity="0.7">
<path opacity="0.7" d="M230.25 205.25H178.89V249.37H230.25V205.25Z" fill="white"/>
<path opacity="0.7" d="M230.25 152.8H178.89V196.92H230.25V152.8Z" fill="white"/>
<path opacity="0.7" d="M230.25 47H178.89V92.02H230.25V47Z" fill="white"/>
<path opacity="0.7" d="M230.25 100.35H178.89V144.47H230.25V100.35Z" fill="white"/>
<path opacity="0.7" d="M377.38 103.18H333.82V43.1801C331.913 41.4401 329.973 39.7468 328 38.1001V110.17H380.38C379.46 107.83 378.46 105.5 377.38 103.18Z" fill="white"/>
<path opacity="0.7" d="M348 57.6502C344.18 53.3002 340.15 49.1402 336 45.1802H335.85V101.18H376.5C369.089 85.4051 359.495 70.7514 348 57.6502V57.6502Z" fill="white"/>
<path opacity="0.7" d="M290.839 257.7H239.479V303.63H290.839V257.7Z" fill="white"/>
<path opacity="0.7" d="M130 48.6504C128.06 50.2004 126.13 51.7504 124.18 53.2804V103.18H71.82V86.1104C69.82 87.2304 67.9 88.3504 66 89.4704V110.18H130V48.6504Z" fill="white"/>
<path opacity="0.7" d="M122.179 54.8501C112.089 62.7301 101.779 70.1301 90.6693 75.9201C84.8193 79.0001 79.1893 82.0001 73.8193 85.0001V101.2H122.179V54.8501Z" fill="white"/>
<path opacity="0.7" d="M178.89 275.83C196.32 282.05 211.98 293.83 228.76 303.63H230.25V257.7H178.89V275.83Z" fill="white"/>
<path opacity="0.7" d="M290.839 100.35H239.479V144.47H290.839V100.35Z" fill="white"/>
<path opacity="0.7" d="M290.839 152.8H239.479V196.92H290.839V152.8Z" fill="white"/>
<path opacity="0.7" d="M299 38H170.76V273.4C172.83 273.89 174.87 274.48 176.89 275.15V255.7H232.25V305.63C236.842 308.22 241.572 310.556 246.42 312.63H299V38ZM232.25 251.37H176.89V203.25H232.25V251.37ZM232.25 198.92H176.89V150.8H232.25V198.92ZM232.25 146.47H176.89V98.35H232.25V146.47ZM232.25 94.02H176.89V45H232.25V94.02ZM292.84 305.63H237.48V255.7H292.84V305.63ZM292.84 251.37H237.48V203.25H292.84V251.37ZM292.84 198.92H237.48V150.8H292.84V198.92ZM292.84 146.47H237.48V98.35H292.84V146.47ZM292.84 94.02H237.48V45H292.84V94.02Z" fill="white"/>
<path opacity="0.7" d="M290.839 205.25H239.479V249.37H290.839V205.25Z" fill="white"/>
<path opacity="0.7" d="M326 112.18V36.4702C299.62 15.0702 267.48 1.62019 233.32 0.520192C190 -0.879808 161 23.6202 132 47.0002V112.15H63.9996V90.6502C31.6596 110.12 9.99958 131.46 5.45958 169.65C-0.280417 217.53 4.45959 262.36 43.7596 284.78C83.0596 307.2 106.94 269.5 157.68 271.53C161.405 271.693 165.111 272.161 168.76 272.93V36.0002H301V314.67H251.49C266.49 320.13 283 322.08 302.72 316.39C344.61 304.32 375.67 260.07 387.35 217.5C397.25 181.4 393.9 144.79 381.18 112.18H326Z" fill="white"/>
<path opacity="0.7" d="M290.839 47H239.479V92.02H290.839V47Z" fill="white"/>
</g>
<path d="M210.45 371.56C326.32 371.56 420.25 360.627 420.25 347.14C420.25 333.653 326.32 322.72 210.45 322.72C94.581 322.72 0.650391 333.653 0.650391 347.14C0.650391 360.627 94.581 371.56 210.45 371.56Z" fill="#0987FF"/>
<path opacity="0.5" d="M210.45 371.56C326.32 371.56 420.25 360.627 420.25 347.14C420.25 333.653 326.32 322.72 210.45 322.72C94.581 322.72 0.650391 333.653 0.650391 347.14C0.650391 360.627 94.581 371.56 210.45 371.56Z" fill="white"/>
<path d="M349.37 196.88C351.37 197.76 356.27 197.65 356.28 197.65C356.29 197.65 355.22 194.44 355.13 194.24C354.06 191.99 350.66 188.24 347.89 188.65C347.433 188.724 346.996 188.894 346.608 189.149C346.22 189.404 345.891 189.737 345.641 190.128C345.391 190.518 345.226 190.957 345.157 191.416C345.088 191.875 345.116 192.343 345.24 192.79C345.7 194.71 347.66 196.14 349.37 196.88Z" fill="#0987FF"/>
<path d="M413.58 180.2C410.8 179.9 407.5 183.7 406.49 185.98C406.4 186.18 405.38 189.41 405.43 189.41H405.49C404.97 190.01 404.41 190.66 403.82 191.41C402.73 192.75 401.52 194.27 400.3 196.01C398.975 197.871 397.76 199.807 396.66 201.81C395.418 204.046 394.377 206.389 393.55 208.81C393.55 208.81 393.55 208.87 393.55 208.9C393.55 208.08 393.55 205.79 393.55 205.62C393.23 203.14 391.16 198.55 388.41 198.04C387.952 197.971 387.485 197.998 387.038 198.121C386.591 198.243 386.175 198.458 385.816 198.751C385.458 199.044 385.164 199.409 384.955 199.822C384.745 200.235 384.624 200.687 384.6 201.15C384.44 203.15 385.87 205.08 387.25 206.33C388.82 207.72 393.17 209.08 393.52 209.19C392.735 211.672 392.12 214.204 391.68 216.77C391.41 218.27 391.19 219.77 390.99 221.3C390.99 220.59 390.99 219.96 390.99 219.87C390.67 217.4 388.6 212.81 385.85 212.3C385.392 212.228 384.923 212.253 384.475 212.374C384.027 212.495 383.61 212.71 383.25 213.003C382.891 213.297 382.597 213.663 382.389 214.077C382.18 214.492 382.061 214.946 382.04 215.41C381.88 217.41 383.3 219.34 384.69 220.58C386.08 221.82 389.79 223.07 390.77 223.38C390.69 223.97 390.62 224.55 390.55 225.13C390.21 227.93 389.89 230.73 389.49 233.47C389.35 234.47 389.17 235.38 389 236.32C389 235.69 389 235.16 389 235.08C388.68 232.61 386.61 228.02 383.86 227.51C383.402 227.439 382.934 227.466 382.487 227.588C382.039 227.709 381.622 227.924 381.263 228.217C380.904 228.51 380.61 228.876 380.402 229.29C380.193 229.703 380.073 230.157 380.05 230.62C379.89 232.62 381.31 234.55 382.7 235.79C384.09 237.03 387.44 238.16 388.6 238.54C388.39 239.54 388.19 240.46 387.95 241.39C387.77 242.01 387.64 242.63 387.43 243.25C387.22 243.87 387.03 244.48 386.84 245.09C386.42 246.24 385.99 247.43 385.56 248.55C385.26 249.32 384.96 250.06 384.66 250.8C384.81 249.8 385.07 247.96 385.07 247.8C385.042 245.607 384.449 243.458 383.35 241.56C383.375 241.317 383.375 241.073 383.35 240.83C383.292 240.374 383.139 239.935 382.901 239.541C382.663 239.147 382.346 238.807 381.97 238.543C381.594 238.278 381.166 238.095 380.715 238.005C380.264 237.915 379.799 237.92 379.35 238.02C376.65 238.74 374.94 243.48 374.81 245.97C374.81 246.12 374.9 247.72 374.98 248.73C374.84 248.14 374.72 247.57 374.57 246.97C374.29 245.78 373.97 244.59 373.64 243.32C373.45 242.71 373.26 242.09 373.08 241.47C372.9 240.85 372.64 240.22 372.42 239.58C371.89 238.13 371.28 236.67 370.63 235.22C371.63 234.97 375.37 234.03 376.86 232.89C378.35 231.75 379.86 229.89 379.86 227.89C379.873 227.426 379.788 226.965 379.611 226.536C379.433 226.108 379.167 225.721 378.83 225.402C378.494 225.083 378.093 224.839 377.656 224.685C377.218 224.531 376.753 224.472 376.29 224.51C373.51 224.81 371.1 229.23 370.6 231.67C370.6 231.83 370.4 233.62 370.33 234.61C369.93 233.74 369.54 232.87 369.11 232C367.87 229.5 366.54 227 365.22 224.52C364.81 223.76 364.42 223 364.02 222.23C364.39 222.15 368.81 221.12 370.47 219.85C371.95 218.71 373.52 216.85 373.47 214.85C373.483 214.386 373.398 213.924 373.221 213.495C373.043 213.066 372.777 212.679 372.441 212.359C372.104 212.04 371.704 211.794 371.266 211.639C370.829 211.484 370.363 211.423 369.9 211.46C367.12 211.76 364.71 216.19 364.21 218.63C364.21 218.81 363.94 221.39 363.91 222.05C363.03 220.37 362.18 218.68 361.4 216.99C360.344 214.717 359.435 212.379 358.68 209.99C358.85 209.99 363.47 208.9 365.17 207.59C366.65 206.46 368.17 204.59 368.17 202.59C368.183 202.126 368.098 201.665 367.921 201.236C367.743 200.808 367.477 200.421 367.14 200.102C366.804 199.783 366.403 199.539 365.966 199.385C365.528 199.231 365.063 199.172 364.6 199.21C361.82 199.51 359.42 203.93 358.91 206.38C358.91 206.57 358.62 209.38 358.61 209.85C358.61 209.71 358.51 209.57 358.47 209.43C357.781 207 357.309 204.513 357.06 202C356.9 200.61 356.83 199.28 356.79 198C357.67 197.89 361.68 197.36 363.35 196.35C365.02 195.34 366.7 193.71 366.9 191.75C366.967 191.28 366.931 190.801 366.795 190.347C366.659 189.892 366.426 189.472 366.113 189.116C365.799 188.76 365.412 188.476 364.979 188.283C364.545 188.09 364.075 187.994 363.6 188C360.81 188 357.92 192.12 357.16 194.5C357.11 194.62 356.83 195.98 356.64 196.98C356.64 196.39 356.64 195.78 356.64 195.22C356.64 193.11 356.77 191.22 356.91 189.46C356.99 188.46 357.08 187.61 357.18 186.79C357.99 186.24 361.18 183.96 362.18 182.33C363.18 180.7 363.94 178.44 363.18 176.61C363.024 176.173 362.778 175.774 362.458 175.438C362.138 175.103 361.751 174.838 361.322 174.662C360.893 174.486 360.431 174.402 359.968 174.415C359.504 174.428 359.048 174.539 358.63 174.74C356.2 176 355.55 181 356 183.5C356 183.71 357 186.97 357 186.94C356.89 187.72 356.79 188.57 356.69 189.5C356.52 191.21 356.34 193.14 356.29 195.26C356.212 197.544 356.265 199.831 356.45 202.11C356.652 204.662 357.077 207.192 357.72 209.67V209.76C357.28 209.07 355.99 207.18 355.87 207.04C354.24 205.16 349.98 202.47 347.41 203.56C346.988 203.753 346.611 204.033 346.304 204.381C345.997 204.73 345.766 205.139 345.627 205.582C345.489 206.025 345.445 206.493 345.499 206.954C345.553 207.416 345.703 207.86 345.94 208.26C346.89 209.99 349.17 210.84 351.01 211.11C353.09 211.41 357.46 210.11 357.81 210.04C358.53 212.542 359.416 214.995 360.46 217.38C361.07 218.78 361.72 220.16 362.38 221.54C361.99 220.96 361.62 220.44 361.57 220.37C359.93 218.48 355.67 215.8 353.1 216.89C352.679 217.083 352.303 217.362 351.997 217.71C351.691 218.058 351.462 218.467 351.324 218.909C351.186 219.352 351.143 219.818 351.198 220.278C351.252 220.738 351.403 221.182 351.64 221.58C352.59 223.31 354.86 224.17 356.7 224.43C358.54 224.69 362.33 223.7 363.31 223.43C363.58 223.96 363.83 224.49 364.1 225.01C365.36 227.53 366.64 230.01 367.81 232.55C368.23 233.43 368.6 234.31 368.98 235.19C368.63 234.68 368.32 234.24 368.27 234.19C366.64 232.3 362.38 229.62 359.81 230.71C359.388 230.903 359.011 231.183 358.704 231.531C358.397 231.88 358.166 232.289 358.027 232.732C357.889 233.175 357.845 233.643 357.899 234.104C357.953 234.566 358.103 235.01 358.34 235.41C359.29 237.13 361.57 237.99 363.41 238.26C365.25 238.53 368.67 237.62 369.84 237.26C370.2 238.18 370.57 239.09 370.84 240C371.03 240.62 371.27 241.2 371.43 241.84C371.59 242.48 371.78 243.08 371.95 243.7C372.23 244.89 372.54 246.12 372.79 247.29C372.97 248.1 373.12 248.88 373.28 249.66C372.88 248.78 372.06 247.07 371.97 246.94C370.64 244.83 366.84 241.53 364.13 242.22C363.685 242.346 363.271 242.565 362.915 242.862C362.56 243.159 362.271 243.527 362.067 243.943C361.863 244.359 361.749 244.813 361.733 245.276C361.716 245.739 361.797 246.2 361.97 246.63C362.65 248.49 364.77 249.63 366.55 250.22C368.55 250.82 372.85 250.27 373.39 250.22C373.65 251.52 373.89 252.78 374.1 253.98C374.83 258.12 375.29 261.61 375.57 264.04C375.57 264.48 375.66 264.86 375.7 265.23H367.29L370.36 325.11H384.68L387.75 265.23H380L380.18 264.87C381.25 262.63 382.74 259.41 384.35 255.48C384.86 254.23 385.35 252.9 385.91 251.48C386.43 251.59 390.73 252.48 392.73 252.01C394.55 251.6 396.73 250.57 397.56 248.77C397.767 248.355 397.884 247.901 397.903 247.438C397.922 246.975 397.843 246.513 397.672 246.082C397.5 245.652 397.239 245.262 396.906 244.94C396.573 244.617 396.176 244.368 395.74 244.21C393.09 243.32 389.05 246.32 387.57 248.33C387.48 248.45 386.68 249.84 386.19 250.72C386.4 250.16 386.61 249.61 386.82 249.03C387.24 247.88 387.63 246.72 388.05 245.47C388.23 244.86 388.42 244.24 388.6 243.62C388.78 243 388.93 242.33 389.1 241.69C389.46 240.17 389.75 238.63 390.01 237.06C391.01 237.43 394.62 238.68 396.49 238.55C398.36 238.42 400.68 237.73 401.75 236.08C402.016 235.7 402.198 235.268 402.286 234.813C402.374 234.358 402.365 233.89 402.261 233.438C402.156 232.986 401.958 232.562 401.679 232.192C401.4 231.822 401.046 231.514 400.64 231.29C398.16 230.01 393.71 232.37 391.94 234.13C391.83 234.24 390.71 235.64 390.1 236.43C390.25 235.49 390.4 234.54 390.52 233.59C390.86 230.82 391.13 228 391.4 225.2C391.48 224.34 391.58 223.48 391.67 222.63C392.02 222.76 396.27 224.34 398.37 224.2C400.22 224.07 402.55 223.38 403.63 221.73C403.897 221.35 404.081 220.919 404.17 220.463C404.259 220.008 404.25 219.539 404.146 219.087C404.041 218.635 403.842 218.21 403.562 217.84C403.282 217.47 402.927 217.163 402.52 216.94C400.04 215.66 395.59 218.02 393.82 219.78C393.69 219.91 392.07 221.94 391.68 222.47C391.88 220.58 392.1 218.71 392.39 216.86C392.764 214.37 393.302 211.908 394 209.49C394.16 209.55 398.59 211.22 400.73 211.07C402.59 210.94 404.92 210.26 406 208.61C406.266 208.23 406.448 207.798 406.536 207.343C406.624 206.888 406.615 206.42 406.511 205.968C406.406 205.516 406.208 205.092 405.929 204.722C405.65 204.352 405.296 204.044 404.89 203.82C402.4 202.54 397.95 204.9 396.19 206.66C396.05 206.79 394.31 208.97 394.02 209.39C394.02 209.25 394.09 209.1 394.13 208.96C394.899 206.546 395.876 204.204 397.05 201.96C397.69 200.72 398.37 199.57 399.05 198.46C399.84 198.86 403.49 200.62 405.43 200.7C407.37 200.78 409.68 200.35 410.93 198.83C411.238 198.482 411.469 198.074 411.608 197.631C411.746 197.188 411.79 196.721 411.735 196.26C411.68 195.799 411.528 195.355 411.29 194.957C411.051 194.559 410.731 194.215 410.35 193.95C408.03 192.4 403.35 194.26 401.4 195.81C401.29 195.9 400.31 196.88 399.6 197.6C399.92 197.1 400.23 196.6 400.55 196.12C401.71 194.36 402.89 192.82 403.95 191.47C404.55 190.7 405.12 190.02 405.65 189.39C406.65 189.39 410.58 189.25 412.31 188.44C414.04 187.63 415.92 186.17 416.31 184.25C416.42 183.803 416.434 183.339 416.354 182.886C416.273 182.433 416.098 182.002 415.841 181.621C415.584 181.24 415.25 180.916 414.861 180.671C414.472 180.427 414.035 180.266 413.58 180.2ZM382.84 254.79C381.16 258.65 379.61 261.79 378.5 264C378.28 264.44 378.08 264.83 377.89 265.19H377.71C377.65 264.76 377.59 264.29 377.52 263.77C377.18 261.31 376.65 257.77 375.82 253.63C375.56 252.32 375.26 250.91 374.93 249.47C376.237 248.947 377.512 248.349 378.75 247.68C380.18 249.23 383.84 251.04 384.32 251.27C383.82 252.49 383.32 253.68 382.84 254.79V254.79Z" fill="#0987FF"/>
<path d="M399 198C399 198 399.89 194.74 399.92 194.53C400.26 192.06 399.47 187.08 396.92 185.87C396.496 185.68 396.037 185.582 395.573 185.582C395.108 185.581 394.649 185.678 394.224 185.867C393.8 186.055 393.42 186.331 393.109 186.676C392.798 187.022 392.564 187.428 392.42 187.87C391.75 189.72 392.6 192 393.62 193.56C394.79 195.35 398.94 198 399 198Z" fill="#0987FF"/>
<g opacity="0.5">
<path opacity="0.5" d="M349.37 196.88C351.37 197.76 356.27 197.65 356.28 197.65C356.29 197.65 355.22 194.44 355.13 194.24C354.06 191.99 350.66 188.24 347.89 188.65C347.433 188.724 346.996 188.894 346.608 189.149C346.22 189.404 345.891 189.737 345.641 190.128C345.391 190.518 345.226 190.957 345.157 191.416C345.088 191.875 345.116 192.343 345.24 192.79C345.7 194.71 347.66 196.14 349.37 196.88Z" fill="white"/>
<path opacity="0.5" d="M413.58 180.2C410.8 179.9 407.5 183.7 406.49 185.98C406.4 186.18 405.38 189.41 405.43 189.41H405.49C404.97 190.01 404.41 190.66 403.82 191.41C402.73 192.75 401.52 194.27 400.3 196.01C398.975 197.871 397.76 199.807 396.66 201.81C395.418 204.046 394.377 206.389 393.55 208.81C393.55 208.81 393.55 208.87 393.55 208.9C393.55 208.08 393.55 205.79 393.55 205.62C393.23 203.14 391.16 198.55 388.41 198.04C387.952 197.971 387.485 197.998 387.038 198.121C386.591 198.243 386.175 198.458 385.816 198.751C385.458 199.044 385.164 199.409 384.955 199.822C384.745 200.235 384.624 200.687 384.6 201.15C384.44 203.15 385.87 205.08 387.25 206.33C388.82 207.72 393.17 209.08 393.52 209.19C392.735 211.672 392.12 214.204 391.68 216.77C391.41 218.27 391.19 219.77 390.99 221.3C390.99 220.59 390.99 219.96 390.99 219.87C390.67 217.4 388.6 212.81 385.85 212.3C385.392 212.228 384.923 212.253 384.475 212.374C384.027 212.495 383.61 212.71 383.25 213.003C382.891 213.297 382.597 213.663 382.389 214.077C382.18 214.492 382.061 214.946 382.04 215.41C381.88 217.41 383.3 219.34 384.69 220.58C386.08 221.82 389.79 223.07 390.77 223.38C390.69 223.97 390.62 224.55 390.55 225.13C390.21 227.93 389.89 230.73 389.49 233.47C389.35 234.47 389.17 235.38 389 236.32C389 235.69 389 235.16 389 235.08C388.68 232.61 386.61 228.02 383.86 227.51C383.402 227.439 382.934 227.466 382.487 227.588C382.039 227.709 381.622 227.924 381.263 228.217C380.904 228.51 380.61 228.876 380.402 229.29C380.193 229.703 380.073 230.157 380.05 230.62C379.89 232.62 381.31 234.55 382.7 235.79C384.09 237.03 387.44 238.16 388.6 238.54C388.39 239.54 388.19 240.46 387.95 241.39C387.77 242.01 387.64 242.63 387.43 243.25C387.22 243.87 387.03 244.48 386.84 245.09C386.42 246.24 385.99 247.43 385.56 248.55C385.26 249.32 384.96 250.06 384.66 250.8C384.81 249.8 385.07 247.96 385.07 247.8C385.042 245.607 384.449 243.458 383.35 241.56C383.375 241.317 383.375 241.073 383.35 240.83C383.292 240.374 383.139 239.935 382.901 239.541C382.663 239.147 382.346 238.807 381.97 238.543C381.594 238.278 381.166 238.095 380.715 238.005C380.264 237.915 379.799 237.92 379.35 238.02C376.65 238.74 374.94 243.48 374.81 245.97C374.81 246.12 374.9 247.72 374.98 248.73C374.84 248.14 374.72 247.57 374.57 246.97C374.29 245.78 373.97 244.59 373.64 243.32C373.45 242.71 373.26 242.09 373.08 241.47C372.9 240.85 372.64 240.22 372.42 239.58C371.89 238.13 371.28 236.67 370.63 235.22C371.63 234.97 375.37 234.03 376.86 232.89C378.35 231.75 379.86 229.89 379.86 227.89C379.873 227.426 379.788 226.965 379.611 226.536C379.433 226.108 379.167 225.721 378.83 225.402C378.494 225.083 378.093 224.839 377.656 224.685C377.218 224.531 376.753 224.472 376.29 224.51C373.51 224.81 371.1 229.23 370.6 231.67C370.6 231.83 370.4 233.62 370.33 234.61C369.93 233.74 369.54 232.87 369.11 232C367.87 229.5 366.54 227 365.22 224.52C364.81 223.76 364.42 223 364.02 222.23C364.39 222.15 368.81 221.12 370.47 219.85C371.95 218.71 373.52 216.85 373.47 214.85C373.483 214.386 373.398 213.924 373.221 213.495C373.043 213.066 372.777 212.679 372.441 212.359C372.104 212.04 371.704 211.794 371.266 211.639C370.829 211.484 370.363 211.423 369.9 211.46C367.12 211.76 364.71 216.19 364.21 218.63C364.21 218.81 363.94 221.39 363.91 222.05C363.03 220.37 362.18 218.68 361.4 216.99C360.344 214.717 359.435 212.379 358.68 209.99C358.85 209.99 363.47 208.9 365.17 207.59C366.65 206.46 368.17 204.59 368.17 202.59C368.183 202.126 368.098 201.665 367.921 201.236C367.743 200.808 367.477 200.421 367.14 200.102C366.804 199.783 366.403 199.539 365.966 199.385C365.528 199.231 365.063 199.172 364.6 199.21C361.82 199.51 359.42 203.93 358.91 206.38C358.91 206.57 358.62 209.38 358.61 209.85C358.61 209.71 358.51 209.57 358.47 209.43C357.781 207 357.309 204.513 357.06 202C356.9 200.61 356.83 199.28 356.79 198C357.67 197.89 361.68 197.36 363.35 196.35C365.02 195.34 366.7 193.71 366.9 191.75C366.967 191.28 366.931 190.801 366.795 190.347C366.659 189.892 366.426 189.472 366.113 189.116C365.799 188.76 365.412 188.476 364.979 188.283C364.545 188.09 364.075 187.994 363.6 188C360.81 188 357.92 192.12 357.16 194.5C357.11 194.62 356.83 195.98 356.64 196.98C356.64 196.39 356.64 195.78 356.64 195.22C356.64 193.11 356.77 191.22 356.91 189.46C356.99 188.46 357.08 187.61 357.18 186.79C357.99 186.24 361.18 183.96 362.18 182.33C363.18 180.7 363.94 178.44 363.18 176.61C363.024 176.173 362.778 175.774 362.458 175.438C362.138 175.103 361.751 174.838 361.322 174.662C360.893 174.486 360.431 174.402 359.968 174.415C359.504 174.428 359.048 174.539 358.63 174.74C356.2 176 355.55 181 356 183.5C356 183.71 357 186.97 357 186.94C356.89 187.72 356.79 188.57 356.69 189.5C356.52 191.21 356.34 193.14 356.29 195.26C356.212 197.544 356.265 199.831 356.45 202.11C356.652 204.662 357.077 207.192 357.72 209.67V209.76C357.28 209.07 355.99 207.18 355.87 207.04C354.24 205.16 349.98 202.47 347.41 203.56C346.988 203.753 346.611 204.033 346.304 204.381C345.997 204.73 345.766 205.139 345.627 205.582C345.489 206.025 345.445 206.493 345.499 206.954C345.553 207.416 345.703 207.86 345.94 208.26C346.89 209.99 349.17 210.84 351.01 211.11C353.09 211.41 357.46 210.11 357.81 210.04C358.53 212.542 359.416 214.995 360.46 217.38C361.07 218.78 361.72 220.16 362.38 221.54C361.99 220.96 361.62 220.44 361.57 220.37C359.93 218.48 355.67 215.8 353.1 216.89C352.679 217.083 352.303 217.362 351.997 217.71C351.691 218.058 351.462 218.467 351.324 218.909C351.186 219.352 351.143 219.818 351.198 220.278C351.252 220.738 351.403 221.182 351.64 221.58C352.59 223.31 354.86 224.17 356.7 224.43C358.54 224.69 362.33 223.7 363.31 223.43C363.58 223.96 363.83 224.49 364.1 225.01C365.36 227.53 366.64 230.01 367.81 232.55C368.23 233.43 368.6 234.31 368.98 235.19C368.63 234.68 368.32 234.24 368.27 234.19C366.64 232.3 362.38 229.62 359.81 230.71C359.388 230.903 359.011 231.183 358.704 231.531C358.397 231.88 358.166 232.289 358.027 232.732C357.889 233.175 357.845 233.643 357.899 234.104C357.953 234.566 358.103 235.01 358.34 235.41C359.29 237.13 361.57 237.99 363.41 238.26C365.25 238.53 368.67 237.62 369.84 237.26C370.2 238.18 370.57 239.09 370.84 240C371.03 240.62 371.27 241.2 371.43 241.84C371.59 242.48 371.78 243.08 371.95 243.7C372.23 244.89 372.54 246.12 372.79 247.29C372.97 248.1 373.12 248.88 373.28 249.66C372.88 248.78 372.06 247.07 371.97 246.94C370.64 244.83 366.84 241.53 364.13 242.22C363.685 242.346 363.271 242.565 362.915 242.862C362.56 243.159 362.271 243.527 362.067 243.943C361.863 244.359 361.749 244.813 361.733 245.276C361.716 245.739 361.797 246.2 361.97 246.63C362.65 248.49 364.77 249.63 366.55 250.22C368.55 250.82 372.85 250.27 373.39 250.22C373.65 251.52 373.89 252.78 374.1 253.98C374.83 258.12 375.29 261.61 375.57 264.04C375.57 264.48 375.66 264.86 375.7 265.23H367.29L370.36 325.11H384.68L387.75 265.23H380L380.18 264.87C381.25 262.63 382.74 259.41 384.35 255.48C384.86 254.23 385.35 252.9 385.91 251.48C386.43 251.59 390.73 252.48 392.73 252.01C394.55 251.6 396.73 250.57 397.56 248.77C397.767 248.355 397.884 247.901 397.903 247.438C397.922 246.975 397.843 246.513 397.672 246.082C397.5 245.652 397.239 245.262 396.906 244.94C396.573 244.617 396.176 244.368 395.74 244.21C393.09 243.32 389.05 246.32 387.57 248.33C387.48 248.45 386.68 249.84 386.19 250.72C386.4 250.16 386.61 249.61 386.82 249.03C387.24 247.88 387.63 246.72 388.05 245.47C388.23 244.86 388.42 244.24 388.6 243.62C388.78 243 388.93 242.33 389.1 241.69C389.46 240.17 389.75 238.63 390.01 237.06C391.01 237.43 394.62 238.68 396.49 238.55C398.36 238.42 400.68 237.73 401.75 236.08C402.016 235.7 402.198 235.268 402.286 234.813C402.374 234.358 402.365 233.89 402.261 233.438C402.156 232.986 401.958 232.562 401.679 232.192C401.4 231.822 401.046 231.514 400.64 231.29C398.16 230.01 393.71 232.37 391.94 234.13C391.83 234.24 390.71 235.64 390.1 236.43C390.25 235.49 390.4 234.54 390.52 233.59C390.86 230.82 391.13 228 391.4 225.2C391.48 224.34 391.58 223.48 391.67 222.63C392.02 222.76 396.27 224.34 398.37 224.2C400.22 224.07 402.55 223.38 403.63 221.73C403.897 221.35 404.081 220.919 404.17 220.463C404.259 220.008 404.25 219.539 404.146 219.087C404.041 218.635 403.842 218.21 403.562 217.84C403.282 217.47 402.927 217.163 402.52 216.94C400.04 215.66 395.59 218.02 393.82 219.78C393.69 219.91 392.07 221.94 391.68 222.47C391.88 220.58 392.1 218.71 392.39 216.86C392.764 214.37 393.302 211.908 394 209.49C394.16 209.55 398.59 211.22 400.73 211.07C402.59 210.94 404.92 210.26 406 208.61C406.266 208.23 406.448 207.798 406.536 207.343C406.624 206.888 406.615 206.42 406.511 205.968C406.406 205.516 406.208 205.092 405.929 204.722C405.65 204.352 405.296 204.044 404.89 203.82C402.4 202.54 397.95 204.9 396.19 206.66C396.05 206.79 394.31 208.97 394.02 209.39C394.02 209.25 394.09 209.1 394.13 208.96C394.899 206.546 395.876 204.204 397.05 201.96C397.69 200.72 398.37 199.57 399.05 198.46C399.84 198.86 403.49 200.62 405.43 200.7C407.37 200.78 409.68 200.35 410.93 198.83C411.238 198.482 411.469 198.074 411.608 197.631C411.746 197.188 411.79 196.721 411.735 196.26C411.68 195.799 411.528 195.355 411.29 194.957C411.051 194.559 410.731 194.215 410.35 193.95C408.03 192.4 403.35 194.26 401.4 195.81C401.29 195.9 400.31 196.88 399.6 197.6C399.92 197.1 400.23 196.6 400.55 196.12C401.71 194.36 402.89 192.82 403.95 191.47C404.55 190.7 405.12 190.02 405.65 189.39C406.65 189.39 410.58 189.25 412.31 188.44C414.04 187.63 415.92 186.17 416.31 184.25C416.42 183.803 416.434 183.339 416.354 182.886C416.273 182.433 416.098 182.002 415.841 181.621C415.584 181.24 415.25 180.916 414.861 180.671C414.472 180.427 414.035 180.266 413.58 180.2ZM382.84 254.79C381.16 258.65 379.61 261.79 378.5 264C378.28 264.44 378.08 264.83 377.89 265.19H377.71C377.65 264.76 377.59 264.29 377.52 263.77C377.18 261.31 376.65 257.77 375.82 253.63C375.56 252.32 375.26 250.91 374.93 249.47C376.237 248.947 377.512 248.349 378.75 247.68C380.18 249.23 383.84 251.04 384.32 251.27C383.82 252.49 383.32 253.68 382.84 254.79V254.79Z" fill="white"/>
<path opacity="0.5" d="M399 198C399 198 399.89 194.74 399.92 194.53C400.26 192.06 399.47 187.08 396.92 185.87C396.496 185.68 396.037 185.582 395.573 185.582C395.108 185.581 394.649 185.678 394.224 185.867C393.8 186.055 393.42 186.331 393.109 186.676C392.798 187.022 392.564 187.428 392.42 187.87C391.75 189.72 392.6 192 393.62 193.56C394.79 195.35 398.94 198 399 198Z" fill="white"/>
</g>
<path d="M276.15 119.85L246.33 149.67C246.33 149.67 232.33 121.92 231.17 117.2C230.01 112.48 227.93 108.06 227.04 108.06C226.15 108.06 218.79 106.29 218.79 106.29C218.79 106.29 209.94 105.7 209.35 106.58C208.76 107.46 213.95 111.21 216.35 113.86C218.75 116.51 218.3 118.6 222.43 120.96C226.56 123.32 226.49 122.8 226.49 122.8C226.49 122.8 237.2 153.6 239.16 158.51C239.926 160.32 241.228 161.852 242.89 162.9C243.923 163.573 245.151 163.882 246.38 163.777C247.608 163.671 248.766 163.159 249.67 162.32L269.96 143.77C269.96 143.77 279.13 133.94 279.79 125.77C280.45 117.6 276.15 119.85 276.15 119.85Z" fill="white" stroke="#263238" stroke-linecap="round" stroke-linejoin="round"/>
<path d="M221.83 99.23H202.06C200.999 99.23 200.14 100.09 200.14 101.15V111.98C200.14 113.04 200.999 113.9 202.06 113.9H221.83C222.89 113.9 223.75 113.04 223.75 111.98V101.15C223.75 100.09 222.89 99.23 221.83 99.23Z" fill="#0987FF" stroke="#263238" stroke-linecap="round" stroke-linejoin="round"/>
<path d="M223.75 101.15H200.14V104.55H223.75V101.15Z" fill="#263238"/>
<path d="M228.939 114.28C228.939 114.28 226.799 110.28 225.999 110.28C225.199 110.28 216.399 107.88 215.069 108.14C213.739 108.4 215.069 110.54 216.399 110.81C217.729 111.08 223.069 114.01 223.069 114.01C223.069 114.01 223.599 119.88 227.599 120.95" fill="white"/>
<path d="M228.939 114.28C228.939 114.28 226.799 110.28 225.999 110.28C225.199 110.28 216.399 107.88 215.069 108.14C213.739 108.4 215.069 110.54 216.399 110.81C217.729 111.08 223.069 114.01 223.069 114.01C223.069 114.01 223.599 119.88 227.599 120.95" stroke="#263238" stroke-linecap="round" stroke-linejoin="round"/>
<path d="M338.459 346.76C338.459 349.36 321.789 351.46 301.219 351.46C280.649 351.46 263.979 349.36 263.979 346.76C263.979 344.16 280.649 342.06 301.219 342.06C321.789 342.06 338.459 344.17 338.459 346.76Z" fill="#263238"/>
<path d="M266.62 235.89C266.62 235.89 274.78 264.99 275.37 274.43C275.96 283.87 277.68 311 278.43 322.79C279.18 334.58 273.6 340.08 271.34 341.79C269.08 343.5 261.81 347.13 264.61 347.74C267.41 348.35 278.79 347.24 282.13 343.87C285.47 340.5 290.7 335.87 291.27 332.24C291.84 328.61 287.01 327.37 286.51 319.51C286.01 311.65 290.23 290.85 290.74 280.16C291.25 269.47 285.19 254.85 284.74 247.37C284.29 239.89 284.24 233.19 284.24 233.19L266.62 235.89Z" fill="white" stroke="#263238" stroke-linecap="round" stroke-linejoin="round"/>
<path d="M292.79 336.02L292.01 346.25H289.66L287.83 339.99L292.79 336.02Z" fill="#0987FF" stroke="#263238" stroke-linecap="round" stroke-linejoin="round"/>
<path d="M264.38 347.64C267.14 348.43 278.56 348.03 282.11 344.88C285.66 341.73 292 339.56 292.79 336.02C293.13 334.48 292.28 332.91 291.21 331.02C290.094 333.076 288.693 334.965 287.05 336.63C283.39 340.29 276.05 343.42 276.05 343.42L271.44 342.16C269.11 343.7 261.62 346.85 264.38 347.64Z" fill="#0987FF" stroke="#263238" stroke-linecap="round" stroke-linejoin="round"/>
<path d="M276.849 238.3C276.849 238.3 283.159 267.85 283.159 277.3V325.77C283.159 337.59 277.249 342.71 274.879 344.29C272.509 345.87 264.999 349 267.789 349.8C270.579 350.6 281.979 350.2 285.519 347.05C289.059 343.9 295.409 341.73 296.199 338.18C296.989 334.63 291.429 330.89 291.429 323.01C291.429 315.13 296.949 294.64 298.129 284.01C299.309 273.38 294.189 258.4 294.189 250.92C294.189 243.44 294.589 236.73 294.589 236.73L276.849 238.3Z" fill="white" stroke="#263238" stroke-linecap="round" stroke-linejoin="round"/>
<path d="M277.54 87.0801C277.54 87.0801 264.44 81.1801 265.09 73.3201C265.74 65.4601 284.42 59.5601 299.17 59.5601C313.92 59.5601 320.17 72.6701 320.17 80.2001C320.17 87.7301 312.96 95.9301 316.89 103.46C320.82 110.99 337.89 112.4 344.19 129.3C349.1 142.41 344.84 150.3 339.93 156.82C335.02 163.34 334.36 166.65 338.93 174.19C343.5 181.73 334.65 205.64 313 206.3C291.35 206.96 281.55 185.3 282.86 169.93C284.17 154.56 293.01 130.28 294.65 114.56C296.29 98.8401 294.55 97.8901 289.65 93.3101C284.75 88.7301 277.54 87.0801 277.54 87.0801Z" fill="#263238" stroke="#263238" stroke-linecap="round" stroke-linejoin="round"/>
<path d="M283.35 74.0002C283.35 74.0002 277.46 70.0702 281.88 67.6102C286.3 65.1502 295.64 62.7002 303.5 63.6802" stroke="white" stroke-linecap="round" stroke-linejoin="round"/>
<path d="M281.26 75.8902C281.26 75.8902 266.92 70.7902 267.26 74.8902C267.6 78.9902 277.78 82.8902 278.41 80.6302C279.04 78.3702 273.63 76.8102 273.63 76.8102" stroke="white" stroke-linecap="round" stroke-linejoin="round"/>
<path d="M287 69.52C287 69.52 290.19 69.2 294 76.85C297.81 84.5 301.33 90.23 308.66 91.18C315.99 92.13 317.9 89 317.9 89" stroke="white" stroke-linecap="round" stroke-linejoin="round"/>
<path d="M327.38 114.5C329.164 114.941 330.9 115.561 332.56 116.35" stroke="white" stroke-linecap="round" stroke-linejoin="round"/>
<path d="M305.16 101.38C305.16 101.38 304.52 105.84 310.89 109.66C314.57 111.87 319.09 112.66 323.49 113.66" stroke="white" stroke-linecap="round" stroke-linejoin="round"/>
<path d="M316.37 80.1299C317.281 80.413 318.22 80.5942 319.17 80.6699" stroke="white" stroke-linecap="round" stroke-linejoin="round"/>
<path d="M295.279 67.0001C296.737 66.6767 298.251 66.7106 299.693 67.0989C301.135 67.4872 302.461 68.2183 303.559 69.2301C306.279 71.5301 308.719 75.4701 312.329 78.0901" stroke="white" stroke-linecap="round" stroke-linejoin="round"/>
<path d="M296.46 118.87C296.46 118.87 276.8 117.23 275.16 118.21C273.52 119.19 270.25 129.35 266.64 133.29C263.03 137.23 261.4 139.51 262.38 142.79C263.36 146.07 265.66 163.43 265.66 163.43L243.38 238.13C243.38 238.13 252.58 245.13 276.17 246.44C290.275 247.205 304.166 242.728 315.17 233.87L291.58 165.07C291.58 165.07 312.88 132.3 313.86 128.07C314.84 123.84 296.46 118.87 296.46 118.87Z" fill="#0987FF" stroke="#263238" stroke-linecap="round" stroke-linejoin="round"/>
<path d="M277.12 145.67C277.12 145.67 276.8 150.45 283.49 154.59" stroke="#263238" stroke-linecap="round" stroke-linejoin="round"/>
<path d="M271.06 165.74L265.97 189.32" stroke="#263238" stroke-linecap="round" stroke-linejoin="round"/>
<path d="M274.569 166.69L273.609 179.12" stroke="#263238" stroke-linecap="round" stroke-linejoin="round"/>
<path d="M287.63 166.06L294 191.86" stroke="#263238" stroke-linecap="round" stroke-linejoin="round"/>
<path d="M285.399 167.65L284.449 181.03" stroke="#263238" stroke-linecap="round" stroke-linejoin="round"/>
<path d="M294.679 114.56C294.679 114.56 288.459 113.56 284.529 116.85C280.599 120.14 276.659 129.3 276.659 129.3L288.779 127.66L295.989 136.18C295.989 136.18 302.549 127.66 302.549 121.44C302.549 115.22 294.679 114.56 294.679 114.56Z" fill="white" stroke="#263238" stroke-linecap="round" stroke-linejoin="round"/>
<path d="M345.92 137.54C345.92 137.54 349.12 133.7 349.23 130.82C349.34 127.94 348.93 128.34 347.85 130.11C346.77 131.88 345.92 137.54 345.92 137.54Z" fill="white" stroke="#263238" stroke-linecap="round" stroke-linejoin="round"/>
<path d="M336.43 214.69L318.92 169.58" stroke="#263238" stroke-linecap="round" stroke-linejoin="round"/>
<path d="M332.469 214.34L317.909 167.89" stroke="#263238" stroke-linecap="round" stroke-linejoin="round"/>
<path d="M312.27 126.16C312.27 126.16 296.68 139 295.52 145.69C294.36 152.38 304.13 145.93 304.13 145.93C304.13 145.93 308.78 166.86 311.13 173.14C313.48 179.42 314.85 184.07 317.65 182.68C320.45 181.29 336 139 336 139C336 139 342.05 139.23 344.61 138.53C347.17 137.83 347.61 132.53 347.86 130.16C348.11 127.79 346 129.46 346 130.16C346 130.86 344.37 135.05 343.21 135.51C342.05 135.97 336.93 132.95 336.93 132.95C336.93 132.95 341.81 132.02 341.81 130.63C341.81 129.24 341.58 129 340.19 129.7C337.984 130.769 335.62 131.474 333.19 131.79C330.63 132.02 329.7 134.58 329.7 137.37C329.7 140.16 328.54 141.37 327.14 145.98C325.74 150.59 316.89 166.6 316.89 166.6C316.89 166.6 313.89 143.88 314.12 138.07C314.35 132.26 316.45 127.09 312.27 126.16Z" fill="white" stroke="#263238" stroke-linecap="round" stroke-linejoin="round"/>
<path d="M304.129 145.93L302.729 142.44" stroke="#263238" stroke-linecap="round" stroke-linejoin="round"/>
<path d="M331.8 138.25C331.8 138.25 333.43 135.46 335.06 135C336.69 134.54 343.2 135.46 343.2 135.46C343.2 135.46 343.86 128.73 345.06 128.72C346.26 128.71 345.29 135.93 344.6 137.55C343.91 139.17 336 139 336 139" fill="white"/>
<path d="M331.8 138.25C331.8 138.25 333.43 135.46 335.06 135C336.69 134.54 343.2 135.46 343.2 135.46C343.2 135.46 343.86 128.73 345.06 128.72C346.26 128.71 345.29 135.93 344.6 137.55C343.91 139.17 336 139 336 139" stroke="#263238" stroke-linecap="round" stroke-linejoin="round"/>
<path d="M332.47 214.34L299.85 212.34L291.06 261.53L336.32 262.46L332.47 214.34Z" fill="white" stroke="#263238" stroke-linecap="round" stroke-linejoin="round"/>
<path d="M299.85 212.34L285.17 259.57L288.39 257.87L291.06 261.53L299.85 212.34Z" fill="#263238" stroke="#263238" stroke-linecap="round" stroke-linejoin="round"/>
<path d="M336.429 214.69L303.769 216.04L300.069 265.86L345.179 262.16L336.429 214.69Z" fill="white" stroke="#263238" stroke-linecap="round" stroke-linejoin="round"/>
<path d="M303.77 216.04L294.01 264.51L297.04 262.5L300.07 265.86L303.77 216.04Z" fill="#263238" stroke="#263238" stroke-linecap="round" stroke-linejoin="round"/>
<path d="M303.77 216.04L316.9 165.54" stroke="#263238" stroke-linecap="round" stroke-linejoin="round"/>
<path d="M299.84 212.34L316.9 166.55" stroke="#263238" stroke-linecap="round" stroke-linejoin="round"/>
<path d="M276.19 85.4403C276.19 85.4403 274.75 96.9303 274.75 100.76C274.75 104.59 279.54 112.25 281.21 113.21C282.88 114.17 291.51 111.29 291.51 111.29C291.51 111.29 290.02 115.1 289.06 117.49C288.1 119.88 284.76 125.39 284.76 129.22C284.76 133.05 286.67 134.49 289.76 131.86C292.85 129.23 297 123 297.2 120.13C297.4 117.26 301.32 105.07 301.32 105.07L301.56 102.43C301.56 102.43 304.68 99.5603 305.39 96.4303C306.1 93.3003 306.83 89.9603 303.48 90.9203C301.54 91.4403 299.844 92.6262 298.69 94.2703C298.69 94.2703 293.18 92.8403 289.83 89.7203C286.48 86.6003 283.61 76.8003 283.61 76.8003L276.19 85.4403Z" fill="white" stroke="#263238" stroke-linecap="round" stroke-linejoin="round"/>
<path d="M294.369 89.0503L303.479 90.9403L301.089 92.0303L294.069 91.5903L294.369 89.0503Z" fill="white" stroke="#263238" stroke-linecap="round" stroke-linejoin="round"/>
<path d="M277.41 86.5499C277.41 86.5499 274.17 86.2399 270.77 86.1099C270.584 86.3489 270.464 86.6332 270.424 86.9337C270.383 87.2342 270.423 87.54 270.54 87.8199C270.94 88.8199 269.54 93.2299 271.18 95.3399C272.82 97.4499 275.87 97.4999 277.56 97.3999C279.25 97.2999 280.48 92.4699 280.56 91.3999C280.64 90.3299 280.78 89.3999 281.62 89.2999C282.46 89.1999 281.91 91.2999 282.19 92.9899C282.47 94.6799 282.1 97.2399 283.69 98.1599C285.28 99.0799 287.35 99.7999 291.01 98.7299C294.67 97.6599 294.79 91.2099 295.1 90.6799C295.386 90.2686 295.7 89.8777 296.04 89.5099C296.158 89.369 296.235 89.1983 296.263 89.0164C296.29 88.8346 296.267 88.6487 296.196 88.4792C296.125 88.3097 296.008 88.1631 295.859 88.0556C295.709 87.9481 295.533 87.8838 295.35 87.8699L293.35 87.7299C293.35 87.7299 284.15 86.9399 282.12 87.0599L280.12 86.8499L277.41 86.5499Z" fill="white" stroke="#263238" stroke-linecap="round" stroke-linejoin="round"/>
<path d="M279.18 95.8301C276.727 92.9847 273.833 90.5505 270.61 88.6201C270.54 90.2901 269.82 93.6201 271.18 95.3401C272.84 97.4401 275.87 97.5001 277.56 97.4001C278.17 97.3601 278.72 96.7001 279.18 95.8301Z" fill="#263238" stroke="#263238" stroke-linecap="round" stroke-linejoin="round"/>
<path d="M281.339 90.4302C281.339 90.4302 278.459 95.8402 277.109 96.8602C275.759 97.8802 280.389 100.1 281.229 100.1" fill="white"/>
<path d="M281.339 90.4302C281.339 90.4302 278.459 95.8402 277.109 96.8602C275.759 97.8802 280.389 100.1 281.229 100.1" stroke="#263238" stroke-linecap="round" stroke-linejoin="round"/>
<path d="M279.89 103.68C279.89 103.68 281.23 105.92 285.56 103.53" stroke="#263238" stroke-linecap="round" stroke-linejoin="round"/>
<path d="M292.06 98.2803C289.427 94.8583 286.157 91.9786 282.43 89.8003L282.14 90.4503C282.099 91.3144 282.125 92.1804 282.22 93.0403C282.49 94.7203 282.13 97.2903 283.72 98.2103C285.31 99.1303 287.38 99.8503 291.04 98.7803C291.404 98.6688 291.748 98.5 292.06 98.2803V98.2803Z" fill="#263238" stroke="#263238" stroke-linecap="round" stroke-linejoin="round"/>
<path d="M296.199 338.18L295.419 348.42H293.069L291.239 342.15L296.199 338.18Z" fill="#0987FF" stroke="#263238" stroke-linecap="round" stroke-linejoin="round"/>
<path d="M267.79 349.8C270.55 350.59 281.98 350.2 285.52 347.05C289.06 343.9 295.41 341.73 296.2 338.18C296.54 336.65 295.69 335.07 294.62 333.18C293.505 335.24 292.105 337.133 290.46 338.8C286.8 342.45 279.46 345.59 279.46 345.59L274.84 344.33C272.52 345.86 265 349 267.79 349.8Z" fill="#0987FF" stroke="#263238" stroke-linecap="round" stroke-linejoin="round"/>
<path d="M129 121.19C129 121.19 132.11 122.64 131.7 123.27C131.29 123.9 129 127 129 127L123 127.21C123 127.21 122 124.72 122.38 123.47C122.76 122.22 128.18 120.36 129 121.19Z" fill="white" stroke="#263238" stroke-linecap="round" stroke-linejoin="round"/>
<path d="M115.51 127.63C115.51 127.63 121.94 121.19 122.57 120.36C123.2 119.53 134.41 118.9 136.28 118.7C138.15 118.5 138.77 118.7 137.94 119.94C137.11 121.18 128.38 122.02 128.38 122.02L125.27 123.68L123.4 126H125.89C127.97 126 131.89 125.79 131.89 125.79C131.89 125.79 132.52 127.66 130.89 128.07C128.988 128.566 127.035 128.844 125.07 128.9C123.2 128.9 121.75 130.36 119.88 130.57C118.01 130.78 116.55 130.98 116.55 130.98C116.55 130.98 82.6903 152.76 81.0003 153.17C79.3103 153.58 58.7803 148.81 58.7803 148.81L62.7203 138.22L79.5503 140.71L115.51 127.63Z" fill="white" stroke="#263238" stroke-linecap="round" stroke-linejoin="round"/>
<path d="M36.4795 131.48C36.4795 131.48 38.7895 125.61 44.1495 126.48C49.5095 127.35 80.9995 137.91 80.9995 137.91L78.7095 154.68C78.7095 154.68 55.2095 151.24 48.7795 149.13C45.1294 148.031 41.864 145.924 39.3595 143.05" fill="#0987FF"/>
<path d="M36.4795 131.48C36.4795 131.48 38.7895 125.61 44.1495 126.48C49.5095 127.35 80.9995 137.91 80.9995 137.91L78.7095 154.68C78.7095 154.68 55.2095 151.24 48.7795 149.13C45.1294 148.031 41.864 145.924 39.3595 143.05" stroke="#263238" stroke-linecap="round" stroke-linejoin="round"/>
<path d="M216.92 346.76C216.92 349.36 170.38 351.46 112.92 351.46C55.4599 351.46 8.91992 349.36 8.91992 346.76C8.91992 344.16 55.4599 342.06 112.92 342.06C170.38 342.06 216.92 344.17 216.92 346.76Z" fill="#263238"/>
<path d="M70.9998 250.09C70.931 260.602 70.3135 271.103 69.1498 281.55C68.0198 290.9 67.1498 300.3 66.5298 309.69C66.1798 314.69 65.5298 319.63 65.5298 324.62C65.5298 326.71 65.1698 333.09 66.8198 334.75C68.681 336.604 70.6874 338.306 72.8198 339.84C75.5998 341.69 83.9198 343.08 82.5398 345.39C81.1598 347.7 61.7198 344.46 61.7198 344.46C61.7198 344.46 57.5598 345.85 55.2398 343.08C52.9198 340.31 58.0198 334.29 58.4798 329.2C58.9398 324.11 58.4798 312.08 57.0898 294.97C55.6998 277.86 58.4798 265.82 58.4798 265.82L56.6298 249.63L70.9998 250.09Z" fill="white" stroke="#263238" stroke-linecap="round" stroke-linejoin="round"/>
<path d="M63.9999 336C63.3218 336.859 62.6009 337.684 61.8399 338.47C61.8399 338.47 58.3699 336.98 56.1499 336.19C54.9999 339 53.9999 341.53 55.2399 343.08C57.5599 345.85 61.7199 344.46 61.7199 344.46C61.7199 344.46 81.1499 347.7 82.5399 345.39C83.9299 343.08 75.5999 341.69 72.8199 339.84C70.6875 338.306 68.6811 336.604 66.8199 334.75C66.2807 334.684 65.7336 334.765 65.2369 334.985C64.7403 335.205 64.3127 335.556 63.9999 336V336Z" fill="#263238" stroke="#263238" stroke-linecap="round" stroke-linejoin="round"/>
<path d="M62.1804 251.94C62.1804 251.94 61.7204 267.21 60.7904 271.84C59.8604 276.47 59.7104 282.58 45.0704 318.1C39.9404 330.53 38.7404 334.1 38.7404 334.1C38.7404 334.1 39.0604 339.84 46.7404 342.87C53.7404 345.64 53.2204 346.92 49.9804 346.92C46.7404 346.92 42.7404 348.13 37.6504 346.75C32.5604 345.37 30.4304 342.75 28.1204 341.86C24.3204 340.33 29.2204 335.03 30.3804 333.46C33.0404 329.89 34.5704 325.46 35.6504 321.15C40.2804 302.8 39.5104 292.15 41.3604 283.83C42.6068 278.606 44.9711 273.713 48.2904 269.49L45.0604 252.84L62.1804 251.94Z" fill="white" stroke="#263238" stroke-linecap="round" stroke-linejoin="round"/>
<path d="M49.9999 347C53.2399 347 53.7699 345.72 46.7599 342.95C39.0699 339.95 38.7599 334.18 38.7599 334.18L38.9899 333.55C38.6184 333.464 38.2308 333.477 37.8658 333.588C37.5008 333.698 37.1712 333.903 36.9099 334.18C36.0958 335.03 35.1628 335.758 34.1399 336.34L30.2799 333.71C28.9399 335.44 24.4599 340.46 28.1499 341.94C30.4599 342.87 32.5999 345.44 37.6799 346.83C42.7599 348.22 46.7499 347 49.9999 347Z" fill="#263238" stroke="#263238" stroke-linecap="round" stroke-linejoin="round"/>
<path d="M52.5597 112.1C52.5597 112.1 58.4197 120.46 65.0097 129.4C71.5997 138.34 73.1397 142.02 71.5397 147.4C69.9397 152.78 65.2997 160.61 65.5397 163.52C65.7797 166.43 69.1397 172.14 64.6297 173.72C54.4797 177.28 43.2297 170.95 43.2297 170.95C43.2297 170.95 39.7797 160.16 36.2297 146.95C32.6797 133.74 35.8497 123.43 39.5697 120.02C43.2897 116.61 48.7897 107.63 52.5597 112.1Z" fill="#0987FF" stroke="#263238" stroke-linecap="round" stroke-linejoin="round"/>
<path d="M37.8995 82.8903C43.3782 82.8903 47.8195 78.449 47.8195 72.9703C47.8195 67.4916 43.3782 63.0503 37.8995 63.0503C32.4208 63.0503 27.9795 67.4916 27.9795 72.9703C27.9795 78.449 32.4208 82.8903 37.8995 82.8903Z" fill="#263238" stroke="#263238" stroke-linecap="round" stroke-linejoin="round"/>
<path d="M77.4001 81.2002C77.4001 81.2002 84.1201 80.5602 85.0801 75.4402C86.0401 70.3202 78.0801 65.2102 74.8501 65.2102C73.3286 65.3074 71.8035 65.0895 70.3701 64.5702C70.3701 64.5702 61.7301 60.0902 52.4501 63.9302C43.1701 67.7702 40.3001 76.7202 42.2201 84.4002C44.1401 92.0802 49.5701 99.7602 57.2201 100.4C64.8701 101.04 77.4001 81.2002 77.4001 81.2002Z" fill="#263238" stroke="#263238" stroke-linecap="round" stroke-linejoin="round"/>
<path d="M72.4701 69.3804C69.9584 74.2222 65.8647 78.0582 60.8701 80.2504C52.5401 83.8704 43.8701 84.6004 43.1201 80.2504" stroke="white" stroke-linecap="round" stroke-linejoin="round"/>
<path d="M65.2195 67.21C65.2195 67.21 59.4195 79.89 50.7295 79.89" stroke="white" stroke-linecap="round" stroke-linejoin="round"/>
<path d="M73.3096 71.6202C73.3096 71.6202 83.3096 65.7602 82.2496 75.5402" stroke="white" stroke-linecap="round" stroke-linejoin="round"/>
<path d="M45.6496 67.9302C45.6496 67.9302 41.1196 74.6502 41.6496 79.5202" stroke="white" stroke-linecap="round" stroke-linejoin="round"/>
<path d="M64.9295 105.52C63.4981 108.414 62.5779 111.533 62.2095 114.74C62.037 117.424 62.3937 120.115 63.2595 122.66L52.4795 111.36C52.4795 111.36 53.2095 108.16 54.4795 102.95C55.7495 97.7404 56.0795 95.3804 56.0795 95.3804L64.9295 105.52Z" fill="white" stroke="#263238" stroke-linecap="round" stroke-linejoin="round"/>
<path d="M51.2504 106.65L64.1804 118.78L62.9404 130.28L46.6104 112.36L51.2504 106.65Z" fill="white" stroke="#263238" stroke-linecap="round" stroke-linejoin="round"/>
<path d="M73.3096 71.6201C73.3096 71.6201 79.0596 75.6201 80.1996 80.6201C81.3396 85.6201 80.0296 88.6801 81.1996 91.5201C82.3696 94.3601 84.9296 95.0101 83.0096 95.9501C81.0896 96.8901 78.5396 98.0501 78.5396 98.0501C78.5396 98.0501 76.0696 107.3 74.9996 109C73.9296 110.7 70.9996 109.67 67.3496 108C63.6996 106.33 56.2896 101.15 55.5996 99.5601C55.101 98.3314 54.6703 97.0762 54.3096 95.8001C54.3096 95.8001 73.6596 84.8301 73.3096 71.6201Z" fill="white" stroke="#263238" stroke-linecap="round" stroke-linejoin="round"/>
<path d="M59.4904 93C59.4904 93 56.6104 85 53.0904 87.56C49.5704 90.12 50.6204 93.9 54.2604 95.69C57.9004 97.48 59.1704 95.88 59.1704 95.88" fill="white"/>
<path d="M59.4904 93C59.4904 93 56.6104 85 53.0904 87.56C49.5704 90.12 50.6204 93.9 54.2604 95.69C57.9004 97.48 59.1704 95.88 59.1704 95.88" stroke="#263238" stroke-linecap="round" stroke-linejoin="round"/>
<path d="M75.32 89.8204C75.2 90.7104 75.4 91.4704 75.77 91.5104C76.14 91.5504 76.54 90.8804 76.65 90.0004C76.76 89.1204 76.57 88.3504 76.2 88.3004C75.83 88.2504 75.43 88.9304 75.32 89.8204Z" fill="#263238"/>
<path d="M76.3403 100.58C76.3403 100.58 72.6704 99.58 71.6104 97.23" stroke="#263238" stroke-linecap="round" stroke-linejoin="round"/>
<path d="M78.9303 85.12C78.9303 85.12 77.1503 82.12 75.0303 83.79" stroke="#263238" stroke-width="0.75" stroke-linecap="round" stroke-linejoin="round"/>
<path d="M43.2195 171C39.0617 179.748 35.3535 188.703 32.1095 197.83C27.4895 211.25 42.7495 256.58 42.7495 256.58H74.2095V202.45C74.2095 180.24 67.1195 170.06 67.1195 170.06C67.1195 170.06 59.4095 173.76 43.2195 171Z" fill="#263238" stroke="#263238" stroke-linecap="round" stroke-linejoin="round"/>
<path d="M141.12 158.24H136.01V128.86L141.12 124.21V158.24Z" fill="#263238" stroke="#263238" stroke-linecap="round" stroke-linejoin="round"/>
<path d="M157.982 100.117L153.21 96.8975L120.663 145.137L125.435 148.357L157.982 100.117Z" fill="#263238" stroke="#263238" stroke-width="1.00125" stroke-linecap="round" stroke-linejoin="round"/>
<path d="M170.589 134.47L135.689 140.68V154.09H182.319V144.29C182.315 142.833 181.993 141.394 181.374 140.075C180.755 138.755 179.856 137.587 178.739 136.652C177.621 135.716 176.313 135.036 174.905 134.659C173.498 134.283 172.025 134.218 170.589 134.47Z" fill="#263238" stroke="#263238" stroke-linecap="round" stroke-linejoin="round"/>
<path d="M182.32 152.18H101.84V168.79H182.32V152.18Z" fill="#263238" stroke="#263238" stroke-linecap="round" stroke-linejoin="round"/>
<path d="M216.51 175.47H73.5498V347.72H216.51V175.47Z" fill="#0987FF" stroke="#263238" stroke-linecap="round" stroke-linejoin="round"/>
<path d="M216.51 175.47H73.5498V182.2H216.51V175.47Z" fill="#263238" stroke="#263238" stroke-linecap="round" stroke-linejoin="round"/>
<path d="M69.8197 147.72L75.8897 154.15L125.54 164.86L138.04 161.65L147.68 168.43C145.18 169.15 138.39 166.29 138.39 166.29C138.39 166.29 134.82 168.79 131.25 168.79H120.54C120.54 168.79 76.2497 164.86 74.1097 164.86C71.9697 164.86 60.1797 155.58 60.1797 155.58L69.8197 147.72Z" fill="white" stroke="#263238" stroke-linecap="round" stroke-linejoin="round"/>
<path d="M41.0796 120.81C41.0796 120.81 46.0196 116.88 50.2096 120.36C54.3996 123.84 73.2596 146.74 73.2596 146.74L63.9296 160.13C63.9296 160.13 47.4196 147.29 42.9296 142.25C40.3153 139.466 38.5405 135.999 37.8096 132.25" fill="#0987FF"/>
<path d="M41.0796 120.81C41.0796 120.81 46.0196 116.88 50.2096 120.36C54.3996 123.84 73.2596 146.74 73.2596 146.74L63.9296 160.13C63.9296 160.13 47.4196 147.29 42.9296 142.25C40.3153 139.466 38.5405 135.999 37.8096 132.25" stroke="#263238" stroke-linecap="round" stroke-linejoin="round"/>
<path d="M223.759 167.96H69.1895V177.35H223.759V167.96Z" fill="white" stroke="#263238" stroke-linecap="round" stroke-linejoin="round"/>
</svg>
