<svg width="40" height="24" viewBox="0 0 40 24" fill="none" xmlns="http://www.w3.org/2000/svg">
<path fill-rule="evenodd" clip-rule="evenodd" d="M4.6199 0.119028C4.19836 0.371937 4.13904 0.499493 2.04055 5.66584C-0.0532442 10.8206 -0.123828 11.0291 0.0718028 11.4838C0.390055 12.2238 4.30204 13.6511 4.92501 13.2545C5.12017 13.1303 5.13871 13.139 6.60719 14.0436L8.09203 14.9582L7.94226 15.2787C7.3653 16.5134 8.27037 18.0023 9.67304 18.1259C10.1169 18.165 10.1238 18.1693 10.1756 18.4372C10.3493 19.3366 11.3198 20.1221 12.2575 20.1221C12.4358 20.1221 12.481 20.1635 12.5268 20.3691C12.7334 21.2975 13.5528 22.0002 14.4678 22.0338C14.7622 22.0446 14.8373 22.0766 14.8724 22.2059C15.0267 22.774 15.1294 22.9827 15.4034 23.2849C16.3183 24.2947 17.7932 24.2274 18.7673 23.1314L19.1403 22.7116L19.7394 23.1292C21.318 24.2295 23.1683 23.7762 23.6556 22.1698C23.7855 21.7417 23.7886 21.7386 24.0112 21.8139C25.1722 22.2071 26.8827 21.0847 26.8827 19.9297V19.6855L27.4891 19.6503C28.6289 19.5842 29.6976 18.6442 29.7001 17.7057C29.7004 17.5934 29.7893 17.5754 30.3456 17.5742C31.8867 17.5712 33.0082 16.1595 32.5677 14.7775L32.4512 14.412L32.973 14.0865C33.2601 13.9075 33.7573 13.5975 34.0778 13.3976L34.6607 13.0342L34.997 13.2127C35.5287 13.4948 35.7593 13.4524 37.6553 12.7243C40.4582 11.6479 40.4194 11.7424 39.2449 8.84807C38.3781 6.71214 38.3213 6.62495 37.8184 6.65809C37.2039 6.69846 37.2472 7.07185 38.1125 9.19691C38.5217 10.2019 38.8474 11.0302 38.8363 11.0377C38.7623 11.0873 35.7395 12.2163 35.6809 12.2162C35.6407 12.216 35.0351 10.805 34.335 9.08045C33.635 7.35585 32.7333 5.13615 32.3314 4.14763L31.6006 2.35036L33.2057 1.73333C34.0884 1.39391 34.8186 1.12511 34.8284 1.13606C34.8381 1.14693 35.2049 2.03648 35.6435 3.11288C36.5711 5.38921 36.7859 5.64349 37.3329 5.11213C37.6124 4.84068 37.6021 4.79955 36.6984 2.57886C35.4638 -0.455052 35.5632 -0.406782 32.7589 0.667035C30.6505 1.47441 30.2322 1.81208 30.419 2.55553C30.5309 3.00053 27.793 3.53638 26.4732 3.32778C25.2351 3.13212 25.0446 3.13143 24.8481 3.32231C23.823 4.31813 27.1656 5.01742 29.3476 4.26371C30.5935 3.8333 30.8687 3.74816 30.8999 3.78335C30.9623 3.85397 34.1613 11.8033 34.1607 11.8863C34.1603 11.9347 33.6089 12.3196 32.9352 12.7416L31.7101 13.5087L31.4679 13.3312C31.3347 13.2336 30.2045 12.4216 28.9563 11.5267L26.687 9.89969L26.1784 9.93648C23.7373 10.1133 22.0157 9.55541 20.3829 8.05848C19.4878 7.23787 18.9228 7.22966 17.9731 8.02343C16.2436 9.46905 14.7203 9.9453 13.5865 9.39493C12.723 8.97577 12.7436 8.76772 13.7127 8.12294C14.8017 7.39834 16.3261 6.17896 17.6957 4.93676C19.4204 3.37248 19.3848 3.38464 21.3268 3.69707C22.7937 3.93303 23.1266 3.85869 23.1266 3.29494C23.1266 2.0659 19.0876 2.10361 17.688 3.34572L17.1403 3.83185L16.8399 3.73075C16.0724 3.47252 14.8932 3.35918 11.5452 3.22212C10.8201 3.19247 9.52326 2.7531 9.57389 2.55431C9.83001 1.54868 5.65643 -0.502943 4.6199 0.119028ZM6.89681 1.77597L8.39127 2.35287L7.66102 4.14892C7.25935 5.13669 6.35796 7.35585 5.65792 9.08045C4.95787 10.805 4.35142 12.216 4.31026 12.2162C4.1194 12.2166 1.14511 11.0291 1.16913 10.962C1.80861 9.17927 5.18825 1.12329 5.2827 1.15674C5.34851 1.18 6.07492 1.45868 6.89681 1.77597ZM9.94379 4.05671C10.4681 4.26469 10.7837 4.34132 11.1931 4.35987C15.0507 4.53463 16.0839 4.62083 16.0839 4.76785C16.0839 4.91479 14.1232 6.44828 12.7444 7.37987C11.2604 8.38246 11.4706 9.73237 13.2331 10.5188C14.7043 11.1753 16.9172 10.5067 18.8425 8.82412C19.2069 8.50569 19.1168 8.4847 19.7396 9.03309C21.3424 10.444 23.0251 11.0833 25.2114 11.1119L26.3964 11.1275L27.2851 11.7635C31.5468 14.8139 31.4305 14.7126 31.4409 15.3845C31.453 16.156 30.558 16.6969 29.8289 16.3589C29.6933 16.2961 28.9661 15.7836 28.2129 15.22C26.7269 14.1081 26.5639 14.0394 26.214 14.3794C26.0231 14.5647 25.9781 14.7538 26.0696 14.9853C26.0959 15.0517 26.6237 15.4857 27.2427 15.9497C28.2 16.6672 28.3813 16.8363 28.4571 17.082C28.7334 17.9779 27.937 18.7266 26.9741 18.4762C26.8738 18.4501 26.2235 18.0058 25.529 17.489C24.0704 16.4036 23.7775 16.3204 23.5221 16.9193C23.3774 17.2586 23.5209 17.4415 24.5108 18.1795C25.8008 19.1411 26.0552 19.7089 25.4692 20.3183C24.7808 21.0341 24.3255 20.9082 22.4764 19.4913C21.6808 18.8816 21.357 18.7971 21.0819 19.1271C20.7481 19.5276 20.91 19.7913 21.9636 20.564C22.5872 21.0214 22.7268 21.4304 22.4518 21.9935C22.0835 22.7473 21.2685 22.8152 20.3789 22.1661C19.9073 21.822 19.9096 21.8336 20.2273 21.4076C21.1551 20.1634 20.1535 18.2305 18.5773 18.2233L18.2144 18.2217L18.1632 17.8895C18.0303 17.0289 17.055 16.2473 16.1121 16.2457C15.891 16.2453 15.8611 16.2172 15.8122 15.9637C15.647 15.1085 14.8776 14.4359 13.92 14.3097C13.5258 14.2577 13.5151 14.2495 13.4346 13.9389C13.1798 12.9559 12.2597 12.3139 11.2049 12.3832C10.4088 12.4354 10.1865 12.5819 9.10258 13.7682L8.83057 14.0658L8.17294 13.6494C7.81118 13.4203 7.10613 12.9842 6.60618 12.68L5.69704 12.1271L6.27353 10.7084C6.59053 9.92804 7.35176 8.04974 7.9651 6.53434C8.57845 5.01894 9.11674 3.77895 9.16127 3.77872C9.20579 3.77857 9.55793 3.90361 9.94379 4.05671ZM11.9818 13.7423C12.5354 14.2476 12.4166 14.6475 11.3512 15.8651C10.3217 17.0418 10.0357 17.1944 9.42983 16.8901C8.63314 16.4898 8.77439 15.9147 10.0137 14.5116C10.9612 13.4388 11.4429 13.2505 11.9818 13.7423ZM14.3495 15.7015C14.976 16.2699 14.6826 16.9018 13.0151 18.576C12.1286 19.4661 10.8044 18.5112 11.5149 17.4942C12.7271 15.7589 13.7205 15.1306 14.3495 15.7015ZM16.7776 17.7314C17.2399 18.2213 17.1418 18.547 16.2087 19.6212C15.0016 21.011 14.6394 21.1807 14.0153 20.6484C13.3744 20.1017 13.6448 19.5003 15.2897 17.8152C15.8109 17.2812 16.3257 17.2523 16.7776 17.7314ZM18.9001 19.4755C19.5472 19.8006 19.5572 20.4357 18.9267 21.1663C17.5001 22.8191 17.3089 22.964 16.7376 22.8247C15.9322 22.6284 15.8619 21.8436 16.5729 20.9843C17.8638 19.4239 18.2713 19.1596 18.9001 19.4755Z" fill="#2A3855"/>
</svg>
