<svg width="45" height="52" viewBox="0 0 45 52" fill="none" xmlns="http://www.w3.org/2000/svg">
<path fill-rule="evenodd" clip-rule="evenodd" d="M15.3082 0.163161C13.6472 0.693562 12.6941 2.04586 12.616 3.98298L12.5727 5.05759L10.2745 5.90579C6.36666 7.34804 6.12221 7.48024 5.48636 8.49596C4.73812 9.69099 4.67721 10.8401 5.2753 12.4746L5.61743 13.4096L3.30723 15.3892C0.0403181 18.1888 -0.530649 19.3871 0.406289 21.4782C0.80843 22.3757 4.13277 26.3568 4.33697 26.1854C4.42571 26.1109 4.68228 25.8863 4.90705 25.6864L5.31585 25.3228L3.63941 23.2729C0.698927 19.6772 0.706578 19.6104 4.42849 16.4274C5.31912 15.6657 6.07968 15.0425 6.11864 15.0425C6.15759 15.0425 7.68298 19.2345 9.50827 24.358C11.3336 29.4815 12.9314 33.9592 13.0589 34.3081C13.1864 34.6572 13.2752 34.9427 13.2562 34.9427C13.2372 34.9427 11.6663 33.0484 9.76523 30.7332C6.94061 27.2933 6.27941 26.5412 6.14875 26.6189C6.0608 26.6713 5.79599 26.887 5.56039 27.0981L5.13182 27.4819L11.9961 35.8574C20.2577 45.9378 19.8804 45.5707 21.8877 45.4815C23.1547 45.4252 23.4564 45.2363 26.6115 42.5242C28.0946 41.2493 29.3218 40.2213 29.3386 40.2397C29.5498 40.4709 29.688 41.1903 29.688 42.0586V43.0579L28.7192 43.0869L27.7504 43.116L27.7244 47.558L27.6986 52H28.4437H29.1887L29.2149 48.3195L29.2409 44.639L35.4265 44.6128L41.6122 44.5867V45.3996V46.2127H40.0223H38.4324V47.025V47.8372H40.0223H41.6122V48.5479V49.2586H40.7179H39.8235V50.0709V50.8832H40.7179H41.6122V51.4416V52H42.4082H43.2041L43.1783 47.558L43.1524 43.116L42.1835 43.0869L41.2147 43.0579V40.7234V38.3889L43.1073 33.2547L45 28.1205L44.1955 25.7224C43.2451 22.8893 43.4549 23.1978 42.6619 23.4675C41.8678 23.7375 41.8645 23.5259 42.7026 26.0297L43.3957 28.1L41.5102 33.2155L39.6248 38.3311V40.6982V43.0652H35.4017H31.1786V41.8611V40.6569L30.5776 39.3062C28.6632 35.0034 29.4473 31.1816 32.7366 28.7833L33.3646 28.3253L33.3668 24.9583C33.3696 20.6124 33.5591 20.1191 35.2255 20.1191C36.859 20.1191 36.9419 20.42 36.9419 26.3517V31.2876H37.7435H38.5452L38.5113 26.2871C38.472 20.4741 38.4863 20.567 37.4731 19.5318L36.9419 18.989V17.2048V15.4207L37.8113 15.4892C39.4352 15.6173 39.1192 15.188 40.3651 18.9584C40.9636 20.7695 41.4955 22.2513 41.5473 22.2513C41.6194 22.2513 42.7708 21.8581 42.8749 21.7978C42.8864 21.7913 42.3274 20.0744 41.6328 17.9827L40.3701 14.1795L38.6808 14.0272L36.9916 13.8749L36.9419 8.33909L36.8922 2.80329L36.5656 2.12566C35.7501 0.433438 34.9504 0.0828498 31.7996 0.0358406L29.3899 0V0.769406V1.53881H31.4525C34.159 1.53881 34.6739 1.7106 35.1997 2.78856L35.4514 3.30475V10.9283V18.5519L34.9687 18.5734C33.7537 18.6274 32.6893 19.3888 32.1454 20.593C31.9348 21.0591 31.9213 21.2447 31.8741 24.3037L31.8244 27.5239L31.271 28.0096C29.4792 29.5824 28.4349 31.5733 28.047 34.1558L27.9898 34.5366H21.9297C15.3138 34.5366 15.4689 34.5495 14.8486 33.9474C14.5965 33.7028 14.2861 33.2182 14.2861 33.0694C14.2861 33.0387 15.4263 33.0136 16.8199 33.0136H19.3538V32.2521V31.4906H16.7206H14.0873V30.6784V29.8661H15.9256H17.7639V29.1046V28.3431H15.9256H14.0873V23.825V19.3068H13.3431H12.5989L12.573 23.8457L12.5471 28.3846L9.48382 19.7747C5.73508 9.23866 5.75197 9.34892 7.75661 8.49565C8.20287 8.30569 12.4856 6.71692 12.5514 6.71692C12.5763 6.71692 12.5968 9.20698 12.5968 12.2504V17.7839H13.3395H14.0823L14.1096 10.499C14.1471 0.525121 13.2195 1.60125 21.8132 1.56125L27.8994 1.53282V0.774381V0.0158389L21.8132 0.0226415C17.0724 0.0279212 15.6343 0.0589898 15.3082 0.163161ZM20.8443 32.2521V33.0136H21.5896H22.3348V32.2521V31.4906H21.5896H20.8443V32.2521ZM23.8254 32.2521V33.0136H24.5706H25.3159V32.2521V31.4906H24.5706H23.8254V32.2521ZM21.717 36.0595C25.0845 36.0595 27.7974 36.0978 27.7454 36.1445C27.5629 36.3088 18.7032 39.5416 18.3095 39.5876C17.0915 39.7297 16.374 39.0964 15.7359 37.316C15.2163 35.8663 15.2277 35.9159 15.4369 35.9979C15.5234 36.0318 18.3494 36.0595 21.717 36.0595ZM28.4614 38.1156C28.5606 38.4087 28.6424 38.676 28.6432 38.7095C28.6463 38.8347 22.8684 43.7111 22.5616 43.8422C21.3846 44.3456 20.5668 43.9214 19.0137 42.0016L18.3585 41.1918L18.881 41.0641C19.2508 40.9739 28.0964 37.7019 28.2641 37.5934C28.2733 37.5874 28.3621 37.8224 28.4614 38.1156ZM35.4514 47.025V47.8372H36.1966H36.9419V47.025V46.2127H36.1966H35.4514V47.025Z" fill="#FF695F"/>
</svg>
