<svg width="45" height="44" viewBox="0 0 45 44" fill="none" xmlns="http://www.w3.org/2000/svg">
<path fill-rule="evenodd" clip-rule="evenodd" d="M23.7237 0.143232C22.9677 0.537661 22.7442 0.922884 22.4443 2.34877C21.9016 4.92798 22.7426 6.25668 24.69 5.89656C26.4989 5.56206 27.6407 1.66232 26.2597 0.53549C25.6599 0.0461225 24.3098 -0.162688 23.7237 0.143232ZM12.2628 1.2407C11.0982 1.72668 11.0647 1.77202 8.02198 6.99108L5.33813 11.5946L4.13244 11.6413C1.69009 11.7357 1.10216 12.42 1.05557 15.2223C1.01099 17.9041 1.54179 18.8422 3.26363 19.1247L3.83225 19.2179L3.70861 19.5647C3.52714 20.0738 3.53329 23.2474 3.7166 23.6815C3.78899 23.8531 3.84822 24.0081 3.84822 24.0262C3.84822 24.0442 3.48028 24.059 3.03056 24.059C0.647968 24.059 -0.0483311 24.9731 0.00256409 28.034L0.0310829 29.7483L0.303021 30.226C0.606462 30.7592 1.22677 31.279 1.74186 31.4317L2.07567 31.5307L1.90271 31.9814C1.65596 32.624 1.69123 35.7264 1.95115 36.2442C2.04188 36.425 2.10111 36.5843 2.08277 36.5982C2.06435 36.6121 1.90245 36.7109 1.72282 36.8178C-0.234362 37.9827 -0.148981 42.6967 1.84716 43.6841L2.38446 43.9499H13.413H24.4416L24.9788 43.6841C25.4066 43.4725 25.9702 42.9602 26.0897 42.6742C26.0935 42.6652 26.5374 42.8329 27.0763 43.0466C39.5928 48.012 50.7684 32.4409 41.6959 22.6769C40.5787 21.4745 39.7088 22.3265 40.7615 23.592C49.8856 34.5595 35.1064 49.0608 24.2397 39.8031C13.4611 30.6204 26.2737 13.8698 38.2855 21.4403C39.2488 22.0474 40.0615 21.288 39.2545 20.5347C37.524 18.9191 32.9081 17.9111 29.7085 18.45C28.7621 18.6093 28.7609 18.6093 28.5677 18.4298C28.2566 18.1407 27.6173 17.896 27.1679 17.8939C26.7022 17.8917 26.7048 17.8961 26.8801 17.4142C27.0696 16.8938 27.0655 13.9023 26.8746 13.3478C26.4376 12.0784 25.6586 11.6983 23.3741 11.6396L21.6205 11.5946L18.9352 6.99108C15.3973 0.925577 14.6212 0.25667 12.2628 1.2407ZM25.1493 1.43544C25.7277 1.67465 25.7382 1.84507 25.2608 3.25168C24.765 4.7124 23.5019 5.265 23.5046 4.02004C23.5088 2.13119 24.2011 1.04327 25.1493 1.43544ZM14.3344 2.50912C14.9285 2.78194 15.1429 3.10506 18.087 8.16368C21.3706 13.8054 21.39 13.8519 20.8775 14.8382C20.4316 15.696 19.922 15.9209 18.327 15.9639C17.1885 15.9944 17.0338 16.017 16.8572 16.1784L16.6598 16.3588V21.558C16.6598 28.3651 17.017 27.6533 13.5826 27.6892C9.99662 27.7267 10.3972 28.469 10.3417 21.6843L10.2979 16.313L10.0907 16.147C9.91344 16.005 9.73706 15.9811 8.86745 15.9811C8.30866 15.9811 7.62587 15.9349 7.35025 15.8786C6.76969 15.7599 6.44019 15.8948 6.33937 16.2925C6.18203 16.913 6.70678 17.2051 8.08691 17.2653L9.03488 17.3066L9.00829 17.5776L8.98161 17.8485H6.11411C2.30241 17.8485 2.41693 17.9203 2.37288 15.5046C2.33356 13.3526 2.59497 12.9477 4.02679 12.9429L4.60033 12.941L4.56646 13.7878C4.52644 14.7904 4.67922 15.1125 5.19519 15.1125C5.74135 15.1125 5.84586 14.9503 5.8799 14.0494L5.91035 13.245L8.79523 8.29397C12.5064 1.92507 12.6763 1.74762 14.3344 2.50912ZM31.3141 3.96375C30.1409 4.3422 28.4183 6.39808 28.4183 7.41955C28.4183 8.93604 30.0547 9.99051 31.3579 9.31388C31.8142 9.07701 33.5826 7.50554 33.7913 7.1515C34.6189 5.74768 32.848 3.46883 31.3141 3.96375ZM32.3445 5.5803C32.9368 6.14445 32.8601 6.37368 31.762 7.32201C30.7532 8.1933 30.5846 8.27912 30.1984 8.11834C29.5967 7.86792 29.58 7.36414 30.1514 6.69645C31.5111 5.10752 31.7307 4.99573 32.3445 5.5803ZM34.3853 11.3271C32.4791 11.9713 32.0161 12.4019 32.0161 13.5307C32.0161 15.3073 33.1298 15.8945 35.5779 15.4089C37.6578 14.9962 38.3279 14.2066 37.9296 12.6372C37.5131 10.996 36.4873 10.6169 34.3853 11.3271ZM36.383 12.4415C37.1302 13.2289 36.7519 13.8308 35.3268 14.1221C33.7282 14.4488 33.4556 14.3853 33.3621 13.6643C33.2677 12.9364 35.8577 11.8881 36.383 12.4415ZM25.1595 13.1928C25.6332 13.5272 25.6981 13.7957 25.6981 15.4236C25.6981 17.935 25.8655 17.8401 21.3763 17.8749L17.976 17.9013V17.6038V17.3063L18.9198 17.2678C21.1438 17.1771 22.6029 15.636 22.4144 13.577L22.355 12.928L23.6098 12.9562C24.7691 12.9822 24.8868 13.0002 25.1595 13.1928ZM9.02549 21.6269V24.059L7.46792 24.0588C5.00582 24.0587 4.90123 23.9599 4.90123 21.6345C4.90123 19.2449 4.95063 19.1963 7.38017 19.1955L9.02549 19.1949V21.6269ZM25.9872 19.7076C24.2704 20.5959 22.5447 22.0419 21.5299 23.4426L21.0912 24.0483L19.5336 24.0536L17.976 24.059V21.6269V19.1949L22.4732 19.1969L26.9704 19.1989L25.9872 19.7076ZM30.3781 22.3636C23.2125 23.6505 20.4615 32.344 25.6079 37.4377C29.9302 41.7155 37.2682 40.4931 39.9602 35.0468C43.1782 28.5364 37.5425 21.0768 30.3781 22.3636ZM33.985 23.8398C39.7232 25.5075 41.4813 32.5434 37.1789 36.6207C32.8483 40.7248 25.5272 38.3856 24.4088 32.5407C23.3597 27.0577 28.618 22.2799 33.985 23.8398ZM31.4018 25.0145C31.2734 25.1415 31.2263 25.304 31.2263 25.6191V26.0501L30.8534 26.1482C28.1152 26.8687 27.8994 29.7344 30.4962 30.8921L31.2263 31.2175V33.0236C31.2263 34.5438 31.2061 34.8296 31.099 34.8296C30.7866 34.8296 30.0061 34.6165 29.6278 34.428C28.7841 34.0073 28.0413 34.4798 28.4265 35.1922C28.6138 35.5386 30.2185 36.1325 30.9674 36.1325C31.2223 36.1325 31.2263 36.1398 31.2263 36.6039C31.2263 37.7549 32.4397 37.7411 32.524 36.5893L32.5622 36.0647L32.8815 36.0122C36.2046 35.4656 36.3401 31.4079 33.0691 30.3952L32.5864 30.2458L32.5624 28.8006L32.5383 27.3553L32.7818 27.4085C32.9157 27.4378 33.2164 27.5561 33.4501 27.6713C34.1517 28.0173 34.7363 27.8282 34.7363 27.2554C34.7363 26.8216 33.8055 26.2245 32.9254 26.0939L32.5426 26.0371V25.6521C32.5426 24.9665 31.8445 24.5763 31.4018 25.0145ZM9.02637 26.2956C9.0276 27.6255 9.37395 28.2769 10.3648 28.8129C10.7168 29.0033 15.643 29.0951 16.2649 28.9229C17.3622 28.619 17.9124 27.7812 17.9616 26.3391L17.995 25.3619H19.1263C19.7485 25.3619 20.2575 25.3733 20.2575 25.3873C20.2575 25.4012 20.1058 25.7823 19.9204 26.2341C19.5419 27.1562 19.2591 28.149 19.1172 29.0534C19.0647 29.3878 19.0018 29.789 18.9773 29.945L18.9329 30.2286L10.4749 30.2056L2.01696 30.1826L1.74599 29.9257C1.34611 29.5464 1.28653 29.2252 1.31864 27.6202C1.36568 25.27 1.17956 25.3665 5.66904 25.3639L9.02549 25.3619L9.02637 26.2956ZM31.2263 28.5757C31.2263 29.8103 31.232 29.7999 30.6996 29.5311C29.7842 29.0688 29.7675 28.1528 30.6651 27.6434C31.228 27.324 31.2263 27.3213 31.2263 28.5757ZM18.979 32.2455C19.0995 33.5017 19.5396 35.2053 20.0339 36.3279C20.1335 36.554 4.27478 36.5648 3.7939 36.339C2.86849 35.9042 2.68571 32.6314 3.54522 31.8845L3.85436 31.6158H11.3865H18.9186L18.979 32.2455ZM33.3128 31.8933C34.651 32.5157 34.3031 34.2169 32.74 34.6942L32.5426 34.7545V33.1793V31.6041L32.74 31.6614C32.8486 31.6929 33.1064 31.7973 33.3128 31.8933ZM20.9988 38.0651C21.5822 39.0648 23.0569 40.6162 24.2721 41.5087C25.0054 42.0473 24.9911 42.0147 24.6393 42.3484L24.3703 42.6035L13.5094 42.6263L2.64867 42.649L2.34901 42.4508C1.79337 42.0833 1.73344 41.845 1.76134 40.1124C1.80311 37.5181 0.661656 37.7831 11.7926 37.783L20.834 37.7828L20.9988 38.0651Z" fill="#FF695F"/>
</svg>
