<?xml version="1.0" encoding="UTF-8"?>
<svg width="330px" height="33px" viewBox="0 0 330 33" version="1.1" xmlns="http://www.w3.org/2000/svg" xmlns:xlink="http://www.w3.org/1999/xlink">
    <title>Cinemark</title>
    <g id="Cinemark" stroke="none" stroke-width="1" fill="none" fill-rule="evenodd">
        <g fill="#A53336" id="Fill-1">
            <path d="M43.79,2.582 L47.426,2.582 L47.426,20.622 L40.15,20.622 L40.15,2.582 L43.79,2.582 Z M78.924,7.528 L83.798,11.821 L83.43,2.582 L90.779,2.582 L90.779,20.622 L84.522,20.622 L78.924,15.676 L74.048,11.383 L74.415,20.622 L67.064,20.622 L67.064,2.582 L73.248,2.582 L78.924,7.528 Z M118.274,16.839 L126.057,16.839 L126.057,20.622 L110.416,20.622 L110.416,2.582 L125.984,2.582 L125.984,6.437 L117.691,6.437 L117.691,9.564 L125.257,9.564 L125.257,13.419 L117.691,13.419 L117.691,16.839 L118.274,16.839 Z M213.488,2.654 L217.27,2.654 L226.728,20.694 L219.528,20.694 L218.143,17.712 L208.76,17.712 L207.451,20.694 L200.177,20.694 L209.705,2.654 L213.488,2.654 Z M213.488,14.511 L216.69,14.511 L213.488,7.386 L210.289,14.511 L213.488,14.511 Z M252.55,5.565 L252.694,5.64 L253.059,5.64 L253.347,5.708 L253.713,5.784 L254.003,5.928 L254.223,5.999 L254.513,6.147 L254.728,6.293 L254.876,6.508 L255.095,6.728 L255.167,6.872 L255.313,7.166 L255.386,7.386 L255.386,7.676 L255.461,7.966 L255.386,8.256 L255.386,8.549 L255.313,8.766 L255.167,8.983 L255.023,9.201 L254.876,9.419 L254.657,9.564 L254.442,9.785 L254.223,9.929 L253.932,10.073 L253.642,10.148 L253.279,10.217 L252.914,10.292 L252.55,10.364 L249.712,10.364 L249.712,5.565 L252.55,5.565 Z M252.55,13.275 L252.769,13.275 L252.914,13.419 L253.059,13.494 L253.347,13.638 L253.642,13.857 L253.932,14.147 L254.223,14.438 L254.513,14.732 L254.805,15.096 L255.023,15.53 L255.313,15.966 L255.532,16.401 L255.82,16.911 L256.115,17.42 L256.405,18.002 L257.714,20.694 L264.844,20.694 L262.367,15.891 L261.933,15.163 L261.57,14.511 L261.35,14.147 L261.204,13.857 L260.985,13.638 L260.769,13.348 L260.624,13.128 L260.404,12.913 L260.189,12.694 L259.97,12.546 L259.75,12.404 L259.46,12.255 L259.241,12.112 L258.951,12.036 L259.387,11.821 L259.75,11.675 L260.114,11.456 L260.404,11.241 L260.699,11.021 L260.985,10.802 L261.423,10.364 L261.642,10.073 L261.862,9.785 L261.933,9.495 L262.079,9.201 L262.148,8.835 L262.223,8.549 L262.296,8.181 L262.296,7.528 L262.223,7.311 L262.223,7.018 L262.148,6.801 L262.148,6.508 L262.003,6.293 L261.933,6.074 L261.862,5.784 L261.713,5.565 L261.57,5.345 L261.423,5.128 L261.277,4.911 L261.06,4.765 L260.842,4.55 L260.624,4.326 L260.404,4.182 L260.114,3.965 L259.822,3.821 L259.606,3.672 L259.312,3.526 L258.951,3.382 L258.658,3.236 L258.297,3.163 L257.931,3.021 L257.498,2.946 L257.134,2.873 L256.695,2.802 L256.259,2.729 L255.751,2.729 L255.313,2.654 L242.438,2.654 L242.438,20.694 L249.712,20.694 L249.712,13.128 L252.112,13.128 L252.259,13.204 L252.404,13.204 L252.55,13.275 Z M43.79,24.111 L15.711,24.111 L15.348,24.04 L14.982,24.04 L14.621,23.967 L14.257,23.896 L13.894,23.75 L13.602,23.677 L13.309,23.533 L13.019,23.386 L12.656,23.167 L12.44,23.023 L12.15,22.806 L11.856,22.586 L11.565,22.442 L11.275,22.152 L11.06,21.929 L10.841,21.713 L10.622,21.423 L10.402,21.204 L10.183,20.914 L10.037,20.622 L9.822,20.331 L9.747,20.041 L9.529,19.677 L9.454,19.385 L9.31,19.022 L9.239,18.656 L9.164,18.364 L9.093,18.002 L9.02,17.639 L9.02,16.182 L9.093,15.823 L9.164,15.457 L9.239,15.096 L9.31,14.801 L9.454,14.438 L9.603,14.072 L9.747,13.784 L9.893,13.494 L10.037,13.204 L10.256,12.913 L10.473,12.621 L10.693,12.404 L10.912,12.112 L11.127,11.821 L11.351,11.6 L11.636,11.383 L11.931,11.165 L12.219,10.946 L12.804,10.656 L13.094,10.439 L13.384,10.292 L13.748,10.148 L14.111,10.073 L14.477,10.002 L14.767,9.854 L15.13,9.785 L17.239,9.785 L17.603,9.854 L17.966,9.929 L18.259,10.073 L18.622,10.148 L18.912,10.292 L19.205,10.364 L19.495,10.512 L19.785,10.656 L20.075,10.877 L20.366,11.021 L20.658,11.241 L20.875,11.456 L21.167,11.675 L24.806,3.236 L23.93,2.654 L23.425,2.363 L22.911,2.144 L22.402,1.925 L21.896,1.783 L21.311,1.563 L20.804,1.415 L20.224,1.2 L19.712,1.125 L19.131,0.981 L18.622,0.91 L18.041,0.839 L17.455,0.764 L16.803,0.764 L16.295,0.69 L15.42,0.764 L14.548,0.839 L13.748,0.91 L12.948,1.056 L12.15,1.2 L11.421,1.49 L10.622,1.709 L9.893,2 L9.239,2.363 L8.51,2.654 L7.857,3.092 L7.13,3.526 L6.547,3.965 L5.967,4.475 L5.309,4.911 L4.729,5.494 L4.219,6.074 L3.709,6.657 L3.273,7.237 L2.766,7.891 L2.402,8.549 L1.963,9.201 L1.602,9.929 L1.31,10.656 L1.02,11.383 L0.729,12.112 L0.506,12.84 L0.364,13.638 L0.22,14.438 L0.071,15.238 L0,16.111 L0,17.712 L0.071,18.587 L0.22,19.385 L0.364,20.185 L0.506,20.985 L0.729,21.713 L0.944,22.442 L1.239,23.167 L1.602,23.896 L1.963,24.549 L2.327,25.203 L2.766,25.859 L3.202,26.512 L3.709,27.097 L4.219,27.68 L4.729,28.185 L5.309,28.694 L5.892,29.204 L6.477,29.714 L7.13,30.147 L7.781,30.514 L8.439,30.877 L9.164,31.243 L9.893,31.606 L10.622,31.895 L11.351,32.116 L12.15,32.335 L12.875,32.479 L13.677,32.625 L14.477,32.768 L15.348,32.768 L16.149,32.841 L154.788,32.841 L154.424,16.62 L154.569,16.545 L165.045,27.751 L175.667,16.545 L175.736,16.62 L175.448,32.841 L329.796,32.841 L296.045,10.073 L305.067,2.219 L297.064,2.219 L287.611,10.439 L287.611,2.219 L280.334,2.219 L280.334,20.622 L287.611,20.622 L287.611,11.821 L305.722,24.111 L184.611,24.111 L184.611,2.582 L176.754,2.582 L165.045,14.876 L153.48,2.582 L145.625,2.582 L145.625,24.111 L43.79,24.111 L43.79,24.111 Z"></path>
        </g>
    </g>
</svg>