<svg width="45" height="45" viewBox="0 0 45 45" fill="none" xmlns="http://www.w3.org/2000/svg">
<path fill-rule="evenodd" clip-rule="evenodd" d="M21.5493 0.0471927C19.1917 0.339402 16.4496 2.36445 15.8176 4.28003C15.7996 4.33448 15.5964 4.29112 15.3315 4.17635C9.90483 1.82497 3.8302 7.21442 5.4709 12.9248C5.5044 13.0413 5.36773 13.1231 4.86894 13.2851C-0.529438 15.0389 -1.75044 22.5711 2.78703 26.1274L3.15598 26.4167L2.94235 26.7747C-0.0895243 31.8564 3.35245 38.1815 9.14977 38.1815H9.91286L9.97109 38.7447C10.5397 44.2415 17.5636 46.9674 21.8668 43.3613L22.4897 42.8393L23.1044 43.3516C27.4461 46.9699 34.4365 44.2714 35.007 38.7569L35.064 38.2057L36.1825 38.1577C41.7393 37.9193 45.118 31.4261 42.0643 26.8545L41.7935 26.449L42.3318 26.0129C46.7374 22.4427 45.4727 15.1758 40.1157 13.2802C39.7858 13.1635 39.5097 13.0648 39.5022 13.0608C39.4946 13.0569 39.545 12.7601 39.6141 12.4011C40.7068 6.72912 34.871 1.91308 29.6478 4.17635C29.3829 4.29112 29.1797 4.33448 29.1617 4.28003C28.3069 1.68893 24.6608 -0.338348 21.5493 0.0471927ZM24.1508 1.77723C25.9022 2.30356 27.4727 3.81691 27.9402 5.42891C28.2075 6.35085 28.5657 6.44316 29.7009 5.8827C34.5423 3.49216 39.5759 7.8945 37.853 13.0126C37.4944 14.0778 37.6366 14.3118 38.7855 14.5477C43.9264 15.6035 45.1911 22.62 40.7171 25.2636C39.6624 25.8868 39.6191 26.109 40.3603 27.0932C43.8001 31.6602 40.4111 37.0593 34.4533 36.5036C33.7752 36.4404 33.5636 36.7263 33.5636 37.7056C33.5636 42.9206 27.3121 45.4067 23.6156 41.6616C22.4867 40.5178 22.5109 40.5169 21.2855 41.7498C17.6957 45.3617 11.718 43.0049 11.4378 37.8674C11.3965 37.1091 11.353 36.9062 11.1914 36.7164C10.9749 36.4622 11.0004 36.4645 9.47775 36.5537C4.39507 36.8516 1.43195 30.9879 4.67588 27.0513C5.36902 26.2102 5.29658 25.915 4.22674 25.2216C-0.0156056 22.4721 0.957151 15.8766 5.78762 14.6382C6.11689 14.5539 6.54176 14.4444 6.73177 14.3951C7.33115 14.2394 7.41725 13.9155 7.10745 12.9819C5.42153 7.90103 10.5796 3.43846 15.3171 5.87906C16.3854 6.42954 16.7634 6.32652 17.0439 5.40821C17.899 2.60892 21.2393 0.902375 24.1508 1.77723ZM20.8286 7.79418C10.0959 9.18996 4.43752 21.262 10.2676 30.326C17.8523 42.1177 35.772 37.5272 36.9789 23.4834C37.7543 14.461 29.7034 6.63998 20.8286 7.79418ZM24.5199 9.41998C34.8863 11.0947 39.112 23.9234 31.7986 31.518C24.9722 38.6071 13.1657 35.8388 10.1245 26.4359C7.13625 17.1968 15.0145 7.88434 24.5199 9.41998ZM19.9519 15.6085C18.3279 16.3698 18.0335 19.1778 19.4492 20.4022C21.2369 21.9482 23.5495 19.7946 22.864 17.2222C22.5018 15.8637 21.0838 15.0779 19.9519 15.6085ZM21.2134 17.2974C21.6795 17.9312 21.3874 19.3007 20.7861 19.3007C20.0788 19.3007 19.815 17.774 20.4172 17.1657C20.6308 16.9498 21.0031 17.0114 21.2134 17.2974ZM22.0441 21.7948C17.2255 26.6499 17.1324 26.7735 17.8902 27.3098C18.4384 27.6978 18.3277 27.7891 22.9352 23.1468C27.7162 18.3297 27.7245 18.319 27.1663 17.6924C26.6611 17.1254 26.746 17.0575 22.0441 21.7948ZM23.8278 23.9072C21.187 24.5838 21.5093 29.3238 24.1962 29.3238C27.0228 29.3238 27.2372 24.2818 24.4276 23.8822C24.25 23.8568 23.98 23.8681 23.8278 23.9072ZM24.6783 25.7713C25.1913 26.5424 24.7044 28.0881 24.0585 27.7388C23.5857 27.4831 23.3889 26.6739 23.6387 26.0129C23.8991 25.324 24.3161 25.227 24.6783 25.7713Z" fill="#FF695F"/>
</svg>
