<?xml version="1.0" encoding="UTF-8"?>
<svg width="108px" height="22px" viewBox="0 0 108 22" version="1.1" xmlns="http://www.w3.org/2000/svg" xmlns:xlink="http://www.w3.org/1999/xlink">
    <title>Domino's</title>
    <g id="Symbols" stroke="none" stroke-width="1" fill="none" fill-rule="evenodd">
        <g id="marcas-/-parceiros-final-copy-3" transform="translate(-866.000000, -6.000000)">
            <g id="Domino's" transform="translate(866.000000, 6.000000)">
                <path d="M69.2217423,7 C70.2949892,7 71.1649485,7.92736355 71.1649485,9.07142857 C71.1649485,10.2154936 70.2949892,11.1428571 69.2217423,11.1428571 C68.1484955,11.1428571 67.2783505,10.2154936 67.2783505,9.07142857 C67.2783505,7.92736355 68.1484955,7 69.2217423,7 Z M95.3501825,14.5697871 C95.4469419,11.1365056 100.57719,10.8232514 103.551086,12.7592874 L102.452722,15.0815138 C101.428564,14.3161724 100.541724,13.9591174 99.413895,14.0582559 C98.3439034,14.1523104 98.2284106,15.4043494 99.9631682,15.3570288 C102.672249,15.2833105 104.134007,16.8141887 103.990323,18.781511 C103.758246,21.9582447 99.1036102,23.2585819 95.0206186,20.4739048 L96.5216622,18.112375 C97.6567663,18.8133839 98.7880509,19.4396967 99.9266106,19.2930421 C101.108276,19.141108 101.704473,18.1164813 99.5970467,17.8761634 C96.7266394,17.5486348 95.293982,16.5638982 95.3501825,14.5697871 Z M72.5051546,22 L72.5051546,12.2262689 L75.8359495,12.2262689 L75.8359495,13.5976779 C77.1281802,11.3076984 82.1531761,11.2735108 82.1537248,14.8499189 L82.1546392,22 L78.833354,22 L78.7964123,17.0855891 C78.7817819,15.1204889 78.1128065,14.9354854 77.2106591,15.0441042 C76.4623138,15.1343593 75.7920583,15.4246604 75.7920583,17.0855891 L75.7920583,22 L72.5051546,22 Z M67.4123711,22 L70.8969072,22 L70.8969072,12 L67.4123711,12 L67.4123711,22 Z M50.5257732,21.8571429 L50.5257732,12.141133 L53.8792775,12.141133 L53.8792775,13.5044428 C54.88369,11.7362183 58.7569847,10.8735656 59.8694797,13.6157215 C61.4502096,11.1240883 66.0738216,11.2376975 66.0721649,14.6232501 L66.0686661,21.8571429 L62.5137269,21.8571429 L62.5137269,16.5417883 C62.5137269,15.1138086 62.2830159,14.9770892 61.1452954,15.030301 C60.2141654,15.0738027 60.0022353,15.8880987 59.9981845,16.8127024 L59.9759051,21.8571429 L56.6319754,21.8571429 L56.5947818,16.9717552 C56.5800516,15.0182604 56.1734993,14.8518279 55.2633598,14.9423268 C54.361506,15.0322431 53.9676584,15.1641074 53.9676584,16.9717552 L53.9676584,21.8571429 L50.5257732,21.8571429 Z M44.4947531,11.4285714 C47.2335366,11.4285714 49.4536082,13.7951741 49.4536082,16.7142857 C49.4536082,19.633594 47.2335366,22 44.4947531,22 C41.7561542,22 39.5360825,19.633594 39.5360825,16.7142857 C39.5360825,13.7951741 41.7561542,11.4285714 44.4947531,11.4285714 Z M44.4277404,14.7142857 C45.4270396,14.7142857 46.2371134,15.5776144 46.2371134,16.6428571 C46.2371134,17.7080999 45.4270396,18.5714286 44.4277404,18.5714286 C43.4286305,18.5714286 42.6185567,17.7080999 42.6185567,16.6428571 C42.6185567,15.5776144 43.4286305,14.7142857 44.4277404,14.7142857 Z M26,22 L26,8.14285714 L29.8764722,8.14285714 C31.1065492,8.14285714 32.1594023,8.21386324 33.0291425,8.35607104 C33.8988827,8.49827884 34.6101705,8.71794784 35.1538041,9.01507803 C36.3093476,9.64513488 37.1914181,10.4819505 37.8095851,11.5223952 C38.4244395,12.5626443 38.7319588,13.7484266 38.7319588,15.0795463 C38.7319588,16.4073408 38.4244395,17.5866679 37.8125296,18.6204619 C37.2008038,19.6544515 36.3154207,20.4910716 35.1538041,21.1275835 C34.5915831,21.4313644 33.8740382,21.6541631 33.0074266,21.7932412 C32.1408149,21.9321236 30.9760697,22 29.5223927,22 L26,22 Z M29.7525773,18.2857143 L29.7525773,11.7142857 L31.3440354,11.7142857 C31.848996,11.7142857 32.2810794,11.7481114 32.6382512,11.8153695 C32.9952379,11.8828242 33.2873012,11.9870546 33.5103717,12.1280605 C33.9848126,12.4267887 34.3469785,12.8236506 34.6007535,13.3168765 C34.8532338,13.8102991 34.9793814,14.372553 34.9793814,15.0038349 C34.9793814,15.6335435 34.8532338,16.1928475 34.6018633,16.6831235 C34.3508628,17.1733995 33.9872172,17.5700648 33.5103717,17.8719395 C33.2795326,18.016092 32.9850647,18.121699 32.6293727,18.1875804 C32.2734958,18.2534619 31.7953555,18.2857143 31.1986512,18.2857143 L29.7525773,18.2857143 Z M88.1856593,11.4285714 C90.9242582,11.4285714 93.1443299,13.7951741 93.1443299,16.7142857 C93.1443299,19.633594 90.9242582,22 88.1856593,22 C85.4468758,22 83.2268041,19.633594 83.2268041,16.7142857 C83.2268041,13.7951741 85.4468758,11.4285714 88.1856593,11.4285714 Z M88.1186513,14.7142857 C89.1177613,14.7142857 89.9278351,15.5776144 89.9278351,16.6428571 C89.9278351,17.7080999 89.1177613,18.5714286 88.1186513,18.5714286 C87.1193521,18.5714286 86.3092784,17.7080999 86.3092784,16.6428571 C86.3092784,15.5776144 87.1193521,14.7142857 88.1186513,14.7142857 Z M94.2011841,7 C94.9594892,7 95.6116095,7.48972422 95.9016035,8.19218291 C96.1247744,8.73331137 96.1423498,9.42252357 96.007239,9.99785562 C95.7990804,10.8837879 95.1074154,11.7497516 93.6495731,12.5714286 L93.2473528,11.9838386 C93.5324038,11.7272128 93.8256932,11.4620856 93.944144,11.2681334 C94.1561472,10.9217479 93.8793347,11.0069604 93.6459115,10.9282723 C92.8894373,10.6734259 92.3402062,9.91086383 92.3402062,9.009708 C92.3402062,7.89977187 93.1733897,7 94.2011841,7 L94.2011841,7 Z" id="Fill-1" fill="#006999"></path>
                <path d="M106.001585,12 C106.337068,12 106.664856,12.0860215 106.984946,12.2576118 C107.304584,12.4305603 107.554046,12.6768534 107.732428,12.9978495 C107.910809,13.31794 108,13.6529711 108,14.0011319 C108,14.3461234 107.91262,14.6770798 107.73605,14.9944539 C107.560385,15.3131862 107.313639,15.5599321 106.996718,15.7355971 C106.679344,15.9121675 106.347934,16 106.001585,16 C105.655235,16 105.32292,15.9121675 105.006452,15.7355971 C104.688625,15.5599321 104.441879,15.3131862 104.265308,14.9944539 C104.087832,14.6770798 104,14.3461234 104,14.0011319 C104,13.6529711 104.089643,13.31794 104.26893,12.9978495 C104.448217,12.6768534 104.69768,12.4305603 105.018223,12.2576118 C105.337408,12.0860215 105.665648,12 106.001585,12 Z M106.085233,12.3333333 C105.789846,12.3333333 105.503483,12.4092964 105.224242,12.5602731 C104.945477,12.710775 104.727024,12.9272698 104.569833,13.206909 C104.412166,13.4879725 104.333333,13.7804305 104.333333,14.0847576 C104.333333,14.386711 104.411217,14.6758455 104.566033,14.9531109 C104.720375,15.2299014 104.936929,15.4463963 105.214744,15.6006963 C105.493035,15.7554712 105.782723,15.8333333 106.085233,15.8333333 C106.387268,15.8333333 106.677431,15.7554712 106.955246,15.6006963 C107.233537,15.4463963 107.449141,15.2299014 107.602533,14.9531109 C107.7564,14.6758455 107.833333,14.386711 107.833333,14.0847576 C107.833333,13.7804305 107.75545,13.4879725 107.598734,13.206909 C107.442492,12.9272698 107.224039,12.710775 106.944324,12.5602731 C106.664134,12.4092964 106.377295,12.3333333 106.085233,12.3333333 Z M105.166667,15.1666667 L105.166667,13 L105.916437,13 C106.173554,13 106.358586,13.0191498 106.47337,13.0592733 C106.588154,13.0993967 106.679063,13.1696128 106.747934,13.2690095 C106.815886,13.3688622 106.849862,13.4746423 106.849862,13.5868056 C106.849862,13.7454756 106.792929,13.882716 106.679063,14.0003507 C106.565197,14.1179854 106.413682,14.183642 106.225895,14.1982323 C106.30303,14.2301487 106.365014,14.2684484 106.410927,14.3131313 C106.499082,14.3983937 106.60652,14.5415614 106.73416,14.7430906 L107,15.1666667 L106.569789,15.1666667 L106.376033,14.8251613 C106.224059,14.5570637 106.101928,14.3888187 106.008264,14.3213384 C105.943985,14.2711841 105.849403,14.2465629 105.725895,14.2465629 L105.519284,14.2465629 L105.519284,15.1666667 L105.166667,15.1666667 Z M105.5,13.8333333 L105.946737,13.8333333 C106.159789,13.8333333 106.305182,13.80964 106.382917,13.7639954 C106.460653,13.7176539 106.5,13.6566783 106.5,13.5800232 C106.5,13.5312427 106.480806,13.4873403 106.443378,13.4483159 C106.40643,13.4099884 106.354607,13.3807201 106.287908,13.3619048 C106.221209,13.342741 106.098369,13.3333333 105.917946,13.3333333 L105.5,13.3333333 L105.5,13.8333333 L105.5,13.8333333 Z" id="Fill-2" fill="#006999"></path>
                <path d="M7,7.24899512 L14.0539338,0.21993316 C14.3488982,-0.0740572117 14.8308195,-0.0732025885 15.1248224,0.221856063 L21.7800574,6.89998838 C22.0740604,7.19504703 22.0732057,7.67694767 21.7781345,7.97093804 L14.7242007,15 L7,7.24899512 Z M13.2222369,6.07612085 C13.9696183,5.33132401 15.1792485,5.33337223 15.9239349,6.08075629 C16.668729,6.82814034 16.666573,8.03777492 15.9191917,8.78246395 C15.1719181,9.52715299 13.9622879,9.52510477 13.2174937,8.77772071 C12.4728074,8.03044446 12.4749634,6.82070208 13.2222369,6.07612085 L13.2222369,6.07612085 Z" id="Fill-3" fill="#D3232E"></path>
                <path d="M8.76939517,13.0760305 C9.51677919,12.3313363 10.7264137,12.3333845 11.4711027,13.0807738 C12.2158995,13.8280553 12.2137435,15.0376983 11.4663595,15.7825004 C10.7190832,16.5271946 9.50944873,16.5250386 8.76475973,15.7777571 C8.01996293,15.0304756 8.02211895,13.8207248 8.76939517,13.0760305 Z M3.25058511,13.0760246 C3.9978666,12.3313382 5.20750965,12.3333865 5.95231171,13.0807679 C6.69700596,13.8281493 6.69484992,15.0377795 5.94756843,15.7824659 C5.20028694,16.5271523 3.99064389,16.5251041 3.24584183,15.7777227 C2.50114758,15.0304491 2.50319582,13.8208188 3.25058511,13.0760246 Z M0.221771776,14.0290052 L7.27569934,7 L15,14.7509533 L7.94607244,21.7800653 C7.65100144,22.0740577 7.16908063,22.0732031 6.87507796,21.7781424 L0.219955626,15.0999625 C-0.0740470493,14.8050086 -0.0731923903,14.3231045 0.221771776,14.0290052 L0.221771776,14.0290052 Z" id="Fill-4" fill="#006999"></path>
                <path d="M11.6800256,21 L11.6800256,19.2972505 L11,19.2972505 L11,19 L12.7142857,19 L12.7142857,19.2972505 L12.0298221,19.2972505 L12.0298221,21 L11.6800256,21 Z M12.7142857,21 L12.7142857,19 L13.2850436,19 L13.8723452,20.5971928 L14.4399732,19 L15,19 L15,21 L14.6454281,21 L14.6454281,19.3214766 L14.0467248,21 L13.6959535,21 L13.0708697,19.2972505 L13.0708697,21 L12.7142857,21 L12.7142857,21 Z" id="Fill-5" fill="#006999"></path>
            </g>
        </g>
    </g>
</svg>