<?xml version="1.0" encoding="UTF-8"?>
<svg width="536px" height="132px" viewBox="0 0 536 132" version="1.1" xmlns="http://www.w3.org/2000/svg" xmlns:xlink="http://www.w3.org/1999/xlink">
    <title>estacio-logo</title>
    <g id="estacio-logo" stroke="none" stroke-width="1" fill="none" fill-rule="evenodd">
        <g transform="translate(-3.000000, -8.000000)" fill-rule="nonzero">
            <g id="g190" transform="translate(271.088340, 73.337150) scale(-1, 1) rotate(-180.000000) translate(-271.088340, -73.337150) translate(0.588340, 0.837150)">
                <g id="g192" transform="translate(0.301424, 0.542755)">
                    <g id="g198" transform="translate(158.239708, 28.766849)" fill="#1D1D1B">
                        <path d="M60.6841646,3.1939034 L60.6841646,3.1939034 L40.2878975,3.1939034 C32.4053439,3.1939034 26.2954067,3.78477553 22.0251578,5.03359176 C17.8283688,6.21214211 14.2192579,8.34886349 11.274479,11.440562 C4.794049,18.2148311 1.55223705,27.7134998 1.55223705,39.939762 C1.55223705,53.4148405 5.67556634,63.7247606 13.9988786,70.7194091 C16.6498184,72.9295902 19.4476778,74.4722456 22.3924567,75.3569568 C25.3372357,76.2416681 29.2401856,76.6856206 34.1747664,76.6856206 L60.6841646,76.6856206 L60.6841646,63.5746472 L40.2878975,63.5746472 C34.9860178,63.5746472 31.0830679,63.2073483 28.6525074,62.4727505 C26.1484871,61.7349588 24.0852255,60.3360291 22.4659165,58.2025017 C21.3608259,56.7269183 20.6262282,55.2545288 20.2557354,53.8555991 C19.8884365,52.4566694 19.5945974,49.9526492 19.3007582,46.2700786 L60.6841646,46.2700786 L60.6841646,33.2357588 L19.3007582,33.2357588 C19.8149767,26.978902 21.6546651,22.5617336 24.896477,20.0545194 C28.0616353,17.5536931 33.4369747,16.301683 40.9490355,16.301683 L60.6841646,16.301683 L60.6841646,3.1939034 Z M121.8027,20.0545194 L121.8027,20.0545194 C121.8027,16.7424416 120.991449,13.6507431 119.29868,10.7059642 C117.679371,7.75799136 115.616109,5.69792367 113.115283,4.59283309 C110.978561,3.63466207 106.928692,3.1939034 101.03594,3.1939034 L70.5501322,3.1939034 L70.5501322,14.6823739 L96.8391511,14.6823739 C100.227883,14.6823739 102.50833,14.7558337 103.690074,14.9027533 C106.11744,15.1965924 107.369451,16.6689818 107.369451,19.3199217 C107.369451,21.6770224 106.41128,23.2228716 104.498131,23.9606633 C103.466501,24.3279622 101.406433,24.4748818 98.3850003,24.4748818 L89.4772038,24.4748818 C83.2906129,24.4748818 78.7265249,25.5799723 75.8520118,27.7869596 C71.8021423,30.9553118 69.8155344,35.4459399 69.8155344,41.2652319 C69.8155344,46.8609507 71.8756021,51.2046593 76.0021253,54.2963578 C78.2091126,55.9923205 82.1855223,56.8770317 87.9313545,56.8770317 L119.37214,56.8770317 L119.37214,45.3885612 L93.2332341,45.3885612 C90.3587211,45.3885612 88.445573,45.2384478 87.5608617,44.9478025 C85.8680929,44.2834706 85.0568414,42.8110812 85.0568414,40.6743598 C85.0568414,38.1735334 86.0884722,36.6244903 88.1517338,35.9633523 C89.2568244,35.5928595 91.3903519,35.3724802 94.6321638,35.3724802 L103.246121,35.3724802 C109.135679,35.3724802 113.702961,34.12047 116.941579,31.4695302 C120.183391,28.8185904 121.8027,24.9891002 121.8027,20.0545194 M165.102448,3.1939034 L165.102448,3.1939034 L154.35177,3.1939034 C147.87134,3.1939034 143.307252,4.66629287 140.653118,7.68453158 C137.928718,10.7059642 136.603248,15.9311902 136.603248,23.3697912 L136.603248,45.3885612 L127.251499,45.3885612 L127.251499,56.8770317 L136.603248,56.8770317 L136.603248,76.6856206 L151.403797,76.6856206 L151.403797,56.8770317 L165.102448,56.8770317 L165.102448,45.3885612 L151.403797,45.3885612 L151.403797,25.9472712 C151.403797,21.3097235 151.921209,18.2882909 152.87938,16.8159014 C153.907817,15.4169717 155.971079,14.6823739 159.209697,14.6823739 L165.102448,14.6823739 L165.102448,3.1939034 Z M199.785045,35.8164327 L199.785045,35.8164327 L199.785045,24.401422 L192.790397,24.401422 C189.107826,24.401422 187.268138,22.7054593 187.268138,19.3933814 C187.268138,16.2282232 189.919078,14.6823739 195.220958,14.6823739 L199.785045,14.6823739 L199.785045,3.1939034 L195.955555,3.1939034 C191.020975,3.1939034 188.002736,3.1939034 186.824185,3.26736318 C183.215075,3.63466207 180.417215,4.59283309 178.430607,6.06841646 C174.307278,9.08346127 172.244016,13.4303638 172.244016,19.1730021 C172.244016,22.8555727 173.128728,26.0941908 174.968416,28.9687038 C176.737839,31.7665632 179.091745,33.6797114 182.039718,34.6346885 C184.543738,35.4459399 188.593608,35.8164327 194.189327,35.8164327 L199.785045,35.8164327 Z M199.785045,56.8770317 L199.785045,56.8770317 L199.785045,45.3885612 L176.146966,45.3885612 L176.146966,56.8770317 L199.785045,56.8770317 Z M199.785045,73.5907282 L199.785045,73.5907282 L199.785045,62.8400494 L192.419904,62.8400494 L199.785045,73.5907282 Z M285.646751,3.1939034 L285.646751,3.1939034 L265.470863,3.1939034 C260.095523,3.1939034 255.822081,3.71131575 252.656922,4.81321242 C249.41511,5.918303 246.617251,7.83145114 244.189884,10.5558507 C239.549143,15.7140047 237.265502,22.4116202 237.265502,30.584819 C237.265502,39.8663022 239.989901,46.8609507 245.515354,51.5719582 C249.638684,55.1076093 256.266033,56.8770317 265.470863,56.8770317 L285.646751,56.8770317 L285.646751,45.3885612 L268.048343,45.3885612 C262.52289,45.3885612 258.476214,44.2100109 256.04246,41.8529102 C253.615093,39.4990033 252.363083,35.5928595 252.363083,30.220714 C252.363083,24.7687209 253.688553,20.7923111 256.412953,18.3617506 C259.137352,15.9311902 263.554521,14.6823739 269.667652,14.6823739 L285.646751,14.6823739 L285.646751,3.1939034 Z M311.935769,62.3992907 L311.935769,62.3992907 L297.135221,62.3992907 L297.135221,76.6856206 L311.935769,76.6856206 L311.935769,62.3992907 Z M311.935769,3.1939034 L311.935769,3.1939034 L297.135221,3.1939034 L297.135221,56.8770317 L311.935769,56.8770317 L311.935769,3.1939034 Z M199.785045,62.8400494 L199.785045,62.8400494 L199.785045,73.5907282 L201.921767,76.6856206 L215.470305,76.6856206 L201.037056,62.8400494 L199.785045,62.8400494 Z M199.785045,3.1939034 L199.785045,3.1939034 L199.785045,14.6823739 L212.301953,14.6823739 L212.301953,24.401422 L199.785045,24.401422 L199.785045,35.8164327 L212.301953,35.8164327 L212.301953,36.6979501 C212.301953,40.0132218 211.493895,42.2234029 209.874586,43.4722192 C208.252083,44.7242293 205.307304,45.3885612 201.037056,45.3885612 L199.785045,45.3885612 L199.785045,56.8770317 L201.037056,56.8770317 C206.779694,56.8770317 210.609184,56.6534585 212.525526,56.2861596 C216.501936,55.5515618 219.740554,53.7821394 222.244574,50.9108202 C225.486386,47.1547898 227.105695,41.3386917 227.105695,33.459332 L227.105695,3.1939034 L199.785045,3.1939034 Z M351.259108,46.2700786 L351.259108,46.2700786 L350.962075,46.2700786 C342.274658,46.2700786 337.930949,40.897933 337.930949,29.9971407 C337.930949,19.2464619 342.421577,13.8711225 351.259108,13.7976627 L351.259108,2.45930562 L350.741696,2.45930562 C342.054279,2.45930562 335.276816,4.8866722 330.271969,9.82125295 C325.337388,14.7558337 322.833368,21.5301028 322.833368,30.1440603 C322.833368,38.5408323 325.410848,45.2384478 330.492348,50.1730285 C335.647308,55.1076093 342.495037,57.6116295 351.185648,57.6116295 L351.259108,57.6116295 L351.259108,46.2700786 Z M364.587267,29.9971407 C364.587267,40.7478196 360.096639,46.123159 351.259108,46.2700786 L351.259108,57.6116295 C360.166905,57.6116295 367.164747,55.1076093 372.172788,50.1730285 C377.177634,45.2384478 379.681654,38.3172591 379.681654,29.4829223 C379.681654,21.0893442 377.104174,14.4588007 371.949214,9.6743334 C366.867714,4.8866722 360.019985,2.52957149 351.259108,2.45930562 L351.259108,13.7976627 L351.406028,13.7976627 C360.166905,13.7976627 364.587267,19.1730021 364.587267,29.9971407" id="path200"></path>
                    </g>
                    <g id="g202" transform="translate(0.164167, 2.034197)" fill="#FFFFFF">
                        <path d="M3.1939034,76.6536816 L60.9332891,134.329189 C65.0119037,138.471682 71.7063252,138.471682 75.781746,134.329189 L133.460447,76.6536816 C137.539062,72.575067 137.539062,65.9477174 133.460447,61.8659089 L75.781746,4.19359516 C71.7063252,0.047908551 65.0119037,0.047908551 60.9332891,4.19359516 L3.1939034,61.8659089 C-0.884711242,65.9477174 -0.884711242,72.575067 3.1939034,76.6536816" id="path204"></path>
                    </g>
                    <g id="g206" transform="translate(1.418732, 5.524175)" fill="#28ACC0">
                        <path d="M67.0719714,0 C65.034261,0 62.9294787,0.830414884 61.3357209,2.35710071 L3.6602133,60.0996803 C2.13033357,61.62956 1.30311259,63.7311484 1.30311259,65.7720527 L26.1580688,64.3699291 L27.7518266,37.2824344 L29.2817064,64.1782949 L63.4405032,62.1373906 L65.3504575,29.95562 L40.6232573,28.4896183 L65.4782136,27.0204228 L67.0719714,0 Z" id="path208"></path>
                    </g>
                    <g id="g210" transform="translate(65.917695, 2.767517)" fill="#28ACC0">
                        <path d="M38.3268408,35.1329374 L38.3268408,35.1329374 L38.0713285,34.8774251 L4.35648424,32.9035928 L6.26963237,64.8969232 L40.1761109,66.8707555 L38.3268408,35.1329374 Z M68.343145,68.5283914 L68.343145,68.5283914 C68.343145,66.4874871 67.579802,64.3858986 65.9860442,62.8560189 L45.2097026,42.0157992 L43.743701,67.1262678 L68.343145,68.5283914 Z M31.1884667,28.0584414 L8.31053665,5.11663325 C6.71677885,3.58675352 4.67587458,2.75633863 2.57428614,2.75633863 L4.16804394,29.5883211 L31.1884667,28.0584414 Z" id="path212"></path>
                    </g>
                    <g id="g214" transform="translate(68.490703, 69.993435)" fill="#7AC6C0">
                        <path d="M0,67.0719714 C2.10478234,67.0719714 4.14249271,66.2415565 5.73625051,64.7148707 L63.4117581,6.97229112 C65.0055159,5.44241139 65.7720527,3.34082296 65.7720527,1.30311259 L40.9809745,2.70204228 L39.3872167,29.789537 L37.7934589,2.89367648 L3.69534623,4.93458075 L1.785392,37.1163514 L26.5125921,38.5823531 L1.5937578,40.0483547 L0,67.0719714 Z" id="path216"></path>
                    </g>
                    <g id="g218" transform="translate(1.549043, 70.244156)" fill="#C0E1D7">
                        <path d="M38.3268408,41.5207442 L38.3268408,41.5207442 L61.2079648,64.4625523 C62.7985287,65.9924321 64.903311,66.8228469 66.9410214,66.8228469 L65.4111416,39.9876706 L38.3268408,41.5207442 Z M31.2523448,34.4462482 L31.2523448,34.4462482 L31.443979,34.7017604 L65.1556294,36.6755927 L63.3095532,4.68226238 L29.3391966,2.70843008 L31.2523448,34.4462482 Z M3.52926326,6.72316666 L24.3694829,27.5633863 L25.8354846,2.45291781 L1.17216255,1.05079422 C1.17216255,3.08850459 1.99938353,5.19328693 3.52926326,6.72316666" id="path220"></path>
                    </g>
                </g>
            </g>
            <g id="g222" transform="translate(69.380510, 75.354601) scale(-1, 1) rotate(-180.000000) translate(-69.380510, -75.354601) translate(2.308539, 8.282630)" fill="#FFFFFF">
                <polygon id="path224" points="67.0719714 134.143943 71.6711923 73.0254073 132.789728 68.4261864 71.6711923 63.8269655 67.0719714 2.70843008 62.4727505 63.8269655 1.35421504 68.4261864 62.4727505 73.0254073"></polygon>
            </g>
        </g>
    </g>
</svg>