<?xml version="1.0" encoding="UTF-8"?>
<!DOCTYPE svg PUBLIC "-//W3C//DTD SVG 1.1//EN" "http://www.w3.org/Graphics/SVG/1.1/DTD/svg11.dtd">
<!-- Creator: CorelDRAW 2021 (64 Bit) -->
<svg xmlns="http://www.w3.org/2000/svg" xml:space="preserve" width="7.58967cm" height="6.91827cm" version="1.1" style="shape-rendering:geometricPrecision; text-rendering:geometricPrecision; image-rendering:optimizeQuality; fill-rule:evenodd; clip-rule:evenodd"
viewBox="0 0 6715.04 6121.01"
 xmlns:xlink="http://www.w3.org/1999/xlink"
 xmlns:xodm="http://www.corel.com/coreldraw/odm/2003">
 <defs>
  <style type="text/css">
   <![CDATA[
    .fil0 {fill:#FEFEFE}
   ]]>
  </style>
 </defs>
 <g id="Camada_x0020_1">
  <metadata id="CorelCorpID_0Corel-Layer"/>
  <path class="fil0" d="M2809.11 1154.03c104.73,238.43 524.09,320.17 815.11,904.65 23.68,47.54 58.58,136.5 83.14,199.73l73.4 162.62c4.5,7.68 15.62,22.22 19.45,28.3 3.83,6.1 12.58,19.34 20.27,27.86 641.09,-846.54 1590.21,-416.75 1761.17,220.78 231.99,865.15 -767.32,1629.2 -1495.16,1026.42 -663.53,-549.54 -116.3,-1209.56 -890.61,-2040.69 -665.02,-713.82 -2077.66,-655.28 -2157.62,-293.34l1.88 1023.85c286.21,-322.87 818.55,-555.09 1310.56,-262.59 570.32,339.03 325.1,713.4 551.02,1384.95 523.62,1556.46 2714.22,1739.49 3436.45,181 224.4,-484.21 204.99,-1099.22 -21.21,-1561.5 -199.73,-408.22 -577.09,-739.46 -1027.91,-911.42 -723.49,-268.45 -1540.92,-42.14 -1843.68,528.09 -18.46,-820.63 191.02,-1686.83 -636.27,-1772.74l0.01 1154.03z"/>
  <path class="fil0" d="M3139.6 4265.69c-76.88,-109.18 -167.66,-226.89 -249.37,-384.88 -72.32,-139.81 -127.67,-329.98 -199.49,-449.27 -536.96,771.34 -1808.6,735.21 -1803.91,-764.93 3.05,-977.37 278.18,-2753.15 -882.07,-2645.73 3.88,692.46 0.43,1385.88 0.43,2078.44 0,710.68 -66.9,1274.48 279.68,1833.36 686.53,1107.12 2173.28,1073.77 2854.72,333.01z"/>
  <path class="fil0" d="M3445.36 1772.74c-18.46,-820.62 191.03,-1686.84 -636.27,-1772.74l0.02 1154.03c84.6,192.61 374.53,282.96 636.25,618.71z"/>
  <path class="fil0" d="M3816.25 4981.74l2329.16 0c313.3,0 569.64,256.33 569.64,569.64l0 0c0,313.3 -256.33,569.64 -569.64,569.64l-2329.16 0c-313.29,0 -569.64,-256.33 -569.64,-569.64l0 0c0,-313.3 256.33,-569.64 569.64,-569.64zm-97.7 962.98l0 -152.09 152.08 0 0 152.09 -152.08 0zm811.31 -405.19l-149.86 26.64c-5,-29.79 -16.47,-52.17 -34.42,-67.35 -17.94,-14.99 -41.07,-22.57 -69.57,-22.57 -37.93,0 -68.27,13.14 -90.85,39.41 -22.57,26.28 -33.86,70.13 -33.86,131.73 0,68.46 11.48,116.75 34.42,145.06 22.94,28.31 53.65,42.37 92.14,42.37 28.86,0 52.55,-8.33 70.86,-24.79 18.51,-16.47 31.46,-44.78 39.04,-85.11l149.87 25.53c-15.55,68.83 -45.34,120.82 -89.37,155.97 -44.03,35.15 -103.06,52.73 -177.25,52.73 -84,0 -151.16,-26.64 -201.11,-79.74 -50.14,-53.29 -75.12,-126.93 -75.12,-221.1 0,-95.28 25.16,-169.29 75.3,-222.39 50.14,-53.1 118.04,-79.56 203.71,-79.56 69.94,0 125.63,15.17 167.08,45.33 41.26,30.16 70.86,76.05 88.99,137.85zm115.64 405.19l0 -794.85 152.09 0 0 794.85 -152.09 0zm689.2 0l0 -86.22c-21.09,30.71 -48.66,55.14 -82.89,73.45 -34.22,18.13 -70.3,27.2 -108.23,27.2 -38.86,0 -73.64,-8.51 -104.36,-25.53 -30.9,-17.02 -53.09,-41.07 -66.79,-71.79 -13.87,-30.9 -20.72,-73.45 -20.72,-127.85l0 -365.41 152.09 0 0 265.32c0,81.22 2.77,130.81 8.51,149.13 5.55,18.31 15.72,32.93 30.71,43.48 14.8,10.73 33.67,16.1 56.62,16.1 26.09,0 49.41,-7.22 70.13,-21.46 20.72,-14.24 34.78,-32.01 42.37,-53.29 7.58,-21.28 11.47,-73.08 11.47,-155.79l0 -243.49 152.09 0 0 576.16 -140.99 0zm290.66 0l0 -794.85 152.09 0 0 286.79c46.99,-53.47 102.5,-80.3 166.88,-80.3 70.13,0 128.04,25.35 173.93,76.23 45.88,50.87 68.83,123.96 68.83,219.24 0,98.43 -23.31,174.29 -70.13,227.58 -46.8,53.1 -103.79,79.74 -170.59,79.74 -32.93,0 -65.3,-8.51 -97.31,-25.35 -32.01,-17.02 -59.58,-41.44 -82.71,-73.64l0 84.56 -140.99 0zm149.87 -299.18c0,59.77 9.43,104.17 28.3,132.66 26.46,40.71 61.43,61.06 105.28,61.06 33.67,0 62.36,-14.43 86.22,-43.29 23.69,-28.87 35.52,-74.38 35.52,-136.36 0,-66.06 -12.02,-113.6 -35.89,-142.84 -23.87,-29.24 -54.4,-43.86 -91.78,-43.86 -36.63,0 -66.98,14.25 -91.21,42.74 -24.24,28.5 -36.45,71.79 -36.45,129.88z"/>
 </g>
</svg>
