<?xml version="1.0" encoding="UTF-8"?>
<svg width="3414px" height="746px" viewBox="0 0 3414 746" version="1.1" xmlns="http://www.w3.org/2000/svg" xmlns:xlink="http://www.w3.org/1999/xlink">
    <title>magalu-logo</title>
    <g id="magalu-logo" stroke="none" stroke-width="1" fill="none" fill-rule="evenodd">
        <g fill="#0F88FF" fill-rule="nonzero" id="path2">
            <path d="M3377.8273,12.7634897 L3300.58045,12.7634897 C3278.53835,12.7634897 3265.25339,26.0982119 3265.25339,48.0905522 L3265.25339,276.522304 C3265.25339,360.38676 3220.02479,407.829512 3157.13267,407.829512 C3090.90687,407.829512 3053.39052,364.815082 3053.39052,282.070145 L3053.39052,48.0905522 C3053.39052,26.0484555 3040.08068,12.7634897 3018.06346,12.7634897 L2940.84149,12.7634897 C2918.79939,12.7634897 2905.51443,26.0982119 2905.51443,48.0905522 L2905.51443,293.091194 C2905.51443,448.679538 2986.09496,536.947438 3107.47576,536.947438 C3180.31917,536.947438 3236.59368,512.69118 3276.29931,463.009389 L3282.96667,493.933007 C3287.39499,513.935091 3300.6302,524.831748 3321.57766,524.831748 L3377.85218,524.831748 C3399.94403,524.831748 3413.17924,511.497026 3413.17924,489.504685 L3413.17924,48.0905522 C3413.15436,26.0484555 3399.91915,12.7634897 3377.8273,12.7634897 Z M2839.3135,390.190859 L2700.29405,390.190859 C2651.73177,390.190859 2626.356,364.815082 2626.356,316.25281 L2626.356,48.0905522 C2626.356,26.0484555 2613.02128,12.7634897 2591.02893,12.7634897 L2511.56792,12.7634897 C2489.50095,12.7634897 2476.29062,26.0982119 2476.29062,48.0905522 L2476.29062,335.010983 C2476.29062,453.082982 2547.98963,524.931261 2666.18602,524.931261 L2839.46277,524.931261 C2861.50487,524.931261 2874.78983,511.596539 2874.78983,489.604198 L2874.78983,425.493043 C2874.64056,403.450947 2861.38048,390.165981 2839.3135,390.165981 L2839.3135,390.190859 Z M590.347923,46.9959108 C588.108884,23.9835638 575.993195,12.7883679 553.901341,12.7883679 L495.437541,12.7883679 C476.679368,12.7883679 463.444159,20.500614 453.517752,37.0695038 L311.139739,277.641824 L178.737889,37.0695038 C169.906124,20.4011011 155.402126,12.7883679 136.793222,12.7883679 L73.9010998,12.7883679 C51.8092466,12.7883679 39.6935569,23.9835638 37.4545177,46.9959108 L1.08257034,488.410044 C-1.15646883,512.69118 11.0587338,524.831748 34.1705936,524.831748 L104.79984,524.831748 C126.866815,524.831748 140.126903,513.785821 141.221544,490.599327 L156.670914,243.409402 L241.630012,396.659195 C250.461777,413.327597 264.965776,420.965209 283.549801,420.965209 L332.136951,420.965209 C350.895123,420.965209 364.130333,414.297848 374.05674,396.684073 L470.086642,232.239085 L481.10769,490.474936 C482.202332,513.785821 494.442412,524.682479 516.434753,524.682479 L592.562084,524.682479 C615.87297,524.682479 627.889147,512.566789 625.650108,488.260775 L590.347923,46.9959108 Z M2373.61823,12.7634897 L2312.94027,12.7634897 C2291.96794,12.7634897 2277.61321,23.8094163 2274.32928,44.8066281 L2270.9956,70.1824053 C2236.81294,33.7607015 2187.15602,0.6478 2104.36133,0.6478 C1965.34188,0.6478 1862.71925,109.912911 1862.71925,267.690538 C1862.71925,422.184241 1958.69939,536.947438 2095.55444,536.947438 C2181.60818,536.947438 2237.90758,500.525734 2272.14,463.009389 L2277.66296,493.933007 C2280.99664,513.935091 2294.33137,524.831748 2315.17931,524.831748 L2373.64311,524.831748 C2395.75984,524.831748 2408.97017,511.497026 2408.97017,489.504685 L2408.97017,48.0905522 C2408.94529,26.0484555 2395.71008,12.7634897 2373.64311,12.7634897 L2373.61823,12.7634897 Z M2136.55374,407.829512 C2058.18737,407.829512 2008.55533,353.769155 2008.55533,269.904699 C2008.55533,184.945602 2060.40153,129.765725 2136.55374,129.765725 C2214.89523,129.765725 2264.52727,183.826082 2264.52727,267.690538 C2264.378,352.674514 2212.5318,407.829512 2136.55374,407.829512 Z M1774.42647,12.7634897 L1713.72363,12.7634897 C1692.7513,12.7634897 1678.42145,23.8094163 1675.08777,44.8066281 L1671.75409,70.1824053 C1637.57142,33.7607015 1587.91451,0.6478 1505.19445,0.6478 C1366.12524,0.6478 1263.627,103.270429 1263.627,261.072934 C1263.627,411.163193 1358.51251,517.069745 1495.36756,517.069745 C1580.32665,517.069745 1631.10309,481.767561 1665.28575,444.251216 L1665.28575,469.626993 C1665.28575,557.919771 1615.62884,614.219167 1510.81693,614.219167 C1467.82737,614.219167 1425.33539,605.138619 1386.10244,587.574601 C1365.15499,577.573559 1348.5861,582.02676 1338.65969,602.999093 L1314.37856,651.561365 C1304.37751,671.563448 1307.7112,687.983069 1326.544,699.004117 C1385.0078,732.09214 1456.73169,745.352228 1526.24142,745.352228 C1699.49329,745.352228 1809.85305,636.111995 1809.85305,483.807575 L1809.85305,48.0905522 C1809.75353,26.0484555 1796.51832,12.7634897 1774.45135,12.7634897 L1774.42647,12.7634897 Z M1537.18783,391.285501 C1461.01074,391.285501 1409.16455,340.533946 1409.16455,262.167575 C1409.16455,179.39776 1463.2249,129.765725 1537.18783,129.765725 C1613.31516,129.765725 1665.16136,174.994317 1665.16136,259.978292 C1665.16136,336.105624 1611.12588,391.285501 1537.18783,391.285501 L1537.18783,391.285501 Z M1175.20983,12.7634897 L1114.53187,12.7634897 C1093.53466,12.7634897 1079.20481,23.8094163 1075.87113,44.8066281 L1072.53745,70.1824053 C1038.35478,33.7607015 988.722748,0.6478 905.952934,0.6478 C766.908601,0.6478 664.285972,109.912911 664.285972,267.690538 C664.285972,422.184241 760.290996,536.947438 897.146046,536.947438 C983.174907,536.947438 1039.44942,500.525734 1073.70672,463.009389 L1079.25457,493.933007 C1082.58825,513.935091 1095.92297,524.831748 1116.77091,524.831748 L1175.23471,524.831748 C1197.32656,524.831748 1210.56177,511.497026 1210.56177,489.504685 L1210.56177,48.0905522 C1210.51202,26.0484555 1197.30169,12.7634897 1175.20983,12.7634897 Z M937.946315,407.829512 C859.604823,407.829512 809.923031,353.769155 809.923031,269.904699 C809.923031,184.945602 861.794106,129.765725 937.946315,129.765725 C1016.31269,129.765725 1065.94472,183.826082 1065.94472,267.690538 C1065.94472,352.674514 1014.09853,407.829512 937.946315,407.829512 L937.946315,407.829512 Z"></path>
        </g>
    </g>
</svg>