<?xml version="1.0" encoding="UTF-8"?>
<svg width="3400px" height="730px" viewBox="0 0 3400 730" version="1.1" xmlns="http://www.w3.org/2000/svg" xmlns:xlink="http://www.w3.org/1999/xlink">
    <title>marisa-logo</title>
    <g id="marisa-logo" stroke="none" stroke-width="1" fill="none" fill-rule="evenodd">
        <g fill="#FF0099" fill-rule="nonzero">
            <path d="M835.798681,65.6909847 C788.569732,23.7096968 722.160288,0.590507191 648.763789,0.590507191 C576.900315,0.590507191 507.642982,27.2002758 458.745395,73.5801649 L454.688776,77.4127263 L450.638053,73.5801649 C401.740466,27.2002758 332.48903,0.590507191 260.631452,0.590507191 C187.246746,0.590507191 120.825509,23.7096968 73.5965596,65.6909847 C28.3664389,105.891606 0.3356745,147.64294 0.3356745,231.405043 L0.353363245,718.23468 L132.759515,718.23468 L132.7831,231.405043 C132.7831,167.383579 188.927176,117.230091 260.637348,117.230091 C332.323935,117.230091 388.491596,167.377683 388.491596,231.405043 L388.503389,718.23468 L520.921333,718.23468 L520.944918,231.405043 C520.944918,167.383579 577.088994,117.230091 648.781478,117.230091 C720.479857,117.230091 776.641622,167.377683 776.641622,231.405043 L776.665207,718.23468 L909.05367,718.23468 L909.094944,231.405043 C909.059566,147.64294 881.028802,105.891606 835.798681,65.6909847" id="path2"></path>
            <path d="M1440.61225,64.9716424 C1395.71232,22.8547408 1332.16255,0.596403439 1256.84388,0.596403439 C1131.42478,0.596403439 1059.93277,72.1414803 1025.53995,106.610948 L1080.09794,202.466256 L1080.37506,202.165548 C1113.02848,166.793954 1202.29179,88.9045142 1325.54106,129.570939 L1326.09531,129.783204 C1351.50814,141.139378 1381.77358,164.193709 1381.85613,209.535858 L1381.86792,209.830671 C1382.51651,215.52055 1382.8467,221.575997 1382.8467,227.837813 L1382.8467,265.426396 L1240.42872,293.734284 C1172.15017,307.160041 1116.90822,330.261542 1076.19462,362.401992 C1025.76991,402.207564 1000.19788,453.787944 1000.19788,515.739825 C1000.19788,581.306106 1027.46802,636.677774 1079.07199,675.887825 C1124.89763,710.711067 1187.13843,729.897459 1254.32618,729.897459 C1321.33704,729.897459 1384.07312,707.762943 1430.98367,667.580011 C1480.1289,625.480798 1507.19858,566.913364 1507.19858,502.65605 L1507.19858,227.843709 C1507.18089,157.460193 1487.26926,108.757182 1440.61225,64.9716424 M1382.8467,502.644257 C1382.8467,535.327162 1371.10727,565.327273 1349.79823,587.084429 C1326.30758,611.064471 1292.86406,623.76499 1253.05848,623.76499 C1225.33433,623.76499 1174.34357,618.375819 1144.42601,582.249506 C1121.11814,554.118505 1117.52142,513.322363 1135.49319,480.674836 C1167.29166,422.956462 1239.86858,401.199305 1306.69666,387.531802 L1314.07286,386.028259 C1328.87834,383.032964 1363.56007,375.99874 1375.80069,373.410287 L1382.8467,371.91264 L1382.8467,502.644257 Z" id="path4"></path>
            <path d="M2006.40444,58.1202019 C1995.82068,48.7864408 1984.6178,40.3430132 1973.09064,33.0139766 C1946.19195,15.9148565 1918.86284,5.44901579 1891.80496,1.9348518 C1839.31656,-4.86941874 1777.10524,7.56576893 1729.45176,34.4172837 C1714.1451,43.0317025 1700.09434,53.3147595 1687.68274,64.9716424 C1644.51041,105.472972 1621.1141,143.438915 1621.1141,227.843709 L1621.1141,718.246473 L1745.43649,718.246473 L1745.44828,254.547818 C1745.44828,243.445182 1745.44828,232.318962 1745.45418,221.228119 C1745.46597,209.358971 1745.72541,198.645488 1748.79735,187.725636 C1753.82096,170.00741 1764.92949,153.450744 1780.12412,141.104 C1787.00504,135.514357 1794.42252,130.927076 1802.17019,127.465978 C1850.53122,107.395149 1903.44415,119.146372 1944.8653,158.76916 C2000.29593,107.147506 2021.11558,87.7842271 2029.0932,80.4316054 C2022.5071,73.1202575 2009.10492,60.5140787 2006.40444,58.1202019" id="path6"></path>
            <path d="M3149.29194,0.590507191 C3023.87284,0.590507191 2952.38083,72.1355841 2917.98801,106.605052 L2972.56369,202.46036 L2972.84081,202.159652 C3005.50013,166.788058 3094.76933,88.898618 3218.01271,129.565043 L3218.56106,129.777307 C3243.97979,141.139378 3274.23344,164.193709 3274.32778,209.529962 L3274.33957,209.824774 C3274.98226,215.514654 3275.31245,221.570101 3275.31245,227.831917 L3275.31245,265.4205 L3132.89447,293.728388 C3064.61002,307.154145 3009.35628,330.255646 2968.66037,362.396095 C2918.21797,402.201668 2892.65183,453.787944 2892.65183,515.733929 C2892.65183,581.30021 2919.92198,636.671878 2971.52595,675.881929 C3017.35749,710.705171 3079.59828,729.891563 3146.79193,729.891563 C3213.80279,729.891563 3276.53887,707.757047 3323.45532,667.574115 C3372.59465,625.474902 3399.66433,566.907468 3399.66433,502.650154 L3399.66433,227.843709 C3399.66433,162.153607 3376.65127,105.832643 3333.08979,64.9716424 C3288.15448,22.8547408 3224.61651,0.590507191 3149.29194,0.590507191 M3275.29476,502.644257 C3275.29476,535.327162 3263.55533,565.327273 3242.2404,587.084429 C3218.76154,611.064471 3185.31212,623.76499 3145.49475,623.76499 C3117.79418,623.76499 3066.79753,618.375819 3036.86228,582.249506 C3013.55441,554.118505 3009.96949,513.322363 3027.94125,480.674836 C3059.72793,422.956462 3132.31664,401.199305 3199.13882,387.531802 L3206.27918,386.081325 C3221.12593,383.068342 3255.93148,376.016429 3268.25464,373.427976 L3275.29476,371.930329 L3275.29476,502.644257 Z" id="path8"></path>
            <path d="M2685.43998,335.108258 C2653.41746,318.032723 2620.06238,305.473714 2582.91012,291.965409 L2577.45019,289.996062 C2553.49374,281.299096 2528.74129,272.325006 2505.83436,260.750671 C2476.93095,246.157456 2460.8224,230.190416 2455.13842,210.508739 L2454.95563,209.895529 C2449.9792,191.729188 2454.12426,172.247984 2466.08185,157.690147 C2477.30242,144.010851 2494.70224,133.456566 2517.79195,126.310313 C2527.99836,123.149924 2538.76491,120.885765 2549.73783,119.565005 C2589.43137,114.806733 2630.33364,121.923505 2667.97529,140.125223 C2693.21124,152.324561 2716.94953,169.093491 2738.50032,189.936729 C2739.51447,190.915506 2748.34116,199.759879 2750.40484,202.147859 L2750.69376,202.466256 L2750.86475,202.153755 C2751.24801,201.463894 2802.07956,112.17111 2805.25764,106.599155 C2770.82945,72.1061028 2699.35513,0.584610942 2573.95372,0.584610942 C2496.38857,0.584610942 2426.14067,25.3311651 2381.22895,68.4799101 C2334.4658,113.409322 2316.22281,180.042824 2333.58136,242.354376 C2346.81254,289.88993 2384.65467,332.342918 2440.10298,361.936188 C2474.80241,380.444511 2512.89807,394.630885 2545.86989,406.482344 L2550.05033,407.985887 C2578.91836,418.363284 2608.78286,429.059079 2635.02116,445.356309 C2665.94698,464.583975 2681.61921,489.45435 2681.61921,519.277574 C2681.61921,560.374425 2648.08135,589.212975 2611.84301,605.009024 C2571.4714,622.597533 2524.55495,616.913549 2483.05126,604.519636 C2426.61237,587.968867 2369.56617,530.274077 2368.99423,529.702141 L2312.92091,623.924189 C2347.36679,658.440826 2418.84701,729.885667 2544.15997,729.885667 C2554.31921,729.885667 2564.67302,729.431656 2574.99146,728.517737 L2581.33582,727.957594 L2581.33582,728.116792 L2581.56577,728.093207 C2637.0023,722.497668 2687.08503,703.830146 2726.39532,674.124847 C2777.68678,635.36291 2805.93571,580.380395 2805.93571,519.277574 C2805.93571,475.409487 2793.64793,435.609811 2770.41671,404.176911 C2750.87654,377.779407 2723.08753,355.179087 2685.43998,335.108258" id="path10"></path>
            <rect id="rect12" x="2097.4661" y="12.4832412" width="124.334188" height="705.739648"></rect>
        </g>
    </g>
</svg>