<?xml version="1.0" encoding="UTF-8"?>
<svg width="538px" height="66px" viewBox="0 0 538 66" version="1.1" xmlns="http://www.w3.org/2000/svg" xmlns:xlink="http://www.w3.org/1999/xlink">
    <title>netshoes-logo</title>
    <g id="netshoes-logo" stroke="none" stroke-width="1" fill="none" fill-rule="evenodd">
        <g transform="translate(-5.000000, -4.000000)" fill="#5A2D82" fill-rule="nonzero" id="g60">
            <g transform="translate(274.222187, 37.881427) scale(-1, 1) rotate(-180.000000) translate(-274.222187, -37.881427) translate(0.767446, 0.712821)">
                <path d="M493.811474,37.1686056 C489.207877,40.1208548 479.628996,45.9244671 485.156499,59.5653454 C488.289282,67.2114585 493.445098,70.8008839 506.624024,70.8008839 L539.720012,70.8008839 C541.36605,70.8008839 542.024466,69.7973315 541.557203,68.1406737 L540.920027,66.0167533 C538.796107,59.2042789 536.953606,56.4272531 528.84023,56.4272531 L503.942574,56.4272531 C501.744317,56.4272531 500.358459,55.4130811 500.358459,53.6608469 C500.358459,52.2856085 501.282364,51.5475462 503.124865,50.3475312 L521.555184,38.5544636 C527.916325,34.5030856 535.286328,28.8746968 530.220778,16.1577238 C526.631353,7.21601929 521.194117,5.00714215 510.123182,5.00714215 L473.814765,5.00714215 C471.972264,5.00714215 471.515621,6.02131411 472.07315,7.9487718 L472.620059,9.79658248 C474.73867,16.8957861 476.942237,19.3754631 484.689237,19.3754631 L511.413464,19.3754631 C513.638271,19.3754631 515.013509,20.3046783 515.013509,22.0516027 C515.013509,23.4374607 514.094913,24.1702132 512.241793,25.3649184 L493.811474,37.1686056 Z M37.237633,54.7705953 C37.1420566,55.8803436 36.8606372,56.4272531 35.665932,56.4272531 C34.572113,56.4272531 34.1048505,55.9706102 33.8234311,54.7705953 L23.2303785,14.5860228 C21.3878776,7.49212893 18.8922712,5.00714215 11.1558915,5.00714215 L6.73282741,5.00714215 C4.88501674,5.00714215 4.42837387,6.02131411 4.98059315,7.9487718 L18.4356284,57.3511584 C21.0108818,66.9406587 25.4392556,71.358413 38.3473814,71.358413 C47.1881997,71.358413 51.2448875,69.144226 51.9882596,57.5370015 L54.2874034,21.0427406 C54.37767,19.9329922 54.563513,19.3754631 55.763528,19.3754631 C56.8679666,19.3754631 57.3246094,19.8427256 57.6007191,21.0427406 L67.9282816,61.227313 C69.7760923,68.3318265 72.1655027,70.8008839 79.912502,70.8008839 L84.4258327,70.8008839 C86.2630238,70.8008839 86.7249765,69.7973315 86.1727572,67.8592542 L72.9088748,18.4568676 C70.3283116,8.87798694 65.9902043,4.45492287 53.1723452,4.45492287 C44.1456839,4.45492287 39.9084628,6.6638 39.2659769,18.2763344 L37.237633,54.7705953 Z M228.013466,37.1686056 C223.409869,40.1208548 213.825678,45.9244671 219.353181,59.5653454 C222.485963,67.2114585 227.64709,70.8008839 240.831325,70.8008839 L273.911384,70.8008839 C275.568042,70.8008839 276.221147,69.7973315 275.759195,68.1406737 L275.111399,66.0167533 C272.992789,59.2042789 271.139668,56.4272531 263.031602,56.4272531 L238.149876,56.4272531 C235.940999,56.4272531 234.56045,55.4130811 234.56045,53.6608469 C234.56045,52.2856085 235.484356,51.5475462 237.326857,50.3475312 L255.757175,38.5544636 C262.118316,34.5030856 269.48832,28.8746968 264.42277,16.1577238 C260.828035,7.21601929 255.385489,5.00714215 244.325174,5.00714215 L208.011446,5.00714215 C206.168945,5.00714215 205.717612,6.02131411 206.264522,7.9487718 L206.811431,9.79658248 C208.935352,16.8957861 211.149539,19.3754631 218.891228,19.3754631 L245.615456,19.3754631 C247.829643,19.3754631 249.215501,20.3046783 249.215501,22.0516027 C249.215501,23.4374607 248.296905,24.1702132 246.443785,25.3649184 L228.013466,37.1686056 Z M214.654007,70.8008839 C216.496508,70.8008839 216.958461,69.7070649 216.400932,67.8592542 L215.854022,66.0167533 C213.730102,58.9175497 211.515915,56.4272531 203.774225,56.4272531 L201.384815,56.4272531 C192.071424,56.4272531 190.04839,53.1086276 187.558094,43.8058566 L179.720828,14.5860228 C177.78275,7.40186232 175.38803,5.00714215 167.646341,5.00714215 L162.118838,5.00714215 C160.265718,5.00714215 159.819694,6.02131411 160.371914,7.9487718 L172.626934,53.4856235 C173.179153,55.4130811 172.711891,56.4272531 170.8747,56.4272531 L152.078005,56.4272531 C150.235504,56.4272531 149.768241,57.4414251 150.320461,59.3795023 L150.86737,61.227313 C152.99129,68.3318265 155.109901,70.8008839 162.851591,70.8008839 L214.654007,70.8008839 Z M332.621852,14.5860228 C330.689084,7.49212893 328.289054,5.00714215 320.547364,5.00714215 L315.019862,5.00714215 C313.172051,5.00714215 312.720718,6.02131411 313.267628,7.9487718 L318.986283,29.2516926 C319.533193,31.1791503 319.07124,32.1933223 317.223429,32.1933223 L303.407328,32.1933223 C294.099247,32.1933223 291.89037,28.8746968 289.49034,19.5666159 L288.205368,14.5860228 C286.352247,7.40186232 283.867261,5.00714215 276.130881,5.00714215 L270.592759,5.00714215 C268.755567,5.00714215 268.288305,6.02131411 268.845834,7.9487718 L283.214155,61.227313 C285.157542,68.3318265 287.461996,70.8008839 295.198375,70.8008839 L300.731188,70.8008839 C302.563069,70.8008839 303.025022,69.7973315 302.494042,67.8592542 L297.423182,49.0572496 C296.860343,47.1191723 297.332915,46.1103101 299.170106,46.1103101 L313.076475,46.1103101 C322.389865,46.1103101 324.513786,49.4236258 326.903196,58.7370164 L327.550992,61.227313 C329.398802,68.4114735 331.883789,70.8008839 339.630789,70.8008839 L345.147672,70.8008839 C347.011412,70.8008839 347.462745,69.7973315 346.905216,67.8592542 L332.621852,14.5860228 Z M478.147562,70.8008839 C479.995373,70.8008839 480.452016,69.7973315 479.899796,67.8592542 L479.53342,66.4733962 C477.590033,59.2839259 475.290889,56.8892058 467.554509,56.8892058 L448.566662,56.8892058 C442.48694,56.8892058 440.729396,54.9564383 439.247961,49.4236258 L438.977162,48.4147637 C438.424942,46.4766864 438.886895,45.4625144 440.729396,45.4625144 L466.912024,45.4625144 C468.749215,45.4625144 469.211167,44.4536523 468.658948,42.515575 L468.276642,41.129717 C466.349185,33.9455565 464.044731,31.5508364 456.303042,31.5508364 L441.647991,31.5508364 C435.568269,31.5508364 433.624882,29.6074493 432.254954,24.0852564 L431.702734,21.8710695 C431.235472,19.9329922 431.612468,18.9188203 433.439039,18.9188203 L467.27309,18.9188203 C469.115591,18.9188203 469.582853,17.9099581 469.020014,15.966571 L468.658948,14.5860228 C466.715561,7.40186232 464.416417,5.00714215 456.669418,5.00714215 L413.267106,5.00714215 C411.413986,5.00714215 410.962653,6.02131411 411.514872,7.9487718 L423.488473,52.7475611 C427.088518,66.10702 432.430177,70.8008839 446.166632,70.8008839 L478.147562,70.8008839 Z M145.615977,70.8008839 C147.463788,70.8008839 147.920431,69.7973315 147.373521,67.8592542 L147.007145,66.4733962 C145.069068,59.2839259 142.764614,56.8892058 135.028234,56.8892058 L116.035077,56.8892058 C109.960665,56.8892058 108.203121,54.9564383 106.721686,49.4236258 L106.450886,48.4147637 C105.898667,46.4766864 106.36062,45.4625144 108.203121,45.4625144 L134.375129,45.4625144 C136.21763,45.4625144 136.679582,44.4536523 136.132673,42.515575 L135.760987,41.129717 C133.828219,33.9455565 131.523766,31.5508364 123.776766,31.5508364 L109.121716,31.5508364 C103.036685,31.5508364 101.103917,29.6074493 99.7339884,24.0852564 L99.1764593,21.8710695 C98.7145067,19.9329922 99.0808829,18.9188203 100.918074,18.9188203 L134.746815,18.9188203 C136.589316,18.9188203 137.051268,17.9099581 136.499049,15.966571 L136.132673,14.5860228 C134.189286,7.40186232 131.884832,5.00714215 124.148453,5.00714215 L80.7355212,5.00714215 C78.8930203,5.00714215 78.4363774,6.02131411 78.9939065,7.9487718 L90.9675073,52.7475611 C94.5622424,66.10702 99.8985923,70.8008839 113.635047,70.8008839 L145.615977,70.8008839 Z M394.273949,38.1774678 C397.96426,51.4519698 398.24037,57.8131111 382.756991,57.8131111 C372.153318,57.8131111 368.850622,54.8661717 364.146139,37.9066679 C360.450518,24.6321659 360.084141,18.2763344 375.386987,18.2763344 C386.622526,18.2763344 389.665042,21.6905363 394.273949,38.1774678 M346.629106,39.2872161 C353.44158,66.5636628 366.355016,72.1920517 384.780025,72.1920517 C414.461811,72.1920517 417.132641,57.6219583 411.881248,36.7969195 C405.42453,11.2727071 394.273949,3.90801339 373.263067,3.90801339 C345.98662,3.90801339 340.910451,16.3382571 346.629106,39.2872161" id="path62"></path>
            </g>
        </g>
    </g>
</svg>