<svg width="25" height="28" viewBox="0 0 25 28" fill="none" xmlns="http://www.w3.org/2000/svg">
<path fill-rule="evenodd" clip-rule="evenodd" d="M6.40376 0.0328675C0.0576941 0.696262 -2.10593 8.67078 2.35931 14.9396C3.15275 16.0535 3.28852 16.4439 3.86503 19.2701C5.42677 26.9258 6.4891 28.7981 8.659 27.719C9.87404 27.1148 10.4725 25.7601 11.0598 22.2847C11.3759 20.4143 11.5976 20.0637 12.4643 20.0637C13.3311 20.0637 13.5528 20.4143 13.8689 22.2847C14.4573 25.7666 15.053 27.114 16.272 27.7202C18.4394 28.798 19.5025 26.9231 21.0636 19.2701C21.6402 16.4439 21.7759 16.0535 22.5694 14.9396C27.9883 7.33196 23.782 -1.42445 15.5217 0.268271C13.2064 0.742687 11.7109 0.747663 9.51522 0.28823C8.29169 0.032266 7.23747 -0.0542947 6.40376 0.0328675ZM8.41517 2.87116C8.89434 3.1216 8.89845 3.92443 8.42183 4.16892C8.32486 4.21868 8.00857 4.25739 7.54012 4.2768C5.63164 4.35609 4.35296 5.3064 3.77266 7.07682C3.52288 7.83875 3.35059 8.03314 2.92435 8.03352C1.18994 8.03527 2.825 4.4543 5.07801 3.31687C6.07882 2.81156 7.84873 2.57517 8.41517 2.87116Z" fill="white"/>
</svg>
