<?xml version="1.0" encoding="UTF-8"?>
<svg width="73px" height="19px" viewBox="0 0 73 19" version="1.1" xmlns="http://www.w3.org/2000/svg" xmlns:xlink="http://www.w3.org/1999/xlink">
    <title>ponto-logo 3</title>
    <g id="Symbols" stroke="none" stroke-width="1" fill="none" fill-rule="evenodd">
        <g id="marcas-/-parceiros-final-copy-2" transform="translate(-881.000000, -12.000000)" fill-rule="nonzero">
            <g id="ponto-logo-3" transform="translate(881.000000, 12.000000)">
                <polygon id="polygon4" fill="#F37920" points="70 7 70 11 73 8.98165138 70 7 70 11 73 8.98165138"></polygon>
                <g id="g10" transform="translate(65.000000, 3.000000)" fill="#231F20">
                    <path d="M1.46808511,3.71717172 C2.29787234,3.71717172 2.96808511,2.86868687 2.96808511,1.85858586 C2.96808511,0.808080808 2.29787234,7.17719935e-16 1.46808511,7.17719935e-16 C0.670212766,7.17719935e-16 -9.07075833e-15,0.848484848 -9.07075833e-15,1.85858586 C0.0319148936,2.86868687 0.670212766,3.71717172 1.46808511,3.71717172 Z" id="path6"></path>
                    <path d="M1.5,8.28282828 C0.70212766,8.28282828 0.0319148936,9.13131313 0.0319148936,10.1414141 C0.0319148936,11.1515152 0.70212766,12 1.5,12 C2.32978723,12 3,11.1515152 3,10.1414141 C3,9.09090909 2.32978723,8.28282828 1.5,8.28282828 L1.5,8.28282828 Z" id="path8"></path>
                </g>
                <g id="g22" fill="#231F20">
                    <path d="M34.0184575,2.72008547 L33.7771918,2.72008547 C32.3295979,2.72008547 31.0830587,3.24786325 30.0777851,4.26282051 C29.0725115,5.27777778 28.5497693,6.53632479 28.5497693,7.99786325 L28.5497693,15.224359 L31.7666447,15.224359 L31.7666447,7.99786325 C31.7666447,7.30769231 31.9676994,6.77991453 32.3698088,6.37393162 C32.7719183,5.96794872 33.2946605,5.76495726 33.9380356,5.76495726 C34.5814107,5.76495726 35.1041529,5.96794872 35.5062624,6.37393162 C35.9083718,6.77991453 36.1094265,7.30769231 36.1094265,7.99786325 L36.1094265,15.224359 L39.3263019,15.224359 L39.3263019,7.99786325 C39.3263019,6.53632479 38.8035597,5.27777778 37.7982861,4.26282051 C36.7125906,3.20726496 35.4660514,2.72008547 34.0184575,2.72008547 L34.0184575,2.72008547 Z" id="path12"></path>
                    <polygon id="polygon14" points="41.5781147 15.224359 44.7949901 15.224359 44.7949901 6.13034188 47.4087014 6.13034188 47.4087014 3.08547009 44.7949901 3.08547009 44.7949901 0 41.5781147 0"></polygon>
                    <path d="M60.5174687,6.69871795 C60.1957811,5.92735043 59.7132498,5.1965812 59.1502966,4.62820513 C58.5471325,4.01923077 57.8635465,3.57264957 57.0995386,3.24786325 C56.3355307,2.92307692 55.4911009,2.76068376 54.6466711,2.76068376 C53.8022413,2.76068376 52.9578115,2.92307692 52.1938036,3.24786325 C51.4297956,3.57264957 50.7059987,4.05982906 50.1430455,4.62820513 C49.5398813,5.23717949 49.097561,5.92735043 48.7758734,6.69871795 C48.4541859,7.47008547 48.2933421,8.32264957 48.2933421,9.17521368 C48.2933421,10.0277778 48.4541859,10.8803419 48.7758734,11.6517094 C49.097561,12.4230769 49.5800923,13.1538462 50.1430455,13.7222222 C50.7462096,14.3311966 51.4297956,14.7777778 52.1938036,15.1025641 C52.9578115,15.4273504 53.8022413,15.5897436 54.6466711,15.5897436 C55.4911009,15.5897436 56.3355307,15.4273504 57.0995386,15.1025641 C57.8635465,14.7777778 58.5873434,14.2905983 59.1502966,13.7222222 C59.7534608,13.1132479 60.1957811,12.4230769 60.5174687,11.6517094 C60.8391562,10.8803419 61,10.0277778 61,9.17521368 C61,8.28205128 60.8391562,7.47008547 60.5174687,6.69871795 Z M55.5715227,12.3824786 C55.2900461,12.4636752 54.9683586,12.5448718 54.6064601,12.5448718 C54.2445616,12.5448718 53.9228741,12.5042735 53.6413975,12.3824786 C52.2742254,11.9764957 51.2287409,10.6773504 51.2287409,9.13461538 C51.2287409,7.59188034 52.2340145,6.29273504 53.6413975,5.88675214 C53.9228741,5.80555556 54.2445616,5.72435897 54.6064601,5.72435897 C54.9683586,5.72435897 55.2498352,5.76495726 55.5715227,5.88675214 C56.9386948,6.29273504 57.9841793,7.59188034 57.9841793,9.13461538 C57.9841793,10.6773504 56.9789057,11.9764957 55.5715227,12.3824786 Z" id="path16"></path>
                    <path d="M25.0112063,4.58760684 C24.4080422,3.97863248 23.7244562,3.53205128 22.9604483,3.20726496 C22.1964403,2.88247863 21.3520105,2.72008547 20.5075808,2.72008547 C19.663151,2.72008547 18.8187212,2.88247863 18.0547132,3.20726496 C17.2907053,3.53205128 16.5669084,4.01923077 16.0039552,4.58760684 C15.400791,5.1965812 14.9584707,5.88675214 14.6367831,6.65811966 C14.3150956,7.42948718 14.1542518,8.28205128 14.1542518,9.13461538 C14.1542518,9.98717949 14.3150956,10.8397436 14.6367831,11.6111111 C14.9584707,12.3824786 15.441002,13.1132479 16.0039552,13.6816239 C16.6071193,14.2905983 17.2907053,14.7371795 18.0547132,15.0619658 C18.8187212,15.3867521 19.663151,15.5491453 20.5075808,15.5491453 C21.3520105,15.5491453 22.1964403,15.3867521 22.9604483,15.0619658 C23.7244562,14.7371795 24.4482531,14.25 25.0112063,13.6816239 C25.6143705,13.0726496 26.0566908,12.3824786 26.3783784,11.6111111 C26.7000659,10.8397436 26.8609097,9.98717949 26.8609097,9.13461538 C26.8609097,8.28205128 26.7000659,7.42948718 26.3783784,6.65811966 C26.0969018,5.88675214 25.6143705,5.1965812 25.0112063,4.58760684 L25.0112063,4.58760684 Z M21.4726434,12.3824786 C21.1911668,12.4636752 20.8694792,12.5448718 20.5075808,12.5448718 C20.1456823,12.5448718 19.8239947,12.5042735 19.5425181,12.3824786 C18.1753461,11.9764957 17.1298616,10.6773504 17.1298616,9.13461538 C17.1298616,7.59188034 18.1351351,6.29273504 19.5425181,5.88675214 C19.8239947,5.80555556 20.1456823,5.72435897 20.5075808,5.72435897 C20.8694792,5.72435897 21.1509558,5.76495726 21.4726434,5.88675214 C22.8398154,6.29273504 23.8852999,7.59188034 23.8852999,9.13461538 C23.8852999,10.6773504 22.8398154,11.9764957 21.4726434,12.3824786 Z" id="path18"></path>
                    <path d="M10.8569545,4.58760684 C10.2537904,3.97863248 9.57020435,3.53205128 8.80619644,3.20726496 C8.04218853,2.88247863 7.19775873,2.72008547 6.35332894,2.72008547 C5.50889914,2.72008547 4.66446935,2.88247863 3.90046144,3.20726496 C3.13645353,3.53205128 2.41265656,4.01923077 1.84970336,4.58760684 C1.24653922,5.1965812 0.804218853,5.88675214 0.482531312,6.65811966 C0.201054713,7.3482906 0.0402109426,8.11965812 0,8.85042735 L0,8.85042735 L0,19 L3.21687541,19 L3.21687541,14.7371795 C3.45814107,14.8589744 3.69940672,14.9807692 3.94067238,15.1025641 C4.70468029,15.4273504 5.54911009,15.5897436 6.39353988,15.5897436 C7.23796968,15.5897436 8.08239947,15.4273504 8.84640738,15.1025641 C9.61041529,14.7777778 10.3342123,14.2905983 10.8971655,13.7222222 C11.5003296,13.1132479 11.94265,12.4230769 12.2643375,11.6517094 C12.586025,10.8803419 12.7468688,10.0277778 12.7468688,9.17521368 C12.7468688,8.32264957 12.586025,7.47008547 12.2643375,6.69871795 C11.902439,5.88675214 11.4601187,5.1965812 10.8569545,4.58760684 Z M7.31839156,12.3824786 C6.99670402,12.5042735 6.67501648,12.5448718 6.35332894,12.5448718 C5.99143045,12.5448718 5.66974291,12.5042735 5.38826632,12.3824786 C4.02109426,11.9764957 3.0158207,10.6773504 3.0158207,9.13461538 C3.0158207,7.59188034 4.02109426,6.29273504 5.42847726,5.88675214 C5.70995386,5.80555556 6.0316414,5.72435897 6.39353988,5.72435897 C6.71522742,5.72435897 7.03691496,5.76495726 7.3586025,5.88675214 C8.7659855,6.29273504 9.77125906,7.59188034 9.77125906,9.13461538 C9.69083718,10.6773504 8.68556361,11.9764957 7.31839156,12.3824786 Z" id="path20"></path>
                </g>
            </g>
        </g>
    </g>
</svg>