<svg width="45" height="39" viewBox="0 0 45 39" fill="none" xmlns="http://www.w3.org/2000/svg">
<path fill-rule="evenodd" clip-rule="evenodd" d="M15.8595 0.101324C14.2134 0.611278 13.6192 1.58976 13.5725 3.86706L13.5412 5.39271H6.9989H0.456669L0.266253 5.5916C-0.282055 6.16473 0.086519 8.22913 0.73717 8.22913C1.3458 8.22913 1.86329 8.70608 1.99268 9.38639C2.03418 9.60419 2.13197 9.85182 2.21015 9.93657C2.33324 10.0701 2.35215 10.3791 2.35215 12.2542V14.4177H1.6474C0.204095 14.4177 0.163473 14.4935 0.163473 17.1859V19.3142L0.417448 19.5934C0.662142 19.8622 0.701538 19.8741 1.4899 19.917L2.30838 19.9616L2.35215 22.6117C2.39339 25.1087 2.40573 25.2687 2.56586 25.3836C2.80311 25.5538 3.17046 25.5355 3.41489 25.3413L3.62159 25.1771L3.64706 22.5478L3.67263 19.9186H22.5354H41.3982V22.5252V25.1317L41.6008 25.3187C41.87 25.5669 42.2771 25.5616 42.5211 25.3066C42.7078 25.1114 42.7114 25.0586 42.7114 22.5132V19.9186H43.4162C44.8353 19.9186 44.9001 19.7984 44.9001 17.1642C44.9001 14.5673 44.8171 14.4177 43.3767 14.4177H42.7114L42.7142 12.2044C42.7165 10.3945 42.7404 9.96072 42.8455 9.82432C42.9162 9.73252 42.9741 9.56431 42.9741 9.45051C42.9741 8.86767 43.4698 8.36347 44.1688 8.23523C44.9218 8.09719 45.3099 6.14445 44.6968 5.57897L44.4935 5.39142L38.7749 5.4136L33.0564 5.43569L32.8844 5.66174C32.7564 5.83003 32.728 5.95673 32.7728 6.15751C32.8922 6.69093 32.7954 6.68199 38.461 6.68199C44.1467 6.68199 44.2466 6.69308 43.1445 7.19985C42.6233 7.43949 42.0682 7.99938 41.8704 8.48492L41.7294 8.8308H36.5785H31.4275L31.4008 5.58404L31.3741 2.33728L31.0895 1.77008C30.7522 1.09768 30.2025 0.569419 29.5071 0.249333L29.0103 0.0207007L22.6193 0.00385411C17.5075 -0.00964037 16.1546 0.00987067 15.8595 0.101324ZM29.0646 1.50716C29.4056 1.68207 29.6046 1.86137 29.7969 2.16658L30.0608 2.58577V6.63231C30.0608 11.0723 30.0808 10.8936 29.5237 11.4406C28.9542 11.9997 29.3763 11.968 22.488 11.968C15.5997 11.968 16.0219 11.9997 15.4524 11.4406C14.8952 10.8936 14.9152 11.0723 14.9152 6.63231V2.58577L15.1791 2.16658C15.3714 1.86137 15.5705 1.68207 15.9115 1.50716L16.3797 1.26701H22.488H28.5964L29.0646 1.50716ZM17.338 2.75518C16.8472 3.26823 17.251 3.84557 18.1008 3.84557H18.5925L18.9345 5.50015C19.6864 9.13911 19.5227 8.99797 22.9942 9.00081C26.213 9.00347 26.0501 9.10799 27.1179 6.35237C27.9453 4.21697 27.9804 3.97759 27.5307 3.53614L27.2331 3.24391H24.0776H20.9221L20.7858 3.43498C20.1477 4.32931 20.5673 4.486 23.6789 4.51522C25.1426 4.52906 26.3401 4.57264 26.3401 4.61209C26.3401 4.73432 25.2709 7.49218 25.1794 7.60598C25.0808 7.72855 21.0399 7.7631 20.8473 7.64302C20.7876 7.60581 20.5292 6.60154 20.2732 5.41128C19.6875 2.68762 19.5929 2.55629 18.2178 2.55629C17.6103 2.55629 17.5057 2.57993 17.338 2.75518ZM13.5733 8.80931C13.6089 11.4518 13.8139 12.0121 15.0212 12.7665C15.9005 13.316 15.771 13.3072 22.6714 13.2811L28.9227 13.2573L29.4302 13.0563C30.4199 12.6642 31.2483 11.6103 31.3799 10.5761L31.438 10.1201H36.4181H41.3982V12.2689V14.4177H22.5318H3.66536V12.2689V10.1201H7.75259C11.8284 10.1201 11.8403 10.1196 12.0424 9.93322C12.311 9.68542 12.3058 9.31247 12.0301 9.04181L11.8152 8.8308H7.53092H3.24662L3.10567 8.48492C2.90782 7.99938 2.35268 7.43949 1.83151 7.19985C0.70933 6.6838 0.72929 6.68199 7.46692 6.68199H13.5447L13.5733 8.80931ZM20.6814 9.61485C20.0285 9.93949 20.2967 10.8077 21.0499 10.8077C21.5126 10.8077 21.7876 10.5869 21.7876 10.2156C21.7876 9.71516 21.1624 9.37565 20.6814 9.61485ZM23.6261 9.57935C23.1755 9.74206 23.0338 10.3121 23.3635 10.6358C23.6369 10.9042 24.2606 10.8741 24.4952 10.5812C24.9409 10.0249 24.333 9.32416 23.6261 9.57935ZM43.5869 17.1682V18.6293H22.5318H1.47668V17.1682V15.707H22.5318H43.5869V17.1682ZM18.0669 24.1661C17.1304 24.5765 17.1476 24.4384 17.1476 31.5431V37.7107H10.4065H3.66536V32.5576C3.66536 27.1172 3.66203 27.0711 3.25765 26.8902C2.94747 26.7515 2.8285 26.7705 2.55404 27.0022L2.30838 27.2096L2.2815 32.3527C2.2506 38.2617 2.25401 38.3192 2.65831 38.7161L2.94747 39H22.488H42.0286L42.3177 38.7161C42.722 38.3192 42.7254 38.2617 42.6945 32.3527L42.6676 27.2096L42.422 27.0022C42.1475 26.7705 42.0286 26.7515 41.7184 26.8902C41.314 27.0711 41.3107 27.1172 41.3107 32.5576V37.7107H34.5717H27.8328L27.8087 31.3582L27.7846 25.0057L27.5158 24.6754C26.985 24.0235 27.1507 24.0442 22.488 24.0478C19.2085 24.0503 18.274 24.0754 18.0669 24.1661ZM26.4939 31.5437L26.5163 37.7107H22.4886H18.4608V31.5795C18.4608 24.3183 17.802 25.3275 22.5254 25.3542L26.4714 25.3766L26.4939 31.5437ZM5.41631 25.5986C4.7267 25.9983 4.76268 25.7536 4.73536 30.238L4.71103 34.2401L4.91116 34.5356C5.37455 35.2202 5.3594 35.2182 10.0968 35.2176C16.1852 35.2169 15.6797 35.6852 15.6409 30.0819C15.6128 26.0089 15.6227 26.0806 15.0259 25.6627L14.7401 25.4625L10.2314 25.4417C5.81228 25.4214 5.71659 25.4245 5.41631 25.5986ZM30.1229 25.5629C29.3324 25.9454 29.3049 26.1162 29.3351 30.4699C29.3633 34.5489 29.3458 34.4248 29.9595 34.9095L30.2958 35.1751L34.687 35.199L39.0782 35.2228L39.4715 35.0271C39.6877 34.9194 39.9548 34.6983 40.0649 34.5356L40.265 34.2401L40.2407 30.238C40.2133 25.7455 40.2497 25.9892 39.5478 25.5973C39.1073 25.3513 30.624 25.3204 30.1229 25.5629ZM14.2586 30.3197V33.9305L10.1657 33.9082L6.07291 33.8858L6.05006 30.2973L6.02721 26.7088H10.1429H14.2586V30.3197ZM38.926 30.2973L38.9031 33.8858L34.8103 33.9082L30.7174 33.9305V30.3197V26.7088H34.8331H38.9488L38.926 30.2973ZM19.2798 30.8898C18.7982 30.9931 18.6193 31.63 18.974 31.9782C19.4597 32.455 20.5911 32.1359 20.5911 31.5222C20.5911 31.0426 19.9679 30.7421 19.2798 30.8898Z" fill="#FF695F"/>
</svg>
