<svg width="45" height="37" viewBox="0 0 45 37" fill="none" xmlns="http://www.w3.org/2000/svg">
<path fill-rule="evenodd" clip-rule="evenodd" d="M22.7801 0.141048C21.7553 0.588261 21.5944 1.03742 21.5944 3.45099C21.5944 6.30408 21.9956 6.90198 23.9101 6.90198H24.5367V8.31087V9.71985L24.2073 9.82816C22.6714 10.3332 21.5534 12.0345 21.551 13.8703C21.5505 14.2265 21.4515 14.3545 21.3298 14.1562C21.1314 13.8328 19.7543 13.3637 19.0034 13.3637C16.9788 13.3637 14.2971 15.7458 15.6321 16.3586C15.9944 16.525 16.0826 16.4834 16.7999 15.8076C18.8215 13.9029 21.382 14.6509 21.5325 17.19C21.5999 18.3277 21.438 18.5708 18.9403 21.0821L16.8501 23.1837L15.0104 21.3286L13.1707 19.4736L13.8035 18.8161C14.4914 18.1014 14.5499 17.9289 14.2314 17.5557C13.7567 16.9998 13.7804 16.9818 10.1193 20.6784C7.14026 23.6863 6.77867 24.0823 6.53925 24.5994C5.92303 25.9302 6.07919 27.5646 6.93465 28.7361L7.08001 28.9352H5.28724C1.37039 28.9352 -0.611043 30.8344 0.166863 33.8432C0.725898 36.0054 4.20772 37.8325 5.4275 36.6036C6.05706 35.9694 5.62108 35.5422 4.2779 35.4772C1.95806 35.365 0.725371 33.6244 1.63862 31.7507C2.29049 30.4134 2.62108 30.3127 6.46573 30.2805L9.60564 30.2542V32.8687V35.4833H8.7392C7.49922 35.4833 6.9755 36.0146 7.61691 36.6217L7.82393 36.8177L12.6891 36.792L17.5542 36.7663L18.2346 36.439C21.3596 34.9356 21.1973 30.4779 17.9705 29.1882C17.5072 29.003 17.2868 28.9828 15.2481 28.9389L13.0298 28.891L17.2901 24.5997L21.5505 20.3085L21.5512 26.5907C21.552 34.9585 21.6464 35.3548 23.8973 36.4376L24.5806 36.7663H33.2757H41.9708L42.4841 36.5578C43.4364 36.1708 44.3605 35.2316 44.76 34.2445L44.957 33.7578L44.9823 27.2982C45.0119 19.754 45.0283 19.8856 44.1103 20.2686C43.6824 20.4473 43.6835 20.4332 43.6835 25.4366V30.1789L37.8648 30.1543L32.0461 30.1298L31.55 29.8955C30.9184 29.5971 30.3791 29.0538 30.0829 28.4174L29.8503 27.9176V23.1836V18.4495L30.0938 17.9502C30.3903 17.342 30.9689 16.7876 31.6355 16.4727L32.1339 16.2374L37.9087 16.2111L43.6835 16.1848V17.0797C43.6835 18.2903 43.9445 18.6471 44.6207 18.3607C45.0007 18.1997 45.001 18.1967 44.9999 15.5001C44.9984 11.888 44.5754 10.8585 42.7349 9.98708L42.1061 9.68932L42.1043 8.29565L42.1026 6.90198L42.6954 6.90145C44.5964 6.89995 45.0241 6.22824 44.9839 3.30747L44.957 1.35704L44.6931 0.921857C44.495 0.595252 44.3103 0.425976 43.9528 0.243339L43.4763 0L33.2819 0.00345112C24.3712 0.00645968 23.0487 0.0238031 22.7801 0.141048ZM25.2393 3.45099V5.57468H24.3552C22.9146 5.57468 22.9588 5.64361 22.957 3.38967C22.9555 1.2067 22.8773 1.3273 24.2928 1.3273H25.2393V3.45099ZM28.9281 3.45099V5.57468H27.7424H26.5567V3.45099V1.3273H27.7424H28.9281V3.45099ZM32.617 3.45099V5.57468H31.4313H30.2456V3.45099V1.3273H31.4313H32.617V3.45099ZM36.3058 3.45099V5.57468H35.1201H33.9344V3.45099V1.3273H35.1201H36.3058V3.45099ZM39.9947 3.45356V5.57981L38.8309 5.55512L37.6672 5.53043L37.6436 3.42887L37.6201 1.3273H38.8074H39.9947V3.45356ZM43.5014 1.56047C44.4559 2.78283 43.6384 5.57468 42.3261 5.57468H41.3999V3.45099V1.3273H42.3596C43.2919 1.3273 43.3246 1.33403 43.5014 1.56047ZM40.7128 8.47263C40.7547 10.4949 40.8489 10.6915 41.9708 11.101C43.0705 11.5024 43.6835 12.5525 43.6835 14.0354V14.8658H38.1225C31.2961 14.8658 31.012 14.9093 29.7898 16.1406C28.544 17.3957 28.489 17.6955 28.489 23.2278C28.489 28.7991 28.5197 28.9678 29.7617 30.2191C31.0409 31.5078 30.9993 31.5014 37.9586 31.5014H43.7025L43.6707 32.4968C43.6233 33.9788 43.1859 34.7498 42.107 35.2527C41.5687 35.5036 25.5808 35.5958 24.7509 35.3527C24.209 35.1941 23.4826 34.5788 23.1929 34.0332L22.9996 33.6693V23.2278V12.7864L23.2184 12.3548C23.5047 11.7899 24.0613 11.3062 24.703 11.0643C25.7268 10.6786 25.8541 10.3841 25.8541 8.40051V6.90198H33.2672H40.6803L40.7128 8.47263ZM35.0953 18.0125C34.7105 18.284 34.6371 18.5803 34.6371 19.8609V21.0599L33.4294 21.0602C31.5543 21.0608 31.3874 21.2344 31.3874 23.1836C31.3874 25.1264 31.4945 25.245 33.3065 25.3073L34.5931 25.3515L34.6371 26.6554L34.681 27.9591L34.9678 28.2481L35.2548 28.537L36.5808 28.5657C38.6868 28.6112 38.7895 28.5247 38.8529 26.6498L38.8968 25.3515L40.1834 25.3073C41.993 25.2451 42.106 25.1213 42.0976 23.2085C42.089 21.2316 41.9269 21.0599 40.0695 21.0599H38.8529V19.8609C38.8529 17.9393 38.7832 17.8744 36.7237 17.8744C35.5675 17.8744 35.2532 17.901 35.0953 18.0125ZM37.5512 20.5811L37.5793 21.9605L37.8258 22.1739C38.0624 22.3787 38.1243 22.3872 39.3848 22.3872H40.6973V23.1772V23.9672L39.3724 23.9957L38.0476 24.0242L37.7915 24.3132L37.5354 24.6022V25.9281V27.254H36.745H35.9545V25.9281V24.6022L35.6984 24.3132L35.4424 24.0242L34.0735 23.9959L32.7048 23.9675V23.1774V22.3872H34.0612C35.3681 22.3872 35.4267 22.3794 35.6641 22.1739L35.9106 21.9605L35.9387 20.5811L35.9669 19.2017H36.745H37.523L37.5512 20.5811ZM13.7298 26.3235C10.772 29.2914 9.70357 29.6474 8.22469 28.1575C6.75496 26.6767 7.11989 25.5747 10.0696 22.5869L12.1924 20.4368L14.0389 22.2985L15.8855 24.1603L13.7298 26.3235ZM17.686 30.5154C19.3347 31.3858 19.678 33.402 18.3971 34.6925C17.6247 35.4706 17.5534 35.4833 13.9372 35.4833H10.9231V32.8679V30.2524L14.1069 30.2796C17.2561 30.3065 17.295 30.3091 17.686 30.5154Z" fill="#FF695F"/>
</svg>
